<?xml version="1.0" encoding="utf-8"?>
<!-- Generator: Adobe Illustrator 23.1.1, SVG Export Plug-In . SVG Version: 6.00 Build 0)  -->
<svg version="1.1" id="Layer_1" xmlns="http://www.w3.org/2000/svg" xmlns:xlink="http://www.w3.org/1999/xlink" x="0px" y="0px"
	 viewBox="0 0 240.7 109" style="enable-background:new 0 0 240.7 109;" xml:space="preserve">
<style type="text/css">
	.st0{fill:#2C2C2C;}
	.st1{fill:#FFFFFF;}
</style>
<g>
	<g>
		<path class="st0" d="M217.3,54.6c-0.8-14.2-10.5-30-26-31.2c-35-2.6-139.2-3.1-170.7,3c-1.7,0.3-6.5,3.1-9.2,6.1
			c-3.7,4.3-8.3,10.8-9.6,17.9c-0.3,0.8-0.4,29.7-0.3,30.5C0.9,89.7,6.3,99,25.7,105.3c14.2,4.6,170.9,0.2,174.4,0
			c10.7-0.6,16-8.1,17.1-17.3C217.9,82.1,217.6,60.1,217.3,54.6z"/>
		<g>
			<path class="st0" d="M218.8,54.6c-0.8-11.3-6.2-23.1-16.3-29.1c-7.9-4.7-17.9-4.1-26.8-4.4c-23.7-1-47.5-1.1-71.2-0.9
				c-23.1,0.2-46.2,0.6-69.2,2.8c-8.2,0.8-16.5,1-23,6.6c-7.6,6.5-12,16.3-12.2,26.2C0,64,0,72.2,0,80.4C0,88.7,3.5,95,10.4,99.8
				c11.9,8.3,24.5,8.4,38.4,8.8c38.2,1,76.4,0,114.6-0.8c11.7-0.3,23.4-0.4,35-0.9c7-0.3,13.4-2.7,17.2-9c5-8.5,3.6-20.4,3.5-29.8
				C219.1,63.6,219.1,59.1,218.8,54.6c-0.1-1.9-3.1-1.9-3,0c0.5,9.3,0.5,18.7,0.2,28c-0.3,10.6-4.2,20.5-16.3,21.2
				c-8.8,0.6-17.6,0.5-26.4,0.7c-35.6,0.8-71.3,1.6-107,1.3c-12.2-0.1-24.6,0.2-36.7-1.3c-8.1-1-17.1-5.3-22.5-11.5
				C2.3,87.4,3,80.7,3,73.9C3,66.3,2.4,58.4,3.3,51C4,45,8.6,37.7,13,33.1c3.7-3.8,7.6-5.3,12.7-6c19.2-2.8,38.8-3.1,58.2-3.6
				c23.2-0.5,46.4-0.5,69.6-0.1c9.3,0.2,18.6,0.4,27.9,0.9c4.1,0.2,8.3,0.2,12.3,0.9c6.7,1.3,12.3,5.7,16.1,11.2
				c3.6,5.4,5.7,11.7,6.2,18.1C216,56.5,219,56.5,218.8,54.6z"/>
		</g>
	</g>
	<g id="XMLID_4167_">
		<g id="XMLID_4306_">
			<path class="st1" d="M212.9,1.8c-4-0.3-157.3,0.4-170.7,3c-1.7,0.3-6.5,3.1-9.2,6.1c-3.7,4.3-8.3,10.8-9.6,17.9
				c-0.3,0.8-0.4,29.7-0.3,30.5c-0.6,8.8,4.7,18.1,24.2,24.4c14.2,4.6,170.9,0.2,174.4,0c10.7-0.6,16-8.1,17.1-17.3
				c0.7-5.9,0.4-27.9,0.1-33.4C238.1,18.8,228.4,3,212.9,1.8z"/>
			<g>
				<path class="st0" d="M212.9,0.3c-11.2-0.7-22.7,0-33.9,0c-22.1,0.1-44.2,0.3-66.3,0.6C93.3,1.2,73.9,1.5,54.5,2.4
					c-4.3,0.2-9.3-0.1-13.4,1.2c-10.3,3.2-19,17.3-19.3,27.6c-0.3,9.1-0.2,18.2-0.2,27.3c0,10.1,5,17,13.8,21.8
					c13.2,7.4,27.9,6.6,42.5,6.8c41.9,0.7,83.9-0.3,125.8-1.4c11.9-0.3,28,1.9,34.3-10.9c2.3-4.6,2.5-9.7,2.6-14.8
					c0.2-6.4,0.1-12.8,0-19.2c-0.2-12.1-2.1-23.9-11.2-32.7C224.9,3.6,219.3,1,212.9,0.3c-1.9-0.2-1.9,2.8,0,3
					c15.6,1.6,24,17.2,24.6,31.5c0.4,10.4,1.1,21.4-0.2,31.8c-1.3,10-8.2,15.4-17.9,15.7c-4.8,0.1-9.6,0.3-14.4,0.4
					c-39.2,1-78.3,1.8-117.5,1.5c-8.1-0.1-16.1-0.2-24.2-0.5c-4.8-0.2-9.9-0.1-14.6-1.2C38.4,80.2,25,72.9,24.6,60.9
					c-0.3-7.7,0-15.5,0.1-23.2c0-3.3-0.2-7.2,0.6-10.1c2-7.8,7.8-16.7,15.2-20.4c3.9-2,9.2-1.6,13.5-1.8c17.5-0.8,35-1.1,52.5-1.3
					C141,3.5,175.7,3,210.3,3.3c0.9,0,1.7,0,2.6,0C214.8,3.4,214.8,0.4,212.9,0.3z"/>
			</g>
		</g>
		<g id="XMLID_4305_">
			<path class="st1" d="M226.3,62.6c0,0,2.3,4.8-1.4,7"/>
			<g>
				<path class="st0" d="M225,63.3c-0.1-0.3,0,0.1,0.1,0.4c0.1,0.4,0.3,0.9,0.3,1.3c0.2,1.3-0.2,2.4-1.3,3.2c-1.6,1-0.1,3.6,1.5,2.6
					c3.2-2,3.4-5.8,1.9-9C226.8,60.1,224.2,61.6,225,63.3L225,63.3z"/>
			</g>
		</g>
		<g id="XMLID_4304_">
			<path class="st1" d="M46.6,16.3c0,0-5.9,2.8-7.7,5.6"/>
			<g>
				<path class="st0" d="M45.9,15c-3,1.4-6.3,3.4-8.2,6.2c-1.1,1.6,1.5,3.1,2.6,1.5c1.6-2.3,4.7-3.9,7.1-5.1
					C49.1,16.7,47.6,14.1,45.9,15L45.9,15z"/>
			</g>
		</g>
	</g>
</g>
<g>
	<g>
		<path class="st1" d="M163.3,36.3c0.2-0.5,0.5-1,1-1.2h0.1c0.1-0.1,0.1-0.2,0.2-0.3c0.4-0.5,0.8-0.9,1.3-1.2c0.1,0,0.1-0.1,0.2-0.1
			c0.4-0.3,0.8-0.6,1.3-0.7c0.2-0.1,0.4-0.1,0.7-0.1c0-1,0-2,0.1-3c0.1-1.4,0.3-2.8,0.7-4.1c0.2-0.7,0.4-1.3,0.7-2
			c0.2-0.6,0.5-1.1,0.8-1.6s0.7-1.1,1.2-1.5c0.4-0.4,0.9-0.8,1.5-1.1c0.3-0.1,0.6-0.3,1-0.4c0.3-0.1,0.7-0.1,1-0.2
			c0.1,0,0.1,0,0.2,0c0.6-0.1,1.3-0.1,1.9,0c0.4,0.1,0.9,0.1,1.3,0.3c0.4,0.1,0.7,0.3,1,0.5c0.5,0.3,1.1,0.7,1.4,1.2
			c0.3,0.3,0.5,0.7,0.7,1.1c0.1,0.2,0.2,0.3,0.3,0.5s0.2,0.3,0.3,0.5l0,0c0.4,0.6,0.7,1.1,1,1.7c0.4,0.8,0.7,1.7,0.8,2.6
			c0.1,0.7,0.1,1.5,0,2.2c0,0,0,0,0,0.1c0.1,0.1,0.2,0.3,0.2,0.4c0.1,0.7,0.2,1.5,0.2,2.2c0.2,0,0.5,0,0.7,0s0.4,0,0.6,0
			c0.5,0.1,1.1,0.2,1.6,0.4s0.9,0.4,1.3,0.8c0.2,0.2,0.4,0.3,0.6,0.5c0.2,0.2,0.3,0.4,0.5,0.6c0.2,0.3,0.4,0.7,0.4,1
			c0.1,0.3,0.1,0.7,0.1,1.1c0,0.5-0.2,0.9-0.3,1.3c-0.1,0.5-0.2,0.7-0.4,1.2c-0.1,0.2-0.3,0.4-0.4,0.6c-0.2,0.2-0.3,0.5-0.6,0.6
			c-0.7,0.6-1.6,1-2.6,1.1c-0.3,0-0.6,0.1-0.8,0.1c-0.1,0-0.2,0.1-0.3,0.1c-0.1,1.6-0.2,3.2-0.4,4.8c0,0.1,0,0.3-0.1,0.4
			c0,0.9,0,1.8-0.1,2.8c0,0.6,0,1.3-0.1,1.9c-0.1,1.1-0.1,2.2-0.2,3.3c0.1,0.8,0.2,1.5,0.3,2.3c0.1,0.9,0,1.8,0,2.8
			c0,0.5-0.1,1-0.2,1.5c-0.1,0.3-0.1,0.7-0.3,1c-0.2,0.5-0.4,0.9-0.7,1.3s-0.6,0.8-0.9,1.2c-0.4,0.4-0.8,0.8-1.2,1.1
			c-0.3,0.2-0.6,0.5-0.9,0.6c-0.3,0.1-0.6,0.3-0.8,0.4c-0.1,0.1-0.3,0.1-0.4,0.2c-0.1,0-0.3,0.1-0.4,0.1c-0.2,0-0.4,0.1-0.6,0.1l0,0
			c-0.1,0-0.2,0-0.2,0c-0.2,0-0.3,0-0.5-0.1l0,0c-0.3,0-0.5,0.1-0.8,0.1c-0.1,0-0.1,0-0.2,0c-0.9,0-1.9-0.2-2.7-0.6
			c-0.5-0.2-0.9-0.4-1.3-0.7c-0.4-0.2-0.7-0.5-1-0.8c-0.6-0.7-1-1.4-1.3-2.3c-0.3-0.9-0.4-1.8-0.4-2.7c-0.1-1.9,0.2-3.7,0.3-5.6
			c0-0.2,0-0.3,0-0.5c-0.2-1.7-0.3-3.4-0.3-5.1c0-0.4-0.1-0.8-0.1-1.1c0-0.2-0.1-0.5-0.1-0.7c-0.2-1.7-0.3-3.4-0.5-5.1
			c-0.1,0-0.2,0.1-0.2,0.1c-0.3,0.1-0.7,0.2-1.1,0.2c-0.1,0-0.3,0-0.4,0c-0.4-0.1-0.7-0.2-1.1-0.4c-0.2-0.1-0.4-0.3-0.6-0.5
			l-0.1-0.1c-0.2-0.1-0.4-0.2-0.5-0.3c-0.6-0.2-1.2-0.9-1.1-1.6l0,0c-0.1-0.5-0.1-1.1,0-1.6c0-0.1,0-0.1,0-0.1
			C163.2,37.4,163.1,36.8,163.3,36.3z"/>
		<g>
			<path class="st0" d="M164.6,37c0.7-1.3,2.5-2.7,3.9-2.9c0.6-0.1,1.1-0.8,1.1-1.4c0-3.2,0.1-7.2,2-9.9c2.3-3.2,6.4-3.2,8.8,0.1
				c2,2.7,2.2,6,2.5,9.3c0.1,0.8,0.6,1.5,1.5,1.5c2,0,5,1.5,4.1,4c-0.5,1.4-2.9,2.3-4.1,2.7c-0.7,0.3-1.1,0.7-1.1,1.4
				c-0.3,4.4-1,8.9-0.9,13.3c0.1,4.2,0.7,10.3-4.9,11c-0.4,0.1-1.2,0.1-1.6,0c-5.8-1.4-5.2-5.6-5-10.3c0.2-4.5-0.5-9-0.9-13.5
				c-0.1-0.9-0.9-1.8-1.9-1.4c-3.3,1.3-3.2-2.8-3.4-4.6c-0.2-1.9-3.2-1.9-3,0c0.2,2.7-0.3,4.4,1.9,6.2c1.5,1.2,3.3,2,5.3,1.2
				c-0.6-0.5-1.3-1-1.9-1.4c0.4,4,1,8.1,1,12.1c0,3-0.9,6.2,0.1,9.2c1.4,4,5.4,5.9,9.4,5.6c3.6-0.3,6.8-3.1,7.8-6.5
				c0.8-2.9,0.2-6.2,0.2-9.2c0.1-3.9,0.5-7.7,0.8-11.6c-0.4,0.5-0.7,1-1.1,1.4c3.5-1.4,6.8-2.4,6.5-7.1c-0.2-3.7-4-5.5-7.3-5.5
				c0.5,0.5,1,1,1.5,1.5c-0.1-0.9-0.2-1.7-0.3-2.6c-0.1-1.2-0.1,1.1-0.2-0.1c-0.1-2-0.1-3.6-1-5.6c-1.2-2.5-2.9-5.2-5.7-6.2
				c-9.4-3.1-12.2,8.2-12.2,15c0.4-0.5,0.7-1,1.1-1.4c-2.6,0.6-4.7,2.5-5.7,4.3C161.1,37.2,163.6,38.7,164.6,37z"/>
		</g>
	</g>
	<g>
		<path class="st1" d="M170.5,39.6c-0.3-0.7-0.5-1.4-0.9-2l0,0l0,0c-0.1-0.2-0.2-0.4-0.3-0.6c-0.1-0.2-0.3-0.4-0.4-0.6
			c-0.1-0.1-0.2-0.2-0.3-0.3s-0.1-0.1-0.2-0.2c-0.2-0.3-0.5-0.6-0.8-0.9c-0.4-0.3-0.8-0.6-1.2-0.8s-0.9-0.4-1.4-0.5
			c-0.9-0.2-1.8-0.2-2.7-0.1c-1,0.1-2,0.4-2.9,0.8c-0.9,0.4-1.9,0.8-2.8,1.3c-1.7,1-3.4,2.2-4.9,3.6c-0.2,0-0.4-0.1-0.6-0.2
			c-0.3,0-0.6-0.1-0.9-0.1c-0.1,0-0.1,0-0.2,0c-0.3,0-0.6,0-0.9,0.1l0,0c-0.2-0.1-0.5-0.1-0.7-0.1l0,0c-0.2,0-0.5,0-0.7,0.1
			c-0.1,0-0.3,0.1-0.4,0.1c-0.2,0-0.3,0.1-0.5,0.2c-0.3,0.1-0.6,0.2-0.9,0.4c-0.3,0.2-0.7,0.4-1,0.6c-0.5,0.3-0.9,0.7-1.3,1.1
			c-0.4,0.4-0.7,0.8-1,1.2s-0.5,0.9-0.7,1.3c-0.1,0.3-0.2,0.6-0.3,1c-0.1,0.5-0.1,1-0.2,1.5c-0.1,0.9-0.1,1.8,0,2.8
			c0.1,0.8,0.2,1.5,0.3,2.3c-0.1,1.1-0.2,2.2-0.2,3.3c0,0.5,0,0.9-0.1,1.4c0,0.1,0,0.2,0,0.2c0,0.2,0.1,0.3,0.2,0.4c0,0,0,0,0,0.1
			c-0.2,0.7-0.1,1.5,0,2.2c0.1,0.9,0.5,1.8,0.9,2.6c0.5,0.9,1.1,1.7,1.7,2.5c0.3,0.4,0.7,0.7,1,1.1c0.4,0.4,0.8,0.7,1.3,1
			c0.7,0.5,1.6,0.8,2.4,1c0.7,0.2,1.5,0.2,2.2,0.1c0.4,0,0.7-0.1,1.1-0.2c0.1,0,0.2,0,0.2-0.1c0.3-0.1,0.5-0.2,0.8-0.3
			c0.6-0.3,1.1-0.6,1.6-1.1c0.5-0.4,0.9-0.9,1.3-1.5c0.3-0.5,0.6-1.1,0.9-1.6c0.3-0.6,0.5-1.2,0.7-1.9c-0.1-0.6-0.1-1.2-0.2-1.7
			c-0.1-0.6-0.1-1.2-0.2-1.9c0-0.5,0-1,0-1.4c0-1.2-0.1-2.5-0.3-3.7c0-0.2,0-0.3,0-0.5c0,0,0,0,0-0.1c0.7-0.6,1.4-1.2,2.2-1.7
			c0.7-0.4,1.4-0.7,2.1-1c0.2,0,0.5-0.1,0.7-0.1c0.5,0,1,0,1.5,0c0.6,0,1.1,0.1,1.7,0.1c0.7,0,1.4-0.1,2.1-0.3
			c0.6-0.2,1.2-0.5,1.7-0.9c0.3-0.2,0.6-0.6,0.8-0.9c0.3-0.4,0.5-0.8,0.7-1.2s0.3-0.8,0.4-1.3c0.1-0.2,0.1-0.5,0.1-0.7
			c0-0.4,0.1-0.7,0-1.1c0-0.4-0.1-0.9-0.2-1.3C170.9,40.7,170.7,40.1,170.5,39.6z"/>
		<g>
			<path class="st0" d="M172,39.2c-1.1-2.8-2.7-6.3-6.9-7.1c-3.2-0.6-6.5,0.7-9.2,2.3c-1.3,0.7-2.7,2.3-4.1,2.8
				c-0.8,0.3-0.8,0.2-1.9,0.3c-3.6,0.3-6.4,0.8-8.6,4.3c-1.7,2.6-1.4,5.5-1.3,8.5c0.1,1.9-0.3,4-0.2,5.9c0,0.3,0.4,1.9,0.3,0.3
				c0.2,5.3,2.5,11,8.4,12.3c4.3,1,7.9-1.4,9.7-5.3c1.4-3,0.5-6.3,0.4-9.5c-0.1-2.5,0.2-3.1,3.1-3.6c1.6-0.3,3.3,0.2,4.9-0.1
				C172.2,49.3,173.3,43.9,172,39.2c-0.5-1.9-3.4-1.1-2.9,0.8c1.1,3.8-0.1,7.3-4.7,7.5c-1.7,0-2.9-0.1-4.5,0.5
				c-1.7,0.7-3.9,2-4.3,3.8c-1.2,4.5,3.1,10.7-2.6,13.6c-5.9,3.1-9.5-3.9-9.8-8.6c-0.4-5.9-1.4-16.6,7-16.2c3.5,0.2,4.8-2.3,7.9-3.9
				c4.8-2.5,9-1.5,11,3.4C169.8,41.7,172.7,41,172,39.2z"/>
		</g>
	</g>
	<g>
		<path class="st1" d="M143.8,59.2c-0.1-1.1-0.5-2-1.1-2.7l0,0c-0.1-0.3-0.3-0.6-0.5-0.8c0.3-1.4,0.3-2.8,0.2-4.2
			c0-0.4-0.1-0.8-0.2-1.3c0-0.4,0-0.8-0.1-1.1c-0.1-1.2-0.4-2.3-0.8-3.4c-0.2-0.6-0.5-1.2-0.9-1.8s-0.8-1.2-1.2-1.7
			c-0.8-1-1.9-1.9-3-2.6c-1.1-0.7-2.2-1.3-3.5-1.7c-0.5-0.2-1.1-0.3-1.7-0.3c-0.8-0.1-1.5-0.2-2.3-0.2h-0.1c-1.3,0-2.7,0.2-4,0.4
			c-2.3,0.3-4.5,1.1-6.3,2.5c-0.3,0.2-0.7,0.5-1,0.8c-0.1,0.1-0.2,0.2-0.4,0.3c-0.4,0.4-0.8,0.8-1.2,1.2c-0.4,0.5-0.8,1.1-1.2,1.7
			c-0.6,1-1.1,2.1-1.5,3.1c-0.6,1.4-0.8,2.9-1,4.4c-0.1,1.4,0,2.9,0.3,4.3c0.3,1.4,0.8,2.7,1.4,3.9c0.3,0.5,0.6,1.1,1,1.5
			c0.5,0.6,0.9,1.2,1.5,1.8c0.5,0.5,1.1,1,1.6,1.4s1.1,0.8,1.7,1.1c0.6,0.4,1.3,0.7,2,0.9c0.6,0.3,1.3,0.4,2,0.6
			c3.2,0.7,6.6,0.2,9.6-1.1c0.7,0.4,1.4,0.7,2.2,0.8l0,0c0.1,0,0.1,0.1,0.2,0.1c0.4,0.2,0.9,0.3,1.3,0.4c0.5,0.1,1,0.1,1.5,0
			s1-0.2,1.5-0.5c0.3-0.2,0.6-0.3,0.9-0.5c0.1-0.1,0.2-0.1,0.3-0.2l0,0c0.2-0.1,0.3-0.3,0.5-0.4c0.1-0.1,0.3-0.3,0.3-0.5
			c0.2-0.3,0.5-0.7,0.7-1c0.5-0.8,0.7-1.6,0.9-2.5c0.2-0.8,0.2-1.6,0.1-2.3C143.8,59.4,143.8,59.3,143.8,59.2z"/>
		<g>
			<path class="st0" d="M145.2,58.8c-0.3-1.3-1.2-2.2-1.5-3.4c-0.2-0.7,0.2-1.9,0.2-2.6c0-2.6-0.3-5.6-1.3-8
				c-1.9-4.6-6.3-8-11.1-8.8c-10.8-1.9-21,6-20.8,17.2c0.1,5,2.6,9.8,6.6,12.8c1.8,1.3,3.9,2.3,6,2.8c3.2,0.7,5.8-0.3,8.9-0.5
				c3.3-0.2,6.2,2.4,9.9-0.6C144.5,65.6,145.7,61.9,145.2,58.8c-0.3-1.9-3.2-1.1-2.9,0.8c0.8,4.7-2.9,6.7-6.9,5.9
				c-0.5-0.1-1.5-0.8-2.2-0.8c-2.1,0-4.1,1.4-6.4,1.4c-9.5,0.1-15.5-9.6-12.3-18.3c2.9-7.9,13.6-11.9,20.9-7
				c3.6,2.4,4.8,5.6,5.2,9.8c0.2,1.8-0.3,3.7,0,5.5c0.2,1.1,1.4,2.5,1.6,3.6C142.8,61.5,145.6,60.7,145.2,58.8z"/>
		</g>
	</g>
	<g>
		<path class="st1" d="M116.9,35.8c-0.2-0.5-0.6-0.9-1-1.1h-0.1c-0.1-0.1-0.1-0.2-0.2-0.3c-0.4-0.5-0.8-0.8-1.4-1.1
			c-0.1,0-0.1-0.1-0.2-0.1c-0.4-0.3-0.8-0.5-1.3-0.7c-0.2-0.1-0.4-0.1-0.7-0.1c0-1-0.1-2-0.2-3c-0.2-1.4-0.4-2.7-0.8-4.1
			c-0.2-0.7-0.5-1.3-0.7-2c-0.3-0.6-0.5-1.1-0.9-1.6s-0.8-1-1.2-1.4c-0.5-0.4-1-0.8-1.5-1c-0.3-0.1-0.7-0.3-1-0.4s-0.7-0.1-1-0.1
			c-0.1,0-0.1,0-0.2,0c-0.6-0.1-1.3-0.1-1.9,0c-0.4,0.1-0.9,0.2-1.3,0.3c-0.3,0.1-0.7,0.3-1,0.5c-0.5,0.3-1,0.7-1.4,1.2
			c-0.3,0.3-0.5,0.7-0.7,1.1c-0.1,0.2-0.2,0.3-0.3,0.5c-0.1,0.2-0.2,0.3-0.2,0.5l0,0c-0.4,0.6-0.7,1.2-1,1.8
			c-0.4,0.8-0.6,1.7-0.7,2.6c-0.1,0.7-0.1,1.5,0.1,2.2c0,0,0,0,0,0.1c-0.1,0.1-0.2,0.3-0.2,0.4c-0.1,0.7-0.1,1.5-0.2,2.2
			c-0.2,0-0.5,0-0.7,0s-0.4,0-0.6,0c-0.5,0.1-1.1,0.3-1.6,0.5s-0.9,0.5-1.3,0.8c-0.2,0.2-0.4,0.4-0.6,0.6c-0.2,0.2-0.3,0.4-0.4,0.7
			c-0.2,0.3-0.3,0.7-0.4,1S90,36.5,90,36.9c0.1,0.5,0.2,0.9,0.4,1.3c0.1,0.5,0.2,0.7,0.4,1.1c0.1,0.2,0.3,0.4,0.4,0.6
			c0.2,0.2,0.4,0.5,0.6,0.6c0.8,0.6,1.7,0.9,2.6,1c0.3,0,0.6,0.1,0.8,0.1c0.1,0,0.2,0.1,0.3,0.1c0.1,1.6,0.3,3.2,0.6,4.8
			c0,0.1,0.1,0.3,0.1,0.4c0,0.9,0.1,1.8,0.2,2.8c0,0.6,0.1,1.3,0.1,1.9c0.1,1.1,0.2,2.2,0.4,3.3c-0.1,0.8-0.1,1.5-0.2,2.3
			c0,0.9,0,1.8,0.1,2.8c0.1,0.5,0.1,1,0.2,1.5c0.1,0.3,0.2,0.7,0.3,1c0.2,0.5,0.4,0.9,0.7,1.3c0.3,0.4,0.6,0.8,1,1.2
			s0.8,0.7,1.2,1.1c0.3,0.2,0.6,0.4,1,0.6c0.3,0.1,0.6,0.3,0.9,0.4c0.1,0.1,0.3,0.1,0.4,0.1s0.3,0.1,0.4,0.1c0.2,0,0.4,0.1,0.6,0.1
			l0,0c0.1,0,0.2,0,0.2,0c0.2,0,0.3,0,0.5-0.1l0,0c0.3,0,0.5,0,0.8,0c0.1,0,0.1,0,0.2,0c0.9-0.1,1.9-0.3,2.7-0.7
			c0.4-0.2,0.9-0.4,1.3-0.7c0.3-0.3,0.7-0.5,1-0.9c0.6-0.7,1-1.5,1.2-2.4s0.3-1.8,0.3-2.7c0-1.9-0.3-3.7-0.5-5.6c0-0.2,0-0.3,0-0.5
			c0.1-1.7,0.1-3.4,0.1-5.1c0-0.4,0.1-0.8,0.1-1.1c0-0.2,0-0.5,0.1-0.7c0.1-1.7,0.2-3.4,0.3-5.1c0.1,0,0.2,0.1,0.2,0.1
			c0.3,0.1,0.7,0.2,1.1,0.1c0.1,0,0.3,0,0.4-0.1c0.4-0.1,0.7-0.2,1.1-0.4c0.2-0.1,0.4-0.3,0.6-0.5l0.1-0.1c0.2-0.1,0.4-0.2,0.5-0.4
			c0.6-0.2,1.1-0.9,1-1.6l0,0c0.1-0.5,0.1-1.1-0.1-1.6v-0.1C117.1,36.9,117.1,36.3,116.9,35.8z"/>
		<g>
			<path class="st0" d="M118.2,35c-1.1-1.9-3.2-3.7-5.8-4.1c0.4,0.5,0.7,1,1.1,1.4c-0.2-6.8-3.4-18-12.7-14.6
				c-2.8,1-4.3,3.7-5.5,6.4c-0.8,1.8-0.8,3.2-0.9,5.1c-0.1,1.4,0,0.5,0,0.5c0,0.9-0.2,1.9-0.3,2.8c0.5-0.5,1-1,1.5-1.5
				c-3.3,0.2-7,2-7.2,5.7c-0.2,4.7,3.2,5.7,6.7,6.9c-0.4-0.5-0.7-1-1.1-1.4c0.4,3.9,1,7.7,1.2,11.6c0.2,2.8-0.4,5.9,0.4,8.7
				c1,3.6,4.3,6.7,8.1,6.8c3.7,0.1,7.6-1.5,9-5.2c1.2-3.2,0.2-6.5,0.1-9.8c-0.2-4,0.3-8.1,0.5-12.1c-0.6,0.5-1.3,1-1.9,1.4
				c2,0.7,3.7-0.1,5.2-1.4c2.2-1.8,1.6-3.6,1.7-6.2c0.1-1.9-2.9-1.9-3,0c-0.1,1.3,0.3,3.1-0.3,3.9c-0.5,0.7-2.2,1.1-2.8,0.9
				c-1-0.3-1.8,0.5-1.9,1.4c-0.2,4.2-0.7,8.4-0.5,12.6c0.2,4.6,1.4,12.3-6.1,11.5c-5.4-0.6-5.4-6-5.4-10.2c0-4.6-0.9-9.2-1.3-13.8
				c-0.1-0.7-0.4-1.2-1.1-1.4c-1.1-0.4-0.9-0.3-2.5-1.3c-2.3-0.7-2.3-1.8-0.2-3.3c0.3-1.5,1.1-2.2,2.3-2.1c0.8,0,1.4-0.7,1.5-1.5
				c0.2-3.2,0.3-6.5,2.2-9.4c2.2-3.2,6.3-3.6,8.8-0.5c2,2.6,2.3,6.8,2.4,9.9c0,0.6,0.4,1.3,1.1,1.4c1.4,0.3,3.3,1.6,4,2.8
				C116.6,38.2,119.2,36.7,118.2,35z"/>
		</g>
	</g>
	<g>
		<path class="st1" d="M93,49.5c0-0.1-0.1-0.2-0.1-0.2c-0.4-0.7-0.8-1.4-1.4-2c-0.1-0.1-0.2-0.3-0.3-0.4c-0.4-0.4-0.9-0.8-1.5-1
			c0,0-0.1,0-0.1-0.1c-0.4-0.3-0.9-0.4-1.2-0.5c-0.4-0.1-0.8-0.2-1.2-0.3c-0.8-0.2-1.6-0.2-2.5-0.2l0,0c-0.9-0.1-1.7-0.2-2.4-0.2
			c-0.2,0-0.3,0-0.5,0c-0.7,0-1.4,0-2,0.1c0,0,0,0-0.1,0l-0.1,0.1l-0.1,0.1c0,0-0.1,0-0.1,0.1c0,0-0.1,0-0.2,0h-0.1
			c-0.1,0-0.1,0-0.2,0h-0.1h-0.1c0,0,0,0-0.1,0s-0.1,0-0.2,0s-0.2-0.1-0.2-0.1l0,0c0,0,0,0,0-0.1c0,0,0,0,0-0.1c0,0,0,0,0-0.1
			c-0.1,0-0.1,0-0.2,0c-0.1-0.1-0.1-0.2-0.1-0.3c0,0,0,0,0-0.1c0,0,0-0.1,0.1-0.1l0,0c0,0,0,0,0-0.1l0,0c0,0,0,0,0-0.1
			c0,0,0,0,0-0.1c0,0,0-0.1,0.1-0.1l0,0l0,0v-0.1v-0.1c0,0,0-0.1,0.1-0.1l0.1-0.1c0,0,0,0,0.1,0l0,0l0,0l0,0c0,0,0.1,0,0.1-0.1
			c0.1,0,0.1,0,0.2-0.1l0,0l0,0l0,0l0,0c0.4-0.2,0.8-0.4,1.2-0.5c0.5-0.1,1-0.2,1.5-0.2c0.4,0,0.7,0.1,1.2,0.1l0,0h0.1
			c0.1,0,0.1,0,0.2,0c0.4,0,0.7,0.1,1.1,0.2l0.6,0.1c0.6,0.1,1.3,0.2,1.9,0.3c0.3,0,0.7,0,1,0c0.5,0,0.9,0,1.4-0.1
			c0.2,0,0.4,0,0.6,0c0.1,0,0.2,0,0.4,0c0.2,0,0.4-0.1,0.7-0.1c0.3-0.1,0.6-0.2,0.8-0.3c0.3-0.1,0.5-0.3,0.7-0.4
			c0.2-0.1,0.4-0.3,0.6-0.5s0.4-0.4,0.5-0.6l0.1-0.1c0.3-0.3,0.5-0.6,0.7-1c0.1-0.2,0.1-0.4,0.2-0.5v-0.1c0-0.1,0.1-0.2,0.1-0.4
			s0-0.4,0.1-0.6c0-0.2,0-0.5,0-0.6v-0.1c0-0.3-0.1-0.5-0.2-0.7c-0.1-0.3-0.2-0.6-0.2-0.8c-0.1-0.2-0.2-0.4-0.3-0.6
			c0-0.2-0.1-0.3-0.2-0.5c-0.2-0.2-0.4-0.4-0.5-0.6c-0.1-0.1-0.2-0.1-0.3-0.2l0,0l0,0c-0.1-0.1-0.1-0.1-0.2-0.1c0,0-0.1,0-0.1-0.1
			c0,0-0.1,0-0.1-0.1l0,0l0,0l0,0c-0.1-0.2-0.2-0.3-0.3-0.4c-0.3-0.3-0.7-0.5-1.1-0.7c-0.5-0.2-1-0.5-1.7-0.6
			c-0.3-0.1-0.6-0.2-1-0.2c-0.8-0.2-1.7-0.3-2.7-0.3c-0.1,0-0.2,0-0.3,0c-0.5,0-1,0-1.5,0.1c-0.1,0-0.1,0-0.2,0c0,0,0,0-0.1,0
			c0,0-0.1,0-0.2,0s-0.3,0-0.4,0c-0.6,0-1.2,0.1-1.9,0.2c-0.8,0.2-1.7,0.4-2.5,0.8c-0.8,0.4-1.7,0.8-2.5,1.3s-1.5,1.2-2.1,1.9
			c-0.4,0.5-0.8,1-1.1,1.6c-0.4,0.4-0.7,1-1,1.6c-0.3,0.5-0.5,1.2-0.7,1.9c-0.1,0.3-0.2,0.6-0.3,1c-0.1,0.4-0.3,0.9-0.3,1.3
			c-0.1,0.9-0.1,1.8,0,2.6c0,0.3,0,0.6,0,0.9c0,0.3,0,0.5,0,0.8c0,0.1,0,0.1,0,0.2v0.1v0.2l0.1,0.4c0.1,0.3,0.2,0.7,0.3,1.1
			c0.1,0.3,0.2,0.5,0.4,0.8c0,0,0,0,0,0.1v0.1c0.1,0.1,0.1,0.2,0.2,0.3c0,0,0,0.1,0.1,0.1c0.1,0.1,0.2,0.3,0.4,0.4c0,0,0,0,0,0.1
			l0.1,0.1l0.4-0.3l0,0L72,51.9c0.1,0.1,0.2,0.2,0.3,0.3l0,0l0,0l0,0c0.1,0.1,0.1,0.1,0.2,0.2l0,0h0.1l0.1,0.1l0.1,0.1
			c0,0,0,0,0.1,0l0.1,0.1l0,0c0.1,0.1,0.3,0.2,0.4,0.3c0,0,0,0,0.1,0c0,0,0,0,0.1,0h0.1c0.2,0.1,0.4,0.2,0.5,0.2s0.2,0.1,0.3,0.1
			h0.1h0.1h0.1l0.2,0.1h0.1l0.2,0.1h0.1l0.2-0.4l0,0l-0.1,0.5c0,0,0,0,0.1,0s0.2,0.1,0.3,0.1H76l0.2,0.1h0.1h0.1h0.2h0.1h0.1h0.1
			l0,0H77h0.2h0.1c0.2,0,0.4,0.1,0.5,0.1s0.3,0,0.4,0c0,0,0,0,0.1,0c0.4,0,0.7,0.1,1.1,0.1h0.1h0.1c0.2,0,0.4-0.1,0.6-0.1h0.1h0.1
			h0.1h0.1c0.1,0,0.2-0.1,0.3-0.1l0,0H81c0,0,0,0,0.1,0h0.1h0.1c0,0,0,0,0.1,0s0.2,0,0.2,0h0.1c0.3,0,0.5-0.1,0.7-0.1l0,0l0,0h0.1
			c0.3,0,0.6-0.1,0.9-0.2h0.2c0.8,0.1,1.3,0.3,1.9,0.5c0.4,0.2,0.7,0.3,1,0.5c0.1,0.1,0.2,0.2,0.3,0.3c0.1,0.1,0.1,0.2,0.1,0.3v0.1
			c0,0.1,0,0.2-0.1,0.3c0,0.1,0,0.1-0.1,0.2c0,0.1-0.1,0.1-0.1,0.2c-0.1,0.1-0.1,0.1-0.2,0.2h-0.1c-0.2,0.1-0.4,0.2-0.5,0.2
			l-0.1,0.1c0,0-0.1,0-0.1,0.1c-0.2,0-0.4,0.1-0.6,0.1h-0.1c-0.5,0-1-0.2-1.5-0.3c-0.2-0.1-0.5-0.1-0.7-0.2
			c-0.4-0.1-0.7-0.2-1.1-0.3c-0.3-0.1-0.6-0.1-1-0.2c-0.4-0.1-0.8-0.1-1.1-0.1c-0.4,0-0.8,0-1.2,0.1c-0.1,0-0.2,0.1-0.3,0.1
			c-0.2,0-0.3,0-0.5,0c-0.1,0-0.3,0-0.4,0c-1,0-1.8,0.1-2.6,0.4c-1.2,0.3-2.1,0.8-2.8,1.4c-0.9,0.8-1.5,1.9-1.7,3.1
			c0,0.4-0.1,0.7-0.1,1s0.1,0.7,0.1,1.1c0,0.1,0,0.2,0.1,0.3c0,0.1,0,0.1,0.1,0.2l0,0c0,0,0,0,0,0.1c0,0,0,0,0,0.1s0.1,0.2,0.2,0.3
			l0.1,0.1v0.1c0.1,0.1,0.1,0.1,0.2,0.2l0.2,0.3c0.1,0.1,0.2,0.2,0.3,0.4c0.2,0.3,0.6,0.7,1,1.1c0,0,0,0,0.1,0
			c0.1,0.1,0.2,0.1,0.3,0.2c0.1,0.1,0.2,0.1,0.3,0.2l0,0c0,0,0.1,0,0.1,0.1l0-0.4l0,0l-0.2,0.4h0.1c0.1,0,0.1,0.1,0.2,0.1h0.1
			c0.2,0.1,0.4,0.2,0.6,0.2l0.3,0.1h0.1h0.1l0.1,0.1l0,0h0.1h0.1c0.1,0.1,0.3,0.1,0.4,0.2c0.1,0,0.1,0,0.2,0c0.3,0.1,0.7,0.1,1,0.1
			h0.1c0.1,0,0.2,0,0.3,0c0.1,0.1,0.2,0.1,0.3,0.1c0.4,0,0.9,0,1.3,0s0.9,0,1.3,0s0.8-0.1,1.2-0.1l0,0c0.3,0,0.6,0,1,0
			c0.3,0,0.6,0,0.9,0h0.3h0.3c0.2,0,0.4,0,0.6,0s0.4,0,0.6,0h0.1c0.3,0,0.6,0,1-0.1c0.1,0,0.3,0,0.4,0c0.6-0.1,1.2-0.2,1.8-0.4
			c0.6-0.2,1.2-0.4,1.7-0.7c0.6-0.4,1.2-0.8,1.6-1.2c0.3-0.3,0.5-0.6,0.7-0.9s0.4-0.6,0.6-0.9c0.1-0.2,0.2-0.4,0.3-0.7
			c0-0.1,0.1-0.1,0.1-0.2c0.2-0.4,0.4-0.8,0.6-1.3c0.2-0.4,0.3-0.9,0.4-1.4c0-0.2,0.1-0.4,0.1-0.7c0-0.1,0-0.2,0.1-0.2
			c0.3-0.8,0.5-1.7,0.6-2.6c0.2-1.6,0.1-3-0.3-4.3C93.9,51,93.5,50.2,93,49.5z"/>
		<g>
			<path class="st0" d="M94.3,48.7c-1.9-4.1-5.5-5.2-9.7-5.5c-1.1-0.1-4.8-0.8-5.7,0.1c-0.4,0.4,0.2,0.1,0.2,0.1
				c-0.6,1,0.3-5.6,0.5,1.1c0-0.7-0.5-1.3-1.1-1.4c0.4,0.1-0.3,3,0.5,2c0,0,0.5-0.6,0.4-0.7c0,0,0.1-0.4,0.1-0.5
				c-1.3-0.7,1.3-0.6-0.2-0.1c0.5-0.1-0.8,1.6,0,0.6c0.1-0.2-0.8,0.3-0.3,0.1c0.3-0.1,0.7-0.6,0.9-0.7c1.9-0.3,4.1,0.4,6,0.6
				c3.7,0.4,7.8-0.1,9.4-4c1-2.4,0.1-5.8-2.1-7.2c-0.4,0.9-0.8,1.8-1.2,2.7l0,0c1.4,0.5,2.5-1.5,1.5-2.5c-0.7-0.6-0.5-0.6-0.2,0
				c-0.1,0.6-0.2,1.2-0.2,1.8l0,0c1.2-0.9-0.1-3-1.5-2.5l0,0c0.6,0.2,1.1,0.5,1.7,0.7c-4.8-6.4-17.6-2.6-21.5,2.8
				c-3.1,4.3-5,12.3-0.8,16.6c0.6,0.6,1.5,0.5,2.1,0c0.1-0.1,0.2-0.2,0.4-0.3c-0.7,0-1.4,0-2.1,0l0,0c0-0.7,0-1.4,0-2.1
				c-0.1,0.1-0.2,0.2-0.3,0.3c-0.6,0.6-0.6,1.6,0,2.1c0.2,0.2,0.8,0.5,1,0.7c0.7,0.8-1.2-0.7-0.4-0.2c0.3,0.2,0.5,0.4,0.7,0.6
				c0.8,0.5,1.6,0.9,2.5,1.1c0.8,0.2,1.6-0.3,1.8-1c0.1-0.1,0.1-0.3,0.2-0.4c-0.6,0.3-1.2,0.7-1.8,1l0,0c-0.3-0.6-0.7-1.2-1-1.8
				c0,0.2-0.1,0.3-0.1,0.5c-0.2,0.8,0.3,1.6,1,1.8c1.8,0.5,3.7,0.7,5.5,0.5c0.4,0,0.8-0.3,1.2-0.3c0.4,0,0.8-0.2,1.2-0.2
				c-0.1,0,3,0.3,2.7-0.3c0-0.1-0.9,0.5-1,0.5c-5.1-1.4-14.9-2.2-16.2,5.1c-0.5,3,1,6,3.7,7.4c0.7,0.4,1.6,0.2,2.1-0.5
				c0.1-0.1,0.2-0.3,0.2-0.4c-0.7,0.2-1.4,0.4-2.1,0.5l0,0c-0.2-0.7-0.4-1.4-0.5-2.1c-0.1,0.1-0.1,0.3-0.2,0.4
				c-0.4,0.7-0.2,1.7,0.5,2.1c3.9,2,8,1.4,12.3,1.1C94,68.2,99,57,94.3,48.7c-0.9-1.7-3.5-0.2-2.6,1.5c2.1,3.7,1.4,10.4-1.8,13.6
				c-2.3,2.3-5.4,1.9-8.3,2c-2.8,0.1-5.5,0.6-8.1-0.7c0.2,0.7,0.4,1.4,0.5,2.1c0.1-0.1,0.1-0.3,0.2-0.4c0.4-0.7,0.2-1.7-0.5-2.1l0,0
				c-0.7-0.4-1.6-0.2-2.1,0.5c-0.1,0.1-0.2,0.3-0.2,0.4c0.7-0.2,1.4-0.4,2.1-0.5c-0.8-0.4-2.1-2.1-2.1-2.2c-0.8-3,3.4-5.4,5.8-5.6
				c1.9-0.1,3.5,0.2,5.4,0.5c2.2,0.4,7.3-0.4,4.8-3.9c-2.3-3.1-8.5-0.9-11.8-1.7c0.3,0.6,0.7,1.2,1,1.8c0-0.2,0.1-0.3,0.1-0.5
				c0.2-0.7-0.3-1.7-1-1.8l0,0c-0.8-0.2-1.6,0.2-1.8,1c-0.1,0.1-0.1,0.3-0.2,0.4c0.6-0.3,1.2-0.7,1.8-1c-0.6-0.2-1.2-0.4-1.8-0.8
				c-0.5-0.3,0.1,0-0.2-0.2c-0.2-0.1-0.5-0.3-0.6-0.4c-1.3-1,1.1,0.9,0.2,0c0,0.7,0,1.4,0,2.1c0.1-0.1,0.2-0.2,0.3-0.3
				c0.6-0.6,0.6-1.5,0-2.1l0,0c-0.6-0.6-1.5-0.5-2.1,0c-0.1,0.1-0.2,0.2-0.4,0.3c0.7,0,1.4,0,2.1,0c-2.6-2.7-1.3-8.3,0.1-11
				c2-3.9,5.7-5.9,9.9-6.2c1.3-0.1,6.3-0.4,7.7,1.4c0.4,0.5,1,0.9,1.7,0.7l0,0c-0.5-0.8-1-1.7-1.5-2.5l0,0c-0.6,0.4-0.5,1.3-0.2,1.8
				c0.1,0.3,0.8,0.7,0.7,0.6c0.5-0.8,1-1.7,1.5-2.5l0,0c-1.7-0.6-2.5,1.8-1.2,2.7c2.1,1.4,0.7,4.5-0.9,5.3c-2.1,1.1-4.8,0.3-7,0
				c-1.3-0.2-3-0.5-4.6,0.1c-1.8,0.7-1.7,1.6-0.5,0.3c-0.3,0.3-0.8,0.2-1,0.3c-0.9,0.4,0.6-0.6-0.1,0.1c-0.2,0.2-0.5,0.3-0.7,0.6
				c-0.5,0.9-0.4,0.2-0.5,1.3c-0.1,1.8,1.1-0.8,0.8-1.1c0-0.1-0.7,0.6-0.7,0.7c0.1,1.1-0.4,2.1,1.1,2.5c-0.4-0.5-0.7-1-1.1-1.4
				c0.1,1.8,1.7,1.8,3,1.8c0.2,0,2.1-0.6-0.3-0.2c1.1-0.2,2.4-0.1,3.5-0.1c3.6,0.1,7.2,0.6,8.9,4.2C92.6,52,95.2,50.5,94.3,48.7z"/>
		</g>
	</g>
	<g>
		<path class="st1" d="M127,56.9c0.2,0,0.3-0.1,0.5-0.2c0.2,0,0.4,0,0.6-0.1h0.1c0.1,0,0.2,0,0.2,0c0.2,0,0.4,0,0.6,0
			c0.1,0,0.1,0,0.2,0l0,0c0.1,0,0.3,0,0.4,0c0.1,0,0.2-0.1,0.3-0.1s0.1-0.1,0.2-0.1c0,0,0,0,0.1-0.1c0.1,0,0.1,0,0.2,0
			c0.1,0,0.2-0.1,0.3-0.1c0.1-0.1,0.2-0.2,0.4-0.3c0.1-0.1,0.1-0.2,0.2-0.2c0.1-0.1,0.2-0.3,0.3-0.5s0.2-0.4,0.2-0.6
			c0.1-0.2,0.1-0.3,0.2-0.5c0-0.2,0.1-0.4,0.1-0.6c0-0.2,0-0.4,0-0.6c0-0.2-0.1-0.4-0.1-0.6c-0.1-0.2-0.1-0.4-0.2-0.6
			c-0.1-0.1-0.1-0.2-0.2-0.3c0-0.1-0.1-0.2-0.2-0.3c-0.1-0.1-0.1-0.1-0.2-0.2c-0.1-0.2-0.2-0.5-0.3-0.7c-0.2-0.3-0.4-0.6-0.7-0.8
			c-0.1-0.1-0.2-0.1-0.3-0.1s-0.2,0-0.3-0.1c-0.1,0-0.2,0-0.3,0s-0.2,0-0.3,0.1c-0.1-0.2-0.2-0.4-0.4-0.6c-0.4-0.3-0.9-0.4-1.3,0
			c-0.1,0.1-0.2,0.1-0.2,0.2c-0.1,0.1-0.2,0.2-0.2,0.4l0,0c-0.1,0-0.2,0.1-0.2,0.1h-0.1c-0.1,0-0.2,0-0.3,0c-0.1,0-0.2,0.1-0.3,0.1
			c-0.1,0.1-0.3,0.2-0.4,0.3l0,0l0,0c-0.1,0.1-0.3,0.1-0.4,0.2c-0.1,0.1-0.2,0.2-0.3,0.3c-0.1,0.1-0.2,0.2-0.3,0.4
			c-0.1,0.2-0.2,0.4-0.3,0.6c0,0.1,0,0.2-0.1,0.2l0,0v0.1l0,0c0,0.1-0.1,0.3-0.1,0.4c0,0.2-0.1,0.4-0.1,0.7l0,0l0,0
			c0,0.3,0,0.7,0,1.1c0,0.3,0.1,0.7,0.2,1c0.1,0.2,0.2,0.4,0.3,0.6c0.1,0.1,0.1,0.2,0.2,0.4s0.2,0.3,0.4,0.4
			c0.1,0.1,0.3,0.3,0.4,0.4c0.2,0.2,0.5,0.2,0.8,0.3c0.1,0,0.2,0,0.3,0C126.6,57,126.8,57,127,56.9L127,56.9L127,56.9z"/>
		<g>
			<path class="st0" d="M127.4,58.4c0.7-0.2,0.3-0.1,1-0.2c0.3,0,0.7,0,1-0.1c-0.7-0.1-0.8-0.1-0.4,0c0.9-0.1,1.5-0.1,2.2-0.8
				c-0.4,0.1-0.7,0.3-1.1,0.4c2.8-0.2,3.9-3.8,3.1-6.1c-0.7-2-2.3-4.4-4.7-3.8c0.6,0.2,1.1,0.5,1.7,0.7c-1.1-2-3.7-2-4.8,0
				c0.3-0.2,0.6-0.5,0.9-0.7c0.5,0.1,0.6,0.1,0.2,0c-0.2,0-0.3,0-0.5,0c-0.4,0-0.7,0.1-1,0.3c-0.2,0.1-1.2,0.9-0.4,0.3
				c-0.3,0.2-0.6,0.4-0.9,0.6c-0.8,0.7-1.1,1.8-1.3,2.9c-0.5,2.9,1,6.6,4.5,6.3c1.9-0.2,1.9-3.2,0-3c-1.6,0.1-1.9-2.3-1.4-3.5
				c0.1-0.3,0.5-0.5,0.6-0.8c0.1-0.1,0.2-0.2,0.3-0.3c-0.4-0.1-0.5-0.1-0.2,0c0.4-0.1,0.8,0,1.2-0.3c0.9-0.6,0.3-0.3,0.1-0.6
				c0.3,0.6,1.1,0.8,1.7,0.7c0,0,0.9,1.5,0.9,1.7c0.2,0.6,0.2,1.2,0,1.8c0,0.1-0.5,0.9-0.2,0.6c-0.2,0.2-0.8,0.3-1.1,0.4
				c0.2,0,0.3,0,0.5,0c-0.3-0.1-0.5-0.1-0.8,0c-0.6,0-1.4,0.1-2.2,0.3C124.8,56.1,125.5,59,127.4,58.4z"/>
		</g>
	</g>
</g>
</svg>
