<?xml version="1.0" encoding="utf-8"?>
<!-- Generator: Adobe Illustrator 23.1.1, SVG Export Plug-In . SVG Version: 6.00 Build 0)  -->
<svg version="1.1" id="Layer_1" xmlns="http://www.w3.org/2000/svg" xmlns:xlink="http://www.w3.org/1999/xlink" x="0px" y="0px"
	 viewBox="0 0 109.2 104.8" style="enable-background:new 0 0 109.2 104.8;" xml:space="preserve">
<style type="text/css">
	.st0{fill:#2C2C2C;}
	.st1{fill:#FFFFFF;}
</style>
<g>
	<g>
		<g>
			<path class="st0" d="M87.3,85c0.7-5.9,0.4-27.9,0.1-33.4c-0.7-12.5-8.3-26.2-20.6-30.1C43.5,22,25,22.6,20.7,23.4
				c-1.7,0.3-6.5,3.1-9.2,6.1c-3.7,4.3-8.3,10.8-9.6,17.9c-0.3,0.8-0.4,29.7-0.3,30.5C1,86.8,6.3,96,25.7,102.3
				c1.2,0.4,3.6,0.7,6.8,1c21.2-0.5,36.5-0.9,37.6-1C80.9,101.8,86.2,94.3,87.3,85z"/>
			<g>
				<path class="st0" d="M88.8,85c0.4-3.9,0.4-8,0.4-11.9c0-5,0-10-0.1-15c-0.1-4.3-0.1-8.5-1.1-12.7c-1.3-5.8-3.9-11.3-7.6-16
					c-1.8-2.3-3.9-4.3-6.3-5.9c-2.3-1.6-5.4-3.6-8.4-3.5c-7.5,0.2-14.9,0.3-22.4,0.6c-5.4,0.2-10.8,0.4-16.3,0.7
					c-3.2,0.2-6.5,0.2-9.4,1.7C12.2,25.8,8.2,30.7,5,36c-2.3,3.8-4.5,8.3-4.7,12.8C0,56.2,0.1,63.6,0.1,71.1c0,5.7-0.6,11.8,2.2,17
					c2.2,4.1,5.9,7.3,9.8,9.8c5.2,3.2,11.3,5.9,17.4,6.6c3.9,0.5,7.7,0.2,11.6,0.1c3.5-0.1,7-0.2,10.5-0.3c4.9-0.1,9.8-0.3,14.7-0.4
					c3.2-0.1,6.3-0.1,9.4-1.1c5-1.6,9-5.3,11.1-10.2C87.9,90.2,88.5,87.7,88.8,85c0.2-1.9-2.8-1.9-3,0c-0.6,4.7-2.5,9.5-6.3,12.5
					c-3,2.4-6.7,3.2-10.4,3.3c-9.7,0.3-19.5,0.5-29.2,0.8c-3.7,0.1-7.3,0.3-10.9-0.2c-2.9-0.4-5.7-1.5-8.5-2.7
					c-4.8-2-9.5-4.6-12.9-8.5c-2.3-2.6-3.9-5.8-4.3-9.2c-0.2-2-0.1-4.1-0.1-6.2c0-7.4,0-14.7,0.1-22.1c0-1.3,0-2.6,0.1-3.9
					c0-0.4,0-0.7,0.1-1.1c0-0.3,0-0.1,0,0.1c0.1-0.6,0.2-1.1,0.4-1.7c0.8-3.3,2.4-6.4,4.2-9.2c1.6-2.5,3.3-5,5.4-7.1
					c1.9-1.9,4.3-3.6,6.8-4.7c1.3-0.5,1.9-0.5,3.1-0.6c4.1-0.4,8.2-0.6,12.2-0.7c6.3-0.3,12.7-0.4,19-0.6c3.8-0.1,7.6-0.3,11.4-0.3
					c2.6,0,5.5,2.1,7.5,3.6c8.3,6.3,12.3,16.9,12.6,27.1c0.3,8.9,0.4,17.9,0.1,26.8C86,82,85.9,83.5,85.8,85
					C85.6,87,88.6,86.9,88.8,85z"/>
			</g>
		</g>
	</g>
	<g>
		<g>
			<path class="st1" d="M107.3,65c0.7-5.9,0.4-27.9,0.1-33.4c-0.7-12.5-8.3-26.2-20.6-30.1C63.5,2,45,2.6,40.7,3.4
				c-1.7,0.3-6.5,3.1-9.2,6.1c-3.7,4.3-8.3,10.8-9.6,17.9c-0.3,0.8-0.4,29.7-0.3,30.5C21,66.8,26.3,76,45.7,82.3
				c1.2,0.4,3.6,0.7,6.8,1c21.2-0.5,36.5-0.9,37.6-1C100.9,81.8,106.2,74.3,107.3,65z"/>
			<g>
				<path class="st0" d="M108.8,65c0.4-3.9,0.4-8,0.4-11.9c0-5,0-10-0.1-15c-0.1-4.3-0.1-8.5-1.1-12.7c-1.3-5.8-3.9-11.3-7.6-16
					c-1.8-2.3-3.9-4.3-6.3-5.9c-2.3-1.6-5.4-3.6-8.4-3.5c-7.5,0.2-14.9,0.3-22.4,0.6C58,0.7,52.6,0.9,47.2,1.3
					c-3.2,0.2-6.5,0.2-9.4,1.7c-5.6,2.8-9.6,7.7-12.9,13c-2.3,3.8-4.5,8.3-4.7,12.8c-0.3,7.4-0.2,14.8-0.2,22.3
					c0,5.7-0.6,11.8,2.2,17c2.2,4.1,5.9,7.3,9.8,9.8c5.2,3.2,11.3,5.9,17.4,6.6c3.9,0.5,7.7,0.2,11.6,0.1c3.5-0.1,7-0.2,10.5-0.3
					c4.9-0.1,9.8-0.3,14.7-0.4c3.2-0.1,6.3-0.1,9.4-1.1c5-1.6,9-5.3,11.1-10.2C107.9,70.2,108.5,67.7,108.8,65c0.2-1.9-2.8-1.9-3,0
					c-0.6,4.7-2.5,9.5-6.3,12.5c-3,2.4-6.7,3.2-10.4,3.3c-9.7,0.3-19.5,0.5-29.2,0.8c-3.7,0.1-7.3,0.3-10.9-0.2
					c-2.9-0.4-5.7-1.5-8.5-2.7c-4.8-2-9.5-4.6-12.9-8.5c-2.3-2.6-3.9-5.8-4.3-9.2c-0.2-2-0.1-4.1-0.1-6.2c0-7.4,0-14.7,0.1-22.1
					c0-1.3,0-2.6,0.1-3.9c0-0.4,0-0.7,0.1-1.1c0-0.3,0-0.1,0,0.1c0.1-0.6,0.2-1.1,0.4-1.7c0.8-3.3,2.4-6.4,4.2-9.2
					c1.6-2.5,3.3-5,5.4-7.1c1.9-1.9,4.3-3.6,6.8-4.7c1.3-0.5,1.9-0.5,3.1-0.6c4.1-0.4,8.2-0.6,12.2-0.7c6.3-0.3,12.7-0.4,19-0.6
					C78.2,3.2,82.1,3,85.8,3c2.6,0,5.5,2.1,7.5,3.6c8.3,6.3,12.3,16.9,12.6,27.1c0.3,8.9,0.4,17.9,0.1,26.8
					c-0.1,1.5-0.1,3.1-0.3,4.6C105.6,67,108.6,66.9,108.8,65z"/>
			</g>
		</g>
	</g>
	<g>
		<path class="st0" d="M71.4,37.8c0-0.2,0-0.5-0.1-0.7c0-0.7,0-1.4,0-2.2c-0.1-1.8-0.3-3.6-0.5-5.4c0-0.4-0.1-0.7-0.1-1.1
			c0-1-0.1-2-0.2-3c0-0.1,0-0.2,0-0.3c0.1-1.1,0.2-2.2,0.2-3.3c0-0.5-0.1-1.1-0.3-1.6c-0.2-0.5-0.4-1-0.8-1.4
			c-0.2-0.2-0.4-0.4-0.6-0.5c-0.3-0.2-0.5-0.3-0.8-0.4c-0.5-0.2-1.1-0.3-1.7-0.3c0,0-0.1,0-0.1,0c-0.2,0-0.3,0-0.5,0c0,0,0,0,0,0
			c-0.1,0-0.3-0.1-0.4-0.1c0,0,0,0,0,0c-0.1,0-0.3,0-0.4,0c-0.1,0-0.2,0-0.3,0.1c-0.1,0-0.2,0.1-0.3,0.1C64.3,17.9,64.1,18,64,18
			c-0.2,0.1-0.4,0.2-0.6,0.4c-0.3,0.2-0.5,0.4-0.8,0.6c-0.2,0.2-0.4,0.5-0.6,0.7c-0.2,0.2-0.3,0.5-0.4,0.8c-0.1,0.2-0.1,0.4-0.2,0.6
			c-0.1,0.3-0.1,0.6-0.1,0.9c0,0.5,0,1.1,0,1.6c0,0.5,0.1,0.9,0.2,1.4c-0.1,0.7-0.1,1.3-0.1,2c0,0.4,0,0.7,0,1.1
			c0,0.5,0,1.1-0.1,1.6c0,0.1,0,0.2,0,0.3c-0.2,1.1-0.3,2.2-0.3,3.4c-0.1,2.2,0.1,4.3,0.4,6.5c0,0.1,0.1,0.2,0.1,0.3c0,0,0,0,0,0
			c-0.1,0.4-0.1,0.9,0,1.3c0.1,0.5,0.3,1.1,0.5,1.5c0.3,0.5,0.6,1,1,1.5c0.2,0.2,0.4,0.4,0.6,0.6c0.2,0.2,0.5,0.4,0.8,0.6
			c0.4,0.3,0.9,0.5,1.4,0.6c0.4,0.1,0.9,0.1,1.3,0.1c0.2,0,0.4-0.1,0.6-0.1c0.2-0.1,0.4-0.1,0.6-0.2c0.3-0.2,0.7-0.4,0.9-0.6
			c0.3-0.3,0.5-0.6,0.7-0.9c0.2-0.3,0.4-0.6,0.5-1c0.2-0.4,0.3-0.8,0.4-1.2c0.2-0.8,0.3-1.6,0.4-2.4C71.5,39.3,71.5,38.5,71.4,37.8z
			"/>
		<path class="st0" d="M66.6,20.5c0-0.3-0.2-0.7-0.3-1c-0.1-0.2-0.2-0.4-0.3-0.6c-0.1-0.1-0.2-0.2-0.3-0.3c-0.1-0.1-0.3-0.3-0.5-0.4
			c-0.2-0.1-0.4-0.2-0.6-0.3c-0.3-0.1-0.6-0.2-1-0.3c-0.1,0-0.3,0-0.4,0c-0.2,0-0.5,0-0.7,0.1c-0.2,0-0.4,0.1-0.7,0.2
			c-0.3,0-0.5,0-0.8,0.1c0,0-0.1,0-0.1,0c-0.1,0-0.2,0-0.3,0c-0.3,0-0.5,0-0.8,0c-0.1,0-0.1,0-0.2,0c0,0,0,0,0,0c-0.2,0-0.3,0-0.5,0
			c-0.1,0-0.3,0.1-0.4,0.1c-0.1,0-0.2,0.1-0.3,0.1c0,0-0.1,0-0.1,0.1c-0.1,0-0.2,0-0.2,0c-0.2,0-0.3,0.1-0.4,0.1
			c-0.2,0.1-0.3,0.2-0.5,0.3C57.1,18.9,57,19,57,19c-0.1,0.1-0.3,0.3-0.4,0.5c-0.1,0.2-0.2,0.4-0.3,0.6c-0.1,0.2-0.2,0.3-0.2,0.5
			c0,0.2-0.1,0.4-0.1,0.6c0,0.2,0,0.4,0.1,0.6c0,0.2,0.1,0.4,0.2,0.5c0,0.1,0,0.2,0,0.3c0,0.2,0.1,0.4,0.2,0.5
			c0.1,0.1,0.1,0.2,0.2,0.3c0.1,0.2,0.2,0.5,0.4,0.7c0.1,0.1,0.1,0.1,0.2,0.2c0.2,0.2,0.3,0.3,0.5,0.5c0.2,0.1,0.4,0.2,0.7,0.3
			c0.1,0,0.2,0.1,0.4,0.1c0.2,0.1,0.4,0.2,0.6,0.2c0.3,0.1,0.7,0.1,1.1,0.1c0,0,0,0,0,0c0,0,0.1,0.1,0.1,0.1c0.5,0.3,1.2,0.3,1.7,0
			c0.1-0.1,0.2-0.1,0.3-0.2c0.1-0.1,0.2-0.2,0.3-0.4c0,0,0,0,0,0c0.1,0,0.2-0.1,0.3-0.1c0.1,0,0.1,0,0.2,0c0.1,0,0.3,0,0.4,0
			c0.1,0,0.3-0.1,0.4-0.1c0.2-0.1,0.3-0.2,0.5-0.3c0,0,0,0,0,0c0,0,0,0,0,0c0.2-0.1,0.4-0.1,0.5-0.2c0.1-0.1,0.3-0.2,0.4-0.3
			c0.1-0.1,0.2-0.2,0.3-0.4c0.1-0.2,0.2-0.4,0.3-0.6c0-0.1,0.1-0.2,0.1-0.2c0,0,0,0,0,0c0,0,0,0,0-0.1c0,0,0,0,0,0
			c0.1-0.1,0.1-0.3,0.1-0.4c0-0.2,0.1-0.4,0.1-0.7c0,0,0,0,0,0c0,0,0,0,0,0C66.6,21.2,66.6,20.8,66.6,20.5z"/>
		<path class="st0" d="M71.4,56.7c0-0.2,0-0.5-0.1-0.7c0-0.7,0-1.4,0-2.2c-0.1-1.8-0.3-3.6-0.5-5.4c0-0.4-0.1-0.7-0.1-1.1
			c0-1-0.1-2-0.2-3c0-0.1,0-0.2,0-0.3c0.1-1.1,0.2-2.2,0.2-3.3c0-0.5-0.1-1.1-0.3-1.6c-0.2-0.5-0.4-1-0.8-1.4
			c-0.2-0.2-0.4-0.4-0.6-0.5c-0.3-0.2-0.5-0.3-0.8-0.4c-0.5-0.2-1.1-0.3-1.7-0.3c0,0-0.1,0-0.1,0c-0.2,0-0.3,0-0.5,0c0,0,0,0,0,0
			c-0.1,0-0.3-0.1-0.4-0.1c0,0,0,0,0,0c-0.1,0-0.3,0-0.4,0c-0.1,0-0.2,0-0.3,0.1c-0.1,0-0.2,0.1-0.3,0.1c-0.2,0.1-0.4,0.1-0.5,0.2
			c-0.2,0.1-0.4,0.2-0.6,0.4c-0.3,0.2-0.5,0.4-0.8,0.6c-0.2,0.2-0.4,0.5-0.6,0.7c-0.2,0.2-0.3,0.5-0.4,0.8c-0.1,0.2-0.1,0.4-0.2,0.6
			c-0.1,0.3-0.1,0.6-0.1,0.9c0,0.5,0,1.1,0,1.6c0,0.5,0.1,0.9,0.2,1.4c-0.1,0.7-0.1,1.3-0.1,2c0,0.4,0,0.7,0,1.1
			c0,0.5,0,1.1-0.1,1.6c0,0.1,0,0.2,0,0.3c-0.2,1.1-0.3,2.2-0.3,3.4c-0.1,2.2,0.1,4.3,0.4,6.5c0,0.1,0.1,0.2,0.1,0.3c0,0,0,0,0,0
			c-0.1,0.4-0.1,0.9,0,1.3c0.1,0.5,0.3,1.1,0.5,1.5c0.3,0.5,0.6,1,1,1.5c0.2,0.2,0.4,0.4,0.6,0.6c0.2,0.2,0.5,0.4,0.8,0.6
			c0.4,0.3,0.9,0.5,1.4,0.6c0.4,0.1,0.9,0.1,1.3,0.1c0.2,0,0.4-0.1,0.6-0.1c0.2-0.1,0.4-0.1,0.6-0.2c0.3-0.2,0.7-0.4,0.9-0.6
			c0.3-0.3,0.5-0.6,0.7-0.9c0.2-0.3,0.4-0.6,0.5-1c0.2-0.4,0.3-0.8,0.4-1.2c0.2-0.8,0.3-1.6,0.4-2.4C71.5,58.2,71.5,57.4,71.4,56.7z
			"/>
		<path class="st0" d="M81,57.5c-0.1-0.2-0.2-0.4-0.3-0.6c-0.1-0.1-0.2-0.2-0.3-0.4c-0.1-0.1-0.1-0.1-0.2-0.2
			c-0.1-0.1-0.1-0.1-0.2-0.2c-0.1-0.1-0.2-0.2-0.3-0.3c-0.2-0.2-0.5-0.3-0.7-0.5c-0.3-0.1-0.5-0.3-0.8-0.4c-0.3-0.1-0.5-0.2-0.8-0.3
			c-0.6-0.2-1.1-0.3-1.7-0.4c-0.5-0.1-1-0.2-1.5-0.2c-0.2-0.1-0.5-0.1-0.7-0.2c-0.7-0.2-1.5-0.3-2.2-0.4c-0.5-0.1-1-0.2-1.5-0.2
			c-0.4,0-0.7,0-1.1,0.1c-0.1,0-0.2-0.1-0.3-0.1c-0.7-0.2-1.5-0.3-2.2-0.4c-0.5-0.1-1-0.2-1.5-0.2c-0.4,0-0.9,0-1.3,0.1
			c-0.6,0.1-1.2,0.1-1.7,0.2c-1.2,0.2-2.4,0.5-3.6,0.9c-1.2,0.4-2.4,0.8-3.6,1.4c-0.5,0.2-1,0.5-1.4,0.8c-0.4,0.3-0.8,0.6-1.1,1
			c-0.3,0.4-0.6,0.8-0.7,1.2c-0.1,0.3-0.1,0.5-0.1,0.8c0,0.2,0,0.4,0.1,0.6c0.2,1.1,0.8,2.2,1.7,3c0.2,0.2,0.4,0.3,0.7,0.5
			c0.3,0.1,0.5,0.3,0.8,0.4c0.5,0.2,1.1,0.3,1.7,0.4c0,0,0.1,0,0.1,0c0.2,0.1,0.4,0.1,0.6,0.2c0.5,0.1,1.1,0.3,1.6,0.4
			c0.7,0.1,1.5,0.2,2.2,0.2c0.4,0,0.7,0,1.1,0c0.1,0,0.1,0,0.2,0c0.5,0.1,1.1,0.3,1.6,0.4c0.7,0.1,1.5,0.2,2.2,0.2
			c0.7,0,1.4,0,2.2-0.1c0.8-0.1,1.5-0.2,2.3-0.4c0,0,0.1,0,0.1,0c0.8-0.1,1.7-0.3,2.5-0.5c0.7-0.2,1.5-0.4,2.2-0.7
			c0.6-0.2,1.1-0.5,1.7-0.7c0.5-0.2,1.1-0.4,1.6-0.7c0.2-0.1,0.5-0.2,0.7-0.4c0.1-0.1,0.3-0.2,0.4-0.3c0.1-0.1,0.2-0.1,0.2-0.2
			c0.1-0.1,0.2-0.3,0.3-0.5c0.1-0.1,0.1-0.2,0.1-0.4c0.1,0,0.1-0.1,0.1-0.1c0.1-0.1,0.2-0.3,0.4-0.4c0,0,0.1-0.1,0.1-0.1
			c0.1-0.1,0.1-0.2,0.2-0.3c0.1-0.2,0.2-0.4,0.3-0.6c0.1-0.2,0.1-0.4,0.1-0.6C81.1,57.9,81.1,57.7,81,57.5z"/>
	</g>
</g>
</svg>
