<?xml version="1.0" encoding="utf-8"?>
<!-- Generator: Adobe Illustrator 23.1.1, SVG Export Plug-In . SVG Version: 6.00 Build 0)  -->
<svg version="1.1" id="Layer_1" xmlns="http://www.w3.org/2000/svg" xmlns:xlink="http://www.w3.org/1999/xlink" x="0px" y="0px"
	 viewBox="0 0 422.1 281.6" style="enable-background:new 0 0 422.1 281.6;" xml:space="preserve">
<style type="text/css">
	.st0{fill:#2C2C2C;stroke:#2C2C2C;stroke-linecap:round;stroke-linejoin:round;stroke-miterlimit:10;}
	.st1{fill:#FFFFFF;}
	.st2{fill:#2C2C2C;}
</style>
<g>
	<path class="st0" d="M285.2,153.4c0,0,0.4-10-0.2-17.7c1-17.5,0.8-78.1,0.2-108.9c0,0,1.4-34.4-4.8-24.6
		c-2.4,3.8-3.3,17.3-3.3,32.3c0,15-0.4,62.8,0.2,93.6c0,0-0.4,10,0.2,17.7c-1,17.5-0.8,78.1-0.2,108.9c0,0-1.4,34.4,4.8,24.6
		c2.1-3.3,3.1-14.2,3.3-26.9C285.7,236.1,285.8,184.3,285.2,153.4z"/>
	<path class="st0" d="M144.7,153.4c0,0,0.4-10-0.2-17.7c1-17.5,0.8-78.1,0.2-108.9c0,0,1.4-34.4-4.8-24.6
		c-2.4,3.8-3.3,17.3-3.3,32.3s-0.4,62.8,0.2,93.6c0,0-0.4,10,0.2,17.7c-1,17.5-0.8,78.1-0.2,108.9c0,0-1.4,34.4,4.8,24.6
		c2.1-3.3,3.1-14.2,3.3-26.9C145.2,236.1,145.3,184.3,144.7,153.4z"/>
	<path class="st0" d="M419.8,140c-3.3-2.1-14.2-3.1-26.9-3.3c-16.3-0.3-68.2-0.4-99,0.2c0,0-10-0.4-17.7,0.2
		c-12.4-0.7-46.6-0.8-76.5-0.6c-13.3,0-26.8,0.1-38.5,0.3c-2.4,0-5.4,0-8.2,0.1c-1.7-0.1-10.4-0.3-17.3,0.2
		c-17.5-1-78.1-0.8-108.9-0.2c0,0-34.4-1.4-24.6,4.8c3.8,2.4,17.3,3.3,32.3,3.3c15,0,62.8,0.4,93.6-0.2c0,0,10,0.4,17.7-0.2
		c13.6,0.8,52.9,0.8,84.3,0.5c10.5,0,21-0.1,30.5-0.2c2.5,0,5.4,0,8.3-0.1c1.7,0.1,10.4,0.3,17.3-0.2c17.5,1,78.1,0.8,108.9,0.2
		C395.2,144.7,429.6,146.1,419.8,140z"/>
	<g>
		<g id="XMLID_836_">
			<path class="st1" d="M106.7,239.1c0,0,0.2,0.5-0.6,0.5c-26.7,0.6-69.2,0-69.2,0c-0.8-0.1-0.6-0.5-0.6-0.5
				c-1.1-15.1,0-43.2,0-43.2s-0.2-0.5,0.6-0.5c41.5-1.1,69.6,0,69.6,0c0.8,0.1,0.6,0.5,0.6,0.5S107.3,219.5,106.7,239.1z"/>
			<g>
				<path class="st2" d="M105.3,239.5c-0.4-1,1.6-1.2,0.5-1.4c-0.2,0-0.5,0-0.6,0c-0.5,0-1.1,0-1.6,0c-1.1,0-2.2,0-3.3,0.1
					c-2.4,0-4.7,0.1-7.1,0.1c-4.9,0-9.8,0.1-14.7,0.1c-8.9,0-17.7,0-26.6-0.1c-3.1,0-6.3-0.1-9.4-0.1c-1.7,0-3.4-0.2-5.1-0.1
					c-0.1,0-0.3,0-0.4,0c0,0,0,0-0.1,0c0.1,0,0.6,2.6,0.9,1.4c0.1-0.4,0-0.7,0-1.1c-0.1-2-0.2-4.1-0.3-6.1
					c-0.1-4.5-0.2-8.9-0.1-13.4c0-7.1,0.2-14.1,0.4-21.2c0-0.6,0.1-1.2,0.1-1.7c0,0,0-0.1,0-0.1c0-0.1,0-0.3-0.1-0.4
					c0.8,2.6-1.2,1,0.1,1.4c0.7,0.2,1.8,0,2.5-0.1c0.9,0,1.8,0,2.7-0.1c6.1-0.1,12.3-0.2,18.4-0.3c14.5-0.1,29-0.1,43.4,0.4
					c0.4,0,0.9,0.1,1.4,0c0.1,0,0.2,0,0.3,0c0,0,0,0,0,0c-0.5,0.1-0.6-2.9-0.9-1.2c0,0.2,0,0.1,0,0.2c-0.2,1.8,0,3.8,0,5.6
					c0,9.7-0.1,19.5-0.3,29.2c-0.1,2.8-0.1,5.6-0.2,8.4c-0.1,1.9,2.9,1.9,3,0c0.3-11.1,0.4-22.3,0.5-33.5c0-3,0-6,0-9
					c0-0.2,0.1-0.5,0-0.7c0-0.2,0.1-0.4-0.1,0.2c-0.3,0.8,0,0.2,0.1-0.1c0-0.3,0.1-0.6,0-0.9c-0.3-1.1-1.3-1.3-2.3-1.4
					c-4-0.2-8-0.2-11.9-0.3c-9.2-0.2-18.4-0.2-27.6-0.2c-6.1,0-12.2,0.1-18.3,0.2c-3.4,0.1-6.7,0.1-10.1,0.2c-1.1,0-2.7-0.2-3.4,1
					c-0.3,0.5-0.1,0.8-0.1,1.4c0-0.9,0-0.4,0-0.3c-0.1,0.6,0,1.3-0.1,1.9c0,1.3-0.1,2.7-0.1,4c-0.1,4-0.2,8-0.2,12.1
					c-0.1,4.7-0.1,9.4,0,14.2c0,2.2,0.1,4.5,0.2,6.7c0,1,0.1,2,0.2,3.1c0,0.2,0,0.5,0,0.7c0.2,0.8,0.2-0.6,0.2,0
					c0,0.6-0.3,1,0.1,1.6c0.8,1.3,3,1,4.2,1c2.6,0,5.3,0.1,7.9,0.1c18.8,0.2,37.6,0.3,56.4,0c1,0,2.3,0.1,3.3-0.1
					c0.9-0.3,1.7-1.3,1.3-2.3C107.5,236.9,104.6,237.7,105.3,239.5z"/>
			</g>
		</g>
		<g id="XMLID_835_">
			<path class="st1" d="M98.8,203.9c0,0,0.2-1.2-0.8-1.3c0,0-17.5-1.4-39.1,0c-1,0.1-0.8,1.3-0.8,1.3s-0.2,15.8,0.4,26.9
				c0,0-0.2,1.2,0.8,1.3c0,0,16.7,1,38.4,0c1,0,0.8-1.3,0.8-1.3L98.8,203.9z"/>
			<g>
				<path class="st2" d="M100.3,203.9c0.2-1.8-1.2-2.7-2.8-2.8c-1.4-0.1-2.9-0.2-4.3-0.3c-6.4-0.3-12.9-0.4-19.3-0.3
					c-4.3,0.1-8.7,0.2-13,0.5c-1.7,0.1-3.7,0-4.2,2c-0.1,0.4-0.1,0.9-0.1,1.3c0,5.1,0,10.1,0,15.2c0.1,3.5,0.1,7.1,0.3,10.6
					c0.1,1.2,0,2.4,1.1,3.1c0.5,0.3,1,0.3,1.5,0.4c3.8,0.3,7.6,0.3,11.4,0.4c7.8,0.1,15.5,0.1,23.3-0.2c1.6-0.1,4.4,0.4,5.4-1.3
					c0.3-0.5,0.3-1.1,0.3-1.7c0-1,0-2,0-3c0.1-7.8,0.2-15.5,0.3-23.3C100.3,204.3,100.3,204.1,100.3,203.9c0-1.9-3-1.9-3,0
					c-0.1,6.4-0.2,12.8-0.3,19.2c0,1.7,0,3.4-0.1,5.1c0,0.8-0.1,1.7,0,2.6c0,0,0,0.1,0,0.1c0,0,0,0.3,0,0.2c0-0.5,0.3-0.2-0.1-0.4
					c-0.2-0.1-0.8,0-1,0c-2.1,0.1-4.1,0.2-6.2,0.2c-3.8,0.1-7.6,0.1-11.4,0.1c-5.2,0-10.4-0.1-15.5-0.3c-1,0-2.3-0.3-3.3-0.1
					c-0.1,0-0.2,0-0.3,0c-0.1,0.1-1.1-0.9,0.3,0.2c0.6,0.5,0.2,0.3,0.3,0c0.2-0.4-0.1-1.5-0.1-2c0-0.8-0.1-1.6-0.1-2.4
					c-0.2-6.1-0.2-12.1-0.2-18.2c0-1.4,0.1-2.9,0-4.2c0-0.1,0-0.1,0-0.2c0,0,0-0.3,0-0.2c-0.1,0.5-0.3,0.2,0.1,0.4
					c0.2,0.1,0.8,0,1-0.1c2.1-0.1,4.2-0.2,6.3-0.3c7-0.3,14-0.3,20.9-0.1c2.2,0.1,4.4,0.2,6.6,0.3c1,0.1,2.3,0.4,3.3,0.2
					c0,0,0.2,0,0.2,0c-0.3,0.2-0.6-0.9-0.7-0.2C97.1,205.9,100.1,205.8,100.3,203.9z"/>
			</g>
		</g>
		<g>
			<g>
				<path class="st1" d="M90.9,179.5c-4.4,4.5-9.6,9.6-14.4,14.3c-0.2-0.2-0.4-0.4-0.5-0.6C93.2,176.4,90.9,179.5,90.9,179.5z"/>
				<g>
					<path class="st2" d="M89.9,178.4c-4.7,4.8-9.5,9.6-14.4,14.3c0.7,0,1.4,0,2.1,0c-0.2-0.2-0.4-0.4-0.5-0.6c0,0.7,0,1.4,0,2.1
						c4-4,8.1-8,12.3-11.8c0.7-0.6,1.4-1.2,2.1-1.8c0.2-0.2-0.4,0.2-0.2,0.1c0,0,0.1-0.1,0.1-0.1c0.1,0,0.1-0.1,0.2-0.1
						c0.2-0.2-0.2,0.1-0.2,0.1c-0.7,0.2-1.6-0.2-1.8-1c-0.2-0.5,0.1-0.7,0.1-1.1c0,0,0,0,0,0.1c0,0,0,0.1-0.1,0.1
						c-0.5,0.7-0.1,1.7,0.5,2.1c0.8,0.4,1.6,0.1,2.1-0.5c0.1-0.2,0.2-0.4,0.3-0.5c0.4-1.5-1.3-2.3-2.5-1.6c-0.7,0.4-1.3,1-1.9,1.6
						c-1.4,1.2-2.7,2.5-4.1,3.8c-3.1,2.9-6.1,5.8-9.1,8.8c-0.6,0.6-0.6,1.5,0,2.1c0.2,0.2,0.4,0.4,0.5,0.6c0.6,0.6,1.5,0.6,2.1,0
						c4.9-4.7,9.7-9.5,14.4-14.3C93.3,179.2,91.2,177,89.9,178.4z"/>
				</g>
			</g>
			<g>
				<path class="st1" d="M61.7,178.9c4.5,4.4,9.6,9.6,14.3,14.4c-0.2,0.2-0.4,0.4-0.6,0.5C58.6,176.6,61.7,178.9,61.7,178.9z"/>
				<g>
					<path class="st2" d="M60.6,179.9c4.8,4.7,9.6,9.5,14.3,14.4c0-0.7,0-1.4,0-2.1c-0.2,0.2-0.4,0.4-0.6,0.5c0.7,0,1.4,0,2.1,0
						c-4-4-7.9-8.1-11.8-12.3c-0.6-0.7-1.2-1.4-1.8-2.1c-0.2-0.2,0.2,0.4,0.1,0.2c0,0-0.1-0.1-0.1-0.1c0-0.1-0.1-0.1-0.1-0.2
						c-0.2-0.2,0.1,0.2,0.1,0.2c0.2,0.7-0.2,1.6-1,1.8c-0.5,0.2-0.7-0.1-1.1-0.1c0,0,0,0,0.1,0c0,0,0.1,0,0.1,0.1
						c0.7,0.5,1.7,0.1,2.1-0.5c0.4-0.8,0.1-1.6-0.5-2.1c-0.2-0.1-0.4-0.2-0.5-0.3c-1.5-0.4-2.3,1.3-1.6,2.5c0.4,0.7,1,1.3,1.6,1.9
						c1.2,1.4,2.5,2.7,3.8,4.1c2.9,3,5.8,6.1,8.8,9.1c0.6,0.6,1.5,0.6,2.1,0c0.2-0.2,0.4-0.4,0.6-0.5c0.6-0.6,0.6-1.5,0-2.1
						c-4.7-4.8-9.5-9.7-14.3-14.4C61.4,176.5,59.2,178.6,60.6,179.9z"/>
				</g>
			</g>
			<g>
				<path class="st1" d="M76,193.3c0.2,0.2,0.4,0.4,0.5,0.6c-0.2,0.2-0.4,0.4-0.6,0.5c-0.2-0.2-0.4-0.4-0.5-0.6
					C75.6,193.6,75.8,193.4,76,193.3z"/>
				<g>
					<path class="st2" d="M74.9,194.3c0.2,0.2,0.4,0.4,0.5,0.6c0-0.7,0-1.4,0-2.1c-0.2,0.2-0.4,0.4-0.6,0.5c0.7,0,1.4,0,2.1,0
						c-0.2-0.2-0.4-0.4-0.5-0.6c0,0.7,0,1.4,0,2.1c0.2-0.2,0.4-0.4,0.6-0.5c0.1-0.1,0.2-0.3,0.3-0.5c0.1-0.2,0.1-0.4,0.1-0.6
						c0-0.2,0-0.4-0.1-0.6c-0.1-0.2-0.2-0.3-0.3-0.5c-0.1-0.1-0.2-0.2-0.3-0.2c-0.2-0.1-0.5-0.2-0.8-0.2c-0.1,0-0.3,0-0.4,0.1
						c-0.3,0.1-0.5,0.2-0.7,0.4c-0.2,0.2-0.4,0.4-0.6,0.5c-0.1,0.1-0.2,0.3-0.3,0.5c-0.1,0.2-0.1,0.4-0.1,0.6c0,0.1,0,0.3,0.1,0.4
						c0.1,0.3,0.2,0.5,0.4,0.7c0.2,0.2,0.4,0.4,0.5,0.6c0.1,0.1,0.3,0.2,0.5,0.3c0.2,0.1,0.4,0.1,0.6,0.1c0.1,0,0.3,0,0.4-0.1
						c0.3-0.1,0.5-0.2,0.7-0.4c0.2-0.2,0.4-0.4,0.6-0.5c0.1-0.1,0.2-0.3,0.3-0.5c0.1-0.2,0.1-0.4,0.1-0.6c0-0.1,0-0.3-0.1-0.4
						c-0.1-0.3-0.2-0.5-0.4-0.7c-0.2-0.2-0.4-0.4-0.5-0.6c-0.1-0.1-0.3-0.2-0.5-0.3c-0.2-0.1-0.4-0.1-0.6-0.1c-0.2,0-0.4,0-0.6,0.1
						c-0.2,0.1-0.3,0.2-0.5,0.3c-0.1,0.1-0.2,0.2-0.2,0.3c-0.1,0.2-0.2,0.5-0.2,0.8c0,0.1,0,0.3,0.1,0.4
						C74.6,193.9,74.7,194.1,74.9,194.3z"/>
				</g>
			</g>
		</g>
	</g>
	<g>
		<g>
			<g>
				<path class="st1" d="M168.9,53c0,0,0.8-1.6,2.6-1.5c0,0,68.5,0.1,70.5,0c1.7-0.1,2.6,1.5,2.6,1.5s0.1,38.7-0.8,40.3
					c0,0-0.8,1.6-2.6,1.5c0,0-10.4,0.1-23.1,0.2c0-0.1,0-0.2-0.1-0.3c-0.4-0.3-11-11-11-11c-0.3-0.3-0.8,0-0.8,0
					c-1.3,1.2-10.8,11.1-10.8,11.1s-0.1,0.2-0.1,0.4c-11.4,0-20.9-0.1-23-0.3c-1.7-0.2-2.6-1.5-2.6-1.5S168.4,57.5,168.9,53z"/>
				<g>
					<path class="st2" d="M170.2,53.8c0.4-0.7,1.2-0.8,2.1-0.8c1.2,0,2.3,0,3.5,0c4.4,0,8.9,0,13.3,0c11.9,0,23.8,0,35.7,0
						c4.4,0,8.8,0,13.1,0c1.2,0,2.3,0,3.5,0c0.2,0,0.4,0,0.7,0c0.7,0,0.7,0.4,1.2,0.6c0.4,0.2-0.9,0.8-0.1-0.6c0,0,0,0.1,0,0.1
						c-0.2,1,0,2.4,0,3.5c0,2.4,0,4.8,0,7.2c0,6-0.1,12-0.2,18c0,2.5-0.1,5-0.2,7.4c0,0.8-0.1,1.6-0.1,2.4c0,0.3,0,0.6-0.1,0.8
						c0,0.2,0-0.4,0,0c0,0.1-0.1,0.2-0.1,0.2c0-0.1,0.2-0.2-0.1,0c-0.4,0.4-0.6,0.5-1.2,0.5c-0.8,0-1.5,0-2.3,0
						c-4.1,0-8.2,0.1-12.3,0.1c-2.8,0-5.6,0-8.4,0.1c0.5,0.4,1,0.7,1.4,1.1c-0.1-0.8-0.9-1.3-1.4-1.9c-0.9-0.9-1.7-1.7-2.6-2.6
						c-2.1-2.1-4.1-4.1-6.2-6.2c-0.4-0.4-0.9-0.9-1.3-1.3c-1.2-1-2.5-0.5-3.4,0.5c-2.1,2-4,4.1-6,6.2c-1.1,1.1-2.1,2.2-3.2,3.3
						c-0.6,0.7-1.4,1.2-1.6,2.2c0.5-0.4,1-0.7,1.4-1.1c-7.1,0-14.2,0.1-21.3-0.2c-0.7,0-1.6,0-2.3-0.3c-0.2-0.1-0.5-0.4-0.6-0.5
						c-0.2-0.1-0.1-0.2-0.1-0.1c0,0,0.3,0.8,0.2,0.8c0,0,0-0.1,0-0.2c0.2-0.8-0.1-1.9-0.1-2.7c-0.3-8.9-0.6-17.9-0.7-26.8
						c-0.1-3.5-0.3-7.1,0-10.6c0.2-1.9-2.8-1.9-3,0c-0.3,3.1-0.1,6.3,0,9.4c0.1,5.1,0.2,10.1,0.3,15.2c0.1,4.2,0.2,8.5,0.4,12.7
						c0,0.9,0,1.9,0.1,2.8c0.1,2,2.6,3,4.3,3.2c2.7,0.3,5.4,0.2,8.1,0.2c4.9,0.1,9.8,0.1,14.6,0.1c0.6,0,1.3-0.5,1.4-1.1
						c0.1-0.6-0.6,0.6-0.1,0.1c0.3-0.2,0.5-0.5,0.7-0.8c0.8-0.9,1.6-1.7,2.5-2.6c1.9-2,3.9-4,5.9-6c0.3-0.3,0.6-0.6,1-0.9
						c0.1-0.1,0.3-0.2,0.3-0.3c0,0,0.1-0.1,0.1-0.1c0-0.3-1.2,0.1-1.2-0.1c0,0.2,1.1,1.1,1.2,1.2c1.8,1.8,3.6,3.6,5.4,5.4
						c1,1,2,2,3,3c0.3,0.3,0.7,0.6,1,1c0.1,0.1,0.2,0.2,0.3,0.3c0.3,0.2,0,0.2-0.1-0.2c0.1,0.6,0.8,1.1,1.4,1.1
						c7.7,0,15.4,0.1,23.1-0.2c2.4-0.1,4-1.6,4.2-3.9c0.2-1.8,0.2-3.6,0.3-5.4c0.3-10.9,0.3-21.8,0.3-32.7c0-1.5-0.2-2.6-1.7-3.6
						c-1.2-0.8-2.5-0.7-3.8-0.7c-3.7,0-7.4,0-11.1,0c-12.2,0-24.4,0-36.7,0c-7.1,0-14.2-0.3-21.3,0c-1.6,0.1-3.1,0.8-3.9,2.3
						C166.6,54,169.2,55.5,170.2,53.8z"/>
				</g>
			</g>
			<g>
				<path class="st1" d="M206.1,83.6c0,0,0.6-0.3,0.8,0c0,0,10.7,10.8,11,11c0.1,0.1,0.1,0.2,0.1,0.3c-7.4,0-15.5,0.1-22.9,0.1
					c0-0.2,0.1-0.4,0.1-0.4S204.8,84.8,206.1,83.6z"/>
				<g>
					<path class="st2" d="M206.9,84.9c-0.4,0.2-1.2-0.6-0.9-0.1c0.1,0.1,0.2,0.2,0.3,0.3c0.4,0.4,0.8,0.8,1.1,1.1
						c1.2,1.3,2.5,2.5,3.8,3.8c1.3,1.3,2.5,2.5,3.8,3.8c0.4,0.4,0.9,0.9,1.3,1.3c0.1,0.1,0.3,0.3,0.4,0.4c0.3,0.3,0,0.2,0-0.1
						c0.5-0.6,1-1.3,1.4-1.9c-7.6,0-15.3,0.1-22.9,0.1c0.5,0.6,1,1.3,1.4,1.9c0.2-0.7-0.5,0.4-0.2,0.2c0.1-0.1,0.2-0.2,0.3-0.3
						c0.4-0.4,0.7-0.8,1.1-1.1c1.1-1.2,2.3-2.3,3.4-3.5c2-2,3.9-4.2,6-6c1.4-1.3-0.7-3.4-2.1-2.1c-2.2,2-4.2,4.2-6.2,6.3
						c-1.1,1.2-2.2,2.3-3.4,3.5c-0.7,0.7-1.5,1.3-1.7,2.3c-0.2,0.9,0.4,1.9,1.4,1.9c7.6,0,15.3,0,22.9-0.1c1.1,0,1.6-0.9,1.4-1.9
						c-0.2-1-1.7-2.1-2.4-2.8c-1.4-1.4-2.8-2.8-4.3-4.3c-1.3-1.3-2.6-2.6-3.9-3.9c-1.1-1.1-2-2-3.6-1.2
						C203.6,83.2,205.1,85.8,206.9,84.9z"/>
				</g>
			</g>
		</g>
		<g>
			<g>
				<path class="st1" d="M213.9,73.2c0-0.2,0-0.3,0-0.5c0-0.7,0-1.3,0.2-2c0.2-0.7,0.4-1.5,0.7-2.3c0,0,0.1-0.1,0.2-0.2
					c0.4-1.2,1-2.2,1.9-3c0.8-0.9,1.8-1.6,3-2c0.6-0.4,1.2-0.7,1.9-1c0,0,0.5,0,1.2,0c0.8-0.3,1.5-0.4,2.3-0.3c0.2,0,0.3,0,0.5,0
					c0.7,0,1.3,0,2,0.2c0.7,0.2,1.5,0.4,2.3,0.7c0,0,0.1,0.1,0.2,0.2c1.2,0.4,2.2,1,3,1.9c0.9,0.8,1.6,1.8,2,3
					c0.4,0.6,0.7,1.2,1,1.9c0,0,0,0.5,0,1.2c0.3,0.8,0.4,1.5,0.3,2.3c0,0.2,0,0.3,0,0.5c0,0.7,0,1.3-0.2,2c-0.2,0.7-0.4,1.5-0.7,2.3
					c0,0-0.1,0.1-0.2,0.2c-0.4,1.2-1,2.2-1.9,3c-0.8,0.9-1.8,1.6-3,2c-0.6,0.4-1.2,0.7-1.9,1c0,0-0.5,0-1.2,0
					c-0.8,0.3-1.5,0.4-2.3,0.3c-0.2,0-0.3,0-0.5,0c-0.7,0-1.3,0-2-0.2c-0.7-0.2-1.5-0.4-2.3-0.7c0,0-0.1-0.1-0.2-0.2
					c-1.2-0.4-2.2-1-3-1.9c-0.9-0.8-1.6-1.8-2-3c-0.4-0.6-0.7-1.2-1-1.9c0,0,0-0.5,0-1.2C214,74.8,213.9,74,213.9,73.2z"/>
				<g>
					<path class="st2" d="M215.4,73.2c0-1.2,0.2-2.3,0.5-3.4c0.1-0.2,0.4-1,0-0.4c0.1-0.2,0.3-0.3,0.4-0.4c0.3-0.5,0.4-1.1,0.7-1.5
						c0.5-0.8,1.4-1.7,2.2-2.2c0.5-0.3,1-0.5,1.5-0.7c0.2-0.1,0.4-0.2,0.6-0.3c0.1-0.1,1.2-0.6,0.8-0.5c-0.4,0.1,0.1,0,0.2,0
						c0.2,0,0.5,0,0.7,0c0.6-0.1,1.1-0.3,1.7-0.3c1.2-0.1,2.4,0.1,3.6,0.4c0.3,0.1,0.6,0.2,1,0.3c0,0-0.5-0.3-0.1-0.1
						c0.5,0.3,0.9,0.4,1.4,0.7c0.9,0.5,1.8,1.3,2.4,2.1c0.7,0.9,0.9,2.1,1.6,3c0.1,0.2,0.2,0.7,0.1,0c0,0.1,0,0.3,0,0.4
						c0,0.8,0.2,1.3,0.3,2.1c0.2,1.1,0.1,2.3-0.2,3.4c-0.1,0.5-0.3,1-0.5,1.5c0.1-0.1,0.1-0.1,0.2-0.2c-0.1,0.1-0.2,0.2-0.2,0.3
						c-0.2,0.4-0.3,0.7-0.5,1.1c-0.9,2.1-3,3-4.9,4c-0.2,0.1-0.5,0.2-0.6,0.3c0.4-0.2,0.5,0,0.2,0c-0.6-0.1-1.2,0.1-1.8,0.2
						c-1.2,0.3-2.4,0.2-3.6,0c-0.6-0.1-1.3-0.4-1.9-0.6c0.4,0.1,0.2,0.1-0.1-0.1c-0.3-0.2-0.6-0.3-1-0.4c-1-0.4-1.9-1.3-2.6-2.1
						c-0.8-1-1.1-2.4-1.8-3.5c0.1,0.1,0,0.6,0,0.2c0-0.3,0-0.7,0-1C215.7,74.7,215.4,74.1,215.4,73.2c0-1.9-3-1.9-3,0
						c0,0.8,0.1,1.5,0.3,2.3c0.1,0.5,0,1.1,0.1,1.6c0.1,0.6,0.5,1.2,0.8,1.7c0.4,0.7,0.7,1.5,1.2,2.2c0.7,1,1.6,2,2.6,2.8
						c0.5,0.4,1.1,0.8,1.8,1c0.1,0,0.7,0.2,0.1,0c0.4,0.2,0.7,0.4,1.1,0.6c2.7,1,5.4,0.9,8.2,0.5c1.2-0.2,2.6-1,3.7-1.6
						c1.2-0.6,2.3-1.6,3.1-2.7c0.4-0.4,0.7-0.9,0.9-1.4c0.2-0.3,0.3-0.7,0.4-1c-0.3,0.7,0.2-0.3,0.1-0.2c0.7-1.4,1.1-3.1,1.1-4.6
						c0-1.3-0.3-2.6-0.3-3.9c-0.1-1.4-0.9-2.4-1.4-3.6c-0.6-1.3-1.5-2.3-2.5-3.2c-0.4-0.4-0.9-0.7-1.3-1c-0.3-0.2-0.6-0.3-0.9-0.5
						c-0.2-0.1-0.4-0.2-0.7-0.3c0.2,0.2,0.3,0.2,0.1,0.1c-1.3-0.6-2.6-1.1-4.1-1.3c-1.5-0.2-2.9,0.1-4.4,0.3
						c-0.7,0.1-1.2,0.1-1.9,0.4c-0.6,0.3-1.3,0.7-1.9,1c-1.4,0.7-2.6,1.6-3.6,2.8c-0.5,0.6-0.9,1.3-1.3,2c0,0-0.5,1.2-0.1,0.5
						c-0.1,0.2-0.3,0.5-0.4,0.7c-0.7,1.6-1,3.4-1,5.1C212.5,75.2,215.5,75.2,215.4,73.2z"/>
				</g>
			</g>
			<g>
				<path class="st1" d="M176.1,73.2c0-0.2,0-0.3,0-0.5c0-0.7,0-1.3,0.2-2c0.2-0.7,0.4-1.5,0.7-2.3c0,0,0.1-0.1,0.2-0.2
					c0.4-1.2,1-2.2,1.9-3c0.8-0.9,1.8-1.6,3-2c0.6-0.4,1.2-0.7,1.9-1c0,0,0.5,0,1.2,0c0.8-0.3,1.5-0.4,2.3-0.3c0.2,0,0.3,0,0.5,0
					c0.7,0,1.3,0,2,0.2c0.7,0.2,1.5,0.4,2.3,0.7c0,0,0.1,0.1,0.2,0.2c1.2,0.4,2.2,1,3,1.9c0.9,0.8,1.6,1.8,2,3
					c0.4,0.6,0.7,1.2,1,1.9c0,0,0,0.5,0,1.2c0.3,0.8,0.4,1.5,0.3,2.3c0,0.2,0,0.3,0,0.5c0,0.7,0,1.3-0.2,2c-0.2,0.7-0.4,1.5-0.7,2.3
					c0,0-0.1,0.1-0.2,0.2c-0.4,1.2-1,2.2-1.9,3c-0.8,0.9-1.8,1.6-3,2c-0.6,0.4-1.2,0.7-1.9,1c0,0-0.5,0-1.2,0
					c-0.8,0.3-1.5,0.4-2.3,0.3c-0.2,0-0.3,0-0.5,0c-0.7,0-1.3,0-2-0.2c-0.7-0.2-1.5-0.4-2.3-0.7c0,0-0.1-0.1-0.2-0.2
					c-1.2-0.4-2.2-1-3-1.9c-0.9-0.8-1.6-1.8-2-3c-0.4-0.6-0.7-1.2-1-1.9c0,0,0-0.5,0-1.2C176.1,74.8,176,74,176.1,73.2z"/>
				<g>
					<path class="st2" d="M177.6,73.2c0-1.2,0.2-2.3,0.5-3.4c0.1-0.2,0.4-1,0-0.4c0.1-0.2,0.3-0.3,0.4-0.4c0.3-0.5,0.4-1.1,0.7-1.5
						c0.5-0.8,1.4-1.7,2.2-2.2c0.5-0.3,1-0.5,1.5-0.7c0.2-0.1,0.4-0.2,0.6-0.3c0.1-0.1,1.2-0.6,0.8-0.5c-0.4,0.1,0.1,0,0.2,0
						c0.2,0,0.5,0,0.7,0c0.6-0.1,1.1-0.3,1.7-0.3c1.2-0.1,2.4,0.1,3.6,0.4c0.3,0.1,0.6,0.2,1,0.3c0,0-0.5-0.3-0.1-0.1
						c0.5,0.3,0.9,0.4,1.4,0.7c0.9,0.5,1.8,1.3,2.4,2.1c0.7,0.9,0.9,2.1,1.6,3c0.1,0.2,0.2,0.7,0.1,0c0,0.1,0,0.3,0,0.4
						c0,0.8,0.2,1.3,0.3,2.1c0.2,1.1,0.1,2.3-0.2,3.4c-0.1,0.5-0.3,1-0.5,1.5c0.1-0.1,0.1-0.1,0.2-0.2c-0.1,0.1-0.2,0.2-0.2,0.3
						c-0.2,0.4-0.3,0.7-0.5,1.1c-0.9,2.1-3,3-4.9,4c-0.2,0.1-0.5,0.2-0.6,0.3c0.4-0.2,0.5,0,0.2,0c-0.6-0.1-1.2,0.1-1.8,0.2
						c-1.2,0.3-2.4,0.2-3.6,0c-0.6-0.1-1.3-0.4-1.9-0.6c0.4,0.1,0.2,0.1-0.1-0.1c-0.3-0.2-0.6-0.3-1-0.4c-1-0.4-1.9-1.3-2.6-2.1
						c-0.8-1-1.1-2.4-1.8-3.5c0.1,0.1,0,0.6,0,0.2c0-0.3,0-0.7,0-1C177.8,74.7,177.6,74.1,177.6,73.2c0-1.9-3-1.9-3,0
						c0,0.8,0.1,1.5,0.3,2.3c0.1,0.5,0,1.1,0.1,1.6c0.1,0.6,0.5,1.2,0.8,1.7c0.4,0.7,0.7,1.5,1.2,2.2c0.7,1,1.6,2,2.6,2.8
						c0.5,0.4,1.1,0.8,1.8,1c0.1,0,0.7,0.2,0.1,0c0.4,0.2,0.7,0.4,1.1,0.6c2.7,1,5.4,0.9,8.2,0.5c1.2-0.2,2.6-1,3.7-1.6
						c1.2-0.6,2.3-1.6,3.1-2.7c0.4-0.4,0.7-0.9,0.9-1.4c0.2-0.3,0.3-0.7,0.4-1c-0.3,0.7,0.2-0.3,0.1-0.2c0.7-1.4,1.1-3.1,1.1-4.6
						c0-1.3-0.3-2.6-0.3-3.9c-0.1-1.4-0.9-2.4-1.4-3.6c-0.6-1.3-1.5-2.3-2.5-3.2c-0.4-0.4-0.9-0.7-1.3-1c-0.3-0.2-0.6-0.3-0.9-0.5
						c-0.2-0.1-0.4-0.2-0.7-0.3c0.2,0.2,0.3,0.2,0.1,0.1c-1.3-0.6-2.6-1.1-4.1-1.3c-1.5-0.2-2.9,0.1-4.4,0.3
						c-0.7,0.1-1.2,0.1-1.9,0.4c-0.6,0.3-1.3,0.7-1.9,1c-1.4,0.7-2.6,1.6-3.6,2.8c-0.5,0.6-0.9,1.3-1.3,2c0,0-0.5,1.2-0.1,0.5
						c-0.1,0.2-0.3,0.5-0.4,0.7c-0.7,1.6-1,3.4-1,5.1C174.6,75.2,177.6,75.2,177.6,73.2z"/>
				</g>
			</g>
		</g>
	</g>
	<g>
		<g>
			<path class="st1" d="M51,105.2c1.8-10.1,4.6-14.4,8.1-16.4c0,0,20.8-7.7,26.5,11.9c0.5,1.6,0.8,3.1,0.9,4.5H51z"/>
			<g>
				<path class="st2" d="M52.5,105.6c0.8-4.6,1.9-10.1,5.2-13.7c0.5-0.5,1-1,1.6-1.4c0.1-0.1,0.7-0.5,0.3-0.2c0,0,0.1,0,0.2-0.1
					c0.6-0.2,1.2-0.4,1.8-0.5c5.3-1.4,11.7-1.4,16.5,1.9c4.5,3.1,6.5,8.8,7.2,14c0.5-0.6,1-1.3,1.4-1.9c-10.4,0-20.8,0-31.2,0
					c-1.5,0-2.9,0-4.4,0c-1.9,0-1.9,3,0,3c10.4,0,20.8,0,31.2,0c1.5,0,2.9,0,4.4,0c1.1,0,1.6-1,1.4-1.9c-0.7-5.3-2.8-10.9-7-14.5
					c-3-2.6-6.7-4-10.6-4.4c-3-0.3-6.2,0-9.1,0.7c-1.9,0.4-3.4,1-4.9,2.3c-4.4,3.8-5.9,10.4-6.8,15.9
					C49.3,106.7,52.2,107.5,52.5,105.6z"/>
			</g>
		</g>
		<g>
			<path class="st1" d="M36.1,42.8c0,0-0.2-0.7,0.5-0.7c38.7-1.6,65,0,65,0c0.8,0.1,0.5,0.7,0.5,0.7s0,22-0.2,45H35.7L36.1,42.8z"/>
			<g>
				<path class="st2" d="M37.5,42.4c0.2,0.7-0.8,0.9-0.2,1.2c0.3,0.1,0.7,0,1,0c0.7,0,1.5-0.1,2.2-0.1c1.5-0.1,3-0.1,4.6-0.2
					c2.8-0.1,5.7-0.2,8.5-0.2c5-0.1,10-0.2,14.9-0.2c7.6,0,15.1,0.1,22.7,0.3c2.3,0.1,4.5,0.1,6.8,0.2c1,0,2.3,0.3,3.3,0.2
					c0.1,0,0.2,0,0.3,0c-0.3,0.2-0.7-2.1-0.9-0.8c-0.1,0.4,0,0.9,0,1.3c0,2.7,0,5.5,0,8.2c0,11.8-0.1,23.7-0.2,35.5
					c0.5-0.5,1-1,1.5-1.5c-7.5,0-15,0-22.4,0c-11.9,0-23.7,0-35.6,0c-2.7,0-5.5,0-8.2,0c0.5,0.5,1,1,1.5,1.5
					c0-5.1,0.1-10.1,0.1-15.2c0.1-8,0.1-16.1,0.2-24.1c0-1.9,0-3.7,0-5.6c0-1.9-3-1.9-3,0c0,5.1-0.1,10.1-0.1,15.2
					c-0.1,8-0.1,16.1-0.2,24.1c0,1.9,0,3.7,0,5.6c0,0.8,0.7,1.5,1.5,1.5c7.5,0,15,0,22.4,0c11.9,0,23.7,0,35.6,0c2.7,0,5.5,0,8.2,0
					c0.8,0,1.5-0.7,1.5-1.5c0.1-11.4,0.2-22.7,0.2-34.1c0-3.1,0-6.2,0-9.4c0-0.5,0-1,0-1.5c0,0.4,0,0.4,0-0.2c0-0.4-0.1-0.8-0.3-1.1
					c-0.4-0.6-1.1-0.9-1.8-1c-3-0.3-6.1-0.3-9.1-0.4c-7.8-0.2-15.6-0.3-23.4-0.3c-6.1,0-12.1,0.1-18.2,0.2
					c-3.5,0.1-6.9,0.2-10.4,0.3c-1.8,0.1-6.8-0.5-5.9,2.8C35.1,45,38,44.2,37.5,42.4z"/>
			</g>
		</g>
		<g>
			<path class="st1" d="M101.2,98.5c-24.9,0.5-64.6,0-64.6,0c-0.8-0.1-0.5-0.5-0.5-0.5c-0.1-2-0.2-4.4-0.3-6.8v-3.9H102
				c-0.1,3.6-0.1,7.2-0.2,10.7C101.8,98,102,98.5,101.2,98.5z"/>
			<g>
				<path class="st2" d="M101.2,97c-12.7,0.3-25.4,0.3-38.1,0.2c-8.5,0-17.1-0.1-25.6-0.2c-0.2,0-0.6-0.1-0.8,0
					c0.2-0.1,0.9,2.6,0.9,0.8c0-1.1-0.1-2.2-0.2-3.3c-0.1-2.4-0.1-4.8-0.1-7.2c-0.5,0.5-1,1-1.5,1.5c7.5,0,15,0,22.4,0
					c11.9,0,23.7,0,35.6,0c2.7,0,5.5,0,8.2,0c-0.5-0.5-1-1-1.5-1.5c0,2-0.1,4.1-0.1,6.1c0,1,0,1.9-0.1,2.9c0,0.5-0.1,1,0,1.4
					C100.3,99.5,100.3,97.1,101.2,97c-0.8,0.1-1.5,0.6-1.5,1.5c0,0.7,0.7,1.6,1.5,1.5c1-0.1,1.9-0.5,2-1.5c0.1-0.9,0-1.9,0.1-2.8
					c0.1-2.8,0.1-5.5,0.2-8.3c0-0.8-0.7-1.5-1.5-1.5c-7.5,0-15,0-22.4,0c-11.9,0-23.7,0-35.6,0c-2.7,0-5.5,0-8.2,0
					c-0.8,0-1.5,0.7-1.5,1.5c0,2,0,4,0.1,6.1c0,1,0.1,2,0.1,2.9c0,0.7,0,1.4,0.1,2.1c0.2,1.1,1.1,1.5,2.1,1.6c2.3,0.2,4.7,0.1,7,0.1
					c11.8,0.1,23.6,0.2,35.4,0.2c7.4,0,14.8-0.1,22.2-0.2C103.1,100,103.2,97,101.2,97z"/>
			</g>
		</g>
		<g>
			<path class="st1" d="M44.5,50c0,0-0.2-0.4,0.4-0.5c28.4-1,47.7,0,47.7,0c0.6,0.1,0.4,0.5,0.4,0.5s0,14.4-0.2,29.6H44.3L44.5,50z"
				/>
			<g>
				<path class="st2" d="M46,49.6c-0.1,0.2-0.2,0.5-0.3,0.7c-0.5,0.6-0.5,0.8,0,0.7c0.1,0.1,0.6,0,0.7,0c0.5,0,1,0,1.5,0
					c1.1,0,2.2-0.1,3.4-0.1c1.9-0.1,3.8-0.1,5.8-0.1c3.6-0.1,7.2-0.1,10.8-0.1c5.4,0,10.8,0,16.2,0.1c2.7,0.1,5.4,0.1,8.1,0.3
					c0.1,0,0.4,0.1,0.5,0c-0.4,0.2-0.8-2.4-1.1-1c0,0.1,0,0.2,0,0.3c-0.1,1.6,0,3.2,0,4.8c0,8.2-0.1,16.4-0.2,24.5
					c0.5-0.5,1-1,1.5-1.5c-5.5,0-11,0-16.4,0c-8.7,0-17.4,0-26.2,0c-2,0-4,0-6,0c0.5,0.5,1,1,1.5,1.5c0.1-8.6,0.1-17.3,0.2-25.9
					c0-1.2,0-2.4,0-3.6c0-1.9-3-1.9-3,0c-0.1,8.6-0.1,17.3-0.2,25.9c0,1.2,0,2.4,0,3.6c0,0.8,0.7,1.5,1.5,1.5c5.5,0,11,0,16.4,0
					c8.7,0,17.4,0,26.2,0c2,0,4,0,6,0c0.8,0,1.5-0.7,1.5-1.5c0.1-7.9,0.1-15.9,0.2-23.8c0-1.8,0.1-3.7,0-5.5c0-0.1,0-0.2,0-0.3
					c0,0.7,0-0.1,0-0.4c-0.1-0.4-0.2-0.8-0.5-1c-0.4-0.4-1-0.5-1.5-0.6c-2.5-0.2-5.1-0.2-7.6-0.3c-5.8-0.1-11.6-0.2-17.4-0.2
					c-4.4,0-8.8,0.1-13.2,0.2c-2.5,0.1-4.9,0.1-7.4,0.2c-1.5,0.1-4.5,0-3.8,2.4C43.6,52.2,46.5,51.4,46,49.6z"/>
			</g>
		</g>
	</g>
	<g>
		<g id="XMLID_834_">
			<path class="st1" d="M327.5,171.6c0,0-0.9-0.4-1,1.5c0,0-1.1,32.5,0,72.4c0.1,1.9,1,1.5,1,1.5s12.1,0.3,20.6-0.7
				c0,0,0.9,0.4,1-1.5c0,0,0.8-30.9,0-71.1c0-1.9-1-1.5-1-1.5L327.5,171.6z"/>
			<g>
				<path class="st2" d="M327.9,170.1c-3.5-1.2-3,5.7-3,7.6c-0.2,6.4-0.3,12.8-0.3,19.3c-0.1,10.1-0.1,20.1,0.1,30.2
					c0.1,5.9,0.1,11.9,0.4,17.8c0,1,0.1,1.9,0.7,2.7c0.7,0.8,1.2,0.6,2.1,0.8c0.2,0-0.6,0,0,0c0.5,0,0.9,0,1.4,0
					c3.8,0.1,7.6,0,11.3-0.1c2.3-0.1,4.6-0.1,6.9-0.5c0.4-0.1,1,0,1.5-0.2c0.9-0.3,1.4-1.1,1.6-2c0.2-0.9,0.1-1.9,0.1-2.8
					c0-1.9,0.1-3.8,0.1-5.7c0.3-17.6,0.3-35.2,0-52.8c0-3-0.1-6-0.1-9c0-1.7,0.1-4.7-2.3-4.8c-0.1,0-0.9,0-0.4,0.1
					c0.5,0,0.1,0,0.1,0c-0.2,0-0.5,0-0.7,0c-0.9,0-1.9-0.1-2.8-0.1c-5.3-0.2-10.6-0.3-15.9-0.5c-0.4,0-0.8,0-1.2,0
					c-1.9-0.1-1.9,2.9,0,3c4,0.1,8,0.3,11.9,0.4c2.4,0.1,4.7,0.2,7.1,0.2c0.5,0,1,0.1,1.6,0.1c0.8,0,0.3,0.1,0-0.1
					c-1.9-0.6-0.3-0.5-0.5-0.2c-0.1,0.1,0,0.7,0,0.8c0,0.8,0,1.7,0,2.5c0.3,18.2,0.4,36.3,0.2,54.5c0,4.1-0.1,8.3-0.2,12.4
					c0,0.3,0,0.7,0,1c0,0.1,0,0.1,0,0.2c0,0-0.1,0.4,0,0.4c-0.2-0.2,1.3-0.4,1-0.3c0,0-0.4,0-0.3,0c-2.1-0.1-4.3,0.4-6.4,0.5
					c-2.1,0.1-4.2,0.2-6.2,0.2c-2.6,0-5.3-0.1-8,0c-0.2,0-0.6,0-0.7,0.1c0.1-0.2,1.2,0.2,1,0.3c0,0,0.1-0.8,0-0.4
					c0.2-0.6,0-1.8-0.1-2.5c-0.1-2.8-0.1-5.5-0.2-8.3c-0.2-10-0.3-20.1-0.2-30.1c0-10.4,0-20.9,0.5-31.4c0-0.1,0-0.1,0-0.2
					c0-0.1,0.1-0.3,0-0.4c0.3,0.3-1,0.3-1,0.3C329,173.6,329.7,170.7,327.9,170.1z"/>
			</g>
		</g>
		<g id="XMLID_833_">
			<path class="st1" d="M325.2,187.3c0,0,27.4-10.2,34.9,15.7c7.6,25.9-15.5,31-18.7,30.9c-3.1-0.2-29.9-2.4-27.7-19.6
				C315.9,197.1,320,190.2,325.2,187.3z"/>
			<g>
				<path class="st2" d="M325.6,188.7c6.1-2.3,13.4-2.8,19.7-0.6c5.7,1.9,9.8,6.3,12.1,11.7c2.7,6.2,3.9,13.9,1.4,20.3
					c-1.7,4.3-5.1,7.6-9.1,9.7c-1.6,0.8-3.1,1.4-4.9,1.9c-0.7,0.2-1.3,0.3-2,0.5c-0.1,0-0.3,0-0.4,0.1c0.3,0,0.2,0,0,0
					c-0.2,0-0.4,0-0.6,0c-3.2,0-6.1-0.6-9.2-1.4c-4.8-1.1-10-2.9-13.7-6.4c-1.8-1.7-3-3.8-3.5-6.2c-0.3-1.4-0.2-2.8-0.1-4.2
					c0.3-2.5,0.7-5.1,1.2-7.6c1.2-5.7,2.8-12.4,7.3-16.5c0.7-0.6,1.3-1.1,2.2-1.6c1.7-1,0.2-3.6-1.5-2.6c-5,2.9-7.6,8.3-9.2,13.6
					c-1.4,4.6-2.3,9.4-2.9,14.2c-0.4,3.1-0.1,6.2,1.4,9c2.7,5.1,8.2,8,13.4,9.8c4.3,1.5,8.8,2.3,13.3,2.7c2.7,0.2,5.3-0.5,7.7-1.4
					c4.6-1.8,8.7-4.7,11.4-8.8c3.9-5.8,4.2-13,2.7-19.6c-1.6-7.1-5-14-11.4-18c-7.5-4.7-17.5-4.5-25.7-1.8c-0.2,0.1-0.3,0.1-0.5,0.2
					C323,186.5,323.8,189.4,325.6,188.7z"/>
			</g>
		</g>
		<g id="XMLID_832_">
			<path class="st1" d="M349.7,195.4c0,0,14.3,16-1.4,28.1c-15.7,12.1-25.4-2.3-26.1-4.5c-0.7-2.2-6.4-21.1,6-24.2
				C340.5,191.7,346.3,192.6,349.7,195.4z"/>
			<g>
				<path class="st2" d="M348.6,196.5c0.1,0.1,0.2,0.2,0.3,0.3c0.1,0.1,0.2,0.2,0.3,0.3c0.2,0.3-0.2-0.3,0,0
					c0.1,0.1,0.2,0.2,0.2,0.3c0.8,1.1,1.5,2.2,2.1,3.3c1.7,3.2,2.9,6.8,2.6,10.5c-0.4,5.2-4,9.3-8.2,12.1c-3.9,2.6-8.5,4.3-13.2,2.9
					c-3-0.9-5.6-2.9-7.6-5.3c-0.5-0.6-1.1-1.5-1.5-2.3c-0.2-0.3,0,0,0-0.1c0-0.1-0.1-0.2-0.1-0.3c-0.1-0.4-0.2-0.8-0.3-1.2
					c-0.7-2.7-1.3-5.5-1.4-8.3c-0.2-3.2,0.1-6.8,2-9.5c1.1-1.5,2.6-2.5,4.4-3c3.1-0.9,6.5-1.5,9.8-1.8
					C341.4,194.2,345.8,194.2,348.6,196.5c1.5,1.2,3.6-0.9,2.1-2.1c-3-2.4-6.8-3.1-10.6-3c-3.1,0.1-6.2,0.6-9.2,1.2
					c-2.5,0.5-5.1,1-7.2,2.6c-6.4,4.7-5.4,14.3-3.9,21c0.4,1.9,0.9,3.7,2,5.3c1.9,2.8,4.6,5.2,7.6,6.7c4.5,2.1,9.4,1.9,13.9-0.1
					c5.4-2.4,10.5-6.8,12.7-12.4c2.7-7.2-0.4-15.8-5.4-21.4C349.4,192.9,347.3,195,348.6,196.5z"/>
			</g>
		</g>
	</g>
	<g>
		<g id="XMLID_831_">
			<path class="st1" d="M230.3,172c0,0,0.5-0.3,0.5,0.6c0.6,28.3,0,73.4,0,73.4c-0.1,0.9-0.5,0.6-0.5,0.6c-16,1.2-45.9,0-45.9,0
				s-0.5,0.3-0.5-0.6c-1.2-44,0-73.9,0-73.9c0.1-0.9,0.5-0.6,0.5-0.6S209.5,171.4,230.3,172z"/>
			<g>
				<path class="st2" d="M230.7,173.5c-1.3,0.5-1.2-1.6-1.4-0.5c0,0.2,0,0.5,0,0.8c0,0.6,0,1.2,0,1.8c0,1.2,0,2.4,0.1,3.6
					c0,2.4,0.1,4.8,0.1,7.3c0,5.2,0.1,10.4,0.1,15.5c0,9.4,0,18.8-0.1,28.2c0,3.4-0.1,6.7-0.1,10.1c0,1.7-0.2,3.6-0.1,5.3
					c0,0.1,0,0.3,0,0.4c0,0,0,0,0,0.1c0-0.1,2.9-0.7,1-0.9c-0.3,0-0.6,0-0.8,0.1c-2.1,0.1-4.3,0.2-6.4,0.3
					c-4.7,0.1-9.5,0.2-14.2,0.2c-7.5,0-15.1-0.2-22.6-0.4c-0.6,0-1.2-0.1-1.8-0.1c0,0-0.1,0-0.1,0c-0.2,0-0.3,0-0.4,0.1
					c0.5,0.3,0.9,0.5,1.4,0.8c0-0.2,0-0.3,0-0.5c0.2-0.7,0-1.7-0.1-2.5c0-1,0-1.9-0.1-2.9c-0.2-6.5-0.3-13-0.3-19.5
					c-0.2-15.5-0.1-31,0.4-46.6c0-0.5,0.1-1,0.1-1.5c0-0.1,0-0.3,0-0.3c0,0.1-2.9,0.6-1,0.8c1.9,0.2,3.9,0,5.8,0
					c10.4,0,20.9,0.1,31.3,0.3c2.9,0.1,5.9,0.1,8.8,0.2c1.9,0.1,1.9-2.9,0-3c-11.8-0.3-23.7-0.4-35.6-0.5c-3.2,0-6.4,0-9.6,0
					c-0.2,0-0.5-0.1-0.7,0c0,0,0,0-0.1,0c-0.1,0-8.8-0.9,0.7,0.2c-0.7-0.1-1.1-0.4-1.8,0c-0.8,0.5-0.9,1.4-1,2.2
					c-0.2,4.3-0.2,8.7-0.3,13c-0.2,9.6-0.2,19.3-0.2,28.9c0,6.5,0.1,13,0.2,19.6c0.1,3.7,0.2,7.4,0.3,11.1c0,1.2,0,2.7,1.4,3.1
					c0.2,0,1.6,0.1,0.7,0c0,0,0.1,0,0.1,0c0.6,0.2,1.5,0.1,2.2,0.1c1.4,0,2.8,0.1,4.1,0.1c4.2,0.1,8.5,0.2,12.7,0.3
					c5,0.1,10.1,0.1,15.1,0c2.3,0,4.7-0.1,7-0.2c1.1,0,2.1-0.1,3.2-0.2c0.2,0,0.6,0,0.8-0.1c0.5-0.1,0-0.2-0.2-0.2
					c0,0,0.8,0.2,0.8,0.2c0.4,0,0.7-0.1,1-0.3c1.3-0.9,0.9-3.1,0.9-4.5c0-2.8,0.1-5.5,0.1-8.3c0.2-20,0.3-39.9,0-59.9
					c0-1.1,0.2-2.4-0.2-3.5c-0.3-0.9-1.3-1.5-2.3-1.2C228.1,171.3,228.9,174.2,230.7,173.5z"/>
			</g>
		</g>
		<g id="XMLID_830_">
			<path class="st1" d="M225.9,180.5c0,0,0.2-2.6-0.7-2.7c0,0-15.8-3.1-35.4,0c-0.9,0.1-0.7,2.7-0.7,2.7s-0.2,34,0.3,57.8
				c0,0-0.2,2.6,0.7,2.7c0,0,15.1,2.1,34.7,0c0.9-0.1,0.7-2.7,0.7-2.7L225.9,180.5z"/>
			<g>
				<path class="st2" d="M227.4,180.5c0.1-1.5-0.1-3.7-1.8-4.2c-0.5-0.1-1-0.2-1.5-0.2c-3.5-0.5-7.1-0.9-10.6-1
					c-6-0.3-12-0.1-17.9,0.5c-1.6,0.2-3.1,0.4-4.7,0.6c-1.3,0.2-2.5,0.3-3,1.7c-0.3,0.9-0.3,1.9-0.3,2.8c0.2,16.2,0,32.4,0.2,48.5
					c0,2.6,0.1,5.2,0.1,7.8c0,1.5-0.3,3.7,0.9,4.9c0.6,0.6,1.4,0.6,2.2,0.7c1.1,0.1,2.3,0.2,3.4,0.3c4.4,0.4,8.9,0.5,13.4,0.5
					c3.1,0,6.3-0.1,9.4-0.3c1.6-0.1,3.1-0.2,4.7-0.3c1.3-0.1,3.3,0.1,4.3-0.9c1.2-1.1,0.9-3,0.9-4.5c0-1.6,0-3.3,0-4.9
					c0-6.1,0.1-12.2,0.1-18.3c0.1-11.1,0.1-22.1,0.2-33.2C227.4,180.9,227.4,180.7,227.4,180.5c0-1.9-3-1.9-3,0
					c0,8.7-0.1,17.5-0.1,26.2c-0.1,10.3-0.1,20.7-0.2,31c0,0.2,0,0.4,0,0.7c0,0.4,0,0.8,0,1.2c0,0-0.1,0.5-0.1,0.5
					c0.1-0.1,0.1-0.1,0.2-0.2c0.3-0.3,0.2-0.3-0.3-0.2c-0.9-0.1-2,0.2-2.9,0.3c-5.8,0.5-11.5,0.6-17.3,0.5
					c-3.6-0.1-7.2-0.3-10.8-0.6c-0.8-0.1-1.6-0.2-2.5-0.3c-0.3,0-0.1-0.1,0.2,0c0,0,0.3,0.6,0.4,0.3c0.1-0.2-0.1-1.3-0.1-1.6
					c0-10.1-0.3-20.3-0.3-30.4c0-7.8,0-15.6,0-23.5c0-1.3,0-2.6,0-3.9c0-0.4,0.1-0.8,0-1.2c0,0,0.1-0.5,0.1-0.5
					c-0.2,0.1-0.3,0.3-0.5,0.4c0.2,0,0.5-0.1,0.7-0.1c0.9-0.1,1.8-0.3,2.7-0.4c3.1-0.4,6.2-0.6,9.3-0.8c4.9-0.2,9.8-0.1,14.6,0.3
					c1.5,0.1,3.2,0.3,4.6,0.5c0.6,0.1,1.6,0.4,2.2,0.3c0,0,0.2,0.1,0.2,0c-0.2,0.2-0.3-0.8-0.4-0.2c-0.1,0.4,0.1,1,0.1,1.5
					C224.3,182.5,227.3,182.4,227.4,180.5z"/>
			</g>
		</g>
	</g>
	<g>
		<g id="XMLID_829_">
			<path class="st1" d="M365.3,36c0,0,0.5-0.3,0.5,0.6c0.6,28.3,0,73.4,0,73.4c-0.1,0.9-0.5,0.6-0.5,0.6c-16,1.2-45.9,0-45.9,0
				s-0.5,0.3-0.5-0.6c-1.2-44,0-73.9,0-73.9c0.1-0.9,0.5-0.6,0.5-0.6S344.5,35.4,365.3,36z"/>
			<g>
				<path class="st2" d="M365.7,37.4c-1.3,0.5-1.2-1.6-1.4-0.5c0,0.2,0,0.5,0,0.8c0,0.6,0,1.2,0,1.8c0,1.2,0,2.4,0.1,3.6
					c0,2.4,0.1,4.8,0.1,7.3c0,5.2,0.1,10.4,0.1,15.5c0,9.4,0,18.8-0.1,28.2c0,3.4-0.1,6.7-0.1,10.1c0,1.7-0.2,3.6-0.1,5.3
					c0,0.1,0,0.3,0,0.4c0,0,0,0,0,0.1c0-0.1,2.9-0.7,1-0.9c-0.3,0-0.6,0-0.8,0.1c-2.1,0.1-4.3,0.2-6.4,0.3
					c-4.7,0.1-9.5,0.2-14.2,0.2c-7.5,0-15.1-0.2-22.6-0.4c-0.6,0-1.2-0.1-1.8-0.1c0,0-0.1,0-0.1,0c-0.2,0-0.3,0-0.4,0.1
					c0.5,0.3,0.9,0.5,1.4,0.8c0-0.2,0-0.3,0-0.5c0.2-0.7,0-1.7-0.1-2.5c0-1,0-1.9-0.1-2.9c-0.2-6.5-0.3-13-0.3-19.5
					c-0.2-15.5-0.1-31,0.4-46.6c0-0.5,0.1-1,0.1-1.5c0-0.1,0-0.3,0-0.3c0,0.1-2.9,0.6-1,0.8c1.9,0.2,3.9,0,5.8,0
					c10.4,0,20.9,0.1,31.3,0.3c2.9,0.1,5.9,0.1,8.8,0.2c1.9,0.1,1.9-2.9,0-3c-11.8-0.3-23.7-0.4-35.6-0.5c-3.2,0-6.4,0-9.6,0
					c-0.2,0-0.5-0.1-0.7,0c0,0,0,0-0.1,0c-0.1,0-8.8-0.9,0.7,0.2c-0.7-0.1-1.1-0.4-1.8,0c-0.8,0.5-0.9,1.4-1,2.2
					c-0.2,4.3-0.2,8.7-0.3,13c-0.2,9.6-0.2,19.3-0.2,28.9c0,6.5,0.1,13,0.2,19.6c0.1,3.7,0.2,7.4,0.3,11.1c0,1.2,0,2.7,1.4,3.1
					c0.2,0,1.6,0.1,0.7,0c0,0,0.1,0,0.1,0c0.6,0.2,1.5,0.1,2.2,0.1c1.4,0,2.8,0.1,4.1,0.1c4.2,0.1,8.5,0.2,12.7,0.3
					c5,0.1,10.1,0.1,15.1,0c2.3,0,4.7-0.1,7-0.2c1.1,0,2.1-0.1,3.2-0.2c0.2,0,0.6,0,0.8-0.1c0.5-0.1,0-0.2-0.2-0.2
					c0,0,0.8,0.2,0.8,0.2c0.4,0,0.7-0.1,1-0.3c1.3-0.9,0.9-3.1,0.9-4.5c0-2.8,0.1-5.5,0.1-8.3c0.2-20,0.3-39.9,0-59.9
					c0-1.1,0.2-2.4-0.2-3.5c-0.3-0.9-1.3-1.5-2.3-1.2C363.2,35.3,363.9,38.2,365.7,37.4z"/>
			</g>
		</g>
		<g id="XMLID_828_">
			<path class="st1" d="M326.3,41c0,0-1.5-0.3-1.5,1.1c0,0-1.7,23.8,0,53.1c0.1,1.4,1.5,1.1,1.5,1.1s19,0.3,32.3-0.5
				c0,0,1.5,0.3,1.5-1.1c0,0,1.2-22.7,0-52.1c-0.1-1.4-1.5-1.1-1.5-1.1L326.3,41z"/>
			<g>
				<path class="st2" d="M326.7,39.5c-1.4-0.2-2.9,0.3-3.3,1.9c-0.1,0.4-0.1,0.9-0.1,1.3c-0.1,1.7-0.2,3.5-0.3,5.2
					c-0.3,7.7-0.5,15.4-0.4,23.2c0,5.5,0.2,10.9,0.4,16.3c0.1,1.4,0.1,2.7,0.2,4.1c0.1,1.4-0.1,3,0.3,4.4c0.2,0.8,0.9,1.5,1.7,1.8
					c0.3,0.1,0.7,0.1,1,0.1c0.4,0,0.8,0,0.2,0c5.7,0.1,11.3,0.1,17,0c4.5-0.1,9-0.2,13.5-0.4c0.8,0,1.4-0.1,2.1-0.1
					c0.8,0,1.5-0.3,2-0.9c0.5-0.6,0.6-1.3,0.7-2.1c0.3-4.5,0.3-9,0.4-13.5c0.2-9.5,0.1-18.9-0.1-28.4c-0.1-2.9-0.2-5.8-0.3-8.7
					c0-1,0-2.2-0.7-3c-0.5-0.6-1.4-0.9-2.2-0.9c-0.2,0-1,0-0.2,0c0,0,0,0-0.1,0c-0.2,0-0.3,0-0.5,0c-0.6,0-1.3,0-1.9,0
					c-9.7-0.1-19.4-0.3-29.1-0.4c-0.3,0-0.5,0-0.8,0c-1.9,0-1.9,3,0,3c8.3,0.1,16.7,0.3,25,0.4c1.9,0,3.8,0.1,5.7,0.1
					c0.5,0,0.9,0,1.4,0c0.1,0,0.2,0,0.2,0c0.6,0,0.1-0.1,0.2,0c0.1,0.3,0.2-0.4-0.1-0.4c-0.1,0,0.4,14.7,0.4,16.1
					c0.1,4.6,0.1,9.2,0.1,13.7c0,6.2-0.1,12.4-0.4,18.7c0,0.8-0.1,1.5-0.1,2.3c0,0.3-0.2,0.9-0.1,1.2c0,0,0,0.2,0,0.2
					c0.1,0,0.3-0.5,0.2-0.4c0,0.1-0.4-0.1,0,0c0.4,0.1-0.4,0-0.6,0c-2.1,0-4.1,0.2-6.2,0.3c-7.5,0.2-14.9,0.3-22.4,0.2
					c-0.9,0-1.8,0-2.6,0c-0.2,0-0.4,0-0.6,0c0,0-0.1,0-0.1,0c-1,0,0.3-0.1-0.4,0c0.1,0,0.3,0.3,0.4,0.3c0.1,0,0-0.8-0.1-0.9
					c0-0.7-0.1-1.3-0.1-2c-0.1-1.5-0.1-2.9-0.2-4.4c-0.1-2.6-0.2-5.3-0.3-7.9c-0.2-8.5-0.2-17,0.1-25.6c0.1-2.7,0.2-5.4,0.3-8.2
					c0-0.8,0.1-1.7,0.1-2.5c0-0.4,0.2-1,0.1-1.4c0,0,0-0.2,0-0.2c-0.1,0-0.1,0.2-0.2,0.3c-0.1,0.1,0.5,0.1-0.2,0
					C327.8,42.7,328.6,39.8,326.7,39.5z"/>
			</g>
		</g>
		<g id="XMLID_777_">
			<path class="st1" d="M341,101.6c0,0,3.1-1.2,4,1.8c0.9,3-1.8,3.6-2.1,3.5c-0.4,0-3.4-0.3-3.2-2.2S340.4,102,341,101.6z"/>
			<g>
				<path class="st2" d="M341.4,103.1c0.3-0.1,0.5-0.2,0.8-0.2c-0.1,0-0.3,0-0.4,0.1c0.3,0,0.7,0,1,0c-0.1,0-0.3,0-0.4-0.1
					c0.1,0,0.2,0,0.4,0.1c0.1,0,0.1,0,0.2,0.1c0.1,0,0.3,0.2-0.1-0.1c0.1,0.1,0.2,0.1,0.3,0.2c0.3,0.2-0.3-0.2-0.1-0.1
					c0,0,0.1,0.1,0.1,0.1c0,0,0.1,0.1,0.1,0.1c0.2,0.3-0.2-0.3-0.1-0.1c0.1,0.1,0.2,0.3,0.2,0.4c0.1,0.2-0.1-0.4,0,0
					c0,0.1,0.1,0.2,0.1,0.3c0.1,0.2,0.1,0.4,0.1,0.6c0-0.1,0-0.3-0.1-0.4c0,0.3,0,0.5,0,0.8c0-0.1,0-0.3,0.1-0.4
					c0,0.2-0.1,0.3-0.1,0.5c-0.1,0.2,0.1-0.2,0.1-0.2c0,0,0,0.1-0.1,0.1c0,0.1-0.1,0.1-0.1,0.2c-0.2,0.3,0.3-0.3,0.1-0.1
					c0,0.1-0.1,0.1-0.2,0.2c0,0-0.1,0.1-0.1,0.1c-0.1,0.1,0.4-0.3,0.2-0.1c0,0-0.1,0-0.1,0.1c-0.1,0.1-0.2,0.1-0.3,0.2
					c-0.1,0-0.3,0.1,0,0c0.3-0.1,0.1,0,0,0c-0.2,0.1-0.3,0.1-0.5,0.1c0.1,0,0.3,0,0.4-0.1c-0.2,0-0.4,0-0.6,0c0.1,0,0.3,0,0.4,0.1
					c-0.2,0-0.5-0.1-0.7-0.1c-0.1,0-0.3-0.1-0.4-0.1c-0.1,0-0.1,0-0.2-0.1c-0.2-0.1,0.4,0.2,0.1,0c-0.1-0.1-0.2-0.1-0.4-0.2
					c0,0-0.1,0-0.1-0.1c-0.1-0.1,0.2,0.2,0.2,0.1c0,0-0.1-0.1-0.2-0.1c0,0-0.1-0.1-0.1-0.1c-0.1-0.1,0.1,0.2,0.1,0.2
					c0-0.1-0.1-0.1-0.1-0.2c-0.1-0.2,0.1,0.4,0.1,0.1c0-0.1,0-0.2-0.1-0.2c0,0.1,0,0.3,0.1,0.4c0-0.2,0-0.4,0-0.5
					c0,0.1,0,0.3-0.1,0.4c0.1-0.4,0.1-0.8,0.2-1.2c0-0.1,0.1-0.3,0.1-0.4c0-0.1,0.1-0.2,0.1-0.2c0.1-0.2-0.2,0.4-0.1,0.1
					c0-0.1,0.1-0.2,0.2-0.3c0,0,0.1-0.1,0.1-0.1c0.1-0.2-0.3,0.3-0.1,0.2c0.1-0.1,0.1-0.1,0.2-0.2c0.1-0.1-0.3,0.2-0.2,0.1
					c0,0,0.1-0.1,0.1-0.1c0.7-0.4,1-1.4,0.5-2.1c-0.4-0.7-1.3-1-2.1-0.5c-0.9,0.5-1.4,1.4-1.7,2.3c-0.2,0.6-0.3,1.3-0.4,2
					c-0.1,0.6,0.1,1.2,0.3,1.7c0.8,1.5,2.7,2,4.2,2.1c0.4,0,0.9-0.1,1.3-0.2c0.9-0.3,1.6-0.8,2.1-1.6c0.6-1,0.7-2.2,0.4-3.2
					c-0.2-1.2-0.9-2.2-1.9-2.8c-0.8-0.5-1.8-0.7-2.7-0.6c-0.5,0-1,0.1-1.4,0.3c-0.4,0.1-0.7,0.3-0.9,0.7c-0.2,0.3-0.3,0.8-0.2,1.2
					C339.8,102.7,340.6,103.4,341.4,103.1z"/>
			</g>
		</g>
	</g>
</g>
</svg>
