<?xml version="1.0" encoding="utf-8"?>
<!-- Generator: Adobe Illustrator 23.0.3, SVG Export Plug-In . SVG Version: 6.00 Build 0)  -->
<svg version="1.1" id="Layer_1" xmlns="http://www.w3.org/2000/svg" xmlns:xlink="http://www.w3.org/1999/xlink" x="0px" y="0px"
	 viewBox="0 0 265.9 74.6" style="enable-background:new 0 0 265.9 74.6;" xml:space="preserve">
<style type="text/css">
	.st0{fill:#FFFFFF;}
	.st1{fill:#2C2C2C;}
</style>
<g>
	<path class="st0" d="M19.4,37.6c0-0.4-0.1-0.8-0.1-1.2c0-1.2,0-2.5-0.1-3.7c-0.1-3.1-0.5-6.1-0.8-9.2c-0.1-0.6-0.1-1.2-0.2-1.9
		c0-1.7-0.1-3.4-0.3-5.2c0-0.2,0-0.3,0-0.5c0.1-1.9,0.4-3.7,0.3-5.6c0-0.9-0.2-1.8-0.5-2.7c-0.3-0.9-0.8-1.7-1.4-2.3
		c-0.3-0.3-0.7-0.6-1.1-0.8c-0.4-0.3-0.9-0.5-1.4-0.7C13,3.5,12,3.3,11,3.2c-0.1,0-0.2,0-0.2,0c-0.3,0-0.6,0-0.9,0.1c0,0,0,0,0,0
		C9.7,3.2,9.5,3.2,9.2,3.2c0,0,0,0,0,0c-0.2,0-0.5,0-0.7,0.1C8.3,3.3,8.2,3.3,8,3.4c-0.2,0-0.3,0.1-0.5,0.2C7.3,3.6,7,3.8,6.7,3.9
		C6.3,4.1,6,4.3,5.7,4.6C5.2,4.9,4.8,5.3,4.4,5.7C4,6,3.7,6.4,3.4,6.9C3.1,7.3,2.9,7.7,2.7,8.2c-0.1,0.3-0.2,0.6-0.3,1
		c-0.1,0.5-0.1,1-0.2,1.5c-0.1,0.9-0.1,1.9,0,2.8c0.1,0.8,0.2,1.6,0.3,2.3c-0.1,1.1-0.2,2.2-0.3,3.4c0,0.6-0.1,1.3-0.1,1.9
		c-0.1,0.9-0.1,1.9-0.1,2.8c0,0.1,0,0.3-0.1,0.4c-0.3,1.9-0.5,3.8-0.5,5.7c-0.1,3.7,0.1,7.4,0.7,11.1c0,0.2,0.1,0.3,0.2,0.4
		c0,0,0,0,0,0.1c-0.2,0.7-0.1,1.5,0,2.2c0.1,0.9,0.5,1.8,0.9,2.6C3.8,47.4,4.4,48.3,5,49c0.3,0.4,0.7,0.7,1,1.1
		c0.4,0.4,0.9,0.7,1.3,1c0.7,0.5,1.6,0.8,2.5,1c0.7,0.2,1.5,0.2,2.2,0.1c0.4,0,0.7-0.1,1.1-0.2c0.4-0.1,0.7-0.2,1.1-0.4
		c0.6-0.3,1.1-0.6,1.6-1.1c0.5-0.4,0.9-1,1.3-1.5c0.3-0.5,0.6-1.1,0.9-1.6c0.3-0.7,0.5-1.3,0.7-2c0.4-1.3,0.6-2.7,0.7-4.1
		C19.5,40.1,19.5,38.9,19.4,37.6z"/>
	<g>
		<path class="st1" d="M20.9,37.6c-0.8-7.5-1.9-15.9-1.3-23.4C20,8.6,19.2,3.3,12.9,2c-2.8-0.6-5.6-0.3-8,1.3
			C-0.5,7,1,12.7,0.8,18.4c-0.3,7.4-1.6,14.9-0.2,22.3c0.4,2.2,0.2,0.2,0.3,1c0.1,1.1-0.1,2.2,0.2,3.3c0.7,2.6,2.4,5.1,4.5,6.7
			c3.2,2.5,7.6,2.9,10.8,0.3C20.5,48.7,21.1,42.4,20.9,37.6c-0.1-1.9-3.1-1.9-3,0c0.1,3.7,0,9.3-3.2,12c-3.2,2.7-7.3,0.5-9.3-2.5
			c-1.2-1.8-1.1-3.6-1.4-5.5c-1.4-8.5-0.2-16.4,0-24.9C4,12.4,2.8,6.3,8.4,4.8c3.8-1,7.9,1.6,8.3,5.6c0.2,2-0.4,4.1-0.4,6.1
			c0,2.3,0.3,4.7,0.5,7c0.4,4.7,0.5,9.4,1,14C18.1,39.5,21.1,39.5,20.9,37.6z"/>
	</g>
</g>
<g>
	<g>
		<path class="st0" d="M102.4,44.2c0-0.1,0-0.2-0.1-0.3c-0.1-1.1-0.5-2-1.1-2.7c0,0,0,0,0,0c-0.1-0.3-0.3-0.6-0.5-0.9
			c0.3-1.4,0.3-2.8,0.2-4.2c0-0.4-0.1-0.8-0.2-1.3c0-0.4,0-0.8-0.1-1.1c-0.1-1.2-0.4-2.4-0.8-3.5c-0.3-0.6-0.5-1.2-0.9-1.8
			c-0.4-0.6-0.8-1.2-1.3-1.7c-0.8-1-1.9-1.9-3-2.7c-1.1-0.8-2.3-1.3-3.5-1.7c-0.5-0.2-1.1-0.3-1.7-0.3c-0.8-0.1-1.5-0.2-2.3-0.2
			c0,0-0.1,0-0.1,0c-1.3,0-2.7,0.2-4,0.4c-2.3,0.3-4.5,1.1-6.4,2.5c-0.3,0.2-0.7,0.5-1,0.8c-0.1,0.1-0.2,0.2-0.4,0.3
			c-0.4,0.4-0.8,0.8-1.2,1.2c-0.4,0.5-0.9,1.1-1.2,1.7c-0.6,1-1.1,2.1-1.6,3.2c-0.6,1.4-0.8,3-1,4.5c-0.1,1.4,0,2.9,0.3,4.3
			c0.3,1.4,0.8,2.7,1.5,3.9c0.3,0.5,0.6,1.1,1,1.6c0.5,0.6,0.9,1.2,1.5,1.8c0.5,0.5,1.1,1,1.7,1.4c0.5,0.4,1.1,0.8,1.7,1.1
			c0.6,0.4,1.3,0.7,2,0.9c0.6,0.3,1.3,0.4,2,0.6c3.2,0.7,6.6,0.2,9.6-1.1c0.7,0.4,1.4,0.7,2.3,0.8c0,0,0,0,0,0
			c0.1,0,0.1,0.1,0.2,0.1c0.4,0.2,0.9,0.3,1.4,0.4c0.5,0.1,1,0.1,1.5,0c0.5-0.1,1-0.2,1.5-0.5c0.3-0.2,0.6-0.3,0.9-0.6
			c0.1-0.1,0.2-0.1,0.3-0.2c0,0,0,0,0,0c0.2-0.1,0.3-0.3,0.5-0.4c0.2-0.1,0.3-0.3,0.3-0.5c0.2-0.3,0.5-0.7,0.7-1
			c0.5-0.8,0.7-1.7,0.9-2.5C102.5,45.7,102.5,44.9,102.4,44.2z"/>
		<g>
			<path class="st1" d="M103.9,43.8c-0.3-1.9-1.2-3.2-1.4-4.9c-0.4-3.1,0-6.1-1.1-9.1c-1.6-4.1-5.4-7.7-9.7-8.9
				c-10.5-3-21.3,3.9-22.5,14.7C67.9,46,76.9,55,87.3,53.6c1.5-0.2,3.1-1,4.7-0.9c0.4,0,2.8,0.7,1.4,0.4c2.2,0.6,3.7,1.1,5.9,0
				c3.2-1.6,4.7-5.5,4.6-8.9c-0.1-1.9-3.1-1.9-3,0c0.2,4.5-2.2,7.2-6.9,6c-1-0.3-1.5-0.7-2.5-0.8c-1.8-0.1-4.2,1.3-6.2,1.4
				C75,50.9,69.2,39.9,73.5,31c3.8-8,15.8-10.5,22.3-4.2c2.9,2.8,3.7,6.7,3.7,10.7c0,1.7-0.3,2.2,0,3.6c0.3,1.2,1.3,2.2,1.5,3.6
				C101.3,46.5,104.2,45.7,103.9,43.8z"/>
		</g>
	</g>
	<g>
		<path class="st0" d="M84.6,40.9c0.2,0,0.3-0.1,0.5-0.2c0.2,0,0.4,0,0.6-0.1c0,0,0.1,0,0.1,0c0.1,0,0.2,0,0.2,0c0.2,0,0.4,0,0.6,0
			c0.1,0,0.1,0,0.2,0c0,0,0,0,0,0c0.1,0,0.3,0,0.4,0c0.1,0,0.2-0.1,0.3-0.1c0.1,0,0.1-0.1,0.2-0.1c0,0,0,0,0.1-0.1
			c0.1,0,0.1,0,0.2,0c0.1,0,0.2-0.1,0.3-0.1c0.1-0.1,0.2-0.2,0.4-0.3c0.1-0.1,0.1-0.2,0.2-0.2c0.1-0.1,0.2-0.3,0.3-0.5
			c0.1-0.2,0.2-0.4,0.2-0.6c0.1-0.2,0.1-0.4,0.2-0.5c0-0.2,0.1-0.4,0.1-0.6c0-0.2,0-0.4,0-0.6c0-0.2-0.1-0.4-0.1-0.6
			c-0.1-0.2-0.1-0.4-0.2-0.6c-0.1-0.1-0.1-0.2-0.2-0.3c0-0.1-0.1-0.2-0.2-0.3c-0.1-0.1-0.1-0.1-0.2-0.2c-0.1-0.2-0.2-0.5-0.3-0.7
			c-0.2-0.3-0.4-0.6-0.7-0.8c-0.1-0.1-0.2-0.1-0.3-0.1c-0.1,0-0.2,0-0.3-0.1c-0.1,0-0.2,0-0.3,0c-0.1,0-0.2,0-0.3,0.1
			c-0.1-0.2-0.2-0.4-0.4-0.6c-0.4-0.3-0.9-0.4-1.3,0c-0.1,0.1-0.2,0.1-0.2,0.2c-0.1,0.1-0.2,0.2-0.2,0.4c0,0,0,0,0,0
			c-0.1,0-0.2,0.1-0.2,0.1c0,0-0.1,0-0.1,0c-0.1,0-0.2,0-0.3,0c-0.1,0-0.2,0.1-0.3,0.1c-0.1,0.1-0.3,0.2-0.4,0.3c0,0,0,0,0,0
			c0,0,0,0,0,0c-0.1,0.1-0.3,0.1-0.4,0.2c-0.1,0.1-0.2,0.2-0.3,0.3c-0.1,0.1-0.2,0.2-0.3,0.4c-0.1,0.2-0.2,0.4-0.3,0.6
			c0,0.1,0,0.2-0.1,0.2c0,0,0,0,0,0c0,0,0,0.1,0,0.1c0,0,0,0,0,0c0,0.1-0.1,0.3-0.1,0.4c0,0.2-0.1,0.4-0.1,0.7c0,0,0,0,0,0
			c0,0,0,0,0,0c0,0.4,0,0.7,0,1.1c0,0.3,0.1,0.7,0.2,1c0.1,0.2,0.2,0.4,0.3,0.6c0.1,0.1,0.1,0.2,0.2,0.4c0.1,0.2,0.2,0.3,0.4,0.4
			c0.1,0.1,0.3,0.3,0.5,0.4c0.2,0.2,0.5,0.2,0.8,0.3c0.1,0,0.2,0,0.3,0C84.2,41,84.4,40.9,84.6,40.9L84.6,40.9L84.6,40.9z"/>
		<g>
			<path class="st1" d="M85,42.4c0.7-0.2,0.3-0.1,1-0.2c0.3,0,0.7,0,1-0.1c-0.7-0.1-0.8-0.1-0.4,0c0.9-0.1,1.5-0.1,2.2-0.8
				c-0.4,0.1-0.7,0.3-1.1,0.4c2.8-0.2,3.9-3.8,3.1-6.1c-0.7-2-2.3-4.4-4.7-3.8c0.6,0.2,1.1,0.5,1.7,0.7c-1.1-2-3.7-2-4.8,0
				c0.3-0.2,0.6-0.5,0.9-0.7c0.5,0.1,0.6,0.1,0.2,0.1c-0.2,0-0.3,0-0.5,0c-0.4,0-0.7,0.1-1,0.3c-0.2,0.1-1.2,0.9-0.4,0.3
				c-0.3,0.2-0.6,0.4-0.9,0.6c-0.8,0.7-1.1,1.9-1.3,2.9c-0.5,2.9,1,6.6,4.5,6.4c1.9-0.2,1.9-3.2,0-3c-1.7,0.1-1.9-2.3-1.4-3.5
				c0.1-0.3,0.5-0.5,0.6-0.8c0.1-0.1,0.2-0.2,0.3-0.3c-0.4-0.1-0.5-0.1-0.1,0c0.4-0.1,0.8,0,1.2-0.3c0.9-0.6,0.3-0.3,0.2-0.6
				c0.3,0.6,1.1,0.8,1.7,0.7c0,0,0.9,1.5,1,1.7c0.2,0.6,0.2,1.2,0,1.8c0,0.1-0.5,0.9-0.2,0.6c-0.2,0.2-0.8,0.3-1.1,0.4
				c0.2,0,0.3,0,0.5,0c-0.3-0.1-0.5-0.1-0.8,0c-0.6,0-1.4,0.1-2.2,0.3C82.3,40.1,83.1,43,85,42.4z"/>
		</g>
	</g>
</g>
<g>
	<g>
		<path class="st0" d="M141.5,14.4c0-0.2-0.1-0.3-0.2-0.4c0,0,0,0,0-0.1c0.2-0.7,0.1-1.5,0-2.2c-0.1-0.9-0.5-1.8-0.9-2.6
			c-0.5-0.9-1.1-1.7-1.7-2.5c-0.3-0.4-0.7-0.7-1-1.1c-0.4-0.4-0.9-0.7-1.3-1c-0.7-0.5-1.6-0.8-2.5-1c-0.7-0.2-1.5-0.2-2.2-0.1
			c-0.4,0-0.7,0.1-1.1,0.2c-0.4,0.1-0.7,0.2-1.1,0.4c-0.6,0.3-1.1,0.6-1.6,1.1c-0.5,0.4-0.9,1-1.3,1.5c-0.3,0.5-0.6,1.1-0.9,1.6
			c-0.3,0.7-0.5,1.3-0.7,2c-0.4,1.3-0.6,2.7-0.7,4.1c-0.1,1.3-0.2,2.5-0.1,3.8c0,0.4,0.1,0.8,0.1,1.2c0,1.2,0,2.5,0.1,3.7
			c0,1,0.1,2,0.2,3.1c-0.5,0-1,0.1-1.5,0.2c-1.2,0.2-2.3,0.7-3.4,1.2c-0.3,0.1-0.6,0.3-0.9,0.5c-0.5,0.2-0.9,0.4-1.3,0.7
			c-0.7,0.4-1.3,0.9-2,1.4c-1.1,0.9-2,1.9-2.9,3c-0.5,0.6-0.9,1.3-1.2,2c-0.3,0.4-0.5,0.8-0.7,1.3c-0.5,0.9-0.8,1.8-1,2.8
			c-0.1,0.5-0.2,1.1-0.2,1.6c0,0.5,0,1,0.1,1.5c0.1,0.5,0.3,1,0.5,1.4c0.2,0.4,0.4,0.7,0.6,1c0.3,0.4,0.7,0.8,1.1,1.2
			c0.2,0.1,0.3,0.3,0.5,0.4c0.1,0.1,0.1,0.2,0.2,0.4c0.3,0.7,0.8,1.3,1.3,2c0.5,0.7,1.2,1.2,1.8,1.7c0.5,0.4,1.1,0.7,1.7,1
			c0.7,0.3,1.5,0.6,2.3,0.8c0.8,0.2,1.6,0.3,2.3,0.4c0.4,0,0.7,0.1,1.1,0.1c0.4,0,0.8,0,1.2-0.1c0.8-0.1,1.6-0.2,2.4-0.4
			c0.7-0.2,1.4-0.4,2-0.7c0.4,0.2,0.8,0.4,1.2,0.6c0.9,0.4,1.9,0.6,2.9,0.6c0.1,0,0.2,0,0.2,0c0.3,0,0.6,0,0.9-0.1c0,0,0,0,0,0
			c0.2,0.1,0.5,0.1,0.7,0.1c0,0,0,0,0,0c0.2,0,0.5,0,0.7-0.1c0.1,0,0.3-0.1,0.4-0.1c0.2,0,0.3-0.1,0.5-0.2c0.3-0.1,0.6-0.2,0.9-0.4
			c0.4-0.2,0.7-0.4,1-0.6c0.5-0.3,0.9-0.7,1.3-1.1c0.4-0.4,0.7-0.8,1-1.2c0.3-0.4,0.5-0.9,0.7-1.3c0.1-0.3,0.2-0.6,0.3-1
			c0.1-0.5,0.1-1,0.2-1.5c0.1-0.9,0.1-1.9,0-2.8c-0.1-0.8-0.2-1.6-0.3-2.3c0.1-1.1,0.2-2.2,0.3-3.4c0-0.6,0.1-1.3,0.1-1.9
			c0.1-0.9,0.1-1.9,0.1-2.8c0-0.1,0-0.3,0.1-0.4c0.3-1.9,0.5-3.8,0.5-5.7C142.3,21.7,142.1,18,141.5,14.4z"/>
		<g>
			<path class="st1" d="M142.8,13.6c0,0.1,0.3,1.5,0.1-0.8c-0.1-1.1-0.1-1.8-0.5-2.9c-0.6-1.9-1.8-3.6-3.1-5
				c-2.6-2.7-6.5-4.1-10.1-2.5c-8.2,3.6-6.5,16.6-5.9,23.5c0.5-0.5,1-1,1.5-1.5c-7.8,0.8-18.3,9.1-16.4,18.1
				c0.6,2.9,3.9,6.9,6.2,8.7c3.1,2.3,7.3,3.1,11.1,2.5c6.1-1,12.5,2.6,16.3-4.8c2.2-4.1,0.9-10.6,1.1-15c0.3-6.7,0.8-13-0.1-19.7
				c-0.3-1.9-3.2-1.1-2.9,0.8c1.3,8.5-0.6,16.5-0.3,24.9c0.1,4,0.7,9.7-4.4,11c-2,0.5-3.9-0.8-5.9-0.9c-2.1,0-4.1,1-6.4,0.9
				c-4-0.1-7-1.8-9.2-5.2c-0.2-0.2-0.6-0.7-0.7-0.9c-2.3-4.1-2.1-6.4,0.3-10.2c2.4-3.7,6.8-6.7,11.3-7.2c0.8-0.1,1.6-0.6,1.5-1.5
				c-0.4-5.6-1.8-13.9,1.8-18.7c3.3-4.4,9.2-1.7,11.1,2.6c0.8,1.8,0.2,3.7,1.1,5.3C141.1,16.8,143.7,15.3,142.8,13.6z"/>
		</g>
	</g>
	<g>
		<path class="st0" d="M123.4,37.4c-0.1,0-0.2,0.1-0.4,0.1c-0.1,0-0.3,0-0.4,0.1c0,0,0,0-0.1,0c-0.1,0-0.1,0-0.2,0
			c-0.1,0-0.3,0-0.4,0c0,0-0.1,0-0.1,0c0,0,0,0,0,0c-0.1,0-0.2,0-0.3,0c-0.1,0-0.2,0.1-0.2,0.1c-0.1,0-0.1,0.1-0.1,0.1c0,0,0,0,0,0
			c0,0-0.1,0-0.1,0c-0.1,0-0.2,0.1-0.2,0.1c-0.1,0-0.2,0.1-0.3,0.2c-0.1,0-0.1,0.1-0.1,0.2c-0.1,0.1-0.1,0.2-0.2,0.3
			c-0.1,0.1-0.1,0.3-0.2,0.4c0,0.1-0.1,0.3-0.1,0.4c0,0.1-0.1,0.3-0.1,0.5c0,0.1,0,0.3,0,0.4c0,0.1,0.1,0.3,0.1,0.4
			c0,0.2,0.1,0.3,0.2,0.4c0,0.1,0.1,0.2,0.1,0.2c0,0.1,0.1,0.1,0.1,0.2c0,0.1,0.1,0.1,0.1,0.1c0.1,0.2,0.2,0.3,0.3,0.5
			c0.1,0.2,0.3,0.4,0.5,0.5c0.1,0,0.1,0.1,0.2,0.1c0.1,0,0.1,0,0.2,0c0.1,0,0.1,0,0.2,0c0.1,0,0.1,0,0.2,0c0.1,0.2,0.2,0.3,0.3,0.4
			c0.3,0.2,0.7,0.3,1,0c0.1-0.1,0.1-0.1,0.2-0.2c0.1-0.1,0.1-0.2,0.2-0.3c0,0,0,0,0,0c0.1,0,0.1,0,0.2-0.1c0,0,0.1,0,0.1,0
			c0.1,0,0.1,0,0.2,0c0.1,0,0.1-0.1,0.2-0.1c0.1,0,0.2-0.1,0.3-0.2c0,0,0,0,0,0c0,0,0,0,0,0c0.1,0,0.2-0.1,0.3-0.2
			c0.1-0.1,0.1-0.1,0.2-0.2c0.1-0.1,0.1-0.2,0.2-0.3c0.1-0.1,0.1-0.3,0.2-0.5c0-0.1,0-0.1,0-0.2c0,0,0,0,0,0c0,0,0,0,0-0.1
			c0,0,0,0,0,0c0-0.1,0.1-0.2,0.1-0.3c0-0.2,0.1-0.3,0.1-0.5c0,0,0,0,0,0c0,0,0,0,0,0c0-0.3,0-0.5,0-0.8c0-0.2-0.1-0.5-0.1-0.7
			c0-0.1-0.1-0.3-0.2-0.4c0-0.1-0.1-0.2-0.1-0.3c-0.1-0.1-0.2-0.2-0.3-0.3c-0.1-0.1-0.2-0.2-0.3-0.3c-0.2-0.1-0.4-0.2-0.5-0.2
			c-0.1,0-0.2,0-0.2,0C123.6,37.4,123.5,37.4,123.4,37.4L123.4,37.4L123.4,37.4z"/>
		<g>
			<path class="st1" d="M123,36c-0.5,0.1-0.5,0.1-0.1,0.2c-0.2,0-0.4-0.1-0.6-0.1c-0.3,0-0.6,0-0.8,0.1c0.7,0,0.9,0,0.5,0
				c-0.8,0.1-1.3,0.1-2,0.7c0.4-0.1,0.7-0.3,1.1-0.4c-2.3,0.2-3.3,3-2.6,4.9c0.6,1.7,1.9,3.5,3.9,3.1c-0.6-0.2-1.1-0.5-1.7-0.7
				c0.9,1.7,3.3,1.8,4.2,0c-0.3,0.2-0.6,0.5-0.9,0.7c-0.6-0.1-0.7-0.1-0.3,0c0.1,0,0.3,0,0.4,0c0.3,0,0.7-0.1,1-0.3
				c0.2-0.1,1-0.8,0.3-0.2c0.2-0.2,0.5-0.3,0.7-0.5c0.6-0.6,0.9-1.4,1-2.3c0.4-2.4-0.9-5.3-3.7-5.1c-1.9,0.2-1.9,3.2,0,3
				c0.9-0.1,0.9,1.4,0.6,2c-0.1,0.1-0.2,0.2-0.2,0.3c-0.1,0.1-0.2,0.1-0.3,0.2c0.7,0,0.9,0,0.5-0.1c-0.4,0-0.8,0-1.1,0.2
				c-1.4,0.9,0.3,0.2,0.5,0.6c-0.3-0.6-1.1-0.8-1.7-0.7c0.4,0.2,0.5,0.1,0.3-0.2c0-0.1-0.1-0.2-0.1-0.2c-0.1-0.2-0.3-0.4-0.4-0.6
				c-0.1-0.4,0.1-0.6,0-1c0-0.1,0.6-0.9-0.3-0.1c0.1-0.1,1.2-0.1,1.1-0.4c0,0-1.5,0.2,0,0.1c0.4,0-0.3,0,0.2,0
				c0.5,0,0.9-0.1,1.4-0.2C125.6,38.3,124.8,35.4,123,36z"/>
		</g>
	</g>
</g>
<g>
	<g>
		<path class="st0" d="M60.3,36c0-0.4-0.1-0.8-0.2-1.3c0-0.4,0-0.8-0.1-1.1c-0.1-1.2-0.4-2.4-0.8-3.5c-0.3-0.6-0.5-1.2-0.9-1.8
			c-0.4-0.6-0.8-1.2-1.3-1.7c-0.8-1-1.9-1.9-3-2.7c-1.1-0.8-2.3-1.3-3.5-1.7c-0.5-0.2-1.1-0.3-1.7-0.3c-0.8-0.1-1.5-0.2-2.3-0.2
			c0,0-0.1,0-0.1,0c-1.3,0-2.7,0.2-4,0.4c-2.3,0.3-4.5,1.1-6.4,2.5c-0.3,0.2-0.7,0.5-1,0.8c-0.1,0.1-0.2,0.2-0.4,0.3
			c-0.4,0.4-0.8,0.8-1.2,1.2c-0.4,0.5-0.9,1.1-1.2,1.7c-0.6,1-1.1,2.1-1.6,3.2c-0.6,1.4-0.8,3-1,4.5c-0.1,1.4,0,2.9,0.3,4.3
			c0.3,1.4,0.8,2.7,1.5,3.9c0.3,0.5,0.6,1.1,1,1.6c0.5,0.6,0.9,1.2,1.5,1.8c0.5,0.5,1.1,1,1.7,1.4c0.5,0.4,1.1,0.8,1.7,1.1
			c0.6,0.4,1.3,0.7,2,0.9c0.6,0.3,1.3,0.4,2,0.6c4,0.9,8.2-0.1,11.7-2.1c0.9-0.5,1.7-1.1,2.5-1.8c0.6-0.5,1.1-1.1,1.5-1.8
			c0.4-0.4,0.7-0.8,1-1.2c0.4-0.6,0.8-1.2,1-1.8c0.4-0.8,0.6-1.6,0.8-2.4C60.4,39.2,60.5,37.6,60.3,36z"/>
		<g>
			<path class="st1" d="M61.7,35.6c-0.7-4.9-1.6-8.6-5.5-11.9c-3.2-2.6-7-3.7-11.1-3.4c-9.8,0.6-17.4,8-16.8,18.2
				c0.5,8.4,7.6,15.3,16.1,15.3c9.9,0,17.9-7.9,17.3-17.8c-0.1-1.9-3.1-1.9-3,0c0.5,8.2-6,14.9-14.3,14.8c-7.4,0-13.3-6.4-13.1-13.8
				c0.3-8.4,7-13.9,15.2-13.8c8.2,0.1,11.2,6.1,12.3,13.2C59.1,38.3,62,37.5,61.7,35.6z"/>
		</g>
	</g>
	<g>
		<path class="st0" d="M44,40.9c0.2,0,0.3-0.1,0.5-0.2c0.2,0,0.4,0,0.6-0.1c0,0,0.1,0,0.1,0c0.1,0,0.2,0,0.2,0c0.2,0,0.4,0,0.6,0
			c0.1,0,0.1,0,0.2,0c0,0,0,0,0,0c0.1,0,0.3,0,0.4,0c0.1,0,0.2-0.1,0.3-0.1c0.1,0,0.1-0.1,0.2-0.1c0,0,0,0,0.1-0.1
			c0.1,0,0.1,0,0.2,0c0.1,0,0.2-0.1,0.3-0.1c0.1-0.1,0.2-0.2,0.4-0.3c0.1-0.1,0.1-0.2,0.2-0.2c0.1-0.1,0.2-0.3,0.3-0.5
			c0.1-0.2,0.2-0.4,0.2-0.6c0.1-0.2,0.1-0.4,0.2-0.5c0-0.2,0.1-0.4,0.1-0.6c0-0.2,0-0.4,0-0.6c0-0.2-0.1-0.4-0.1-0.6
			c-0.1-0.2-0.1-0.4-0.2-0.6c-0.1-0.1-0.1-0.2-0.2-0.3c0-0.1-0.1-0.2-0.2-0.3c-0.1-0.1-0.1-0.1-0.2-0.2c-0.1-0.2-0.2-0.5-0.3-0.7
			c-0.2-0.3-0.4-0.6-0.7-0.8c-0.1-0.1-0.2-0.1-0.3-0.1c-0.1,0-0.2,0-0.3-0.1c-0.1,0-0.2,0-0.3,0c-0.1,0-0.2,0-0.3,0.1
			c-0.1-0.2-0.2-0.4-0.4-0.6c-0.4-0.3-0.9-0.4-1.3,0c-0.1,0.1-0.2,0.1-0.2,0.2c-0.1,0.1-0.2,0.2-0.2,0.4c0,0,0,0,0,0
			c-0.1,0-0.2,0.1-0.2,0.1c0,0-0.1,0-0.1,0c-0.1,0-0.2,0-0.3,0c-0.1,0-0.2,0.1-0.3,0.1c-0.1,0.1-0.3,0.2-0.4,0.3c0,0,0,0,0,0
			c0,0,0,0,0,0c-0.1,0.1-0.3,0.1-0.4,0.2c-0.1,0.1-0.2,0.2-0.3,0.3c-0.1,0.1-0.2,0.2-0.3,0.4c-0.1,0.2-0.2,0.4-0.3,0.6
			c0,0.1,0,0.2-0.1,0.2c0,0,0,0,0,0c0,0,0,0.1,0,0.1c0,0,0,0,0,0c0,0.1-0.1,0.3-0.1,0.4c0,0.2-0.1,0.4-0.1,0.7c0,0,0,0,0,0
			c0,0,0,0,0,0c0,0.4,0,0.7,0,1.1c0,0.3,0.1,0.7,0.2,1c0.1,0.2,0.2,0.4,0.3,0.6c0.1,0.1,0.1,0.2,0.2,0.4c0.1,0.2,0.2,0.3,0.4,0.4
			c0.1,0.1,0.3,0.3,0.5,0.4c0.2,0.2,0.5,0.2,0.8,0.3c0.1,0,0.2,0,0.3,0C43.6,41,43.8,40.9,44,40.9L44,40.9L44,40.9z"/>
		<g>
			<path class="st1" d="M44.4,42.4c0.7-0.2,0.3-0.1,1-0.2c0.3,0,0.7,0,1-0.1c-0.7-0.1-0.8-0.1-0.4,0c0.9-0.1,1.5-0.1,2.2-0.8
				c-0.4,0.1-0.7,0.3-1.1,0.4c2.8-0.2,3.9-3.8,3.1-6.1c-0.7-2-2.3-4.4-4.7-3.8c0.6,0.2,1.1,0.5,1.7,0.7c-1.1-2-3.7-2-4.8,0
				c0.3-0.2,0.6-0.5,0.9-0.7c0.5,0.1,0.6,0.1,0.2,0.1c-0.2,0-0.3,0-0.5,0c-0.4,0-0.7,0.1-1,0.3c-0.2,0.1-1.2,0.9-0.4,0.3
				c-0.3,0.2-0.6,0.4-0.9,0.6c-0.8,0.8-1.1,1.9-1.3,2.9c-0.5,2.9,1,6.6,4.5,6.4c1.9-0.2,1.9-3.2,0-3c-1.7,0.1-1.9-2.3-1.4-3.5
				c0.1-0.3,0.5-0.5,0.6-0.8c0.1-0.1,0.2-0.2,0.3-0.3c-0.4-0.1-0.5-0.1-0.1,0c0.4-0.1,0.8,0,1.2-0.3c0.9-0.6,0.3-0.3,0.2-0.6
				c0.3,0.6,1.1,0.8,1.7,0.7c0,0,0.9,1.5,1,1.7c0.2,0.6,0.2,1.2,0,1.8c0,0.1-0.5,0.9-0.2,0.6c-0.2,0.2-0.8,0.3-1.1,0.4
				c0.2,0,0.3,0,0.5,0c-0.3-0.1-0.5-0.1-0.8,0c-0.6,0-1.4,0.1-2.2,0.3C41.8,40.1,42.5,43,44.4,42.4z"/>
		</g>
	</g>
</g>
<g>
	<g>
		<path class="st0" d="M264.3,34.5c0-0.4-0.1-0.8-0.2-1.3c0-0.4,0-0.8-0.1-1.1c-0.1-1.2-0.4-2.4-0.8-3.5c-0.3-0.6-0.5-1.2-0.9-1.8
			c-0.4-0.6-0.8-1.2-1.3-1.7c-0.8-1-1.9-1.9-3-2.7c-1.1-0.8-2.3-1.3-3.5-1.7c-0.5-0.2-1.1-0.3-1.7-0.3c-0.8-0.1-1.5-0.2-2.3-0.2
			c0,0-0.1,0-0.1,0c-1.3,0-2.7,0.2-4,0.4c-2.3,0.3-4.5,1.1-6.4,2.5c-0.3,0.2-0.7,0.5-1,0.8c-0.1,0.1-0.2,0.2-0.4,0.3
			c-0.4,0.4-0.8,0.8-1.2,1.2c-0.4,0.5-0.9,1.1-1.2,1.7c-0.6,1-1.1,2.1-1.6,3.2c-0.6,1.4-0.8,3-1,4.5c-0.1,1.4,0,2.9,0.3,4.3
			c0.3,1.4,0.8,2.7,1.5,3.9c0.3,0.5,0.6,1.1,1,1.6c0.5,0.6,0.9,1.2,1.5,1.8c0.5,0.5,1.1,1,1.7,1.4c0.5,0.4,1.1,0.8,1.7,1.1
			c0.6,0.4,1.3,0.7,2,0.9c0.6,0.3,1.3,0.4,2,0.6c1.3,0.3,2.6,0.3,3.8,0.3c-0.2,1.1-0.3,2.2-0.4,3.3c-0.1,0.8-0.1,1.7-0.1,2.5
			c0,0.1,0,0.1,0,0.2c-0.1,0.1-0.1,0.2-0.2,0.3c-0.2,0.2-0.3,0.4-0.5,0.5c-0.2,0.1-0.4,0.3-0.7,0.4c-0.2,0.1-0.3,0.1-0.5,0.1
			c-0.2,0-0.4,0-0.5,0c-0.1,0-0.2,0-0.3-0.1c-0.1-0.1-0.2-0.3-0.3-0.4c-0.3-0.3-0.7-0.5-1.2-0.7c-0.1,0-0.1,0-0.2-0.1
			c-0.3-0.1-0.7-0.1-1.1-0.1c0,0,0,0,0,0c-0.1-0.1-0.2-0.1-0.2-0.2c-0.4-0.3-0.9-0.5-1.4-0.7c-0.5-0.2-1.1-0.3-1.7-0.3
			c-0.4,0-0.8,0-1.2,0c-0.6,0.1-1.2,0.2-1.7,0.4c-1.1,0.4-2.1,1.1-2.9,1.9c-0.9,1-1.5,2.2-1.8,3.4c-0.1,0.4-0.1,0.8-0.2,1.2
			c0,0.2,0,0.5,0,0.7c0,0.4,0.1,0.7,0.1,1.1c0,0.3,0.1,0.5,0.2,0.8c0.4,1.1,1,2.2,1.9,3c0.3,0.3,0.7,0.6,1.1,0.9
			c0.1,0.3,0.3,0.6,0.5,0.9c0.2,0.2,0.4,0.5,0.6,0.7c0.2,0.2,0.4,0.4,0.7,0.6c0.6,0.5,1.3,0.9,2.1,1.2c0.4,0.2,0.8,0.3,1.3,0.4
			c0.5,0.1,1,0.2,1.5,0.2c0.7,0.1,1.4,0.1,2,0c0.7-0.1,1.3-0.2,1.9-0.4c0.2,0,0.4,0.1,0.6,0.1c0.5,0.1,0.9,0.1,1.4,0.1
			c0.5,0,1-0.1,1.5-0.2c0.9-0.2,1.8-0.6,2.7-1.1c0.9-0.5,1.7-1.1,2.4-1.7c0.2,0,0.3-0.1,0.5-0.2c0.4-0.1,0.8-0.2,1.2-0.4
			c0.9-0.4,1.7-1.1,2.5-1.9c0.7-0.8,1.3-1.8,1.8-2.9c0.1-0.2,0.1-0.3,0.2-0.5c0.8-1.5,1.3-3.4,1.4-5.2c0,0,0-0.1,0-0.1
			c0.1-0.2,0.1-0.4,0.2-0.6c0.5-1.5,0.8-3,0.9-4.5c0-0.3,0-0.6,0-0.9c0.2-0.7,0.3-1.5,0.4-2.2c0.4-3,0.6-6,0.4-9
			c0-0.3-0.1-0.6-0.1-0.8c0.1-0.4,0.2-0.8,0.3-1.2C264.5,37.7,264.5,36.1,264.3,34.5z"/>
		<g>
			<path class="st1" d="M265.8,34.1c-1-6.6-3.2-12.2-10.1-14.6c-6.1-2.1-14-0.3-18.5,4.3c-10.7,10.9-2.4,28.4,12.1,28.5
				c-0.5-0.5-1-1-1.5-1.5c-0.2,1.3,0,3.2-0.5,4.5c-0.8,2.3,0.4,0.9-0.8,1c0.1,0-1.4-0.7-1.7-0.9c-0.5-0.1-1-0.1-1.5-0.2
				c0.8,0.1,0.7,0-0.2-0.3c-3.8-1.1-7.4-1.1-10.3,2.1c-5.5,6.1,0.3,15.4,7.2,17.2c3.1,0.8,8.2,0.4,11.1-0.7
				c4.2-1.5,8.6-4.3,10.6-8.4c1.8-3.5,2.3-7.9,2.8-11.7c0.4-3.1,0.8-6.3,0.8-9.5c0-3.2,0.6-6.3,0.4-9.5c-0.1-1.9-3.1-1.9-3,0
				c0.1,2.2-0.4,4.3-0.5,6.4c-0.1,2.2,0.2,4.5,0,6.7c-0.3,3.7-0.9,7.4-1.7,11.1c-0.4,2.1-0.8,4.8-2.2,6.5c-1.3,1.6-3.9,3.1-5.8,4.2
				c-3,1.8-10.3,3.2-13.6,1.1c-3.8-2.3-7.5-8.2-3.3-11.8c1.9-1.6,5.3-1.3,7.7-0.5c0.8,0.3,1.6,1,2.4,1.2c5.4,1,4.7-5.4,5.1-8.7
				c0.1-0.8-0.8-1.5-1.5-1.5c-12.3-0.1-19.2-15.5-9.2-24.1c3.8-3.3,10.4-4.5,15.2-2.5c5.6,2.3,6.8,6.8,7.6,12.3
				C263.2,36.8,266.1,36,265.8,34.1z"/>
		</g>
	</g>
	<g>
		<path class="st0" d="M248,39.4c0.2,0,0.3-0.1,0.5-0.2c0.2,0,0.4,0,0.6-0.1c0,0,0.1,0,0.1,0c0.1,0,0.2,0,0.2,0c0.2,0,0.4,0,0.6,0
			c0.1,0,0.1,0,0.2,0c0,0,0,0,0,0c0.1,0,0.3,0,0.4,0c0.1,0,0.2-0.1,0.3-0.1c0.1,0,0.1-0.1,0.2-0.1c0,0,0,0,0.1-0.1
			c0.1,0,0.1,0,0.2,0c0.1,0,0.2-0.1,0.3-0.1c0.1-0.1,0.2-0.2,0.4-0.3c0.1-0.1,0.1-0.2,0.2-0.2c0.1-0.1,0.2-0.3,0.3-0.5
			c0.1-0.2,0.2-0.4,0.2-0.6c0.1-0.2,0.1-0.4,0.2-0.5c0-0.2,0.1-0.4,0.1-0.6c0-0.2,0-0.4,0-0.6c0-0.2-0.1-0.4-0.1-0.6
			c-0.1-0.2-0.1-0.4-0.2-0.6c-0.1-0.1-0.1-0.2-0.2-0.3c0-0.1-0.1-0.2-0.2-0.3c-0.1-0.1-0.1-0.1-0.2-0.2c-0.1-0.2-0.2-0.5-0.3-0.7
			c-0.2-0.3-0.4-0.6-0.7-0.8c-0.1-0.1-0.2-0.1-0.3-0.1c-0.1,0-0.2,0-0.3-0.1c-0.1,0-0.2,0-0.3,0c-0.1,0-0.2,0-0.3,0.1
			c-0.1-0.2-0.2-0.4-0.4-0.6c-0.4-0.3-0.9-0.4-1.3,0c-0.1,0.1-0.2,0.1-0.2,0.2c-0.1,0.1-0.2,0.2-0.2,0.4c0,0,0,0,0,0
			c-0.1,0-0.2,0.1-0.2,0.1c0,0-0.1,0-0.1,0c-0.1,0-0.2,0-0.3,0c-0.1,0-0.2,0.1-0.3,0.1c-0.1,0.1-0.3,0.2-0.4,0.3c0,0,0,0,0,0
			c0,0,0,0,0,0c-0.1,0.1-0.3,0.1-0.4,0.2c-0.1,0.1-0.2,0.2-0.3,0.3c-0.1,0.1-0.2,0.2-0.3,0.4c-0.1,0.2-0.2,0.4-0.3,0.6
			c0,0.1,0,0.2-0.1,0.2c0,0,0,0,0,0c0,0,0,0.1,0,0.1c0,0,0,0,0,0c0,0.1-0.1,0.3-0.1,0.4c0,0.2-0.1,0.4-0.1,0.7c0,0,0,0,0,0
			c0,0,0,0,0,0c0,0.4,0,0.7,0,1.1c0,0.3,0.1,0.7,0.2,1c0.1,0.2,0.2,0.4,0.3,0.6c0.1,0.1,0.1,0.2,0.2,0.4c0.1,0.2,0.2,0.3,0.4,0.4
			c0.1,0.1,0.3,0.3,0.5,0.4c0.2,0.2,0.5,0.2,0.8,0.3c0.1,0,0.2,0,0.3,0C247.7,39.4,247.9,39.4,248,39.4L248,39.4L248,39.4z"/>
		<g>
			<path class="st1" d="M248.4,40.8c0.7-0.2,0.3-0.1,1-0.2c0.3,0,0.7,0,1-0.1c-0.7-0.1-0.8-0.1-0.4,0c0.9-0.1,1.5-0.1,2.2-0.8
				c-0.4,0.1-0.7,0.3-1.1,0.4c2.8-0.2,3.9-3.8,3.1-6.1c-0.7-2-2.3-4.4-4.7-3.8c0.6,0.2,1.1,0.5,1.7,0.7c-1.1-2-3.7-2-4.8,0
				c0.3-0.2,0.6-0.5,0.9-0.7c0.5,0.1,0.6,0.1,0.2,0.1c-0.2,0-0.3,0-0.5,0c-0.4,0-0.7,0.1-1,0.3c-0.2,0.1-1.2,0.9-0.4,0.3
				c-0.3,0.2-0.6,0.4-0.9,0.6c-0.8,0.7-1.1,1.9-1.3,2.9c-0.5,2.9,1,6.6,4.5,6.4c1.9-0.2,1.9-3.2,0-3c-1.7,0.1-1.9-2.3-1.4-3.5
				c0.1-0.3,0.5-0.5,0.6-0.8c0.1-0.1,0.2-0.2,0.3-0.3c-0.4-0.1-0.5-0.1-0.1,0c0.4-0.1,0.8,0,1.2-0.3c0.9-0.6,0.3-0.3,0.2-0.6
				c0.3,0.6,1.1,0.8,1.7,0.7c0,0,0.9,1.5,1,1.7c0.2,0.6,0.2,1.2,0,1.8c0,0.1-0.5,0.9-0.2,0.6c-0.2,0.2-0.8,0.3-1.1,0.4
				c0.2,0,0.3,0,0.5,0c-0.3-0.1-0.5-0.1-0.8,0c-0.6,0-1.4,0.1-2.2,0.3C245.8,38.5,246.6,41.4,248.4,40.8z"/>
		</g>
	</g>
</g>
<g>
	<g>
		<path class="st0" d="M151.4,10.7c-0.2,0.9-0.3,1.8,0,2.7c0,0,0,0,0,0c-0.1,1.2,0.8,2.3,1.8,2.7c0.3,0.2,0.6,0.4,0.9,0.6
			c0.1,0.1,0.1,0.1,0.2,0.2c0.3,0.3,0.7,0.6,1,0.8c0.7,0.4,1.2,0.5,1.9,0.7c0.2,0,0.5,0.1,0.8,0.1c0.6,0,1.2-0.1,1.8-0.3
			c0.3-0.1,0.6-0.2,0.9-0.3c0.5,0,1-0.1,1.4-0.2c1.6-0.3,3.1-0.9,4.4-1.9c0.4-0.3,0.7-0.7,1-1.1c0.3-0.3,0.5-0.6,0.7-1
			c0.4-0.7,0.5-1.2,0.7-2c0.3-0.7,0.5-1.5,0.6-2.3c0.1-0.6,0-1.3-0.2-1.8c-0.1-0.6-0.4-1.2-0.8-1.8c-0.3-0.4-0.5-0.8-0.8-1.1
			c-0.3-0.3-0.7-0.7-1-0.9c-0.7-0.6-1.5-1-2.3-1.3c-0.8-0.4-1.8-0.7-2.7-0.8c-0.3,0-0.7,0-1,0c-0.8-0.1-1.7,0-2.4,0.2
			c-0.8,0.3-1.6,0.7-2.2,1.2c-0.1,0.1-0.3,0.1-0.4,0.2c-1,0.5-1.6,1.2-2.3,2c-0.1,0.2-0.3,0.3-0.4,0.5c-0.1,0-0.1,0-0.2,0.1
			c-0.8,0.4-1.4,1.2-1.7,2c-0.3,0.9-0.2,1.9,0.2,2.7C151.4,10.5,151.4,10.6,151.4,10.7z"/>
		<g>
			<path class="st1" d="M149.9,10.3c-0.3,2.5-0.4,5.1,1.7,6.7c2.1,1.7,4.4,3.2,7.2,2.8c6.2-0.7,12.6-4.4,11.9-11.6
				c-0.5-5.6-7.3-9.1-12.4-8c-2.6,0.6-4.5,2.4-6.3,4.2c-0.9,0.9-1.7,1.3-2.2,2.5C149.5,8.1,150.2,9.5,149.9,10.3
				c-0.5,1.9,2.4,2.7,2.9,0.8c1-3.5,0.8-4.7,4-6.7c3.2-2.1,8.2-1.3,10.3,2.2c1.3,2.1,0.5,5.5-1,7.3c-1.5,1.8-3.6,2-5.7,2.5
				c-2.2,0.5-3.2,0.7-5.2-0.6c-1.9-1.2-2.8-2.3-2.4-4.7C153.1,9.2,150.2,8.3,149.9,10.3z"/>
		</g>
	</g>
	<g>
		<g>
			<path class="st0" d="M153,41.6C153,41.6,152.9,41.6,153,41.6c-0.2,0.8-0.1,1.5,0,2.3c0.1,0.9,0.5,1.8,0.9,2.6
				c0.5,0.9,1.1,1.7,1.7,2.5c0.3,0.4,0.7,0.7,1,1.1c0.4,0.4,0.9,0.7,1.3,1c0.7,0.5,1.6,0.8,2.5,1c0.7,0.2,1.5,0.2,2.2,0.1
				c0.4,0,0.7-0.1,1.1-0.2c0.4-0.1,0.7-0.2,1.1-0.4c0.6-0.3,1.1-0.6,1.6-1.1c0.5-0.4,0.9-1,1.3-1.5c0.3-0.5,0.6-1.1,0.9-1.6
				c0.3-0.6,0.5-1.2,0.7-1.9c-0.1-0.6-0.1-1.2-0.2-1.7c-0.1-0.6-0.1-1.2-0.2-1.9c0-1.7-0.1-3.4-0.3-5.2c0-0.2,0-0.3,0-0.5
				c0.1-1.9,0.4-3.7,0.3-5.6c0-0.9-0.2-1.8-0.5-2.7c-0.3-0.9-0.8-1.7-1.4-2.3c-0.3-0.3-0.7-0.6-1.1-0.8c-0.4-0.3-0.9-0.5-1.4-0.7
				c-0.9-0.4-1.9-0.6-2.9-0.6c-0.1,0-0.2,0-0.2,0c-0.3,0-0.6,0-0.9,0.1c0,0,0,0,0,0c-0.2-0.1-0.5-0.1-0.7-0.1c0,0,0,0,0,0
				c-0.2,0-0.5,0-0.7,0.1c-0.1,0-0.3,0.1-0.4,0.1c-0.2,0-0.3,0.1-0.5,0.2c-0.3,0.1-0.6,0.2-0.9,0.4c-0.4,0.2-0.7,0.4-1,0.6
				c-0.5,0.3-0.9,0.7-1.3,1.1c-0.4,0.4-0.7,0.8-1,1.2c-0.3,0.4-0.5,0.9-0.7,1.3c-0.1,0.3-0.2,0.6-0.3,1c-0.1,0.5-0.1,1-0.2,1.5
				c-0.1,0.9-0.1,1.9,0,2.8c0.1,0.8,0.2,1.6,0.3,2.3c-0.1,1.1-0.2,2.2-0.3,3.4c0,0.5,0,0.9-0.1,1.4c0,0.1,0,0.2,0,0.2
				C152.8,41.3,152.8,41.5,153,41.6z"/>
			<g>
				<path class="st1" d="M151.5,41.2c-1.6,7,6.8,14.9,13.6,12c2.5-1.1,4.4-3.6,5.2-6.2c0.7-2.6,0-5.7-0.2-8.4
					c-0.1-2.8,0.4-5.7,0.1-8.5c-0.6-6-6.9-9.5-12.5-7.6c-3.1,1-5.6,3.9-6.2,7.1c-0.6,2.7,0,5.6-0.1,8.3c-0.1,1.6-0.5,3.1,0.3,4.5
					c0.9,1.7,3.5,0.2,2.6-1.5c-0.7-1.2,0.2-4.4,0.1-6c-0.2-3.3,0-7.6,3.6-9.3c1.1-0.5,1.5-0.4,2.5-0.4c0.3,0,0.7-0.1,1.1-0.1
					c3.8,0.8,5.6,2.8,5.7,6.6c0.1,2.3-0.3,4.6-0.2,6.9c0.1,2.5,0.9,6,0,8.3c-2.9,7.6-14.2,1.9-12.6-4.9
					C154.8,40.1,151.9,39.3,151.5,41.2z"/>
			</g>
		</g>
	</g>
</g>
<g>
	<path class="st0" d="M225.8,40.5c-0.1-1.1-0.2-2.3-0.4-3.4c-0.3-1.6-0.9-3.2-1.7-4.7c-0.1-0.2-0.2-0.3-0.3-0.5
		c-0.1-0.3-0.2-0.6-0.3-1c-0.6-1.8-1.6-3.4-2.8-4.8c-0.5-0.7-1.1-1.3-1.7-1.9c-0.7-0.7-1.5-1.3-2.3-1.9c-1.4-1.1-3.1-1.8-4.7-2.5
		c-0.8-0.3-1.7-0.6-2.5-0.8c-0.3-0.1-0.6-0.1-0.9-0.2c-0.9-0.2-1.8-0.3-2.7-0.3c-0.1,0-0.1-0.1-0.2-0.1c-0.1,0-0.2,0-0.3,0
		c0,0,0,0,0,0c0,0,0,0,0,0c-0.6-0.1-1.3-0.1-1.9-0.1c-0.1,0-0.1,0-0.2,0c-0.5,0-1.1,0-1.6,0.1c0,0-0.1,0-0.1,0
		c-0.4,0-0.7-0.1-1.1-0.1c0,0,0,0,0,0c-0.4,0-0.8,0.1-1.2,0.1c-0.6,0.1-1.2,0.4-1.8,0.6c-0.3,0.1-0.5,0.3-0.8,0.4c0,0,0,0,0,0
		c-1,0.4-1.9,0.9-2.8,1.5c-0.3-0.3-0.6-0.7-0.9-1c-0.6-0.5-1.2-1-1.9-1.2c-0.4-0.2-0.8-0.2-1.2-0.2c-0.3,0-0.6,0-0.9,0.1
		c-1.8,0.3-3.6,1.3-4.8,2.9c-0.3,0.4-0.5,0.8-0.7,1.2c-0.2,0.4-0.4,0.9-0.6,1.4c-0.3,0.9-0.5,1.9-0.6,2.9c0,0.1,0,0.1,0,0.2
		c-0.1,0.4-0.2,0.7-0.3,1.1c-0.2,0.9-0.4,1.8-0.6,2.8c0,0.3-0.1,0.5-0.1,0.8c0,3.2,0.3,6.4,0.8,9.6c0,0.2,0.1,0.3,0.2,0.4
		c0,0,0,0,0,0.1c-0.2,0.7-0.1,1.5,0,2.2c0.1,0.9,0.5,1.8,0.9,2.6c0.5,0.9,1.1,1.7,1.7,2.5c0.3,0.4,0.7,0.7,1,1.1
		c0.4,0.4,0.9,0.7,1.3,1c0.7,0.5,1.6,0.8,2.5,1c0.7,0.2,1.5,0.2,2.2,0.1c0.4,0,0.7-0.1,1.1-0.2c0.4-0.1,0.7-0.2,1.1-0.4
		c0.6-0.3,1.1-0.6,1.6-1.1c0.5-0.4,0.9-1,1.3-1.5c0.3-0.5,0.6-1.1,0.9-1.6c0.3-0.7,0.5-1.3,0.7-2c0.4-1.3,0.6-2.7,0.7-4.1
		c0.1-1.3,0.2-2.5,0.1-3.8c0-0.4-0.1-0.8-0.1-1.2c0-0.4,0-0.8,0-1.1c0.5-0.1,1-0.1,1.5-0.3c0.6-0.2,1.1-0.4,1.7-0.6
		c0.9-0.4,1.8-1,2.6-1.8c0.1-0.1,0.3-0.3,0.4-0.4c0.2-0.1,0.4-0.2,0.7-0.3c0.4-0.1,0.7-0.2,1.1-0.3c0.2,0,0.5,0,0.7,0
		c0.2,0,0.4,0.1,0.6,0.2c0.1,0.1,0.3,0.1,0.4,0.2c0.1,0,0.1,0.1,0.2,0.1c0.3,0.2,0.5,0.5,0.7,0.7c0.4,0.5,0.7,1,0.9,1.6
		c0.4,1.1,0.7,2.3,0.9,3.5c0.2,1.5,0.2,3.1,0,4.6c-0.1,0.8-0.3,1.7-0.6,2.5c0,0.1-0.1,0.2-0.1,0.3c-0.1,0.3,0,1.6,0.1,1.8
		c0.4,0.7,0.9,1.3,1.4,1.9c0.3,0.4,0.7,0.7,1,1.1c0.4,0.4,0.9,0.7,1.3,1c0.7,0.5,1.6,0.8,2.5,1c0.7,0.2,1.5,0.2,2.2,0.1
		c0.4,0,0.7-0.1,1.1-0.2c0.4-0.1,0.7-0.2,1.1-0.4c0.6-0.3,1.1-0.6,1.6-1.1c0.5-0.4,0.9-1,1.3-1.5c0.3-0.5,0.6-1.1,0.9-1.6
		c0.3-0.7,0.5-1.3,0.7-2c0.1-0.4,0.2-0.8,0.3-1.3C225.9,43,225.9,41.7,225.8,40.5z"/>
	<g>
		<path class="st1" d="M227.3,40.5c-1.3-13.1-9.3-22-22.3-23.7c0.5,0.5,1,1,1.5,1.5c0,0,0,0,0,0c0-0.9-0.7-1.4-1.5-1.5
			c-4.7-0.5-8.2,0.2-12.3,2.7c0.6,0.1,1.2,0.2,1.8,0.2c-4.5-5-11.5-2.3-13.5,3.8c-1.2,3.7-1.8,8-1.5,11.9c0.1,2.1,0.5,4.2,0.8,6.3
			c-0.2-1.3,0,1.6,0.1,2.3c0.8,6,7.7,11.8,13.8,9c6.6-3,6-11.9,6-17.8c-0.4,0.5-0.7,1-1.1,1.4c1.5-0.3,2.9-0.7,4.2-1.4
			c1.1-0.6,1.9-1.8,3.2-1.9c4.6-0.3,2.8,8.3,2.5,11.1c-0.4,3.3,1.3,5.9,4.3,7.7C222.1,57.9,227.5,48,227.3,40.5
			c-0.1-1.9-3.1-1.9-3,0c0.1,2.6,0,5.7-1.7,7.9c-2.6,3.3-7.1,2.8-9.7-0.4c-1.8-2.2-0.7-3.1-0.4-5.5c0.3-2.5,0.1-5.2-0.7-7.7
			c-0.7-1.9-1.7-4.1-3.8-4.7c-3.4-1-6.8,3.2-9.7,3.7c-0.6,0.1-1.1,0.8-1.1,1.4c0,4.1,0.5,8.5-1.6,12.3c-4.1,7.3-11.4,0.4-12.3-5.2
			c-0.6-3.7-1.3-8.1-0.7-11.9c0.2-1.4,0.6-2.8,0.8-4.1c0.4-1.8,0.6-2.2,1.8-3.8c0.7-1.9,1.9-2.4,3.8-1.7c1.5-0.5,2.6-0.2,3.3,1
			c0.4,0.5,1.3,0.6,1.8,0.2c3.5-2.2,6.6-2.7,10.8-2.3c-0.5-0.5-1-1-1.5-1.5c0,0,0,0,0,0c0,0.9,0.7,1.4,1.5,1.5
			c11.2,1.5,18.2,9.6,19.3,20.7C224.5,42.4,227.5,42.4,227.3,40.5z"/>
	</g>
</g>
</svg>
