<?xml version="1.0" encoding="utf-8"?>
<!-- Generator: Adobe Illustrator 23.1.1, SVG Export Plug-In . SVG Version: 6.00 Build 0)  -->
<svg version="1.1" id="Layer_1" xmlns="http://www.w3.org/2000/svg" xmlns:xlink="http://www.w3.org/1999/xlink" x="0px" y="0px"
	 viewBox="0 0 259.4 55.7" style="enable-background:new 0 0 259.4 55.7;" xml:space="preserve">
<style type="text/css">
	.st0{fill:#FFFFFF;}
	.st1{fill:#2C2C2C;}
</style>
<g>
	<path class="st0" d="M28.2,43.8c-0.1-0.4-0.2-0.8-0.3-1.2c0-0.1,0-0.2,0-0.3c-0.1-0.3-0.2-0.7-0.3-1c0-0.1-0.1-0.2-0.1-0.3
		c0-0.1,0-0.2,0-0.3c-0.1-0.5-0.3-0.9-0.6-1.4c-0.1-0.2-0.2-0.3-0.4-0.5c-0.3-0.6-0.8-1.1-1.5-1.3c-0.2-0.1-0.4-0.1-0.6-0.1
		c-0.2,0-0.5,0-0.7,0c-0.1,0-0.2,0-0.3,0c-0.2,0-0.4,0-0.6,0c-0.4,0-0.9,0-1.3,0.1c-0.5,0.1-0.9,0.2-1.4,0.3
		c-0.5,0.2-1.1,0.4-1.6,0.7c-0.2,0.1-0.4,0.3-0.6,0.4c-0.1,0.1-0.2,0.2-0.4,0.3c-0.2,0.1-0.4,0.2-0.6,0.2c-0.3,0.1-0.6,0.1-0.9,0.2
		c-0.2,0-0.4,0-0.6-0.1c-0.2,0-0.3-0.1-0.4-0.2c-0.2-0.1-0.3-0.2-0.4-0.3c-0.2-0.2-0.4-0.4-0.5-0.6c-0.2-0.4-0.4-0.9-0.6-1.3
		c-0.1-0.3-0.2-0.7-0.2-1.1c-0.1-0.6-0.2-1.2-0.2-1.8c0-1.2,0.1-2.4,0.4-3.6c0.1-0.5,0.3-0.9,0.5-1.4c0.8-0.8,1.7-1.5,2.7-2.1
		c0.7-0.4,1.3-0.7,2.1-0.9c0.2-0.1,0.4-0.1,0.7-0.1c0.5-0.1,1-0.1,1.6-0.1c0.6,0,1.1,0,1.7-0.1c0.7,0,1.4-0.2,2-0.4
		c0.6-0.2,1.2-0.5,1.7-0.8c0.3-0.2,0.5-0.5,0.8-0.8c0.3-0.3,0.5-0.7,0.6-1.1c0.2-0.3,0.2-0.7,0.3-1.1c0-0.2,0.1-0.4,0.1-0.6
		c0-0.3,0-0.6-0.1-0.9c-0.1-0.4-0.2-0.7-0.3-1c-0.1-0.5-0.4-0.9-0.6-1.3c-0.3-0.6-0.7-1.1-1-1.6c0,0,0,0,0,0c0,0,0,0,0,0
		c-0.1-0.2-0.2-0.3-0.3-0.5c-0.1-0.2-0.3-0.3-0.5-0.5c-0.1-0.1-0.2-0.2-0.3-0.2c-0.1,0-0.1-0.1-0.2-0.1c-0.3-0.2-0.6-0.5-0.9-0.7
		c-0.4-0.2-0.8-0.4-1.3-0.6c-0.5-0.2-1-0.3-1.4-0.3c-0.9-0.1-1.9,0-2.8,0.1c-1,0.2-2,0.5-2.9,0.8c-0.9,0.4-1.8,0.8-2.7,1.3
		c-0.3,0.2-0.6,0.4-0.9,0.5c-1.4,0.8-2.7,1.8-3.9,2.8c-0.7,0.6-1.3,1.3-1.9,2c-0.9,1-1.5,2.2-2.1,3.4c-0.1,0.1-0.1,0.3-0.2,0.4
		c-0.2,0.2-0.3,0.4-0.5,0.6c-0.8,1.3-1.3,2.6-1.6,4.1c0,0,0,0,0,0c-0.2,0.7-0.3,1.3-0.3,2c-0.1,0.8-0.1,1.6-0.1,2.4
		c0.1,1.4,0.4,2.8,0.8,4.1c0.3,0.9,0.6,1.8,1.1,2.6c0.3,0.6,0.7,1.3,1.1,1.8c0,0.1,0,0.1,0.1,0.2c0,0.1,0.1,0.1,0.1,0.2c0,0,0,0,0,0
		c0,0,0,0,0,0c0.3,0.4,0.5,0.8,0.8,1.2c0,0,0.1,0.1,0.1,0.1c0.3,0.3,0.6,0.7,0.9,1c0,0,0,0.1,0.1,0.1C6.7,45.6,6.8,45.8,7,46
		c0,0,0,0,0,0c0.2,0.2,0.4,0.5,0.7,0.7C8,47,8.5,47.3,8.9,47.5c0.2,0.1,0.4,0.2,0.6,0.3c0,0,0,0,0,0c0.3,0.2,0.7,0.4,1,0.5
		c0.2,0.1,0.3,0.2,0.5,0.3c0.8,0.4,1.7,0.8,2.6,1.1c0.7,0.2,1.4,0.4,2.1,0.5c0,0,0.1,0.1,0.1,0.1c0.1,0,0.1,0,0.2,0.1c0,0,0,0,0,0
		c0,0,0,0,0,0c0.5,0.1,1,0.2,1.5,0.3c0,0,0.1,0,0.1,0c0.4,0,0.9,0.1,1.3,0.1c0,0,0.1,0,0.1,0c0.3,0.1,0.5,0.1,0.8,0.2c0,0,0,0,0,0
		c0.3,0,0.6,0,0.9,0c0.5,0,1-0.2,1.5-0.3c0.2-0.1,0.4-0.2,0.6-0.3c0,0,0,0,0,0c1.2-0.3,2.3-0.8,3.3-1.5c0.2-0.2,0.5-0.4,0.7-0.6
		c0.2-0.2,0.3-0.4,0.5-0.6c0.2-0.3,0.3-0.6,0.4-0.9c0.1-0.3,0.2-0.6,0.3-1c0-0.3,0.1-0.5,0.1-0.8C28.3,44.5,28.2,44.1,28.2,43.8z"/>
	<g>
		<path class="st1" d="M29.6,43.4c-0.2-0.9-0.4-1.8-0.7-2.7c-0.1-0.4-0.1-0.1,0,0c-0.1-0.2-0.1-0.5-0.1-0.8c-0.2-0.5-0.4-1-0.7-1.5
			c-1.1-1.5-2.2-2.5-4.2-2.5c-2.2,0-4.2,0.2-6.1,1.4c-0.5,0.3-1.2,1.1-1.8,0.9c-0.7-0.2-0.9-1.5-1.1-2.1c-0.3-1.7-0.5-4.8,0.7-6.1
			c1.5-1.6,3.5-2.3,5.7-2.4c2.1,0,4.2-0.2,5.9-1.5c1.5-1.1,2.5-2.9,2.5-4.8c0-2-0.9-3.9-2.1-5.5c-0.1-0.1-0.2-0.4-0.3-0.5
			c0.1,0.1,0.6,1,0.2,0.3c-0.2-0.4-0.5-0.7-0.8-1.1c-0.6-0.6-1.4-1.1-2.1-1.6c-3.8-2.2-8.4-0.7-12,1.2c-3.8,2-7.3,4.9-9.4,8.8
			c-1.1,2-2.2,3.8-2.7,6.1c-0.5,2-0.6,4.1-0.3,6.2c0.3,2.4,1.1,4.8,2.3,6.9c0.1,0.2,0.3,0.5,0.5,0.7c0.1,0.2,0.6,0.8,0.3,0.2
			c-0.3-0.5,0,0.1,0.1,0.3c0.1,0.2,0.1,0.3,0.3,0.5c0.5,0.8,1.2,1.5,1.7,2.3c0.6,0.8,1.1,1.4,1.9,2c0.8,0.6,1.6,0.9,2.5,1.3
			c2,1,4,1.7,6.1,2.2c-0.4-0.5-0.7-1-1.1-1.4c0,0,0,0,0,0c0,0.6,0.5,1.3,1.1,1.4c1.4,0.3,2.9,0.5,4.3,0.6c1.7,0.1,3.2-0.5,4.6-1
			C28.2,50,30.1,47.1,29.6,43.4c-0.1-0.8-1.1-1.2-1.8-1c-0.9,0.2-1.2,1-1,1.8c0.4,2.7-1.8,3.8-4,4.6c-1.1,0.4-1.9,0.6-3.1,0.4
			c-1-0.2-2-0.2-3-0.4c0.4,0.5,0.7,1,1.1,1.4c0,0,0,0,0,0c0-0.6-0.5-1.3-1.1-1.4c-1.6-0.4-3.3-0.8-4.9-1.6C10.5,46.6,8.9,46.1,8,45
			c-0.4-0.6-0.8-1.1-1.2-1.6c-0.2-0.3-0.4-0.6-0.6-0.9c-0.2-0.2-0.2-0.6-0.1,0c0.1,0.8,0,0,0-0.2c-0.2-0.7-0.8-1.3-1.2-2
			c-0.5-0.8-0.9-1.7-1.1-2.7c-1.1-3.7-1-8.1,1.1-11.5c1.1-1.7,1.9-3.5,3.3-4.9c1.4-1.5,3-2.7,4.7-3.7c2.8-1.7,7.2-3.9,10.4-1.9
			c1.3,0.8,1.8,1.6,2.6,2.9c0.9,1.5,1.3,3.3,0,4.7c-1.3,1.4-3.4,1.3-5.1,1.3c-1.9,0-3.6,0.5-5.2,1.6c-0.8,0.5-1.5,1.1-2.2,1.7
			c-0.7,0.6-1,1.4-1.3,2.3c-0.5,1.9-0.6,4-0.3,5.9c0.3,1.7,0.8,3.8,2.5,4.7c0.7,0.4,1.6,0.5,2.4,0.4c1.1-0.2,1.7-0.6,2.5-1.2
			c1-0.7,2.3-1,3.5-1c0.7,0,1.6-0.2,2.2,0.3c0.6,0.5,0.8,1.4,1.1,2.1c0.3,0.9,0.6,1.8,0.8,2.8C27.1,46.1,30,45.3,29.6,43.4z"/>
	</g>
</g>
<g>
	<g>
		<path class="st0" d="M256.7,31c-0.1-0.4-0.3-0.7-0.5-1c-0.2-0.2-0.4-0.4-0.6-0.6c-0.1-0.1-0.3-0.2-0.5-0.4
			c-0.2-0.2-0.5-0.3-0.8-0.4c-0.3-0.1-0.7-0.3-1-0.4c-0.5-0.2-1.1-0.2-1.7-0.3c-0.2,0-0.5,0-0.7,0c-0.4,0-0.8,0-1.2,0.1
			c-0.4,0-0.8,0.1-1.1,0.2c-0.4,0-0.9,0-1.3,0.1c-0.1,0-0.1,0-0.2,0c-0.2,0-0.4,0-0.6,0c-0.5,0-0.9,0-1.4,0c-0.1,0-0.3,0-0.4,0
			c0,0,0,0,0,0c-0.3,0-0.6,0-0.8,0c-0.2,0-0.5,0.1-0.7,0.1c-0.2,0-0.3,0.1-0.4,0.1c0,0-0.1,0-0.1,0.1c-0.1,0-0.3,0-0.4,0
			c-0.3,0-0.5,0.1-0.7,0.1c-0.3,0.1-0.5,0.2-0.8,0.3c-0.2,0.1-0.3,0.2-0.4,0.3c-0.2,0.2-0.4,0.3-0.6,0.5c-0.2,0.2-0.4,0.4-0.5,0.6
			c-0.1,0.2-0.3,0.4-0.3,0.6c-0.1,0.2-0.1,0.4-0.1,0.7c0,0.2,0,0.4,0.1,0.6c0.1,0.2,0.2,0.4,0.3,0.6c0,0.1,0,0.2,0,0.3
			c0,0.2,0.2,0.4,0.3,0.6c0.1,0.1,0.2,0.2,0.3,0.4c0.1,0.3,0.4,0.5,0.7,0.7c0.1,0.1,0.2,0.2,0.4,0.2c0.3,0.2,0.6,0.4,0.9,0.5
			c0.3,0.1,0.7,0.3,1.1,0.3c0.2,0,0.4,0.1,0.6,0.1c0.3,0.1,0.7,0.2,1,0.3c0.6,0.1,1.2,0.1,1.8,0.1c0,0,0.1,0,0.1,0
			c0.1,0,0.2,0.1,0.2,0.1c0.9,0.3,2.1,0.4,3,0c0.2-0.1,0.3-0.2,0.5-0.2c0.2-0.1,0.4-0.3,0.5-0.4c0,0,0,0,0,0c0.2,0,0.3-0.1,0.5-0.1
			c0.1,0,0.2,0,0.3,0c0.2,0,0.5,0,0.7,0c0.2,0,0.4-0.1,0.6-0.1c0.3-0.1,0.6-0.2,0.8-0.3c0,0,0,0,0,0c0,0,0,0,0,0
			c0.3-0.1,0.6-0.1,0.9-0.3c0.2-0.1,0.4-0.2,0.6-0.3c0.2-0.1,0.4-0.3,0.6-0.4c0.2-0.2,0.4-0.4,0.6-0.7c0.1-0.1,0.1-0.2,0.1-0.3
			c0,0,0,0,0,0c0,0,0-0.1,0-0.1c0,0,0,0,0,0c0.1-0.1,0.2-0.3,0.2-0.4c0.1-0.2,0.1-0.5,0.1-0.7c0,0,0,0,0,0c0,0,0,0,0,0
			C256.8,31.7,256.8,31.4,256.7,31z"/>
		<g>
			<path class="st1" d="M258.1,30.6c-1-3.2-4.8-4.4-7.9-4.2c-0.8,0-1.6,0.2-2.4,0.3c-0.7,0.1-1.4,0.1-2.1,0.1
				c-1.4,0-2.7,0.1-3.9,0.7c0.3-0.1,0.5-0.1,0.8-0.2c-1.6,0.1-3.2,0.7-4.3,2c-0.6,0.7-1,1.4-1.1,2.3c-0.1,0.9,0.3,1.7,0.6,2.6
				c0.6,1.5,2.1,2.6,3.5,3.2c0.8,0.3,1.7,0.4,2.5,0.6c0.8,0.2,1.7,0.3,2.5,0.2c-0.3-0.1-0.5-0.1-0.8-0.2c2,0.8,4.4,0.8,6-0.8
				c-0.2,0.1-0.4,0.3-0.7,0.4c0.6-0.1,1.2-0.1,1.8-0.2c0.5-0.1,1-0.4,1.5-0.6c-0.7,0.3,0.2,0,0.3,0c0.3-0.1,0.6-0.2,0.9-0.4
				c0.4-0.2,0.8-0.5,1.2-0.8c0.4-0.4,0.8-0.8,1-1.3c0.1-0.2,0.3-0.5,0.1-0.1c0.1-0.2,0.2-0.4,0.3-0.7
				C258.4,32.4,258.3,31.5,258.1,30.6c-0.4-1.9-3.3-1.1-2.9,0.8c0.2,0.8-0.1,1.4-0.6,1.8c-0.4,0.3-0.9,0.4-1.4,0.6
				c-0.5,0.2-0.9,0.4-1.5,0.5c-0.8,0.1-1.5,0-2.2,0.5c-0.5,0.3-0.9,0.5-1.4,0.5c-0.6,0-1.1-0.3-1.7-0.4c-0.6,0-1.2,0-1.9-0.1
				c-1.1-0.3-2.4-0.4-3.3-1.2c-0.5-0.5-0.6-0.9-0.9-1.5c-0.2-0.5-0.1-0.7,0.3-1.1c0.8-0.9,2-0.8,3-1.1c1.1-0.3,2.3-0.2,3.4-0.2
				c1.6,0,3.1-0.5,4.7-0.3c1.2,0.1,3.1,0.6,3.5,2C255.8,33.2,258.7,32.4,258.1,30.6z"/>
		</g>
	</g>
	<g>
		<path class="st0" d="M257.9,43.8c-0.1-0.4-0.2-0.8-0.3-1.2c0-0.1,0-0.2,0-0.3c-0.1-0.3-0.2-0.7-0.3-1c0-0.1-0.1-0.2-0.1-0.3
			c0-0.1,0-0.2,0-0.3c-0.1-0.5-0.3-0.9-0.6-1.4c-0.1-0.2-0.2-0.3-0.4-0.5c-0.3-0.6-0.8-1.1-1.5-1.3c-0.2-0.1-0.4-0.1-0.6-0.1
			c-0.2,0-0.5,0-0.7,0c-0.1,0-0.2,0-0.3,0c-0.2,0-0.4,0-0.6,0c-0.4,0-0.9,0-1.3,0.1c-0.5,0.1-0.9,0.2-1.4,0.3
			c-0.5,0.2-1.1,0.4-1.6,0.7c-0.2,0.1-0.4,0.3-0.6,0.4c-0.1,0.1-0.2,0.2-0.4,0.3c-0.2,0.1-0.4,0.2-0.6,0.2c-0.3,0.1-0.6,0.1-0.9,0.2
			c-0.2,0-0.4,0-0.6-0.1c-0.2,0-0.3-0.1-0.4-0.2c-0.2-0.1-0.3-0.2-0.4-0.3c-0.2-0.2-0.3-0.4-0.5-0.6c-0.2-0.4-0.4-0.9-0.6-1.3
			c-0.1-0.3-0.2-0.7-0.2-1.1c-0.1-0.6-0.2-1.2-0.2-1.8c0-1.2,0.1-2.4,0.4-3.6c0.1-0.5,0.3-0.9,0.5-1.4c0.8-0.8,1.7-1.5,2.7-2.1
			c0.7-0.4,1.3-0.7,2.1-0.9c0.2-0.1,0.4-0.1,0.7-0.1c0.5-0.1,1-0.1,1.6-0.1c0.6,0,1.1,0,1.7-0.1c0.7,0,1.4-0.2,2-0.4
			c0.6-0.2,1.2-0.5,1.7-0.8c0.3-0.2,0.5-0.5,0.8-0.8c0.3-0.3,0.5-0.7,0.6-1.1c0.2-0.3,0.2-0.7,0.3-1.1c0-0.2,0.1-0.4,0.1-0.6
			c0-0.3,0-0.6-0.1-0.9c-0.1-0.4-0.2-0.7-0.3-1c-0.1-0.5-0.4-0.9-0.6-1.3c-0.3-0.6-0.7-1.1-1-1.6c0,0,0,0,0,0c0,0,0,0,0,0
			c-0.1-0.2-0.2-0.3-0.3-0.5c-0.1-0.2-0.3-0.3-0.5-0.5c-0.1-0.1-0.2-0.2-0.3-0.2c-0.1,0-0.1-0.1-0.2-0.1c-0.3-0.2-0.6-0.5-0.9-0.7
			c-0.4-0.2-0.8-0.4-1.3-0.6c-0.5-0.2-1-0.3-1.4-0.3c-0.9-0.1-1.9,0-2.8,0.1c-1,0.2-2,0.5-2.9,0.8c-0.9,0.4-1.8,0.8-2.7,1.3
			c-0.3,0.2-0.6,0.4-0.9,0.5c-0.1,0-0.1,0-0.2,0c-0.2,0-0.5,0-0.7,0c-0.1,0-0.3,0-0.4,0.1c-0.1,0-0.2,0-0.2,0.1
			c-0.4,0-0.7,0.1-1.1,0.2c-0.4,0.1-0.9,0.3-1.3,0.5c-0.4,0.2-0.9,0.5-1.2,0.8c-0.7,0.6-1.3,1.3-1.9,2c-0.6,0.8-1,1.7-1.4,2.6
			c-0.4,0.9-0.7,1.8-1,2.8c-0.4,1.4-0.7,2.9-0.9,4.3c-0.2,0.7-0.3,1.3-0.3,2c-0.1,0.8-0.1,1.6-0.1,2.4c0.1,1.4,0.4,2.8,0.8,4.1
			c0.3,0.9,0.6,1.8,1.1,2.6c0.3,0.6,0.7,1.3,1.1,1.8c0,0.1,0,0.1,0.1,0.2c0,0.1,0.1,0.1,0.1,0.2c0,0,0,0,0,0c0,0,0,0,0,0
			c0.3,0.4,0.5,0.8,0.8,1.2c0,0,0.1,0.1,0.1,0.1c0.3,0.3,0.6,0.7,0.9,1c0,0,0,0.1,0.1,0.1c0.1,0.2,0.3,0.5,0.5,0.7c0,0,0,0,0,0
			c0.2,0.2,0.4,0.5,0.7,0.7c0.4,0.3,0.8,0.6,1.3,0.8c0.2,0.1,0.4,0.2,0.6,0.3c0,0,0,0,0,0c0.3,0.2,0.7,0.4,1,0.5
			c0.2,0.1,0.3,0.2,0.5,0.3c0.8,0.4,1.7,0.8,2.6,1.1c0.7,0.2,1.4,0.4,2.1,0.5c0,0,0.1,0.1,0.1,0.1c0.1,0,0.1,0,0.2,0.1c0,0,0,0,0,0
			c0,0,0,0,0,0c0.5,0.1,1,0.2,1.5,0.3c0,0,0.1,0,0.1,0c0.4,0,0.9,0.1,1.3,0.1c0,0,0.1,0,0.1,0c0.3,0.1,0.5,0.1,0.8,0.2c0,0,0,0,0,0
			c0.3,0,0.6,0,0.9,0c0.5,0,1-0.2,1.5-0.3c0.2-0.1,0.4-0.2,0.6-0.3c0,0,0,0,0,0c1.2-0.3,2.3-0.8,3.3-1.5c0.2-0.2,0.5-0.4,0.7-0.6
			c0.2-0.2,0.3-0.4,0.5-0.6c0.2-0.3,0.3-0.6,0.4-0.9c0.1-0.3,0.2-0.6,0.3-1c0-0.3,0.1-0.5,0.1-0.8C258,44.5,258,44.1,257.9,43.8z"/>
		<g>
			<path class="st1" d="M259.4,43.4c-0.1-0.6-0.3-1.1-0.4-1.7c-0.1-0.3-0.1-0.6-0.2-0.8c0-0.1-0.3-0.7-0.1-0.2
				c-0.3-1.1-0.6-1.9-1.3-2.9c-1.4-2-3.7-2-5.9-1.8c-1.2,0.1-2.4,0.5-3.5,1.1c-0.6,0.4-1.6,1.5-2.4,1c-0.8-0.4-1-2.2-1-2.9
				c-0.2-1.4-0.1-2.9,0.3-4.3c0.6-2.2,3.8-3.3,6-3.3c2.4,0,4.9-0.2,6.7-1.9c1.8-1.6,2.3-4.1,1.7-6.4c-0.3-1-0.8-2-1.4-2.9
				c-0.2-0.3-0.4-0.5-0.5-0.8c-0.1-0.2-0.3-0.7,0,0c-0.3-0.5-0.6-0.9-1-1.3c-4.5-4-10.5-2.2-15.1,0.6c0.4-0.1,0.8-0.1,1.2-0.2
				c-1.2-0.3-2.6,0-3.8,0.4c-1.4,0.4-2.6,1.3-3.6,2.3c-2.1,2.2-3.3,5.2-4,8.2c-0.8,3.1-1.4,6.5-1,9.6c0.4,3.1,1.7,5.7,3.2,8.3
				c0.2-0.7,0.4-1.4,0.5-2.1c0,0,0,0,0,0c-0.7,0.4-0.9,1.4-0.5,2.1c0.6,1,1.4,1.9,2.1,2.8c0.8,1.1,1.7,1.9,2.9,2.5
				c1,0.5,2.1,1.1,3.3,1.6c1.4,0.6,2.8,0.9,4.2,1.2c-0.4-0.5-0.7-1-1.1-1.4c0,0,0,0,0,0c0,0.6,0.5,1.3,1.1,1.4
				c1.4,0.3,2.9,0.5,4.3,0.6c1.7,0.1,3.2-0.5,4.6-1C257.9,50,259.9,47.2,259.4,43.4c-0.1-0.8-1.1-1.2-1.8-1c-0.9,0.2-1.2,1-1,1.8
				c0.4,2.7-1.8,3.8-4,4.6c-1.1,0.4-1.9,0.6-3.1,0.4c-1-0.2-2-0.2-3-0.4c0.4,0.5,0.7,1,1.1,1.4c0,0,0,0,0,0c0-0.6-0.5-1.3-1.1-1.4
				c-1.2-0.3-2.5-0.5-3.6-1c-1-0.4-1.9-0.9-2.8-1.4c-1-0.5-1.7-0.9-2.3-1.8c-0.6-0.8-1.3-1.6-1.8-2.4c-0.2,0.7-0.4,1.4-0.5,2.1
				c0,0,0,0,0,0c0.7-0.4,0.9-1.4,0.5-2.1c-1.8-3-3.1-6-3-9.6c0.1-1.6,0.4-3.2,0.7-4.7c0.4-1.8,0.8-3.5,1.6-5.2
				c0.7-1.4,1.5-2.8,2.8-3.8c1.3-1,2.5-0.9,4-1.1c0.8-0.1,1.4-0.6,2.1-0.9c0.6-0.3,1.3-0.7,1.9-0.9c1.7-0.7,3.7-1.2,5.6-0.8
				c2.3,0.5,4.2,2.8,4.8,5.1c0.4,1.4,0,2.8-1.2,3.6c-1.5,1-3.4,0.8-5.1,0.9c-1.5,0.1-2.9,0.5-4.3,1.3c-1.3,0.8-3,1.9-3.5,3.4
				c-1.1,2.9-1.2,6.9,0.2,9.7c0.7,1.3,1.9,2.3,3.4,2.3c1.9,0,3.1-1.5,4.8-2c1.2-0.3,3.4-0.7,4.2,0.4c1,1.3,1.3,3,1.6,4.6
				C256.9,46.1,259.7,45.3,259.4,43.4z"/>
		</g>
	</g>
</g>
<g>
	<g>
		<path class="st0" d="M58.7,35.2c0-0.4-0.1-0.8-0.2-1.3c0-0.4,0-0.8-0.1-1.1c-0.1-1.2-0.4-2.4-0.8-3.5c-0.3-0.6-0.5-1.2-0.9-1.8
			c-0.4-0.6-0.8-1.2-1.3-1.7c-0.8-1-1.9-1.9-3-2.7c-1.1-0.8-2.3-1.3-3.5-1.7c-0.5-0.2-1.1-0.3-1.7-0.3c-0.8-0.1-1.5-0.2-2.3-0.2
			c0,0-0.1,0-0.1,0c-1.3,0-2.7,0.2-4,0.4c-2.3,0.3-4.5,1.1-6.4,2.5c-0.3,0.2-0.7,0.5-1,0.8c-0.1,0.1-0.2,0.2-0.4,0.3
			c-0.4,0.4-0.8,0.8-1.2,1.2c-0.4,0.5-0.9,1.1-1.2,1.7c-0.6,1-1.1,2.1-1.6,3.2c-0.6,1.4-0.8,3-1,4.5c-0.1,1.4,0,2.9,0.3,4.3
			c0.3,1.4,0.8,2.7,1.5,3.9c0.3,0.5,0.6,1.1,1,1.6c0.5,0.6,0.9,1.2,1.5,1.8c0.5,0.5,1.1,1,1.7,1.4c0.5,0.4,1.1,0.8,1.7,1.1
			c0.6,0.4,1.3,0.7,2,0.9c0.6,0.3,1.3,0.4,2,0.6c4,0.9,8.2-0.1,11.7-2.1c0.9-0.5,1.7-1.1,2.5-1.8c0.6-0.5,1.1-1.1,1.5-1.8
			c0.4-0.4,0.7-0.8,1-1.2c0.4-0.6,0.8-1.2,1-1.8c0.4-0.8,0.6-1.6,0.8-2.4C58.8,38.4,58.9,36.8,58.7,35.2z"/>
		<g>
			<path class="st1" d="M60.2,35.2c-0.2-1.7-0.2-3.4-0.7-5c-0.5-1.7-1.3-3.3-2.4-4.8c-2-2.6-4.9-4.7-8.1-5.5
				c-3.3-0.8-6.9-0.5-10.1,0.3c-3.2,0.8-6.4,2.8-8.4,5.5c-4.4,5.8-5.1,14.3-0.7,20.4c4.1,5.7,11.2,8.1,18,6.2
				C55.4,50.2,61,43.3,60.2,35.2c-0.2-1.9-3.2-1.9-3,0c0.6,5.8-2.6,11-7.9,13.4c-5.2,2.4-11.5,1.8-15.6-2.4
				c-4.5-4.4-5-11.2-2.1-16.6c2.8-5.2,8.6-7.5,14.4-7.1c3.2,0.2,6,1.6,8.1,4c1,1.1,1.9,2.4,2.4,3.9c0.5,1.6,0.6,3.2,0.8,4.8
				C57.5,37.1,60.5,37.1,60.2,35.2z"/>
		</g>
	</g>
	<g>
		<path class="st0" d="M42.4,40.1c0.2,0,0.3-0.1,0.5-0.2c0.2,0,0.4,0,0.6-0.1c0,0,0.1,0,0.1,0c0.1,0,0.2,0,0.2,0c0.2,0,0.4,0,0.6,0
			c0.1,0,0.1,0,0.2,0c0,0,0,0,0,0c0.1,0,0.3,0,0.4,0c0.1,0,0.2-0.1,0.3-0.1c0.1,0,0.1-0.1,0.2-0.1c0,0,0,0,0.1-0.1
			c0.1,0,0.1,0,0.2,0c0.1,0,0.2-0.1,0.3-0.1c0.1-0.1,0.2-0.2,0.4-0.3c0.1-0.1,0.1-0.2,0.2-0.2c0.1-0.1,0.2-0.3,0.3-0.5
			c0.1-0.2,0.2-0.4,0.2-0.6c0.1-0.2,0.1-0.4,0.2-0.5c0-0.2,0.1-0.4,0.1-0.6c0-0.2,0-0.4,0-0.6c0-0.2-0.1-0.4-0.1-0.6
			c-0.1-0.2-0.1-0.4-0.2-0.6c-0.1-0.1-0.1-0.2-0.2-0.3c0-0.1-0.1-0.2-0.2-0.3c-0.1-0.1-0.1-0.1-0.2-0.2c-0.1-0.2-0.2-0.5-0.3-0.7
			c-0.2-0.3-0.4-0.6-0.7-0.8c-0.1-0.1-0.2-0.1-0.3-0.1c-0.1,0-0.2,0-0.3-0.1c-0.1,0-0.2,0-0.3,0c-0.1,0-0.2,0-0.3,0.1
			c-0.1-0.2-0.2-0.4-0.4-0.6c-0.4-0.3-0.9-0.4-1.3,0c-0.1,0.1-0.2,0.1-0.2,0.2c-0.1,0.1-0.2,0.2-0.2,0.4c0,0,0,0,0,0
			c-0.1,0-0.2,0.1-0.2,0.1c0,0-0.1,0-0.1,0c-0.1,0-0.2,0-0.3,0c-0.1,0-0.2,0.1-0.3,0.1c-0.1,0.1-0.3,0.2-0.4,0.3c0,0,0,0,0,0
			c0,0,0,0,0,0c-0.1,0.1-0.3,0.1-0.4,0.2c-0.1,0.1-0.2,0.2-0.3,0.3c-0.1,0.1-0.2,0.2-0.3,0.4c-0.1,0.2-0.2,0.4-0.3,0.6
			c0,0.1,0,0.2-0.1,0.2c0,0,0,0,0,0c0,0,0,0.1,0,0.1c0,0,0,0,0,0c0,0.1-0.1,0.3-0.1,0.4c0,0.2-0.1,0.4-0.1,0.7c0,0,0,0,0,0
			c0,0,0,0,0,0c0,0.4,0,0.7,0,1.1c0,0.3,0.1,0.7,0.2,1c0.1,0.2,0.2,0.4,0.3,0.6c0.1,0.1,0.1,0.2,0.2,0.4c0.1,0.2,0.2,0.3,0.4,0.4
			c0.1,0.1,0.3,0.3,0.5,0.4c0.2,0.2,0.5,0.2,0.8,0.3c0.1,0,0.2,0,0.3,0C42.1,40.2,42.2,40.1,42.4,40.1L42.4,40.1L42.4,40.1z"/>
		<g>
			<path class="st1" d="M42.8,41.6c0.3-0.1,0.6-0.2,0.9-0.3c-0.3,0.1-0.5,0.1-0.8,0.2c0.3,0,0.7-0.1,1-0.2c-0.3,0-0.5,0-0.8,0
				c0.6,0.1,1.3,0.1,1.9,0c-0.3,0-0.5,0-0.8,0c0.9,0.2,1.7-0.1,2.4-0.7c-0.4,0.1-0.7,0.3-1.1,0.4c2.7-0.2,3.7-3.5,3.2-5.8
				c-0.1-0.5-0.4-1-0.6-1.5c-0.1-0.2-0.4-0.5-0.5-0.7c0.1,0.1,0.1,0.1,0.1,0c0-0.1-0.1-0.1-0.1-0.2c-0.1-0.1-0.1-0.2-0.2-0.3
				c-0.8-1.2-2-1.9-3.4-1.5c0.6,0.2,1.1,0.5,1.7,0.7c-0.4-0.9-1.4-1.6-2.4-1.6c-1,0-1.9,0.7-2.4,1.6c0.3-0.2,0.6-0.5,0.9-0.7
				c-0.2,0.1-0.4,0.2-0.6,0.2c0.4-0.1,0.8-0.1,1.2-0.2c-0.9-0.1-1.7,0.1-2.4,0.7c-0.4,0.4,0.4-0.2,0,0c-0.2,0.1-0.3,0.2-0.5,0.4
				c-0.3,0.2-0.5,0.5-0.7,0.7c-0.6,0.9-0.9,2.1-0.9,3.1c-0.1,1.3,0.1,2.7,0.9,3.8c0.4,0.6,0.9,1.1,1.6,1.5
				C41.1,41.6,41.9,41.7,42.8,41.6c0.8-0.1,1.3-1.1,1-1.8c-0.3-0.9-1-1.2-1.8-1c0.3,0-0.1,0-0.1,0c0.2,0-0.1,0-0.2-0.1
				c-0.3-0.1,0.2,0.1-0.1-0.1c-0.3-0.2,0.1,0.2-0.1-0.1c0,0-0.3-0.3-0.1-0.1c-0.1-0.1-0.1-0.2-0.2-0.4c0-0.1-0.2-0.4-0.1-0.1
				c0-0.1-0.1-0.3-0.1-0.4c0-0.1-0.1-0.3-0.1-0.4c0,0.3,0-0.1,0-0.2c0-0.3,0-0.5,0-0.8c0-0.1,0-0.2,0-0.2c0-0.1,0-0.1,0,0.1
				c0-0.1,0-0.1,0-0.2c0-0.2,0.1-0.3,0.1-0.5c0-0.1,0.1-0.2,0.1-0.3c0.1-0.3-0.1,0.1,0.1-0.1c0.1-0.1,0.2-0.3,0-0.1
				c0.1-0.1,0.2-0.2,0.3-0.3c-0.3,0.2,0.1,0,0.1,0c0.1-0.1,0.2-0.2,0.3-0.3c0,0,0.4-0.3,0.1-0.1c0.1-0.1,0.1-0.1,0,0
				c-0.1,0.1-0.3,0.1-0.4,0c0.2,0.1,0.4,0.1,0.6,0c0.2,0,0.4-0.1,0.6-0.2c0,0-0.1,0-0.1,0.1c0.3-0.1,0.5-0.2,0.7-0.4
				c0.1-0.1,0.2-0.3,0.3-0.4c0,0,0.1-0.1,0.1-0.1c-0.1,0.1-0.1,0.1,0,0c-0.1,0.1-0.4,0.2-0.1,0.1c-0.1,0-0.3,0-0.4,0
				c-0.1-0.1-0.1,0,0,0C43.1,33,43,33,43,32.9c-0.1-0.1-0.1-0.1,0,0c0,0.1,0.1,0.1,0.1,0.2c0.3,0.6,1.1,0.9,1.7,0.7
				c0.3-0.1,0,0-0.1-0.1c0.3,0-0.1-0.1,0,0c0.1,0.1-0.1-0.2,0,0c0,0,0.2,0.3,0.1,0.1c0.1,0.2,0.3,0.5,0.4,0.7
				c0.1,0.1,0.4,0.6,0.2,0.3c0.1,0.1,0.1,0.2,0.2,0.3c0.1,0.2,0.2,0.4,0.3,0.5c-0.1-0.3,0,0.1,0,0.1c0,0,0.1,0.4,0.1,0.2
				c0-0.2,0,0.2,0,0.3c0,0,0,0.5,0,0.2c0,0.3-0.1,0.5-0.2,0.8c-0.1,0.1-0.1,0.2,0,0.1c-0.1,0.1-0.1,0.2-0.2,0.4
				c0,0.1-0.3,0.3-0.1,0.2c0.2-0.2-0.1,0-0.1,0.1c0.1-0.1,0.2-0.1,0.1-0.1c-0.1,0-0.1,0,0.1,0c0.3,0,0.1,0-0.1,0
				c-0.4,0-0.6,0.2-0.9,0.4c-0.2,0.2,0.3-0.2-0.1,0c0.2-0.1,0.3-0.1,0.4-0.1c0.3,0,0.2,0-0.3,0c-0.1,0-0.3,0-0.4,0.1
				c-0.2,0,0.3,0-0.1,0c0,0-0.4,0-0.4,0c0.1,0,0.1,0,0.2,0c-0.2-0.1-0.4-0.1-0.6,0c0,0-0.5,0.1-0.2,0.1c-0.1,0-0.2,0-0.4,0
				c-0.2,0-0.4,0.1-0.6,0.2c0.2-0.1-0.1,0-0.2,0c-0.8,0.2-1.3,1.1-1,1.8C41.2,41.3,42,41.7,42.8,41.6z"/>
		</g>
	</g>
</g>
<g>
	<g>
		<g>
			<path class="st0" d="M55.9,40.5C55.9,40.5,55.9,40.6,55.9,40.5c-0.2,0.8-0.1,1.5,0,2.3c0.1,0.9,0.5,1.8,0.9,2.6
				c0.5,0.9,1.1,1.7,1.7,2.5c0.3,0.4,0.7,0.7,1,1.1c0.4,0.4,0.9,0.7,1.3,1c0.7,0.5,1.6,0.8,2.5,1c0.7,0.2,1.5,0.2,2.2,0.1
				c0.4,0,0.7-0.1,1.1-0.2c0.4-0.1,0.7-0.2,1.1-0.4c0.6-0.3,1.1-0.6,1.6-1.1c0.5-0.4,0.9-1,1.3-1.5c0.3-0.5,0.6-1.1,0.9-1.6
				c0.3-0.7,0.5-1.3,0.7-2c0.4-1.3,0.6-2.7,0.7-4.1c0.1-1.3,0.2-2.5,0.1-3.8c0-0.4-0.1-0.8-0.1-1.2c0-0.6,0-1.3,0-1.9
				c-0.3-1.4-0.6-2.8-1-4.1c-0.6-2.1-1.3-4.2-2.2-6.2c-0.4-0.8-0.8-1.7-1.3-2.4c-0.5-0.7-1-1.4-1.6-2c-0.6-0.5-1.2-1-1.9-1.2
				c-0.4-0.2-0.8-0.2-1.2-0.2c-0.3,0-0.6,0-0.9,0.1c-1.8,0.3-3.6,1.3-4.8,2.9c-0.3,0.4-0.5,0.8-0.7,1.2c-0.2,0.4-0.4,0.9-0.6,1.4
				c-0.3,0.9-0.5,1.9-0.6,2.9c0,0.1,0,0.1,0,0.2c-0.1,0.4-0.2,0.7-0.3,1.1c-0.2,0.9-0.4,1.8-0.6,2.8c0,0.3-0.1,0.5-0.1,0.8
				c0,3.2,0.3,6.4,0.8,9.6C55.7,40.3,55.8,40.4,55.9,40.5z"/>
			<g>
				<path class="st1" d="M54.5,40.1c-1.3,5.9,4.7,12.8,10.6,12.6c6.8-0.2,8.9-7.5,9.3-13.1c0.2-3.3-0.1-6.6-0.9-9.8
					c-0.9-3.2-1.9-6.6-3.7-9.5c-1.6-2.6-3.9-4.9-7.2-4.5c-2.9,0.4-5.5,2.2-6.8,4.8c-0.8,1.5-1,3-1.3,4.6c-0.3,1.6-0.8,3.2-1,4.8
					c-0.2,1.9,0,3.8,0.2,5.7c0.1,1,0.2,1.9,0.3,2.9c0.1,0.9,0.1,1.9,0.7,2.6c1.1,1.5,3.7,0.1,2.6-1.5c-0.5-0.7-0.4-2.6-0.5-3.5
					c-0.1-1.4-0.2-2.9-0.3-4.3c-0.1-2.3,0.7-4.4,1-6.7c0.3-2.3,1.3-4.6,3.4-5.8c0.9-0.5,2.1-0.9,3.1-0.7c1,0.2,1.9,1.1,2.5,1.9
					c1.6,2.1,2.5,4.7,3.3,7.1c0.4,1.2,0.7,2.4,1,3.6c0.3,1.4,0.4,2.6,0.5,4c0.2,2.6,0.2,5.1-0.4,7.6c-0.5,2.1-1.3,4.4-3.2,5.7
					c-2.2,1.6-5.2,0.9-7.2-0.9c-1.8-1.6-3.8-4.5-3.2-7.1C57.8,39,54.9,38.2,54.5,40.1z"/>
			</g>
		</g>
	</g>
	<g>
		<path class="st0" d="M99.8,39.4c-0.1-1.1-0.2-2.3-0.4-3.4c-0.3-1.6-0.9-3.2-1.7-4.7c-0.1-0.2-0.2-0.3-0.3-0.5
			c-0.1-0.3-0.2-0.6-0.3-1c-0.6-1.8-1.6-3.4-2.8-4.8c-0.5-0.7-1.1-1.3-1.7-1.9c-0.7-0.7-1.5-1.3-2.3-1.9c-1.4-1.1-3.1-1.8-4.7-2.5
			c-0.8-0.3-1.7-0.6-2.5-0.8c-0.3-0.1-0.6-0.1-0.9-0.2c-0.9-0.2-1.8-0.3-2.7-0.3c-0.1,0-0.1-0.1-0.2-0.1c-0.1,0-0.2,0-0.3,0
			c0,0,0,0,0,0c0,0,0,0,0,0c-0.6-0.1-1.3-0.1-1.9-0.1c-0.1,0-0.1,0-0.2,0c-0.5,0-1.1,0-1.6,0.1c0,0-0.1,0-0.1,0
			c-0.4,0-0.7-0.1-1.1-0.1c0,0,0,0,0,0c-0.4,0-0.8,0.1-1.2,0.1c-0.6,0.1-1.2,0.4-1.8,0.6c-0.3,0.1-0.5,0.3-0.8,0.4c0,0,0,0,0,0
			c-1.4,0.6-2.8,1.3-3.9,2.4c-0.3,0.3-0.5,0.6-0.7,0.9c-0.2,0.3-0.4,0.5-0.5,0.8c-0.2,0.4-0.3,0.8-0.4,1.2c-0.1,0.4-0.2,0.8-0.2,1.3
			c0,0.3,0,0.7,0,1c0.1,0.4,0.1,0.9,0.3,1.3c0.1,0.5,0.3,1,0.6,1.5c0,0.1,0.1,0.3,0.1,0.4c0.1,0.4,0.3,0.8,0.5,1.2
			c0.1,0.1,0.1,0.2,0.2,0.3c0,0.1,0.1,0.2,0.1,0.4c0.2,0.6,0.5,1.1,0.9,1.6c0.2,0.2,0.3,0.4,0.5,0.5c0.5,0.7,1.2,1.3,2.1,1.4
			c0.3,0,0.5,0.1,0.8,0.1c0.3,0,0.6-0.1,0.9-0.1c0.1,0,0.3,0,0.4-0.1c0.3,0,0.5,0,0.8-0.1c0.6-0.1,1.1-0.2,1.6-0.3
			c0.6-0.2,1.1-0.4,1.7-0.6c0.9-0.4,1.8-1,2.6-1.8c0.1-0.1,0.3-0.3,0.4-0.4c0.2-0.1,0.4-0.2,0.7-0.3c0.4-0.1,0.7-0.2,1.1-0.3
			c0.2,0,0.5,0,0.7,0c0.2,0,0.4,0.1,0.6,0.2c0.1,0.1,0.3,0.1,0.4,0.2c0.1,0,0.1,0.1,0.2,0.1c0.3,0.2,0.5,0.5,0.7,0.7
			c0.4,0.5,0.7,1,0.9,1.6c0.4,1.1,0.7,2.3,0.9,3.5c0.2,1.5,0.2,3.1,0,4.6c-0.1,0.8-0.3,1.7-0.6,2.5c0,0.1-0.1,0.2-0.1,0.3
			c-0.1,0.3,0,1.6,0.1,1.8c0.4,0.7,0.9,1.3,1.4,1.9c0.3,0.4,0.7,0.7,1,1.1c0.4,0.4,0.9,0.7,1.3,1c0.7,0.5,1.6,0.8,2.5,1
			c0.7,0.2,1.5,0.2,2.2,0.1c0.4,0,0.7-0.1,1.1-0.2c0.4-0.1,0.7-0.2,1.1-0.4c0.6-0.3,1.1-0.6,1.6-1.1c0.5-0.4,0.9-1,1.3-1.5
			c0.3-0.5,0.6-1.1,0.9-1.6c0.3-0.7,0.5-1.3,0.7-2c0.1-0.4,0.2-0.8,0.3-1.3C99.9,41.9,99.9,40.7,99.8,39.4z"/>
		<g>
			<path class="st1" d="M101.3,39.4c-0.1-1.5-0.3-3-0.7-4.5c-0.4-1.6-1.1-3-1.7-4.4c-0.5-1.2-0.9-2.5-1.5-3.6
				c-0.7-1.3-1.6-2.5-2.6-3.7c-1.9-2.2-4.4-4.1-7.1-5.3c-2.9-1.3-5.7-1.8-8.9-2.2c0.5,0.5,1,1,1.5,1.5c0,0,0,0,0,0
				c0-0.9-0.7-1.4-1.5-1.5c-1.3-0.1-2.6,0-3.9-0.1c-1.5-0.1-2.7,0-4.1,0.6c-2.6,1.1-5.5,2.5-7,5.1c-1.7,3-0.8,6.2,0.5,9.2
				c1.2,2.6,2.8,5.4,6,5.5c3.1,0,6.4-1,8.7-3.1c1-0.9,2-1.4,2.9-0.1c1,1.4,1.4,3.3,1.5,5c0.1,1.7,0.1,3.4-0.4,5
				c-0.3,1.2-0.6,2.2-0.3,3.5c0.3,1.2,1.3,2.3,2.1,3.1c1.1,1.2,2.4,2.3,3.9,2.8c3.4,1.3,7.2,0.4,9.5-2.4
				C101,46.8,101.5,43.1,101.3,39.4c-0.1-1.9-3.1-1.9-3,0c0.2,2.9-0.1,5.8-1.9,8.2c-1.7,2.2-4.6,2.7-7,1.4c-1.1-0.6-2-1.6-2.8-2.6
				c-0.6-0.8-0.8-1.4-0.6-2.1c0.7-2.8,1-5.5,0.5-8.4c-0.4-2.4-1.3-5.3-3.6-6.5c-1.1-0.6-2.3-0.6-3.4-0.2c-1.3,0.4-1.9,1.3-3,2.1
				c-1,0.7-2.2,1.2-3.5,1.4c-1.2,0.2-2.9,0.7-3.9-0.3c-0.9-0.9-1.3-1.9-1.8-3c-0.6-1.2-1.2-2.7-1.3-4.1c-0.2-3.3,2.9-4.7,5.4-6
				c1.1-0.6,2.1-0.8,3.4-0.7c1.4,0.1,2.8,0,4.2,0.1c-0.5-0.5-1-1-1.5-1.5c0,0,0,0,0,0c0,0.9,0.7,1.4,1.5,1.5
				c2.6,0.3,5.1,0.8,7.6,1.9c2.4,1.1,4.5,2.7,6.2,4.7c0.8,0.9,1.5,2,2.1,3c0.6,1,0.8,2.2,1.3,3.2c1.2,2.5,1.9,5,2.1,7.8
				C98.5,41.3,101.5,41.3,101.3,39.4z"/>
		</g>
	</g>
</g>
<g>
	<g>
		<path class="st0" d="M142,39.3c0,0.3-0.1,0.6-0.2,1c-0.2,0.9-0.6,1.8-1,2.6c-0.4,0.8-0.9,1.6-1.5,2.3c-0.5,0.7-1,1.3-1.6,2
			c-0.7,0.7-1.4,1.3-2.1,1.9c-0.6,0.5-1.3,1-2,1.5c-0.7,0.5-1.5,0.8-2.3,1.2c-0.3,0.2-0.7,0.3-1.1,0.4c-0.2,0.2-0.4,0.4-0.6,0.5
			c-0.6,0.4-1.3,0.8-1.9,1c-0.8,0.3-1.6,0.4-2.4,0.5c-0.5,0.1-1.1,0.1-1.6,0.1c-1.1,0-2.1-0.1-3.1-0.3c-1.5-0.2-2.9-0.6-4.3-1.1
			c-0.6-0.2-1.3-0.6-1.8-0.9c-0.5-0.3-0.9-0.6-1.3-1c-0.1-0.1-0.2-0.2-0.3-0.3c0.2,0,0.3,0,0.5-0.1c0,0,0,0,0,0
			c0.3,0,0.6,0.1,0.9,0.1c0.1,0,0.2,0,0.2,0c1,0,2-0.2,2.9-0.6c0.5-0.2,1-0.4,1.4-0.7c0.4-0.2,0.8-0.5,1.1-0.8
			c0.6-0.7,1.1-1.5,1.4-2.3c0.3-0.9,0.4-1.8,0.5-2.7c0.1-1.9-0.2-3.8-0.3-5.6c0-0.2,0-0.3,0-0.5c0.2-1.7,0.3-3.4,0.3-5.2
			c0-0.4,0.1-0.8,0.1-1.1c0,0.3,0,0.6,0.1,0.8c0.1,1.2,0.1,2.4,0,3.6c0.1,0.2,0.2,0.3,0.4,0.5c0.2,0.3,0.5,0.5,0.8,0.7
			c0.3,0.2,0.6,0.3,0.9,0.5c0.3,0.1,0.6,0.2,0.9,0.2c0.3,0,0.6,0,1,0c0.3-0.1,0.6-0.2,1-0.3c0.2-0.1,0.4-0.3,0.6-0.4
			c0.1-0.1,0.2-0.2,0.3-0.4c0.2-0.4,0.4-0.8,0.6-1.2c0.2-0.6,0.4-1.2,0.7-1.7c0.7-1.2,2-1.8,3.3-1.5c0,0,0.1,0,0.1,0
			c0.5-0.4,1.1-0.6,1.7-0.8c0.9-0.2,1.8-0.2,2.6,0c0.5,0.2,0.9,0.3,1.3,0.6c0.5,0.3,1,0.7,1.4,1.1c0.4,0.4,0.8,0.9,1.1,1.3
			c0.2,0.3,0.4,0.5,0.5,0.8c0.2,0.4,0.4,0.9,0.6,1.3c0.1,0.5,0.2,1.1,0.3,1.6C142.1,38.3,142,38.8,142,39.3z"/>
		<g>
			<path class="st1" d="M140.5,39.3c-0.4,2.8-2.4,5.5-4.4,7.4c-1,1-2.1,1.9-3.3,2.6c-1.1,0.7-2.4,1-3.4,1.7
				c-2.2,1.7-4.8,1.9-7.6,1.6c-2.8-0.3-5.7-1.1-7.8-3.1c-0.4,0.9-0.7,1.7-1.1,2.6c0.9-0.1,1.7,0,2.6-0.1c1.1-0.1,2.1-0.5,3.2-0.9
				c2-0.9,3.5-2.6,4.1-4.8c0.7-2.5,0.4-5.1,0.2-7.6c-0.1-1.3,0-2.5,0.1-3.8c0.1-1.3,0.1-2.6,0.2-4c-1,0-2,0-3,0
				c0.1,0.8,0.1,1.6,0.1,2.4c0,0.8-0.2,1.7,0,2.4c0.3,1.1,1.6,2,2.6,2.5c1.3,0.6,2.8,0.6,4.2,0.1c1.4-0.6,2-1.7,2.6-3
				c0.6-1.4,0.9-2.2,2.5-2.1c0.8,0,1.2-0.4,1.9-0.7c0.7-0.3,1.5-0.3,2.2,0C139.3,33.5,140.7,36.5,140.5,39.3c-0.2,1.9,2.8,1.9,3,0
				c0.3-3-0.9-5.9-3.2-7.9c-2.4-2.1-5.8-2.7-8.5-0.9c0.4-0.1,0.8-0.1,1.2-0.2c-1.2-0.3-2.6-0.1-3.6,0.6c-1.3,0.9-1.8,2.3-2.4,3.7
				c-0.6,1.3-2.3,1.7-3.3,0.5c-0.3-0.3-0.1-0.9-0.1-1.5c0-0.9-0.1-1.8-0.1-2.7c-0.1-2-2.8-1.9-3,0c-0.1,1-0.1,2-0.2,3
				c0,1.1-0.2,2.2-0.3,3.3c0,2.1,0.5,4.2,0.4,6.4c-0.1,1.9-0.8,3.6-2.5,4.6c-1.6,0.9-3.1,0.7-4.8,0.9c-1.2,0.1-2.1,1.6-1.1,2.6
				c2.6,2.3,5.9,3.4,9.3,3.9c3.2,0.4,7,0.3,9.6-1.7c1.1-0.9,2.6-1.3,3.8-2c1.5-0.9,2.8-2.1,4-3.3c2.5-2.5,4.5-5.6,5-9.2
				C143.7,37.4,140.7,37.4,140.5,39.3z"/>
		</g>
	</g>
	<g>
		<path class="st0" d="M122.9,16.3c0,0.4-0.1,0.8-0.1,1.2c0,1.2,0,2.5-0.1,3.7c-0.1,3.1-0.5,6.1-0.8,9.2c0,0.2-0.1,0.5-0.1,0.7
			c0,0.4-0.1,0.8-0.1,1.1c0,1.7-0.1,3.4-0.3,5.2c0,0.2,0,0.3,0,0.5c0.1,1.9,0.4,3.7,0.3,5.6c0,0.9-0.2,1.8-0.4,2.7
			c-0.3,0.9-0.7,1.7-1.3,2.3c-0.3,0.3-0.7,0.6-1,0.8c-0.4,0.3-0.9,0.5-1.3,0.7c-0.9,0.4-1.8,0.6-2.7,0.6c-0.1,0-0.1,0-0.2,0
			c-0.3,0-0.5,0-0.8-0.1c0,0,0,0,0,0c-0.1,0-0.3,0.1-0.5,0.1c-0.1,0-0.2,0-0.2,0c0,0,0,0,0,0c-0.2,0-0.4,0-0.6-0.1
			c-0.1,0-0.3-0.1-0.4-0.1c-0.1,0-0.3-0.1-0.4-0.2c-0.3-0.1-0.6-0.2-0.8-0.4c-0.3-0.2-0.6-0.4-0.9-0.6c-0.4-0.3-0.8-0.7-1.2-1.1
			c-0.3-0.4-0.6-0.8-0.9-1.2c-0.3-0.4-0.5-0.9-0.7-1.3c-0.1-0.3-0.2-0.6-0.3-1c-0.1-0.5-0.1-1-0.2-1.5c-0.1-0.9-0.1-1.9,0-2.8
			c0.1-0.8,0.2-1.6,0.3-2.3c-0.1-1.1-0.2-2.2-0.2-3.4c0-0.6-0.1-1.3-0.1-1.9c-0.1-0.9-0.1-1.9-0.1-2.8c0-0.1,0-0.3-0.1-0.4
			c-0.3-1.9-0.4-3.8-0.5-5.7c-0.1-3.7,0.1-7.4,0.7-11.1c0-0.2,0.1-0.3,0.2-0.4c0,0,0,0,0-0.1c-0.2-0.7-0.1-1.5,0-2.2
			c0.1-0.9,0.4-1.8,0.8-2.6c0.3-0.6,0.7-1.2,1-1.8c0,0,0,0,0,0c0.1-0.2,0.2-0.4,0.3-0.5c0.1-0.2,0.2-0.3,0.3-0.5
			c0.2-0.4,0.4-0.7,0.7-1.1c0.4-0.5,0.9-0.9,1.5-1.2c0.3-0.2,0.7-0.3,1-0.5c0.4-0.1,0.9-0.2,1.3-0.3c0.6-0.1,1.3-0.1,1.9,0
			c0.1,0,0.1,0,0.2,0c0.3,0,0.7,0.1,1,0.2c0.3,0.1,0.7,0.2,1,0.4c0.6,0.3,1,0.6,1.5,1.1c0.5,0.4,0.8,1,1.2,1.5
			c0.3,0.5,0.6,1.1,0.8,1.6c0.3,0.7,0.5,1.3,0.7,2c0.4,1.3,0.6,2.7,0.7,4.1C122.9,13.7,123,15,122.9,16.3z"/>
		<g>
			<path class="st1" d="M121.4,16.3c-0.3,3.7-0.3,7.4-0.7,11.1c-0.2,1.7-0.4,3.5-0.5,5.2c-0.1,1.9-0.4,3.8-0.2,5.7
				c0.2,3.2,1.3,8-2,9.9c-1.4,0.8-2.8,0.8-4.4,0.9c-1.4,0-2.5-0.7-3.5-1.7c-2.7-2.7-1.7-6.1-1.6-9.4c0-1.9-0.3-3.9-0.3-5.8
				c-0.1-1.9-0.3-3.7-0.5-5.6c-0.3-3.8-0.2-7.7,0.2-11.6c0.1-0.5,0.1-1,0.2-1.5c0.1-0.3,0.3-0.7,0.3-0.9c0.1-0.6-0.1-1.2-0.1-1.8
				c0.1-1.8,1.1-3.5,1.9-4.8c0.9-1.5,1.8-2.7,3.6-3c1.8-0.3,3.6,0.2,4.8,1.5C121.3,7.4,121.6,12.5,121.4,16.3c-0.1,1.9,2.9,1.9,3,0
				c0.3-6-1.1-15.3-8.4-16.2c-3.5-0.4-6.3,1-8.1,4c-1.6,2.6-3.1,5.4-2.4,8.6c0.1-0.4,0.1-0.8,0.2-1.2c-0.7,1.1-0.7,2.8-0.8,4.1
				c-0.2,1.6-0.3,3.2-0.3,4.8c-0.1,3,0.1,6,0.5,9c0.2,1.6,0.2,3.2,0.2,4.7c0.1,1.6,0.3,3.2,0.1,4.8c-0.3,2.6-0.4,5.6,0.7,8
				c1.1,2.2,3.3,4.3,5.7,5c0.9,0.3,2,0.2,2.8,0.2c1.3,0,2.5-0.2,3.7-0.7c2.5-1,4.2-3,4.8-5.7c0.6-3.1-0.3-6.2,0-9.3
				c0.1-1.7,0.1-3.3,0.3-5c0.2-1.6,0.3-3.1,0.5-4.7c0.3-3.5,0.3-7,0.6-10.4C124.5,14.3,121.5,14.3,121.4,16.3z"/>
		</g>
	</g>
	<g>
		<path class="st0" d="M127.6,20.7c0,0,0,0.1,0,0.2c0.1,0.5,0.1,1.1,0,1.6c0,0,0,0,0,0c0.1,0.7-0.4,1.4-1.1,1.6
			c-0.2,0.1-0.4,0.2-0.5,0.3c0,0-0.1,0.1-0.1,0.1c-0.2,0.2-0.4,0.4-0.6,0.5c-0.4,0.2-0.7,0.3-1.1,0.4c-0.1,0-0.3,0-0.4,0
			c-0.4,0-0.7-0.1-1.1-0.2c-0.2-0.1-0.3-0.1-0.5-0.2c-0.3,0-0.6-0.1-0.8-0.1c-0.9-0.2-1.8-0.5-2.6-1.1c-0.2-0.2-0.4-0.4-0.6-0.7
			c-0.2-0.2-0.3-0.4-0.4-0.6c-0.2-0.4-0.3-0.7-0.4-1.2c-0.2-0.4-0.3-0.9-0.3-1.3c0-0.4,0-0.7,0.1-1.1c0.1-0.4,0.2-0.7,0.4-1
			c0.2-0.2,0.3-0.4,0.5-0.6c0.2-0.2,0.4-0.4,0.6-0.6c0.4-0.3,0.9-0.6,1.4-0.8c0.5-0.2,1-0.4,1.6-0.4c0.2,0,0.4,0,0.6,0
			c0.5-0.1,1,0,1.4,0.1c0.5,0.2,0.9,0.4,1.3,0.7c0.1,0,0.1,0.1,0.2,0.1c0.6,0.3,0.9,0.7,1.3,1.2c0.1,0.1,0.2,0.2,0.2,0.3
			c0,0,0.1,0,0.1,0c0.5,0.2,0.8,0.7,1,1.2C127.9,19.7,127.8,20.2,127.6,20.7z"/>
		<g>
			<path class="st1" d="M126.1,21.1c0.1,0.5,0,0.8,0,1.4c0,0.4,0.1-0.2,0,0.2c0,0,0-0.2,0.1-0.1c-0.1,0-0.1,0.2,0,0.1
				c0,0-0.2,0.1,0,0c-0.2,0.1-0.3,0.1-0.5,0.2c-0.2,0.1-0.5,0.3-0.7,0.5c-0.1,0.1-0.1,0.1-0.2,0.2c0,0-0.2,0.2-0.1,0.1
				c-0.2,0.2-0.3,0.2-0.5,0.2c-0.1,0-0.2,0.1-0.3,0.1c-0.2,0,0,0,0,0c-0.3,0-0.3,0-0.5,0c-0.2-0.1-0.5-0.1-0.7-0.2
				c-0.2-0.1-0.4-0.1-0.6-0.1c-0.1,0-0.1,0-0.2,0c0.1,0,0.1,0,0,0c-0.9-0.1-1.7-0.4-2.3-0.9c-0.2-0.2-0.5-0.6-0.7-0.9
				c-0.1-0.2,0,0.2,0-0.1c0-0.1-0.1-0.2-0.1-0.3c-0.1-0.3-0.1-0.5-0.2-0.8c-0.3-0.9-0.1-1.5,0.4-2.2c0.3-0.4,1.1-0.9,1.7-1.2
				c0.8-0.3,1.8-0.4,2.5-0.2c0.3,0.1,0.6,0.4,1,0.6c0.1,0,0.1,0.1,0.2,0.1c0,0,0.4,0.3,0.2,0.1c0.2,0.2,0.3,0.3,0.5,0.5
				c0.2,0.3,0.4,0.5,0.7,0.7c0.1,0,0.2,0.1,0.2,0.1c-0.2-0.1,0.1,0.1,0.1,0c0.1,0.2,0.2,0.4,0.1,0.6c-0.3,0.7-0.2,1.6,0.5,2.1
				c0.6,0.4,1.7,0.2,2.1-0.5c0.4-0.9,0.6-1.9,0.2-2.9c-0.3-0.8-0.9-1.6-1.7-2c0.2,0.2,0.4,0.4,0.5,0.5c-0.3-0.5-0.7-1-1.2-1.4
				c-0.2-0.2-0.5-0.4-0.8-0.6c-0.1-0.1-0.2-0.1-0.3-0.1c0.3,0.2-0.3-0.2-0.4-0.3c-1.1-0.8-2.4-1-3.7-0.9c-2.5,0.2-5.1,1.8-5.9,4.3
				c-0.4,1.4-0.1,2.6,0.2,3.9c0.3,1.3,1.2,2.4,2.3,3.1c0.5,0.3,1.1,0.6,1.6,0.8c0.3,0.1,0.5,0.2,0.8,0.2c0.4,0.1,0.8,0.1,1.2,0.2
				c0.2,0.1,0.2,0.1,0.5,0.2c0.4,0.1,0.7,0.2,1.1,0.2c0.6,0.1,1.3,0,1.9-0.2c0.3-0.1,0.7-0.3,1-0.5c0.2-0.2,0.6-0.5,0.8-0.6
				c-0.2,0.1,0.3-0.2,0.2-0.1c-0.2,0.2,0.3-0.2,0.4-0.2c0.3-0.2,0.5-0.4,0.8-0.6c0.6-0.6,0.8-1.3,0.8-2.2c0,0.1-0.1,0.4,0,0
				c0-0.3,0.1-0.5,0.1-0.8c0-0.5-0.1-0.9-0.2-1.4c-0.2-0.8-1.1-1.3-1.8-1C126.4,19.5,125.9,20.3,126.1,21.1z"/>
		</g>
	</g>
</g>
<g>
	<g>
		<g>
			<path class="st0" d="M236,24.5C236,24.5,236,24.5,236,24.5c0.2-0.8,0.1-1.5,0-2.3c-0.1-0.9-0.5-1.8-0.9-2.6
				c-0.5-0.9-1.1-1.7-1.7-2.5c-0.3-0.4-0.7-0.7-1-1.1c-0.4-0.4-0.9-0.7-1.3-1c-0.7-0.5-1.6-0.8-2.5-1c-0.7-0.2-1.5-0.2-2.2-0.1
				c-0.4,0-0.7,0.1-1.1,0.2c-0.4,0.1-0.7,0.2-1.1,0.4c-0.6,0.3-1.1,0.6-1.6,1.1c-0.5,0.4-0.9,1-1.3,1.5c-0.3,0.5-0.6,1.1-0.9,1.6
				c-0.3,0.7-0.5,1.3-0.7,2c-0.4,1.3-0.6,2.7-0.7,4.1c-0.1,1.3-0.2,2.5-0.1,3.8c0,0.4,0.1,0.8,0.1,1.2c0,0.6,0,1.3,0,1.9
				c0.3,1.4,0.6,2.8,1,4.1c0.6,2.1,1.3,4.2,2.2,6.2c0.4,0.8,0.8,1.7,1.3,2.4c0.5,0.7,1,1.4,1.6,2c0.6,0.5,1.2,1,1.9,1.2
				c0.4,0.2,0.8,0.2,1.2,0.2c0.3,0,0.6,0,0.9-0.1c1.8-0.3,3.6-1.3,4.8-2.9c0.3-0.4,0.5-0.8,0.7-1.2c0.2-0.4,0.4-0.9,0.6-1.4
				c0.3-0.9,0.5-1.9,0.6-2.9c0-0.1,0-0.1,0-0.2c0.1-0.4,0.2-0.7,0.3-1.1c0.2-0.9,0.4-1.8,0.6-2.8c0-0.3,0.1-0.5,0.1-0.8
				c0-3.2-0.3-6.4-0.8-9.6C236.2,24.8,236.2,24.7,236,24.5z"/>
			<g>
				<path class="st1" d="M237.5,24.9c1.3-5.9-4.7-12.8-10.6-12.6c-6.8,0.2-8.9,7.5-9.3,13.1c-0.2,3.3,0.1,6.6,0.9,9.8
					c0.9,3.2,1.9,6.6,3.7,9.5c1.6,2.6,3.9,4.9,7.2,4.5c2.9-0.4,5.5-2.2,6.8-4.8c0.8-1.5,1-3,1.3-4.6c0.3-1.6,0.8-3.2,1-4.8
					c0.2-1.9,0-3.8-0.2-5.7c-0.1-1-0.2-1.9-0.3-2.9c-0.1-0.9-0.1-1.9-0.7-2.6c-1.1-1.5-3.7-0.1-2.6,1.5c0.5,0.7,0.4,2.6,0.5,3.5
					c0.1,1.4,0.2,2.9,0.3,4.3c0.1,2.3-0.7,4.4-1,6.7c-0.3,2.3-1.3,4.6-3.4,5.8c-0.9,0.5-2.1,0.9-3.1,0.7c-1-0.2-1.9-1.1-2.5-1.9
					c-1.6-2.1-2.5-4.7-3.3-7.1c-0.4-1.2-0.7-2.4-1-3.6c-0.3-1.4-0.4-2.6-0.5-4c-0.2-2.6-0.2-5.1,0.4-7.6c0.5-2.1,1.3-4.4,3.2-5.7
					c2.2-1.6,5.2-0.9,7.2,0.9c1.8,1.6,3.8,4.5,3.2,7.1C234.2,26,237.1,26.8,237.5,24.9z"/>
			</g>
		</g>
	</g>
	<g>
		<path class="st0" d="M232.4,39.3c-0.1-0.4-0.1-0.9-0.3-1.3c-0.1-0.5-0.3-1-0.6-1.5c0-0.1-0.1-0.3-0.1-0.4
			c-0.1-0.4-0.3-0.8-0.5-1.2c-0.1-0.1-0.1-0.2-0.2-0.3c0-0.1-0.1-0.2-0.1-0.4c-0.2-0.6-0.5-1.1-0.9-1.6c-0.2-0.2-0.3-0.4-0.5-0.5
			c-0.5-0.7-1.2-1.3-2.1-1.4c-0.3,0-0.5-0.1-0.8-0.1c-0.3,0-0.6,0.1-0.9,0.1c-0.1,0-0.3,0-0.4,0.1c-0.3,0-0.5,0-0.8,0.1
			c-0.6,0.1-1.1,0.2-1.6,0.3c-0.6,0.2-1.1,0.4-1.7,0.6c-0.9,0.4-1.8,1-2.6,1.8c-0.1,0.1-0.3,0.3-0.4,0.4c-0.2,0.1-0.4,0.2-0.7,0.3
			c-0.4,0.1-0.7,0.2-1.1,0.3c-0.2,0-0.5,0-0.7,0c-0.2,0-0.4-0.1-0.6-0.2c-0.1-0.1-0.3-0.1-0.4-0.2c-0.1,0-0.1-0.1-0.2-0.1
			c-0.3-0.2-0.5-0.5-0.7-0.7c-0.4-0.5-0.7-1-0.9-1.6c-0.4-1.1-0.7-2.3-0.9-3.5c-0.2-1.5-0.2-3.1,0-4.6c0.1-0.8,0.3-1.7,0.6-2.5
			c0-0.1,0.1-0.2,0.1-0.3c0.1-0.3,0-1.6-0.1-1.8c-0.4-0.7-0.9-1.3-1.4-1.9c-0.3-0.4-0.7-0.7-1-1.1c-0.4-0.4-0.9-0.7-1.3-1
			c-0.7-0.5-1.6-0.8-2.5-1c-0.7-0.2-1.5-0.2-2.2-0.1c-0.4,0-0.7,0.1-1.1,0.2c-0.4,0.1-0.7,0.2-1.1,0.4c-0.6,0.3-1.1,0.6-1.6,1.1
			c-0.5,0.4-0.9,1-1.3,1.5c-0.3,0.5-0.6,1.1-0.9,1.6c-0.3,0.7-0.5,1.3-0.7,2c-0.1,0.4-0.2,0.8-0.3,1.3c-0.1,1.3-0.1,2.5,0,3.8
			c0.1,1.1,0.2,2.3,0.4,3.4c0.3,1.6,0.9,3.2,1.7,4.7c0.1,0.2,0.2,0.3,0.3,0.5c0.1,0.3,0.2,0.6,0.3,1c0.6,1.8,1.6,3.4,2.8,4.8
			c0.5,0.7,1.1,1.3,1.7,1.9c0.7,0.7,1.5,1.3,2.3,1.9c1.4,1.1,3.1,1.8,4.7,2.5c0.8,0.3,1.7,0.6,2.5,0.8c0.3,0.1,0.6,0.1,0.9,0.2
			c0.9,0.2,1.8,0.3,2.7,0.3c0.1,0,0.1,0.1,0.2,0.1c0.1,0,0.2,0,0.3,0c0,0,0,0,0,0c0,0,0,0,0,0c0.6,0.1,1.3,0.1,1.9,0.1
			c0.1,0,0.1,0,0.2,0c0.5,0,1.1,0,1.6-0.1c0,0,0.1,0,0.1,0c0.4,0,0.7,0.1,1.1,0.1c0,0,0,0,0,0c0.4,0,0.8-0.1,1.2-0.1
			c0.6-0.1,1.2-0.4,1.8-0.6c0.3-0.1,0.5-0.3,0.8-0.4c0,0,0,0,0,0c1.4-0.6,2.8-1.3,3.9-2.4c0.3-0.3,0.5-0.6,0.7-0.9
			c0.2-0.3,0.4-0.5,0.5-0.8c0.2-0.4,0.3-0.8,0.4-1.2c0.1-0.4,0.2-0.8,0.2-1.3C232.5,40,232.5,39.6,232.4,39.3z"/>
		<g>
			<path class="st1" d="M233.9,38.9c-0.3-1.8-1-3.4-1.7-5.1c-0.6-1.4-1.5-2.8-2.7-3.8c-1.5-1.1-3.1-1-4.8-0.8
				c-1.7,0.2-3.4,0.6-4.9,1.5c-0.7,0.4-1.3,0.9-1.9,1.4c-0.5,0.5-1.2,1.1-2,0.9c-1.4-0.4-1.9-3-2.2-4.1c-0.4-1.9-0.5-4.1,0-6
				c0.3-1.4,0.7-2.4,0.5-3.8c-0.2-1.4-1.4-2.7-2.4-3.6c-1.2-1.3-2.6-2.3-4.3-2.8c-3.4-1-6.9,0.1-9.1,2.9c-2.3,3-2.8,6.8-2.5,10.5
				c0.3,3.6,1.6,6.8,2.9,10.2c1.5,3.8,4.3,7,7.6,9.2c1.7,1.2,3.6,2,5.5,2.7c2,0.7,4.1,0.9,6.2,1.2c-0.5-0.5-1-1-1.5-1.5c0,0,0,0,0,0
				c0,0.9,0.7,1.4,1.5,1.5c0.8,0.1,1.7,0.2,2.5,0.1c0.8,0,1.6,0.1,2.4,0.1c1.8,0,3.2-0.8,4.8-1.5c3.6-1.5,6.6-4.6,6.2-8.8
				c-0.2-1.9-3.2-1.9-3,0c0.3,3.6-2.4,4.9-5.1,6.4c-1.2,0.6-2.2,0.9-3.6,0.8c-1.4-0.1-2.8,0-4.2-0.1c0.5,0.5,1,1,1.5,1.5
				c0,0,0,0,0,0c0-0.9-0.7-1.4-1.5-1.5c-3.4-0.4-6.5-1.1-9.5-3c-2.7-1.7-5-4.1-6.5-6.9c-0.6-1.1-0.9-2.3-1.4-3.4
				c-0.8-1.7-1.4-3.4-1.7-5.2c-0.5-3.2-0.6-6.5,1.1-9.4c1.6-2.8,4.7-3.9,7.6-2.3c1.3,0.7,2.3,1.9,3.1,3.1c0.7,1,0.3,1.6,0,2.7
				c-0.8,3.2-0.6,6.9,0.5,10c0.9,2.6,2.9,5,5.9,4.2c0.7-0.2,1.5-0.5,2.1-1c0.6-0.5,1-1,1.6-1.4c1.6-1,3.3-1.3,5.1-1.5
				c1.6-0.1,2.7,1.1,3.3,2.5c0.7,1.6,1.5,3.3,1.7,5.1C231.3,41.6,234.2,40.8,233.9,38.9z"/>
		</g>
	</g>
</g>
<g>
	<g>
		<path class="st0" d="M133.2,11.6c-0.2,0.9-0.3,1.8,0,2.7c0,0,0,0,0,0c-0.1,1.2,0.8,2.3,1.8,2.7c0.3,0.2,0.6,0.4,0.9,0.6
			c0.1,0.1,0.1,0.1,0.2,0.2c0.3,0.3,0.7,0.6,1,0.8c0.7,0.4,1.2,0.5,1.9,0.7c0.2,0,0.5,0.1,0.8,0.1c0.6,0,1.2-0.1,1.8-0.3
			c0.3-0.1,0.6-0.2,0.9-0.3c0.5,0,1-0.1,1.4-0.2c1.6-0.3,3.1-0.9,4.4-1.9c0.4-0.3,0.7-0.7,1-1.1c0.3-0.3,0.5-0.6,0.7-1
			c0.4-0.7,0.5-1.2,0.7-2c0.3-0.7,0.5-1.5,0.6-2.3c0.1-0.6,0-1.3-0.2-1.8c-0.1-0.6-0.4-1.2-0.8-1.8c-0.3-0.4-0.5-0.8-0.8-1.1
			c-0.3-0.3-0.7-0.7-1-0.9c-0.7-0.6-1.5-1-2.3-1.3c-0.8-0.4-1.8-0.7-2.7-0.8c-0.3,0-0.7,0-1,0c-0.8-0.1-1.7,0-2.4,0.2
			c-0.8,0.3-1.6,0.7-2.2,1.2c-0.1,0.1-0.3,0.1-0.4,0.2c-1,0.5-1.6,1.2-2.3,2c-0.1,0.2-0.3,0.3-0.4,0.5c-0.1,0-0.1,0-0.2,0.1
			c-0.8,0.4-1.4,1.2-1.7,2c-0.3,0.9-0.2,1.9,0.2,2.7C133.2,11.4,133.2,11.5,133.2,11.6z"/>
		<g>
			<path class="st1" d="M131.8,11.2c-0.3,1.1-0.2,2.1-0.1,3.2c0.1,0.7,0.2,1.6,0.7,2.4c0.6,0.8,1.2,1.2,2,1.6c0.7,0.4,1.3,1.1,2,1.5
				c1.7,1,3.8,1.2,5.6,0.6c0.5-0.2,0.9-0.3,1.4-0.4c0.4-0.1,0.8-0.1,1.1-0.2c1-0.2,2-0.6,2.9-1c1.7-0.9,3.2-2.4,4-4.1
				c0.4-0.8,0.5-1.6,0.8-2.4c0.3-1.1,0.5-2.2,0.3-3.3c-0.5-4-4.1-6.9-7.9-7.8c-2.2-0.5-4.5-0.4-6.5,0.7c-0.5,0.2-0.8,0.6-1.3,0.9
				c-0.4,0.2-0.8,0.4-1.2,0.7c-0.9,0.7-1.6,1.5-2.2,2.4c0.2-0.2,0.4-0.4,0.5-0.5c-2.6,1.2-3.3,4.3-2.2,6.8c-0.1-0.4-0.1-0.8-0.2-1.2
				C131.8,11,131.8,11.1,131.8,11.2c-0.5,1.9,2.4,2.7,2.9,0.8c0.2-0.5,0.1-0.9-0.1-1.4c-0.1-0.3-0.2-0.7-0.2-1
				c0.1-0.7,0.4-1.2,1-1.5c0.7-0.4,1-1,1.6-1.6c0.5-0.5,1.1-0.8,1.7-1.2c0.6-0.4,1.1-0.8,1.8-1.1c0.8-0.3,1.6-0.2,2.5-0.2
				c1.5,0,3.2,0.8,4.4,1.7c1.2,0.9,2.2,2.2,2.3,3.8c0.1,0.8-0.2,1.6-0.4,2.3c-0.2,0.7-0.3,1.5-0.8,2.2c-0.8,1.3-2.1,2.2-3.6,2.7
				c-0.7,0.2-1.5,0.4-2.2,0.5c-0.9,0.1-1.7,0.6-2.6,0.7c-0.8,0.1-1.6-0.1-2.2-0.5c-0.7-0.4-1.2-1-1.9-1.4c-0.5-0.3-1.2-0.5-1.3-1.2
				c-0.2-0.9-0.2-1.8,0-2.7C135.1,10.1,132.2,9.3,131.8,11.2z"/>
		</g>
	</g>
	<g>
		<g>
			<path class="st0" d="M134.8,42.6C134.8,42.6,134.8,42.6,134.8,42.6c-0.2,0.8-0.1,1.5,0,2.3c0.1,0.9,0.5,1.8,0.9,2.6
				c0.5,0.9,1.1,1.7,1.7,2.5c0.3,0.4,0.7,0.7,1,1.1c0.4,0.4,0.9,0.7,1.3,1c0.7,0.5,1.6,0.8,2.5,1c0.7,0.2,1.5,0.2,2.2,0.1
				c0.4,0,0.7-0.1,1.1-0.2c0.4-0.1,0.7-0.2,1.1-0.4c0.6-0.3,1.1-0.6,1.6-1.1c0.5-0.4,0.9-1,1.3-1.5c0.3-0.5,0.6-1.1,0.9-1.6
				c0.3-0.6,0.5-1.2,0.7-1.9c-0.1-0.6-0.1-1.2-0.2-1.7c-0.1-0.6-0.1-1.2-0.2-1.9c0-1.7-0.1-3.4-0.3-5.2c0-0.2,0-0.3,0-0.5
				c0.1-1.9,0.4-3.7,0.3-5.6c0-0.9-0.2-1.8-0.5-2.7c-0.3-0.9-0.8-1.7-1.4-2.3c-0.3-0.3-0.7-0.6-1.1-0.8c-0.4-0.3-0.9-0.5-1.4-0.7
				c-0.9-0.4-1.9-0.6-2.9-0.6c-0.1,0-0.2,0-0.2,0c-0.3,0-0.6,0-0.9,0.1c0,0,0,0,0,0c-0.2-0.1-0.5-0.1-0.7-0.1c0,0,0,0,0,0
				c-0.2,0-0.5,0-0.7,0.1c-0.1,0-0.3,0.1-0.4,0.1c-0.2,0-0.3,0.1-0.5,0.2c-0.3,0.1-0.6,0.2-0.9,0.4c-0.4,0.2-0.7,0.4-1,0.6
				c-0.5,0.3-0.9,0.7-1.3,1.1c-0.4,0.4-0.7,0.8-1,1.2c-0.3,0.4-0.5,0.9-0.7,1.3c-0.1,0.3-0.2,0.6-0.3,1c-0.1,0.5-0.1,1-0.2,1.5
				c-0.1,0.9-0.1,1.9,0,2.8c0.1,0.8,0.2,1.6,0.3,2.3c-0.1,1.1-0.2,2.2-0.3,3.4c0,0.5,0,0.9-0.1,1.4c0,0.1,0,0.2,0,0.2
				C134.6,42.3,134.7,42.4,134.8,42.6z"/>
			<g>
				<path class="st1" d="M133.3,42.2c-1.3,5.6,4,12,9.5,12.6c2.7,0.3,5.4-0.8,7.1-2.9c0.8-1,1.4-2.1,1.9-3.3
					c0.2-0.6,0.5-1.3,0.6-1.9c0-0.8-0.2-1.8-0.3-2.7c-0.2-1.6-0.1-3.1-0.3-4.7c-0.1-1.7,0-3.3,0.2-4.9c0.2-2.9,0.1-6.1-2-8.4
					c-1.8-2.1-4.7-2.9-7.4-2.8c-0.8,0-1.9-0.1-2.9,0.2c-1.2,0.4-2.3,1-3.2,1.8c-2.5,2.1-3.5,4.7-3.6,7.9c-0.1,1.9,0.3,3.7,0.2,5.6
					c-0.1,1.4-0.6,3.5,0.3,4.8c1.1,1.5,3.7,0.1,2.6-1.5c-0.4-0.5,0-2.3,0.1-3c0.1-1.3,0-2.5-0.1-3.8c-0.2-2-0.2-4.4,1-6.1
					c0.9-1.4,2.7-2.9,4.4-2.9c1.8,0,3.7,0.1,5.3,1c2,1.2,2.4,3.5,2.4,5.6c0,1.2-0.1,2.3-0.3,3.5c-0.1,1.3,0,2.5,0.1,3.8
					c0.1,1.2,0,2.4,0.2,3.5c0.1,1.1,0.5,2.4,0.2,3.5c-0.5,1.8-1.7,3.6-3.5,4.4c-2.3,1-4.9,0.1-6.6-1.6c-1.6-1.7-3.5-4.3-2.9-6.8
					C136.6,41.1,133.8,40.3,133.3,42.2z"/>
			</g>
		</g>
	</g>
</g>
<g>
	<g>
		<g>
			<path class="st0" d="M149.1,43.2C149.1,43.2,149.1,43.3,149.1,43.2c-0.2,0.8-0.1,1.5,0,2.3c0.1,0.9,0.5,1.8,0.9,2.6
				c0.5,0.9,1.1,1.7,1.7,2.5c0.3,0.4,0.7,0.7,1,1.1c0.4,0.4,0.9,0.7,1.3,1c0.7,0.5,1.6,0.8,2.5,1c0.7,0.2,1.5,0.2,2.2,0.1
				c0.4,0,0.7-0.1,1.1-0.2c0.4-0.1,0.7-0.2,1.1-0.4c0.6-0.3,1.1-0.6,1.6-1.1c0.5-0.4,0.9-1,1.3-1.5c0.3-0.5,0.6-1.1,0.9-1.6
				c0.3-0.7,0.5-1.3,0.7-2c0.4-1.3,0.6-2.7,0.7-4.1c0.1-1.3,0.2-2.5,0.1-3.8c0-0.4-0.1-0.8-0.1-1.2c0-0.6,0-1.3,0-1.9
				c-0.3-1.4-0.6-2.8-1-4.1c-0.6-2.1-1.3-4.2-2.2-6.2c-0.4-0.8-0.8-1.7-1.3-2.4c-0.5-0.7-1-1.4-1.6-2c-0.6-0.5-1.2-1-1.9-1.2
				c-0.4-0.2-0.8-0.2-1.2-0.2c-0.3,0-0.6,0-0.9,0.1c-1.8,0.3-3.6,1.3-4.8,2.9c-0.3,0.4-0.5,0.8-0.7,1.2c-0.2,0.4-0.4,0.9-0.6,1.4
				c-0.3,0.9-0.5,1.9-0.6,2.9c0,0.1,0,0.1,0,0.2c-0.1,0.4-0.2,0.7-0.3,1.1c-0.2,0.9-0.4,1.8-0.6,2.8c0,0.3-0.1,0.5-0.1,0.8
				c0,3.2,0.3,6.4,0.8,9.6C148.9,42.9,149,43.1,149.1,43.2z"/>
			<g>
				<path class="st1" d="M147.7,42.8c-1.3,5.9,4.7,12.8,10.6,12.6c6.8-0.2,8.9-7.5,9.3-13.1c0.2-3.3-0.1-6.6-0.9-9.8
					c-0.9-3.2-1.9-6.6-3.7-9.5c-1.6-2.6-3.9-4.9-7.2-4.5c-2.9,0.4-5.5,2.2-6.8,4.8c-0.8,1.5-1,3-1.3,4.6c-0.3,1.6-0.8,3.2-1,4.8
					c-0.2,1.9,0,3.8,0.2,5.7c0.1,1,0.2,1.9,0.3,2.9c0.1,0.9,0.1,1.9,0.7,2.6c1.1,1.5,3.7,0.1,2.6-1.5c-0.5-0.7-0.4-2.6-0.5-3.5
					c-0.1-1.4-0.2-2.9-0.3-4.3c-0.1-2.3,0.7-4.4,1-6.7c0.3-2.3,1.3-4.6,3.4-5.8c0.9-0.5,2.1-0.9,3.1-0.7c1,0.2,1.9,1.1,2.5,1.9
					c1.6,2.1,2.5,4.7,3.3,7.1c0.4,1.2,0.7,2.4,1,3.6c0.3,1.4,0.4,2.6,0.5,4c0.2,2.6,0.2,5.1-0.4,7.6c-0.5,2.1-1.3,4.4-3.2,5.7
					c-2.2,1.6-5.2,0.9-7.2-0.9c-1.8-1.6-3.8-4.5-3.2-7.1C151,41.7,148.1,40.9,147.7,42.8z"/>
			</g>
		</g>
	</g>
	<g>
		<path class="st0" d="M193,42.1c-0.1-1.1-0.2-2.3-0.4-3.4c-0.3-1.6-0.9-3.2-1.7-4.7c-0.1-0.2-0.2-0.3-0.3-0.5
			c-0.1-0.3-0.2-0.6-0.3-1c-0.6-1.8-1.6-3.4-2.8-4.8c-0.5-0.7-1.1-1.3-1.7-1.9c-0.7-0.7-1.5-1.3-2.3-1.9c-1.4-1.1-3.1-1.8-4.7-2.5
			c-0.8-0.3-1.7-0.6-2.5-0.8c-0.3-0.1-0.6-0.1-0.9-0.2c-0.9-0.2-1.8-0.3-2.7-0.3c-0.1,0-0.1-0.1-0.2-0.1c-0.1,0-0.2,0-0.3,0
			c0,0,0,0,0,0c0,0,0,0,0,0c-0.6-0.1-1.3-0.1-1.9-0.1c-0.1,0-0.1,0-0.2,0c-0.5,0-1.1,0-1.6,0.1c0,0-0.1,0-0.1,0
			c-0.4,0-0.7-0.1-1.1-0.1c0,0,0,0,0,0c-0.4,0-0.8,0.1-1.2,0.1c-0.6,0.1-1.2,0.4-1.8,0.6c-0.3,0.1-0.5,0.3-0.8,0.4c0,0,0,0,0,0
			c-1.4,0.6-2.8,1.3-3.9,2.4c-0.3,0.3-0.5,0.6-0.7,0.9c-0.2,0.3-0.4,0.5-0.5,0.8c-0.2,0.4-0.3,0.8-0.4,1.2c-0.1,0.4-0.2,0.8-0.2,1.3
			c0,0.3,0,0.7,0,1c0.1,0.4,0.1,0.9,0.3,1.3c0.1,0.5,0.3,1,0.6,1.5c0,0.1,0.1,0.3,0.1,0.4c0.1,0.4,0.3,0.8,0.5,1.2
			c0.1,0.1,0.1,0.2,0.2,0.3c0,0.1,0.1,0.2,0.1,0.4c0.2,0.6,0.5,1.1,0.9,1.6c0.2,0.2,0.3,0.4,0.5,0.5c0.5,0.7,1.2,1.3,2.1,1.4
			c0.3,0,0.5,0.1,0.8,0.1c0.3,0,0.6-0.1,0.9-0.1c0.1,0,0.3,0,0.4-0.1c0.3,0,0.5,0,0.8-0.1c0.6-0.1,1.1-0.2,1.6-0.3
			c0.6-0.2,1.1-0.4,1.7-0.6c0.9-0.4,1.8-1,2.6-1.8c0.1-0.1,0.3-0.3,0.4-0.4c0.2-0.1,0.4-0.2,0.7-0.3c0.4-0.1,0.7-0.2,1.1-0.3
			c0.2,0,0.5,0,0.7,0c0.2,0,0.4,0.1,0.6,0.2c0.1,0.1,0.3,0.1,0.4,0.2c0.1,0,0.1,0.1,0.2,0.1c0.3,0.2,0.5,0.5,0.7,0.7
			c0.4,0.5,0.7,1,0.9,1.6c0.4,1.1,0.7,2.3,0.9,3.5c0.2,1.5,0.2,3.1,0,4.6c-0.1,0.8-0.3,1.7-0.6,2.5c0,0.1-0.1,0.2-0.1,0.3
			c-0.1,0.3,0,1.6,0.1,1.8c0.4,0.7,0.9,1.3,1.4,1.9c0.3,0.4,0.7,0.7,1,1.1c0.4,0.4,0.9,0.7,1.3,1c0.7,0.5,1.6,0.8,2.5,1
			c0.7,0.2,1.5,0.2,2.2,0.1c0.4,0,0.7-0.1,1.1-0.2c0.4-0.1,0.7-0.2,1.1-0.4c0.6-0.3,1.1-0.6,1.6-1.1c0.5-0.4,0.9-1,1.3-1.5
			c0.3-0.5,0.6-1.1,0.9-1.6c0.3-0.7,0.5-1.3,0.7-2c0.1-0.4,0.2-0.8,0.3-1.3C193.1,44.6,193.1,43.4,193,42.1z"/>
		<g>
			<path class="st1" d="M194.5,42.1c-0.1-1.5-0.3-3-0.7-4.5c-0.4-1.6-1.1-3-1.7-4.4c-0.5-1.2-0.9-2.5-1.5-3.6
				c-0.7-1.3-1.6-2.5-2.6-3.7c-1.9-2.2-4.4-4.1-7.1-5.3c-2.9-1.3-5.7-1.8-8.9-2.2c0.5,0.5,1,1,1.5,1.5c0,0,0,0,0,0
				c0-0.9-0.7-1.4-1.5-1.5c-1.3-0.1-2.6,0-3.9-0.1c-1.5-0.1-2.7,0-4.1,0.6c-2.6,1.1-5.5,2.5-7,5.1c-1.7,3-0.8,6.2,0.5,9.2
				c1.2,2.6,2.8,5.4,6,5.5c3.1,0,6.4-1,8.7-3.1c1-0.9,2-1.4,2.9-0.1c1,1.4,1.4,3.3,1.5,5c0.1,1.7,0.1,3.4-0.4,5
				c-0.3,1.2-0.6,2.2-0.3,3.5c0.3,1.2,1.3,2.3,2.1,3.1c1.1,1.2,2.4,2.3,3.9,2.8c3.4,1.3,7.2,0.4,9.5-2.4
				C194.1,49.5,194.7,45.8,194.5,42.1c-0.1-1.9-3.1-1.9-3,0c0.2,2.9-0.1,5.8-1.9,8.2c-1.7,2.2-4.6,2.7-7,1.4c-1.1-0.6-2-1.6-2.8-2.6
				c-0.6-0.8-0.8-1.4-0.6-2.1c0.7-2.8,1-5.5,0.5-8.4c-0.4-2.4-1.3-5.3-3.6-6.5c-1.1-0.6-2.3-0.6-3.4-0.2c-1.3,0.4-1.9,1.3-3,2.1
				c-1,0.7-2.2,1.2-3.5,1.4c-1.2,0.2-2.9,0.7-3.9-0.3c-0.9-0.9-1.3-1.9-1.8-3c-0.6-1.2-1.2-2.7-1.3-4.1c-0.2-3.3,2.9-4.7,5.4-6
				c1.1-0.6,2.1-0.8,3.4-0.7c1.4,0.1,2.8,0,4.2,0.1c-0.5-0.5-1-1-1.5-1.5c0,0,0,0,0,0c0,0.9,0.7,1.4,1.5,1.5
				c2.6,0.3,5.1,0.8,7.6,1.9c2.4,1.1,4.5,2.7,6.2,4.7c0.8,0.9,1.5,2,2.1,3c0.6,1,0.8,2.2,1.3,3.2c1.2,2.5,1.9,5,2.1,7.8
				C191.6,44,194.6,44,194.5,42.1z"/>
		</g>
	</g>
</g>
</svg>
