<?xml version="1.0" encoding="utf-8"?>
<!-- Generator: Adobe Illustrator 23.0.3, SVG Export Plug-In . SVG Version: 6.00 Build 0)  -->
<svg version="1.1" id="Layer_1" xmlns="http://www.w3.org/2000/svg" xmlns:xlink="http://www.w3.org/1999/xlink" x="0px" y="0px"
	 viewBox="0 0 184.1 583.9" style="enable-background:new 0 0 184.1 583.9;" xml:space="preserve">
<style type="text/css">
	.st0{fill:#FFFFFF;}
	.st1{fill:#2C2C2C;}
</style>
<g>
	<g id="XMLID_23951_">
		<g id="XMLID_36527_">
			<g id="XMLID_36534_">
				<path class="st0" d="M41.7,518.5c0,0,148.7-18.5,126.8,34.1C146.7,605.3-63.6,562.8,41.7,518.5z"/>
				<g>
					<path class="st1" d="M41.7,520c19.9-2.5,40.2-3.5,60.2-3.1c14.7,0.3,29.9,1.2,44.1,5.2c9.3,2.6,21.7,7.6,23.1,18.7
						c1.4,10.8-6.5,20-15.4,25c-11.2,6.2-24.5,8.4-37.1,9.3c-27.6,2.1-58.4-1.1-83.8-12.6c-7-3.1-17.3-8.3-18.9-16.7
						c-1.9-9.8,10.3-16.9,17.3-20.7c3.6-2,7.3-3.7,11.1-5.3c1.8-0.8,0.2-3.3-1.5-2.6c-10.2,4.3-25.4,10.7-29.3,22.3
						c-2.8,8.2,3.1,15.2,9.4,19.7c10.4,7.4,23.4,11.2,35.6,14.1c15.3,3.5,31.2,5.3,46.9,5.3c14.4,0,29.3-1.3,42.9-6.2
						c10.1-3.7,20-9.8,23.9-20.2c10.9-28.7-29-35.3-48.4-37.1c-25.9-2.4-52.9-1.5-78.8,1.9c-0.5,0.1-1,0.1-1.5,0.2
						C39.8,517.2,39.8,520.2,41.7,520z"/>
				</g>
			</g>
			<g id="XMLID_36533_">
				<path class="st0" d="M39.6,518.5c0,0,148.7-18.5,126.8,34.1C144.5,605.3-65.7,562.8,39.6,518.5z"/>
				<g>
					<path class="st1" d="M39.6,520c19.9-2.5,40.2-3.5,60.2-3.1c14.7,0.3,29.9,1.2,44.1,5.2c9.3,2.6,21.7,7.6,23.1,18.7
						c1.4,10.8-6.5,20-15.4,25c-11.2,6.2-24.5,8.4-37.1,9.3c-27.6,2.1-58.4-1.1-83.8-12.6c-7-3.1-17.3-8.3-18.9-16.7
						c-1.9-9.8,10.3-16.9,17.3-20.7c3.6-2,7.3-3.7,11.1-5.3c1.8-0.8,0.2-3.3-1.5-2.6c-10.2,4.3-25.4,10.7-29.3,22.3
						c-2.8,8.2,3.1,15.2,9.4,19.7c10.4,7.4,23.4,11.2,35.6,14.1c15.3,3.5,31.2,5.3,46.9,5.3c14.4,0,29.3-1.3,42.9-6.2
						c10.1-3.7,20-9.8,23.9-20.2c10.9-28.7-29-35.3-48.4-37.1c-25.9-2.4-52.9-1.5-78.8,1.9c-0.5,0.1-1,0.1-1.5,0.2
						C37.7,517.2,37.7,520.2,39.6,520z"/>
				</g>
			</g>
			<g id="XMLID_36529_">
				<g id="XMLID_36532_">
					<path class="st0" d="M94.8,505.9c0,0-54.4,12.6-16.4,52.2C116.3,597.7,143.7,510.9,94.8,505.9z"/>
					<g>
						<path class="st1" d="M94.4,504.4c-8.5,2-17.3,6.1-23.6,12.1c-12.9,12.4-6,28.7,4.4,40.3c8.6,9.7,22,18.1,34.2,9.1
							c9.7-7.1,13.8-20.7,13.1-32.2c-0.9-16.1-11.7-27.5-27.7-29.4c-1.9-0.2-1.9,2.8,0,3c13.1,1.5,22.6,10.4,24.4,23.5
							c1.5,10.5-1.4,22.8-9,30.5c-9.3,9.4-21.2,5.1-29.6-3.1c-10.5-10.3-20.6-26.7-7.9-39.3c5.9-5.9,14.5-9.7,22.6-11.6
							C97.1,506.9,96.3,504,94.4,504.4z"/>
					</g>
				</g>
				<g id="XMLID_36531_">
					<path class="st0" d="M80.5,504.6c0,0,13.5,24.4,27.4,0.4C121.4,481.4,75.9,480.2,80.5,504.6z"/>
					<g>
						<path class="st1" d="M79.2,505.4c2.6,4.6,6.8,9.5,12,11.1c9.3,3,17-6.8,19.8-14.5c5-14.1-11.9-19.5-22.5-14.9
							c-7.4,3.2-10.7,10.2-9.4,18c0.3,1.9,3.2,1.1,2.9-0.8c-1.2-7.4,2.8-13.3,10-15.2c5.1-1.4,12.9-1,15.9,4.1
							c4.4,7.3-5.4,20.9-13,21c-5.7,0.1-10.5-5.7-13.1-10.2C80.8,502.2,78.3,503.7,79.2,505.4z"/>
					</g>
				</g>
				<g id="XMLID_36530_">
					<path class="st0" d="M83.4,478.1c0,0-13.5,24.4,13.9,23.6S101.6,461.2,83.4,478.1z"/>
					<g>
						<path class="st1" d="M82.2,477.3c-2.1,3.8-3.5,8.3-3.5,12.6c0,7.6,5.4,12,12.6,13c7.1,1,17.6,0.2,19.8-8.2
							c1.7-6.5-2.1-13.6-6.9-17.8c-6.7-5.8-15.2-5.7-21.8,0.1c-1.4,1.3,0.7,3.4,2.1,2.1c14.7-13.1,33.1,14.7,18.3,20.1
							c-7.3,2.7-20.6,1.3-21.2-8.4c-0.3-4,1.2-8.4,3.1-12C85.7,477.1,83.1,475.6,82.2,477.3z"/>
					</g>
				</g>
			</g>
			<g id="XMLID_36528_">
				<path class="st0" d="M84.3,4c0,0,8.4-54.8,10.5,339.2S80.5,283,84.3,4z"/>
				<g>
					<path class="st1" d="M85.7,4.4C85.8,4,85.9,3.6,86,3.2c0.3-1.3,0.4-0.3-0.3-0.3c-1.2,0-1-0.5-1.1-0.1c0.1-0.3,0.3,1,0.4,1.6
						c0.7,3.2,1,6.2,1.3,9.5c1.7,17.9,2.3,35.9,2.9,53.9c1.4,40.6,2.1,81.1,2.7,121.7c0.9,66.7,1.4,133.4,1.6,200.2
						c0.1,33.9,1.1,68.1-1.1,101.9c-0.1,1.2-0.2,2.3-0.3,3.5c0,0.5-0.1,1.2-0.2,1.1c-0.2-0.1,2.6-0.3,2.4,0.2
						c0.1-0.1-0.2-0.6-0.2-0.8c0.1-0.8-0.3-1.9-0.4-2.6c-1-8.6-1.3-17.4-1.7-26.1c-1.7-36-2.7-72.1-3.6-108.1
						c-1.2-51.1-2.1-102.3-2.7-153.4c-0.6-54.5-0.8-109-0.4-163.6c0.1-12.6,0.2-25.2,0.4-37.7c0-1.9-3-1.9-3,0
						c-0.8,55.8-0.7,111.6-0.3,167.5c0.4,54.6,1.2,109.1,2.4,163.7c0.9,40.5,1.9,80.9,3.6,121.3c0.5,10.8,0.9,21.7,1.8,32.5
						c0.1,1.1,0.6,13.1,4.1,8.8c0.9-1.1,0.7-3.8,0.8-5.1c0.3-4.2,0.4-8.4,0.5-12.5c0.5-16.9,0.5-33.9,0.6-50.8
						c0.2-67.3-0.3-134.6-1.1-201.8c-0.5-47.9-1.2-95.7-2.6-143.6c-0.7-21.8-1.3-43.7-3.1-65.5c-0.4-4.3-0.7-8.6-1.4-12.9
						c-0.2-1.4-0.4-3.8-1.4-4.8c-2-2-3.8,0.4-3.9,2.5c0,0.1,0,0.3-0.1,0.4C82.6,5.5,85.4,6.3,85.7,4.4z"/>
				</g>
			</g>
			<g>
				<g>
					<path class="st0" d="M35,509.7c0,0,135.7-18.5,147.1,24c1.3-27.4-64-136.9-123.5-84.3C7.2,495.3,2.1,529.9,1.7,538.7
						C3,529.9,13.1,519.8,35,509.7z"/>
					<g>
						<path class="st1" d="M35.4,511.1c3-0.4,9.3-1.1,13.3-1.5c10.5-1,20.9-1.7,31.4-2.1c25.2-1,52.3-1.2,76.5,6.8
							c9.9,3.3,20.9,8.9,24,19.8c0.5,1.6,2.9,1.3,2.9-0.4c0.5-14.2-8.3-29.6-15.3-41.3c-10.3-17.4-23.5-33.9-40.1-45.7
							c-15.2-10.8-34.2-16.7-52.2-9.8c-12.2,4.7-21.7,14.1-30.7,23.2c-10.3,10.3-19.8,21.5-27.7,33.7C8.9,507,1,522.7,0.2,538.7
							c-0.1,1.7,2.7,2.1,2.9,0.4c2.4-14.3,21.1-22.8,32.6-28.2c1.7-0.8,0.2-3.4-1.5-2.6c-12.2,5.7-31.4,14.8-34,30
							c1,0.1,2,0.3,2.9,0.4c0.6-12.3,5.9-24.5,11.8-35.1c6.1-11,13.6-21.1,21.9-30.4c9.5-10.8,20.1-22.7,32.7-30
							c37.2-21.6,74,16.1,92.6,45.1c5.3,8.2,10,16.9,13.6,26c2.4,6,4.9,12.8,4.7,19.4c1-0.1,2-0.3,2.9-0.4
							c-6-21.1-35.5-25.4-53.7-27.5c-25.7-2.9-51.9-1.8-77.6,0.5c-5.9,0.5-11.8,1.1-17.6,1.9C32.7,508.5,33.5,511.4,35.4,511.1z"/>
					</g>
				</g>
				<g>
					<path class="st0" d="M182,533.7c-11.4-42.6-147.1-24-147.1-24c-21.9,10.1-32,20.2-33.3,29.1c-6.7,41.3,157.6,67,178.2,13.1
						C182.9,545.1,183.3,538.7,182,533.7z M166.9,552.6c-17.7,41.7-156.3,21.9-152.1-10.1c0.8-7.2,9.3-15.2,28.7-23.2
						c0,0,128.1-16,126,24.4C168.6,546.3,168.1,549.3,166.9,552.6z"/>
					<g>
						<path class="st1" d="M183.5,533.3c-3.3-11.8-14.8-18.1-25.7-21.8c-15.5-5.2-32.3-6.6-48.6-7.2c-16.2-0.6-32.5,0-48.7,1.3
							c-8.2,0.6-17.2,0.7-25.2,2.5c-3.7,0.9-7.4,3.3-10.8,5.2c-5.1,2.8-10.1,6-14.5,9.9c-5.2,4.6-9.9,10.6-10,17.9
							c-0.1,9.9,8.4,17.2,16.1,22.1c12.5,7.9,27.1,12.4,41.4,15.5c16.9,3.7,34.4,5.5,51.8,5.2c25.4-0.5,61.8-5.2,72.4-32.5
							C184,545.5,184.8,539.5,183.5,533.3c-0.4-1.9-3.3-1.1-2.9,0.8c3.5,16.1-8,29.8-21.3,36.6c-12.9,6.6-27.9,9-42.2,9.9
							c-30,1.9-63-2.2-90.4-15C18,561.4,7,555.4,3.8,545.8c-1.7-5.1-0.3-10.2,2.8-14.5c3-4.2,7.2-7.6,11.5-10.5
							c5.1-3.5,11.4-8,17.3-9.6c4.6-1.3,13.4-1.5,19.2-2c14.2-1.2,28.5-2,42.8-1.9c17.4,0,35.1,0.8,52,5c12.1,3,27.5,8.5,31.3,21.9
							C181.1,535.9,184,535.1,183.5,533.3z"/>
						<path class="st1" d="M165.6,551.9c-4.3,9.7-14.3,14.9-24,18c-12.5,3.9-25.9,5-38.9,5c-14.3-0.1-28.6-1.6-42.5-4.7
							c-11.4-2.5-23.1-5.9-33.1-12.1c-6.4-4-13.7-10.7-9.8-18.9c4.1-8.3,14.6-13,22.5-16.6c3.1-1.4,4.3-1.8,7.4-2.1
							c21.3-2.3,42.8-3.4,64.2-2.3c13.5,0.7,27.8,1.9,40.5,6.9c4.7,1.9,9.6,4.5,12.8,8.6c4.6,5.9,3,12,0.7,18.7
							c-0.6,1.8,2.3,2.6,2.9,0.8c2.1-6.2,3.8-12,0.8-18.1c-1.9-3.9-5.2-6.8-8.8-9.1c-10.1-6.4-22.9-8.3-34.6-9.6
							c-25.2-2.8-51-1.6-76.1,1c-10.9,1.1-21.2,6.4-29.4,13.8c-7.5,6.8-9.4,15.8-2.4,23.5c7.3,8,18.7,12.1,28.7,15.2
							c14.1,4.4,28.8,6.7,43.5,7.7c16.3,1.1,33.2,0.6,49.1-3.7c11.4-3.1,23.9-8.8,29-20.3C168.9,551.6,166.4,550.1,165.6,551.9z"/>
					</g>
				</g>
			</g>
		</g>
	</g>
</g>
</svg>
