<?xml version="1.0" encoding="utf-8"?>
<!-- Generator: Adobe Illustrator 23.0.3, SVG Export Plug-In . SVG Version: 6.00 Build 0)  -->
<svg version="1.1" id="Layer_1" xmlns="http://www.w3.org/2000/svg" xmlns:xlink="http://www.w3.org/1999/xlink" x="0px" y="0px"
	 viewBox="0 0 52.2 52.1" style="enable-background:new 0 0 52.2 52.1;" xml:space="preserve">
<style type="text/css">
	.st0{fill:#FFFFFF;}
	.st1{fill:#2C2C2C;}
</style>
<g>
	<g>
		<path class="st0" d="M50.2,46.7c0.3-0.9,0.2-4.1,0.1-4.9c-0.3-1.9-3.7-4-9.3-4.5c-14.8,0.1-28.6,0.2-31.1,0.4
			c-0.7,0-2.7,0.5-3.8,0.9c-1.5,0.6-3.5,1.6-4,2.6c-0.1,0.1-0.2,4.3-0.1,4.5c-0.2,1.3,2,2.7,10.1,3.6c0.9,0.1,2.9,0.2,5.9,0.2
			c13.5-0.1,24.6-0.2,25.3-0.2C47.5,49.2,49.8,48.1,50.2,46.7z"/>
		<g>
			<path class="st1" d="M51.6,47.1c0.7-4.3,0.3-7.6-3.9-9.6c-6.7-3.3-15.9-1.6-23.2-1.5C19,36,1.1,33.7,0.4,42.5
				c-0.2,2.9-0.3,4.9,2.5,6.3c5.1,2.6,12.3,2.1,17.8,2.1c6.9,0,13.8-0.1,20.6-0.2c3.4-0.1,8.4,0.2,10.2-3.3c0.9-1.7-1.7-3.2-2.6-1.5
				c-1.3,2.5-6.7,1.8-9.2,1.8c-4.3,0-8.5,0.1-12.8,0.1c-4.9,0-9.8,0.3-14.6-0.1c-2.6-0.2-8-0.3-8.9-3C1,37.9,15.9,39,19.3,39
				c5.3-0.1,10.6-0.1,15.9-0.1c5.6,0,14.9-0.6,13.5,7.4C48.4,48.2,51.3,49,51.6,47.1z"/>
		</g>
	</g>
</g>
<g>
	<g>
		<path class="st0" d="M2,22.7c-0.3,0.9-0.2,4.1-0.1,4.9c0.3,1.9,3.7,4,9.3,4.5c14.8-0.1,28.6-0.2,31.1-0.4c0.7,0,2.7-0.5,3.8-0.9
			c1.5-0.6,3.5-1.6,4-2.6c0.1-0.1,0.2-4.3,0.1-4.5c0.2-1.3-2-2.7-10.1-3.6c-0.9-0.1-2.9-0.2-5.9-0.2c-13.5,0.1-24.6,0.2-25.3,0.2
			C4.7,20.3,2.4,21.4,2,22.7z"/>
		<g>
			<path class="st1" d="M0.6,22.3C-0.2,26.6,0.3,30,4.4,32c6.7,3.3,15.9,1.6,23.2,1.5c5.6,0,23.5,2.2,24.2-6.6
				c0.2-2.9,0.3-4.9-2.5-6.3c-5.1-2.6-12.3-2.1-17.8-2.1c-6.9,0-13.8,0.1-20.6,0.2C7.5,18.7,2.6,18.5,0.7,22
				c-0.9,1.7,1.7,3.2,2.6,1.5c1.3-2.5,6.7-1.8,9.2-1.8c4.3,0,8.5-0.1,12.8-0.1c4.9,0,9.8-0.3,14.6,0.1c2.6,0.2,8,0.3,8.9,3
				c2.3,6.8-12.6,5.7-16,5.8c-5.3,0.1-10.6,0.1-15.9,0.1c-5.6,0-14.9,0.6-13.5-7.4C3.8,21.2,0.9,20.4,0.6,22.3z"/>
		</g>
	</g>
</g>
<g>
	<g>
		<path class="st0" d="M50.2,5.4c0.3,0.9,0.2,4.1,0.1,4.9c-0.3,1.9-3.7,4-9.3,4.5c-14.8-0.1-28.6-0.2-31.1-0.4
			c-0.7,0-2.7-0.5-3.8-0.9c-1.5-0.6-3.5-1.6-4-2.6c-0.1-0.1-0.2-4.3-0.1-4.5c-0.2-1.3,2-2.7,10.1-3.6c0.9-0.1,2.9-0.2,5.9-0.2
			C31.3,2.7,42.4,2.8,43,2.9C47.5,2.9,49.8,4,50.2,5.4z"/>
		<g>
			<path class="st1" d="M48.7,5.8c1.3,7.6-7.1,7.5-12.6,7.5c-5.4,0-10.8-0.1-16.1-0.1c-3.6,0-18.8,1.2-16.7-5.8
				c1.5-5,18.5-3.2,22.7-3.1c4.4,0,8.8,0.1,13.2,0.1c2.6,0,8.3-0.7,9.7,1.8c0.9,1.7,3.5,0.2,2.6-1.5c-1.8-3.4-6.5-3.2-9.9-3.3
				c-6.7-0.1-13.4-0.1-20-0.2c-5.8,0-13.2-0.6-18.6,2C0.1,4.6,0.1,6.5,0.4,9.6c0.7,8.7,17.9,6.6,23.4,6.6c7.4,0.1,16.9,1.8,23.8-1.5
				c4.3-2,4.8-5.3,4.1-9.7C51.3,3.1,48.4,3.9,48.7,5.8z"/>
		</g>
	</g>
</g>
</svg>
