<?xml version="1.0" encoding="utf-8"?>
<!-- Generator: Adobe Illustrator 23.1.1, SVG Export Plug-In . SVG Version: 6.00 Build 0)  -->
<svg version="1.1" id="Layer_1" xmlns="http://www.w3.org/2000/svg" xmlns:xlink="http://www.w3.org/1999/xlink" x="0px" y="0px"
	 viewBox="0 0 48.2 53" style="enable-background:new 0 0 48.2 53;" xml:space="preserve">
<style type="text/css">
	.st0{fill:#2C2C2C;}
</style>
<g id="XMLID_37490_">
	<g id="XMLID_37491_">
		<path class="st0" d="M30.8,8.1c0,0,33.4,15.3,3.4,33.3S2.2,50,1.5,38.1s21.4-7,7.9-17.8S10.7-8.2,30.8,8.1z"/>
		<g>
			<path class="st0" d="M30.1,9.4c2.4,1.1,4.7,2.5,6.8,4.1c3.5,2.6,7.1,6,8.1,10.4c1.5,6.3-4.3,11.5-9,14.6
				c-4.1,2.8-8.6,5.3-13.2,7.4c-3.1,1.5-6.2,2.8-9.6,3.6c-1.9,0.4-4,0.7-5.7,0.1c-1.2-0.4-2.1-1.1-2.8-2.2c-0.5-0.8-0.6-1-0.8-1.9
				c-0.3-0.8-0.4-1.7-0.6-2.6c-0.3-1.6-0.5-3.8-0.5-5.6c0.1-4.5,4.9-6,8.3-7.5c1.5-0.7,3.3-1.5,3.8-3.2c0.7-2.1-1-4.1-2.5-5.5
				c-2.3-2.3-5.1-4-6.4-7.1c-0.9-2.3-0.9-4.8,0.4-7C9.9,1.3,18,2.5,23,5c2.3,1.1,4.4,2.5,6.4,4.1c1.5,1.2,3.6-0.9,2.1-2.1
				C25.2,2,16-2.6,8.1,1.5c-5.7,3-7.3,9.8-4.2,15.2c0.9,1.5,2.1,2.9,3.4,4.1c1.3,1.1,2.7,2.2,3.8,3.5c0.2,0.3,0.6,0.8,0.6,1
				c0-0.1,0.1,0.3,0.1,0.4c-0.1-0.3,0,0.3,0,0c0,0.4,0,0,0,0.1c-0.2,0.4,0.1-0.1-0.1,0.1c-0.1,0.1-0.2,0.2-0.4,0.3
				c0.3-0.2-0.3,0.2-0.4,0.2C7.8,28.8,2.8,29.5,0.7,34c-1,2.3-0.8,4.9-0.5,7.4c0.2,1.9,0.5,3.9,1.2,5.8c1.4,3.8,4.5,6,8.6,5.9
				c2.9,0,5.7-0.9,8.4-1.9c4.3-1.6,8.5-3.7,12.5-6c6.7-3.8,15.8-8.9,17.2-17.3c1.5-9.6-8.3-16.9-15.8-20.7C32,7.1,31.8,7,31.6,6.9
				C29.8,6.1,28.3,8.6,30.1,9.4z"/>
		</g>
	</g>
</g>
</svg>
