<?xml version="1.0" encoding="utf-8"?>
<!-- Generator: Adobe Illustrator 23.1.1, SVG Export Plug-In . SVG Version: 6.00 Build 0)  -->
<svg version="1.1" id="Layer_1" xmlns="http://www.w3.org/2000/svg" xmlns:xlink="http://www.w3.org/1999/xlink" x="0px" y="0px"
	 viewBox="0 0 215 60.9" style="enable-background:new 0 0 215 60.9;" xml:space="preserve">
<style type="text/css">
	.st0{fill:#FFFFFF;}
	.st1{fill:#2C2C2C;}
</style>
<g>
	<path class="st0" d="M19.7,44.3c0-0.4-0.1-0.8-0.2-1.2c-0.1-1.2-0.1-2.5-0.3-3.7c-0.2-3.1-0.8-6.1-1.2-9.2
		c-0.1-0.6-0.2-1.2-0.3-1.9c-0.1-1.7-0.2-3.4-0.5-5.2c0-0.2,0-0.3,0-0.5c0-1.9,0.2-3.7,0.1-5.6c0-0.9-0.3-1.8-0.6-2.7
		s-0.9-1.7-1.5-2.2c-0.3-0.3-0.7-0.6-1.1-0.8c-0.4-0.3-0.9-0.5-1.4-0.6c-0.8-0.3-1.8-0.4-2.8-0.5c-0.1,0-0.2,0-0.2,0
		c-0.3,0-0.6,0-0.9,0.1l0,0c-0.2-0.1-0.4-0.1-0.7-0.1l0,0c-0.2,0-0.5,0-0.7,0.1c-0.2,0-0.3,0-0.5,0.1c-0.2,0-0.3,0.1-0.5,0.2
		c-0.2,0-0.5,0.2-0.8,0.3c-0.4,0.2-0.7,0.4-1,0.7c-0.5,0.3-0.9,0.7-1.3,1.2c-0.4,0.3-0.7,0.7-0.9,1.2c-0.3,0.4-0.5,0.8-0.6,1.3
		c-0.1,0.3-0.2,0.6-0.3,1c-0.1,0.5-0.1,1-0.1,1.5c-0.1,0.9,0,1.9,0.1,2.8c0.1,0.8,0.3,1.6,0.4,2.3c-0.1,1.1-0.1,2.2-0.2,3.4
		c0,0.6,0,1.3,0,1.9c-0.1,0.9,0,1.9,0,2.8c0,0.1,0,0.3-0.1,0.4c-0.2,1.9-0.3,3.8-0.2,5.7c0.1,3.7,0.4,7.4,1.2,11.1
		c0,0.2,0.1,0.3,0.2,0.4c0,0,0,0,0,0.1c-0.2,0.7,0,1.5,0.1,2.2c0.1,0.9,0.6,1.8,1,2.6c0.6,1,1.3,1.8,1.9,2.5c0.3,0.4,0.7,0.7,1,1.1
		c0.4,0.4,0.9,0.7,1.3,0.9c0.7,0.5,1.6,0.7,2.5,0.9c0.7,0.2,1.5,0.1,2.2,0c0.4,0,0.7-0.1,1.1-0.2c0.4-0.1,0.7-0.2,1.1-0.4
		c0.6-0.3,1.1-0.6,1.6-1.2c0.5-0.4,0.9-1,1.2-1.6c0.3-0.5,0.6-1.1,0.8-1.6c0.3-0.7,0.4-1.3,0.6-2c0.3-1.3,0.5-2.7,0.5-4.1
		C20,46.8,19.9,45.6,19.7,44.3z"/>
	<g>
		<path class="st1" d="M21.2,44.3c-1.1-7.5-2.6-15.8-2.3-23.3c0.2-5.6-0.9-10.9-7.2-11.9C8.9,8.6,6.1,9,3.8,10.7
			c-5.2,3.9-3.5,9.6-3.4,15.3c0,7.4-0.9,15,0.8,22.3c0.5,2.2,0.2,0.2,0.3,1c0.1,1.1,0,2.2,0.3,3.3c0.8,2.6,2.6,5,4.8,6.5
			c3.3,2.4,7.7,2.6,10.8-0.2C21.3,55.4,21.7,49.1,21.2,44.3c-0.2-1.9-3.2-1.8-3,0.1c0.3,3.7,0.4,9.3-2.7,12.1s-7.3,0.8-9.4-2.1
			c-1.3-1.7-1.3-3.5-1.6-5.4c-1.8-8.4-0.9-16.4-1.1-24.9c-0.2-4.3-1.7-10.3,3.9-12.1c3.8-1.2,8,1.3,8.5,5.2c0.3,2-0.2,4.1-0.1,6.1
			c0.1,2.3,0.5,4.7,0.8,7c0.6,4.7,0.9,9.4,1.6,13.9C18.5,46.3,21.5,46.2,21.2,44.3z"/>
	</g>
</g>
<g>
	<g>
		<path class="st0" d="M99,47.5c0-0.1,0-0.2-0.1-0.3c-0.1-1.1-0.6-2-1.2-2.6l0,0c-0.1-0.3-0.3-0.6-0.5-0.9c0.2-1.4,0.2-2.8,0-4.2
			c0-0.4-0.1-0.8-0.3-1.3c0-0.4,0-0.8-0.1-1.1c-0.2-1.2-0.5-2.4-1-3.5c-0.3-0.6-0.6-1.2-1-1.8c-0.4-0.6-0.9-1.2-1.4-1.6
			c-0.8-1-2-1.8-3.1-2.6c-1.1-0.8-2.4-1.2-3.6-1.5c-0.5-0.2-1.1-0.3-1.7-0.2c-0.8-0.1-1.5-0.1-2.3-0.1l-0.1,0
			c-1.3,0.1-2.7,0.3-4,0.6c-2.3,0.4-4.4,1.3-6.3,2.8c-0.3,0.2-0.7,0.5-1,0.8c-0.1,0.1-0.2,0.2-0.4,0.3c-0.4,0.4-0.8,0.8-1.1,1.3
			c-0.4,0.5-0.9,1.1-1.1,1.8c-0.6,1-1,2.1-1.5,3.3c-0.5,1.4-0.7,3-0.8,4.5c0,1.4,0.1,2.9,0.5,4.3c0.4,1.4,0.9,2.7,1.7,3.8
			c0.3,0.5,0.6,1.1,1.1,1.6c0.5,0.6,1,1.2,1.6,1.7c0.5,0.5,1.1,1,1.8,1.3c0.5,0.4,1.1,0.8,1.7,1c0.6,0.4,1.3,0.6,2,0.8
			c0.6,0.3,1.3,0.3,2,0.5c3.2,0.6,6.6-0.1,9.5-1.5c0.7,0.4,1.4,0.6,2.3,0.7l0,0c0.1,0,0.1,0.1,0.2,0.1c0.4,0.2,0.9,0.3,1.4,0.3
			c0.5,0.1,1,0.1,1.5-0.1c0.5-0.1,1-0.2,1.5-0.6c0.3-0.2,0.6-0.3,0.9-0.6c0.1-0.1,0.2-0.1,0.3-0.2l0,0c0.2-0.1,0.3-0.3,0.5-0.4
			c0.2-0.1,0.3-0.3,0.3-0.5c0.2-0.3,0.5-0.7,0.7-1c0.5-0.8,0.6-1.7,0.8-2.5C99.1,49,99.1,48.2,99,47.5z"/>
		<g>
			<path class="st1" d="M100.4,47c-0.4-1.9-1.3-3.1-1.6-4.8c-0.5-3.1-0.3-6.1-1.5-9c-1.8-4-5.7-7.5-10.1-8.5
				c-10.6-2.5-21.1,4.8-21.8,15.7c-0.7,10.5,8.6,19.1,19.1,17.3c1.5-0.3,3.1-1.1,4.7-1.1c0.4,0,2.8,0.6,1.4,0.3
				c2.2,0.5,3.7,0.9,5.9-0.3c3.1-1.7,4.5-5.7,4.2-9.1c-0.2-1.9-3.2-1.8-3,0.1c0.4,4.5-1.9,7.3-6.6,6.3c-1-0.3-1.5-0.6-2.5-0.7
				c-1.8,0-4.1,1.5-6.1,1.7c-10.5,0.5-16.8-10.3-12.9-19.4c3.4-8.2,15.3-11.2,22.1-5.2c3,2.7,4,6.5,4.2,10.5
				c0.1,1.7-0.2,2.2,0.2,3.6c0.4,1.2,1.4,2.1,1.7,3.5C98,49.8,100.8,48.9,100.4,47z"/>
		</g>
	</g>
	<g>
		<path class="st0" d="M81,45c0.2,0,0.3-0.1,0.5-0.2c0.2,0,0.4,0,0.6-0.1l0.1,0c0.1,0,0.2,0,0.2,0c0.2,0,0.4,0,0.6,0
			c0.1,0,0.1,0,0.2,0l0,0c0.1,0,0.3,0,0.4,0c0.1,0,0.2-0.1,0.3-0.1s0.1-0.1,0.2-0.1c0,0,0,0,0.1-0.1c0.1,0,0.1,0,0.2,0
			s0.2-0.1,0.3-0.1c0.1-0.1,0.2-0.2,0.4-0.3c0.1-0.1,0.1-0.2,0.2-0.2c0.1-0.1,0.2-0.3,0.3-0.5c0.1-0.2,0.2-0.4,0.2-0.6
			c0.1-0.2,0.1-0.4,0.2-0.5c0-0.2,0.1-0.4,0.1-0.6s0-0.4,0-0.6c0-0.2-0.1-0.4-0.1-0.6c-0.1-0.2-0.1-0.4-0.2-0.6
			c-0.1-0.1-0.1-0.2-0.2-0.3c0-0.1-0.1-0.2-0.2-0.3c-0.1-0.1-0.1-0.1-0.2-0.2c-0.1-0.2-0.2-0.5-0.3-0.7c-0.2-0.3-0.4-0.6-0.7-0.8
			c-0.1-0.1-0.2-0.1-0.3-0.1c-0.1,0-0.2,0-0.3-0.1c-0.1,0-0.2,0-0.3,0c-0.1,0-0.2,0-0.3,0.1c-0.1-0.2-0.2-0.4-0.4-0.6
			c-0.4-0.3-0.9-0.4-1.3,0.1c-0.1,0.1-0.2,0.1-0.2,0.2c-0.1,0.1-0.2,0.2-0.2,0.4l0,0c-0.1,0-0.2,0.1-0.2,0.1l-0.1,0
			c-0.1,0-0.2,0-0.3,0c-0.1,0-0.2,0.1-0.3,0.1c-0.1,0.1-0.3,0.2-0.4,0.3l0,0l0,0C79.2,38,79,38,78.9,38.1s-0.2,0.2-0.3,0.3
			s-0.2,0.2-0.3,0.4c-0.1,0.2-0.2,0.4-0.3,0.6c0,0.1,0,0.2-0.1,0.2l0,0l0,0.1l0,0c0,0.1-0.1,0.3-0.1,0.4c0,0.2-0.1,0.4-0.1,0.7l0,0
			l0,0c0,0.4,0,0.7,0,1.1c0,0.3,0.1,0.7,0.2,1c0.1,0.2,0.2,0.4,0.3,0.6c0.1,0.1,0.1,0.2,0.2,0.4c0.1,0.2,0.2,0.3,0.4,0.4
			c0.1,0.1,0.3,0.3,0.5,0.4c0.2,0.2,0.5,0.2,0.8,0.3c0.1,0,0.2,0,0.3,0C80.6,45.1,80.8,45,81,45L81,45L81,45z"/>
		<g>
			<path class="st1" d="M81.5,46.4c0.7-0.2,0.3-0.1,1-0.2c0.3,0,0.7,0,1-0.1c-0.7-0.1-0.8-0.1-0.4,0c0.9-0.1,1.5-0.2,2.2-0.9
				c-0.4,0.1-0.7,0.3-1.1,0.4c2.8-0.3,3.7-4,2.8-6.2c-0.8-2-2.5-4.3-4.9-3.6c0.6,0.2,1.1,0.5,1.7,0.6c-1.2-1.9-3.8-1.8-4.8,0.2
				c0.3-0.2,0.6-0.5,0.9-0.7c0.5,0.1,0.6,0.1,0.2,0.1c-0.2,0-0.3,0-0.5,0c-0.4,0-0.7,0.1-1,0.3c-0.2,0.1-1.2,1-0.4,0.3
				c-0.3,0.2-0.6,0.4-0.9,0.6c-0.8,0.7-1,1.9-1.2,3c-0.4,2.9,1.3,6.5,4.8,6.2c1.9-0.3,1.8-3.3-0.1-3c-1.7,0.2-2-2.2-1.6-3.4
				c0.1-0.3,0.5-0.5,0.6-0.8c0.1-0.1,0.2-0.2,0.3-0.3c-0.4-0.1-0.5-0.1-0.1,0c0.4-0.1,0.8,0,1.2-0.4c0.9-0.6,0.3-0.3,0.2-0.6
				c0.3,0.6,1.1,0.8,1.7,0.6c0,0,1,1.5,1.1,1.7c0.2,0.6,0.3,1.2,0.1,1.8c0,0.1-0.5,0.9-0.2,0.6c-0.2,0.2-0.8,0.3-1.1,0.4
				c0.2,0,0.3,0,0.5,0c-0.3-0.1-0.5-0.1-0.8,0c-0.6,0-1.4,0.2-2.2,0.4C78.7,44.3,79.6,47.1,81.5,46.4z"/>
		</g>
	</g>
</g>
<g>
	<g>
		<path class="st0" d="M136.7,16c0-0.2-0.1-0.3-0.2-0.4c0,0,0,0,0-0.1c0.2-0.7,0-1.5-0.1-2.2c-0.1-0.9-0.6-1.8-1-2.6
			c-0.5-0.9-1.2-1.7-1.8-2.4c-0.3-0.4-0.7-0.7-1-1.1c-0.4-0.4-0.9-0.7-1.3-0.9c-0.7-0.5-1.6-0.7-2.5-0.9c-0.7-0.2-1.5-0.1-2.2,0
			c-0.4,0-0.7,0.1-1.1,0.2c-0.4,0.1-0.7,0.2-1.1,0.4c-0.6,0.3-1.1,0.6-1.6,1.2c-0.5,0.4-0.9,1-1.2,1.6c-0.3,0.5-0.6,1.1-0.8,1.6
			c-0.3,0.7-0.4,1.3-0.6,2c-0.3,1.3-0.5,2.7-0.5,4.1c0,1.3-0.1,2.5,0.1,3.8c0,0.4,0.1,0.8,0.2,1.2c0.1,1.2,0.1,2.5,0.3,3.7
			c0,1,0.2,2,0.3,3.1c-0.5,0-1,0.1-1.5,0.3c-1.2,0.3-2.3,0.8-3.3,1.3c-0.3,0.1-0.6,0.3-0.9,0.5c-0.5,0.2-0.9,0.4-1.3,0.8
			c-0.7,0.4-1.3,1-1.9,1.5c-1.1,0.9-1.9,2-2.8,3.1c-0.5,0.6-0.8,1.3-1.1,2.1c-0.3,0.4-0.5,0.8-0.6,1.3c-0.5,0.9-0.7,1.8-0.9,2.8
			c-0.1,0.5-0.2,1.1-0.1,1.6c0,0.5,0,1,0.2,1.5c0.1,0.5,0.3,1,0.6,1.4c0.2,0.4,0.4,0.7,0.6,1c0.3,0.4,0.7,0.8,1.2,1.2
			c0.2,0.1,0.3,0.3,0.5,0.4c0.1,0.1,0.1,0.2,0.2,0.4c0.3,0.7,0.9,1.3,1.4,1.9c0.5,0.7,1.3,1.1,1.9,1.6c0.5,0.4,1.1,0.7,1.7,0.9
			c0.7,0.3,1.5,0.5,2.3,0.7s1.6,0.2,2.3,0.3c0.4,0,0.7,0.1,1.1,0.1c0.4,0,0.8,0,1.2-0.2c0.8-0.1,1.6-0.3,2.4-0.5
			c0.7-0.2,1.4-0.5,2-0.8c0.4,0.2,0.8,0.4,1.2,0.5c0.9,0.4,1.9,0.5,2.9,0.5c0.1,0,0.2,0,0.2,0c0.3,0,0.6,0,0.9-0.1l0,0
			c0.2,0.1,0.5,0.1,0.7,0.1l0,0c0.2,0,0.5,0,0.7-0.1c0.1,0,0.3-0.1,0.4-0.1c0.2,0,0.3-0.1,0.5-0.2c0.3-0.1,0.6-0.2,0.9-0.4
			c0.4-0.2,0.7-0.4,1-0.6c0.5-0.3,0.9-0.7,1.3-1.2s0.7-0.8,0.9-1.2s0.5-0.9,0.6-1.3c0.1-0.3,0.2-0.6,0.3-1c0.1-0.5,0.1-1,0.1-1.5
			c0.1-0.9,0-1.9-0.1-2.8c-0.1-0.8-0.3-1.6-0.4-2.3c0.1-1.1,0.1-2.2,0.2-3.4c0-0.6,0-1.3,0-1.9c0.1-0.9,0-1.9,0-2.8
			c0-0.1,0-0.3,0.1-0.4c0.2-1.9,0.3-3.8,0.2-5.7C137.8,23.2,137.5,19.5,136.7,16z"/>
		<g>
			<path class="st1" d="M138,15.1c0,0.1,0.4,1.5,0.1-0.8c-0.1-1.1-0.2-1.8-0.6-2.9c-0.7-1.9-2-3.5-3.3-4.9
				c-2.7-2.6-6.7-3.8-10.2-2.1c-8,4-5.8,16.9-4.9,23.7c0.5-0.5,1-1,1.4-1.6c-7.8,1.1-17.9,9.9-15.6,18.8c0.7,2.9,4.2,6.7,6.6,8.4
				c3.2,2.2,7.4,2.8,11.2,2c6.1-1.3,12.6,2,16.1-5.5c2-4.2,0.4-10.6,0.4-15c0-6.7,0.2-13-1-19.7c-0.4-1.9-3.2-1-2.9,0.9
				c1.7,8.4,0.1,16.5,0.8,24.9c0.3,4,1.1,9.7-3.9,11.2c-2,0.6-3.9-0.6-5.9-0.6c-2.1,0.1-4.1,1.2-6.4,1.2c-4,0.1-7.1-1.5-9.4-4.8
				c-0.2-0.2-0.6-0.7-0.7-0.9c-2.5-4-2.4-6.3-0.1-10.2c2.2-3.8,6.5-7,11-7.7c0.8-0.1,1.6-0.7,1.4-1.6c-0.6-5.6-2.4-13.8,1-18.8
				c3.1-4.5,9.1-2.1,11.2,2.1c0.9,1.8,0.4,3.7,1.3,5.2C136.4,18.4,139,16.8,138,15.1z"/>
		</g>
	</g>
	<g>
		<path class="st0" d="M119.6,39.8c-0.1,0-0.2,0.1-0.4,0.1c-0.1,0-0.3,0-0.4,0.1c0,0,0,0-0.1,0s-0.1,0-0.2,0c-0.1,0-0.3,0-0.4,0
			l-0.1,0l0,0c-0.1,0-0.2,0-0.3,0c-0.1,0-0.2,0.1-0.2,0.1c-0.1,0-0.1,0.1-0.1,0.1l0,0l-0.1,0c-0.1,0-0.2,0.1-0.2,0.1
			c-0.1,0-0.2,0.1-0.3,0.2c-0.1,0-0.1,0.1-0.1,0.2c-0.1,0.1-0.1,0.2-0.2,0.3s-0.1,0.3-0.2,0.4c0,0.1-0.1,0.3-0.1,0.4
			c0,0.1-0.1,0.3-0.1,0.5c0,0.1,0,0.3,0,0.4c0,0.1,0.1,0.3,0.1,0.4c0,0.2,0.1,0.3,0.2,0.4c0,0.1,0.1,0.2,0.1,0.2
			c0,0.1,0.1,0.1,0.1,0.2c0,0.1,0.1,0.1,0.1,0.1c0.1,0.2,0.2,0.3,0.3,0.5s0.3,0.4,0.5,0.5c0.1,0,0.1,0.1,0.2,0.1s0.1,0,0.2,0
			c0.1,0,0.1,0,0.2,0c0.1,0,0.1,0,0.2,0c0.1,0.2,0.2,0.3,0.3,0.4c0.3,0.2,0.7,0.3,1,0c0.1-0.1,0.1-0.1,0.2-0.2
			c0.1-0.1,0.1-0.2,0.2-0.3l0,0c0.1,0,0.1,0,0.2-0.1l0.1,0c0.1,0,0.1,0,0.2,0s0.1-0.1,0.2-0.1c0.1,0,0.2-0.1,0.3-0.2l0,0l0,0
			c0.1,0,0.2-0.1,0.3-0.2c0.1-0.1,0.1-0.1,0.2-0.2c0.1-0.1,0.1-0.2,0.2-0.3c0.1-0.1,0.1-0.3,0.2-0.5c0-0.1,0-0.1,0-0.2l0,0
			c0,0,0,0,0-0.1l0,0c0-0.1,0.1-0.2,0.1-0.3c0-0.2,0.1-0.3,0.1-0.5l0,0l0,0c0-0.3,0-0.5,0-0.8c0-0.2-0.1-0.5-0.1-0.7
			c0-0.1-0.1-0.3-0.2-0.4c0-0.1-0.1-0.2-0.1-0.3c-0.1-0.1-0.2-0.2-0.3-0.3c-0.1-0.1-0.2-0.2-0.3-0.3c-0.2-0.1-0.4-0.2-0.5-0.2
			c-0.1,0-0.2,0-0.2,0C119.8,39.7,119.7,39.7,119.6,39.8L119.6,39.8L119.6,39.8z"/>
		<g>
			<path class="st1" d="M119.2,38.4c-0.5,0.1-0.5,0.1-0.1,0.2c-0.2,0-0.4-0.1-0.6-0.1c-0.3,0-0.6,0-0.8,0.1c0.7,0,0.9,0,0.5,0
				c-0.8,0.1-1.3,0.2-2,0.8c0.4-0.1,0.7-0.3,1.1-0.4c-2.3,0.3-3.2,3.1-2.4,5c0.7,1.7,2.1,3.4,4,2.9c-0.6-0.2-1.1-0.5-1.7-0.6
				c1,1.7,3.4,1.7,4.2-0.2c-0.3,0.2-0.6,0.5-0.9,0.7c-0.6-0.1-0.7-0.1-0.3,0c0.1,0,0.3,0,0.4,0c0.3,0,0.7-0.1,1-0.3
				c0.2-0.1,1-0.8,0.3-0.2c0.2-0.2,0.5-0.3,0.7-0.5c0.6-0.6,0.8-1.4,0.9-2.3c0.3-2.4-1.1-5.3-3.9-4.9c-1.9,0.3-1.8,3.3,0.1,3
				c0.9-0.1,1,1.4,0.7,2c-0.1,0.1-0.2,0.2-0.2,0.3c-0.1,0.1-0.2,0.1-0.3,0.2c0.7,0,0.9,0,0.5-0.1c-0.4,0-0.8,0-1.1,0.2
				c-1.4,1,0.3,0.2,0.5,0.6c-0.3-0.6-1.1-0.8-1.7-0.6c0.4,0.2,0.5,0.1,0.3-0.2c0-0.1-0.1-0.2-0.1-0.2c-0.1-0.2-0.3-0.4-0.4-0.6
				c-0.1-0.4,0.1-0.6,0-1c0-0.1,0.6-0.9-0.3-0.1c0.1-0.1,1.2-0.2,1.1-0.4c0,0-1.5,0.3,0,0.1c0.4,0-0.3,0,0.2,0
				c0.5,0,0.9-0.1,1.4-0.3C121.9,40.6,121,37.7,119.2,38.4z"/>
		</g>
	</g>
</g>
<g>
	<g>
		<path class="st0" d="M58.5,41c0-0.4-0.1-0.8-0.3-1.3c0-0.4,0-0.8-0.1-1.1c-0.2-1.2-0.5-2.4-1-3.5c-0.3-0.6-0.6-1.2-1-1.8
			c-0.4-0.6-0.9-1.2-1.4-1.6c-0.8-1-2-1.8-3.1-2.6c-1.1-0.8-2.4-1.2-3.6-1.5c-0.5-0.2-1.1-0.3-1.7-0.2c-0.8-0.1-1.5-0.1-2.3-0.1
			l-0.1,0c-1.3,0.1-2.7,0.3-4,0.6c-2.3,0.4-4.4,1.3-6.3,2.8c-0.3,0.2-0.7,0.5-1,0.8c-0.1,0.1-0.2,0.2-0.4,0.3
			c-0.4,0.4-0.8,0.8-1.1,1.3c-0.4,0.5-0.9,1.1-1.1,1.8c-0.6,1-1,2.1-1.5,3.3c-0.5,1.4-0.7,3-0.8,4.5c0,1.4,0.1,2.9,0.5,4.3
			c0.4,1.4,0.9,2.7,1.7,3.8c0.3,0.5,0.6,1.1,1.1,1.6c0.5,0.6,1,1.2,1.6,1.7c0.5,0.5,1.1,1,1.8,1.3c0.5,0.4,1.1,0.8,1.7,1
			c0.6,0.4,1.3,0.6,2,0.8c0.6,0.3,1.3,0.3,2,0.5c4,0.7,8.2-0.5,11.6-2.6c0.9-0.5,1.7-1.2,2.4-1.9c0.6-0.5,1.1-1.1,1.4-1.9
			c0.4-0.4,0.7-0.8,0.9-1.2c0.4-0.6,0.7-1.2,0.9-1.8c0.4-0.8,0.5-1.6,0.7-2.4C58.8,44.2,58.8,42.6,58.5,41z"/>
		<g>
			<path class="st1" d="M59.9,40.6c-0.9-4.9-2-8.5-6-11.6c-3.3-2.5-7.2-3.4-11.2-2.9c-9.8,1-17,8.8-16,18.9
				c0.9,8.4,8.3,15,16.8,14.6C53.3,59.1,61,50.8,59.9,41c-0.2-1.9-3.2-1.8-3,0.1c0.9,8.2-5.3,15.1-13.6,15.4
				c-7.4,0.3-13.6-5.8-13.7-13.2c-0.1-8.4,6.4-14.2,14.6-14.5s11.5,5.6,12.9,12.6C57.4,43.4,60.3,42.5,59.9,40.6z"/>
		</g>
	</g>
	<g>
		<path class="st0" d="M42.5,46.6c0.2,0,0.3-0.1,0.5-0.2c0.2,0,0.4,0,0.6-0.1l0.1,0c0.1,0,0.2,0,0.2,0c0.2,0,0.4,0,0.6,0
			c0.1,0,0.1,0,0.2,0l0,0c0.1,0,0.3,0,0.4,0c0.1,0,0.2-0.1,0.3-0.1c0.1,0,0.1-0.1,0.2-0.1c0,0,0,0,0.1-0.1c0.1,0,0.1,0,0.2,0
			c0.1,0,0.2-0.1,0.3-0.1c0.1-0.1,0.2-0.2,0.4-0.3c0.1-0.1,0.1-0.2,0.2-0.2c0.1-0.1,0.2-0.3,0.3-0.5c0.1-0.2,0.2-0.4,0.2-0.6
			c0.1-0.2,0.1-0.4,0.2-0.5c0-0.2,0.1-0.4,0.1-0.6c0-0.2,0-0.4,0-0.6c0-0.2-0.1-0.4-0.1-0.6c-0.1-0.2-0.1-0.4-0.2-0.6
			c-0.1-0.1-0.1-0.2-0.2-0.3c0-0.1-0.1-0.2-0.2-0.3c-0.1-0.1-0.1-0.1-0.2-0.2c-0.1-0.2-0.2-0.5-0.3-0.7c-0.2-0.3-0.4-0.6-0.7-0.8
			c-0.1-0.1-0.2-0.1-0.3-0.1c-0.1,0-0.2,0-0.3-0.1c-0.1,0-0.2,0-0.3,0c-0.1,0-0.2,0-0.3,0.1c-0.1-0.2-0.2-0.4-0.4-0.6
			c-0.4-0.3-0.9-0.4-1.3,0.1c-0.1,0.1-0.2,0.1-0.2,0.2c-0.1,0.1-0.2,0.2-0.2,0.4l0,0c-0.1,0-0.2,0.1-0.2,0.1l-0.1,0
			c-0.1,0-0.2,0-0.3,0c-0.1,0-0.2,0.1-0.3,0.1c-0.1,0.1-0.3,0.2-0.4,0.3l0,0l0,0c-0.1,0.1-0.3,0.1-0.4,0.2c-0.1,0.1-0.2,0.2-0.3,0.3
			c-0.1,0.1-0.2,0.2-0.3,0.4c-0.1,0.2-0.2,0.4-0.3,0.6c0,0.1,0,0.2-0.1,0.2l0,0l0,0.1l0,0c0,0.1-0.1,0.3-0.1,0.4
			c0,0.2-0.1,0.4-0.1,0.7l0,0l0,0c0,0.4,0,0.7,0,1.1c0,0.3,0.1,0.7,0.2,1c0.1,0.2,0.2,0.4,0.3,0.6c0.1,0.1,0.1,0.2,0.2,0.4
			c0.1,0.2,0.2,0.3,0.4,0.4c0.1,0.1,0.3,0.3,0.5,0.4c0.2,0.2,0.5,0.2,0.8,0.3c0.1,0,0.2,0,0.3,0C42.1,46.8,42.3,46.7,42.5,46.6
			L42.5,46.6L42.5,46.6z"/>
		<g>
			<path class="st1" d="M42.9,48.1c0.7-0.2,0.3-0.1,1-0.2c0.3,0,0.7,0,1-0.1c-0.7-0.1-0.8-0.1-0.4,0c0.9-0.1,1.5-0.2,2.2-0.9
				c-0.4,0.1-0.7,0.3-1.1,0.4c2.8-0.3,3.7-4,2.8-6.2c-0.8-2-2.5-4.3-4.9-3.6c0.6,0.2,1.1,0.5,1.7,0.6c-1.2-1.9-3.8-1.8-4.8,0.2
				c0.3-0.2,0.6-0.5,0.9-0.7c0.5,0.1,0.6,0.1,0.2,0.1c-0.2,0-0.3,0-0.5,0c-0.4,0-0.7,0.1-1,0.3c-0.2,0.1-1.2,1-0.4,0.3
				c-0.3,0.2-0.6,0.4-0.9,0.6c-0.8,0.8-1,1.9-1.2,3c-0.4,2.9,1.3,6.5,4.8,6.2c1.9-0.3,1.8-3.3-0.1-3c-1.7,0.2-2-2.2-1.6-3.4
				c0.1-0.3,0.5-0.5,0.6-0.8c0.1-0.1,0.2-0.2,0.3-0.3c-0.4-0.1-0.5-0.1-0.1,0c0.4-0.1,0.8,0,1.2-0.4c0.9-0.6,0.3-0.3,0.2-0.6
				c0.3,0.6,1.1,0.8,1.7,0.6c0,0,1,1.5,1.1,1.7c0.2,0.6,0.3,1.2,0.1,1.8c0,0.1-0.5,0.9-0.2,0.6c-0.2,0.2-0.8,0.3-1.1,0.4
				c0.2,0,0.3,0,0.5,0c-0.3-0.1-0.5-0.1-0.8,0c-0.6,0-1.4,0.2-2.2,0.4C40.2,45.9,41.1,48.8,42.9,48.1z"/>
		</g>
	</g>
</g>
<g>
	<g>
		<path class="st0" d="M211.9,12.2c0-0.2-0.1-0.3-0.2-0.4c0,0,0,0,0-0.1c0.2-0.7,0-1.5-0.1-2.2c-0.1-0.9-0.6-1.8-1-2.6
			c-0.5-0.9-1.2-1.7-1.8-2.4c-0.3-0.4-0.7-0.7-1-1.1c-0.4-0.4-0.9-0.7-1.3-0.9c-0.7-0.5-1.6-0.7-2.5-0.9c-0.7-0.2-1.5-0.1-2.2,0
			c-0.4,0-0.7,0.1-1.1,0.2c-0.4,0.1-0.7,0.2-1.1,0.4c-0.6,0.3-1.1,0.6-1.6,1.2c-0.5,0.4-0.9,1-1.2,1.6c-0.3,0.5-0.6,1.1-0.8,1.6
			c-0.3,0.7-0.4,1.3-0.6,2c-0.3,1.3-0.5,2.7-0.5,4.1c0,1.3-0.1,2.5,0.1,3.8c0,0.4,0.1,0.8,0.2,1.2c0.1,1.2,0.1,2.5,0.3,3.7
			c0,1,0.2,2,0.3,3.1c-0.5,0-1,0.1-1.5,0.3c-1.2,0.3-2.3,0.8-3.3,1.3c-0.3,0.1-0.6,0.3-0.9,0.5c-0.5,0.2-0.9,0.4-1.3,0.8
			c-0.7,0.4-1.3,1-1.9,1.5c-1.1,0.9-1.9,2-2.8,3.1c-0.5,0.6-0.8,1.3-1.1,2.1c-0.3,0.4-0.5,0.8-0.6,1.3c-0.5,0.9-0.7,1.8-0.9,2.8
			c-0.1,0.5-0.2,1.1-0.1,1.6c0,0.5,0,1,0.2,1.5c0.1,0.5,0.3,1,0.6,1.4c0.2,0.4,0.4,0.7,0.6,1c0.3,0.4,0.7,0.8,1.2,1.2
			c0.2,0.1,0.3,0.3,0.5,0.4c0.1,0.1,0.1,0.2,0.2,0.4c0.3,0.7,0.9,1.3,1.4,1.9c0.5,0.7,1.3,1.1,1.9,1.6c0.5,0.4,1.1,0.7,1.7,0.9
			c0.7,0.3,1.5,0.5,2.3,0.7s1.6,0.2,2.3,0.3c0.4,0,0.7,0.1,1.1,0.1s0.8,0,1.2-0.2c0.8-0.1,1.6-0.3,2.4-0.5c0.7-0.2,1.4-0.5,2-0.8
			c0.4,0.2,0.8,0.4,1.2,0.5c0.9,0.4,1.9,0.5,2.9,0.5c0.1,0,0.2,0,0.2,0c0.3,0,0.6,0,0.9-0.1l0,0c0.2,0.1,0.5,0.1,0.7,0.1l0,0
			c0.2,0,0.5,0,0.7-0.1c0.1,0,0.3-0.1,0.4-0.1c0.2,0,0.3-0.1,0.5-0.2c0.3-0.1,0.6-0.2,0.9-0.4c0.4-0.2,0.7-0.4,1-0.6
			c0.5-0.3,0.9-0.7,1.3-1.2c0.4-0.4,0.7-0.8,0.9-1.2c0.3-0.4,0.5-0.9,0.6-1.3c0.1-0.3,0.2-0.6,0.3-1c0.1-0.5,0.1-1,0.1-1.5
			c0.1-0.9,0-1.9-0.1-2.8c-0.1-0.8-0.3-1.6-0.4-2.3c0.1-1.1,0.1-2.2,0.2-3.4c0-0.6,0-1.3,0-1.9c0.1-0.9,0-1.9,0-2.8
			c0-0.1,0-0.3,0.1-0.4c0.2-1.9,0.3-3.8,0.2-5.7C213,19.5,212.7,15.8,211.9,12.2z"/>
		<g>
			<path class="st1" d="M213.2,11.4c0,0.1,0.4,1.5,0.1-0.8c-0.1-1.1-0.2-1.8-0.6-2.9c-0.7-1.9-2-3.5-3.3-4.9
				c-2.7-2.6-6.7-3.8-10.2-2.1c-8,4-5.8,16.9-4.9,23.7c0.5-0.5,1-1,1.4-1.6c-7.8,1.1-17.9,9.9-15.6,18.8c0.7,2.9,4.2,6.7,6.6,8.4
				c3.2,2.2,7.4,2.8,11.2,2c6.1-1.3,12.6,2,16.1-5.5c2-4.2,0.4-10.6,0.4-15c0-6.7,0.2-13-1-19.7c-0.4-1.9-3.2-1-2.9,0.9
				c1.7,8.4,0.1,16.5,0.8,24.9c0.3,4,1.1,9.7-3.9,11.2c-2,0.6-3.9-0.6-5.9-0.6c-2.1,0.1-4.1,1.2-6.4,1.2c-4,0.1-7.1-1.5-9.4-4.8
				c-0.2-0.2-0.6-0.7-0.7-0.9c-2.5-4-2.4-6.3-0.1-10.2c2.2-3.8,6.5-7,11-7.7c0.8-0.1,1.6-0.7,1.4-1.6c-0.6-5.6-2.4-13.8,1-18.8
				c3.1-4.5,9.1-2.1,11.2,2.1c0.9,1.8,0.4,3.7,1.3,5.2C211.6,14.7,214.2,13,213.2,11.4z"/>
		</g>
	</g>
	<g>
		<path class="st0" d="M194.9,36c-0.1,0-0.2,0.1-0.4,0.1c-0.1,0-0.3,0-0.4,0.1c0,0,0,0-0.1,0c-0.1,0-0.1,0-0.2,0c-0.1,0-0.3,0-0.4,0
			l-0.1,0l0,0c-0.1,0-0.2,0-0.3,0c-0.1,0-0.2,0.1-0.2,0.1c-0.1,0-0.1,0.1-0.1,0.1l0,0l-0.1,0c-0.1,0-0.2,0.1-0.2,0.1
			c-0.1,0-0.2,0.1-0.3,0.2c-0.1,0-0.1,0.1-0.1,0.2c-0.1,0.1-0.1,0.2-0.2,0.3c-0.1,0.1-0.1,0.3-0.2,0.4c0,0.1-0.1,0.3-0.1,0.4
			c0,0.1-0.1,0.3-0.1,0.5c0,0.1,0,0.3,0,0.4s0.1,0.3,0.1,0.4c0,0.2,0.1,0.3,0.2,0.4c0,0.1,0.1,0.2,0.1,0.2c0,0.1,0.1,0.1,0.1,0.2
			c0,0.1,0.1,0.1,0.1,0.1c0.1,0.2,0.2,0.3,0.3,0.5c0.1,0.2,0.3,0.4,0.5,0.5c0.1,0,0.1,0.1,0.2,0.1c0.1,0,0.1,0,0.2,0
			c0.1,0,0.1,0,0.2,0s0.1,0,0.2,0c0.1,0.2,0.2,0.3,0.3,0.4c0.3,0.2,0.7,0.3,1,0c0.1-0.1,0.1-0.1,0.2-0.2c0.1-0.1,0.1-0.2,0.2-0.3
			l0,0c0.1,0,0.1,0,0.2-0.1l0.1,0c0.1,0,0.1,0,0.2,0c0.1,0,0.1-0.1,0.2-0.1c0.1,0,0.2-0.1,0.3-0.2l0,0l0,0c0.1,0,0.2-0.1,0.3-0.2
			c0.1-0.1,0.1-0.1,0.2-0.2c0.1-0.1,0.1-0.2,0.2-0.3s0.1-0.3,0.2-0.5c0-0.1,0-0.1,0-0.2l0,0c0,0,0,0,0-0.1l0,0
			c0-0.1,0.1-0.2,0.1-0.3c0-0.2,0.1-0.3,0.1-0.5l0,0l0,0c0-0.3,0-0.5,0-0.8c0-0.2-0.1-0.5-0.1-0.7c0-0.1-0.1-0.3-0.2-0.4
			c0-0.1-0.1-0.2-0.1-0.3c-0.1-0.1-0.2-0.2-0.3-0.3c-0.1-0.1-0.2-0.2-0.3-0.3c-0.2-0.1-0.4-0.2-0.5-0.2c-0.1,0-0.2,0-0.2,0
			C195.1,36,195,36,194.9,36L194.9,36L194.9,36z"/>
		<g>
			<path class="st1" d="M194.4,34.7c-0.5,0.1-0.5,0.1-0.1,0.2c-0.2,0-0.4-0.1-0.6-0.1c-0.3,0-0.6,0-0.8,0.1c0.7,0,0.9,0,0.5,0
				c-0.8,0.1-1.3,0.2-2,0.8c0.4-0.1,0.7-0.3,1.1-0.4c-2.3,0.3-3.2,3.1-2.4,5c0.7,1.7,2.1,3.4,4,2.9c-0.6-0.2-1.1-0.5-1.7-0.6
				c1,1.7,3.4,1.7,4.2-0.2c-0.3,0.2-0.6,0.5-0.9,0.7c-0.6-0.1-0.7-0.1-0.3,0c0.1,0,0.3,0,0.4,0c0.3,0,0.7-0.1,1-0.3
				c0.2-0.1,1-0.8,0.3-0.2c0.2-0.2,0.5-0.3,0.7-0.5c0.6-0.6,0.8-1.4,0.9-2.3c0.3-2.4-1.1-5.3-3.9-4.9c-1.9,0.3-1.8,3.3,0.1,3
				c0.9-0.1,1,1.4,0.7,2c-0.1,0.1-0.2,0.2-0.2,0.3c-0.1,0.1-0.2,0.1-0.3,0.2c0.7,0,0.9,0,0.5-0.1c-0.4,0-0.8,0-1.1,0.2
				c-1.4,1,0.3,0.2,0.5,0.6c-0.3-0.6-1.1-0.8-1.7-0.6c0.4,0.2,0.5,0.1,0.3-0.2c0-0.1-0.1-0.2-0.1-0.2c-0.1-0.2-0.3-0.4-0.4-0.6
				c-0.1-0.4,0.1-0.6,0-1c0-0.1,0.6-0.9-0.3-0.1c0.1-0.1,1.2-0.2,1.1-0.4c0,0-1.5,0.3,0,0.1c0.4,0-0.3,0,0.2,0
				c0.5,0,0.9-0.1,1.4-0.3C197.1,36.8,196.2,34,194.4,34.7z"/>
		</g>
	</g>
</g>
<g>
	<path class="st0" d="M173.3,46.8c-0.1-0.4-0.2-0.8-0.4-1.2c0-0.1,0-0.2,0-0.3c-0.1-0.3-0.2-0.7-0.3-1c0-0.1-0.1-0.2-0.1-0.3
		c0-0.1,0-0.2,0-0.3c-0.1-0.5-0.3-0.9-0.7-1.4c-0.1-0.2-0.2-0.3-0.4-0.5c-0.3-0.6-0.8-1.1-1.6-1.2c-0.2-0.1-0.4-0.1-0.6-0.1
		c-0.2,0-0.5,0-0.7,0c-0.1,0-0.2,0-0.3,0c-0.2,0-0.4,0-0.6,0c-0.4,0-0.9,0-1.3,0.2c-0.5,0.1-0.9,0.2-1.4,0.4
		c-0.5,0.2-1.1,0.4-1.6,0.8c-0.2,0.1-0.4,0.3-0.6,0.4c-0.1,0.1-0.2,0.2-0.4,0.3c-0.2,0.1-0.4,0.2-0.6,0.2c-0.3,0.1-0.6,0.1-0.9,0.2
		c-0.2,0-0.4,0-0.6-0.1c-0.2,0-0.3-0.1-0.4-0.2c-0.2-0.1-0.3-0.2-0.4-0.3c-0.2-0.2-0.3-0.4-0.5-0.6c-0.2-0.4-0.4-0.9-0.7-1.3
		c-0.1-0.3-0.2-0.7-0.2-1.1l0-0.1c0.2,0,0.3,0,0.5,0.1c0.3,0.1,0.7,0.2,1,0.3c0.6,0.1,1.2,0,1.8,0l0.1,0c0.1,0,0.2,0.1,0.2,0.1
		c0.9,0.3,2.1,0.3,3-0.1c0.2-0.1,0.3-0.2,0.5-0.2c0.2-0.1,0.4-0.3,0.5-0.4l0,0c0.2,0,0.3-0.1,0.5-0.1c0.1,0,0.2,0,0.3,0
		c0.2,0,0.5,0,0.7,0c0.2,0,0.4-0.1,0.6-0.1c0.3-0.1,0.6-0.2,0.8-0.3l0,0l0,0c0.3-0.1,0.6-0.1,0.9-0.3c0.2-0.1,0.4-0.2,0.6-0.3
		s0.4-0.3,0.6-0.4c0.2-0.2,0.4-0.4,0.6-0.7c0.1-0.1,0.1-0.2,0.1-0.3l0,0l0-0.1l0,0c0.1-0.1,0.2-0.3,0.2-0.4c0.1-0.2,0.1-0.5,0.1-0.7
		l0,0l0,0c0-0.4,0-0.7-0.1-1.1c-0.1-0.4-0.3-0.7-0.5-1c-0.2-0.2-0.4-0.4-0.6-0.6c-0.1-0.1-0.3-0.2-0.5-0.4s-0.5-0.3-0.8-0.4
		s-0.7-0.3-1-0.4c-0.5-0.2-1.1-0.2-1.7-0.2c-0.2,0-0.5,0-0.7,0c-0.4,0-0.8,0-1.2,0.2c-0.4,0-0.8,0.1-1.1,0.2c-0.4,0-0.9,0-1.3,0.2
		c-0.1,0-0.1,0-0.2,0c-0.2,0-0.4,0-0.6,0c-0.5,0-0.9,0-1.4,0.1c-0.1,0-0.1,0-0.2,0c0.5-0.4,1-0.7,1.5-1.2c0.7-0.4,1.3-0.8,2.1-1
		c0.2-0.1,0.4-0.1,0.7-0.1c0.5-0.1,1-0.1,1.6-0.2s1.1,0,1.7-0.2c0.7,0,1.4-0.3,2-0.5c0.6-0.2,1.2-0.6,1.7-0.9
		c0.3-0.2,0.5-0.5,0.8-0.8c0.3-0.3,0.5-0.7,0.6-1.1c0.2-0.3,0.2-0.7,0.3-1.1c0-0.2,0.1-0.4,0.1-0.6c0-0.3,0-0.6-0.1-0.9
		c-0.1-0.4-0.2-0.7-0.3-1c-0.1-0.5-0.4-0.9-0.7-1.3c-0.3-0.6-0.7-1.1-1.1-1.6l0,0l0,0c-0.1-0.2-0.2-0.3-0.3-0.5
		c-0.1-0.2-0.3-0.3-0.5-0.5c-0.1-0.1-0.2-0.2-0.3-0.2c-0.1,0-0.1-0.1-0.2-0.1c-0.3-0.2-0.6-0.5-0.9-0.7c-0.4-0.2-0.8-0.4-1.3-0.5
		s-1-0.3-1.4-0.2c-0.9-0.1-1.9,0.1-2.8,0.2c-1,0.2-2,0.6-2.9,0.9c-0.9,0.4-1.8,0.9-2.6,1.4c-0.3,0.2-0.6,0.4-0.9,0.5
		c-0.1,0-0.1,0-0.2,0c-0.2,0-0.5,0-0.7,0c-0.1,0-0.3,0-0.4,0.1c-0.1,0-0.2,0-0.2,0.1c-0.4,0-0.7,0.1-1.1,0.2
		c-0.4,0.1-0.9,0.3-1.3,0.6c-0.4,0.2-0.9,0.5-1.2,0.9c-0.7,0.6-1.2,1.4-1.8,2.1c-0.6,0.8-0.9,1.7-1.3,2.7c-0.4,0.9-0.6,1.8-0.9,2.8
		c-0.3,1.4-0.6,2.9-0.7,4.3c-0.2,0.7-0.2,1.3-0.2,2c-0.1,0.8,0,1.6,0,2.4c0.2,1.4,0.5,2.8,1,4.1c0.3,0.9,0.7,1.8,1.2,2.5
		c0.3,0.6,0.8,1.3,1.2,1.7c0,0.1,0,0.1,0.1,0.2c0,0.1,0.1,0.1,0.1,0.2l0,0l0,0c0.3,0.4,0.5,0.8,0.9,1.2l0.1,0.1
		c0.3,0.3,0.6,0.7,0.9,1c0,0,0,0.1,0.1,0.1c0.1,0.2,0.3,0.5,0.5,0.7l0,0c0.2,0.2,0.4,0.5,0.7,0.7c0.4,0.3,0.8,0.6,1.3,0.7
		c0.2,0.1,0.4,0.2,0.6,0.3l0,0c0.3,0.2,0.7,0.4,1,0.5c0.2,0.1,0.3,0.2,0.5,0.3c0.8,0.4,1.7,0.7,2.6,1c0.7,0.2,1.4,0.3,2.1,0.4
		l0.1,0.1c0.1,0,0.1,0,0.2,0.1l0,0l0,0c0.5,0.1,1,0.2,1.5,0.2l0.1,0c0.4,0,0.9,0.1,1.3,0l0.1,0c0.3,0.1,0.5,0.1,0.8,0.2l0,0
		c0.3,0,0.6,0,0.9,0c0.5,0,1-0.2,1.5-0.4c0.2-0.1,0.4-0.2,0.6-0.3l0,0c1.2-0.4,2.3-0.9,3.2-1.6c0.2-0.2,0.5-0.4,0.7-0.6
		c0.2-0.2,0.3-0.4,0.5-0.6c0.2-0.3,0.3-0.6,0.4-0.9s0.2-0.6,0.3-1c0-0.3,0.1-0.5,0.1-0.8C173.4,47.5,173.4,47.1,173.3,46.8z"/>
	<g>
		<path class="st1" d="M174.8,46.3c-0.8-2.6-1.5-6.2-4.9-7.1c-1.4-0.3-3.3-0.1-4.7,0.4c-2.1,0.6-4.7,4.1-5.6-0.4
			c-0.6,0.6-1.1,1.3-1.7,1.9c2.6,0.3,3.1,0.7,5.5,0.6c0.8,0,1.5-0.4,2.2-0.6c0.2,0,2.1-1,1.1-0.5c2.7-1,4.7-0.6,6.1-3.7
			c0.6-1.2,0.5-3.9-1.3-5.6c-3.1-2.7-8.2-1.5-11.8-1c0.3,0.9,0.6,1.9,0.9,2.8c4.2-3.3,16.2-2,12.8-11.2c-1.8-5-7-7.9-12.9-5.9
			c-2.6,0.9-3.9,2.2-6.3,2.7c-3.9,0.8-6.2,3.8-7.6,7.3c-2.9,7.4-2.4,15,2,21.7c0.2-0.7,0.3-1.4,0.4-2.1l0,0
			c-0.7,0.4-0.8,1.4-0.4,2.1c3.1,4.6,7.4,6.5,12.7,7.5c-0.4-0.5-0.7-1-1.2-1.4l0,0c0,0.6,0.6,1.3,1.2,1.4c5.9,1,14.5-0.9,13.5-8.5
			c-0.3-1.9-3.3-1.8-3,0.1c0.6,5.5-5.9,6.2-9.9,5.4c0.4,0.5,0.7,1,1.2,1.4l0,0c0-0.6-0.6-1.3-1.2-1.4c-4.4-0.9-8.3-2.3-10.9-6.2
			c-0.2,0.7-0.3,1.4-0.4,2.1l0,0c0.7-0.4,0.8-1.4,0.4-2.1c-3-4.6-3.7-8.8-2.9-14.2c0.5-3.6,1.9-8.8,5.9-10.1c1-0.3,1.9-0.2,2.9-0.5
			c4.1-1.6,9.3-5.1,12.6-0.2c1.4,2.1,2.3,4.6-0.8,6.3c-1.4,0.8-3.4,0.3-4.9,0.6c-2,0.4-3.3,1.3-4.9,2.5c-1.1,0.8-0.8,3,0.9,2.8
			c2.2-0.3,5.9-1.2,7.9-0.5c2.7,0.9,3.2,2.6,1.1,4c-2.8,1.8-7.1,1.7-10.3,1.5c-1.2-0.1-2,0.7-1.7,1.9c0.5,2.9,2.6,5.4,5.7,4.4
			c2-0.7,3.8-3.1,6.2-2.4c2.4,0.7,2.6,3,3.3,5.1C172.5,49,175.4,48.2,174.8,46.3z"/>
	</g>
</g>
</svg>
