<?xml version="1.0" encoding="utf-8"?>
<!-- Generator: Adobe Illustrator 23.1.1, SVG Export Plug-In . SVG Version: 6.00 Build 0)  -->
<svg version="1.1" id="Layer_1" xmlns="http://www.w3.org/2000/svg" xmlns:xlink="http://www.w3.org/1999/xlink" x="0px" y="0px"
	 viewBox="0 0 303.9 56" style="enable-background:new 0 0 303.9 56;" xml:space="preserve">
<style type="text/css">
	.st0{fill:#2C2C2C;}
</style>
<g>
	<g>
		<path class="st0" d="M21.7,33.5c0,0,0-0.1,0-0.2c0.1-0.5,0.1-1.1,0-1.6c0,0,0,0,0,0c0.1-0.7-0.4-1.4-1.1-1.6
			c-0.2-0.1-0.4-0.2-0.5-0.3c0,0-0.1-0.1-0.1-0.1c-0.2-0.2-0.4-0.4-0.6-0.5c-0.4-0.2-0.7-0.3-1.1-0.4c-0.1,0-0.3,0-0.4,0
			c-0.4,0-0.7,0.1-1.1,0.2c-0.2,0.1-0.3,0.1-0.5,0.2c-0.3,0-0.6,0.1-0.8,0.1c-0.9,0.2-1.8,0.5-2.6,1.1c-0.2,0.2-0.4,0.4-0.6,0.7
			c-0.2,0.2-0.3,0.4-0.4,0.6c-0.2,0.4-0.3,0.7-0.4,1.2c-0.2,0.4-0.3,0.9-0.3,1.3c0,0.4,0,0.7,0.1,1.1c0.1,0.4,0.2,0.7,0.4,1
			c0.2,0.2,0.3,0.4,0.5,0.6c0.2,0.2,0.4,0.4,0.6,0.6c0.4,0.3,0.9,0.6,1.4,0.8c0.5,0.2,1,0.4,1.6,0.4c0.2,0,0.4,0,0.6,0
			c0.5,0.1,1,0,1.4-0.1c0.5-0.2,0.9-0.4,1.3-0.7c0.1,0,0.1-0.1,0.2-0.1c0.6-0.3,0.9-0.7,1.3-1.2c0.1-0.1,0.2-0.2,0.2-0.3
			c0,0,0.1,0,0.1,0c0.5-0.2,0.8-0.7,1-1.2C22,34.6,21.9,34,21.7,33.5z"/>
	</g>
	<g>
		<path class="st0" d="M36,14.9c0-0.3-0.1-0.6-0.2-1c-0.2-0.9-0.6-1.8-1-2.6c-0.4-0.8-0.9-1.6-1.5-2.3c-0.5-0.7-1-1.3-1.6-2
			c-0.7-0.7-1.4-1.3-2.1-1.9c-0.6-0.5-1.3-1-2-1.5c-0.7-0.5-1.5-0.8-2.3-1.2c-0.3-0.2-0.7-0.3-1.1-0.4c-0.2-0.2-0.4-0.4-0.6-0.5
			c-0.6-0.4-1.3-0.8-1.9-1c-0.8-0.3-1.6-0.4-2.4-0.5C19,0,18.4,0,17.9,0c-1.1,0-2.1,0.1-3.1,0.3c-1.5,0.2-2.9,0.6-4.3,1.1
			C9.8,1.7,9.2,2,8.6,2.4C8.2,2.6,7.7,3,7.3,3.3C7.2,3.4,7.1,3.5,7,3.6c0.2,0,0.3,0,0.5,0.1c0,0,0,0,0,0c0.3,0,0.6-0.1,0.9-0.1
			c0.1,0,0.2,0,0.2,0c1,0,2,0.2,2.9,0.6c0.5,0.2,1,0.4,1.4,0.7c0.4,0.2,0.8,0.5,1.1,0.8c0.6,0.7,1.1,1.5,1.4,2.3
			c0.3,0.9,0.4,1.8,0.5,2.7c0.1,1.9-0.2,3.8-0.3,5.6c0,0.2,0,0.3,0,0.5c0.2,1.7,0.3,3.4,0.3,5.2c0,0.4,0.1,0.8,0.1,1.1
			c0-0.3,0-0.6,0.1-0.8c0.1-1.2,0.1-2.4,0-3.6c0.1-0.2,0.2-0.3,0.4-0.5c0.2-0.3,0.5-0.5,0.8-0.7c0.3-0.2,0.6-0.3,0.9-0.5
			c0.3-0.1,0.6-0.2,0.9-0.2c0.3,0,0.6,0,1,0c0.3,0.1,0.6,0.2,1,0.3c0.2,0.1,0.4,0.3,0.6,0.4c0.1,0.1,0.2,0.2,0.3,0.4
			c0.2,0.4,0.4,0.8,0.6,1.2c0.2,0.6,0.4,1.2,0.7,1.7c0.7,1.2,2,1.8,3.3,1.5c0,0,0.1,0,0.1,0c0.5,0.4,1.1,0.6,1.7,0.8
			c0.9,0.2,1.8,0.2,2.6,0c0.5-0.2,0.9-0.3,1.3-0.6c0.5-0.3,1-0.7,1.4-1.1c0.4-0.4,0.8-0.9,1.1-1.3c0.2-0.3,0.4-0.5,0.5-0.8
			c0.2-0.4,0.4-0.9,0.6-1.3c0.1-0.5,0.2-1.1,0.3-1.6C36.1,15.9,36.1,15.4,36,14.9z"/>
	</g>
	<g>
		<path class="st0" d="M16.9,38c0-0.4-0.1-0.8-0.1-1.2c0-1.2,0-2.5-0.1-3.7C16.6,30.1,16.3,27,16,24c0-0.2-0.1-0.5-0.1-0.7
			c0-0.4-0.1-0.8-0.1-1.1c0-1.7-0.1-3.4-0.3-5.2c0-0.2,0-0.3,0-0.5c0.1-1.9,0.4-3.7,0.3-5.6c0-0.9-0.2-1.8-0.4-2.7
			c-0.3-0.9-0.7-1.7-1.3-2.3c-0.3-0.3-0.7-0.6-1-0.8c-0.4-0.3-0.9-0.5-1.3-0.7C10.9,3.9,10,3.7,9,3.6c-0.1,0-0.1,0-0.2,0
			c-0.3,0-0.5,0-0.8,0.1c0,0,0,0,0,0c-0.1,0-0.3-0.1-0.5-0.1c-0.1,0-0.2,0-0.2,0c0,0,0,0,0,0c-0.2,0-0.4,0-0.6,0.1
			c-0.1,0-0.3,0.1-0.4,0.1c-0.1,0-0.3,0.1-0.4,0.2C5.5,4,5.2,4.2,4.9,4.3C4.6,4.5,4.3,4.7,4,5C3.5,5.3,3.1,5.7,2.8,6.1
			C2.4,6.4,2.1,6.8,1.9,7.3C1.6,7.7,1.4,8.1,1.2,8.6C1.1,8.9,1,9.2,0.9,9.6c-0.1,0.5-0.1,1-0.2,1.5c-0.1,0.9-0.1,1.9,0,2.8
			c0.1,0.8,0.2,1.6,0.3,2.3c-0.1,1.1-0.2,2.2-0.2,3.4c0,0.6-0.1,1.3-0.1,1.9c-0.1,0.9-0.1,1.9-0.1,2.8c0,0.1,0,0.3-0.1,0.4
			c-0.3,1.9-0.4,3.8-0.5,5.7c-0.1,3.7,0.1,7.4,0.7,11.1c0,0.2,0.1,0.3,0.2,0.4c0,0,0,0,0,0.1c-0.2,0.7-0.1,1.5,0,2.2
			c0.1,0.9,0.4,1.8,0.8,2.6c0.3,0.6,0.7,1.2,1,1.8c0,0,0,0,0,0C2.9,48.9,3,49,3.1,49.2c0.1,0.2,0.2,0.3,0.3,0.5
			c0.2,0.4,0.4,0.7,0.7,1.1C4.5,51.3,5,51.7,5.6,52c0.3,0.2,0.7,0.3,1,0.5c0.4,0.1,0.9,0.2,1.3,0.3c0.6,0.1,1.3,0.1,1.9,0
			c0.1,0,0.1,0,0.2,0c0.3,0,0.7-0.1,1-0.2c0.3-0.1,0.7-0.2,1-0.4c0.6-0.3,1-0.6,1.5-1.1c0.5-0.4,0.8-1,1.2-1.5
			c0.3-0.5,0.6-1.1,0.8-1.6c0.3-0.7,0.5-1.3,0.7-2c0.4-1.3,0.6-2.7,0.7-4.1C17,40.5,17,39.3,16.9,38z"/>
	</g>
</g>
<g>
	<path class="st0" d="M66.9,38.1c0-0.4-0.1-0.8-0.2-1.3c0-0.4,0-0.8-0.1-1.1c-0.1-1.2-0.4-2.4-0.8-3.5c-0.3-0.6-0.5-1.2-0.9-1.8
		c-0.4-0.6-0.8-1.2-1.3-1.7c-0.8-1-1.9-1.9-3-2.7c-1.1-0.8-2.3-1.3-3.5-1.7c-0.5-0.2-1.1-0.3-1.7-0.3c-0.8-0.1-1.5-0.2-2.3-0.2
		c0,0-0.1,0-0.1,0c-1.3,0-2.7,0.2-4,0.4c-2.3,0.3-4.5,1.1-6.4,2.5c-0.3,0.2-0.7,0.5-1,0.8c-0.1,0.1-0.2,0.2-0.4,0.3
		c-0.4,0.4-0.8,0.8-1.2,1.2c-0.4,0.5-0.9,1.1-1.2,1.7c-0.6,1-1.1,2.1-1.6,3.2c-0.6,1.4-0.8,3-1,4.5c-0.1,1.4,0,2.9,0.3,4.3
		c0.3,1.4,0.8,2.7,1.5,3.9c0.3,0.5,0.6,1.1,1,1.6c0.5,0.6,0.9,1.2,1.5,1.8c0.5,0.5,1.1,1,1.7,1.4c0.5,0.4,1.1,0.8,1.7,1.1
		c0.6,0.4,1.3,0.7,2,0.9c0.6,0.3,1.3,0.4,2,0.6c4,0.9,8.2-0.1,11.7-2.1c0.9-0.5,1.7-1.1,2.5-1.8c0.6-0.5,1.1-1.1,1.5-1.8
		c0.4-0.4,0.7-0.8,1-1.2c0.4-0.6,0.8-1.2,1-1.8c0.4-0.8,0.6-1.6,0.8-2.4C67,41.4,67.1,39.7,66.9,38.1z M55.6,40.1
		c0,0.2-0.1,0.4-0.2,0.5c-0.1,0.2-0.2,0.4-0.2,0.6c-0.1,0.2-0.2,0.3-0.3,0.5c-0.1,0.1-0.1,0.2-0.2,0.2c-0.1,0.1-0.2,0.2-0.4,0.3
		c-0.1,0.1-0.2,0.1-0.3,0.1c-0.1,0-0.1,0-0.2,0c0,0,0,0-0.1,0.1c-0.1,0.1-0.1,0.1-0.2,0.1c-0.1,0.1-0.2,0.1-0.3,0.1
		c-0.1,0-0.3,0-0.4,0c0,0,0,0,0,0c-0.1,0-0.1,0-0.2,0c-0.2,0-0.4,0-0.6,0c-0.1,0-0.2,0-0.2,0c0,0-0.1,0-0.1,0
		c-0.2,0.1-0.4,0.1-0.6,0.1C51,42.9,50.8,43,50.6,43c-0.2,0-0.4,0-0.5,0c-0.1,0-0.2,0-0.3,0c-0.3-0.1-0.5-0.1-0.8-0.3
		c-0.2-0.1-0.3-0.2-0.5-0.4c-0.1-0.1-0.2-0.3-0.4-0.4c-0.1-0.1-0.1-0.2-0.2-0.4c-0.1-0.2-0.2-0.4-0.3-0.6c-0.1-0.3-0.2-0.7-0.2-1
		c0-0.3,0-0.7,0-1.1c0,0,0,0,0,0c0,0,0,0,0,0c0-0.2,0-0.4,0.1-0.7c0-0.1,0.1-0.3,0.1-0.4c0,0,0,0,0,0c0,0,0-0.1,0-0.1c0,0,0,0,0,0
		c0-0.1,0-0.2,0.1-0.2c0.1-0.2,0.2-0.5,0.3-0.6c0.1-0.1,0.2-0.3,0.3-0.4c0.1-0.1,0.2-0.2,0.3-0.3c0.1-0.1,0.3-0.2,0.4-0.2
		c0,0,0,0,0,0c0,0,0,0,0,0c0.1-0.1,0.2-0.3,0.4-0.3c0.1,0,0.2-0.1,0.3-0.1c0.1,0,0.2,0,0.3,0c0,0,0.1,0,0.1,0c0.1,0,0.2-0.1,0.2-0.1
		c0,0,0,0,0,0c0.1-0.1,0.1-0.3,0.2-0.4c0.1-0.1,0.1-0.2,0.2-0.2c0.4-0.3,0.9-0.3,1.3,0c0.2,0.1,0.3,0.3,0.4,0.6
		c0.1,0,0.2-0.1,0.3-0.1c0.1,0,0.2,0,0.3,0c0.1,0,0.2,0,0.3,0.1c0.1,0,0.2,0.1,0.3,0.1c0.3,0.2,0.5,0.4,0.7,0.8
		c0.1,0.2,0.3,0.4,0.3,0.7c0.1,0.1,0.1,0.1,0.2,0.2c0.1,0.1,0.1,0.2,0.2,0.3c0.1,0.1,0.1,0.2,0.2,0.3c0.1,0.2,0.2,0.4,0.2,0.6
		c0,0.2,0.1,0.4,0.1,0.6c0,0.2,0,0.4,0,0.6C55.7,39.7,55.6,39.9,55.6,40.1z"/>
</g>
<g>
	<g>
		<path class="st0" d="M103.8,30.8c0-0.4-0.1-0.9-0.2-1.3c-0.1-0.6-0.3-1.2-0.5-1.7c-0.3-0.7-0.5-1.4-0.9-2c0,0,0,0,0,0c0,0,0,0,0,0
			c-0.1-0.2-0.2-0.4-0.3-0.6c-0.1-0.2-0.3-0.4-0.4-0.6c-0.1-0.1-0.2-0.2-0.3-0.3c-0.1-0.1-0.1-0.1-0.2-0.2c-0.2-0.3-0.5-0.6-0.8-0.9
			c-0.4-0.3-0.8-0.6-1.2-0.8c-0.4-0.2-0.9-0.4-1.4-0.5c-0.9-0.2-1.8-0.2-2.8-0.1c-1,0.1-2,0.4-3,0.8c-0.9,0.4-1.9,0.8-2.8,1.3
			c-1.8,1-3.5,2.3-5.1,3.7c-0.1,0.1-0.2,0.2-0.3,0.3c0.7,0.2,1.3,0.4,1.9,0.8c0.5,0.3,0.9,0.6,1.3,1c0.4,0.3,0.7,0.7,1,1.1
			c0.6,0.9,1,1.9,1.2,3c0.2,1.1,0.2,2.2,0.2,3.3c-0.1,1.1-0.2,2.3-0.3,3.4c0.8-0.8,1.7-1.6,2.7-2.2c0.7-0.4,1.4-0.7,2.1-1
			c0.2,0,0.5-0.1,0.7-0.1c0.5,0,1,0,1.6,0c0.6,0,1.1,0.1,1.7,0.1c0.7,0,1.4-0.1,2.1-0.3c0.6-0.2,1.2-0.5,1.7-0.9
			c0.3-0.2,0.6-0.6,0.8-0.9c0.3-0.4,0.5-0.8,0.7-1.3c0.2-0.4,0.3-0.8,0.4-1.3c0.1-0.2,0.1-0.5,0.1-0.7
			C103.8,31.5,103.9,31.2,103.8,30.8z"/>
	</g>
	<g>
		<path class="st0" d="M90.1,47.6c-0.1-0.6-0.1-1.2-0.2-1.9c0-0.5,0-1,0-1.5c0-1.2-0.1-2.5-0.3-3.7c0-0.2,0-0.3,0-0.5
			c0.1-1,0.2-1.9,0.3-2.9c0.1-0.9,0.1-1.8,0.1-2.8c0-0.9-0.2-1.8-0.5-2.7c-0.3-0.9-0.8-1.7-1.4-2.3c-0.3-0.3-0.7-0.6-1.1-0.8
			c-0.4-0.3-0.9-0.5-1.4-0.7c-0.6-0.2-1.3-0.4-1.9-0.5c-0.3,0-0.6-0.1-1-0.1c-0.1,0-0.2,0-0.2,0c-0.3,0-0.6,0-0.9,0.1c0,0,0,0,0,0
			c-0.2-0.1-0.5-0.1-0.7-0.1c0,0,0,0,0,0c-0.2,0-0.5,0-0.7,0.1c-0.1,0-0.3,0.1-0.4,0.1c-0.2,0-0.3,0.1-0.5,0.2
			c-0.3,0.1-0.6,0.2-0.9,0.4c-0.4,0.2-0.7,0.4-1,0.6c-0.5,0.3-0.9,0.7-1.3,1.1c-0.4,0.4-0.7,0.8-1,1.2c-0.3,0.4-0.5,0.9-0.7,1.3
			c-0.1,0.3-0.2,0.6-0.3,1c-0.1,0.5-0.1,1-0.2,1.5c-0.1,0.9-0.1,1.9,0,2.8c0.1,0.8,0.2,1.6,0.3,2.3c-0.1,1.1-0.2,2.2-0.3,3.4
			c0,0.5,0,0.9-0.1,1.4c0,0.1,0,0.2,0,0.2c0,0.2,0.1,0.3,0.2,0.4c0,0,0,0,0,0.1c-0.2,0.7-0.1,1.5,0,2.2c0.1,0.9,0.5,1.8,0.9,2.6
			c0.5,0.9,1.1,1.7,1.7,2.5c0.3,0.4,0.7,0.7,1,1.1c0.4,0.4,0.9,0.7,1.3,1c0.7,0.5,1.6,0.8,2.5,1C82.2,56,83,56,83.7,56
			c0.4,0,0.7-0.1,1.1-0.2c0.1,0,0.2-0.1,0.2-0.1c0.3-0.1,0.6-0.2,0.8-0.3c0.6-0.3,1.1-0.6,1.6-1.1c0.5-0.4,0.9-1,1.3-1.5
			c0.3-0.5,0.6-1.1,0.9-1.6c0.3-0.6,0.5-1.2,0.7-1.9C90.2,48.7,90.1,48.1,90.1,47.6z"/>
	</g>
</g>
<g>
	<g>
		<path class="st0" d="M302.5,35.5c-0.1-0.4-0.3-0.7-0.5-1c-0.2-0.2-0.4-0.4-0.6-0.6c-0.1-0.1-0.3-0.2-0.5-0.4
			c-0.2-0.2-0.5-0.3-0.8-0.4c-0.3-0.1-0.7-0.3-1-0.4c-0.5-0.2-1.1-0.2-1.7-0.3c-0.2,0-0.5,0-0.7,0c-0.4,0-0.8,0-1.2,0.1
			c-0.4,0-0.8,0.1-1.1,0.2c-0.4,0-0.9,0-1.3,0.1c-0.1,0-0.1,0-0.2,0c-0.2,0-0.4,0-0.6,0c-0.5,0-0.9,0-1.4,0c-0.1,0-0.3,0-0.4,0
			c0,0,0,0,0,0c-0.3,0-0.6,0-0.8,0c-0.2,0-0.5,0.1-0.7,0.1c-0.2,0-0.3,0.1-0.4,0.1c0,0-0.1,0-0.1,0.1c-0.1,0-0.3,0-0.4,0
			c-0.3,0-0.5,0.1-0.7,0.1c-0.3,0.1-0.5,0.2-0.8,0.3c-0.2,0.1-0.3,0.2-0.4,0.3c-0.2,0.2-0.4,0.3-0.6,0.5c-0.2,0.2-0.4,0.4-0.5,0.6
			c-0.1,0.2-0.3,0.4-0.3,0.6c-0.1,0.2-0.1,0.4-0.1,0.7c0,0.2,0,0.4,0.1,0.6c0.1,0.2,0.2,0.4,0.3,0.6c0,0.1,0,0.2,0,0.3
			c0,0.2,0.2,0.4,0.3,0.6c0.1,0.1,0.2,0.2,0.3,0.4c0.1,0.3,0.4,0.5,0.7,0.7c0.1,0.1,0.2,0.2,0.4,0.2c0.3,0.2,0.6,0.4,0.9,0.5
			c0.3,0.1,0.7,0.3,1.1,0.3c0.2,0,0.4,0.1,0.6,0.1c0.3,0.1,0.7,0.2,1,0.3c0.6,0.1,1.2,0.1,1.8,0.1c0,0,0.1,0,0.1,0
			c0.1,0,0.2,0.1,0.2,0.1c0.9,0.3,2.1,0.4,3,0c0.2-0.1,0.3-0.2,0.5-0.2c0.2-0.1,0.4-0.3,0.5-0.4c0,0,0,0,0,0c0.2,0,0.3-0.1,0.5-0.1
			c0.1,0,0.2,0,0.3,0c0.2,0,0.5,0,0.7,0c0.2,0,0.4-0.1,0.6-0.1c0.3-0.1,0.6-0.2,0.8-0.3c0,0,0,0,0,0c0,0,0,0,0,0
			c0.3-0.1,0.6-0.1,0.9-0.3c0.2-0.1,0.4-0.2,0.6-0.3c0.2-0.1,0.4-0.3,0.6-0.4c0.2-0.2,0.4-0.4,0.6-0.7c0.1-0.1,0.1-0.2,0.1-0.3
			c0,0,0,0,0,0c0,0,0-0.1,0-0.1c0,0,0,0,0,0c0.1-0.1,0.2-0.3,0.2-0.4c0.1-0.2,0.1-0.5,0.1-0.7c0,0,0,0,0,0c0,0,0,0,0,0
			C302.7,36.3,302.6,35.9,302.5,35.5z"/>
	</g>
	<g>
		<path class="st0" d="M303.8,48.4c-0.1-0.4-0.2-0.8-0.3-1.2c0-0.1,0-0.2,0-0.3c-0.1-0.3-0.2-0.7-0.3-1c0-0.1-0.1-0.2-0.1-0.3
			c0-0.1,0-0.2,0-0.3c-0.1-0.5-0.3-0.9-0.6-1.4c-0.1-0.2-0.2-0.3-0.4-0.5c-0.3-0.6-0.8-1.1-1.5-1.3c-0.2-0.1-0.4-0.1-0.6-0.1
			c-0.2,0-0.5,0-0.7,0c-0.1,0-0.2,0-0.3,0c-0.2,0-0.4,0-0.6,0c-0.4,0-0.9,0-1.3,0.1c-0.5,0.1-0.9,0.2-1.4,0.3
			c-0.5,0.2-1.1,0.4-1.6,0.7c-0.2,0.1-0.4,0.3-0.6,0.4c-0.1,0.1-0.2,0.2-0.4,0.3c-0.2,0.1-0.4,0.2-0.6,0.2c-0.3,0.1-0.6,0.1-0.9,0.2
			c-0.2,0-0.4,0-0.6-0.1c-0.2,0-0.3-0.1-0.4-0.2c-0.2-0.1-0.3-0.2-0.4-0.3c-0.2-0.2-0.3-0.4-0.5-0.6c-0.2-0.4-0.4-0.9-0.6-1.3
			c-0.1-0.3-0.2-0.7-0.2-1.1c-0.1-0.6-0.2-1.2-0.2-1.8c0-1.2,0.1-2.4,0.4-3.6c0.1-0.5,0.3-0.9,0.5-1.4c0.8-0.8,1.7-1.5,2.7-2.1
			c0.7-0.4,1.3-0.7,2.1-0.9c0.2-0.1,0.4-0.1,0.7-0.1c0.5-0.1,1-0.1,1.6-0.1c0.6,0,1.1,0,1.7-0.1c0.7,0,1.4-0.2,2-0.4
			c0.6-0.2,1.2-0.5,1.7-0.8c0.3-0.2,0.5-0.5,0.8-0.8c0.3-0.3,0.5-0.7,0.6-1.1c0.2-0.3,0.2-0.7,0.3-1.1c0-0.2,0.1-0.4,0.1-0.6
			c0-0.3,0-0.6-0.1-0.9c-0.1-0.4-0.2-0.7-0.3-1c-0.1-0.5-0.4-0.9-0.6-1.3c-0.3-0.6-0.7-1.1-1-1.6c0,0,0,0,0,0c0,0,0,0,0,0
			c-0.1-0.2-0.2-0.3-0.3-0.5c-0.1-0.2-0.3-0.3-0.5-0.5c-0.1-0.1-0.2-0.2-0.3-0.2c-0.1,0-0.1-0.1-0.2-0.1c-0.3-0.2-0.6-0.5-0.9-0.7
			c-0.4-0.2-0.8-0.4-1.3-0.6c-0.5-0.2-1-0.3-1.4-0.3c-0.9-0.1-1.9,0-2.8,0.1c-1,0.2-2,0.5-2.9,0.8c-0.9,0.4-1.8,0.8-2.7,1.3
			c-0.3,0.2-0.6,0.4-0.9,0.5c-0.1,0-0.1,0-0.2,0c-0.2,0-0.5,0-0.7,0c-0.1,0-0.3,0-0.4,0.1c-0.1,0-0.2,0-0.2,0.1
			c-0.4,0-0.7,0.1-1.1,0.2c-0.4,0.1-0.9,0.3-1.3,0.5c-0.4,0.2-0.9,0.5-1.2,0.8c-0.7,0.6-1.3,1.3-1.9,2c-0.6,0.8-1,1.7-1.4,2.6
			c-0.4,0.9-0.7,1.8-1,2.8c-0.4,1.4-0.7,2.9-0.9,4.3c-0.2,0.7-0.3,1.3-0.3,2c-0.1,0.8-0.1,1.6-0.1,2.4c0.1,1.4,0.4,2.8,0.8,4.1
			c0.3,0.9,0.6,1.8,1.1,2.6c0.3,0.6,0.7,1.3,1.1,1.8c0,0.1,0,0.1,0.1,0.2c0,0.1,0.1,0.1,0.1,0.2c0,0,0,0,0,0c0,0,0,0,0,0
			c0.3,0.4,0.5,0.8,0.8,1.2c0,0,0.1,0.1,0.1,0.1c0.3,0.3,0.6,0.7,0.9,1c0,0,0,0.1,0.1,0.1c0.1,0.2,0.3,0.5,0.5,0.7c0,0,0,0,0,0
			c0.2,0.2,0.4,0.5,0.7,0.7c0.4,0.3,0.8,0.6,1.3,0.8c0.2,0.1,0.4,0.2,0.6,0.3c0,0,0,0,0,0c0.3,0.2,0.7,0.4,1,0.5
			c0.2,0.1,0.3,0.2,0.5,0.3c0.8,0.4,1.7,0.8,2.6,1.1c0.7,0.2,1.4,0.4,2.1,0.5c0,0,0.1,0.1,0.1,0.1c0.1,0,0.1,0,0.2,0.1c0,0,0,0,0,0
			c0,0,0,0,0,0c0.5,0.1,1,0.2,1.5,0.3c0,0,0.1,0,0.1,0c0.4,0,0.9,0.1,1.3,0.1c0,0,0.1,0,0.1,0c0.3,0.1,0.5,0.1,0.8,0.2c0,0,0,0,0,0
			c0.3,0,0.6,0,0.9,0c0.5,0,1-0.2,1.5-0.3c0.2-0.1,0.4-0.2,0.6-0.3c0,0,0,0,0,0c1.2-0.3,2.3-0.8,3.3-1.5c0.2-0.2,0.5-0.4,0.7-0.6
			c0.2-0.2,0.3-0.4,0.5-0.6c0.2-0.3,0.3-0.6,0.4-0.9c0.1-0.3,0.2-0.6,0.3-1c0-0.3,0.1-0.5,0.1-0.8C303.9,49,303.8,48.7,303.8,48.4z"
			/>
	</g>
</g>
<g>
	<path class="st0" d="M233.5,39.1c0-0.4-0.1-0.8-0.2-1.3c0-0.4,0-0.8-0.1-1.1c-0.1-1.2-0.4-2.4-0.8-3.5c-0.3-0.6-0.5-1.2-0.9-1.8
		c-0.4-0.6-0.8-1.2-1.3-1.7c-0.8-1-1.9-1.9-3-2.7c-1.1-0.8-2.3-1.3-3.5-1.7c-0.5-0.2-1.1-0.3-1.7-0.3c-0.8-0.1-1.5-0.2-2.3-0.2
		c0,0-0.1,0-0.1,0c-1.3,0-2.7,0.2-4,0.4c-2.3,0.3-4.5,1.1-6.4,2.5c-0.3,0.2-0.7,0.5-1,0.8c-0.1,0.1-0.2,0.2-0.4,0.3
		c-0.4,0.4-0.8,0.8-1.2,1.2c-0.4,0.5-0.9,1.1-1.2,1.7c-0.6,1-1.1,2.1-1.6,3.2c-0.6,1.4-0.8,3-1,4.5c-0.1,1.4,0,2.9,0.3,4.3
		c0.3,1.4,0.8,2.7,1.5,3.9c0.3,0.5,0.6,1.1,1,1.6c0.5,0.6,0.9,1.2,1.5,1.8c0.5,0.5,1.1,1,1.7,1.4c0.5,0.4,1.1,0.8,1.7,1.1
		c0.6,0.4,1.3,0.7,2,0.9c0.6,0.3,1.3,0.4,2,0.6c4,0.9,8.2-0.1,11.7-2.1c0.9-0.5,1.7-1.1,2.5-1.8c0.6-0.5,1.1-1.1,1.5-1.8
		c0.4-0.4,0.7-0.8,1-1.2c0.4-0.6,0.8-1.2,1-1.8c0.4-0.8,0.6-1.6,0.8-2.4C233.6,42.4,233.6,40.7,233.5,39.1z M222.1,41.1
		c0,0.2-0.1,0.4-0.2,0.5c-0.1,0.2-0.2,0.4-0.2,0.6c-0.1,0.2-0.2,0.3-0.3,0.5c-0.1,0.1-0.1,0.2-0.2,0.2c-0.1,0.1-0.2,0.2-0.4,0.3
		c-0.1,0.1-0.2,0.1-0.3,0.1c-0.1,0-0.1,0-0.2,0c0,0,0,0-0.1,0.1c-0.1,0.1-0.1,0.1-0.2,0.1c-0.1,0.1-0.2,0.1-0.3,0.1
		c-0.1,0-0.3,0-0.4,0c0,0,0,0,0,0c-0.1,0-0.1,0-0.2,0c-0.2,0-0.4,0-0.6,0c-0.1,0-0.2,0-0.2,0c0,0-0.1,0-0.1,0
		c-0.2,0.1-0.4,0.1-0.6,0.1c-0.2,0.1-0.3,0.1-0.5,0.2c-0.2,0-0.4,0-0.5,0c-0.1,0-0.2,0-0.3,0c-0.3-0.1-0.5-0.1-0.8-0.3
		c-0.2-0.1-0.3-0.2-0.5-0.4c-0.1-0.1-0.2-0.3-0.4-0.4c-0.1-0.1-0.1-0.2-0.2-0.4c-0.1-0.2-0.2-0.4-0.3-0.6c-0.1-0.3-0.2-0.7-0.2-1
		c0-0.3,0-0.7,0-1.1c0,0,0,0,0,0c0,0,0,0,0,0c0-0.2,0-0.4,0.1-0.7c0-0.1,0.1-0.3,0.1-0.4c0,0,0,0,0,0c0,0,0-0.1,0-0.1c0,0,0,0,0,0
		c0-0.1,0-0.2,0.1-0.2c0.1-0.2,0.2-0.5,0.3-0.6c0.1-0.1,0.2-0.3,0.3-0.4c0.1-0.1,0.2-0.2,0.3-0.3c0.1-0.1,0.3-0.2,0.4-0.2
		c0,0,0,0,0,0c0,0,0,0,0,0c0.1-0.1,0.2-0.3,0.4-0.3c0.1,0,0.2-0.1,0.3-0.1c0.1,0,0.2,0,0.3,0c0,0,0.1,0,0.1,0c0.1,0,0.2-0.1,0.2-0.1
		c0,0,0,0,0,0c0.1-0.1,0.1-0.3,0.2-0.4c0.1-0.1,0.1-0.2,0.2-0.2c0.4-0.3,0.9-0.3,1.3,0c0.2,0.1,0.3,0.3,0.4,0.6
		c0.1,0,0.2-0.1,0.3-0.1c0.1,0,0.2,0,0.3,0c0.1,0,0.2,0,0.3,0.1c0.1,0,0.2,0.1,0.3,0.1c0.3,0.2,0.5,0.4,0.7,0.8
		c0.1,0.2,0.3,0.4,0.3,0.7c0.1,0.1,0.1,0.1,0.2,0.2c0.1,0.1,0.1,0.2,0.2,0.3c0.1,0.1,0.1,0.2,0.2,0.3c0.1,0.2,0.2,0.4,0.2,0.6
		c0,0.2,0.1,0.4,0.1,0.6c0,0.2,0,0.4,0,0.6C222.2,40.7,222.1,40.9,222.1,41.1z"/>
</g>
<g>
	<g>
		<path class="st0" d="M198.5,43.3c-0.1-0.7-0.3-1.4-0.4-2.1c-0.1-0.4-0.2-0.9-0.4-1.3c-0.5-1.6-1.3-3.1-2.1-4.6
			c-0.1-0.2-0.2-0.3-0.3-0.5c-0.1-0.3-0.2-0.6-0.4-0.9c-0.8-1.7-1.9-3.2-3.2-4.5c-0.6-0.6-1.2-1.2-1.9-1.8c-0.8-0.6-1.6-1.2-2.5-1.7
			c-1.5-0.9-3.2-1.5-4.9-2c0,0,0,0-0.1,0c-0.3-0.1-0.6-0.2-0.9-0.2c-0.9-0.2-1.8-0.3-2.7-0.4c-0.9-0.1-1.8-0.1-2.7,0
			c-0.1,0-0.1,0-0.2,0c-0.1,0-0.2,0-0.3,0c0,0,0,0,0,0c0,0,0,0,0,0c-0.4,0-0.7,0-1.1,0c-0.3,0-0.6,0-0.9,0c-0.1,0-0.1,0-0.2,0
			c-0.5,0.1-1.1,0.1-1.6,0.2c0,0-0.1,0-0.1,0c-0.4,0-0.7,0-1.1,0c0,0,0,0,0,0c-0.4,0-0.8,0.1-1.2,0.2c-0.6,0.2-1.2,0.5-1.8,0.8
			c-0.2,0.1-0.5,0.3-0.7,0.5c0,0,0,0,0,0c-0.2,0.1-0.5,0.3-0.7,0.4c-0.9-0.6-1.9-1.2-2.9-1.6c-0.2-0.1-0.3-0.1-0.5-0.2c0,0,0,0,0,0
			c-0.3-0.3-0.6-0.6-0.9-0.8c-0.4-0.2-0.8-0.4-1.2-0.6c-0.9-0.3-1.8-0.5-2.7-0.5c0,0-0.1,0-0.1,0c-0.4,0-0.8,0-1.1,0
			c-1.2-0.2-2.4-0.2-3.7-0.2c-0.6-0.1-1.1-0.1-1.7-0.1c-1.4-0.1-2.8-0.1-4.1,0.1c-0.3,0-0.5,0.1-0.8,0.1c-0.4,0.1-0.8,0.1-1.2,0.2
			c-0.1,0-0.2,0-0.3,0.1c-0.2,0.1-0.4,0.2-0.6,0.4c-1.9,0.3-3.9,0.8-5.7,1.5c-1.2,0.5-2.4,1-3.4,1.8c-0.9,0.7-1.6,1.5-2.2,2.5
			c-0.3,0.5-0.5,1-0.7,1.6c-0.1,0.3-0.2,0.6-0.3,0.9c-0.3,0.7-0.6,1.5-0.8,2.2c0,0.2-0.1,0.3-0.1,0.5c-0.2,1-0.3,2-0.4,3
			c0,0.1,0,0.2,0,0.3c-0.1,0.3-0.2,0.7-0.2,1.1c0,0.1,0,0.2,0,0.4c0,0.1,0.1,0.1,0.2,0.2c0,0.1,0,0.2,0,0.3c-0.1,0.5-0.1,1-0.2,1.5
			c-0.1,0.4-0.2,0.8-0.3,1.2c-0.1,0.3-0.1,0.6-0.1,0.9c0.1,0.7,0.2,1.5,0.3,2.2c0,0.2,0.1,0.3,0.2,0.4c0,0,0,0,0,0.1
			c-0.2,0.7-0.1,1.5,0,2.2c0.1,0.9,0.5,1.8,0.9,2.6c0.5,0.9,1.1,1.7,1.7,2.5c0.3,0.4,0.7,0.7,1,1.1c0.4,0.4,0.9,0.7,1.3,1
			c0.7,0.5,1.6,0.8,2.5,1c0.7,0.2,1.5,0.2,2.2,0.1c0.4,0,0.7-0.1,1.1-0.2c0.4-0.1,0.7-0.2,1.1-0.4c0.6-0.3,1.1-0.6,1.6-1.1
			c0.5-0.4,0.9-1,1.3-1.5c0.3-0.5,0.6-1.1,0.9-1.6c0.3-0.7,0.5-1.3,0.7-2c0.1-0.5,0.3-1.1,0.4-1.6c0.2-0.8,0.3-1.7,0.4-2.5
			c0.1-1.3,0.2-2.5,0.1-3.8c0-0.4-0.1-0.8-0.1-1.2c0-1.1,0-2.2,0-3.3c0.2-0.1,0.4-0.3,0.6-0.4c0.5-0.3,1-0.4,1.6-0.6
			c0.3-0.1,0.5-0.1,0.8-0.1c0.4-0.1,0.8-0.2,1.2-0.2c0.8,0,1.5,0,2.3,0.2c0.4,0.1,0.9,0.2,1.3,0.4c0.2,0.1,0.5,0.2,0.7,0.3
			c0.2,0.1,0.4,0.1,0.5,0.2c0.4,0.2,0.7,0.4,1,0.6c0.1,0.9,0.2,1.7,0.4,2.6c0,0.2,0.1,0.3,0.2,0.4c0,0,0,0,0,0.1
			c-0.2,0.7-0.1,1.5,0,2.2c0.1,0.9,0.5,1.8,0.9,2.6c0,0.1,0.1,0.1,0.1,0.2c0.4,0.8,1,1.6,1.6,2.3c0.3,0.4,0.7,0.7,1,1.1
			c0.4,0.4,0.9,0.7,1.3,1c0.7,0.5,1.6,0.8,2.5,1c0.7,0.2,1.5,0.2,2.2,0.1c0.4,0,0.7-0.1,1.1-0.2c0.4-0.1,0.7-0.2,1.1-0.4
			c0.6-0.3,1.1-0.6,1.6-1.1c0.5-0.4,0.9-1,1.3-1.5c0.3-0.5,0.6-1,0.8-1.5c0-0.1,0.1-0.1,0.1-0.2c0.3-0.7,0.5-1.3,0.7-2
			c0.4-1.3,0.6-2.7,0.7-4.1c0-0.2,0-0.5,0.1-0.7c0.4-0.3,0.8-0.7,1.1-1.1c0.1-0.2,0.2-0.3,0.4-0.5c0.2-0.1,0.4-0.3,0.6-0.4
			c0.4-0.2,0.7-0.3,1.1-0.4c0.2,0,0.5-0.1,0.7-0.1c0.2,0,0.4,0.1,0.6,0.1c0.2,0.1,0.4,0.2,0.6,0.3c0.1,0.1,0.2,0.2,0.3,0.2
			c0.1,2.5,0.3,5,0.7,7.5c0,0.2,0.1,0.3,0.2,0.4c0,0,0,0,0,0.1c-0.2,0.7-0.1,1.5,0,2.2c0.1,0.7,0.4,1.5,0.7,2.2
			c0.1,0.2,0.1,0.3,0.2,0.5c0.5,0.9,1.1,1.7,1.7,2.5c0.3,0.4,0.7,0.7,1,1.1c0.4,0.4,0.9,0.7,1.3,1c0.7,0.5,1.6,0.8,2.5,1
			c0.7,0.2,1.5,0.2,2.2,0.1c0.4,0,0.7-0.1,1.1-0.2c0.4-0.1,0.7-0.2,1.1-0.4c0.6-0.3,1.1-0.6,1.6-1.1c0.5-0.4,0.9-1,1.3-1.5
			c0.3-0.5,0.6-1.1,0.9-1.6c0.3-0.7,0.5-1.3,0.7-2c0.4-1.3,0.6-2.7,0.7-4.1c0-0.1,0-0.1,0-0.2C198.6,44,198.6,43.6,198.5,43.3z"/>
	</g>
	<g>
		<path class="st0" d="M174.5,40.6c-0.1-0.7-0.3-1.4-0.4-2.1c-0.1-0.4-0.2-0.9-0.4-1.3c-0.5-1.6-1.3-3.1-2.1-4.6
			c-0.1-0.2-0.2-0.3-0.3-0.5c-0.1-0.3-0.2-0.6-0.4-0.9c-0.8-1.7-1.9-3.2-3.2-4.5c-0.4-0.4-0.9-0.9-1.4-1.3c0,0,0,0-0.1,0
			c-0.9-0.6-1.9-1.2-2.9-1.6c-0.2-0.1-0.3-0.1-0.5-0.2c0,0,0,0,0,0c-0.3-0.3-0.6-0.6-0.9-0.8c-0.4-0.2-0.8-0.4-1.2-0.6
			c-0.9-0.3-1.8-0.5-2.7-0.5c0,0-0.1,0-0.1,0c-0.4,0-0.8,0-1.1,0c-1.2-0.2-2.4-0.2-3.7-0.2c-0.6-0.1-1.1-0.1-1.7-0.1
			c-1.1-0.1-2.2,0-3.3,0.1c-0.3,0-0.5,0-0.8,0.1c-0.3,0-0.5,0.1-0.8,0.1c-0.4,0.1-0.8,0.1-1.2,0.2c-0.1,0-0.2,0-0.3,0.1
			c-0.2,0.1-0.4,0.2-0.6,0.4c-1.9,0.3-3.9,0.8-5.7,1.5c-1.2,0.5-2.4,1-3.4,1.8c-0.9,0.7-1.6,1.5-2.2,2.5c-0.3,0.5-0.5,1-0.7,1.6
			c-0.1,0.3-0.2,0.6-0.3,0.9c-0.3,0.7-0.6,1.5-0.8,2.2c0,0.2-0.1,0.3-0.1,0.5c-0.2,1-0.3,2-0.4,3c0,0.1,0,0.2,0,0.3
			c-0.1,0.3-0.2,0.7-0.2,1.1c0,0.1,0,0.2,0,0.4c0,0.1,0.1,0.1,0.2,0.2c0,0.1,0,0.2,0,0.3c-0.1,0.5-0.1,1-0.2,1.5
			c-0.1,0.4-0.2,0.8-0.3,1.2c-0.1,0.3-0.1,0.6-0.1,0.9c0.1,0.7,0.2,1.5,0.3,2.2c0,0.2,0.1,0.3,0.2,0.4c0,0,0,0,0,0.1
			c-0.2,0.7-0.1,1.5,0,2.2c0.1,0.9,0.5,1.8,0.9,2.6c0.5,0.9,1.1,1.7,1.7,2.5c0.3,0.4,0.7,0.7,1,1.1c0.4,0.4,0.9,0.7,1.3,1
			c0.7,0.5,1.6,0.8,2.5,1c0.7,0.2,1.5,0.2,2.2,0.1c0.4,0,0.7-0.1,1.1-0.2c0.4-0.1,0.7-0.2,1.1-0.4c0.6-0.3,1.1-0.6,1.6-1.1
			c0.5-0.4,0.9-1,1.3-1.5c0.3-0.5,0.6-1.1,0.9-1.6c0.3-0.7,0.5-1.3,0.7-2c0.1-0.5,0.3-1.1,0.4-1.6c0.2-0.8,0.3-1.7,0.4-2.5
			c0.1-1.3,0.2-2.5,0.1-3.8c0-0.4-0.1-0.8-0.1-1.2c0-1.1,0-2.2,0-3.3c0.2-0.1,0.4-0.3,0.6-0.4c0.5-0.3,1-0.4,1.6-0.6
			c0.3-0.1,0.5-0.1,0.8-0.1c0.2-0.1,0.4-0.1,0.6-0.1c0.2,0,0.4-0.1,0.7-0.1c0.2,0,0.4,0,0.5,0c0.6,0,1.2,0,1.8,0.2
			c0.4,0.1,0.9,0.2,1.3,0.4c0.2,0.1,0.5,0.2,0.7,0.3c0.2,0.1,0.4,0.1,0.5,0.2c0,0,0.1,0.1,0.1,0.1c0.3,0.1,0.6,0.3,0.9,0.5
			c0.1,0.9,0.2,1.7,0.4,2.6c0,0.2,0.1,0.3,0.2,0.4c0,0,0,0,0,0.1c-0.2,0.7-0.1,1.5,0,2.2c0.1,0.9,0.5,1.8,0.9,2.6
			c0,0.1,0.1,0.1,0.1,0.2c0.4,0.8,1,1.6,1.6,2.3c0.3,0.4,0.7,0.7,1,1.1c0.4,0.4,0.9,0.7,1.3,1c0.7,0.5,1.6,0.8,2.5,1
			c0.7,0.2,1.5,0.2,2.2,0.1c0.4,0,0.7-0.1,1.1-0.2c0.4-0.1,0.7-0.2,1.1-0.4c0.6-0.3,1.1-0.6,1.6-1.1c0.5-0.4,0.9-1,1.3-1.5
			c0.3-0.5,0.6-1,0.8-1.5c0-0.1,0.1-0.1,0.1-0.2c0.2-0.4,0.3-0.8,0.4-1.2c0.2-0.9,0.3-1.7,0.4-2.6c0-0.1,0-0.1,0-0.2
			C174.6,41.3,174.6,41,174.5,40.6z"/>
	</g>
</g>
<g>
	<g>
		<path class="st0" d="M271.6,30.2c0-0.4-0.1-0.9-0.2-1.3c-0.1-0.6-0.3-1.2-0.5-1.7c-0.3-0.7-0.5-1.4-0.9-2c0,0,0,0,0,0c0,0,0,0,0,0
			c-0.1-0.2-0.2-0.4-0.3-0.6c-0.1-0.2-0.3-0.4-0.4-0.6c-0.1-0.1-0.2-0.2-0.3-0.3c-0.1-0.1-0.1-0.1-0.2-0.2c-0.2-0.3-0.5-0.6-0.8-0.9
			c-0.4-0.3-0.8-0.6-1.2-0.8c-0.4-0.2-0.9-0.4-1.4-0.5c-0.9-0.2-1.8-0.2-2.8-0.1c-1,0.1-2,0.4-3,0.8c-0.9,0.4-1.9,0.8-2.8,1.3
			c-1.8,1-3.5,2.3-5.1,3.7c-0.1,0.1-0.2,0.2-0.3,0.3c0.7,0.2,1.3,0.4,1.9,0.8c0.5,0.3,0.9,0.6,1.3,1c0.4,0.3,0.7,0.7,1,1.1
			c0.6,0.9,1,1.9,1.2,3c0.2,1.1,0.2,2.2,0.2,3.3c-0.1,1.1-0.2,2.3-0.3,3.4c0.8-0.8,1.7-1.6,2.7-2.2c0.7-0.4,1.4-0.7,2.1-1
			c0.2,0,0.5-0.1,0.7-0.1c0.5,0,1,0,1.6,0c0.6,0,1.1,0.1,1.7,0.1c0.7,0,1.4-0.1,2.1-0.3c0.6-0.2,1.2-0.5,1.7-0.9
			c0.3-0.2,0.6-0.6,0.8-0.9c0.3-0.4,0.5-0.8,0.7-1.3c0.2-0.4,0.3-0.8,0.4-1.3c0.1-0.2,0.1-0.5,0.1-0.7
			C271.5,31,271.6,30.6,271.6,30.2z"/>
	</g>
	<g>
		<path class="st0" d="M257.8,47c-0.1-0.6-0.1-1.2-0.2-1.9c0-0.5,0-1,0-1.5c0-1.2-0.1-2.5-0.3-3.7c0-0.2,0-0.3,0-0.5
			c0.1-1,0.2-1.9,0.3-2.9c0.1-0.9,0.1-1.8,0.1-2.8c0-0.9-0.2-1.8-0.5-2.7c-0.3-0.9-0.8-1.7-1.4-2.3c-0.3-0.3-0.7-0.6-1.1-0.8
			c-0.4-0.3-0.9-0.5-1.4-0.7c-0.6-0.2-1.3-0.4-1.9-0.5c-0.3,0-0.6-0.1-1-0.1c-0.1,0-0.2,0-0.2,0c-0.3,0-0.6,0-0.9,0.1c0,0,0,0,0,0
			c-0.2-0.1-0.5-0.1-0.7-0.1c0,0,0,0,0,0c-0.2,0-0.5,0-0.7,0.1c-0.1,0-0.3,0.1-0.4,0.1c-0.2,0-0.3,0.1-0.5,0.2
			c-0.3,0.1-0.6,0.2-0.9,0.4c-0.4,0.2-0.7,0.4-1,0.6c-0.5,0.3-0.9,0.7-1.3,1.1c-0.4,0.4-0.7,0.8-1,1.2c-0.3,0.4-0.5,0.9-0.7,1.3
			c-0.1,0.3-0.2,0.6-0.3,1c-0.1,0.5-0.1,1-0.2,1.5c-0.1,0.9-0.1,1.9,0,2.8c0.1,0.8,0.2,1.6,0.3,2.3c-0.1,1.1-0.2,2.2-0.3,3.4
			c0,0.5,0,0.9-0.1,1.4c0,0.1,0,0.2,0,0.2c0,0.2,0.1,0.3,0.2,0.4c0,0,0,0,0,0.1c-0.2,0.7-0.1,1.5,0,2.2c0.1,0.9,0.5,1.8,0.9,2.6
			c0.5,0.9,1.1,1.7,1.7,2.5c0.3,0.4,0.7,0.7,1,1.1c0.4,0.4,0.9,0.7,1.3,1c0.7,0.5,1.6,0.8,2.5,1c0.7,0.2,1.5,0.2,2.2,0.1
			c0.4,0,0.7-0.1,1.1-0.2c0.1,0,0.2-0.1,0.2-0.1c0.3-0.1,0.6-0.2,0.8-0.3c0.6-0.3,1.1-0.6,1.6-1.1c0.5-0.4,0.9-1,1.3-1.5
			c0.3-0.5,0.6-1.1,0.9-1.6c0.3-0.6,0.5-1.2,0.7-1.9C257.9,48.2,257.8,47.6,257.8,47z"/>
	</g>
</g>
</svg>
