<?xml version="1.0" encoding="utf-8"?>
<!-- Generator: Adobe Illustrator 23.1.1, SVG Export Plug-In . SVG Version: 6.00 Build 0)  -->
<svg version="1.1" id="Layer_1" xmlns="http://www.w3.org/2000/svg" xmlns:xlink="http://www.w3.org/1999/xlink" x="0px" y="0px"
	 viewBox="0 0 240.8 109" style="enable-background:new 0 0 240.8 109;" xml:space="preserve">
<style type="text/css">
	.st0{fill:#2C2C2C;}
	.st1{fill:#FFFFFF;}
</style>
<path class="st0" d="M130,44.4c0.2-0.1,0.4-0.1,0.7-0.1c0.5-0.1,1-0.1,1.6-0.1s1.1,0,1.7-0.1c0.7,0,1.4-0.2,2-0.4s1.2-0.5,1.7-0.8
	c0.3-0.2,0.5-0.5,0.8-0.8s0.5-0.7,0.6-1.1c0.2-0.3,0.2-0.7,0.3-1.1c0-0.2,0.1-0.4,0.1-0.6c0-0.3,0-0.6-0.1-0.9
	c-0.1-0.4-0.2-0.7-0.3-1c-0.1-0.5-0.4-0.9-0.6-1.3c-0.3-0.6-0.7-1.1-1-1.6c-0.1-0.2-0.2-0.3-0.3-0.5s-0.3-0.3-0.5-0.5
	c-0.1-0.1-0.2-0.2-0.3-0.2s-0.1-0.1-0.2-0.1c-0.3-0.2-0.6-0.5-0.9-0.7c-0.4-0.2-0.8-0.4-1.3-0.6c-0.5-0.2-1-0.3-1.4-0.3
	c-0.9-0.1-1.9,0-2.8,0.1c-1,0.2-2,0.5-2.9,0.8c-0.9,0.4-1.8,0.8-2.7,1.3c-0.4,0.2-0.8,0.4-1.1,0.6c-0.1,0-0.1,0-0.2,0
	c-0.2,0-0.5,0-0.7,0c-0.1,0-0.3,0-0.4,0.1c-0.1,0-0.2,0-0.2,0.1c-0.4,0-0.7,0.1-1.1,0.2c-0.4,0.1-0.9,0.3-1.3,0.5s-0.9,0.5-1.2,0.8
	c-0.7,0.6-1.3,1.3-1.9,2c-0.6,0.8-1,1.7-1.4,2.6c-0.4,0.9-0.7,1.8-1,2.8c-0.3,1.2-0.5,2.6-0.7,4c0,0,0,0,0,0.1
	c-0.2,0.7-0.3,1.3-0.4,2c-0.1,0.8-0.1,1.6-0.1,2.4c0.1,1.4,0.4,2.8,0.8,4.1c0.3,0.9,0.6,1.8,1.1,2.6c0.3,0.6,0.7,1.3,1.1,1.8
	c0,0.1,0,0.1,0.1,0.2c0,0.1,0.1,0.1,0.1,0.2c0.3,0.4,0.5,0.8,0.8,1.2l0.1,0.1c0.3,0.3,0.6,0.7,0.9,1c0,0,0,0.1,0.1,0.1
	c0.1,0.2,0.3,0.5,0.5,0.7c0.2,0.2,0.4,0.5,0.7,0.7c0.4,0.3,0.8,0.6,1.3,0.8c0.2,0.1,0.4,0.2,0.6,0.3c0.3,0.2,0.6,0.4,1,0.5
	c0.2,0.1,0.3,0.2,0.5,0.3c0.8,0.4,1.7,0.8,2.6,1.1c0.7,0.2,1.4,0.4,2.1,0.5l0.1,0.1c0.1,0,0.1,0,0.2,0.1c0.5,0.1,1,0.2,1.5,0.3h0.1
	c0.4,0,0.9,0.1,1.3,0.1h0.1c0.3,0.1,0.5,0.1,0.8,0.2c0.3,0,0.6,0,0.9,0c0.5,0,1-0.2,1.5-0.3c0.2-0.1,0.4-0.2,0.6-0.3
	c1.2-0.3,2.3-0.8,3.3-1.5c0.2-0.2,0.5-0.4,0.7-0.6s0.3-0.4,0.5-0.6c0.2-0.3,0.3-0.6,0.4-0.9c0.1-0.3,0.2-0.6,0.3-1
	c0-0.3,0.1-0.5,0.1-0.8c0-0.4,0-0.7-0.1-1.1c-0.1-0.4-0.2-0.8-0.3-1.2c0-0.1,0-0.2,0-0.3c-0.1-0.3-0.2-0.7-0.3-1
	c0-0.1-0.1-0.2-0.1-0.3s0-0.2,0-0.3c-0.1-0.5-0.3-0.9-0.6-1.4c-0.1-0.2-0.2-0.3-0.4-0.5c-0.3-0.6-0.8-1.1-1.5-1.3
	c-0.2-0.1-0.4-0.1-0.6-0.1c-0.2,0-0.5,0-0.7,0c-0.1,0-0.2,0-0.3,0c-0.2,0-0.4,0-0.6,0c-0.4,0-0.9,0-1.3,0.1
	c-0.5,0.1-0.9,0.2-1.4,0.3s-0.9,0.3-1.3,0.6l-0.1-0.1c-0.3-0.3-0.6-0.6-1-0.9c-0.4-0.3-0.8-0.5-1.2-0.7c-0.3-0.2-0.7-0.3-1.1-0.4
	c0.4,0,0.8,0,1.3,0h0.1c0.1,0,0.2,0.1,0.2,0.1c0.9,0.3,2.1,0.4,3,0c0.2-0.1,0.3-0.2,0.5-0.2c0.2-0.1,0.4-0.3,0.5-0.4
	c0.2,0,0.3-0.1,0.5-0.1c0.1,0,0.2,0,0.3,0c0.2,0,0.5,0,0.7,0s0.4-0.1,0.6-0.1c0.3-0.1,0.6-0.2,0.8-0.3c0.3-0.1,0.6-0.1,0.9-0.3
	c0.2-0.1,0.4-0.2,0.6-0.3c0.2-0.1,0.4-0.3,0.6-0.4c0.2-0.2,0.4-0.4,0.6-0.7c0.1-0.1,0.1-0.2,0.1-0.3v-0.1c0.1-0.1,0.2-0.3,0.2-0.4
	c0.1-0.2,0.1-0.5,0.1-0.7c0.2-0.4,0.1-0.8,0-1.2s-0.3-0.7-0.5-1c-0.2-0.2-0.4-0.4-0.6-0.6c-0.1-0.1-0.3-0.2-0.5-0.4
	s-0.5-0.3-0.8-0.4c-0.3-0.1-0.7-0.3-1-0.4c-0.5-0.2-1.1-0.2-1.7-0.3c-0.2,0-0.5,0-0.7,0c-0.4,0-0.8,0-1.2,0.1
	c-0.4,0-0.8,0.1-1.1,0.2c-0.4,0-0.9,0-1.3,0.1c-0.1,0-0.1,0-0.2,0c-0.2,0-0.4,0-0.6,0c-0.5,0-0.9,0-1.3,0c0.4-0.3,0.9-0.7,1.4-1
	C128.6,44.9,129.2,44.6,130,44.4z M125.2,54.1c-0.2,0-0.3,0-0.5,0c-0.2-0.1-0.4-0.2-0.5-0.2l0,0l0,0h0.1c0.2,0,0.4,0.1,0.6,0.1
	C125,54,125.1,54.1,125.2,54.1L125.2,54.1z"/>
<g>
	<path class="st0" d="M73.3,45.4c-0.1-0.5-0.2-1-0.4-1.5c-0.1-0.2-0.2-0.4-0.3-0.5c0-0.1,0-0.3,0-0.4c0-0.8-0.1-1.6-0.2-2.3
		c-0.2-0.8-0.5-1.6-0.8-2.3c-0.3-0.6-0.7-1.1-1.1-1.7c-0.5-0.7-1.1-1.3-1.7-1.8s-1.2-1-1.9-1.4c-0.3-0.2-0.6-0.4-0.9-0.5
		c-0.4-0.2-0.7-0.3-1.1-0.5c-0.7-0.3-1.5-0.6-2.3-0.8c-0.8-0.2-1.7-0.3-2.5-0.4c-1.5-0.1-3,0.1-4.5,0.6c-0.7,0.2-1.5,0.6-2.1,1
		c-0.1,0-0.1,0.1-0.2,0.1c-0.1-0.1-0.2-0.2-0.3-0.2c-0.7-0.5-1.6-0.8-2.5-1c-0.7-0.2-1.5-0.2-2.2-0.1c-0.4,0-0.7,0.1-1.1,0.2
		c-0.4,0.1-0.7,0.2-1.1,0.4c-0.6,0.3-1.1,0.6-1.6,1.1c-0.5,0.4-0.9,1-1.3,1.5c-0.3,0.5-0.6,1.1-0.9,1.6c-0.3,0.7-0.5,1.3-0.7,2
		c-0.4,1.3-0.6,2.7-0.7,4.1c-0.2,1.1-0.3,2.3-0.2,3.6c0,0.4,0.1,0.8,0.1,1.2c0,1.2,0,2.5,0.1,3.7c0.1,3.1,0.5,6.1,0.8,9.2
		c0.1,0.6,0.1,1.2,0.2,1.9c0,1.7,0.1,3.4,0.3,5.2c0,0.2,0,0.3,0,0.5c-0.1,1.9-0.4,3.7-0.3,5.6c0,0.9,0.2,1.8,0.5,2.7
		c0.3,0.9,0.8,1.7,1.4,2.3c0.3,0.3,0.7,0.6,1.1,0.8c0.4,0.3,0.9,0.5,1.4,0.7c0.9,0.4,1.9,0.6,2.9,0.6c0.1,0,0.2,0,0.2,0
		c0.3,0,0.6,0,0.9-0.1c0.2,0.1,0.5,0.1,0.7,0.1s0.5,0,0.7-0.1c0.1,0,0.3-0.1,0.4-0.1c0.2,0,0.3-0.1,0.5-0.2c0.3-0.1,0.6-0.2,0.9-0.4
		c0.4-0.2,0.7-0.4,1-0.6c0.5-0.3,0.9-0.7,1.3-1.1c0.4-0.4,0.7-0.8,1-1.2c0.3-0.4,0.5-0.9,0.7-1.3c0.1-0.3,0.2-0.6,0.3-1
		c0.1-0.5,0.1-1,0.2-1.5c0.1-0.9,0.1-1.9,0-2.8c-0.1-0.8-0.2-1.6-0.3-2.3c0.1-1.1,0.2-2.2,0.3-3.4c0-0.6,0.1-1.3,0.1-1.9
		c0.1-0.9,0.1-1.9,0.1-2.8c0-0.1,0-0.3,0.1-0.4c0.2-1,0.3-1.9,0.4-2.9c0.4,0,0.8,0,1.1,0c0.8,0,1.6-0.2,2.4-0.3
		c1.4-0.3,2.7-0.8,4-1.4c0.7-0.3,1.3-0.7,1.9-1.2c0.4-0.2,0.8-0.5,1.2-0.8c0.8-0.6,1.6-1.3,2.2-2c0.3-0.4,0.6-0.9,0.9-1.3
		c0.3-0.5,0.5-1,0.7-1.5s0.2-1,0.3-1.5C73.4,46.2,73.4,45.8,73.3,45.4z"/>
	<path class="st1" d="M60.8,46.6c-0.1,0-0.2,0.1-0.4,0.1c-0.1,0.1-0.3,0.1-0.4,0.1l0,0c0,0-0.1,0.1-0.2,0.1
		c-0.1,0.1-0.3,0.1-0.4,0.2h-0.1l0,0c-0.1,0.1-0.2,0.1-0.2,0.1c-0.1,0-0.2,0-0.3,0s-0.1,0-0.2,0c0,0,0,0-0.1,0c0,0-0.1,0-0.1,0.1
		c-0.1,0-0.2,0-0.3,0s-0.2,0-0.3-0.1c-0.1,0-0.1-0.1-0.2-0.1c-0.1-0.1-0.2-0.1-0.3-0.2c-0.1-0.1-0.2-0.2-0.3-0.3s-0.2-0.2-0.3-0.3
		s-0.2-0.2-0.3-0.4c-0.1-0.1-0.1-0.3-0.2-0.4c-0.1-0.1-0.1-0.3-0.1-0.4c0-0.2,0-0.3,0-0.5c0-0.1,0-0.2,0-0.3s0-0.2,0-0.2
		c0-0.1,0-0.1,0-0.2c0-0.2,0-0.4,0-0.5c0-0.3,0.1-0.5,0.2-0.7c0-0.1,0.1-0.1,0.1-0.2l0.1-0.1c0,0,0.1-0.1,0.2-0.1
		c0.1,0,0.1,0,0.2-0.1c0-0.2,0-0.3,0.1-0.5c0.1-0.3,0.5-0.5,0.8-0.5c0.1,0,0.1,0,0.2,0.1c0.1,0,0.2,0.1,0.3,0.2l0,0
		c0.1,0,0.1,0,0.2,0c0,0,0.1,0,0.1-0.1c0.1,0,0.1-0.1,0.2-0.1c0.1,0,0.2,0,0.2,0c0.1,0,0.2,0,0.4,0.1l0,0l0,0c0.1,0,0.2,0,0.4,0
		c0.1,0,0.2,0,0.3,0.1c0.1,0,0.2,0.1,0.3,0.2c0.1,0.1,0.3,0.2,0.4,0.3l0.1,0.1l0,0l0,0l0,0c0.1,0.1,0.1,0.1,0.2,0.2
		c0.1,0.1,0.2,0.3,0.3,0.4l0,0l0,0c0.1,0.2,0.2,0.5,0.3,0.7s0.2,0.5,0.2,0.7s0,0.3,0,0.5c0,0.1,0,0.2,0,0.3s0,0.3-0.1,0.4
		c0,0.1-0.1,0.3-0.2,0.4c-0.1,0.2-0.2,0.3-0.4,0.4c-0.1,0.1-0.1,0.1-0.2,0.1C61,46.5,60.9,46.5,60.8,46.6L60.8,46.6L60.8,46.6z"/>
</g>
<g>
	<path class="st0" d="M171.6,47.9c0-0.1-0.1-0.2-0.1-0.2c-0.4-0.7-0.8-1.4-1.4-2c-0.1-0.1-0.2-0.3-0.3-0.4c-0.4-0.4-0.9-0.8-1.5-1
		c0,0-0.1,0-0.1-0.1c-0.4-0.3-0.9-0.4-1.2-0.5c-0.4-0.1-0.8-0.2-1.2-0.3c-0.8-0.2-1.6-0.2-2.6-0.2c-0.9-0.1-1.7-0.2-2.4-0.2
		c-0.2,0-0.3,0-0.5,0c-0.7,0-1.4,0-2,0.1c0,0,0,0-0.1,0l-0.1,0.1l-0.1,0.1c0,0-0.1,0-0.1,0.1c0,0-0.1,0-0.2,0h-0.1
		c-0.1,0-0.1,0-0.2,0h-0.1h-0.1c0,0,0,0-0.1,0s-0.1,0-0.2,0c-0.1,0-0.2-0.1-0.2-0.1s0,0,0-0.1c0,0,0,0,0-0.1c0,0,0,0,0-0.1
		c-0.1,0-0.1,0-0.2,0c-0.1-0.1-0.2-0.2-0.1-0.3c0,0,0,0,0-0.1c0,0,0-0.1,0.1-0.1c0,0,0,0,0-0.1c0,0,0,0,0-0.1c0,0,0,0,0-0.1
		c0,0,0-0.1,0.1-0.1V42v-0.1c0,0,0-0.1,0.1-0.1l0.1-0.1c0,0,0,0,0.1,0c0,0,0.1,0,0.1-0.1c0.1,0,0.1,0,0.2-0.1
		c0.4-0.2,0.8-0.4,1.2-0.5c0.5-0.1,1-0.2,1.5-0.2c0.4,0,0.7,0.1,1.2,0.1h0.1c0.1,0,0.1,0,0.2,0c0.4,0.1,0.7,0.1,1.1,0.2l0.6,0.1
		c0.6,0.1,1.3,0.2,2,0.3c0.3,0,0.7,0,1,0c0.5,0,0.9,0,1.4-0.1c0.2,0,0.4,0,0.6,0c0.1,0,0.2,0,0.4,0s0.4-0.1,0.7-0.1
		c0.3-0.1,0.6-0.2,0.8-0.3c0.3-0.1,0.5-0.3,0.7-0.4c0.2-0.1,0.4-0.3,0.6-0.5c0.2-0.2,0.4-0.4,0.5-0.6l0.1-0.1c0.3-0.3,0.5-0.6,0.7-1
		c0.1-0.2,0.1-0.4,0.2-0.5v-0.1c0-0.1,0.1-0.2,0.1-0.4s0.1-0.4,0.1-0.6c0-0.2,0-0.5,0-0.6v-0.1c0-0.3-0.1-0.5-0.2-0.7
		c-0.1-0.3-0.2-0.6-0.3-0.8s-0.2-0.4-0.3-0.6c0-0.2-0.1-0.3-0.2-0.5c-0.2-0.2-0.4-0.4-0.5-0.6c-0.1-0.1-0.2-0.1-0.3-0.2
		c-0.1-0.1-0.1-0.1-0.2-0.1c0,0-0.1,0-0.1-0.1c0,0-0.1,0-0.1-0.1c-0.1-0.2-0.2-0.3-0.3-0.4c-0.3-0.3-0.7-0.5-1.1-0.7
		c-0.5-0.2-1.1-0.5-1.7-0.7c-0.3-0.1-0.6-0.2-1-0.2c-0.8-0.2-1.7-0.3-2.7-0.3c-0.1,0-0.2,0-0.3,0c-0.5,0-1,0-1.5,0.1
		c-0.1,0-0.1,0-0.2,0c0,0,0,0-0.1,0c0,0-0.1,0-0.2,0c-0.2,0-0.3,0-0.5,0c-0.6,0-1.2,0.1-1.9,0.2c-0.8,0.2-1.7,0.4-2.5,0.8
		c-0.9,0.4-1.7,0.8-2.5,1.3s-1.5,1.2-2.1,1.9c-0.4,0.5-0.8,1.1-1.1,1.6c-0.4,0.5-0.7,1-1,1.6s-0.5,1.2-0.7,1.9
		c-0.1,0.3-0.2,0.6-0.3,1c-0.2,0.4-0.3,0.9-0.3,1.3c-0.1,0.9-0.1,1.8,0,2.7c0,0.3,0,0.6,0,0.9s0,0.5,0,0.8c0,0.1,0,0.1,0,0.2v0.1
		v0.2l0.1,0.4c0.1,0.3,0.2,0.7,0.3,1.1c0.1,0.3,0.2,0.6,0.4,0.8c0,0,0,0,0,0.1v0.1c0.1,0.1,0.1,0.2,0.2,0.3c0,0,0,0.1,0.1,0.1
		c0.1,0.1,0.2,0.3,0.4,0.4c0,0,0,0,0.1,0.1l0.1,0.1l0.4-0.3l-0.3,0.3c0.1,0.1,0.2,0.2,0.3,0.3s0.2,0.1,0.2,0.2h0.1l0.1,0.1l0.1,0.1
		c0,0,0,0,0.1,0l0.1,0.1c0.1,0.1,0.3,0.2,0.4,0.3c0,0,0,0,0.1,0c0,0,0,0,0.1,0h0.1c0.2,0.1,0.4,0.2,0.5,0.2s0.2,0.1,0.3,0.1h0.1h0.1
		h0.1l0.2,0.1h0.1l0.2,0.1h0.1l0.2-0.5l-0.1,0.5c0,0,0,0,0.1,0s0.2,0.1,0.3,0.1h0.1l0.2,0.1h0.1h0.1h0.2h0.1h0.1h0.1h0.1h0.2h0.1
		c0.2,0,0.4,0.1,0.5,0.1s0.3,0,0.4,0c0,0,0,0,0.1,0c0.4,0,0.7,0.1,1.1,0.1h0.1h0.1c0.2,0,0.4-0.1,0.7-0.1h0.1h0.1h0.1h0.1
		c0.1,0,0.2-0.1,0.3-0.1h0.1c0,0,0,0,0.1,0h0.1h0.1c0,0,0,0,0.1,0s0.2,0,0.2,0h0.1c0.3,0,0.5-0.1,0.7-0.1h0.1c0.3,0,0.6-0.1,1-0.2
		h0.2c0.8,0.1,1.4,0.3,1.9,0.5c0.4,0.2,0.7,0.3,1,0.5c0.1,0.1,0.2,0.2,0.3,0.3s0.1,0.2,0.1,0.3v0.1c0,0.1,0,0.2-0.1,0.3
		c0,0.1,0,0.1-0.1,0.2c0,0.1-0.1,0.1-0.1,0.2c-0.1,0.1-0.1,0.1-0.2,0.2h-0.1c-0.2,0.1-0.4,0.2-0.5,0.2l-0.1,0.1c0,0-0.1,0-0.1,0.1
		c-0.2,0-0.4,0.1-0.6,0.1h-0.1c-0.5,0-1-0.2-1.5-0.3c-0.2-0.1-0.5-0.1-0.7-0.2c-0.4-0.1-0.7-0.2-1.1-0.3c-0.3-0.1-0.6-0.1-1-0.2
		c-0.4-0.1-0.8-0.1-1.1-0.1c-0.4,0-0.8,0-1.2,0.1c-0.1,0-0.2,0.1-0.3,0.1c-0.2,0-0.3,0-0.5,0c-0.1,0-0.3,0-0.4,0
		c-1,0-1.8,0.1-2.6,0.4c-1.2,0.3-2.1,0.8-2.8,1.4c-0.9,0.8-1.6,2-1.7,3.2c0,0.4-0.1,0.7-0.1,1s0.1,0.7,0.1,1.1c0,0.1,0,0.2,0.1,0.3
		c0,0.1,0,0.1,0.1,0.2c0,0,0,0,0,0.1c0,0,0,0,0,0.1s0.1,0.2,0.2,0.3l0.1,0.1v0.1c0.1,0.1,0.1,0.1,0.2,0.2l0.2,0.3
		c0.1,0.1,0.2,0.2,0.3,0.4c0.2,0.3,0.6,0.7,1,1.1c0,0,0,0,0.1,0c0.1,0.1,0.2,0.1,0.3,0.2s0.2,0.1,0.3,0.2c0,0,0.1,0,0.1,0.1l0.3-0.4
		l-0.2,0.4h0.1c0.1,0,0.1,0.1,0.2,0.1h0.1c0.2,0.1,0.4,0.2,0.6,0.2l0.3,0.1h0.1h0.1l0.1,0.1h0.1h0.1c0.1,0.1,0.3,0.1,0.4,0.2
		c0.1,0,0.1,0,0.2,0c0.3,0.1,0.7,0.1,1,0.1h0.1c0.1,0,0.2,0,0.3,0c0.1,0.1,0.2,0.1,0.3,0.1c0.4,0,0.9,0,1.3,0c0.4,0,0.9,0,1.3,0
		c0.4,0,0.8-0.1,1.2-0.1c0.3,0,0.7,0,1,0s0.6,0,1,0h0.3h0.3c0.2,0,0.4,0,0.6,0c0.2,0,0.4,0,0.6,0h0.1c0.3,0,0.6,0,1-0.1
		c0.1,0,0.3,0,0.4,0c0.6-0.1,1.2-0.2,1.9-0.4c0.6-0.2,1.2-0.4,1.7-0.7c0.6-0.4,1.2-0.8,1.6-1.2c0.3-0.3,0.5-0.6,0.7-0.9
		c0.2-0.3,0.4-0.6,0.6-0.9c0.1-0.2,0.2-0.4,0.3-0.7c0-0.1,0.1-0.1,0.1-0.2c0.2-0.4,0.4-0.8,0.6-1.3c0.2-0.4,0.3-0.9,0.4-1.4
		c0-0.2,0.1-0.4,0.1-0.7c0-0.1,0-0.2,0.1-0.2c0.3-0.8,0.5-1.7,0.6-2.6c-0.6-1.2-0.7-2.6-1.1-3.9C172.4,49.4,172.1,48.6,171.6,47.9z"
		/>
	<path class="st0" d="M201.4,52c0-0.3,0-0.5,0-0.8c0-0.1,0-0.1,0-0.2v-0.1v-0.2l-0.1-0.4c-0.1-0.3-0.2-0.7-0.3-1.1
		c-0.1-0.3-0.2-0.6-0.4-0.8c0,0,0,0,0-0.1v-0.1c-0.1-0.1-0.1-0.2-0.2-0.3c0,0,0-0.1-0.1-0.1c-0.1-0.1-0.2-0.3-0.4-0.4
		c0,0,0,0-0.1-0.1l-0.1-0.1l-0.4,0.3l0.3-0.3c-0.1-0.1-0.2-0.2-0.3-0.3s-0.2-0.1-0.2-0.2H199l-0.1-0.1l-0.1-0.1c0,0,0,0-0.1,0
		l-0.1-0.1c-0.1-0.1-0.3-0.2-0.4-0.3c0,0,0,0-0.1,0c0,0,0,0-0.1,0h-0.1c-0.2-0.1-0.4-0.2-0.5-0.2s-0.2-0.1-0.3-0.1H197h-0.1h-0.1
		l-0.2-0.1h-0.1l-0.2-0.1h-0.1l-0.2,0.5l0.1-0.5c0,0,0,0-0.1,0s-0.2-0.1-0.3-0.1h-0.1l-0.2-0.1h-0.1h-0.1H195h-0.1h-0.1h-0.1h-0.1
		h-0.2h-0.1c-0.2,0-0.4-0.1-0.5-0.1s-0.3,0-0.4,0c0,0,0,0-0.1,0c-0.4,0-0.7-0.1-1.1-0.1h-0.1H192c-0.2,0-0.4,0.1-0.7,0.1h-0.1h-0.1
		H191h-0.1c-0.1,0-0.2,0.1-0.3,0.1h-0.1c0,0,0,0-0.1,0h-0.1h-0.1c0,0,0,0-0.1,0s-0.2,0-0.2,0h-0.1c-0.3,0-0.5,0.1-0.7,0.1H189
		c-0.3,0-0.6,0.1-1,0.2h-0.2c-0.8-0.1-1.4-0.3-1.9-0.5c-0.4-0.2-0.7-0.3-1-0.5c-0.1-0.1-0.2-0.2-0.3-0.3s-0.1-0.2-0.1-0.3V44
		c0-0.1,0-0.2,0.1-0.3c0-0.1,0-0.1,0.1-0.2c0-0.1,0.1-0.1,0.1-0.2c0.1-0.1,0.1-0.1,0.2-0.2h0.1c0.2-0.1,0.4-0.2,0.5-0.2l0.1-0.1
		c0,0,0.1,0,0.1-0.1c0.2,0,0.4-0.1,0.6-0.1h0.1c0.5,0,1,0.2,1.5,0.3c0.2,0.1,0.5,0.1,0.7,0.2c0.4,0.1,0.7,0.2,1.1,0.3
		c0.3,0.1,0.6,0.1,1,0.2c0.4,0.1,0.8,0.1,1.1,0.1c0.4,0,0.8,0,1.2-0.1c0.1,0,0.2-0.1,0.3-0.1c0.2,0,0.3,0,0.5,0c0.1,0,0.3,0,0.4,0
		c1,0,1.8-0.1,2.6-0.4c1.2-0.3,2.1-0.8,2.8-1.4c0.9-0.8,1.6-2,1.7-3.2c0-0.4,0.1-0.7,0.1-1s-0.1-0.7-0.1-1.1c0-0.1,0-0.2-0.1-0.3
		c0-0.1,0-0.1-0.1-0.2c0,0,0,0,0-0.1c0,0,0,0,0-0.1s-0.1-0.2-0.2-0.3l-0.1-0.1v-0.1c-0.1-0.1-0.1-0.1-0.2-0.2l-0.2-0.3
		c-0.1-0.1-0.2-0.2-0.3-0.4c-0.2-0.3-0.6-0.7-1-1.1c0,0,0,0-0.1,0c-0.1-0.1-0.2-0.1-0.3-0.2c-0.1-0.1-0.2-0.1-0.3-0.2
		c0,0-0.1,0-0.1-0.1l-0.3,0.4l0.2-0.4h-0.1c-0.1,0-0.1-0.1-0.2-0.1h-0.1c-0.2-0.1-0.4-0.2-0.6-0.2l-0.3-0.1h-0.1h-0.1l-0.1-0.1h-0.1
		h-0.1c-0.1-0.1-0.3-0.1-0.4-0.2c-0.1,0-0.1,0-0.2,0c-0.3-0.1-0.7-0.1-1-0.1h-0.1c-0.1,0-0.2,0-0.3,0c-0.1-0.1-0.2-0.1-0.3-0.1
		c-0.4,0-0.9,0-1.3,0c-0.4,0-0.9,0-1.3,0c-0.4,0-0.8,0.1-1.2,0.1c-0.3,0-0.7,0-1,0s-0.6,0-1,0h-0.3h-0.3c-0.2,0-0.4,0-0.6,0
		c-0.2,0-0.4,0-0.6,0h-0.1c-0.3,0-0.6,0-1,0.1c-0.1,0-0.3,0-0.4,0c-0.6,0.1-1.2,0.2-1.9,0.4c-0.6,0.2-1.2,0.4-1.7,0.7
		c-0.6,0.4-1.2,0.8-1.6,1.2c-0.3,0.3-0.5,0.6-0.7,0.9c-0.2,0.3-0.4,0.6-0.6,0.9c-0.1,0.2-0.2,0.4-0.3,0.7c0,0.1-0.1,0.1-0.1,0.2
		c-0.2,0.4-0.4,0.8-0.6,1.3c-0.2,0.4-0.3,0.9-0.4,1.4c0,0.2-0.1,0.4-0.1,0.7c0,0.1,0,0.2-0.1,0.2c-0.3,0.8-0.5,1.7-0.6,2.6
		c0.6,1.1,0.7,2.6,1.1,3.9c0.3,0.9,0.6,1.7,1.1,2.4c0,0.1,0.1,0.2,0.1,0.2c0.4,0.7,0.8,1.4,1.4,2c0.1,0.1,0.2,0.3,0.3,0.4
		c0.4,0.4,0.9,0.8,1.5,1c0,0,0.1,0,0.1,0.1c0.4,0.3,0.9,0.4,1.2,0.5c0.4,0.1,0.8,0.2,1.2,0.3c0.8,0.2,1.6,0.2,2.6,0.2
		c0.9,0.1,1.7,0.2,2.4,0.2c0.2,0,0.3,0,0.5,0c0.7,0,1.4,0,2-0.1c0,0,0,0,0.1,0l0.1-0.1l0.1-0.1c0,0,0.1,0,0.1-0.1c0,0,0.1,0,0.2,0
		h0.1c0.1,0,0.1,0,0.2,0h0.1h0.1c0,0,0,0,0.1,0s0.1,0,0.2,0c0.1,0,0.2,0.1,0.2,0.1s0,0,0,0.1c0,0,0,0,0,0.1c0,0,0,0,0,0.1
		c0.1,0,0.1,0,0.2,0c0.1,0.1,0.2,0.2,0.1,0.3c0,0,0,0,0,0.1c0,0,0,0.1-0.1,0.1c0,0,0,0,0,0.1c0,0,0,0,0,0.1c0,0,0,0,0,0.1
		c0,0,0,0.1-0.1,0.1v0.1v0.1c0,0,0,0.1-0.1,0.1l-0.1,0.1c0,0,0,0-0.1,0c0,0-0.1,0-0.1,0.1c-0.1,0-0.1,0-0.2,0.1
		c-0.4,0.2-0.8,0.4-1.2,0.5c-0.5,0.1-1,0.2-1.5,0.2c-0.4,0-0.7-0.1-1.2-0.1H189c-0.1,0-0.1,0-0.2,0c-0.4-0.1-0.7-0.1-1.1-0.2
		l-0.6-0.1c-0.6-0.1-1.3-0.2-2-0.3c-0.3,0-0.7,0-1,0c-0.5,0-0.9,0-1.4,0.1c-0.2,0-0.4,0-0.6,0c-0.1,0-0.2,0-0.4,0s-0.4,0.1-0.7,0.1
		c-0.3,0.1-0.6,0.2-0.8,0.3c-0.3,0.1-0.5,0.3-0.7,0.4c-0.2,0.1-0.4,0.3-0.6,0.5s-0.4,0.4-0.5,0.6l-0.1,0.1c-0.3,0.3-0.5,0.6-0.7,1
		c-0.1,0.2-0.1,0.4-0.2,0.5v0.1c0,0.1-0.1,0.2-0.1,0.4s-0.1,0.4-0.1,0.6s0,0.5,0,0.6v0.1c0,0.3,0.1,0.5,0.2,0.7
		c0.1,0.3,0.2,0.6,0.3,0.8s0.2,0.4,0.3,0.6c0,0.2,0.1,0.3,0.2,0.5c0.2,0.2,0.4,0.4,0.5,0.6c0.1,0.1,0.2,0.1,0.3,0.2s0.1,0.1,0.2,0.1
		c0,0,0.1,0,0.1,0.1c0,0,0.1,0,0.1,0.1c0.1,0.2,0.2,0.3,0.3,0.4c0.3,0.3,0.7,0.5,1.1,0.7c0.5,0.2,1.1,0.5,1.7,0.7
		c0.3,0.1,0.6,0.2,1,0.2c0.8,0.2,1.7,0.3,2.7,0.3c0.1,0,0.2,0,0.3,0c0.5,0,1,0,1.5-0.1c0.1,0,0.1,0,0.2,0c0,0,0,0,0.1,0
		c0,0,0.1,0,0.2,0c0.2,0,0.3,0,0.5,0c0.6,0,1.2-0.1,1.9-0.2c0.8-0.2,1.7-0.4,2.5-0.8c0.9-0.4,1.7-0.8,2.5-1.3s1.5-1.2,2.1-1.9
		c0.4-0.5,0.8-1.1,1.1-1.6c0.4-0.5,0.7-1,1-1.6s0.5-1.2,0.7-1.9c0.1-0.3,0.2-0.6,0.3-1c0.2-0.4,0.3-0.9,0.3-1.3
		c0.1-0.9,0.1-1.8,0-2.7C201.4,52.6,201.4,52.3,201.4,52z"/>
</g>
<path class="st0" d="M91.1,63.4c0.3-0.1,0.6-0.2,0.8-0.3c0.6-0.3,1.1-0.6,1.6-1.1c0.5-0.4,0.9-1,1.3-1.5c0.3-0.5,0.6-1.1,0.9-1.6
	c0.3-0.6,0.5-1.2,0.7-1.9c-0.1-0.6-0.1-1.2-0.2-1.7c-0.1-0.6-0.1-1.2-0.2-1.9c0-0.5-0.2-1.8-0.1-1.7c0-1.2-0.1-2.5-0.3-3.7
	c0-0.2,0-0.3,0-0.5c0,0,0,0,0-0.1c0.6-0.6,1.3-1.1,2-1.5s1.4-0.7,2.1-1c0.2,0,0.5-0.1,0.7-0.1c0.5,0,1,0,1.6,0s1.1,0.1,1.7,0.1
	c0.7,0,1.4-0.1,2.1-0.3c0.6-0.2,1.2-0.5,1.7-0.9c0.3-0.2,0.6-0.6,0.8-0.9c0.3-0.4,0.5-0.8,0.7-1.3c0.2-0.4,0.3-0.8,0.4-1.3
	c0.1-0.2,0.1-0.5,0.1-0.7c0.3-0.3,0.3-0.7,0.3-1.1c0-0.4-0.1-0.9-0.2-1.3c-0.1-0.6-0.3-1.2-0.5-1.7c-0.3-0.7-0.5-1.4-0.9-2
	c-0.1-0.2-0.2-0.4-0.3-0.6c-0.1-0.2-0.3-0.4-0.4-0.6c-0.1-0.1-0.2-0.2-0.3-0.3c-0.1-0.1-0.1-0.1-0.2-0.2c-0.2-0.3-0.5-0.6-0.8-0.9
	c-0.4-0.3-0.8-0.6-1.2-0.8s-0.9-0.4-1.4-0.5c-0.9-0.2-1.8-0.2-2.8-0.1s-2,0.4-3,0.8c-0.9,0.4-1.9,0.8-2.8,1.3
	c-1.8,1-3.5,2.3-5.1,3.7c-0.1,0-0.2-0.1-0.3-0.1c-0.6,0.5-0.6,0.5-0.1,0c-0.3,0-0.6-0.1-1-0.1c-0.1,0-0.2,0-0.2,0
	c-0.3,0-0.6,0-0.9,0.1C87.2,35,86.9,35,86.7,35s-0.5,0-0.7,0.1c-0.1,0-0.3,0.1-0.4,0.1c-0.2,0-0.3,0.1-0.5,0.2
	c-0.3,0.1-0.6,0.2-0.9,0.4c-0.4,0.2-0.7,0.4-1,0.6c-0.5,0.3-0.9,0.7-1.3,1.1c-0.4,0.4-0.7,0.8-1,1.2s-0.5,0.9-0.7,1.3
	c-0.1,0.3-0.2,0.6-0.3,1c-0.1,0.5-0.1,1-0.2,1.5c-0.1,0.9-0.1,1.9,0,2.8c0.1,0.8,0.2,1.6,0.3,2.3c-0.1,1.1-0.2,2.2-0.3,3.4
	c0,0.5,0,0.9-0.1,1.4c0,0.1,0,0.2,0,0.2c0,0.2,0.1,0.3,0.2,0.4c0,0,0,0,0,0.1c-0.2,0.7-0.1,1.5,0,2.2c0.1,0.9,0.5,1.8,0.9,2.6
	c0.5,0.9,1.1,1.7,1.7,2.5c0.3,0.4,0.7,0.7,1,1.1c0.4,0.4,0.9,0.7,1.3,1c0.7,0.5,1.6,0.8,2.5,1c0.7,0.2,1.5,0.2,2.2,0.1
	c0.4,0,0.7-0.1,1.1-0.2"/>
</svg>
