<?xml version="1.0" encoding="utf-8"?>
<!-- Generator: Adobe Illustrator 23.1.1, SVG Export Plug-In . SVG Version: 6.00 Build 0)  -->
<svg version="1.1" id="Layer_1" xmlns="http://www.w3.org/2000/svg" xmlns:xlink="http://www.w3.org/1999/xlink" x="0px" y="0px"
	 viewBox="0 0 215.1 58" style="enable-background:new 0 0 215.1 58;" xml:space="preserve">
<style type="text/css">
	.st0{fill:#FFFFFF;}
	.st1{fill:#2C2C2C;}
</style>
<g>
	<path class="st0" d="M19.3,36.1c0-0.4-0.1-0.8-0.1-1.2c0-1.2,0.1-2.5,0-3.7c0-3.1-0.3-6.1-0.5-9.2c-0.1-0.6-0.1-1.2-0.1-1.9
		c0.1-1.7,0-3.4-0.1-5.2c0-0.2,0-0.3,0-0.5c0.2-1.9,0.5-3.7,0.5-5.6c0-0.9-0.1-1.8-0.4-2.7c-0.3-0.9-0.7-1.7-1.3-2.3
		c-0.3-0.3-0.7-0.6-1.1-0.8c-0.4-0.3-0.9-0.5-1.4-0.7c-0.8-0.3-1.8-0.6-2.8-0.7c-0.1,0-0.2,0-0.2,0c-0.3,0-0.6,0-0.9,0.1l0,0
		c-0.2-0.1-0.4-0.1-0.7-0.1l0,0c-0.2,0-0.5,0-0.7,0.1c-0.2,0-0.3,0-0.5,0.1c-0.2,0-0.3,0.1-0.5,0.2C8.2,1.8,7.9,2,7.6,2.1
		c-0.4,0.2-0.7,0.4-1,0.7C6.1,3,5.7,3.4,5.3,3.8C4.9,4.1,4.6,4.5,4.2,5C3.9,5.4,3.7,5.8,3.5,6.3c-0.1,0.3-0.2,0.6-0.3,1
		C3.1,7.7,3,8.2,2.9,8.7c-0.1,0.9-0.2,1.9-0.1,2.8c0.1,0.8,0.2,1.6,0.2,2.3c-0.1,1.1-0.3,2.2-0.4,3.4c0,0.6-0.1,1.3-0.2,1.9
		C2.4,20,2.4,21,2.3,21.9c0,0.1,0,0.3-0.1,0.4c-0.4,1.9-0.6,3.8-0.7,5.7c-0.2,3.7-0.1,7.4,0.4,11.1c0,0.2,0.1,0.3,0.2,0.4
		c0,0,0,0,0,0.1C1.9,40.3,2,41.1,2,41.8c0.1,0.9,0.4,1.8,0.8,2.6c0.6,1,1.1,1.9,1.7,2.7c0.3,0.4,0.7,0.7,1,1.1
		c0.4,0.4,0.9,0.7,1.3,1c0.7,0.5,1.6,0.8,2.5,1.1c0.7,0.2,1.5,0.2,2.2,0.2c0.4,0,0.7-0.1,1.1-0.2c0.4-0.1,0.7-0.2,1.1-0.4
		c0.6-0.3,1.1-0.6,1.6-1.1c0.5-0.4,0.9-1,1.3-1.5c0.3-0.5,0.6-1.1,0.9-1.6c0.3-0.7,0.5-1.3,0.8-2c0.4-1.3,0.7-2.7,0.8-4.1
		C19.3,38.6,19.4,37.4,19.3,36.1z"/>
	<g>
		<path class="st1" d="M20.8,36.2c-0.6-7.5-1.4-15.9-0.6-23.4c0.6-5.6-0.1-10.9-6.3-12.4c-2.8-0.7-5.6-0.5-8,1.1
			c-5.5,3.5-4.2,9.3-4.5,15c-0.5,7.4-2,14.8-0.9,22.3c0.3,2.2,0.2,0.2,0.3,1c0.1,1.1-0.2,2.2,0.1,3.3c0.6,2.6,2.2,5.2,4.3,6.8
			c3.1,2.6,7.5,3.1,10.8,0.6C20.1,47.3,20.9,41,20.8,36.2c0-1.9-3-2-3-0.1c0,3.7-0.3,9.3-3.6,11.9S7,48.3,5,45.2
			c-1.1-1.8-1-3.6-1.2-5.5c-1.1-8.5,0.3-16.4,0.7-24.9C4.7,10.5,3.7,4.4,9.3,3c3.8-0.9,7.8,1.8,8.1,5.8c0.1,2-0.5,4.1-0.6,6.1
			c-0.1,2.3,0.2,4.7,0.3,7c0.3,4.7,0.2,9.4,0.6,14C18,38,21,38.1,20.8,36.2z"/>
	</g>
</g>
<g>
	<g>
		<path class="st0" d="M98.1,45.1c0-0.1,0-0.2-0.1-0.3c-0.1-1.1-0.4-2-1-2.7l0,0c-0.1-0.3-0.3-0.6-0.5-0.9c0.3-1.4,0.4-2.8,0.3-4.2
			c0-0.4-0.1-0.8-0.2-1.3c0-0.4,0-0.8-0.1-1.1c-0.1-1.2-0.3-2.4-0.7-3.5c-0.3-0.6-0.5-1.2-0.8-1.8c-0.4-0.6-0.8-1.2-1.2-1.7
			c-0.8-1-1.8-2-2.9-2.8c-1.1-0.8-2.3-1.4-3.4-1.8c-0.5-0.2-1.1-0.3-1.7-0.4c-0.8-0.1-1.5-0.2-2.3-0.3l-0.1,0c-1.3,0-2.7,0.1-4,0.3
			c-2.3,0.2-4.5,1-6.5,2.3c-0.3,0.2-0.7,0.5-1,0.8c-0.1,0.1-0.2,0.2-0.4,0.3c-0.4,0.4-0.8,0.8-1.2,1.2c-0.4,0.5-0.9,1.1-1.3,1.7
			c-0.6,1-1.2,2.1-1.7,3.2c-0.6,1.4-0.9,3-1.1,4.5c-0.1,1.4-0.1,2.9,0.2,4.3c0.3,1.4,0.7,2.7,1.4,3.9c0.3,0.5,0.6,1.1,1,1.6
			c0.5,0.6,0.9,1.2,1.4,1.8c0.5,0.5,1.1,1,1.7,1.5c0.5,0.4,1.1,0.8,1.7,1.2c0.6,0.4,1.3,0.7,2,1c0.6,0.3,1.3,0.4,2,0.7
			c3.2,0.8,6.6,0.4,9.6-0.8c0.7,0.4,1.4,0.7,2.3,0.9l0,0c0.1,0,0.1,0.1,0.2,0.1c0.4,0.2,0.9,0.3,1.4,0.4c0.5,0.1,1,0.1,1.5,0
			c0.5-0.1,1-0.2,1.5-0.5c0.3-0.2,0.6-0.3,0.9-0.6c0.1-0.1,0.2-0.1,0.3-0.2l0,0c0.2-0.1,0.3-0.3,0.5-0.4c0.2-0.1,0.3-0.3,0.3-0.5
			c0.2-0.3,0.5-0.7,0.7-1c0.5-0.8,0.8-1.7,1-2.5C98.1,46.6,98.2,45.8,98.1,45.1z"/>
		<g>
			<path class="st1" d="M99.6,44.7c-0.2-1.9-1.1-3.2-1.3-4.9c-0.3-3.1,0.2-6.1-0.8-9.1c-1.5-4.1-5.2-7.9-9.4-9.2
				c-10.4-3.3-21.4,3.3-22.9,14C63.6,46,72.4,55.2,82.9,54.2c1.5-0.2,3.1-0.9,4.7-0.8c0.4,0,2.8,0.8,1.4,0.4
				c2.2,0.7,3.7,1.2,5.9,0.2c3.2-1.5,4.9-5.4,4.9-8.8c0-1.9-3-2-3-0.1c0.1,4.5-2.4,7.1-7.1,5.8c-1-0.3-1.5-0.7-2.5-0.9
				c-1.8-0.2-4.2,1.2-6.2,1.2C70.5,51,65,39.8,69.6,31c4-7.9,16.1-10,22.4-3.5c2.8,2.9,3.5,6.8,3.4,10.8c-0.1,1.7-0.4,2.2-0.1,3.6
				c0.3,1.2,1.2,2.2,1.4,3.6C96.9,47.4,99.8,46.7,99.6,44.7z"/>
		</g>
	</g>
	<g>
		<path class="st0" d="M80.4,41.3c0.2,0,0.3-0.1,0.5-0.2c0.2,0,0.4,0,0.6-0.1l0.1,0c0.1,0,0.2,0,0.2,0c0.2,0,0.4,0,0.6,0
			c0.1,0,0.1,0,0.2,0l0,0c0.1,0,0.3,0,0.4,0c0.1,0,0.2-0.1,0.3-0.1c0.1,0,0.1-0.1,0.2-0.1c0,0,0,0,0.1-0.1c0.1,0,0.1,0,0.2,0
			c0.1,0,0.2-0.1,0.3-0.1c0.1-0.1,0.2-0.2,0.4-0.3c0.1-0.1,0.1-0.2,0.2-0.2c0.1-0.1,0.2-0.3,0.3-0.5c0.1-0.2,0.2-0.4,0.2-0.6
			c0.1-0.2,0.1-0.4,0.2-0.5c0-0.2,0.1-0.4,0.1-0.6c0-0.2,0-0.4,0-0.6c0-0.2-0.1-0.4-0.1-0.6c-0.1-0.2-0.1-0.4-0.2-0.6
			c-0.1-0.1-0.1-0.2-0.2-0.3c0-0.1-0.1-0.2-0.2-0.3c-0.1-0.1-0.1-0.1-0.2-0.2c-0.1-0.2-0.2-0.5-0.3-0.7c-0.2-0.3-0.4-0.6-0.7-0.8
			c-0.1-0.1-0.2-0.1-0.3-0.1c-0.1,0-0.2,0-0.3-0.1c-0.1,0-0.2,0-0.3,0c-0.1,0-0.2,0-0.3,0.1c-0.1-0.2-0.2-0.4-0.4-0.6
			c-0.4-0.3-0.9-0.4-1.3,0c-0.1,0.1-0.2,0.1-0.2,0.2c-0.1,0.1-0.2,0.2-0.2,0.4l0,0c-0.1,0-0.2,0.1-0.2,0.1l-0.1,0
			c-0.1,0-0.2,0-0.3,0c-0.1,0-0.2,0.1-0.3,0.1c-0.1,0.1-0.3,0.2-0.4,0.3l0,0l0,0c-0.1,0.1-0.3,0.1-0.4,0.2c-0.1,0.1-0.2,0.2-0.3,0.3
			c-0.1,0.1-0.2,0.2-0.3,0.4c-0.1,0.2-0.2,0.4-0.3,0.6c0,0.1,0,0.2-0.1,0.2l0,0l0,0.1l0,0c0,0.1-0.1,0.3-0.1,0.4
			c0,0.2-0.1,0.4-0.1,0.7l0,0l0,0c0,0.4,0,0.7,0,1.1c0,0.3,0.1,0.7,0.2,1c0.1,0.2,0.2,0.4,0.3,0.6c0.1,0.1,0.1,0.2,0.2,0.4
			c0.1,0.2,0.2,0.3,0.4,0.4c0.1,0.1,0.3,0.3,0.5,0.4c0.2,0.2,0.5,0.2,0.8,0.3c0.1,0,0.2,0,0.3,0C80,41.4,80.2,41.3,80.4,41.3
			L80.4,41.3L80.4,41.3z"/>
		<g>
			<path class="st1" d="M80.8,42.8c0.7-0.2,0.3-0.1,1-0.2c0.3,0,0.7,0,1-0.1c-0.7-0.1-0.8-0.1-0.4,0c0.9-0.1,1.5-0.1,2.2-0.7
				c-0.4,0.1-0.7,0.3-1.1,0.4c2.8-0.1,4-3.7,3.3-6c-0.6-2-2.2-4.5-4.6-3.9c0.6,0.2,1.1,0.5,1.7,0.8c-1-2-3.6-2.1-4.8-0.1
				c0.3-0.2,0.6-0.5,0.9-0.7c0.5,0.1,0.6,0.1,0.2,0.1c-0.2,0-0.3,0-0.5,0c-0.4,0-0.7,0.1-1,0.3c-0.2,0.1-1.2,0.9-0.4,0.3
				c-0.3,0.2-0.6,0.4-0.9,0.6c-0.8,0.7-1.2,1.9-1.4,2.9c-0.6,2.9,0.8,6.6,4.3,6.5c1.9-0.1,2-3.1,0.1-3c-1.7,0-1.8-2.4-1.3-3.5
				c0.1-0.3,0.5-0.5,0.6-0.8c0.1-0.1,0.2-0.2,0.3-0.3c-0.4-0.1-0.5-0.1-0.1,0c0.4-0.1,0.8,0,1.2-0.3c0.9-0.6,0.3-0.3,0.2-0.6
				c0.3,0.6,1.1,0.8,1.7,0.8c0,0,0.9,1.5,0.9,1.7c0.2,0.6,0.2,1.2-0.1,1.8c0,0.1-0.5,0.9-0.2,0.6c-0.2,0.2-0.8,0.3-1.1,0.4
				c0.2,0,0.3,0,0.5,0c-0.3-0.1-0.5-0.1-0.8,0c-0.6,0-1.4,0.1-2.2,0.2C78.1,40.4,78.8,43.3,80.8,42.8z"/>
		</g>
	</g>
</g>
<g>
	<g>
		<path class="st0" d="M138.1,16.5c0-0.2-0.1-0.3-0.2-0.4c0,0,0,0,0-0.1c0.2-0.7,0.1-1.5,0.1-2.2c-0.1-0.9-0.4-1.8-0.8-2.6
			c-0.5-0.9-1-1.7-1.6-2.5c-0.3-0.4-0.7-0.7-1-1.1c-0.4-0.4-0.9-0.7-1.3-1c-0.7-0.5-1.6-0.8-2.5-1.1c-0.7-0.2-1.5-0.2-2.2-0.2
			c-0.4,0-0.7,0.1-1.1,0.2c-0.4,0.1-0.7,0.2-1.1,0.4c-0.6,0.3-1.1,0.6-1.6,1.1c-0.5,0.4-0.9,1-1.3,1.5c-0.3,0.5-0.6,1.1-0.9,1.6
			c-0.3,0.7-0.5,1.3-0.8,2c-0.4,1.3-0.7,2.7-0.8,4.1c-0.1,1.3-0.3,2.5-0.2,3.8c0,0.4,0.1,0.8,0.1,1.2c0,1.2-0.1,2.5,0,3.7
			c0,1,0,2,0.1,3.1c-0.5,0-1,0.1-1.5,0.2c-1.2,0.2-2.3,0.6-3.4,1.1c-0.3,0.1-0.6,0.3-0.9,0.5c-0.5,0.2-0.9,0.4-1.3,0.7
			c-0.7,0.4-1.3,0.9-2,1.3c-1.1,0.9-2.1,1.8-3,2.9c-0.5,0.6-0.9,1.3-1.3,2c-0.3,0.4-0.5,0.8-0.7,1.3c-0.5,0.9-0.9,1.8-1.1,2.8
			c-0.1,0.5-0.2,1.1-0.2,1.6c0,0.5,0,1,0.1,1.5c0.1,0.5,0.3,1,0.5,1.4c0.2,0.4,0.4,0.7,0.6,1c0.3,0.4,0.7,0.8,1.1,1.2
			c0.2,0.1,0.3,0.3,0.5,0.4c0.1,0.1,0.1,0.2,0.2,0.4c0.3,0.7,0.8,1.3,1.2,2c0.5,0.7,1.2,1.2,1.7,1.8c0.5,0.4,1.1,0.7,1.7,1.1
			c0.7,0.3,1.5,0.6,2.3,0.9c0.8,0.2,1.6,0.3,2.3,0.5c0.4,0,0.7,0.1,1.1,0.1s0.8,0,1.2-0.1c0.8-0.1,1.6-0.2,2.4-0.3
			c0.7-0.2,1.4-0.4,2-0.6c0.4,0.2,0.8,0.4,1.2,0.6c0.9,0.4,1.9,0.7,2.9,0.7c0.1,0,0.2,0,0.2,0c0.3,0,0.6,0,0.9-0.1l0,0
			c0.2,0.1,0.5,0.1,0.7,0.1l0,0c0.2,0,0.5,0,0.7-0.1c0.1,0,0.3-0.1,0.4-0.1c0.2,0,0.3-0.1,0.5-0.2c0.3-0.1,0.6-0.2,0.9-0.4
			c0.4-0.2,0.7-0.4,1-0.6c0.5-0.3,0.9-0.7,1.3-1.1c0.4-0.4,0.7-0.8,1-1.2c0.3-0.4,0.5-0.9,0.7-1.3c0.1-0.3,0.2-0.6,0.3-1
			c0.1-0.5,0.1-1,0.2-1.5c0.1-0.9,0.2-1.9,0.1-2.8c-0.1-0.8-0.2-1.6-0.2-2.3c0.1-1.1,0.3-2.2,0.4-3.4c0-0.6,0.1-1.3,0.2-1.9
			c0.1-0.9,0.2-1.9,0.2-2.8c0-0.1,0-0.3,0.1-0.4c0.4-1.9,0.6-3.8,0.7-5.7C138.6,23.8,138.6,20.1,138.1,16.5z"/>
		<g>
			<path class="st1" d="M139.4,15.7c0,0.1,0.3,1.5,0.1-0.8c-0.1-1.1,0-1.8-0.4-2.9c-0.5-1.9-1.7-3.7-2.9-5.1
				c-2.5-2.8-6.4-4.3-10-2.8c-8.3,3.4-7,16.4-6.6,23.3c0.5-0.5,1-1,1.5-1.5c-7.8,0.6-18.6,8.6-16.9,17.6c0.5,2.9,3.7,7,5.9,8.9
				c3,2.4,7.2,3.3,11,2.8c6.1-0.8,12.4,3,16.4-4.3c2.3-4,1.2-10.6,1.5-15c0.5-6.7,1.2-13,0.5-19.7c-0.2-1.9-3.2-1.2-2.9,0.7
				c1,8.5-1.1,16.5-1,24.9c0,4,0.4,9.7-4.7,10.9c-2,0.4-3.9-0.9-5.9-1.1c-2.1-0.1-4.1,0.9-6.4,0.7c-4-0.2-6.9-2-9-5.5
				c-0.2-0.2-0.6-0.7-0.7-0.9c-2.2-4.2-1.9-6.5,0.6-10.2c2.5-3.6,7-6.5,11.5-6.9c0.8-0.1,1.6-0.6,1.5-1.5
				c-0.2-5.6-1.4-13.9,2.4-18.6c3.4-4.3,9.2-1.4,11,2.9c0.7,1.8,0.1,3.7,0.9,5.3C137.6,18.9,140.2,17.4,139.4,15.7z"/>
		</g>
	</g>
	<g>
		<path class="st0" d="M119.3,38.9c-0.1,0-0.2,0.1-0.4,0.1c-0.1,0-0.3,0-0.4,0.1c0,0,0,0-0.1,0c-0.1,0-0.1,0-0.2,0
			c-0.1,0-0.3,0-0.4,0l-0.1,0l0,0c-0.1,0-0.2,0-0.3,0c-0.1,0-0.2,0.1-0.2,0.1c-0.1,0-0.1,0.1-0.1,0.1l0,0l-0.1,0
			c-0.1,0-0.2,0.1-0.2,0.1c-0.1,0-0.2,0.1-0.3,0.2c-0.1,0-0.1,0.1-0.1,0.2c-0.1,0.1-0.1,0.2-0.2,0.3s-0.1,0.3-0.2,0.4
			c0,0.1-0.1,0.3-0.1,0.4c0,0.1-0.1,0.3-0.1,0.5c0,0.1,0,0.3,0,0.4c0,0.1,0.1,0.3,0.1,0.4c0,0.2,0.1,0.3,0.2,0.4
			c0,0.1,0.1,0.2,0.1,0.2c0,0.1,0.1,0.1,0.1,0.2c0,0.1,0.1,0.1,0.1,0.1c0.1,0.2,0.2,0.3,0.3,0.5c0.1,0.2,0.3,0.4,0.5,0.5
			c0.1,0,0.1,0.1,0.2,0.1c0.1,0,0.1,0,0.2,0c0.1,0,0.1,0,0.2,0c0.1,0,0.1,0,0.2,0c0.1,0.2,0.2,0.3,0.3,0.4c0.3,0.2,0.7,0.3,1,0
			c0.1-0.1,0.1-0.1,0.2-0.2c0.1-0.1,0.1-0.2,0.2-0.3l0,0c0.1,0,0.1,0,0.2-0.1l0.1,0c0.1,0,0.1,0,0.2,0c0.1,0,0.1-0.1,0.2-0.1
			c0.1,0,0.2-0.1,0.3-0.2l0,0l0,0c0.1,0,0.2-0.1,0.3-0.2c0.1-0.1,0.1-0.1,0.2-0.2s0.1-0.2,0.2-0.3s0.1-0.3,0.2-0.5
			c0-0.1,0-0.1,0-0.2l0,0c0,0,0,0,0-0.1l0,0c0-0.1,0.1-0.2,0.1-0.3c0-0.2,0.1-0.3,0.1-0.5l0,0l0,0c0-0.3,0-0.5,0-0.8
			c0-0.2-0.1-0.5-0.1-0.7c0-0.1-0.1-0.3-0.2-0.4c0-0.1-0.1-0.2-0.1-0.3c-0.1-0.1-0.2-0.2-0.3-0.3s-0.2-0.2-0.3-0.3
			c-0.2-0.1-0.4-0.2-0.5-0.2c-0.1,0-0.2,0-0.2,0C119.5,38.9,119.4,38.9,119.3,38.9L119.3,38.9L119.3,38.9z"/>
		<g>
			<path class="st1" d="M118.9,37.5c-0.5,0.1-0.5,0.1-0.1,0.2c-0.2,0-0.4-0.1-0.6-0.1c-0.3,0-0.6,0-0.8,0.1c0.7,0,0.9,0,0.5,0
				c-0.8,0.1-1.3,0.1-2,0.6c0.4-0.1,0.7-0.3,1.1-0.4c-2.3,0.1-3.4,2.9-2.7,4.8c0.5,1.7,1.8,3.6,3.8,3.2c-0.6-0.2-1.1-0.5-1.7-0.8
				c0.8,1.7,3.2,1.9,4.2,0.1c-0.3,0.2-0.6,0.5-0.9,0.7c-0.6-0.1-0.7-0.1-0.3,0c0.1,0,0.3,0,0.4,0c0.3,0,0.7-0.1,1-0.3
				c0.2-0.1,1-0.8,0.3-0.2c0.2-0.2,0.5-0.3,0.7-0.5c0.6-0.6,0.9-1.4,1.1-2.3c0.5-2.4-0.7-5.3-3.5-5.2c-1.9,0.1-2,3.1-0.1,3
				c0.9-0.1,0.9,1.4,0.5,2c-0.1,0.1-0.2,0.2-0.2,0.3c-0.1,0.1-0.2,0.1-0.3,0.2c0.7,0,0.9,0,0.5-0.1c-0.4,0-0.8,0-1.1,0.2
				c-1.4,0.9,0.3,0.2,0.5,0.6c-0.3-0.6-1.1-0.8-1.7-0.8c0.4,0.2,0.5,0.1,0.3-0.2c0-0.1-0.1-0.2-0.1-0.2c-0.1-0.2-0.3-0.4-0.4-0.6
				c-0.1-0.4,0.1-0.6,0-1c0-0.1,0.6-0.9-0.3-0.1c0.1-0.1,1.2-0.1,1.1-0.4c0,0-1.5,0.2,0,0.1c0.4,0-0.3,0,0.2,0
				c0.5,0,0.9-0.1,1.4-0.2C121.5,39.9,120.7,37,118.9,37.5z"/>
		</g>
	</g>
</g>
<g>
	<g>
		<path class="st0" d="M58.3,35.7c0-0.4-0.1-0.8-0.2-1.3c0-0.4,0-0.8-0.1-1.1c-0.1-1.2-0.3-2.4-0.7-3.5c-0.3-0.6-0.5-1.2-0.8-1.8
			c-0.4-0.6-0.8-1.2-1.2-1.7c-0.8-1-1.8-2-2.9-2.8s-2.3-1.4-3.4-1.8c-0.5-0.2-1.1-0.3-1.7-0.4c-0.8-0.1-1.5-0.2-2.3-0.3l-0.1,0
			c-1.3,0-2.7,0.1-4,0.3c-2.3,0.2-4.5,1-6.5,2.3c-0.3,0.2-0.7,0.5-1,0.8c-0.1,0.1-0.2,0.2-0.4,0.3c-0.4,0.4-0.8,0.8-1.2,1.2
			c-0.4,0.5-0.9,1.1-1.3,1.7c-0.6,1-1.2,2.1-1.7,3.2c-0.6,1.4-0.9,3-1.1,4.5c-0.1,1.4-0.1,2.9,0.2,4.3c0.3,1.4,0.7,2.7,1.4,3.9
			c0.3,0.5,0.6,1.1,1,1.6c0.5,0.6,0.9,1.2,1.4,1.8c0.5,0.5,1.1,1,1.7,1.5c0.5,0.4,1.1,0.8,1.7,1.2c0.6,0.4,1.3,0.7,2,1
			c0.6,0.3,1.3,0.4,2,0.7c4,1,8.2,0.1,11.8-1.8c0.9-0.5,1.7-1,2.6-1.7c0.6-0.5,1.1-1.1,1.6-1.8c0.4-0.4,0.7-0.8,1-1.2
			c0.4-0.6,0.8-1.2,1.1-1.8c0.4-0.8,0.6-1.6,0.9-2.4C58.3,38.9,58.4,37.3,58.3,35.7z"/>
		<g>
			<path class="st1" d="M59.7,35.3c-0.6-4.9-1.3-8.6-5.1-12.1c-3.1-2.7-6.9-3.9-11-3.7c-9.8,0.3-17.6,7.5-17.3,17.7
				c0.2,8.4,7.1,15.5,15.6,15.8c9.9,0.3,18.1-7.4,17.8-17.3c0-1.9-3-2-3-0.1c0.3,8.2-6.4,14.7-14.7,14.4
				c-7.4-0.2-13.1-6.8-12.7-14.2c0.6-8.4,7.4-13.7,15.6-13.3s11,6.4,11.9,13.6C57,38,59.9,37.3,59.7,35.3z"/>
		</g>
	</g>
	<g>
		<path class="st0" d="M41.8,40.1c0.2,0,0.3-0.1,0.5-0.2c0.2,0,0.4,0,0.6-0.1l0.1,0c0.1,0,0.2,0,0.2,0c0.2,0,0.4,0,0.6,0
			c0.1,0,0.1,0,0.2,0l0,0c0.1,0,0.3,0,0.4,0c0.1,0,0.2-0.1,0.3-0.1s0.1-0.1,0.2-0.1c0,0,0,0,0.1-0.1c0.1,0,0.1,0,0.2,0
			c0.1,0,0.2-0.1,0.3-0.1c0.1-0.1,0.2-0.2,0.4-0.3C46,39.1,46,39,46.1,39c0.1-0.1,0.2-0.3,0.3-0.5c0.1-0.2,0.2-0.4,0.2-0.6
			c0.1-0.2,0.1-0.4,0.2-0.5c0-0.2,0.1-0.4,0.1-0.6c0-0.2,0-0.4,0-0.6c0-0.2-0.1-0.4-0.1-0.6c-0.1-0.2-0.1-0.4-0.2-0.6
			c-0.1-0.1-0.1-0.2-0.2-0.3c0-0.1-0.1-0.2-0.2-0.3c-0.1-0.1-0.1-0.1-0.2-0.2c-0.1-0.2-0.2-0.5-0.3-0.7c-0.2-0.3-0.4-0.6-0.7-0.8
			c-0.1-0.1-0.2-0.1-0.3-0.1c-0.1,0-0.2,0-0.3-0.1c-0.1,0-0.2,0-0.3,0c-0.1,0-0.2,0-0.3,0.1c-0.1-0.2-0.2-0.4-0.4-0.6
			c-0.4-0.3-0.9-0.4-1.3,0c-0.1,0.1-0.2,0.1-0.2,0.2c-0.1,0.1-0.2,0.2-0.2,0.4l0,0c-0.1,0-0.2,0.1-0.2,0.1l-0.1,0
			c-0.1,0-0.2,0-0.3,0c-0.1,0-0.2,0.1-0.3,0.1c-0.1,0.1-0.3,0.2-0.4,0.3l0,0l0,0c-0.1,0.1-0.3,0.1-0.4,0.2c-0.1,0.1-0.2,0.2-0.3,0.3
			s-0.2,0.2-0.3,0.4c-0.1,0.2-0.2,0.4-0.3,0.6c0,0.1,0,0.2-0.1,0.2l0,0l0,0.1l0,0c0,0.1-0.1,0.3-0.1,0.4c0,0.2-0.1,0.4-0.1,0.7l0,0
			l0,0c0,0.4,0,0.7,0,1.1c0,0.3,0.1,0.7,0.2,1c0.1,0.2,0.2,0.4,0.3,0.6c0.1,0.1,0.1,0.2,0.2,0.4c0.1,0.2,0.2,0.3,0.4,0.4
			c0.1,0.1,0.3,0.3,0.5,0.4c0.2,0.2,0.5,0.2,0.8,0.3c0.1,0,0.2,0,0.3,0C41.4,40.2,41.6,40.1,41.8,40.1L41.8,40.1L41.8,40.1z"/>
		<g>
			<path class="st1" d="M42.2,41.6c0.7-0.2,0.3-0.1,1-0.2c0.3,0,0.7,0,1-0.1c-0.7-0.1-0.8-0.1-0.4,0c0.9-0.1,1.5-0.1,2.2-0.7
				c-0.4,0.1-0.7,0.3-1.1,0.4c2.8-0.1,4-3.7,3.3-6c-0.6-2-2.2-4.5-4.6-3.9c0.6,0.2,1.1,0.5,1.7,0.8c-1-2-3.6-2.1-4.8-0.1
				c0.3-0.2,0.6-0.5,0.9-0.7c0.5,0.1,0.6,0.1,0.2,0.1c-0.2,0-0.3,0-0.5,0c-0.4,0-0.7,0.1-1,0.3c-0.2,0.1-1.2,0.9-0.4,0.3
				c-0.3,0.2-0.6,0.4-0.9,0.6c-0.8,0.8-1.2,1.9-1.4,2.9c-0.6,2.9,0.8,6.6,4.3,6.5c1.9-0.1,2-3.1,0.1-3c-1.7,0-1.8-2.4-1.3-3.5
				c0.1-0.3,0.5-0.5,0.6-0.8c0.1-0.1,0.2-0.2,0.3-0.3c-0.4-0.1-0.5-0.1-0.1,0c0.4-0.1,0.8,0,1.2-0.3c0.9-0.6,0.3-0.3,0.2-0.6
				c0.3,0.6,1.1,0.8,1.7,0.8c0,0,0.9,1.5,0.9,1.7c0.2,0.6,0.2,1.2-0.1,1.8c0,0.1-0.5,0.9-0.2,0.6c-0.2,0.2-0.8,0.3-1.1,0.4
				c0.2,0,0.3,0,0.5,0c-0.3-0.1-0.5-0.1-0.8,0c-0.6,0-1.4,0.1-2.2,0.2C39.6,39.3,40.3,42.2,42.2,41.6z"/>
		</g>
	</g>
</g>
<g>
	<g>
		<path class="st0" d="M213.3,18.2c0-0.2-0.1-0.3-0.2-0.4c0,0,0,0,0-0.1c0.2-0.7,0.1-1.5,0.1-2.2c-0.1-0.9-0.4-1.8-0.8-2.6
			c-0.5-0.9-1-1.7-1.6-2.5c-0.3-0.4-0.7-0.7-1-1.1c-0.4-0.4-0.9-0.7-1.3-1c-0.7-0.5-1.6-0.8-2.5-1.1c-0.7-0.2-1.5-0.2-2.2-0.2
			c-0.4,0-0.7,0.1-1.1,0.2c-0.4,0.1-0.7,0.2-1.1,0.4C201,7.8,200.5,8,200,8.5c-0.5,0.4-0.9,1-1.3,1.5c-0.3,0.5-0.6,1.1-0.9,1.6
			c-0.3,0.7-0.5,1.3-0.8,2c-0.4,1.3-0.7,2.7-0.8,4.1c-0.1,1.3-0.3,2.5-0.2,3.8c0,0.4,0.1,0.8,0.1,1.2c0,1.2-0.1,2.5,0,3.7
			c0,1,0,2,0.1,3.1c-0.5,0-1,0.1-1.5,0.2c-1.2,0.2-2.3,0.6-3.4,1.1c-0.3,0.1-0.6,0.3-0.9,0.5c-0.5,0.2-0.9,0.4-1.3,0.7
			c-0.7,0.4-1.3,0.9-2,1.3c-1.1,0.9-2.1,1.8-3,2.9c-0.5,0.6-0.9,1.3-1.3,2c-0.3,0.4-0.5,0.8-0.7,1.3c-0.5,0.9-0.9,1.8-1.1,2.8
			c-0.1,0.5-0.2,1.1-0.2,1.6c0,0.5,0,1,0.1,1.5c0.1,0.5,0.3,1,0.5,1.4c0.2,0.4,0.4,0.7,0.6,1c0.3,0.4,0.7,0.8,1.1,1.2
			c0.2,0.1,0.3,0.3,0.5,0.4c0.1,0.1,0.1,0.2,0.2,0.4c0.3,0.7,0.8,1.3,1.2,2c0.5,0.7,1.2,1.2,1.7,1.8c0.5,0.4,1.1,0.7,1.7,1.1
			c0.7,0.3,1.5,0.6,2.3,0.9c0.8,0.2,1.6,0.3,2.3,0.5c0.4,0,0.7,0.1,1.1,0.1c0.4,0,0.8,0,1.2-0.1c0.8-0.1,1.6-0.2,2.4-0.3
			c0.7-0.2,1.4-0.4,2-0.6c0.4,0.2,0.8,0.4,1.2,0.6c0.9,0.4,1.9,0.7,2.9,0.7c0.1,0,0.2,0,0.2,0c0.3,0,0.6,0,0.9-0.1l0,0
			c0.2,0.1,0.5,0.1,0.7,0.1l0,0c0.2,0,0.5,0,0.7-0.1c0.1,0,0.3-0.1,0.4-0.1c0.2,0,0.3-0.1,0.5-0.2c0.3-0.1,0.6-0.2,0.9-0.4
			c0.4-0.2,0.7-0.4,1-0.6c0.5-0.3,0.9-0.7,1.3-1.1c0.4-0.4,0.7-0.8,1-1.2s0.5-0.9,0.7-1.3c0.1-0.3,0.2-0.6,0.3-1
			c0.1-0.5,0.1-1,0.2-1.5c0.1-0.9,0.2-1.9,0.1-2.8c-0.1-0.8-0.2-1.6-0.2-2.3c0.1-1.1,0.3-2.2,0.4-3.4c0-0.6,0.1-1.3,0.2-1.9
			c0.1-0.9,0.2-1.9,0.2-2.8c0-0.1,0-0.3,0.1-0.4c0.4-1.9,0.6-3.8,0.7-5.7C213.9,25.6,213.8,21.9,213.3,18.2z"/>
		<g>
			<path class="st1" d="M214.7,17.6c0,0.1,0.3,1.5,0.1-0.8c-0.1-1.1,0-1.8-0.4-2.9c-0.5-1.9-1.7-3.7-2.9-5.1
				c-2.5-2.8-6.4-4.3-10-2.8c-8.3,3.4-7,16.4-6.6,23.3c0.5-0.5,1-1,1.5-1.5c-7.8,0.6-18.6,8.6-16.9,17.6c0.5,2.9,3.7,7,5.9,8.9
				c3,2.4,7.2,3.3,11,2.8c6.1-0.8,12.4,3,16.4-4.3c2.3-4,1.2-10.6,1.5-15c0.5-6.7,1.2-13,0.5-19.7c-0.2-1.9-3.2-1.2-2.9,0.7
				c1,8.5-1.1,16.5-1,24.9c0,4,0.4,9.7-4.7,10.9c-2,0.4-3.9-0.9-5.9-1.1c-2.1-0.1-4.1,0.9-6.4,0.7c-4-0.2-6.9-2-9-5.5
				c-0.2-0.2-0.6-0.7-0.7-0.9c-2.2-4.2-1.9-6.5,0.6-10.2c2.5-3.6,7-6.5,11.5-6.9c0.8-0.1,1.6-0.6,1.5-1.5
				c-0.2-5.6-1.4-13.9,2.4-18.6c3.4-4.3,9.2-1.4,11,2.9c0.7,1.8,0.1,3.7,0.9,5.3C212.9,20.7,215.5,19.2,214.7,17.6z"/>
		</g>
	</g>
	<g>
		<path class="st0" d="M194.6,40.8c-0.1,0-0.2,0.1-0.4,0.1c-0.1,0-0.3,0-0.4,0.1c0,0,0,0-0.1,0s-0.1,0-0.2,0c-0.1,0-0.3,0-0.4,0
			l-0.1,0l0,0c-0.1,0-0.2,0-0.3,0c-0.1,0-0.2,0.1-0.2,0.1c-0.1,0-0.1,0.1-0.1,0.1l0,0l-0.1,0c-0.1,0-0.2,0.1-0.2,0.1
			c-0.1,0-0.2,0.1-0.3,0.2c-0.1,0-0.1,0.1-0.1,0.2c-0.1,0.1-0.1,0.2-0.2,0.3s-0.1,0.3-0.2,0.4c0,0.1-0.1,0.3-0.1,0.4
			S191,43,191,43.2c0,0.1,0,0.3,0,0.4c0,0.1,0.1,0.3,0.1,0.4c0,0.2,0.1,0.3,0.2,0.4c0,0.1,0.1,0.2,0.1,0.2c0,0.1,0.1,0.1,0.1,0.2
			c0,0.1,0.1,0.1,0.1,0.1c0.1,0.2,0.2,0.3,0.3,0.5c0.1,0.2,0.3,0.4,0.5,0.5c0.1,0,0.1,0.1,0.2,0.1c0.1,0,0.1,0,0.2,0
			c0.1,0,0.1,0,0.2,0c0.1,0,0.1,0,0.2,0c0.1,0.2,0.2,0.3,0.3,0.4c0.3,0.2,0.7,0.3,1,0c0.1-0.1,0.1-0.1,0.2-0.2
			c0.1-0.1,0.1-0.2,0.2-0.3l0,0c0.1,0,0.1,0,0.2-0.1l0.1,0c0.1,0,0.1,0,0.2,0c0.1,0,0.1-0.1,0.2-0.1c0.1,0,0.2-0.1,0.3-0.2l0,0l0,0
			c0.1,0,0.2-0.1,0.3-0.2c0.1-0.1,0.1-0.1,0.2-0.2c0.1-0.1,0.1-0.2,0.2-0.3c0.1-0.1,0.1-0.3,0.2-0.5c0-0.1,0-0.1,0-0.2l0,0
			c0,0,0,0,0-0.1l0,0c0-0.1,0.1-0.2,0.1-0.3c0-0.2,0.1-0.3,0.1-0.5l0,0l0,0c0-0.3,0-0.5,0-0.8c0-0.2-0.1-0.5-0.1-0.7
			c0-0.1-0.1-0.3-0.2-0.4c0-0.1-0.1-0.2-0.1-0.3c-0.1-0.1-0.2-0.2-0.3-0.3c-0.1-0.1-0.2-0.2-0.3-0.3c-0.2-0.1-0.4-0.2-0.5-0.2
			c-0.1,0-0.2,0-0.2,0C194.8,40.8,194.7,40.8,194.6,40.8L194.6,40.8L194.6,40.8z"/>
		<g>
			<path class="st1" d="M194.2,39.4c-0.5,0.1-0.5,0.1-0.1,0.2c-0.2,0-0.4-0.1-0.6-0.1c-0.3,0-0.6,0-0.8,0.1c0.7,0,0.9,0,0.5,0
				c-0.8,0.1-1.3,0.1-2,0.6c0.4-0.1,0.7-0.3,1.1-0.4c-2.3,0.1-3.4,2.9-2.7,4.8c0.5,1.7,1.8,3.6,3.8,3.2c-0.6-0.2-1.1-0.5-1.7-0.8
				c0.8,1.7,3.2,1.9,4.2,0.1c-0.3,0.2-0.6,0.5-0.9,0.7c-0.6-0.1-0.7-0.1-0.3,0c0.1,0,0.3,0,0.4,0c0.3,0,0.7-0.1,1-0.3
				c0.2-0.1,1-0.8,0.3-0.2c0.2-0.2,0.5-0.3,0.7-0.5c0.6-0.6,0.9-1.4,1.1-2.3c0.5-2.4-0.7-5.3-3.5-5.2c-1.9,0.1-2,3.1-0.1,3
				c0.9-0.1,0.9,1.4,0.5,2c-0.1,0.1-0.2,0.2-0.2,0.3c-0.1,0.1-0.2,0.1-0.3,0.2c0.7,0,0.9,0,0.5-0.1c-0.4,0-0.8,0-1.1,0.2
				c-1.4,0.9,0.3,0.2,0.5,0.6c-0.3-0.6-1.1-0.8-1.7-0.8c0.4,0.2,0.5,0.1,0.3-0.2c0-0.1-0.1-0.2-0.1-0.2c-0.1-0.2-0.3-0.4-0.4-0.6
				c-0.1-0.4,0.1-0.6,0-1c0-0.1,0.6-0.9-0.3-0.1c0.1-0.1,1.2-0.1,1.1-0.4c0,0-1.5,0.2,0,0.1c0.4,0-0.3,0,0.2,0s0.9-0.1,1.4-0.2
				C196.7,41.7,196,38.8,194.2,39.4z"/>
		</g>
	</g>
</g>
<g>
	<path class="st0" d="M172.3,49.9c-0.1-0.4-0.2-0.8-0.3-1.2c0-0.1,0-0.2,0-0.3c-0.1-0.3-0.2-0.7-0.3-1c0-0.1-0.1-0.2-0.1-0.3
		c0-0.1,0-0.2,0-0.3c-0.1-0.5-0.3-0.9-0.6-1.4c-0.1-0.2-0.2-0.3-0.4-0.5c-0.3-0.6-0.8-1.1-1.5-1.3c-0.2-0.1-0.4-0.1-0.6-0.1
		c-0.2,0-0.5,0-0.7,0c-0.1,0-0.2,0-0.3,0c-0.2,0-0.4,0-0.6,0c-0.4,0-0.9,0-1.3,0.1c-0.5,0.1-0.9,0.2-1.4,0.3
		c-0.5,0.2-1.1,0.4-1.6,0.7c-0.2,0.1-0.4,0.3-0.6,0.4c-0.1,0.1-0.2,0.2-0.4,0.3c-0.2,0.1-0.4,0.2-0.6,0.2c-0.3,0.1-0.6,0.1-0.9,0.2
		c-0.2,0-0.4,0-0.6-0.1c-0.2,0-0.3-0.1-0.4-0.2c-0.2-0.1-0.3-0.2-0.4-0.3c-0.2-0.2-0.3-0.4-0.5-0.6c-0.2-0.4-0.4-0.9-0.6-1.3
		c-0.1-0.3-0.2-0.7-0.2-1.1l0-0.1c0.2,0,0.3,0,0.5,0.1c0.3,0.1,0.7,0.2,1,0.3c0.6,0.1,1.2,0.1,1.8,0.2l0.1,0c0.1,0,0.2,0.1,0.2,0.1
		c0.9,0.3,2.1,0.5,3,0.1c0.2-0.1,0.3-0.2,0.5-0.2c0.2-0.1,0.4-0.3,0.5-0.4l0,0c0.2,0,0.3-0.1,0.5-0.1c0.1,0,0.2,0,0.3,0
		c0.2,0,0.5,0,0.7,0c0.2,0,0.4-0.1,0.6-0.1c0.3-0.1,0.6-0.2,0.8-0.3l0,0l0,0c0.3-0.1,0.6-0.1,0.9-0.3c0.2-0.1,0.4-0.2,0.6-0.3
		s0.4-0.3,0.6-0.4c0.2-0.2,0.4-0.4,0.6-0.7c0.1-0.1,0.1-0.2,0.1-0.3l0,0l0-0.1l0,0c0.1-0.1,0.2-0.3,0.2-0.4c0.1-0.2,0.1-0.5,0.1-0.7
		l0,0l0,0c0-0.4,0-0.7-0.1-1.1c-0.1-0.4-0.3-0.7-0.5-1c-0.2-0.2-0.4-0.4-0.6-0.6c-0.1-0.1-0.3-0.2-0.5-0.4c-0.2-0.2-0.5-0.3-0.8-0.4
		c-0.3-0.1-0.7-0.3-1-0.4c-0.5-0.2-1.1-0.2-1.7-0.4c-0.2,0-0.5,0-0.7,0c-0.4,0-0.8,0-1.2,0.1c-0.4,0-0.8,0.1-1.1,0.2
		c-0.4,0-0.9,0-1.3,0.1c-0.1,0-0.1,0-0.2,0c-0.2,0-0.4,0-0.6,0c-0.5,0-0.9,0-1.4,0c-0.1,0-0.1,0-0.2,0c0.5-0.4,1-0.7,1.5-1.1
		c0.7-0.4,1.3-0.7,2.1-0.8c0.2-0.1,0.4-0.1,0.7-0.1c0.5-0.1,1-0.1,1.6-0.1c0.6,0,1.1,0,1.7,0c0.7,0,1.4-0.2,2-0.3s1.2-0.5,1.7-0.7
		c0.3-0.2,0.5-0.5,0.8-0.8c0.3-0.3,0.5-0.7,0.6-1.1c0.2-0.3,0.2-0.7,0.3-1.1c0-0.2,0.1-0.4,0.1-0.6c0-0.3,0-0.6-0.1-0.9
		c-0.1-0.4-0.2-0.7-0.3-1c-0.1-0.5-0.4-0.9-0.6-1.3c-0.3-0.6-0.7-1.1-1-1.6l0,0l0,0c-0.1-0.2-0.2-0.3-0.3-0.5
		c-0.1-0.2-0.3-0.3-0.5-0.5c-0.1-0.1-0.2-0.2-0.3-0.2c-0.1,0-0.1-0.1-0.2-0.1c-0.3-0.2-0.6-0.5-0.9-0.7c-0.4-0.2-0.8-0.4-1.3-0.6
		c-0.5-0.2-1-0.3-1.4-0.3c-0.9-0.1-1.9-0.1-2.8,0c-1,0.2-2,0.4-2.9,0.7c-0.9,0.4-1.8,0.7-2.7,1.2c-0.3,0.2-0.6,0.4-0.9,0.5
		c-0.1,0-0.1,0-0.2,0c-0.2,0-0.5,0-0.7,0c-0.1,0-0.3,0-0.4,0.1c-0.1,0-0.2,0-0.2,0.1c-0.4,0-0.7,0.1-1.1,0.2s-0.9,0.3-1.3,0.5
		c-0.4,0.2-0.9,0.5-1.2,0.8c-0.7,0.6-1.3,1.3-2,1.9c-0.6,0.8-1.1,1.7-1.5,2.6c-0.4,0.9-0.8,1.8-1.1,2.8c-0.4,1.4-0.8,2.9-1,4.3
		c-0.2,0.7-0.3,1.3-0.4,2c-0.1,0.8-0.1,1.6-0.2,2.4c0.1,1.4,0.3,2.8,0.7,4.1c0.3,0.9,0.5,1.8,1,2.6c0.3,0.6,0.7,1.3,1,1.8
		c0,0.1,0,0.1,0.1,0.2c0,0.1,0.1,0.1,0.1,0.2l0,0l0,0c0.3,0.4,0.5,0.8,0.8,1.2l0.1,0.1c0.3,0.3,0.6,0.7,0.9,1c0,0,0,0.1,0.1,0.1
		c0.1,0.2,0.3,0.5,0.5,0.7l0,0c0.2,0.2,0.4,0.5,0.7,0.7c0.4,0.3,0.8,0.6,1.3,0.8c0.2,0.1,0.4,0.2,0.6,0.3l0,0c0.3,0.2,0.7,0.4,1,0.5
		c0.2,0.1,0.3,0.2,0.5,0.3c0.8,0.4,1.7,0.9,2.6,1.2c0.7,0.2,1.4,0.4,2.1,0.6l0.1,0.1c0.1,0,0.1,0,0.2,0.1l0,0l0,0
		c0.5,0.1,1,0.2,1.5,0.3l0.1,0c0.4,0,0.9,0.1,1.3,0.1l0.1,0c0.3,0.1,0.5,0.1,0.8,0.2l0,0c0.3,0,0.6,0,0.9,0c0.5,0,1-0.2,1.5-0.3
		c0.2-0.1,0.4-0.2,0.6-0.3l0,0c1.2-0.3,2.3-0.7,3.3-1.4c0.2-0.2,0.5-0.4,0.7-0.6c0.2-0.2,0.3-0.4,0.5-0.6c0.2-0.3,0.3-0.6,0.4-0.9
		c0.1-0.3,0.2-0.6,0.3-1c0-0.3,0.1-0.5,0.1-0.8C172.4,50.6,172.4,50.2,172.3,49.9z"/>
	<g>
		<path class="st1" d="M173.8,49.6c-0.6-2.6-1-6.3-4.4-7.4c-1.4-0.4-3.3-0.3-4.7,0.1c-2.1,0.4-5,3.8-5.6-0.8
			c-0.6,0.6-1.2,1.2-1.9,1.7c2.6,0.5,3.1,0.9,5.5,1c0.8,0,1.5-0.3,2.2-0.4c0.2,0,2.1-0.8,1.1-0.5c2.7-0.8,4.7-0.3,6.4-3.2
			c0.7-1.2,0.8-3.9-0.9-5.7c-2.9-2.9-8-2.1-11.7-1.8c0.3,0.9,0.4,1.9,0.7,2.8c4.4-3,16.3-0.8,13.6-10.2c-1.4-5.1-6.4-8.4-12.4-6.9
			c-2.6,0.7-4.1,1.9-6.5,2.2c-3.9,0.5-6.5,3.3-8.1,6.8c-3.4,7.2-3.5,14.8,0.3,21.8c0.2-0.7,0.4-1.4,0.6-2.1l0,0
			c-0.7,0.4-0.9,1.4-0.6,2.1c2.8,4.8,6.9,7,12.2,8.5c-0.4-0.5-0.7-1-1.1-1.4l0,0c0,0.6,0.5,1.3,1.1,1.4c5.8,1.5,14.5,0.1,14.1-7.5
			c-0.1-1.9-3.1-2-3-0.1c0.2,5.5-6.4,5.7-10.2,4.7c0.4,0.5,0.7,1,1.1,1.4l0,0c0-0.6-0.5-1.3-1.1-1.4c-4.4-1.2-8.1-2.9-10.4-7
			c-0.2,0.7-0.4,1.4-0.6,2.1l0,0c0.7-0.4,0.9-1.4,0.6-2.1c-2.7-4.8-3-9.1-1.9-14.4c0.8-3.6,2.6-8.6,6.6-9.6c1-0.3,1.9,0,2.9-0.3
			c4.2-1.3,9.6-4.4,12.6,0.8c1.2,2.2,2,4.8-1.3,6.3c-1.4,0.7-3.4,0.1-4.9,0.3c-2,0.2-3.4,1.1-5.1,2.1c-1.1,0.8-1,3,0.7,2.8
			c2.2-0.1,5.9-0.7,7.9,0c2.7,1.1,3,2.8,0.8,4c-2.9,1.6-7.2,1.2-10.4,0.7c-1.2-0.2-2,0.5-1.9,1.7c0.3,2.9,2.2,5.6,5.4,4.8
			c2-0.5,4-2.8,6.4-1.9c2.4,0.9,2.4,3.2,2.9,5.3C171.3,52.1,174.2,51.5,173.8,49.6z"/>
	</g>
</g>
</svg>
