<?xml version="1.0" encoding="utf-8"?>
<!-- Generator: Adobe Illustrator 23.0.3, SVG Export Plug-In . SVG Version: 6.00 Build 0)  -->
<svg version="1.1" id="Layer_1" xmlns="http://www.w3.org/2000/svg" xmlns:xlink="http://www.w3.org/1999/xlink" x="0px" y="0px"
	 viewBox="0 0 681.3 888.8" style="enable-background:new 0 0 681.3 888.8;" xml:space="preserve">
<style type="text/css">
	.st0{fill:#FFFFFF;}
	.st1{fill:#2C2C2C;}
</style>
<g>
	<g>
		<g>
			<g>
				<path class="st0" d="M81.3,405.6c0,0-6.7,107.2-6.2,190.1c0.3,9.8,0.4,18.8,0.4,26.9c0,0,0,0.1,0,0.1
					c0.6,20.2-0.3,29.3-1.9,31.4c-5.4,47.9,0.5,230.5,0.5,230.5l-30.9,2.7c0,0,5.8-109.7,2.1-184.4c-3.7-74.7-9.2-274.7-15.6-285"/>
				<g>
					<path class="st1" d="M79.8,405.6c-1.7,28-3,56-4.1,84.1c-1,24.8-1.7,49.6-2,74.4c-0.3,25.3,1.1,50.7,0.4,76.1
						c-0.1,3.4-0.1,7-0.9,10.4c-0.4,2-1.2,3.6-1.4,5.6c-0.5,5.2-0.8,10.3-1.1,15.5c-0.7,14.8-0.9,29.7-1,44.6
						c-0.2,35,0.4,70,1.1,105c0.5,21.1,1,42.2,1.7,63.2c0.5-0.5,1-1,1.5-1.5c-10.3,0.9-20.6,1.8-30.9,2.7c0.5,0.5,1,1,1.5,1.5
						c3.5-66.3,4.4-132.8,1.4-199.1c-3.1-69.3-5-138.6-8.8-207.8c-0.8-14.4-1.6-28.8-3-43.2c-0.6-5.9-0.2-14.8-3.3-20.2
						c-1-1.7-3.6-0.2-2.6,1.5c2.5,4.4,2.3,12.3,2.8,17.4c1.2,12.1,1.9,24.3,2.6,36.5c2,34.6,3.4,69.2,4.8,103.8
						c2.9,73.1,7.3,146.3,6.1,219.5c-0.5,30.5-1.4,61.1-3.1,91.6c0,0.8,0.7,1.6,1.5,1.5c10.3-0.9,20.6-1.8,30.9-2.7
						c0.8-0.1,1.5-0.6,1.5-1.5c-1.7-52.3-2.8-104.6-2.8-156.9c0-15.6,0.1-31.3,0.6-46.9c0.2-5.9,0.4-11.8,0.9-17.7
						c0.2-2.4,0.2-5,0.6-7.4c0.3-1.6,1-3.2,1.3-4.9c1.7-9.2,0.9-19,0.7-28.2c-0.2-13.1-0.5-26.2-0.4-39.3
						c0.1-25.6,0.7-51.2,1.5-76.8c1.1-33.6,2.6-67.3,4.7-100.9C82.9,403.7,79.9,403.7,79.8,405.6L79.8,405.6z"/>
				</g>
			</g>
			<g>
				<path class="st0" d="M648.6,405.6c0,0-6.7,107.2-6.2,190.1c0.3,9.8,0.4,18.8,0.4,26.9c0,0,0,0.1,0,0.1
					c0.6,20.2-0.3,29.3-1.9,31.4c-5.4,47.9,0.5,230.5,0.5,230.5l-30.9,2.7c0,0,5.8-109.7,2.1-184.4c-3.7-74.7-9.2-274.7-15.6-285"/>
				<g>
					<path class="st1" d="M647.1,405.6c-1.7,28-3,56-4.1,84.1c-1,24.8-1.7,49.6-2,74.4c-0.3,25.3,1.1,50.7,0.4,76.1
						c-0.1,3.4-0.1,7-0.9,10.4c-0.4,2-1.2,3.6-1.4,5.6c-0.5,5.2-0.8,10.3-1.1,15.5c-0.7,14.8-0.9,29.7-1,44.6
						c-0.2,35,0.4,70,1.1,105c0.5,21.1,1,42.2,1.7,63.2c0.5-0.5,1-1,1.5-1.5c-10.3,0.9-20.6,1.8-30.9,2.7c0.5,0.5,1,1,1.5,1.5
						c3.5-66.3,4.4-132.8,1.4-199.1c-3.1-69.3-5-138.6-8.8-207.8c-0.8-14.4-1.6-28.8-3-43.2c-0.6-5.9-0.2-14.8-3.3-20.2
						c-1-1.7-3.6-0.2-2.6,1.5c2.5,4.4,2.3,12.3,2.8,17.4c1.2,12.1,1.9,24.3,2.6,36.5c2,34.6,3.4,69.2,4.8,103.8
						c2.9,73.1,7.3,146.3,6.1,219.5c-0.5,30.5-1.4,61.1-3.1,91.6c0,0.8,0.7,1.6,1.5,1.5c10.3-0.9,20.6-1.8,30.9-2.7
						c0.8-0.1,1.5-0.6,1.5-1.5c-1.7-52.3-2.8-104.6-2.8-156.9c0-15.6,0.1-31.3,0.6-46.9c0.2-5.9,0.4-11.8,0.9-17.7
						c0.2-2.4,0.2-5,0.6-7.4c0.3-1.6,1-3.2,1.3-4.9c1.7-9.2,0.9-19,0.7-28.2c-0.2-13.1-0.5-26.2-0.4-39.3
						c0.1-25.6,0.7-51.2,1.5-76.8c1.1-33.6,2.6-67.3,4.7-100.9C650.2,403.7,647.2,403.7,647.1,405.6L647.1,405.6z"/>
				</g>
			</g>
			<g>
				<path class="st0" d="M161.5,397.6c0,0-6.7,107.2-6.2,190.1c0.3,9.8,0.4,18.8,0.4,26.9c0,0,0,0.1,0,0.1
					c0.6,20.2-0.3,29.3-1.9,31.4c-5.4,47.9,0.5,230.5,0.5,230.5l-30.9,2.7c0,0,5.8-109.7,2.1-184.4c-3.7-74.7-9.2-274.7-15.6-285"/>
				<g>
					<path class="st1" d="M160,397.6c-1.7,28-3,56-4.1,84.1c-1,24.8-1.7,49.6-2,74.4c-0.3,25.3,1.1,50.7,0.4,76.1
						c-0.1,3.4-0.1,7-0.9,10.4c-0.4,2-1.2,3.6-1.4,5.6c-0.5,5.2-0.8,10.3-1.1,15.5c-0.7,14.8-0.9,29.7-1,44.6
						c-0.2,35,0.4,70,1.1,105c0.5,21.1,1,42.2,1.7,63.2c0.5-0.5,1-1,1.5-1.5c-10.3,0.9-20.6,1.8-30.9,2.7c0.5,0.5,1,1,1.5,1.5
						c3.5-66.3,4.4-132.8,1.4-199.1c-3.1-69.3-5-138.6-8.8-207.8c-0.8-14.4-1.6-28.8-3-43.2c-0.6-5.9-0.2-14.8-3.3-20.2
						c-1-1.7-3.6-0.2-2.6,1.5c2.5,4.4,2.3,12.3,2.8,17.4c1.2,12.1,1.9,24.3,2.6,36.5c2,34.6,3.4,69.2,4.8,103.8
						c2.9,73.1,7.3,146.3,6.1,219.5c-0.5,30.5-1.4,61.1-3.1,91.6c0,0.8,0.7,1.6,1.5,1.5c10.3-0.9,20.6-1.8,30.9-2.7
						c0.8-0.1,1.5-0.6,1.5-1.5c-1.7-52.3-2.8-104.6-2.8-156.9c0-15.6,0.1-31.3,0.6-46.9c0.2-5.9,0.4-11.8,0.9-17.7
						c0.2-2.4,0.2-5,0.6-7.4c0.3-1.6,1-3.2,1.3-4.9c1.7-9.2,0.9-19,0.7-28.2c-0.2-13.1-0.5-26.2-0.4-39.3
						c0.1-25.6,0.7-51.2,1.5-76.8c1.1-33.6,2.6-67.3,4.7-100.9C163.2,395.6,160.2,395.7,160,397.6L160,397.6z"/>
				</g>
			</g>
			<g>
				<path class="st0" d="M568.3,405.6c0,0-6.7,107.2-6.2,190.1c0.3,9.8,0.4,18.8,0.4,26.9c0,0,0,0.1,0,0.1
					c0.6,20.2-0.3,29.3-1.9,31.4c-5.4,47.9,0.5,230.5,0.5,230.5l-30.9,2.7c0,0,5.8-109.7,2.1-184.4c-3.7-74.7-9.2-274.7-15.6-285"/>
				<g>
					<path class="st1" d="M566.8,405.6c-1.7,28-3,56-4.1,84.1c-1,24.8-1.7,49.6-2,74.4c-0.3,25.3,1.1,50.7,0.4,76.1
						c-0.1,3.4-0.1,7-0.9,10.4c-0.4,2-1.2,3.6-1.4,5.6c-0.5,5.2-0.8,10.3-1.1,15.5c-0.7,14.8-0.9,29.7-1,44.6
						c-0.2,35,0.4,70,1.1,105c0.5,21.1,1,42.2,1.7,63.2c0.5-0.5,1-1,1.5-1.5c-10.3,0.9-20.6,1.8-30.9,2.7c0.5,0.5,1,1,1.5,1.5
						c3.5-66.3,4.4-132.8,1.4-199.1c-3.1-69.3-5-138.6-8.8-207.8c-0.8-14.4-1.6-28.8-3-43.2c-0.6-5.9-0.2-14.8-3.3-20.2
						c-1-1.7-3.6-0.2-2.6,1.5c2.5,4.4,2.3,12.3,2.8,17.4c1.2,12.1,1.9,24.3,2.6,36.5c2,34.6,3.4,69.2,4.8,103.8
						c2.9,73.1,7.3,146.3,6.1,219.5c-0.5,30.5-1.4,61.1-3.1,91.6c0,0.8,0.7,1.6,1.5,1.5c10.3-0.9,20.6-1.8,30.9-2.7
						c0.8-0.1,1.5-0.6,1.5-1.5c-1.7-52.3-2.8-104.6-2.8-156.9c0-15.6,0.1-31.3,0.6-46.9c0.2-5.9,0.4-11.8,0.9-17.7
						c0.2-2.4,0.2-5,0.6-7.4c0.3-1.6,1-3.2,1.3-4.9c1.7-9.2,0.9-19,0.7-28.2c-0.2-13.1-0.5-26.2-0.4-39.3
						c0.1-25.6,0.7-51.2,1.5-76.8c1.1-33.6,2.6-67.3,4.7-100.9C569.9,403.7,566.9,403.7,566.8,405.6L566.8,405.6z"/>
				</g>
			</g>
			<g>
				<g id="XMLID_40202_">
					<path class="st0" d="M6.3,422.6c0,0-2.3,4.6,5.6,4.8c253.9,5.4,657.8-0.3,657.8-0.3c7.9-0.5,5.6-4.8,5.6-4.8
						c10.3-143.7,0-411.2,0-411.2s2.3-4.5-5.6-4.8C275.2-4.4,7.3,6.1,7.3,6.1c-7.9,0.5-5.6,4.8-5.6,4.8S1.1,236.3,6.3,422.6z"/>
					<g>
						<path class="st1" d="M5,421.8c-3.1,6.7,6.6,7,10.6,7.1c10.8,0.2,21.5,0.4,32.3,0.6c22.3,0.4,44.5,0.7,66.8,0.9
							c47.6,0.5,95.1,0.7,142.7,0.8c88.6,0.1,177.1-0.3,265.7-1c47.5-0.4,95.1-0.9,142.6-1.5c3.9-0.1,11.3,0.4,11.3-5.1
							c0-2.3-0.1-4.2,0.1-6.7c0.3-4.9,0.6-9.7,0.9-14.6c0.6-10,1-19.9,1.4-29.9c1.7-43.8,2-87.7,1.9-131.5
							c-0.2-70.5-1.6-141.1-3.9-211.6c-0.2-5.8-0.5-11.6-0.6-17.4c0-0.3,0-0.5,0-0.8c-0.1,1.6,0.2-0.2,0.2-0.5c0.1-1.1,0.1-2-0.5-3
							c-2-3.4-7.6-2.7-10.8-2.8c-8.6-0.2-17.2-0.5-25.7-0.7c-61-1.5-122-2.6-183-3.3c-94.5-1-189.1-1.1-283.6,0.1
							C123.1,1.5,72.9,2.5,22.7,4.1C17.7,4.2,0.2,2.5,0,10c0,0.3,0.4,2.6,0.3,0.9c0,0.1,0,0.2,0,0.3c0,0.6,0,1.2,0,1.8
							c0,2.9,0,5.8,0,8.7c0,11.8,0,23.7,0,35.5C0.4,152.1,1.1,247,2.9,341.8c0.5,26.9,1.1,53.8,1.9,80.7c0.1,1.9,3.1,1.9,3,0
							C5,320.1,3.9,217.6,3.4,115.2C3.3,85,3.2,54.9,3.3,24.7c0-4.6,0-9.2,0-13.8c0-2.6,0.6-2.9,4.1-3.3c0.1,0,0.3,0,0.4,0
							c0.9-0.1,1.9-0.1,2.8-0.1c36.6-1.3,73.2-2.1,109.7-2.8c81.4-1.5,162.8-1.9,244.1-1.6c54.5,0.2,109,0.8,163.4,1.7
							c30.2,0.5,60.3,1.1,90.5,1.8c15.7,0.4,31.5,0.8,47.2,1.2c2.8,0.1,7.5-0.7,8.3,2.4c0.1,0.3-0.3,0.4-0.2,1c0,0.3,0,0.6,0,0.9
							c-0.2,5.5,0.4,11.2,0.6,16.7c0.4,11.6,0.7,23.2,1.1,34.8c1,35.6,1.8,71.2,2.3,106.8c1.2,82.8,1.9,166-3.8,248.6
							c-0.3,4.3,0.7,6.2-4.8,6.5c-1.3,0.1-2.6,0-3.8,0.1c-6,0.1-11.9,0.2-17.9,0.2c-23.7,0.3-47.4,0.6-71,0.8
							c-78.9,0.8-157.7,1.3-236.6,1.5c-91.5,0.2-183,0-274.5-1.3c-10.1-0.1-20.3-0.3-30.4-0.5c-5.1-0.1-10.3-0.2-15.4-0.3
							c-2.1,0-13.3,0.5-11.9-2.7C8.4,421.6,5.8,420,5,421.8z"/>
					</g>
				</g>
				<g id="XMLID_40201_">
					<path class="st0" d="M19.8,47.8c0,0-2.4-15.3,10.2-15.8c0,0,219.8-17.9,490.3,0.3c12.6,0.8,10.2,15.8,10.2,15.8
						s2.4,198.5-4.5,337.2c0,0,2.4,15.3-10.2,15.8c0,0-209.5,12.3-481.2,0.3c-12.6-0.6-10.2-15.8-10.2-15.8L19.8,47.8z"/>
					<g>
						<path class="st1" d="M21.3,47.4c-0.7-4.9,0.5-11.5,5.8-13.4c1.4-0.5,2.9-0.5,4.4-0.6c4.3-0.4,8.5-0.6,12.8-0.9
							c20.6-1.4,41.2-2.5,61.8-3.4c78.4-3.4,156.8-4.3,235.3-2.9c52.4,0.9,104.8,2.9,157.2,6.1c6.6,0.4,13.2,0.7,19.8,1.3
							c5.1,0.4,9,1.9,10.4,7.3c0.7,2.5,0.4,5.1,0.3,7.5c-0.1,4.9,0.1,9.8,0.1,14.6c0.5,66.5,0.3,133.1-0.8,199.6
							c-0.4,21.4-0.9,42.8-1.5,64.2c-0.3,10.4-0.7,20.8-1.1,31.3c-0.4,9.2-1.3,18.5-1.1,27.6c0.1,5.4-0.2,12.2-6.8,13.7
							c-1.1,0.3-2.3,0.2-3.4,0.3c-4.1,0.3-8.3,0.4-12.4,0.6c-52.4,2.5-104.8,3.8-157.2,4.4c-95.5,1.2-190.9-0.1-286.3-3.9
							c-6.6-0.3-13.2-0.5-19.8-0.8c-5.4-0.2-10.3-0.6-12.2-6.4c-0.9-2.7-0.6-5.5-0.5-8.2c0.1-2.7-0.1-5.5-0.1-8.2
							c-0.2-15.9-0.4-31.8-0.6-47.7C24.4,277,23.7,224.3,23,171.7c-0.5-39.2-1-78.4-1.6-117.6c0-2.1-0.1-4.2-0.1-6.3
							c0-1.9-3-1.9-3,0c0.4,30.4,0.8,60.8,1.2,91.1c0.7,55.1,1.5,110.1,2.2,165.2c0.3,20.3,0.5,40.6,0.8,60.9
							c0.1,5.5,0.1,10.9,0.2,16.4c0,3.6-0.3,5-0.1,8.4c0.3,5.3,2.7,10.6,8.1,12.4c4.9,1.6,10.7,0.9,15.7,1.1
							c7.9,0.3,15.7,0.6,23.6,0.9c27.1,1,54.3,1.8,81.4,2.4c48.4,1.1,96.7,1.5,145.1,1.4c63.5-0.2,126.9-1.4,190.3-4.1
							c9.6-0.4,19.2-0.6,28.8-1.4c12.7-1.1,11.6-12.7,12-22.3c1-21.4,1.8-42.8,2.4-64.2c2.2-77,2.6-154.1,2.2-231.1
							c0-9.6-0.1-19.2-0.2-28.8c0-3.7,0-7.6,0.1-10.3c0.2-5.1-1.3-10.8-6-13.6c-3.5-2.1-8-1.8-11.9-2.1c-7.2-0.5-14.5-0.9-21.8-1.4
							c-27.5-1.6-55-2.9-82.5-3.9c-89.7-3.2-179.6-3.3-269.3-0.3c-36.8,1.2-74,2.1-110.7,5.7c-9.4,0.9-13.1,9-11.8,17.7
							C18.6,50.1,21.5,49.3,21.3,47.4z"/>
					</g>
				</g>
				<g id="XMLID_40200_">
					<path class="st0" d="M71.2,57.9c-10-1-14.9,11.1-14.9,11.1S56,352.8,60.9,364.5c0,0,4.9,11.6,14.9,11.1
						c0,0,366.2,4.6,398.9-0.3c9.9-1.5,14.9-11.1,14.9-11.1s7-261.9,4.5-295c0,0-4.9-11.6-14.9-11.1C479.1,58.1,82.7,59,71.2,57.9z"
						/>
					<g>
						<path class="st1" d="M71.2,56.4C63.6,56,54.9,63,54.9,70.9c0,6.5,0,12.9,0,19.4c0,27.3,0.1,54.6,0.2,81.9
							c0.2,33.9,0.4,67.7,0.9,101.6c0.3,25.4,0.6,50.9,2,76.2c0.3,4.7,0,10.3,1.6,14.8c2.8,7.9,10.1,12.1,18.1,12.2
							c15.3,0.2,30.7,0.4,46,0.5c29.7,0.3,59.4,0.6,89.1,0.8c34.9,0.3,69.9,0.5,104.8,0.6c31.5,0.1,63,0.1,94.5-0.2
							c19.2-0.2,38.6,0,57.8-1.5c3.7-0.3,7.2-0.6,10.6-2.3c3.9-1.9,9.5-6.3,10.5-10.9c0.9-4.3,0.3-9.6,0.4-13.9
							c0.7-26.4,1.3-52.8,1.9-79.2c0.8-35.3,1.5-70.6,2.1-105.9c0.4-27.4,1-54.8,0.6-82.2c-0.1-3.7-0.1-7.3-0.3-11
							c-0.2-4.4-2.4-7.8-5.7-10.9c-4.6-4.3-9.8-4.3-15.5-4.3c-16.9,0-33.8,0.1-50.7,0.1c-29.3,0-58.6,0.1-87.9,0.1
							c-33.9,0-67.9,0.1-101.8,0.1c-30.8,0-61.7,0-92.5-0.1c-20,0-40.1,0-60.1-0.3C78.1,56.5,74.6,56.7,71.2,56.4
							c-1.9-0.2-1.9,2.8,0,3c11.4,1,23.2,0.4,34.7,0.4c25.6,0.1,51.2,0.1,76.8,0.2c64.8,0,129.6,0,194.4-0.1
							c24.4,0,48.8-0.1,73.2-0.1c9.9,0,20.2-0.9,30-0.1c5.1,0.4,8.9,4.2,11.3,8.4c1.2,2,0.8,1.3,0.9,3.5c0.2,3.5,0.2,7,0.3,10.5
							c0.2,11,0.1,22.1,0,33.1c-0.2,32.7-0.8,65.3-1.5,98c-0.6,32.7-1.4,65.3-2.2,98c-0.4,17.3-0.3,34.8-1.3,52.1c0,0.3,0,0.7,0,0.9
							c0.3-1.5-0.3,0.2-0.6,0.7c-1.5,1.8-2.8,3.6-4.6,5.1c-3.9,3.2-8.2,3.9-12.9,4.3c-7.3,0.6-14.5,0.7-21.8,0.9
							c-25.9,0.7-51.7,0.7-77.6,0.8c-66.2,0.1-132.5-0.3-198.7-0.9c-24.4-0.2-48.8-0.5-73.2-0.8c-6.2-0.1-12.4-0.1-18.6-0.2
							c-1.2,0-2.5,0-3.7,0c-6.2-0.2-11.2-4.1-13.6-9.8c-1.3-3.1-1.3-9.3-1.5-13.3c-0.6-10.3-0.9-20.6-1.1-31
							c-0.8-30.4-1.1-60.9-1.4-91.3C58,176.8,57.8,124.9,57.9,73c0-1.2-0.2-2.6,0-3.9c0-0.3,0.1-0.2-0.1,0.4c0.3-1,1-2,1.5-2.9
							c2.7-4.3,6.6-7.5,11.9-7.3C73.2,59.4,73.2,56.4,71.2,56.4z"/>
					</g>
				</g>
				<g id="XMLID_40199_">
					<path class="st0" d="M636.8,238.8c0,0-29.7-11-38,17.1s16.9,33.8,20.3,33.6c3.4-0.2,32.6-2.6,30.2-21.3
						C646.9,249.5,642.5,242,636.8,238.8z"/>
					<g>
						<path class="st1" d="M637.2,237.4c-7.9-2.9-17.7-3.2-25.4,0.2c-13.4,5.9-19.9,25.3-14.3,38.5c3.3,8,12.5,14.7,21.4,14.9
							c9.5,0.2,22.7-3.5,28.7-11.2c5.5-7,2.8-16.8,0.7-24.7c-1.8-6.7-4.6-13.8-10.8-17.6c-1.7-1-3.2,1.6-1.5,2.6
							c5,3,7.3,8.5,8.9,13.9c2,6.8,5.2,16.8,0.9,23.2c-5.1,7.5-17.4,10.4-26,10.7c-6.8,0.2-14.3-4.4-18-10
							c-7.5-11.6-1.7-31.5,10.7-37.4c7.2-3.4,16.5-3,23.9-0.3C638.2,240.9,639,238,637.2,237.4z"/>
					</g>
				</g>
				<g id="XMLID_40198_">
					<path class="st0" d="M636.8,322.3c0,0-29.7-11-38,17.1s16.9,33.8,20.3,33.6c3.4-0.2,32.6-2.6,30.2-21.3
						C646.9,332.9,642.5,325.5,636.8,322.3z"/>
					<g>
						<path class="st1" d="M637.2,320.8c-7.9-2.9-17.7-3.2-25.4,0.2c-13.4,5.9-19.9,25.3-14.3,38.5c3.3,8,12.5,14.7,21.4,14.9
							c9.5,0.2,22.7-3.5,28.7-11.2c5.5-7,2.8-16.8,0.7-24.7c-1.8-6.7-4.6-13.8-10.8-17.6c-1.7-1-3.2,1.6-1.5,2.6
							c5,3,7.3,8.5,8.9,13.9c2,6.8,5.2,16.8,0.9,23.2c-5.1,7.5-17.4,10.4-26,10.7c-6.8,0.2-14.3-4.4-18-10
							c-7.5-11.6-1.7-31.5,10.7-37.4c7.2-3.4,16.5-3,23.9-0.3C638.2,324.4,639,321.5,637.2,320.8z"/>
					</g>
				</g>
				<g id="XMLID_40197_">
					<path class="st0" d="M572.6,236.8c0,0-13.7-5.1-17.5,7.9s7.8,15.5,9.3,15.4c1.6-0.1,15-1.2,13.9-9.8
						C577.3,241.7,575.2,238.2,572.6,236.8z"/>
					<g>
						<path class="st1" d="M573,235.3c-5.7-2-12.7-1.3-16.7,3.6c-5.5,6.9-4.6,17.8,3.9,21.6c5,2.2,12,0.6,16.2-2.7
							c3.8-3,3.7-6.8,2.9-11.1c-0.8-4.2-2.1-8.8-5.9-11.2c-1.6-1-3.1,1.6-1.5,2.6c2.9,1.8,3.8,5.6,4.4,8.7c0.9,4.6,0.7,7.8-3.8,9.9
							c-3.4,1.6-7.7,2.6-11.3,0.9c-7.2-3.4-6.7-14.3-0.6-18.6c3.3-2.3,8-2.1,11.6-0.8C574.1,238.9,574.9,236,573,235.3z"/>
					</g>
				</g>
				<g id="XMLID_40196_">
					<path class="st0" d="M572.6,266c0,0-13.7-5.1-17.5,7.9c-3.8,12.9,7.8,15.5,9.3,15.4c1.6-0.1,15-1.2,13.9-9.8
						C577.3,270.9,575.2,267.4,572.6,266z"/>
					<g>
						<path class="st1" d="M573,264.5c-5.7-2-12.7-1.3-16.7,3.6c-5.5,6.9-4.6,17.8,3.9,21.6c5,2.2,12,0.6,16.2-2.7
							c3.8-3,3.7-6.8,2.9-11.1c-0.8-4.2-2.1-8.8-5.9-11.2c-1.6-1-3.1,1.6-1.5,2.6c2.9,1.8,3.8,5.6,4.4,8.7c0.9,4.6,0.7,7.8-3.8,9.9
							c-3.4,1.6-7.7,2.6-11.3,0.9c-7.2-3.4-6.7-14.3-0.6-18.6c3.3-2.3,8-2.1,11.6-0.8C574.1,268.1,574.9,265.2,573,264.5z"/>
					</g>
				</g>
				<g id="XMLID_40195_">
					<path class="st0" d="M572.6,295.6c0,0-13.7-5.1-17.5,7.9s7.8,15.5,9.3,15.4c1.6-0.1,15-1.2,13.9-9.8
						C577.3,300.5,575.2,297,572.6,295.6z"/>
					<g>
						<path class="st1" d="M573,294.1c-5.7-2-12.7-1.3-16.7,3.6c-5.5,6.9-4.6,17.8,3.9,21.6c5,2.2,12,0.6,16.2-2.7
							c3.8-3,3.7-6.8,2.9-11.1c-0.8-4.2-2.1-8.8-5.9-11.2c-1.6-1-3.1,1.6-1.5,2.6c2.9,1.8,3.8,5.6,4.4,8.7c0.9,4.6,0.7,7.8-3.8,9.9
							c-3.4,1.6-7.7,2.6-11.3,0.9c-7.2-3.4-6.7-14.3-0.6-18.6c3.3-2.3,8-2.1,11.6-0.8C574.1,297.7,574.9,294.8,573,294.1z"/>
					</g>
				</g>
				<g id="XMLID_40194_">
					<path class="st0" d="M572.6,324.3c0,0-13.7-5.1-17.5,7.9c-3.8,12.9,7.8,15.5,9.3,15.4c1.6-0.1,15-1.2,13.9-9.8
						C577.3,329.2,575.2,325.8,572.6,324.3z"/>
					<g>
						<path class="st1" d="M573,322.9c-5.7-2-12.7-1.3-16.7,3.6c-5.5,6.9-4.6,17.8,3.9,21.6c5,2.2,12,0.6,16.2-2.7
							c3.8-3,3.7-6.8,2.9-11.1c-0.8-4.2-2.1-8.8-5.9-11.2c-1.6-1-3.1,1.6-1.5,2.6c2.9,1.8,3.8,5.6,4.4,8.7c0.9,4.6,0.7,7.8-3.8,9.9
							c-3.4,1.6-7.7,2.6-11.3,0.9c-7.2-3.4-6.7-14.3-0.6-18.6c3.3-2.3,8-2.1,11.6-0.8C574.1,326.4,574.9,323.5,573,322.9z"/>
					</g>
				</g>
				<g id="XMLID_40193_">
					<path class="st0" d="M572.6,355.2c0,0-13.7-5.1-17.5,7.9c-3.8,12.9,7.8,15.5,9.3,15.4c1.6-0.1,15-1.2,13.9-9.8
						C577.3,360.1,575.2,356.7,572.6,355.2z"/>
					<g>
						<path class="st1" d="M573,353.8c-5.7-2-12.7-1.3-16.7,3.6c-5.5,6.9-4.6,17.8,3.9,21.6c5,2.2,12,0.6,16.2-2.7
							c3.8-3,3.7-6.8,2.9-11.1c-0.8-4.2-2.1-8.8-5.9-11.2c-1.6-1-3.1,1.6-1.5,2.6c2.9,1.8,3.8,5.6,4.4,8.7c0.9,4.6,0.7,7.8-3.8,9.9
							c-3.4,1.6-7.7,2.6-11.3,0.9c-7.2-3.4-6.7-14.3-0.6-18.6c3.3-2.3,8-2.1,11.6-0.8C574.1,357.3,574.9,354.4,573,353.8z"/>
					</g>
				</g>
				<g id="XMLID_40192_">
					<path class="st0" d="M543.8,40.2c0,0,35,1.8,53.4,0s30-2.3,61.7,0.8"/>
					<g>
						<path class="st1" d="M543.8,41.7c16.8,0.9,33.9,1.5,50.7,0.2c9-0.7,17.9-1.7,26.9-1.7c12.5,0,25.1,1.1,37.5,2.3
							c1.9,0.2,1.9-2.8,0-3c-12.3-1.2-24.6-2.3-37-2.3c-9.2,0-18.3,1-27.4,1.7c-16.8,1.3-33.9,0.6-50.7-0.2
							C541.9,38.6,541.9,41.6,543.8,41.7L543.8,41.7z"/>
					</g>
				</g>
				<g id="XMLID_40190_">
					<path class="st0" d="M543.8,58.4c0,0,35,1.8,53.4,0s30-2.3,61.7,0.8"/>
					<g>
						<path class="st1" d="M543.8,59.9c16.8,0.9,33.9,1.5,50.7,0.2c9-0.7,17.9-1.7,26.9-1.7c12.5,0,25.1,1.1,37.5,2.3
							c1.9,0.2,1.9-2.8,0-3c-12.3-1.2-24.6-2.3-37-2.3c-9.2,0-18.3,1-27.4,1.7c-16.8,1.3-33.9,0.6-50.7-0.2
							C541.9,56.8,541.9,59.8,543.8,59.9L543.8,59.9z"/>
					</g>
				</g>
				<g id="XMLID_40189_">
					<path class="st0" d="M603.4,66.3c13.2-1.8,52.3,2.4,55.4,2.9"/>
					<g>
						<path class="st1" d="M603.4,67.8c10.1-1.3,20.7-0.2,30.9,0.5c8,0.6,16.2,1.1,24.2,2.3c1.9,0.3,2.7-2.6,0.8-2.9
							c-7.8-1.2-15.9-1.7-23.8-2.4c-10.5-0.8-21.6-2-32.1-0.6C601.6,65,601.5,68,603.4,67.8L603.4,67.8z"/>
					</g>
				</g>
				<g id="XMLID_40185_">
					<path class="st0" d="M603.4,102.2c13.2-1.8,52.3,2.4,55.4,2.9"/>
					<g>
						<path class="st1" d="M603.4,103.7c10.1-1.3,20.7-0.2,30.9,0.5c8,0.6,16.2,1.1,24.2,2.3c1.9,0.3,2.7-2.6,0.8-2.9
							c-7.8-1.2-15.9-1.7-23.8-2.4c-10.5-0.8-21.6-2-32.1-0.6C601.6,101,601.5,104,603.4,103.7L603.4,103.7z"/>
					</g>
				</g>
				<g id="XMLID_40184_">
					<path class="st0" d="M129.2,69.2c0,0-60.2-10.6-51.5,14.3s3.2,30.9,15,20s-5.5-27.3,4.8-27.8S153.7,85.3,129.2,69.2z"/>
					<g>
						<path class="st1" d="M129.6,67.8c-13.4-2.4-61.5-8.9-53,17.1c1.9,5.9,3.5,11.8,4.8,17.8c0.4,2,0.7,5.3,2.3,6.8
							c3.7,3.3,10.7-5,12.4-7.4c2.4-3.5,2.8-7.6,2.2-11.8c-0.4-2.7-3.8-9.2-2.7-11.8c1.5-3.4,16.5,0.1,19.5,0.4
							c5.7,0.6,15.2,3,20.6,0.1c6.1-3.3-3.2-9.3-5.8-11.1c-1.6-1.1-3.1,1.5-1.5,2.6c0.8,0.5,6.9,4.1,6.4,5.7
							c-0.2,0.7-4.3,0.7-5.1,0.7c-6.2,0.1-12.5-0.8-18.6-1.5c-4.4-0.5-11.1-2.4-15.5-0.8c-5.1,1.8-2.4,8-1.4,11.6
							c1,3.6,2,7.5,0.8,11.2c-0.8,2.6-5.4,8.8-8.6,9.6c-1.4,0.3-1.4-1.6-1.8-3.4c-1.1-4.6-2-9.2-3.4-13.8
							c-1.7-5.9-5.6-12.9,0.8-17.2c4.6-3.1,11-3.7,16.4-4c10.1-0.5,20.4,0.3,30.3,2.1C130.7,71,131.5,68.1,129.6,67.8z"/>
					</g>
				</g>
				<g id="XMLID_40183_">
					<path class="st0" d="M569.8,241.8c0,0-7.5-2.8-9.6,4.3c-2.1,7.1,4.3,8.5,5.1,8.5c0.9-0.1,8.2-0.7,7.6-5.4
						C572.4,244.5,571.3,242.6,569.8,241.8z"/>
					<g>
						<path class="st1" d="M570.2,240.3c-3.4-1.2-7.6-0.7-9.9,2.3c-3.2,4.1-2.6,10.5,2.4,12.8c3,1.4,7.2,0.4,9.7-1.6
							c2.3-1.8,2.3-4.1,1.7-6.8c-0.5-2.5-1.3-5.1-3.6-6.6c-1.6-1-3.1,1.6-1.5,2.6c1.4,0.9,1.8,2.9,2.1,4.4c0.5,2.2,0.4,3.7-1.8,4.7
							c-1.8,0.8-3.8,1.3-5.5,0.5c-3.5-1.6-3.3-7-0.3-9.1c1.6-1.1,4-1,5.8-0.3C571.3,243.9,572.1,241,570.2,240.3z"/>
					</g>
				</g>
				<g id="XMLID_40182_">
					<path class="st0" d="M626.7,253.9c0,0-7.5-2.8-9.6,4.3c-2.1,7.1,4.3,8.5,5.1,8.5c0.9-0.1,8.2-0.7,7.6-5.4
						C629.3,256.6,628.2,254.7,626.7,253.9z"/>
					<g>
						<path class="st1" d="M627.1,252.5c-3.4-1.2-7.6-0.7-9.9,2.3c-3.2,4.1-2.6,10.5,2.4,12.8c3,1.4,7.2,0.4,9.7-1.6
							c2.3-1.8,2.3-4.1,1.7-6.8c-0.5-2.5-1.3-5.1-3.6-6.6c-1.6-1-3.1,1.6-1.5,2.6c1.4,0.9,1.8,2.9,2.1,4.4c0.5,2.2,0.4,3.7-1.8,4.7
							c-1.8,0.8-3.8,1.3-5.5,0.5c-3.5-1.6-3.3-7-0.3-9.1c1.6-1.1,4-1,5.8-0.3C628.2,256,628.9,253.1,627.1,252.5z"/>
					</g>
				</g>
				<g id="XMLID_40181_">
					<path class="st0" d="M626.7,340.4c0,0-7.5-2.8-9.6,4.3c-2.1,7.1,4.3,8.5,5.1,8.5c0.9-0.1,8.2-0.7,7.6-5.4
						S628.2,341.2,626.7,340.4z"/>
					<g>
						<path class="st1" d="M627.1,338.9c-3.4-1.2-7.6-0.7-9.9,2.3c-3.2,4.1-2.6,10.5,2.4,12.8c3,1.4,7.2,0.4,9.7-1.6
							c2.3-1.8,2.3-4.1,1.7-6.8c-0.5-2.5-1.3-5.1-3.6-6.6c-1.6-1-3.1,1.6-1.5,2.6c1.4,0.9,1.8,2.9,2.1,4.4c0.5,2.2,0.4,3.7-1.8,4.7
							c-1.8,0.8-3.8,1.3-5.5,0.5c-3.5-1.6-3.3-7-0.3-9.1c1.6-1.1,4-1,5.8-0.3C628.2,342.5,628.9,339.6,627.1,338.9z"/>
					</g>
				</g>
				<g id="XMLID_40180_">
					<path class="st0" d="M543.8,112.7c0,0,35,1.8,53.4,0s30-2.3,61.7,0.8"/>
					<g>
						<path class="st1" d="M543.8,114.2c16.8,0.9,33.9,1.5,50.7,0.2c9-0.7,17.9-1.7,26.9-1.7c12.5,0,25.1,1.1,37.5,2.3
							c1.9,0.2,1.9-2.8,0-3c-12.3-1.2-24.6-2.3-37-2.3c-9.2,0-18.3,1-27.4,1.7c-16.8,1.3-33.9,0.6-50.7-0.2
							C541.9,111.1,541.9,114.1,543.8,114.2L543.8,114.2z"/>
					</g>
				</g>
				<g id="XMLID_40178_">
					<path class="st0" d="M543.8,130.9c0,0,35,1.8,53.4,0s30-2.3,61.7,0.8"/>
					<g>
						<path class="st1" d="M543.8,132.4c16.8,0.9,33.9,1.5,50.7,0.2c9-0.7,17.9-1.7,26.9-1.7c12.5,0,25.1,1.1,37.5,2.3
							c1.9,0.2,1.9-2.8,0-3c-12.3-1.2-24.6-2.3-37-2.3c-9.2,0-18.3,1-27.4,1.7c-16.8,1.3-33.9,0.6-50.7-0.2
							C541.9,129.3,541.9,132.3,543.8,132.4L543.8,132.4z"/>
					</g>
				</g>
				<g id="XMLID_40176_">
					<path class="st0" d="M543.8,148.6c0,0,35,1.8,53.4,0s30-2.3,61.7,0.8"/>
					<g>
						<path class="st1" d="M543.8,150.1c16.8,0.9,33.9,1.5,50.7,0.2c9-0.7,17.9-1.7,26.9-1.7c12.5,0,25.1,1.1,37.5,2.3
							c1.9,0.2,1.9-2.8,0-3c-12.3-1.2-24.6-2.3-37-2.3c-9.2,0-18.3,1-27.4,1.7c-16.8,1.3-33.9,0.6-50.7-0.2
							C541.9,147,541.9,150,543.8,150.1L543.8,150.1z"/>
					</g>
				</g>
				<g id="XMLID_40173_">
					<path class="st0" d="M603.4,174.8c13.2-1.8,52.3,2.4,55.4,2.9"/>
					<g>
						<path class="st1" d="M603.4,176.3c10.1-1.3,20.7-0.2,30.9,0.5c8,0.6,16.2,1.1,24.2,2.3c1.9,0.3,2.7-2.6,0.8-2.9
							c-7.8-1.2-15.9-1.7-23.8-2.4c-10.5-0.8-21.6-2-32.1-0.6C601.6,173.5,601.5,176.5,603.4,176.3L603.4,176.3z"/>
					</g>
				</g>
				<g id="XMLID_39977_">
					<path class="st0" d="M569.8,271.2c0,0-7.5-2.8-9.6,4.3c-2.1,7.1,4.3,8.5,5.1,8.5c0.9-0.1,8.2-0.7,7.6-5.4
						C572.4,273.9,571.3,272,569.8,271.2z"/>
					<g>
						<path class="st1" d="M570.2,269.8c-3.4-1.2-7.6-0.7-9.9,2.3c-3.2,4.1-2.6,10.5,2.4,12.8c3,1.4,7.2,0.4,9.7-1.6
							c2.3-1.8,2.3-4.1,1.7-6.8c-0.5-2.5-1.3-5.1-3.6-6.6c-1.6-1-3.1,1.6-1.5,2.6c1.4,0.9,1.8,2.9,2.1,4.4c0.5,2.2,0.4,3.7-1.8,4.7
							c-1.8,0.8-3.8,1.3-5.5,0.5c-3.5-1.6-3.3-7-0.3-9.1c1.6-1.1,4-1,5.8-0.3C571.3,273.3,572.1,270.4,570.2,269.8z"/>
					</g>
				</g>
				<g id="XMLID_39976_">
					<path class="st0" d="M569.8,300.6c0,0-7.5-2.8-9.6,4.3c-2.1,7.1,4.3,8.5,5.1,8.5c0.9-0.1,8.2-0.7,7.6-5.4
						C572.4,303.3,571.3,301.5,569.8,300.6z"/>
					<g>
						<path class="st1" d="M570.2,299.2c-3.4-1.2-7.6-0.7-9.9,2.3c-3.2,4.1-2.6,10.5,2.4,12.8c3,1.4,7.2,0.4,9.7-1.6
							c2.3-1.8,2.3-4.1,1.7-6.8c-0.5-2.5-1.3-5.1-3.6-6.6c-1.6-1-3.1,1.6-1.5,2.6c1.4,0.9,1.8,2.9,2.1,4.4c0.5,2.2,0.4,3.7-1.8,4.7
							c-1.8,0.8-3.8,1.3-5.5,0.5c-3.5-1.6-3.3-7-0.3-9.1c1.6-1.1,4-1,5.8-0.3C571.3,302.7,572.1,299.9,570.2,299.2z"/>
					</g>
				</g>
				<g id="XMLID_39975_">
					<path class="st0" d="M569.8,330.1c0,0-7.5-2.8-9.6,4.3c-2.1,7.1,4.3,8.5,5.1,8.5c0.9-0.1,8.2-0.7,7.6-5.4
						C572.4,332.8,571.3,330.9,569.8,330.1z"/>
					<g>
						<path class="st1" d="M570.2,328.6c-3.4-1.2-7.6-0.7-9.9,2.3c-3.2,4.1-2.6,10.5,2.4,12.8c3,1.4,7.2,0.4,9.7-1.6
							c2.3-1.8,2.3-4.1,1.7-6.8c-0.5-2.5-1.3-5.1-3.6-6.6c-1.6-1-3.1,1.6-1.5,2.6c1.4,0.9,1.8,2.9,2.1,4.4c0.5,2.2,0.4,3.7-1.8,4.7
							c-1.8,0.8-3.8,1.3-5.5,0.5c-3.5-1.6-3.3-7-0.3-9.1c1.6-1.1,4-1,5.8-0.3C571.3,332.2,572.1,329.3,570.2,328.6z"/>
					</g>
				</g>
				<g id="XMLID_39974_">
					<path class="st0" d="M569.8,360.2c0,0-7.5-2.8-9.6,4.3c-2.1,7.1,4.3,8.5,5.1,8.5c0.9-0.1,8.2-0.7,7.6-5.4
						C572.4,362.9,571.3,361,569.8,360.2z"/>
					<g>
						<path class="st1" d="M570.2,358.7c-3.4-1.2-7.6-0.7-9.9,2.3c-3.2,4.1-2.6,10.5,2.4,12.8c3,1.4,7.2,0.4,9.7-1.6
							c2.3-1.8,2.3-4.1,1.7-6.8c-0.5-2.5-1.3-5.1-3.6-6.6c-1.6-1-3.1,1.6-1.5,2.6c1.4,0.9,1.8,2.9,2.1,4.4c0.5,2.2,0.4,3.7-1.8,4.7
							c-1.8,0.8-3.8,1.3-5.5,0.5c-3.5-1.6-3.3-7-0.3-9.1c1.6-1.1,4-1,5.8-0.3C571.3,362.3,572.1,359.4,570.2,358.7z"/>
					</g>
				</g>
			</g>
		</g>
	</g>
</g>
</svg>
