<?xml version="1.0" encoding="utf-8"?>
<!-- Generator: Adobe Illustrator 23.1.1, SVG Export Plug-In . SVG Version: 6.00 Build 0)  -->
<svg version="1.1" id="Layer_1" xmlns="http://www.w3.org/2000/svg" xmlns:xlink="http://www.w3.org/1999/xlink" x="0px" y="0px"
	 viewBox="0 0 807.5 134.8" style="enable-background:new 0 0 807.5 134.8;" xml:space="preserve">
<style type="text/css">
	.st0{fill:#FFFFFF;}
	.st1{fill:#2C2C2C;}
	.st2{fill:#2C2C2C;stroke:#2C2C2C;stroke-linecap:round;stroke-linejoin:round;stroke-miterlimit:10;}
</style>
<g>
	<g id="XMLID_866_">
		<path class="st0" d="M489,113.9c0,0,0.2,0.5-0.6,0.5c-26.7,0.6-69.2,0-69.2,0c-0.8-0.1-0.6-0.5-0.6-0.5c-1.1-15.1,0-43.2,0-43.2
			s-0.2-0.5,0.6-0.5c41.5-1.1,69.6,0,69.6,0c0.8,0.1,0.6,0.5,0.6,0.5S489.6,94.3,489,113.9z"/>
		<g>
			<path class="st1" d="M487.6,114.3c-0.4-1,1.6-1.2,0.5-1.4c-0.2,0-0.5,0-0.6,0c-0.5,0-1.1,0-1.6,0c-1.1,0-2.2,0-3.3,0.1
				c-2.4,0-4.7,0.1-7.1,0.1c-4.9,0-9.8,0.1-14.7,0.1c-8.9,0-17.7,0-26.6-0.1c-3.1,0-6.3-0.1-9.4-0.1c-1.7,0-3.4-0.2-5.1-0.1
				c-0.1,0-0.3,0-0.4,0c0,0,0,0-0.1,0c0.1,0,0.6,2.6,0.9,1.4c0.1-0.4,0-0.7,0-1.1c-0.1-2-0.2-4.1-0.3-6.1c-0.1-4.5-0.2-8.9-0.1-13.4
				c0-7.1,0.2-14.1,0.4-21.2c0-0.6,0.1-1.2,0.1-1.7c0,0,0-0.1,0-0.1c0-0.1,0-0.3-0.1-0.4c0.8,2.6-1.2,1,0.1,1.4
				c0.7,0.2,1.8,0,2.5-0.1c0.9,0,1.8,0,2.7-0.1c6.1-0.1,12.3-0.2,18.4-0.3c14.5-0.1,29-0.1,43.4,0.4c0.4,0,0.9,0.1,1.4,0
				c0.1,0,0.2,0,0.3,0c0,0,0,0,0,0c-0.5,0.1-0.6-2.9-0.9-1.2c0,0.2,0,0.1,0,0.2c-0.2,1.8,0,3.8,0,5.6c0,9.7-0.1,19.5-0.3,29.2
				c-0.1,2.8-0.1,5.6-0.2,8.4c-0.1,1.9,2.9,1.9,3,0c0.3-11.1,0.4-22.3,0.5-33.5c0-3,0-6,0-9c0-0.2,0.1-0.5,0-0.7
				c0-0.2,0.1-0.4-0.1,0.2c-0.3,0.8,0,0.2,0.1-0.1c0-0.3,0.1-0.6,0-0.9c-0.3-1.1-1.3-1.3-2.3-1.4c-4-0.2-8-0.2-11.9-0.3
				c-9.2-0.2-18.4-0.2-27.6-0.2c-6.1,0-12.2,0.1-18.3,0.2c-3.4,0.1-6.7,0.1-10.1,0.2c-1.1,0-2.7-0.2-3.4,1c-0.3,0.5-0.1,0.8-0.1,1.4
				c0-0.9,0-0.4,0-0.3c-0.1,0.6,0,1.3-0.1,1.9c0,1.3-0.1,2.7-0.1,4c-0.1,4-0.2,8-0.2,12.1c-0.1,4.7-0.1,9.4,0,14.2
				c0,2.2,0.1,4.5,0.2,6.7c0,1,0.1,2,0.2,3.1c0,0.2,0,0.5,0,0.7c0.2,0.8,0.2-0.6,0.2,0c0,0.6-0.3,1,0.1,1.6c0.8,1.3,3,1,4.2,1
				c2.6,0,5.3,0.1,7.9,0.1c18.8,0.2,37.6,0.3,56.4,0c1,0,2.3,0.1,3.3-0.1c0.9-0.3,1.7-1.3,1.3-2.3
				C489.8,111.7,486.9,112.5,487.6,114.3z"/>
		</g>
	</g>
	<g id="XMLID_865_">
		<path class="st0" d="M481.1,78.7c0,0,0.2-1.2-0.8-1.3c0,0-17.5-1.4-39.1,0c-1,0.1-0.8,1.3-0.8,1.3s-0.2,15.8,0.4,26.9
			c0,0-0.2,1.2,0.8,1.3c0,0,16.7,1,38.4,0c1,0,0.8-1.3,0.8-1.3L481.1,78.7z"/>
		<g>
			<path class="st1" d="M482.6,78.7c0.2-1.8-1.2-2.7-2.8-2.8c-1.4-0.1-2.9-0.2-4.3-0.3c-6.4-0.3-12.9-0.4-19.3-0.3
				c-4.3,0.1-8.7,0.2-13,0.5c-1.7,0.1-3.7,0-4.2,2c-0.1,0.4-0.1,0.9-0.1,1.3c0,5.1,0,10.1,0,15.2c0.1,3.5,0.1,7.1,0.3,10.6
				c0.1,1.2,0,2.4,1.1,3.1c0.5,0.3,1,0.3,1.5,0.4c3.8,0.3,7.6,0.3,11.4,0.4c7.8,0.1,15.5,0.1,23.3-0.2c1.6-0.1,4.4,0.4,5.4-1.3
				c0.3-0.5,0.3-1.1,0.3-1.7c0-1,0-2,0-3c0.1-7.8,0.2-15.5,0.3-23.3C482.6,79.1,482.6,78.9,482.6,78.7c0-1.9-3-1.9-3,0
				c-0.1,6.4-0.2,12.8-0.3,19.2c0,1.7,0,3.4-0.1,5.1c0,0.8-0.1,1.7,0,2.6c0,0,0,0.1,0,0.1c0,0,0,0.3,0,0.2c0-0.5,0.3-0.2-0.1-0.4
				c-0.2-0.1-0.8,0-1,0c-2.1,0.1-4.1,0.2-6.2,0.2c-3.8,0.1-7.6,0.1-11.4,0.1c-5.2,0-10.4-0.1-15.5-0.3c-1,0-2.3-0.3-3.3-0.1
				c-0.1,0-0.2,0-0.3,0c-0.1,0.1-1.1-0.9,0.3,0.2c0.6,0.5,0.2,0.3,0.3,0c0.2-0.4-0.1-1.5-0.1-2c0-0.8-0.1-1.6-0.1-2.4
				c-0.2-6.1-0.2-12.1-0.2-18.2c0-1.4,0.1-2.9,0-4.2c0-0.1,0-0.1,0-0.2c0,0,0-0.3,0-0.2c-0.1,0.5-0.3,0.2,0.1,0.4
				c0.2,0.1,0.8,0,1-0.1c2.1-0.1,4.2-0.2,6.3-0.3c7-0.3,14-0.3,20.9-0.1c2.2,0.1,4.4,0.2,6.6,0.3c1,0.1,2.3,0.4,3.3,0.2
				c0,0,0.2,0,0.2,0c-0.3,0.2-0.6-0.9-0.7-0.2C479.4,80.6,482.4,80.6,482.6,78.7z"/>
		</g>
	</g>
	<g>
		<g>
			<path class="st0" d="M473.2,54.3c-4.4,4.5-9.6,9.6-14.4,14.3c-0.2-0.2-0.4-0.4-0.5-0.6C475.5,51.2,473.2,54.3,473.2,54.3z"/>
			<g>
				<path class="st1" d="M472.2,53.2c-4.7,4.8-9.5,9.6-14.4,14.3c0.7,0,1.4,0,2.1,0c-0.2-0.2-0.4-0.4-0.5-0.6c0,0.7,0,1.4,0,2.1
					c4-4,8.1-8,12.3-11.8c0.7-0.6,1.4-1.2,2.1-1.8c0.2-0.2-0.4,0.2-0.2,0.1c0,0,0.1-0.1,0.1-0.1c0.1,0,0.1-0.1,0.2-0.1
					c0.2-0.2-0.2,0.1-0.2,0.1c-0.7,0.2-1.6-0.2-1.8-1c-0.2-0.5,0.1-0.7,0.1-1.1c0,0,0,0,0,0.1c0,0,0,0.1-0.1,0.1
					c-0.5,0.7-0.1,1.7,0.5,2.1c0.8,0.4,1.6,0.1,2.1-0.5c0.1-0.2,0.2-0.4,0.3-0.5c0.4-1.5-1.3-2.3-2.5-1.6c-0.7,0.4-1.3,1-1.9,1.6
					c-1.4,1.2-2.7,2.5-4.1,3.8c-3.1,2.9-6.1,5.8-9.1,8.8c-0.6,0.6-0.6,1.5,0,2.1c0.2,0.2,0.4,0.4,0.5,0.6c0.6,0.6,1.5,0.6,2.1,0
					c4.9-4.7,9.7-9.5,14.4-14.3C475.6,53.9,473.5,51.8,472.2,53.2z"/>
			</g>
		</g>
		<g>
			<path class="st0" d="M444,53.6c4.5,4.4,9.6,9.6,14.3,14.4c-0.2,0.2-0.4,0.4-0.6,0.5C440.9,51.4,444,53.6,444,53.6z"/>
			<g>
				<path class="st1" d="M442.9,54.7c4.8,4.7,9.6,9.5,14.3,14.4c0-0.7,0-1.4,0-2.1c-0.2,0.2-0.4,0.4-0.6,0.5c0.7,0,1.4,0,2.1,0
					c-4-4-7.9-8.1-11.8-12.3c-0.6-0.7-1.2-1.4-1.8-2.1c-0.2-0.2,0.2,0.4,0.1,0.2c0,0-0.1-0.1-0.1-0.1c0-0.1-0.1-0.1-0.1-0.2
					c-0.2-0.2,0.1,0.2,0.1,0.2c0.2,0.7-0.2,1.6-1,1.8c-0.5,0.2-0.7-0.1-1.1-0.1c0,0,0,0,0.1,0c0,0,0.1,0,0.1,0.1
					c0.7,0.5,1.7,0.1,2.1-0.5c0.4-0.8,0.1-1.6-0.5-2.1c-0.2-0.1-0.4-0.2-0.5-0.3c-1.5-0.4-2.3,1.3-1.6,2.5c0.4,0.7,1,1.3,1.6,1.9
					c1.2,1.4,2.5,2.7,3.8,4.1c2.9,3,5.8,6.1,8.8,9.1c0.6,0.6,1.5,0.6,2.1,0c0.2-0.2,0.4-0.4,0.6-0.5c0.6-0.6,0.6-1.5,0-2.1
					c-4.7-4.8-9.5-9.7-14.3-14.4C443.7,51.2,441.5,53.4,442.9,54.7z"/>
			</g>
		</g>
		<g>
			<path class="st0" d="M458.3,68c0.2,0.2,0.4,0.4,0.5,0.6c-0.2,0.2-0.4,0.4-0.6,0.5c-0.2-0.2-0.4-0.4-0.5-0.6
				C457.9,68.4,458.1,68.2,458.3,68z"/>
			<g>
				<path class="st1" d="M457.2,69.1c0.2,0.2,0.4,0.4,0.5,0.6c0-0.7,0-1.4,0-2.1c-0.2,0.2-0.4,0.4-0.6,0.5c0.7,0,1.4,0,2.1,0
					c-0.2-0.2-0.4-0.4-0.5-0.6c0,0.7,0,1.4,0,2.1c0.2-0.2,0.4-0.4,0.6-0.5c0.1-0.1,0.2-0.3,0.3-0.5c0.1-0.2,0.1-0.4,0.1-0.6
					c0-0.2,0-0.4-0.1-0.6c-0.1-0.2-0.2-0.3-0.3-0.5c-0.1-0.1-0.2-0.2-0.3-0.2c-0.2-0.1-0.5-0.2-0.8-0.2c-0.1,0-0.3,0-0.4,0.1
					c-0.3,0.1-0.5,0.2-0.7,0.4c-0.2,0.2-0.4,0.4-0.6,0.5c-0.1,0.1-0.2,0.3-0.3,0.5c-0.1,0.2-0.1,0.4-0.1,0.6c0,0.1,0,0.3,0.1,0.4
					c0.1,0.3,0.2,0.5,0.4,0.7c0.2,0.2,0.4,0.4,0.5,0.6c0.1,0.1,0.3,0.2,0.5,0.3c0.2,0.1,0.4,0.1,0.6,0.1c0.1,0,0.3,0,0.4-0.1
					c0.3-0.1,0.5-0.2,0.7-0.4c0.2-0.2,0.4-0.4,0.6-0.5c0.1-0.1,0.2-0.3,0.3-0.5c0.1-0.2,0.1-0.4,0.1-0.6c0-0.1,0-0.3-0.1-0.4
					c-0.1-0.3-0.2-0.5-0.4-0.7c-0.2-0.2-0.4-0.4-0.5-0.6c-0.1-0.1-0.3-0.2-0.5-0.3c-0.2-0.1-0.4-0.1-0.6-0.1c-0.2,0-0.4,0-0.6,0.1
					c-0.2,0.1-0.3,0.2-0.5,0.3c-0.1,0.1-0.2,0.2-0.2,0.3c-0.1,0.2-0.2,0.5-0.2,0.8c0,0.1,0,0.3,0.1,0.4
					C456.9,68.7,457,68.9,457.2,69.1z"/>
			</g>
		</g>
	</g>
</g>
<g>
	<g>
		<g>
			<path class="st0" d="M209.9,63.8c0,0,0.8-1.6,2.6-1.5c0,0,68.5,0.1,70.5,0c1.7-0.1,2.6,1.5,2.6,1.5s0.1,38.7-0.8,40.3
				c0,0-0.8,1.6-2.6,1.5c0,0-10.4,0.1-23.1,0.2c0-0.1,0-0.2-0.1-0.3c-0.4-0.3-11-11-11-11c-0.3-0.3-0.8,0-0.8,0
				c-1.3,1.2-10.8,11.1-10.8,11.1s-0.1,0.2-0.1,0.4c-11.4,0-20.9-0.1-23-0.3c-1.7-0.2-2.6-1.5-2.6-1.5S209.5,68.4,209.9,63.8z"/>
			<g>
				<path class="st1" d="M211.2,64.6c0.4-0.7,1.2-0.8,2.1-0.8c1.2,0,2.3,0,3.5,0c4.4,0,8.9,0,13.3,0c11.9,0,23.8,0,35.7,0
					c4.4,0,8.8,0,13.1,0c1.2,0,2.3,0,3.5,0c0.2,0,0.4,0,0.7,0c0.7,0,0.7,0.4,1.2,0.6c0.4,0.2-0.9,0.8-0.1-0.6c0,0,0,0.1,0,0.1
					c-0.2,1,0,2.4,0,3.5c0,2.4,0,4.8,0,7.2c0,6-0.1,12-0.2,18c0,2.5-0.1,5-0.2,7.4c0,0.8-0.1,1.6-0.1,2.4c0,0.3,0,0.6-0.1,0.8
					c0,0.2,0-0.4,0,0c0,0.1-0.1,0.2-0.1,0.2c0-0.1,0.2-0.2-0.1,0c-0.4,0.4-0.6,0.5-1.2,0.5c-0.8,0-1.5,0-2.3,0
					c-4.1,0-8.2,0.1-12.3,0.1c-2.8,0-5.6,0-8.4,0.1c0.5,0.4,1,0.7,1.4,1.1c-0.1-0.8-0.9-1.3-1.4-1.9c-0.9-0.9-1.7-1.7-2.6-2.6
					c-2.1-2.1-4.1-4.1-6.2-6.2c-0.4-0.4-0.9-0.9-1.3-1.3c-1.2-1-2.5-0.5-3.4,0.5c-2.1,2-4,4.1-6,6.2c-1.1,1.1-2.1,2.2-3.2,3.3
					c-0.6,0.7-1.4,1.2-1.6,2.2c0.5-0.4,1-0.7,1.4-1.1c-7.1,0-14.2,0.1-21.3-0.2c-0.7,0-1.6,0-2.3-0.3c-0.2-0.1-0.5-0.4-0.6-0.5
					c-0.2-0.1-0.1-0.2-0.1-0.1c0,0,0.3,0.8,0.2,0.8c0,0,0-0.1,0-0.2c0.2-0.8-0.1-1.9-0.1-2.7c-0.3-8.9-0.6-17.9-0.7-26.8
					c-0.1-3.5-0.3-7.1,0-10.6c0.2-1.9-2.8-1.9-3,0c-0.3,3.1-0.1,6.3,0,9.4c0.1,5.1,0.2,10.1,0.3,15.2c0.1,4.2,0.2,8.5,0.4,12.7
					c0,0.9,0,1.9,0.1,2.8c0.1,2,2.6,3,4.3,3.2c2.7,0.3,5.4,0.2,8.1,0.2c4.9,0.1,9.8,0.1,14.6,0.1c0.6,0,1.3-0.5,1.4-1.1
					c0.1-0.6-0.6,0.6-0.1,0.1c0.3-0.2,0.5-0.5,0.7-0.8c0.8-0.9,1.6-1.7,2.5-2.6c1.9-2,3.9-4,5.9-6c0.3-0.3,0.6-0.6,1-0.9
					c0.1-0.1,0.3-0.2,0.3-0.3c0,0,0.1-0.1,0.1-0.1c0-0.3-1.2,0.1-1.2-0.1c0,0.2,1.1,1.1,1.2,1.2c1.8,1.8,3.6,3.6,5.4,5.4
					c1,1,2,2,3,3c0.3,0.3,0.7,0.6,1,1c0.1,0.1,0.2,0.2,0.3,0.3c0.3,0.2,0,0.2-0.1-0.2c0.1,0.6,0.8,1.1,1.4,1.1
					c7.7,0,15.4,0.1,23.1-0.2c2.4-0.1,4-1.6,4.2-3.9c0.2-1.8,0.2-3.6,0.3-5.4c0.3-10.9,0.3-21.8,0.3-32.7c0-1.5-0.2-2.6-1.7-3.6
					c-1.2-0.8-2.5-0.7-3.8-0.7c-3.7,0-7.4,0-11.1,0c-12.2,0-24.4,0-36.7,0c-7.1,0-14.2-0.3-21.3,0c-1.6,0.1-3.1,0.8-3.9,2.3
					C207.7,64.8,210.3,66.3,211.2,64.6z"/>
			</g>
		</g>
		<g>
			<path class="st0" d="M247.1,94.5c0,0,0.6-0.3,0.8,0c0,0,10.7,10.8,11,11c0.1,0.1,0.1,0.2,0.1,0.3c-7.4,0-15.5,0.1-22.9,0.1
				c0-0.2,0.1-0.4,0.1-0.4S245.9,95.6,247.1,94.5z"/>
			<g>
				<path class="st1" d="M247.9,95.8c-0.4,0.2-1.2-0.6-0.9-0.1c0.1,0.1,0.2,0.2,0.3,0.3c0.4,0.4,0.8,0.8,1.1,1.1
					c1.2,1.3,2.5,2.5,3.8,3.8c1.3,1.3,2.5,2.5,3.8,3.8c0.4,0.4,0.9,0.9,1.3,1.3c0.1,0.1,0.3,0.3,0.4,0.4c0.3,0.3,0,0.2,0-0.1
					c0.5-0.6,1-1.3,1.4-1.9c-7.6,0-15.3,0.1-22.9,0.1c0.5,0.6,1,1.3,1.4,1.9c0.2-0.7-0.5,0.4-0.2,0.2c0.1-0.1,0.2-0.2,0.3-0.3
					c0.4-0.4,0.7-0.8,1.1-1.1c1.1-1.2,2.3-2.3,3.4-3.5c2-2,3.9-4.2,6-6c1.4-1.3-0.7-3.4-2.1-2.1c-2.2,2-4.2,4.2-6.2,6.3
					c-1.1,1.2-2.2,2.3-3.4,3.5c-0.7,0.7-1.5,1.3-1.7,2.3c-0.2,0.9,0.4,1.9,1.4,1.9c7.6,0,15.3,0,22.9-0.1c1.1,0,1.6-0.9,1.4-1.9
					c-0.2-1-1.7-2.1-2.4-2.8c-1.4-1.4-2.8-2.8-4.3-4.3c-1.3-1.3-2.6-2.6-3.9-3.9c-1.1-1.1-2-2-3.6-1.2
					C244.6,94,246.2,96.6,247.9,95.8z"/>
			</g>
		</g>
	</g>
	<g>
		<g>
			<path class="st0" d="M255,84c0-0.2,0-0.3,0-0.5c0-0.7,0-1.3,0.2-2c0.2-0.7,0.4-1.5,0.7-2.3c0,0,0.1-0.1,0.2-0.2
				c0.4-1.2,1-2.2,1.9-3c0.8-0.9,1.8-1.6,3-2c0.6-0.4,1.2-0.7,1.9-1c0,0,0.5,0,1.2,0c0.8-0.3,1.5-0.4,2.3-0.3c0.2,0,0.3,0,0.5,0
				c0.7,0,1.3,0,2,0.2c0.7,0.2,1.5,0.4,2.3,0.7c0,0,0.1,0.1,0.2,0.2c1.2,0.4,2.2,1,3,1.9c0.9,0.8,1.6,1.8,2,3c0.4,0.6,0.7,1.2,1,1.9
				c0,0,0,0.5,0,1.2c0.3,0.8,0.4,1.5,0.3,2.3c0,0.2,0,0.3,0,0.5c0,0.7,0,1.3-0.2,2c-0.2,0.7-0.4,1.5-0.7,2.3c0,0-0.1,0.1-0.2,0.2
				c-0.4,1.2-1,2.2-1.9,3c-0.8,0.9-1.8,1.6-3,2c-0.6,0.4-1.2,0.7-1.9,1c0,0-0.5,0-1.2,0c-0.8,0.3-1.5,0.4-2.3,0.3
				c-0.2,0-0.3,0-0.5,0c-0.7,0-1.3,0-2-0.2c-0.7-0.2-1.5-0.4-2.3-0.7c0,0-0.1-0.1-0.2-0.2c-1.2-0.4-2.2-1-3-1.9
				c-0.9-0.8-1.6-1.8-2-3c-0.4-0.6-0.7-1.2-1-1.9c0,0,0-0.5,0-1.2C255.1,85.6,254.9,84.8,255,84z"/>
			<g>
				<path class="st1" d="M256.5,84c0-1.2,0.2-2.3,0.5-3.4c0.1-0.2,0.4-1,0-0.4c0.1-0.2,0.3-0.3,0.4-0.4c0.3-0.5,0.4-1.1,0.7-1.5
					c0.5-0.8,1.4-1.7,2.2-2.2c0.5-0.3,1-0.5,1.5-0.7c0.2-0.1,0.4-0.2,0.6-0.3c0.1-0.1,1.2-0.6,0.8-0.5c-0.4,0.1,0.1,0,0.2,0
					c0.2,0,0.5,0,0.7,0c0.6-0.1,1.1-0.3,1.7-0.3c1.2-0.1,2.4,0.1,3.6,0.4c0.3,0.1,0.6,0.2,1,0.3c0,0-0.5-0.3-0.1-0.1
					c0.5,0.3,0.9,0.4,1.4,0.7c0.9,0.5,1.8,1.3,2.4,2.1c0.7,0.9,0.9,2.1,1.6,3c0.1,0.2,0.2,0.7,0.1,0c0,0.1,0,0.3,0,0.4
					c0,0.8,0.2,1.3,0.3,2.1c0.2,1.1,0.1,2.3-0.2,3.4c-0.1,0.5-0.3,1-0.5,1.5c0.1-0.1,0.1-0.1,0.2-0.2c-0.1,0.1-0.2,0.2-0.2,0.3
					c-0.2,0.4-0.3,0.7-0.5,1.1c-0.9,2.1-3,3-4.9,4c-0.2,0.1-0.5,0.2-0.6,0.3c0.4-0.2,0.5,0,0.2,0c-0.6-0.1-1.2,0.1-1.8,0.2
					c-1.2,0.3-2.4,0.2-3.6,0c-0.6-0.1-1.3-0.4-1.9-0.6c0.4,0.1,0.2,0.1-0.1-0.1c-0.3-0.2-0.6-0.3-1-0.4c-1-0.4-1.9-1.3-2.6-2.1
					c-0.8-1-1.1-2.4-1.8-3.5c0.1,0.1,0,0.6,0,0.2c0-0.3,0-0.7,0-1C256.7,85.5,256.5,84.9,256.5,84c0-1.9-3-1.9-3,0
					c0,0.8,0.1,1.5,0.3,2.3c0.1,0.5,0,1.1,0.1,1.6c0.1,0.6,0.5,1.2,0.8,1.7c0.4,0.7,0.7,1.5,1.2,2.2c0.7,1,1.6,2,2.6,2.8
					c0.5,0.4,1.1,0.8,1.8,1c0.1,0,0.7,0.2,0.1,0c0.4,0.2,0.7,0.4,1.1,0.6c2.7,1,5.4,0.9,8.2,0.5c1.2-0.2,2.6-1,3.7-1.6
					c1.2-0.6,2.3-1.6,3.1-2.7c0.4-0.4,0.7-0.9,0.9-1.4c0.2-0.3,0.3-0.7,0.4-1c-0.3,0.7,0.2-0.3,0.1-0.2c0.7-1.4,1.1-3.1,1.1-4.6
					c0-1.3-0.3-2.6-0.3-3.9c-0.1-1.4-0.9-2.4-1.4-3.6c-0.6-1.3-1.5-2.3-2.5-3.2c-0.4-0.4-0.9-0.7-1.3-1c-0.3-0.2-0.6-0.3-0.9-0.5
					c-0.2-0.1-0.4-0.2-0.7-0.3c0.2,0.2,0.3,0.2,0.1,0.1c-1.3-0.6-2.6-1.1-4.1-1.3c-1.5-0.2-2.9,0.1-4.4,0.3
					c-0.7,0.1-1.2,0.1-1.9,0.4c-0.6,0.3-1.3,0.7-1.9,1c-1.4,0.7-2.6,1.6-3.6,2.8c-0.5,0.6-0.9,1.3-1.3,2c0,0-0.5,1.2-0.1,0.5
					c-0.1,0.2-0.3,0.5-0.4,0.7c-0.7,1.6-1,3.4-1,5.1C253.5,86,256.5,86,256.5,84z"/>
			</g>
		</g>
		<g>
			<path class="st0" d="M217.1,84c0-0.2,0-0.3,0-0.5c0-0.7,0-1.3,0.2-2c0.2-0.7,0.4-1.5,0.7-2.3c0,0,0.1-0.1,0.2-0.2
				c0.4-1.2,1-2.2,1.9-3c0.8-0.9,1.8-1.6,3-2c0.6-0.4,1.2-0.7,1.9-1c0,0,0.5,0,1.2,0c0.8-0.3,1.5-0.4,2.3-0.3c0.2,0,0.3,0,0.5,0
				c0.7,0,1.3,0,2,0.2c0.7,0.2,1.5,0.4,2.3,0.7c0,0,0.1,0.1,0.2,0.2c1.2,0.4,2.2,1,3,1.9c0.9,0.8,1.6,1.8,2,3c0.4,0.6,0.7,1.2,1,1.9
				c0,0,0,0.5,0,1.2c0.3,0.8,0.4,1.5,0.3,2.3c0,0.2,0,0.3,0,0.5c0,0.7,0,1.3-0.2,2c-0.2,0.7-0.4,1.5-0.7,2.3c0,0-0.1,0.1-0.2,0.2
				c-0.4,1.2-1,2.2-1.9,3c-0.8,0.9-1.8,1.6-3,2c-0.6,0.4-1.2,0.7-1.9,1c0,0-0.5,0-1.2,0c-0.8,0.3-1.5,0.4-2.3,0.3
				c-0.2,0-0.3,0-0.5,0c-0.7,0-1.3,0-2-0.2c-0.7-0.2-1.5-0.4-2.3-0.7c0,0-0.1-0.1-0.2-0.2c-1.2-0.4-2.2-1-3-1.9
				c-0.9-0.8-1.6-1.8-2-3c-0.4-0.6-0.7-1.2-1-1.9c0,0,0-0.5,0-1.2C217.2,85.6,217.1,84.8,217.1,84z"/>
			<g>
				<path class="st1" d="M218.6,84c0-1.2,0.2-2.3,0.5-3.4c0.1-0.2,0.4-1,0-0.4c0.1-0.2,0.3-0.3,0.4-0.4c0.3-0.5,0.4-1.1,0.7-1.5
					c0.5-0.8,1.4-1.7,2.2-2.2c0.5-0.3,1-0.5,1.5-0.7c0.2-0.1,0.4-0.2,0.6-0.3c0.1-0.1,1.2-0.6,0.8-0.5c-0.4,0.1,0.1,0,0.2,0
					c0.2,0,0.5,0,0.7,0c0.6-0.1,1.1-0.3,1.7-0.3c1.2-0.1,2.4,0.1,3.6,0.4c0.3,0.1,0.6,0.2,1,0.3c0,0-0.5-0.3-0.1-0.1
					c0.5,0.3,0.9,0.4,1.4,0.7c0.9,0.5,1.8,1.3,2.4,2.1c0.7,0.9,0.9,2.1,1.6,3c0.1,0.2,0.2,0.7,0.1,0c0,0.1,0,0.3,0,0.4
					c0,0.8,0.2,1.3,0.3,2.1c0.2,1.1,0.1,2.3-0.2,3.4c-0.1,0.5-0.3,1-0.5,1.5c0.1-0.1,0.1-0.1,0.2-0.2c-0.1,0.1-0.2,0.2-0.2,0.3
					c-0.2,0.4-0.3,0.7-0.5,1.1c-0.9,2.1-3,3-4.9,4c-0.2,0.1-0.5,0.2-0.6,0.3c0.4-0.2,0.5,0,0.2,0c-0.6-0.1-1.2,0.1-1.8,0.2
					c-1.2,0.3-2.4,0.2-3.6,0c-0.6-0.1-1.3-0.4-1.9-0.6c0.4,0.1,0.2,0.1-0.1-0.1c-0.3-0.2-0.6-0.3-1-0.4c-1-0.4-1.9-1.3-2.6-2.1
					c-0.8-1-1.1-2.4-1.8-3.5c0.1,0.1,0,0.6,0,0.2c0-0.3,0-0.7,0-1C218.9,85.5,218.6,84.9,218.6,84c0-1.9-3-1.9-3,0
					c0,0.8,0.1,1.5,0.3,2.3c0.1,0.5,0,1.1,0.1,1.6c0.1,0.6,0.5,1.2,0.8,1.7c0.4,0.7,0.7,1.5,1.2,2.2c0.7,1,1.6,2,2.6,2.8
					c0.5,0.4,1.1,0.8,1.8,1c0.1,0,0.7,0.2,0.1,0c0.4,0.2,0.7,0.4,1.1,0.6c2.7,1,5.4,0.9,8.2,0.5c1.2-0.2,2.6-1,3.7-1.6
					c1.2-0.6,2.3-1.6,3.1-2.7c0.4-0.4,0.7-0.9,0.9-1.4c0.2-0.3,0.3-0.7,0.4-1c-0.3,0.7,0.2-0.3,0.1-0.2c0.7-1.4,1.1-3.1,1.1-4.6
					c0-1.3-0.3-2.6-0.3-3.9c-0.1-1.4-0.9-2.4-1.4-3.6c-0.6-1.3-1.5-2.3-2.5-3.2c-0.4-0.4-0.9-0.7-1.3-1c-0.3-0.2-0.6-0.3-0.9-0.5
					c-0.2-0.1-0.4-0.2-0.7-0.3c0.2,0.2,0.3,0.2,0.1,0.1c-1.3-0.6-2.6-1.1-4.1-1.3c-1.5-0.2-2.9,0.1-4.4,0.3
					c-0.7,0.1-1.2,0.1-1.9,0.4c-0.6,0.3-1.3,0.7-1.9,1c-1.4,0.7-2.6,1.6-3.6,2.8c-0.5,0.6-0.9,1.3-1.3,2c0,0-0.5,1.2-0.1,0.5
					c-0.1,0.2-0.3,0.5-0.4,0.7c-0.7,1.6-1,3.4-1,5.1C215.7,86,218.7,86,218.6,84z"/>
			</g>
		</g>
	</g>
</g>
<g>
	<g>
		<path class="st0" d="M122.1,116c1.8-10.1,4.6-14.4,8.1-16.4c0,0,20.8-7.7,26.5,11.9c0.5,1.6,0.8,3.1,0.9,4.5H122.1z"/>
		<g>
			<path class="st1" d="M123.5,116.4c0.8-4.6,1.9-10.1,5.2-13.7c0.5-0.5,1-1,1.6-1.4c0.1-0.1,0.7-0.5,0.3-0.2c0,0,0.1,0,0.2-0.1
				c0.6-0.2,1.2-0.4,1.8-0.5c5.3-1.4,11.7-1.4,16.5,1.9c4.5,3.1,6.5,8.8,7.2,14c0.5-0.6,1-1.3,1.4-1.9c-10.4,0-20.8,0-31.2,0
				c-1.5,0-2.9,0-4.4,0c-1.9,0-1.9,3,0,3c10.4,0,20.8,0,31.2,0c1.5,0,2.9,0,4.4,0c1.1,0,1.6-1,1.4-1.9c-0.7-5.3-2.8-10.9-7-14.5
				c-3-2.6-6.7-4-10.6-4.4c-3-0.3-6.2,0-9.1,0.7c-1.9,0.4-3.4,1-4.9,2.3c-4.4,3.8-5.9,10.4-6.8,15.9
				C120.3,117.5,123.2,118.3,123.5,116.4z"/>
		</g>
	</g>
	<g>
		<path class="st0" d="M107.1,53.6c0,0-0.2-0.7,0.5-0.7c38.7-1.6,65,0,65,0c0.8,0.1,0.5,0.7,0.5,0.7s0,22-0.2,45h-66.2L107.1,53.6z"
			/>
		<g>
			<path class="st1" d="M108.6,53.2c0.2,0.7-0.8,0.9-0.2,1.2c0.3,0.1,0.7,0,1,0c0.7,0,1.5-0.1,2.2-0.1c1.5-0.1,3-0.1,4.6-0.2
				c2.8-0.1,5.7-0.2,8.5-0.2c5-0.1,10-0.2,14.9-0.2c7.6,0,15.1,0.1,22.7,0.3c2.3,0.1,4.5,0.1,6.8,0.2c1,0,2.3,0.3,3.3,0.2
				c0.1,0,0.2,0,0.3,0c-0.3,0.2-0.7-2.1-0.9-0.8c-0.1,0.4,0,0.9,0,1.3c0,2.7,0,5.5,0,8.2c0,11.8-0.1,23.7-0.2,35.5
				c0.5-0.5,1-1,1.5-1.5c-7.5,0-15,0-22.4,0c-11.9,0-23.7,0-35.6,0c-2.7,0-5.5,0-8.2,0c0.5,0.5,1,1,1.5,1.5c0-5.1,0.1-10.1,0.1-15.2
				c0.1-8,0.1-16.1,0.2-24.1c0-1.9,0-3.7,0-5.6c0-1.9-3-1.9-3,0c0,5.1-0.1,10.1-0.1,15.2c-0.1,8-0.1,16.1-0.2,24.1
				c0,1.9,0,3.7,0,5.6c0,0.8,0.7,1.5,1.5,1.5c7.5,0,15,0,22.4,0c11.9,0,23.7,0,35.6,0c2.7,0,5.5,0,8.2,0c0.8,0,1.5-0.7,1.5-1.5
				c0.1-11.4,0.2-22.7,0.2-34.1c0-3.1,0-6.2,0-9.4c0-0.5,0-1,0-1.5c0,0.4,0,0.4,0-0.2c0-0.4-0.1-0.8-0.3-1.1c-0.4-0.6-1.1-0.9-1.8-1
				c-3-0.3-6.1-0.3-9.1-0.4c-7.8-0.2-15.6-0.3-23.4-0.3c-6.1,0-12.1,0.1-18.2,0.2c-3.5,0.1-6.9,0.2-10.4,0.3
				c-1.8,0.1-6.8-0.5-5.9,2.8C106.2,55.8,109.1,55,108.6,53.2z"/>
		</g>
	</g>
	<g>
		<path class="st0" d="M172.3,109.3c-24.9,0.5-64.6,0-64.6,0c-0.8-0.1-0.5-0.5-0.5-0.5c-0.1-2-0.2-4.4-0.3-6.8v-3.9H173
			c-0.1,3.6-0.1,7.2-0.2,10.7C172.8,108.9,173,109.3,172.3,109.3z"/>
		<g>
			<path class="st1" d="M172.3,107.8c-12.7,0.3-25.4,0.3-38.1,0.2c-8.5,0-17.1-0.1-25.6-0.2c-0.2,0-0.6-0.1-0.8,0
				c0.2-0.1,0.9,2.6,0.9,0.8c0-1.1-0.1-2.2-0.2-3.3c-0.1-2.4-0.1-4.8-0.1-7.2c-0.5,0.5-1,1-1.5,1.5c7.5,0,15,0,22.4,0
				c11.9,0,23.7,0,35.6,0c2.7,0,5.5,0,8.2,0c-0.5-0.5-1-1-1.5-1.5c0,2-0.1,4.1-0.1,6.1c0,1,0,1.9-0.1,2.9c0,0.5-0.1,1,0,1.4
				C171.4,110.3,171.4,107.9,172.3,107.8c-0.8,0.1-1.5,0.6-1.5,1.5c0,0.7,0.7,1.6,1.5,1.5c1-0.1,1.9-0.5,2-1.5
				c0.1-0.9,0-1.9,0.1-2.8c0.1-2.8,0.1-5.5,0.2-8.3c0-0.8-0.7-1.5-1.5-1.5c-7.5,0-15,0-22.4,0c-11.9,0-23.7,0-35.6,0
				c-2.7,0-5.5,0-8.2,0c-0.8,0-1.5,0.7-1.5,1.5c0,2,0,4,0.1,6.1c0,1,0.1,2,0.1,2.9c0,0.7,0,1.4,0.1,2.1c0.2,1.1,1.1,1.5,2.1,1.6
				c2.3,0.2,4.7,0.1,7,0.1c11.8,0.1,23.6,0.2,35.4,0.2c7.4,0,14.8-0.1,22.2-0.2C174.2,110.8,174.2,107.8,172.3,107.8z"/>
		</g>
	</g>
	<g>
		<path class="st0" d="M115.6,60.8c0,0-0.2-0.4,0.4-0.5c28.4-1,47.7,0,47.7,0c0.6,0.1,0.4,0.5,0.4,0.5s0,14.4-0.2,29.6h-48.6
			L115.6,60.8z"/>
		<g>
			<path class="st1" d="M117,60.4c-0.1,0.2-0.2,0.5-0.3,0.7c-0.5,0.6-0.5,0.8,0,0.7c0.1,0.1,0.6,0,0.7,0c0.5,0,1,0,1.5,0
				c1.1,0,2.2-0.1,3.4-0.1c1.9-0.1,3.8-0.1,5.8-0.1c3.6-0.1,7.2-0.1,10.8-0.1c5.4,0,10.8,0,16.2,0.1c2.7,0.1,5.4,0.1,8.1,0.3
				c0.1,0,0.4,0.1,0.5,0c-0.4,0.2-0.8-2.4-1.1-1c0,0.1,0,0.2,0,0.3c-0.1,1.6,0,3.2,0,4.8c0,8.2-0.1,16.4-0.2,24.5
				c0.5-0.5,1-1,1.5-1.5c-5.5,0-11,0-16.4,0c-8.7,0-17.4,0-26.2,0c-2,0-4,0-6,0c0.5,0.5,1,1,1.5,1.5c0.1-8.6,0.1-17.3,0.2-25.9
				c0-1.2,0-2.4,0-3.6c0-1.9-3-1.9-3,0c-0.1,8.6-0.1,17.3-0.2,25.9c0,1.2,0,2.4,0,3.6c0,0.8,0.7,1.5,1.5,1.5c5.5,0,11,0,16.4,0
				c8.7,0,17.4,0,26.2,0c2,0,4,0,6,0c0.8,0,1.5-0.7,1.5-1.5c0.1-7.9,0.1-15.9,0.2-23.8c0-1.8,0.1-3.7,0-5.5c0-0.1,0-0.2,0-0.3
				c0,0.7,0-0.1,0-0.4c-0.1-0.4-0.2-0.8-0.5-1c-0.4-0.4-1-0.5-1.5-0.6c-2.5-0.2-5.1-0.2-7.6-0.3c-5.8-0.1-11.6-0.2-17.4-0.2
				c-4.4,0-8.8,0.1-13.2,0.2c-2.5,0.1-4.9,0.1-7.4,0.2c-1.5,0.1-4.5,0-3.8,2.4C114.6,63,117.5,62.2,117,60.4z"/>
		</g>
	</g>
</g>
<path class="st2" d="M503.4,88.6c0,0-0.3-3.6,0.1-6.3c-0.7-6.3-0.6-27.9-0.1-39c0,0-1-12.3,3.4-8.8c1.7,1.3,2.4,6.2,2.4,11.6
	s0.3,22.5-0.2,33.5c0,0,0.3,3.6-0.1,6.3c0.7,6.3,0.6,27.9,0.1,39c0,0,1,12.3-3.4,8.8c-1.5-1.2-2.2-5.1-2.3-9.6
	C503.1,118.2,503,99.6,503.4,88.6z"/>
<path class="st2" d="M606.1,88.6c0,0-0.3-3.6,0.1-6.3c-0.7-6.3-0.6-27.9-0.1-39c0,0-1-12.3,3.4-8.8c1.7,1.3,2.4,6.2,2.4,11.6
	s0.3,22.5-0.2,33.5c0,0,0.3,3.6-0.1,6.3c0.7,6.3,0.6,27.9,0.1,39c0,0,1,12.3-3.4,8.8c-1.5-1.2-2.2-5.1-2.3-9.6
	C605.8,118.2,605.7,99.6,606.1,88.6z"/>
<g>
	<g id="XMLID_864_">
		<path class="st0" d="M649.8,46.3c0,0-0.9-0.4-1,1.5c0,0-1.1,32.5,0,72.4c0.1,1.9,1,1.5,1,1.5s12.1,0.3,20.6-0.7c0,0,0.9,0.4,1-1.5
			c0,0,0.8-30.9,0-71.1c0-1.9-1-1.5-1-1.5L649.8,46.3z"/>
		<g>
			<path class="st1" d="M650.2,44.9c-3.5-1.2-3,5.7-3,7.6c-0.2,6.4-0.3,12.8-0.3,19.3c-0.1,10.1-0.1,20.1,0.1,30.2
				c0.1,5.9,0.1,11.9,0.4,17.8c0,1,0.1,1.9,0.7,2.7c0.7,0.8,1.2,0.6,2.1,0.8c0.2,0-0.6,0,0,0c0.5,0,0.9,0,1.4,0
				c3.8,0.1,7.6,0,11.3-0.1c2.3-0.1,4.6-0.1,6.9-0.5c0.4-0.1,1,0,1.5-0.2c0.9-0.3,1.4-1.1,1.6-2c0.2-0.9,0.1-1.9,0.1-2.8
				c0-1.9,0.1-3.8,0.1-5.7c0.3-17.6,0.3-35.2,0-52.8c0-3-0.1-6-0.1-9c0-1.7,0.1-4.7-2.3-4.8c-0.1,0-0.9,0-0.4,0.1c0.5,0,0.1,0,0.1,0
				c-0.2,0-0.5,0-0.7,0c-0.9,0-1.9-0.1-2.8-0.1c-5.3-0.2-10.6-0.3-15.9-0.5c-0.4,0-0.8,0-1.2,0c-1.9-0.1-1.9,2.9,0,3
				c4,0.1,8,0.3,11.9,0.4c2.4,0.1,4.7,0.2,7.1,0.2c0.5,0,1,0.1,1.6,0.1c0.8,0,0.3,0.1,0-0.1c-1.9-0.6-0.3-0.5-0.5-0.2
				c-0.1,0.1,0,0.7,0,0.8c0,0.8,0,1.7,0,2.5c0.3,18.2,0.4,36.3,0.2,54.5c0,4.1-0.1,8.3-0.2,12.4c0,0.3,0,0.7,0,1c0,0.1,0,0.1,0,0.2
				c0,0-0.1,0.4,0,0.4c-0.2-0.2,1.3-0.4,1-0.3c0,0-0.4,0-0.3,0c-2.1-0.1-4.3,0.4-6.4,0.5c-2.1,0.1-4.2,0.2-6.2,0.2
				c-2.6,0-5.3-0.1-8,0c-0.2,0-0.6,0-0.7,0.1c0.1-0.2,1.2,0.2,1,0.3c0,0,0.1-0.8,0-0.4c0.2-0.6,0-1.8-0.1-2.5
				c-0.1-2.8-0.1-5.5-0.2-8.3c-0.2-10-0.3-20.1-0.2-30.1c0-10.4,0-20.9,0.5-31.4c0-0.1,0-0.1,0-0.2c0-0.1,0.1-0.3,0-0.4
				c0.3,0.3-1,0.3-1,0.3C651.3,48.4,652,45.5,650.2,44.9z"/>
		</g>
	</g>
	<g id="XMLID_863_">
		<path class="st0" d="M647.5,62c0,0,27.4-10.2,34.9,15.7s-15.5,31-18.7,30.9c-3.1-0.2-29.9-2.4-27.7-19.6S642.3,65,647.5,62z"/>
		<g>
			<path class="st1" d="M647.9,63.5c6.1-2.3,13.4-2.8,19.7-0.6c5.7,1.9,9.8,6.3,12.1,11.7c2.7,6.2,3.9,13.9,1.4,20.3
				c-1.7,4.3-5.1,7.6-9.1,9.7c-1.6,0.8-3.1,1.4-4.9,1.9c-0.7,0.2-1.3,0.3-2,0.5c-0.1,0-0.3,0-0.4,0.1c0.3,0,0.2,0,0,0
				c-0.2,0-0.4,0-0.6,0c-3.2,0-6.1-0.6-9.2-1.4c-4.8-1.1-10-2.9-13.7-6.4c-1.8-1.7-3-3.8-3.5-6.2c-0.3-1.4-0.2-2.8-0.1-4.2
				c0.3-2.5,0.7-5.1,1.2-7.6c1.2-5.7,2.8-12.4,7.3-16.5c0.7-0.6,1.3-1.1,2.2-1.6c1.7-1,0.2-3.6-1.5-2.6c-5,2.9-7.6,8.3-9.2,13.6
				c-1.4,4.6-2.3,9.4-2.9,14.2c-0.4,3.1-0.1,6.2,1.4,9c2.7,5.1,8.2,8,13.4,9.8c4.3,1.5,8.8,2.3,13.3,2.7c2.7,0.2,5.3-0.5,7.7-1.4
				c4.6-1.8,8.7-4.7,11.4-8.8c3.9-5.8,4.2-13,2.7-19.6c-1.6-7.1-5-14-11.4-18c-7.5-4.7-17.5-4.5-25.7-1.8c-0.2,0.1-0.3,0.1-0.5,0.2
				C645.3,61.2,646.1,64.1,647.9,63.5z"/>
		</g>
	</g>
	<g id="XMLID_862_">
		<path class="st0" d="M672,70.2c0,0,14.3,16-1.4,28.1s-25.4-2.3-26.1-4.5c-0.7-2.2-6.4-21.1,6-24.2C662.8,66.5,668.5,67.4,672,70.2
			z"/>
		<g>
			<path class="st1" d="M670.9,71.2c0.1,0.1,0.2,0.2,0.3,0.3c0.1,0.1,0.2,0.2,0.3,0.3c0.2,0.3-0.2-0.3,0,0c0.1,0.1,0.2,0.2,0.2,0.3
				c0.8,1.1,1.5,2.2,2.1,3.3c1.7,3.2,2.9,6.8,2.6,10.5c-0.4,5.2-4,9.3-8.2,12.1c-3.9,2.6-8.5,4.3-13.2,2.9c-3-0.9-5.6-2.9-7.6-5.3
				c-0.5-0.6-1.1-1.5-1.5-2.3c-0.2-0.3,0,0,0-0.1c0-0.1-0.1-0.2-0.1-0.3c-0.1-0.4-0.2-0.8-0.3-1.2c-0.7-2.7-1.3-5.5-1.4-8.3
				c-0.2-3.2,0.1-6.8,2-9.5c1.1-1.5,2.6-2.5,4.4-3c3.1-0.9,6.5-1.5,9.8-1.8C663.7,69,668.1,69,670.9,71.2c1.5,1.2,3.6-0.9,2.1-2.1
				c-3-2.4-6.8-3.1-10.6-3c-3.1,0.1-6.2,0.6-9.2,1.2c-2.5,0.5-5.1,1-7.2,2.6c-6.4,4.7-5.4,14.3-3.9,21c0.4,1.9,0.9,3.7,2,5.3
				c1.9,2.8,4.6,5.2,7.6,6.7c4.5,2.1,9.4,1.9,13.9-0.1c5.4-2.4,10.5-6.8,12.7-12.4c2.7-7.2-0.4-15.8-5.4-21.4
				C671.7,67.7,669.6,69.8,670.9,71.2z"/>
		</g>
	</g>
</g>
<g>
	<g id="XMLID_861_">
		<path class="st0" d="M582.6,46.8c0,0,0.5-0.3,0.5,0.6c0.6,28.3,0,73.4,0,73.4c-0.1,0.9-0.5,0.6-0.5,0.6c-16,1.2-45.9,0-45.9,0
			s-0.5,0.3-0.5-0.6c-1.2-44,0-73.9,0-73.9c0.1-0.9,0.5-0.6,0.5-0.6S561.8,46.2,582.6,46.8z"/>
		<g>
			<path class="st1" d="M583,48.2c-1.3,0.5-1.2-1.6-1.4-0.5c0,0.2,0,0.5,0,0.8c0,0.6,0,1.2,0,1.8c0,1.2,0,2.4,0.1,3.6
				c0,2.4,0.1,4.8,0.1,7.3c0,5.2,0.1,10.4,0.1,15.5c0,9.4,0,18.8-0.1,28.2c0,3.4-0.1,6.7-0.1,10.1c0,1.7-0.2,3.6-0.1,5.3
				c0,0.1,0,0.3,0,0.4c0,0,0,0,0,0.1c0-0.1,2.9-0.7,1-0.9c-0.3,0-0.6,0-0.8,0.1c-2.1,0.1-4.3,0.2-6.4,0.3c-4.7,0.1-9.5,0.2-14.2,0.2
				c-7.5,0-15.1-0.2-22.6-0.4c-0.6,0-1.2-0.1-1.8-0.1c0,0-0.1,0-0.1,0c-0.2,0-0.3,0-0.4,0.1c0.5,0.3,0.9,0.5,1.4,0.8
				c0-0.2,0-0.3,0-0.5c0.2-0.7,0-1.7-0.1-2.5c0-1,0-1.9-0.1-2.9c-0.2-6.5-0.3-13-0.3-19.5c-0.2-15.5-0.1-31,0.4-46.6
				c0-0.5,0.1-1,0.1-1.5c0-0.1,0-0.3,0-0.3c0,0.1-2.9,0.6-1,0.8c1.9,0.2,3.9,0,5.8,0c10.4,0,20.9,0.1,31.3,0.3
				c2.9,0.1,5.9,0.1,8.8,0.2c1.9,0.1,1.9-2.9,0-3c-11.8-0.3-23.7-0.4-35.6-0.5c-3.2,0-6.4,0-9.6,0c-0.2,0-0.5-0.1-0.7,0
				c0,0,0,0-0.1,0c-0.1,0-8.8-0.9,0.7,0.2c-0.7-0.1-1.1-0.4-1.8,0c-0.8,0.5-0.9,1.4-1,2.2c-0.2,4.3-0.2,8.7-0.3,13
				c-0.2,9.6-0.2,19.3-0.2,28.9c0,6.5,0.1,13,0.2,19.6c0.1,3.7,0.2,7.4,0.3,11.1c0,1.2,0,2.7,1.4,3.1c0.2,0,1.6,0.1,0.7,0
				c0,0,0.1,0,0.1,0c0.6,0.2,1.5,0.1,2.2,0.1c1.4,0,2.8,0.1,4.1,0.1c4.2,0.1,8.5,0.2,12.7,0.3c5,0.1,10.1,0.1,15.1,0
				c2.3,0,4.7-0.1,7-0.2c1.1,0,2.1-0.1,3.2-0.2c0.2,0,0.6,0,0.8-0.1c0.5-0.1,0-0.2-0.2-0.2c0,0,0.8,0.2,0.8,0.2c0.4,0,0.7-0.1,1-0.3
				c1.3-0.9,0.9-3.1,0.9-4.5c0-2.8,0.1-5.5,0.1-8.3c0.2-20,0.3-39.9,0-59.9c0-1.1,0.2-2.4-0.2-3.5c-0.3-0.9-1.3-1.5-2.3-1.2
				C580.4,46.1,581.2,49,583,48.2z"/>
		</g>
	</g>
	<g id="XMLID_860_">
		<path class="st0" d="M578.2,55.3c0,0,0.2-2.6-0.7-2.7c0,0-15.8-3.1-35.4,0c-0.9,0.1-0.7,2.7-0.7,2.7s-0.2,34,0.3,57.8
			c0,0-0.2,2.6,0.7,2.7c0,0,15.1,2.1,34.7,0c0.9-0.1,0.7-2.7,0.7-2.7L578.2,55.3z"/>
		<g>
			<path class="st1" d="M579.7,55.3c0.1-1.5-0.1-3.7-1.8-4.2c-0.5-0.1-1-0.2-1.5-0.2c-3.5-0.5-7.1-0.9-10.6-1
				c-6-0.3-12-0.1-17.9,0.5c-1.6,0.2-3.1,0.4-4.7,0.6c-1.3,0.2-2.5,0.3-3,1.7c-0.3,0.9-0.3,1.9-0.3,2.8c0.2,16.2,0,32.4,0.2,48.5
				c0,2.6,0.1,5.2,0.1,7.8c0,1.5-0.3,3.7,0.9,4.9c0.6,0.6,1.4,0.6,2.2,0.7c1.1,0.1,2.3,0.2,3.4,0.3c4.4,0.4,8.9,0.5,13.4,0.5
				c3.1,0,6.3-0.1,9.4-0.3c1.6-0.1,3.1-0.2,4.7-0.3c1.3-0.1,3.3,0.1,4.3-0.9c1.2-1.1,0.9-3,0.9-4.5c0-1.6,0-3.3,0-4.9
				c0-6.1,0.1-12.2,0.1-18.3c0.1-11.1,0.1-22.1,0.2-33.2C579.7,55.7,579.7,55.5,579.7,55.3c0-1.9-3-1.9-3,0c0,8.7-0.1,17.5-0.1,26.2
				c-0.1,10.3-0.1,20.7-0.2,31c0,0.2,0,0.4,0,0.7c0,0.4,0,0.8,0,1.2c0,0-0.1,0.5-0.1,0.5c0.1-0.1,0.1-0.1,0.2-0.2
				c0.3-0.3,0.2-0.3-0.3-0.2c-0.9-0.1-2,0.2-2.9,0.3c-5.8,0.5-11.5,0.6-17.3,0.5c-3.6-0.1-7.2-0.3-10.8-0.6
				c-0.8-0.1-1.6-0.2-2.5-0.3c-0.3,0-0.1-0.1,0.2,0c0,0,0.3,0.6,0.4,0.3c0.1-0.2-0.1-1.3-0.1-1.6c0-10.1-0.3-20.3-0.3-30.4
				c0-7.8,0-15.6,0-23.5c0-1.3,0-2.6,0-3.9c0-0.4,0.1-0.8,0-1.2c0,0,0.1-0.5,0.1-0.5c-0.2,0.1-0.3,0.3-0.5,0.4
				c0.2,0,0.5-0.1,0.7-0.1c0.9-0.1,1.8-0.3,2.7-0.4c3.1-0.4,6.2-0.6,9.3-0.8c4.9-0.2,9.8-0.1,14.6,0.3c1.5,0.1,3.2,0.3,4.6,0.5
				c0.6,0.1,1.6,0.4,2.2,0.3c0,0,0.2,0.1,0.2,0c-0.2,0.2-0.3-0.8-0.4-0.2c-0.1,0.4,0.1,1,0.1,1.5C576.6,57.2,579.6,57.2,579.7,55.3z
				"/>
		</g>
	</g>
</g>
<g>
	<g id="XMLID_859_">
		<path class="st0" d="M376.4,46.8c0,0,0.5-0.3,0.5,0.6c0.6,28.3,0,73.4,0,73.4c-0.1,0.9-0.5,0.6-0.5,0.6c-16,1.2-45.9,0-45.9,0
			s-0.5,0.3-0.5-0.6c-1.2-44,0-73.9,0-73.9c0.1-0.9,0.5-0.6,0.5-0.6S355.6,46.2,376.4,46.8z"/>
		<g>
			<path class="st1" d="M376.7,48.2c-1.3,0.5-1.2-1.6-1.4-0.5c0,0.2,0,0.5,0,0.8c0,0.6,0,1.2,0,1.8c0,1.2,0,2.4,0.1,3.6
				c0,2.4,0.1,4.8,0.1,7.3c0,5.2,0.1,10.4,0.1,15.5c0,9.4,0,18.8-0.1,28.2c0,3.4-0.1,6.7-0.1,10.1c0,1.7-0.2,3.6-0.1,5.3
				c0,0.1,0,0.3,0,0.4c0,0,0,0,0,0.1c0-0.1,2.9-0.7,1-0.9c-0.3,0-0.6,0-0.8,0.1c-2.1,0.1-4.3,0.2-6.4,0.3c-4.7,0.1-9.5,0.2-14.2,0.2
				c-7.5,0-15.1-0.2-22.6-0.4c-0.6,0-1.2-0.1-1.8-0.1c0,0-0.1,0-0.1,0c-0.2,0-0.3,0-0.4,0.1c0.5,0.3,0.9,0.5,1.4,0.8
				c0-0.2,0-0.3,0-0.5c0.2-0.7,0-1.7-0.1-2.5c0-1,0-1.9-0.1-2.9c-0.2-6.5-0.3-13-0.3-19.5c-0.2-15.5-0.1-31,0.4-46.6
				c0-0.5,0.1-1,0.1-1.5c0-0.1,0-0.3,0-0.3c0,0.1-2.9,0.6-1,0.8c1.9,0.2,3.9,0,5.8,0c10.4,0,20.9,0.1,31.3,0.3
				c2.9,0.1,5.9,0.1,8.8,0.2c1.9,0.1,1.9-2.9,0-3c-11.8-0.3-23.7-0.4-35.6-0.5c-3.2,0-6.4,0-9.6,0c-0.2,0-0.5-0.1-0.7,0
				c0,0,0,0-0.1,0c-0.1,0-8.8-0.9,0.7,0.2c-0.7-0.1-1.1-0.4-1.8,0c-0.8,0.5-0.9,1.4-1,2.2c-0.2,4.3-0.2,8.7-0.3,13
				c-0.2,9.6-0.2,19.3-0.2,28.9c0,6.5,0.1,13,0.2,19.6c0.1,3.7,0.2,7.4,0.3,11.1c0,1.2,0,2.7,1.4,3.1c0.2,0,1.6,0.1,0.7,0
				c0,0,0.1,0,0.1,0c0.6,0.2,1.5,0.1,2.2,0.1c1.4,0,2.8,0.1,4.1,0.1c4.2,0.1,8.5,0.2,12.7,0.3c5,0.1,10.1,0.1,15.1,0
				c2.3,0,4.7-0.1,7-0.2c1.1,0,2.1-0.1,3.2-0.2c0.2,0,0.6,0,0.8-0.1c0.5-0.1,0-0.2-0.2-0.2c0,0,0.8,0.2,0.8,0.2c0.4,0,0.7-0.1,1-0.3
				c1.3-0.9,0.9-3.1,0.9-4.5c0-2.8,0.1-5.5,0.1-8.3c0.2-20,0.3-39.9,0-59.9c0-1.1,0.2-2.4-0.2-3.5c-0.3-0.9-1.3-1.5-2.3-1.2
				C374.2,46.1,375,49,376.7,48.2z"/>
		</g>
	</g>
	<g id="XMLID_858_">
		<path class="st0" d="M337.3,51.8c0,0-1.5-0.3-1.5,1.1c0,0-1.7,23.8,0,53.1c0.1,1.4,1.5,1.1,1.5,1.1s19,0.3,32.3-0.5
			c0,0,1.5,0.3,1.5-1.1c0,0,1.2-22.7,0-52.1c-0.1-1.4-1.5-1.1-1.5-1.1L337.3,51.8z"/>
		<g>
			<path class="st1" d="M337.7,50.3c-1.4-0.2-2.9,0.3-3.3,1.9c-0.1,0.4-0.1,0.9-0.1,1.3c-0.1,1.7-0.2,3.5-0.3,5.2
				c-0.3,7.7-0.5,15.4-0.4,23.2c0,5.5,0.2,10.9,0.4,16.3c0.1,1.4,0.1,2.7,0.2,4.1c0.1,1.4-0.1,3,0.3,4.4c0.2,0.8,0.9,1.5,1.7,1.8
				c0.3,0.1,0.7,0.1,1,0.1c0.4,0,0.8,0,0.2,0c5.7,0.1,11.3,0.1,17,0c4.5-0.1,9-0.2,13.5-0.4c0.8,0,1.4-0.1,2.1-0.1
				c0.8,0,1.5-0.3,2-0.9c0.5-0.6,0.6-1.3,0.7-2.1c0.3-4.5,0.3-9,0.4-13.5c0.2-9.5,0.1-18.9-0.1-28.4c-0.1-2.9-0.2-5.8-0.3-8.7
				c0-1,0-2.2-0.7-3c-0.5-0.6-1.4-0.9-2.2-0.9c-0.2,0-1,0-0.2,0c0,0,0,0-0.1,0c-0.2,0-0.3,0-0.5,0c-0.6,0-1.3,0-1.9,0
				c-9.7-0.1-19.4-0.3-29.1-0.4c-0.3,0-0.5,0-0.8,0c-1.9,0-1.9,3,0,3c8.3,0.1,16.7,0.3,25,0.4c1.9,0,3.8,0.1,5.7,0.1
				c0.5,0,0.9,0,1.4,0c0.1,0,0.2,0,0.2,0c0.6,0,0.1-0.1,0.2,0c0.1,0.3,0.2-0.4-0.1-0.4c-0.1,0,0.4,14.7,0.4,16.1
				c0.1,4.6,0.1,9.2,0.1,13.7c0,6.2-0.1,12.4-0.4,18.7c0,0.8-0.1,1.5-0.1,2.3c0,0.3-0.2,0.9-0.1,1.2c0,0,0,0.2,0,0.2
				c0.1,0,0.3-0.5,0.2-0.4c0,0.1-0.4-0.1,0,0c0.4,0.1-0.4,0-0.6,0c-2.1,0-4.1,0.2-6.2,0.3c-7.5,0.2-14.9,0.3-22.4,0.2
				c-0.9,0-1.8,0-2.6,0c-0.2,0-0.4,0-0.6,0c0,0-0.1,0-0.1,0c-1,0,0.3-0.1-0.4,0c0.1,0,0.3,0.3,0.4,0.3c0.1,0,0-0.8-0.1-0.9
				c0-0.7-0.1-1.3-0.1-2c-0.1-1.5-0.1-2.9-0.2-4.4c-0.1-2.6-0.2-5.3-0.3-7.9c-0.2-8.5-0.2-17,0.1-25.6c0.1-2.7,0.2-5.4,0.3-8.2
				c0-0.8,0.1-1.7,0.1-2.5c0-0.4,0.2-1,0.1-1.4c0,0,0-0.2,0-0.2c-0.1,0-0.1,0.2-0.2,0.3c-0.1,0.1,0.5,0.1-0.2,0
				C338.8,53.5,339.6,50.6,337.7,50.3z"/>
		</g>
	</g>
	<g id="XMLID_837_">
		<path class="st0" d="M352.1,112.4c0,0,3.1-1.2,4,1.8c0.9,3-1.8,3.6-2.1,3.5s-3.4-0.3-3.2-2.2S351.5,112.8,352.1,112.4z"/>
		<g>
			<path class="st1" d="M352.4,113.9c0.3-0.1,0.5-0.2,0.8-0.2c-0.1,0-0.3,0-0.4,0.1c0.3,0,0.7,0,1,0c-0.1,0-0.3,0-0.4-0.1
				c0.1,0,0.2,0,0.4,0.1c0.1,0,0.1,0,0.2,0.1c0.1,0,0.3,0.2-0.1-0.1c0.1,0.1,0.2,0.1,0.3,0.2c0.3,0.2-0.3-0.2-0.1-0.1
				c0,0,0.1,0.1,0.1,0.1c0,0,0.1,0.1,0.1,0.1c0.2,0.3-0.2-0.3-0.1-0.1c0.1,0.1,0.2,0.3,0.2,0.4c0.1,0.2-0.1-0.4,0,0
				c0,0.1,0.1,0.2,0.1,0.3c0.1,0.2,0.1,0.4,0.1,0.6c0-0.1,0-0.3-0.1-0.4c0,0.3,0,0.5,0,0.8c0-0.1,0-0.3,0.1-0.4
				c0,0.2-0.1,0.3-0.1,0.5c-0.1,0.2,0.1-0.2,0.1-0.2c0,0,0,0.1-0.1,0.1c0,0.1-0.1,0.1-0.1,0.2c-0.2,0.3,0.3-0.3,0.1-0.1
				c0,0.1-0.1,0.1-0.2,0.2c0,0-0.1,0.1-0.1,0.1c-0.1,0.1,0.4-0.3,0.2-0.1c0,0-0.1,0-0.1,0.1c-0.1,0.1-0.2,0.1-0.3,0.2
				c-0.1,0-0.3,0.1,0,0c0.3-0.1,0.1,0,0,0c-0.2,0.1-0.3,0.1-0.5,0.1c0.1,0,0.3,0,0.4-0.1c-0.2,0-0.4,0-0.6,0c0.1,0,0.3,0,0.4,0.1
				c-0.2,0-0.5-0.1-0.7-0.1c-0.1,0-0.3-0.1-0.4-0.1c-0.1,0-0.1,0-0.2-0.1c-0.2-0.1,0.4,0.2,0.1,0c-0.1-0.1-0.2-0.1-0.4-0.2
				c0,0-0.1,0-0.1-0.1c-0.1-0.1,0.2,0.2,0.2,0.1c0,0-0.1-0.1-0.2-0.1c0,0-0.1-0.1-0.1-0.1c-0.1-0.1,0.1,0.2,0.1,0.2
				c0-0.1-0.1-0.1-0.1-0.2c-0.1-0.2,0.1,0.4,0.1,0.1c0-0.1,0-0.2-0.1-0.2c0,0.1,0,0.3,0.1,0.4c0-0.2,0-0.4,0-0.5
				c0,0.1,0,0.3-0.1,0.4c0.1-0.4,0.1-0.8,0.2-1.2c0-0.1,0.1-0.3,0.1-0.4c0-0.1,0.1-0.2,0.1-0.2c0.1-0.2-0.2,0.4-0.1,0.1
				c0-0.1,0.1-0.2,0.2-0.3c0,0,0.1-0.1,0.1-0.1c0.1-0.2-0.3,0.3-0.1,0.2c0.1-0.1,0.1-0.1,0.2-0.2c0.1-0.1-0.3,0.2-0.2,0.1
				c0,0,0.1-0.1,0.1-0.1c0.7-0.4,1-1.4,0.5-2.1c-0.4-0.7-1.3-1-2.1-0.5c-0.9,0.5-1.4,1.4-1.7,2.3c-0.2,0.6-0.3,1.3-0.4,2
				c-0.1,0.6,0.1,1.2,0.3,1.7c0.8,1.5,2.7,2,4.2,2.1c0.4,0,0.9-0.1,1.3-0.2c0.9-0.3,1.6-0.8,2.1-1.6c0.6-1,0.7-2.2,0.4-3.2
				c-0.2-1.2-0.9-2.2-1.9-2.8c-0.8-0.5-1.8-0.7-2.7-0.6c-0.5,0-1,0.1-1.4,0.3c-0.4,0.1-0.7,0.3-0.9,0.7c-0.2,0.3-0.3,0.8-0.2,1.2
				C350.8,113.5,351.7,114.2,352.4,113.9z"/>
		</g>
	</g>
</g>
<path class="st2" d="M299.8,88.6c0,0-0.3-3.6,0.1-6.3c-0.7-6.3-0.6-27.9-0.1-39c0,0-1-12.3,3.4-8.8c1.7,1.3,2.4,6.2,2.4,11.6
	s0.3,22.5-0.2,33.5c0,0,0.3,3.6-0.1,6.3c0.7,6.3,0.6,27.9,0.1,39c0,0,1,12.3-3.4,8.8c-1.5-1.2-2.2-5.1-2.3-9.6
	C299.5,118.2,299.4,99.6,299.8,88.6z"/>
<path class="st2" d="M400.5,88.6c0,0-0.3-3.6,0.1-6.3c-0.7-6.3-0.6-27.9-0.1-39c0,0-1-12.3,3.4-8.8c1.7,1.3,2.4,6.2,2.4,11.6
	s0.3,22.5-0.2,33.5c0,0,0.3,3.6-0.1,6.3c0.7,6.3,0.6,27.9,0.1,39c0,0,1,12.3-3.4,8.8c-1.5-1.2-2.2-5.1-2.3-9.6
	C400.2,118.2,400.1,99.6,400.5,88.6z"/>
<path class="st2" d="M190,88.6c0,0-0.3-3.6,0.1-6.3c-0.7-6.3-0.6-27.9-0.1-39c0,0-1-12.3,3.4-8.8c1.7,1.3,2.4,6.2,2.4,11.6
	c0,5.4,0.3,22.5-0.2,33.5c0,0,0.3,3.6-0.1,6.3c0.7,6.3,0.6,27.9,0.1,39c0,0,1,12.3-3.4,8.8c-1.5-1.2-2.2-5.1-2.3-9.6
	C189.6,118.2,189.5,99.6,190,88.6z"/>
<path class="st2" d="M1.7,3.1C4.1,1.6,11.9,0.9,21,0.7c11.7-0.2,48.9-0.3,71,0.1c0,0,7.2-0.3,12.7,0.1c8.9-0.5,33.4-0.6,54.8-0.4
	c9.5,0,19.2,0.1,27.6,0.2c1.8,0,3.8,0,5.9,0.1c1.2,0,7.5-0.2,12.4,0.1c8.8-0.5,33-0.6,54.3-0.4c10.3,0,21,0.1,30.1,0.2
	c0.7,0,1.5,0,2.3,0c1.2,0,2.4,0,3.5,0.1c0,0,7.2-0.3,12.7,0.1c8.9-0.5,33.4-0.6,54.8-0.4c9.5,0,19.2,0.1,27.6,0.2
	c1.8,0,3.8,0,5.9,0.1c1.2,0,7.5-0.2,12.4,0.1c8.8-0.5,33-0.6,54.3-0.4c10.3,0,21,0.1,30.1,0.2c0.7,0,1.5,0,2.3,0
	c1.2,0,2.4,0,3.5,0.1c0,0,7.2-0.3,12.7,0.1c8.9-0.5,33.4-0.6,54.8-0.4c9.5,0,19.2,0.1,27.6,0.2c1.3,0,2.7,0,4.2,0
	c1.3,0,3.2-0.1,5.3,0c2.1,0,4.8,0,7.3,0.1c7-0.3,20.1-0.4,34.3-0.4c7.8,0,16.1,0,23.9,0.1c7.8,0,15.6,0.1,22.5,0.2
	c0.8,0,1.7,0,2.7,0c1.4,0,3.2,0,4.9,0c2.5-0.1,7-0.1,10.7,0.2c12.6-0.7,56-0.6,78.1-0.1c0,0,24.6-1,17.7,3.4
	c-2.7,1.7-12.4,2.4-23.2,2.4c-10.8,0-45,0.3-67.1-0.2c0,0-7.1,0.3-12.7-0.1c-9.7,0.6-37.9,0.6-60.4,0.4c-7.5,0-15-0.1-21.9-0.2
	c-1.3,0-2.8,0-4.3,0c-1.3,0-3.3,0.1-5.4,0c-2.1,0-4.8,0-7.3-0.1c-6.9,0.3-19.9,0.4-33.8,0.4c-9.7,0-20.1,0-29.5-0.1
	c-5.9,0-11.8-0.1-17.2-0.1c-0.8,0-1.8,0-2.7,0c-1.5,0-3.2,0-5,0c-2.5,0.1-7,0.1-10.7-0.2C495,6.9,467,7,444.6,6.8
	c-8.2,0-16.6-0.1-24.1-0.2c-0.8,0-1.7,0-2.5,0c-1.2,0-2.4,0-3.5-0.1c0,0-7.1,0.3-12.7-0.1c-9.7,0.6-37.9,0.6-60.4,0.4
	c-7.5,0-15-0.1-21.9-0.2c-1.8,0-3.9,0-6-0.1c-1.2,0-7.5,0.2-12.4-0.1C291.4,6.9,263.4,7,241,6.8c-8.2,0-16.6-0.1-24.1-0.2
	c-0.8,0-1.7,0-2.5,0c-1.2,0-2.4,0-3.5-0.1c0,0-7.1,0.3-12.7-0.1c-9.7,0.6-37.9,0.6-60.4,0.4c-7.5,0-15-0.1-21.9-0.2
	c-1.8,0-3.9,0-6-0.1c-1.2,0-7.5,0.2-12.4-0.1c-12.5,0.7-56,0.6-78.1,0.1C19.4,6.5-5.2,7.5,1.7,3.1z"/>
</svg>
