<?xml version="1.0" encoding="utf-8"?>
<!-- Generator: Adobe Illustrator 23.0.3, SVG Export Plug-In . SVG Version: 6.00 Build 0)  -->
<svg version="1.1" id="Layer_1" xmlns="http://www.w3.org/2000/svg" xmlns:xlink="http://www.w3.org/1999/xlink" x="0px" y="0px"
	 viewBox="0 0 52.2 52.1" style="enable-background:new 0 0 52.2 52.1;" xml:space="preserve">
<style type="text/css">
	.st0{fill:#FFFFFF;}
	.st1{fill:#2C2C2C;}
</style>
<g>
	<g>
		<g>
			<path class="st0" d="M31.9,46.1c0.1-0.8,0-3.9,0-4.7c-0.1-1.8-0.9-3.8-2.3-4.3c-3.7,0.1-7.1,0.2-7.7,0.3c-0.2,0-0.7,0.4-0.9,0.9
				c-0.4,0.6-0.9,1.5-1,2.5c0,0.1,0,4.2,0,4.3c-0.1,1.2,0.5,2.5,2.5,3.4c0.2,0.1,0.7,0.2,1.4,0.2c3.3-0.1,6.1-0.2,6.2-0.2
				C31.3,48.4,31.8,47.4,31.9,46.1z"/>
			<g>
				<path class="st1" d="M33.4,46.1c0.2-3.7,0.5-10.4-4.7-10.5c-2.1,0-5.5-0.4-7.5,0.5c-1.7,0.8-2.6,3.2-2.7,4.9
					c-0.3,3.4-0.4,7.8,3.7,9c2.3,0.6,5.3,0.3,7.6,0c2.1-0.2,3.2-1.4,3.5-3.5c0.3-1.9-2.6-2.7-2.9-0.8c-0.3,1.7-1.1,1.4-2.6,1.4
					c-1.5,0.1-4,0.6-5.4-0.2c-1.5-0.9-1.3-4.2-1-5.8c0.2-1.3,0.6-2.2,1.9-2.3c1.5-0.2,3.9-0.6,5.3-0.2c2.4,0.6,1.8,5.4,1.7,7.5
					C30.3,48,33.3,48,33.4,46.1z"/>
			</g>
		</g>
	</g>
	<g>
		<g>
			<path class="st0" d="M48.7,46.1c0.1-0.8,0-3.9,0-4.7c-0.1-1.8-0.9-3.8-2.3-4.3c-3.7,0.1-7.1,0.2-7.7,0.3c-0.2,0-0.7,0.4-0.9,0.9
				c-0.4,0.6-0.9,1.5-1,2.5c0,0.1,0,4.2,0,4.3c-0.1,1.2,0.5,2.5,2.5,3.4c0.2,0.1,0.7,0.2,1.4,0.2c3.3-0.1,6.1-0.2,6.2-0.2
				C48.1,48.4,48.6,47.4,48.7,46.1z"/>
			<g>
				<path class="st1" d="M50.2,46.1c0.2-3.7,0.5-10.4-4.7-10.5c-2.1,0-5.5-0.4-7.5,0.5c-1.7,0.8-2.6,3.2-2.7,4.9
					c-0.3,3.4-0.4,7.8,3.7,9c2.3,0.6,5.3,0.3,7.6,0c2.1-0.2,3.2-1.4,3.5-3.5c0.3-1.9-2.6-2.7-2.9-0.8c-0.3,1.7-1.1,1.4-2.6,1.4
					c-1.5,0.1-4,0.6-5.4-0.2c-1.5-0.9-1.3-4.2-1-5.8c0.2-1.3,0.6-2.2,1.9-2.3c1.5-0.2,3.9-0.6,5.3-0.2c2.4,0.6,1.8,5.4,1.7,7.5
					C47.1,48,50.1,48,50.2,46.1z"/>
			</g>
		</g>
	</g>
	<g>
		<g>
			<path class="st0" d="M15.1,46.1c0.1-0.8,0-3.9,0-4.7c-0.1-1.8-0.9-3.8-2.3-4.3c-3.7,0.1-7.1,0.2-7.7,0.3c-0.2,0-0.7,0.4-0.9,0.9
				c-0.4,0.6-0.9,1.5-1,2.5c0,0.1,0,4.2,0,4.3c-0.1,1.2,0.5,2.5,2.5,3.4c0.2,0.1,0.7,0.2,1.4,0.2c3.3-0.1,6.1-0.2,6.2-0.2
				C14.4,48.4,15,47.4,15.1,46.1z"/>
			<g>
				<path class="st1" d="M16.6,46.1c0.2-3.7,0.5-10.4-4.7-10.5c-2.1,0-5.5-0.4-7.5,0.5c-1.7,0.8-2.6,3.2-2.7,4.9
					c-0.3,3.4-0.4,7.8,3.7,9c2.3,0.6,5.3,0.3,7.6,0c2.1-0.2,3.2-1.4,3.5-3.5c0.3-1.9-2.6-2.7-2.9-0.8c-0.3,1.7-1.1,1.4-2.6,1.4
					c-1.5,0.1-4,0.6-5.4-0.2c-1.5-0.9-1.3-4.2-1-5.8c0.2-1.3,0.6-2.2,1.9-2.3c1.5-0.2,3.9-0.6,5.3-0.2c2.4,0.6,1.8,5.4,1.7,7.5
					C13.5,48,16.5,48,16.6,46.1z"/>
			</g>
		</g>
	</g>
	<g>
		<g>
			<path class="st0" d="M31.9,29.5c0.1-0.8,0-3.9,0-4.7c-0.1-1.8-0.9-3.8-2.3-4.3c-3.7,0.1-7.1,0.2-7.7,0.3c-0.2,0-0.7,0.4-0.9,0.9
				c-0.4,0.6-0.9,1.5-1,2.5c0,0.1,0,4.2,0,4.3c-0.1,1.2,0.5,2.5,2.5,3.4c0.2,0.1,0.7,0.2,1.4,0.2c3.3-0.1,6.1-0.2,6.2-0.2
				C31.3,31.8,31.8,30.8,31.9,29.5z"/>
			<g>
				<path class="st1" d="M33.4,29.5c0.2-3.7,0.5-10.4-4.7-10.5c-2.1,0-5.5-0.4-7.5,0.5c-1.7,0.8-2.6,3.2-2.7,4.9
					c-0.3,3.4-0.4,7.8,3.7,9c2.3,0.6,5.3,0.3,7.6,0c2.1-0.2,3.2-1.4,3.5-3.5c0.3-1.9-2.6-2.7-2.9-0.8c-0.3,1.7-1.1,1.4-2.6,1.4
					c-1.5,0.1-4,0.6-5.4-0.2c-1.5-0.9-1.3-4.2-1-5.8c0.2-1.3,0.6-2.2,1.9-2.3c1.5-0.2,3.9-0.6,5.3-0.2c2.4,0.6,1.8,5.4,1.7,7.5
					C30.3,31.4,33.3,31.4,33.4,29.5z"/>
			</g>
		</g>
	</g>
	<g>
		<g>
			<path class="st0" d="M48.7,29.5c0.1-0.8,0-3.9,0-4.7c-0.1-1.8-0.9-3.8-2.3-4.3c-3.7,0.1-7.1,0.2-7.7,0.3c-0.2,0-0.7,0.4-0.9,0.9
				c-0.4,0.6-0.9,1.5-1,2.5c0,0.1,0,4.2,0,4.3c-0.1,1.2,0.5,2.5,2.5,3.4c0.2,0.1,0.7,0.2,1.4,0.2c3.3-0.1,6.1-0.2,6.2-0.2
				C48.1,31.8,48.6,30.8,48.7,29.5z"/>
			<g>
				<path class="st1" d="M50.2,29.5c0.2-3.7,0.5-10.4-4.7-10.5c-2.1,0-5.5-0.4-7.5,0.5c-1.7,0.8-2.6,3.2-2.7,4.9
					c-0.3,3.4-0.4,7.8,3.7,9c2.3,0.6,5.3,0.3,7.6,0c2.1-0.2,3.2-1.4,3.5-3.5c0.3-1.9-2.6-2.7-2.9-0.8c-0.3,1.7-1.1,1.4-2.6,1.4
					c-1.5,0.1-4,0.6-5.4-0.2c-1.5-0.9-1.3-4.2-1-5.8c0.2-1.3,0.6-2.2,1.9-2.3c1.5-0.2,3.9-0.6,5.3-0.2c2.4,0.6,1.8,5.4,1.7,7.5
					C47.1,31.4,50.1,31.4,50.2,29.5z"/>
			</g>
		</g>
	</g>
	<g>
		<g>
			<path class="st0" d="M15.1,29.5c0.1-0.8,0-3.9,0-4.7c-0.1-1.8-0.9-3.8-2.3-4.3c-3.7,0.1-7.1,0.2-7.7,0.3c-0.2,0-0.7,0.4-0.9,0.9
				c-0.4,0.6-0.9,1.5-1,2.5c0,0.1,0,4.2,0,4.3c-0.1,1.2,0.5,2.5,2.5,3.4c0.2,0.1,0.7,0.2,1.4,0.2c3.3-0.1,6.1-0.2,6.2-0.2
				C14.4,31.8,15,30.8,15.1,29.5z"/>
			<g>
				<path class="st1" d="M16.6,29.5c0.2-3.7,0.5-10.4-4.7-10.5c-2.1,0-5.5-0.4-7.5,0.5c-1.7,0.8-2.6,3.2-2.7,4.9
					c-0.3,3.4-0.4,7.8,3.7,9c2.3,0.6,5.3,0.3,7.6,0c2.1-0.2,3.2-1.4,3.5-3.5c0.3-1.9-2.6-2.7-2.9-0.8c-0.3,1.7-1.1,1.4-2.6,1.4
					c-1.5,0.1-4,0.6-5.4-0.2c-1.5-0.9-1.3-4.2-1-5.8c0.2-1.3,0.6-2.2,1.9-2.3c1.5-0.2,3.9-0.6,5.3-0.2c2.4,0.6,1.8,5.4,1.7,7.5
					C13.5,31.4,16.5,31.4,16.6,29.5z"/>
			</g>
		</g>
	</g>
	<g>
		<g>
			<path class="st0" d="M31.9,12.9c0.1-0.8,0-3.9,0-4.7c-0.1-1.8-0.9-3.8-2.3-4.3C26,4,22.6,4.1,21.9,4.2c-0.2,0-0.7,0.4-0.9,0.9
				c-0.4,0.6-0.9,1.5-1,2.5c0,0.1,0,4.2,0,4.3c-0.1,1.2,0.5,2.5,2.5,3.4c0.2,0.1,0.7,0.2,1.4,0.2c3.3-0.1,6.1-0.2,6.2-0.2
				C31.3,15.2,31.8,14.2,31.9,12.9z"/>
			<g>
				<path class="st1" d="M33.4,12.9c0.2-3.7,0.5-10.4-4.7-10.5c-2.1,0-5.5-0.4-7.5,0.5c-1.7,0.8-2.6,3.2-2.7,4.9
					c-0.3,3.4-0.4,7.8,3.7,9c2.3,0.6,5.3,0.3,7.6,0c2.1-0.2,3.2-1.4,3.5-3.5c0.3-1.9-2.6-2.7-2.9-0.8c-0.3,1.7-1.1,1.4-2.6,1.4
					c-1.5,0.1-4,0.6-5.4-0.2c-1.5-0.9-1.3-4.2-1-5.8c0.2-1.3,0.6-2.2,1.9-2.3c1.5-0.2,3.9-0.6,5.3-0.2c2.4,0.6,1.8,5.4,1.7,7.5
					C30.3,14.8,33.3,14.8,33.4,12.9z"/>
			</g>
		</g>
	</g>
	<g>
		<g>
			<path class="st0" d="M48.7,12.9c0.1-0.8,0-3.9,0-4.7c-0.1-1.8-0.9-3.8-2.3-4.3c-3.7,0.1-7.1,0.2-7.7,0.3c-0.2,0-0.7,0.4-0.9,0.9
				c-0.4,0.6-0.9,1.5-1,2.5c0,0.1,0,4.2,0,4.3c-0.1,1.2,0.5,2.5,2.5,3.4c0.2,0.1,0.7,0.2,1.4,0.2c3.3-0.1,6.1-0.2,6.2-0.2
				C48.1,15.2,48.6,14.2,48.7,12.9z"/>
			<g>
				<path class="st1" d="M50.2,12.9c0.2-3.7,0.5-10.4-4.7-10.5C43.4,2.4,40,2,38,2.9c-1.7,0.8-2.6,3.2-2.7,4.9
					c-0.3,3.4-0.4,7.8,3.7,9c2.3,0.6,5.3,0.3,7.6,0c2.1-0.2,3.2-1.4,3.5-3.5c0.3-1.9-2.6-2.7-2.9-0.8c-0.3,1.7-1.1,1.4-2.6,1.4
					c-1.5,0.1-4,0.6-5.4-0.2c-1.5-0.9-1.3-4.2-1-5.8c0.2-1.3,0.6-2.2,1.9-2.3c1.5-0.2,3.9-0.6,5.3-0.2c2.4,0.6,1.8,5.4,1.7,7.5
					C47.1,14.8,50.1,14.8,50.2,12.9z"/>
			</g>
		</g>
	</g>
	<g>
		<g>
			<path class="st0" d="M15.1,12.9c0.1-0.8,0-3.9,0-4.7c-0.1-1.8-0.9-3.8-2.3-4.3C9.2,4,5.7,4.1,5.1,4.2C5,4.3,4.5,4.7,4.2,5.1
				c-0.4,0.6-0.9,1.5-1,2.5c0,0.1,0,4.2,0,4.3c-0.1,1.2,0.5,2.5,2.5,3.4c0.2,0.1,0.7,0.2,1.4,0.2c3.3-0.1,6.1-0.2,6.2-0.2
				C14.4,15.2,15,14.2,15.1,12.9z"/>
			<g>
				<path class="st1" d="M16.6,12.9c0.2-3.7,0.5-10.4-4.7-10.5C9.8,2.4,6.4,2,4.4,2.9C2.7,3.7,1.8,6.1,1.7,7.8
					c-0.3,3.4-0.4,7.8,3.7,9c2.3,0.6,5.3,0.3,7.6,0c2.1-0.2,3.2-1.4,3.5-3.5c0.3-1.9-2.6-2.7-2.9-0.8c-0.3,1.7-1.1,1.4-2.6,1.4
					c-1.5,0.1-4,0.6-5.4-0.2c-1.5-0.9-1.3-4.2-1-5.8c0.2-1.3,0.6-2.2,1.9-2.3c1.5-0.2,3.9-0.6,5.3-0.2c2.4,0.6,1.8,5.4,1.7,7.5
					C13.5,14.8,16.5,14.8,16.6,12.9z"/>
			</g>
		</g>
	</g>
</g>
</svg>
