<?xml version="1.0" encoding="utf-8"?>
<!-- Generator: Adobe Illustrator 23.1.1, SVG Export Plug-In . SVG Version: 6.00 Build 0)  -->
<svg version="1.1" id="Layer_1" xmlns="http://www.w3.org/2000/svg" xmlns:xlink="http://www.w3.org/1999/xlink" x="0px" y="0px"
	 viewBox="0 0 240.8 109" style="enable-background:new 0 0 240.8 109;" xml:space="preserve">
<style type="text/css">
	.st0{fill:#2C2C2C;}
</style>
<g>
	<path class="st0" d="M149,54.4c0-0.4-0.1-0.8-0.1-1.2c0-1.2,0-2.5-0.1-3.7c-0.1-3.1-0.5-6.1-0.8-9.2c-0.1-0.6-0.1-1.2-0.2-1.9
		c0-1.7-0.1-3.4-0.3-5.2c0-0.2,0-0.3,0-0.5c0.1-1.9,0.4-3.7,0.3-5.6c0-0.9-0.2-1.8-0.5-2.7c-0.3-0.9-0.8-1.7-1.4-2.3
		c-0.3-0.3-0.7-0.6-1.1-0.8c-0.4-0.3-0.9-0.5-1.4-0.7c-0.9-0.4-1.9-0.6-2.9-0.6c-0.1,0-0.2,0-0.2,0c-0.3,0-0.6,0-0.9,0.1
		c0,0,0,0,0,0c-0.2-0.1-0.5-0.1-0.7-0.1c0,0,0,0,0,0c-0.2,0-0.5,0-0.7,0.1c-0.1,0-0.3,0.1-0.4,0.1c-0.2,0-0.3,0.1-0.5,0.2
		c-0.3,0.1-0.6,0.2-0.9,0.4c-0.4,0.2-0.7,0.4-1,0.6c-0.5,0.3-0.9,0.7-1.3,1.1c-0.4,0.4-0.7,0.8-1,1.2c-0.3,0.4-0.5,0.9-0.7,1.3
		c-0.1,0.3-0.2,0.6-0.3,1c-0.1,0.5-0.1,1-0.2,1.5c-0.1,0.9-0.1,1.9,0,2.8c0.1,0.8,0.2,1.6,0.3,2.3c-0.1,1.1-0.2,2.2-0.3,3.4
		c0,0.6-0.1,1.3-0.1,1.9c-0.1,0.9-0.1,1.9-0.1,2.8c0,0.1,0,0.3-0.1,0.4c-0.3,1.9-0.5,3.8-0.5,5.7c-0.1,3.7,0.1,7.4,0.7,11.1
		c0,0.2,0.1,0.3,0.2,0.4c0,0,0,0,0,0.1c-0.2,0.7-0.1,1.5,0,2.2c0.1,0.9,0.5,1.8,0.9,2.6c0.5,0.9,1.1,1.7,1.7,2.5
		c0.3,0.4,0.7,0.7,1,1.1c0.4,0.4,0.9,0.7,1.3,1c0.7,0.5,1.6,0.8,2.5,1c0.7,0.2,1.5,0.2,2.2,0.1c0.4,0,0.7-0.1,1.1-0.2
		c0.4-0.1,0.7-0.2,1.1-0.4c0.6-0.3,1.1-0.6,1.6-1.1c0.5-0.4,0.9-1,1.3-1.5c0.3-0.5,0.6-1.1,0.9-1.6c0.3-0.7,0.5-1.3,0.7-2
		c0.4-1.3,0.6-2.7,0.7-4.1C149.1,56.9,149.1,55.7,149,54.4z"/>
</g>
<g>
	<g>
		<path class="st0" d="M121.1,49.2c-0.1-0.4-0.3-0.7-0.5-1c-0.2-0.2-0.4-0.4-0.6-0.6c-0.1-0.1-0.3-0.2-0.5-0.4
			c-0.2-0.2-0.5-0.3-0.8-0.4c-0.3-0.1-0.7-0.3-1-0.4c-0.5-0.2-1.1-0.2-1.7-0.3c-0.2,0-0.5,0-0.7,0c-0.4,0-0.8,0-1.2,0.1
			c-0.4,0-0.8,0.1-1.1,0.2c-0.4,0-0.9,0-1.3,0.1c-0.1,0-0.1,0-0.2,0c-0.2,0-0.4,0-0.6,0c-0.5,0-0.9,0-1.4,0c-0.1,0-0.3,0-0.4,0
			c0,0,0,0,0,0c-0.3,0-0.6,0-0.8,0c-0.2,0-0.5,0.1-0.7,0.1c-0.2,0-0.3,0.1-0.4,0.1c0,0-0.1,0-0.1,0.1c-0.1,0-0.3,0-0.4,0
			c-0.3,0-0.5,0.1-0.7,0.1c-0.3,0.1-0.5,0.2-0.8,0.3c-0.2,0.1-0.3,0.2-0.4,0.3c-0.2,0.2-0.4,0.3-0.6,0.5c-0.2,0.2-0.4,0.4-0.5,0.6
			c-0.1,0.2-0.3,0.4-0.3,0.6c-0.1,0.2-0.1,0.4-0.1,0.7c0,0.2,0,0.4,0.1,0.6c0.1,0.2,0.2,0.4,0.3,0.6c0,0.1,0,0.2,0,0.3
			c0,0.2,0.2,0.4,0.3,0.6c0.1,0.1,0.2,0.2,0.3,0.4c0.1,0.3,0.4,0.5,0.7,0.7c0.1,0.1,0.2,0.2,0.4,0.2c0.3,0.2,0.6,0.4,0.9,0.5
			c0.3,0.1,0.7,0.3,1.1,0.3c0.2,0,0.4,0.1,0.6,0.1c0.3,0.1,0.7,0.2,1,0.3c0.6,0.1,1.2,0.1,1.8,0.1c0,0,0.1,0,0.1,0
			c0.1,0,0.2,0.1,0.2,0.1c0.9,0.3,2.1,0.4,3,0c0.2-0.1,0.3-0.2,0.5-0.2c0.2-0.1,0.4-0.3,0.5-0.4c0,0,0,0,0,0c0.2,0,0.3-0.1,0.5-0.1
			c0.1,0,0.2,0,0.3,0c0.2,0,0.5,0,0.7,0c0.2,0,0.4-0.1,0.6-0.1c0.3-0.1,0.6-0.2,0.8-0.3c0,0,0,0,0,0c0,0,0,0,0,0
			c0.3-0.1,0.6-0.1,0.9-0.3c0.2-0.1,0.4-0.2,0.6-0.3c0.2-0.1,0.4-0.3,0.6-0.4c0.2-0.2,0.4-0.4,0.6-0.7c0.1-0.1,0.1-0.2,0.1-0.3
			c0,0,0,0,0,0c0,0,0-0.1,0-0.1c0,0,0,0,0,0c0.1-0.1,0.2-0.3,0.2-0.4c0.1-0.2,0.1-0.5,0.1-0.7c0,0,0,0,0,0c0,0,0,0,0,0
			C121.2,50,121.1,49.6,121.1,49.2z"/>
	</g>
	<g>
		<path class="st0" d="M122.3,62c-0.1-0.4-0.2-0.8-0.3-1.2c0-0.1,0-0.2,0-0.3c-0.1-0.3-0.2-0.7-0.3-1c0-0.1-0.1-0.2-0.1-0.3
			c0-0.1,0-0.2,0-0.3c-0.1-0.5-0.3-0.9-0.6-1.4c-0.1-0.2-0.2-0.3-0.4-0.5c-0.3-0.6-0.8-1.1-1.5-1.3c-0.2-0.1-0.4-0.1-0.6-0.1
			c-0.2,0-0.5,0-0.7,0c-0.1,0-0.2,0-0.3,0c-0.2,0-0.4,0-0.6,0c-0.4,0-0.9,0-1.3,0.1c-0.5,0.1-0.9,0.2-1.4,0.3
			c-0.5,0.2-1.1,0.4-1.6,0.7c-0.2,0.1-0.4,0.3-0.6,0.4c-0.1,0.1-0.2,0.2-0.4,0.3c-0.2,0.1-0.4,0.2-0.6,0.2c-0.3,0.1-0.6,0.1-0.9,0.2
			c-0.2,0-0.4,0-0.6-0.1c-0.2,0-0.3-0.1-0.4-0.2c-0.2-0.1-0.3-0.2-0.4-0.3c-0.2-0.2-0.3-0.4-0.5-0.6c-0.2-0.4-0.4-0.9-0.6-1.3
			c-0.1-0.3-0.2-0.7-0.2-1.1c-0.1-0.6-0.2-1.2-0.2-1.8c0-1.2,0.1-2.4,0.4-3.6c0.1-0.5,0.3-0.9,0.5-1.4c0.8-0.8,1.7-1.5,2.7-2.1
			c0.7-0.4,1.3-0.7,2.1-0.9c0.2-0.1,0.4-0.1,0.7-0.1c0.5-0.1,1-0.1,1.6-0.1c0.6,0,1.1,0,1.7-0.1c0.7,0,1.4-0.2,2-0.4
			c0.6-0.2,1.2-0.5,1.7-0.8c0.3-0.2,0.5-0.5,0.8-0.8c0.3-0.3,0.5-0.7,0.6-1.1c0.2-0.3,0.2-0.7,0.3-1.1c0-0.2,0.1-0.4,0.1-0.6
			c0-0.3,0-0.6-0.1-0.9c-0.1-0.4-0.2-0.7-0.3-1c-0.1-0.5-0.4-0.9-0.6-1.3c-0.3-0.6-0.7-1.1-1-1.6c0,0,0,0,0,0c0,0,0,0,0,0
			c-0.1-0.2-0.2-0.3-0.3-0.5c-0.1-0.2-0.3-0.3-0.5-0.5c-0.1-0.1-0.2-0.2-0.3-0.2c-0.1,0-0.1-0.1-0.2-0.1c-0.3-0.2-0.6-0.5-0.9-0.7
			c-0.4-0.2-0.8-0.4-1.3-0.6c-0.5-0.2-1-0.3-1.4-0.3c-0.9-0.1-1.9,0-2.8,0.1c-1,0.2-2,0.5-2.9,0.8c-0.9,0.4-1.8,0.8-2.7,1.3
			c-0.3,0.2-0.6,0.4-0.9,0.5c-0.1,0-0.1,0-0.2,0c-0.2,0-0.5,0-0.7,0c-0.1,0-0.3,0-0.4,0.1c-0.1,0-0.2,0-0.2,0.1
			c-0.4,0-0.7,0.1-1.1,0.2c-0.4,0.1-0.9,0.3-1.3,0.5c-0.4,0.2-0.9,0.5-1.2,0.8c-0.7,0.6-1.3,1.3-1.9,2c-0.6,0.8-1,1.7-1.4,2.6
			c-0.4,0.9-0.7,1.8-1,2.8c-0.4,1.4-0.7,2.9-0.9,4.3c-0.2,0.7-0.3,1.3-0.3,2c-0.1,0.8-0.1,1.6-0.1,2.4c0.1,1.4,0.4,2.8,0.8,4.1
			c0.3,0.9,0.6,1.8,1.1,2.6c0.3,0.6,0.7,1.3,1.1,1.8c0,0.1,0,0.1,0.1,0.2c0,0.1,0.1,0.1,0.1,0.2c0,0,0,0,0,0c0,0,0,0,0,0
			c0.3,0.4,0.5,0.8,0.8,1.2c0,0,0.1,0.1,0.1,0.1c0.3,0.3,0.6,0.7,0.9,1c0,0,0,0.1,0.1,0.1c0.1,0.2,0.3,0.5,0.5,0.7c0,0,0,0,0,0
			c0.2,0.2,0.4,0.5,0.7,0.7c0.4,0.3,0.8,0.6,1.3,0.8c0.2,0.1,0.4,0.2,0.6,0.3c0,0,0,0,0,0c0.3,0.2,0.7,0.4,1,0.5
			c0.2,0.1,0.3,0.2,0.5,0.3c0.8,0.4,1.7,0.8,2.6,1.1c0.7,0.2,1.4,0.4,2.1,0.5c0,0,0.1,0.1,0.1,0.1c0.1,0,0.1,0,0.2,0.1c0,0,0,0,0,0
			c0,0,0,0,0,0c0.5,0.1,1,0.2,1.5,0.3c0,0,0.1,0,0.1,0c0.4,0,0.9,0.1,1.3,0.1c0,0,0.1,0,0.1,0c0.3,0.1,0.5,0.1,0.8,0.2c0,0,0,0,0,0
			c0.3,0,0.6,0,0.9,0c0.5,0,1-0.2,1.5-0.3c0.2-0.1,0.4-0.2,0.6-0.3c0,0,0,0,0,0c1.2-0.3,2.3-0.8,3.3-1.5c0.2-0.2,0.5-0.4,0.7-0.6
			c0.2-0.2,0.3-0.4,0.5-0.6c0.2-0.3,0.3-0.6,0.4-0.9c0.1-0.3,0.2-0.6,0.3-1c0-0.3,0.1-0.5,0.1-0.8C122.4,62.7,122.4,62.4,122.3,62z"
			/>
	</g>
</g>
<g>
	<g>
		<path class="st0" d="M86.9,59.9c-0.1-0.7-0.2-1.4-0.3-2.1c-0.2-0.8-0.4-1.6-0.7-2.3c-0.2-0.7-0.5-1.3-0.8-1.9
			c-0.3-0.7-0.7-1.3-1.1-1.9c-0.2-0.3-0.4-0.5-0.6-0.8c-0.1-0.2-0.1-0.4-0.2-0.7c-0.2-0.6-0.6-1.1-1-1.6c-0.4-0.6-1-1-1.6-1.5
			c-0.4-0.3-0.7-0.5-1.1-0.8c-0.8-0.5-1.6-0.8-2.4-1.2c-1.2-0.5-2.4-0.8-3.6-1C72.9,44,72.3,44,71.7,44c-0.5,0-0.9,0.1-1.4,0.1
			c-0.5,0.1-1,0.2-1.5,0.4c-0.2,0.1-0.3,0.1-0.5,0.2c-0.1,0.6-0.1,1.2-0.2,1.9c0,0.1,0,0.3-0.1,0.4c0,0.9,0,1.9-0.1,2.8
			c0,0.6,0,1.3-0.1,1.9c-0.1,1.1-0.1,2.3-0.3,3.4c0.1,0.8,0.2,1.6,0.3,2.3c0.1,0.9,0.1,1.9,0,2.8c0,0.5-0.1,1-0.2,1.5
			c-0.1,0.3-0.1,0.7-0.3,1c-0.1,0.3-0.2,0.5-0.4,0.8c0.4-0.6,0.8-1.1,1.2-1.7c0.6-0.8,1.1-1.7,1.6-2.6c0.2-0.1,0.3-0.1,0.5-0.2
			c0.3-0.1,0.6-0.1,0.9-0.2c0.3,0,0.6,0,0.9,0.1c0.3,0.1,0.5,0.2,0.8,0.3c0.2,0.1,0.5,0.3,0.7,0.5c0.2,0.2,0.4,0.4,0.6,0.6
			c0.1,0.2,0.2,0.4,0.3,0.6c0,0.1,0.1,0.3,0.1,0.4c0,0.4,0,0.8-0.1,1.1c-0.1,0.5-0.2,1-0.2,1.6c0,1.1,0.6,2.2,1.7,2.6
			c0,0,0.1,0,0.1,0c0.2,0.5,0.5,0.9,0.9,1.3c0.6,0.5,1.2,1,1.9,1.1c0.4,0.1,0.8,0.2,1.2,0.2c0.5,0,1-0.1,1.5-0.2
			c0.5-0.1,1-0.3,1.4-0.5c0.3-0.1,0.5-0.2,0.7-0.4c0.4-0.2,0.7-0.4,1-0.7c0.3-0.3,0.6-0.7,0.9-1c0.2-0.3,0.4-0.7,0.6-1.1
			c0.1-0.2,0.2-0.5,0.3-0.8c0.2-0.7,0.4-1.5,0.4-2.3C87,61.4,86.9,60.6,86.9,59.9z"/>
	</g>
	<g>
		<path class="st0" d="M66.7,64.1c0.1-0.2,0.2-0.4,0.3-0.5c-0.3,0.4-0.6,0.8-0.8,1.2C66.4,64.5,66.5,64.3,66.7,64.1z"/>
	</g>
	<g>
		<path class="st0" d="M67.9,29.8c0-0.2-0.1-0.3-0.2-0.4c0,0,0,0,0-0.1c0.2-0.7,0.1-1.5,0-2.2c-0.1-0.9-0.5-1.8-0.9-2.6
			c-0.5-0.9-1.1-1.7-1.7-2.5c-0.3-0.4-0.7-0.7-1-1.1c-0.4-0.4-0.9-0.7-1.3-1c-0.7-0.5-1.6-0.8-2.5-1c-0.7-0.2-1.5-0.2-2.2-0.1
			c-0.4,0-0.7,0.1-1.1,0.2c-0.4,0.1-0.7,0.2-1.1,0.4c-0.6,0.3-1.1,0.6-1.6,1.1c-0.5,0.4-0.9,1-1.3,1.5c-0.3,0.5-0.6,1.1-0.9,1.6
			c-0.3,0.7-0.5,1.3-0.7,2c-0.4,1.3-0.6,2.7-0.7,4.1c-0.1,1.3-0.2,2.5-0.1,3.8c0,0.4,0.1,0.8,0.1,1.2c0,1.2,0,2.5,0.1,3.7
			c0.1,3.1,0.5,6.1,0.8,9.2c0.1,0.6,0.1,1.2,0.2,1.9c0,1.7,0.1,3.4,0.3,5.2c0,0.2,0,0.3,0,0.5c-0.1,1.9-0.4,3.7-0.3,5.6
			c0,0.9,0.2,1.8,0.5,2.7c0.1,0.2,0.1,0.3,0.2,0.5c0.3,0.7,0.7,1.3,1.2,1.8c0.3,0.3,0.7,0.6,1.1,0.8c0.4,0.3,0.9,0.5,1.4,0.7
			c0.9,0.4,1.9,0.6,2.9,0.6c0.1,0,0.2,0,0.2,0c0.3,0,0.6,0,0.9-0.1c0,0,0,0,0,0c0.2,0.1,0.5,0.1,0.7,0.1c0,0,0,0,0,0
			c0.2,0,0.5,0,0.7-0.1c0.1,0,0.3-0.1,0.4-0.1c0.2,0,0.3-0.1,0.5-0.2c0.3-0.1,0.6-0.2,0.9-0.4c0.4-0.2,0.7-0.4,1-0.6
			c0.5-0.3,0.9-0.7,1.3-1.1c0.2-0.2,0.3-0.4,0.5-0.5c0.3-0.4,0.6-0.8,0.8-1.2c0.1-0.3,0.3-0.5,0.4-0.8c0.1-0.3,0.2-0.6,0.3-1
			c0.1-0.5,0.1-1,0.2-1.5c0.1-0.9,0.1-1.9,0-2.8c-0.1-0.8-0.2-1.6-0.3-2.3c0.1-1.1,0.2-2.2,0.3-3.4c0-0.6,0.1-1.3,0.1-1.9
			C68,48.9,68,48,68,47.1c0-0.1,0-0.3,0.1-0.4c0.1-0.6,0.2-1.2,0.2-1.9c0.1-1.3,0.2-2.6,0.3-3.9C68.7,37.2,68.5,33.5,67.9,29.8z"/>
	</g>
</g>
<g>
	<path class="st0" d="M190.3,55.2c-0.1-0.5-0.2-1-0.4-1.5c-0.1-0.2-0.2-0.4-0.3-0.5c0-0.1,0-0.3,0-0.4c0-0.8-0.1-1.6-0.2-2.3
		c-0.2-0.8-0.5-1.6-0.8-2.3c-0.3-0.6-0.7-1.1-1.1-1.7c-0.5-0.7-1.1-1.3-1.7-1.8c-0.6-0.5-1.2-1-1.9-1.4c-0.3-0.2-0.6-0.4-0.9-0.5
		c-0.4-0.2-0.7-0.3-1.1-0.5c-0.7-0.3-1.5-0.6-2.3-0.8c-0.8-0.2-1.7-0.3-2.5-0.4c-1.5-0.1-3,0.1-4.5,0.6c-0.7,0.2-1.5,0.6-2.1,1
		c-0.1,0-0.2,0.1-0.2,0.2c-0.2-0.1-0.3-0.2-0.5-0.4c-0.7-0.5-1.6-0.8-2.5-1c-0.7-0.2-1.5-0.2-2.2-0.1c-0.4,0-0.7,0.1-1.1,0.2
		c-0.4,0.1-0.7,0.2-1.1,0.4c-0.6,0.3-1.1,0.6-1.6,1.1c-0.5,0.4-0.9,1-1.3,1.5c-0.3,0.5-0.6,1.1-0.9,1.6c-0.3,0.7-0.5,1.3-0.7,2
		c-0.4,1.3-0.6,2.7-0.7,4.1c-0.1,1.3-0.2,2.5-0.1,3.8c0,0.4,0.1,0.8,0.1,1.2c0,1.2,0,2.5,0.1,3.7c0.1,3.1,0.5,6.1,0.8,9.2
		c0.1,0.6,0.1,1.2,0.2,1.9c0,1.7,0.1,3.4,0.3,5.2c0,0.2,0,0.3,0,0.5c-0.1,1.9-0.4,3.7-0.3,5.6c0,0.9,0.2,1.8,0.5,2.7
		c0.3,0.9,0.8,1.7,1.4,2.3c0.3,0.3,0.7,0.6,1.1,0.8c0.4,0.3,0.9,0.5,1.4,0.7c0.9,0.4,1.9,0.6,2.9,0.6c0.1,0,0.2,0,0.2,0
		c0.3,0,0.6,0,0.9-0.1c0,0,0,0,0,0c0.2,0.1,0.5,0.1,0.7,0.1c0,0,0,0,0,0c0.2,0,0.5,0,0.7-0.1c0.1,0,0.3-0.1,0.4-0.1
		c0.2,0,0.3-0.1,0.5-0.2c0.3-0.1,0.6-0.2,0.9-0.4c0.4-0.2,0.7-0.4,1-0.6c0.5-0.3,0.9-0.7,1.3-1.1c0.4-0.4,0.7-0.8,1-1.2
		c0.3-0.4,0.5-0.9,0.7-1.3c0.1-0.3,0.2-0.6,0.3-1c0.1-0.5,0.1-1,0.2-1.5c0.1-0.9,0.1-1.9,0-2.8c-0.1-0.8-0.2-1.6-0.3-2.3
		c0.1-1.1,0.2-2.2,0.3-3.4c0-0.6,0.1-1.3,0.1-1.9c0.1-0.9,0.1-1.9,0.1-2.8c0-0.1,0-0.3,0.1-0.4c0.1-0.9,0.3-1.9,0.3-2.8
		c0.4,0,0.9,0,1.3,0c0.8,0,1.6-0.2,2.4-0.3c1.4-0.3,2.7-0.8,4-1.4c0.7-0.3,1.3-0.7,1.9-1.2c0.4-0.2,0.8-0.5,1.2-0.8
		c0.8-0.6,1.6-1.3,2.2-2c0.3-0.4,0.6-0.9,0.9-1.3c0.3-0.4,0.4-0.9,0.6-1.4c0.2-0.5,0.2-1,0.3-1.5C190.4,56,190.3,55.6,190.3,55.2z
		 M179,54.8c0,0.1,0,0.3-0.1,0.4c0,0.1-0.1,0.3-0.2,0.4c-0.1,0.2-0.2,0.3-0.4,0.4c-0.1,0.1-0.1,0.1-0.2,0.1
		c-0.1,0.1-0.2,0.1-0.4,0.1c-0.1,0-0.2,0.1-0.4,0.1c-0.1,0.1-0.3,0.1-0.4,0.1c0,0,0,0,0,0c0,0-0.1,0.1-0.2,0.1
		c-0.1,0.1-0.3,0.1-0.4,0.2c0,0-0.1,0-0.1,0c0,0,0,0,0,0c-0.1,0.1-0.2,0.1-0.2,0.1c-0.1,0-0.2,0-0.3,0c-0.1,0-0.1,0-0.2,0
		c0,0,0,0-0.1,0c0,0-0.1,0-0.1,0.1c-0.1,0-0.2,0-0.3,0c-0.1,0-0.2,0-0.3-0.1c-0.1,0-0.1-0.1-0.2-0.1c-0.1-0.1-0.2-0.1-0.3-0.2
		c-0.1-0.1-0.2-0.2-0.3-0.3c-0.1-0.1-0.2-0.2-0.3-0.3c-0.1-0.1-0.2-0.2-0.3-0.4c-0.1-0.1-0.1-0.3-0.2-0.4c-0.1-0.1-0.1-0.3-0.1-0.4
		c0-0.2,0-0.3,0-0.5c0-0.1,0-0.2,0-0.3c0-0.1,0-0.2,0-0.2c0-0.1,0-0.1,0-0.2c0-0.2,0-0.4,0-0.5c0-0.3,0.1-0.5,0.2-0.7
		c0-0.1,0.1-0.1,0.1-0.2c0,0,0.1-0.1,0.1-0.1c0,0,0.1-0.1,0.2-0.1c0.1,0,0.1,0,0.2-0.1c0-0.2,0-0.3,0.1-0.5c0.1-0.3,0.5-0.5,0.8-0.5
		c0.1,0,0.1,0,0.2,0.1c0.1,0,0.2,0.1,0.3,0.2c0,0,0,0,0,0c0.1,0,0.1,0,0.2,0c0,0,0.1,0,0.1-0.1c0.1,0,0.1-0.1,0.2-0.1
		c0.1,0,0.2,0,0.2,0c0.1,0,0.2,0,0.4,0.1c0,0,0,0,0,0c0,0,0,0,0,0c0.1,0,0.2,0,0.4,0c0.1,0,0.2,0,0.3,0.1c0.1,0,0.2,0.1,0.3,0.2
		c0.1,0.1,0.3,0.2,0.4,0.3c0,0,0.1,0.1,0.1,0.1c0,0,0,0,0,0c0,0,0,0,0,0c0,0,0,0,0,0c0.1,0.1,0.1,0.1,0.2,0.2
		c0.1,0.1,0.2,0.3,0.3,0.4c0,0,0,0,0,0c0,0,0,0,0,0c0.1,0.2,0.2,0.5,0.3,0.7c0.1,0.2,0.2,0.5,0.2,0.7c0,0.2,0,0.3,0,0.5
		C179,54.6,179,54.7,179,54.8z"/>
</g>
</svg>
