<?xml version="1.0" encoding="utf-8"?>
<!-- Generator: Adobe Illustrator 23.1.1, SVG Export Plug-In . SVG Version: 6.00 Build 0)  -->
<svg version="1.1" id="Layer_1" xmlns="http://www.w3.org/2000/svg" xmlns:xlink="http://www.w3.org/1999/xlink" x="0px" y="0px"
	 viewBox="0 0 240.8 109" style="enable-background:new 0 0 240.8 109;" xml:space="preserve">
<style type="text/css">
	.st0{fill:#2C2C2C;}
	.st1{fill:#FFFFFF;}
</style>
<g>
	<g>
		<path class="st0" d="M238.9,54.6c-0.8-14.2-10.5-30-26-31.2c-4-0.3-157.3,0.4-170.7,3c-1.7,0.3-6.5,3.1-9.2,6.1
			c-3.7,4.3-8.3,10.8-9.6,17.9c-0.3,0.8-0.4,29.7-0.3,30.5c-0.6,8.8,4.7,18.1,24.2,24.4c14.2,4.6,170.9,0.2,174.4,0
			c10.7-0.6,16-8.1,17.1-17.3C239.4,82.1,239.2,60.1,238.9,54.6z"/>
		<g>
			<path class="st0" d="M240.4,54.6c-0.9-12.5-7.5-25.6-19.5-30.7c-4.9-2.1-9.8-2-14.9-2c-17.2,0-34.4,0.1-51.6,0.2
				c-22.8,0.2-45.6,0.4-68.3,0.9c-14.1,0.3-28.8-0.4-42.8,1.7C32.7,26.3,23.4,40.2,22,50.1c-1.2,8.5-0.4,17.6-0.4,26.2
				c0,8.3,0.7,15.2,7.3,21.1c6.3,5.6,14.9,9.3,23.3,10.2c16.5,1.8,33.4,1.3,50,1.3c22.6,0,45.3-0.4,67.9-0.8
				c15.8-0.3,31.6-0.7,47.3-1.1c5.8-0.2,11.6-0.6,16.2-4.8c8.6-7.7,7.1-21.2,7-31.6C240.6,65.2,240.6,59.9,240.4,54.6
				c-0.1-1.9-3.1-1.9-3,0c0.5,10.4,0.8,21.1,0,31.5c-0.7,10.4-6.8,17.3-17.3,17.8c-12.3,0.6-24.6,0.7-36.9,0.9
				c-39.3,0.9-78.9,2-118.2,0.6c-5.1-0.2-10.4-0.2-15.4-1.1C40,102.5,27,95.9,24.9,85.4c-1.5-7.4-0.3-16.2-0.2-23.7
				c0-3.5-0.2-7.2,0.2-10.7c0.8-6.9,6.4-15.7,12.3-20.1c4.8-3.6,9.4-3.5,15.1-3.8c7.4-0.4,14.8-0.6,22.1-0.8
				c20.5-0.5,40.9-0.8,61.4-1c19-0.2,38-0.3,57-0.4c13.2,0,27.3-2.3,36.8,9.3c4.7,5.8,7.3,13.1,7.9,20.4
				C237.5,56.5,240.5,56.5,240.4,54.6z"/>
		</g>
	</g>
	<g id="XMLID_4307_">
		<g id="XMLID_4310_">
			<path class="st1" d="M191.2,1.8c-4-0.3-157.3,0.4-170.7,3c-1.7,0.3-6.5,3.1-9.2,6.1C7.6,15.2,3,21.7,1.7,28.8
				c-0.3,0.8-0.4,29.7-0.3,30.5c-0.6,8.8,4.7,18.1,24.2,24.4c14.2,4.6,170.9,0.2,174.4,0c10.7-0.6,16-8.1,17.1-17.3
				c0.7-5.9,0.4-27.9,0.1-33.4C216.5,18.8,206.8,3,191.2,1.8z"/>
			<g>
				<path class="st0" d="M191.2,0.3c-11.2-0.7-22.7,0-33.9,0C135.2,0.5,113.1,0.7,91,1C71.6,1.3,52.3,1.5,32.9,2.4
					c-4.3,0.2-9.3-0.1-13.4,1.2C9.2,6.8,0.5,20.9,0.2,31.2C-0.1,40.3,0,49.4,0,58.5c0,10.1,5,17,13.8,21.8
					c13.2,7.4,27.9,6.6,42.5,6.8c41.9,0.7,83.9-0.3,125.8-1.4c11.9-0.3,28,1.9,34.3-10.9c2.3-4.6,2.5-9.7,2.6-14.8
					c0.2-6.4,0.1-12.8,0-19.2c-0.2-12.1-2.1-23.9-11.2-32.7C203.2,3.6,197.6,1,191.2,0.3c-1.9-0.2-1.9,2.8,0,3
					c15.6,1.6,24,17.2,24.6,31.5c0.4,10.4,1.1,21.4-0.2,31.8c-1.3,10-8.2,15.4-17.9,15.7c-4.8,0.1-9.6,0.3-14.4,0.4
					c-39.2,1-78.3,1.8-117.5,1.5c-8.1-0.1-16.1-0.2-24.2-0.5c-4.8-0.2-9.9-0.1-14.6-1.2C16.6,80.1,3.3,72.9,2.8,60.9
					c-0.3-7.7,0-15.5,0.1-23.2c0-3.3-0.2-7.2,0.6-10.1c2-7.8,7.8-16.7,15.2-20.4c3.9-2,9.2-1.6,13.5-1.8c17.5-0.8,35-1.1,52.5-1.3
					C119.3,3.6,154,3,188.6,3.3c0.9,0,1.7,0,2.6,0C193.2,3.4,193.2,0.4,191.2,0.3z"/>
			</g>
		</g>
		<g id="XMLID_4309_">
			<path class="st1" d="M204.7,62.6c0,0,2.3,4.8-1.4,7"/>
			<g>
				<path class="st0" d="M203.4,63.3c-0.1-0.3,0,0.1,0.1,0.4c0.1,0.4,0.3,0.9,0.3,1.3c0.2,1.3-0.2,2.4-1.3,3.2
					c-1.6,1-0.1,3.6,1.5,2.6c3.2-2,3.4-5.8,1.9-9C205.2,60.1,202.6,61.6,203.4,63.3L203.4,63.3z"/>
			</g>
		</g>
		<g id="XMLID_4308_">
			<path class="st1" d="M25,16.3c0,0-5.9,2.8-7.7,5.6"/>
			<g>
				<path class="st0" d="M24.2,15c-3,1.4-6.3,3.4-8.2,6.2c-1.1,1.6,1.5,3.1,2.6,1.5c1.6-2.3,4.7-3.9,7.1-5.1
					C27.5,16.7,26,14.1,24.2,15L24.2,15z"/>
			</g>
		</g>
	</g>
</g>
<g>
	<g>
		<path class="st1" d="M59.4,50.6c0-0.4-0.1-0.8-0.1-1.2c0-1.2,0-2.5-0.1-3.7c-0.1-3.1-0.5-6.1-0.8-9.2c-0.1-0.6-0.1-1.2-0.2-1.9
			c0-1.7-0.1-3.4-0.3-5.2c0-0.2,0-0.3,0-0.5c0.1-1.9,0.4-3.7,0.3-5.6c0-0.9-0.2-1.8-0.5-2.7c-0.3-0.9-0.8-1.7-1.4-2.3
			c-0.3-0.3-0.7-0.6-1.1-0.8c-0.4-0.3-0.9-0.5-1.4-0.7c-0.9-0.4-1.9-0.6-2.9-0.6c-0.1,0-0.2,0-0.2,0c-0.3,0-0.6,0-0.9,0.1l0,0
			c-0.2-0.1-0.5-0.1-0.7-0.1l0,0c-0.2,0-0.5,0-0.7,0.1c-0.1,0-0.3,0.1-0.4,0.1c-0.2,0-0.3,0.1-0.5,0.2c-0.3,0.1-0.6,0.2-0.9,0.4
			c-0.4,0.2-0.7,0.4-1,0.6c-0.5,0.3-0.9,0.7-1.3,1.1s-0.7,0.8-1,1.2c-0.3,0.4-0.5,0.9-0.7,1.3c-0.1,0.3-0.2,0.6-0.3,1
			c-0.1,0.5-0.1,1-0.2,1.5c-0.1,0.9-0.1,1.9,0,2.8c0.1,0.8,0.2,1.6,0.3,2.3c-0.1,1.1-0.2,2.2-0.3,3.4c0,0.6-0.1,1.3-0.1,1.9
			c-0.1,0.9-0.1,1.9-0.1,2.8c0,0.1,0,0.3-0.1,0.4c-0.3,1.9-0.5,3.8-0.5,5.7c-0.1,3.7,0.1,7.4,0.7,11.1c0,0.2,0.1,0.3,0.2,0.4
			c0,0,0,0,0,0.1c-0.2,0.7-0.1,1.5,0,2.2c0.1,0.9,0.5,1.8,0.9,2.6c0.5,0.9,1.1,1.7,1.7,2.5c0.3,0.4,0.7,0.7,1,1.1
			c0.4,0.4,0.9,0.7,1.3,1c0.7,0.5,1.6,0.8,2.5,1c0.7,0.2,1.5,0.2,2.2,0.1c0.4,0,0.7-0.1,1.1-0.2s0.7-0.2,1.1-0.4
			c0.6-0.3,1.1-0.6,1.6-1.1c0.5-0.4,0.9-1,1.3-1.5c0.3-0.5,0.6-1.1,0.9-1.6c0.3-0.7,0.5-1.3,0.7-2c0.4-1.3,0.6-2.7,0.7-4.1
			C59.4,53.1,59.5,51.9,59.4,50.6z"/>
		<g>
			<path class="st0" d="M60.9,50.6c-0.8-7.5-1.9-15.9-1.3-23.4c0.4-5.5-0.4-10.8-6.7-12.2c-2.8-0.6-5.6-0.3-8,1.3
				c-5.4,3.7-3.9,9.5-4.1,15.1c-0.3,7.4-1.6,14.9-0.2,22.3c0.4,2.2,0.2,0.2,0.3,1c0.1,1.1-0.1,2.2,0.2,3.3c0.7,2.6,2.4,5.1,4.5,6.7
				c3.2,2.5,7.6,2.9,10.8,0.3C60.5,61.7,61,55.4,60.9,50.6c-0.1-1.9-3.1-1.9-3,0c0.1,3.7,0,9.3-3.2,12c-3.2,2.7-7.3,0.5-9.3-2.5
				c-1.2-1.8-1.1-3.6-1.4-5.5c-1.4-8.5-0.2-16.4,0-24.9c0.1-4.2-1.2-10.4,4.5-11.9c3.8-1,7.9,1.6,8.3,5.6c0.2,2-0.4,4.1-0.4,6.1
				c0,2.3,0.3,4.7,0.5,7c0.4,4.7,0.5,9.4,1,14C58.1,52.5,61.1,52.5,60.9,50.6z"/>
		</g>
	</g>
	<g>
		<g>
			<path class="st1" d="M115.8,57.2c0-0.1,0-0.2-0.1-0.3c-0.1-1.1-0.5-2-1.1-2.7l0,0c-0.1-0.3-0.3-0.6-0.5-0.9
				c0.3-1.4,0.3-2.8,0.2-4.2c0-0.4-0.1-0.8-0.2-1.3c0-0.4,0-0.8-0.1-1.1c-0.1-1.2-0.4-2.4-0.8-3.5c-0.2-0.6-0.5-1.2-0.9-1.8
				s-0.8-1.2-1.3-1.7c-0.8-1-1.9-1.9-3-2.7s-2.3-1.3-3.5-1.7c-0.5-0.2-1.1-0.3-1.7-0.3c-0.8-0.1-1.5-0.2-2.3-0.2h-0.1
				c-1.3,0-2.7,0.2-4,0.4c-2.3,0.3-4.5,1.1-6.4,2.5c-0.3,0.2-0.7,0.5-1,0.8c-0.1,0.1-0.2,0.2-0.4,0.3c-0.4,0.4-0.8,0.8-1.2,1.2
				c-0.4,0.5-0.9,1.1-1.2,1.7c-0.6,1-1.1,2.1-1.6,3.2c-0.6,1.4-0.8,3-1,4.5c-0.1,1.4,0,2.9,0.3,4.3c0.3,1.4,0.8,2.7,1.5,3.9
				c0.3,0.5,0.6,1.1,1,1.6c0.5,0.6,0.9,1.2,1.5,1.8c0.5,0.5,1.1,1,1.7,1.4c0.5,0.4,1.1,0.8,1.7,1.1c0.6,0.4,1.3,0.7,2,0.9
				c0.6,0.3,1.3,0.4,2,0.6c3.2,0.7,6.6,0.2,9.6-1.1c0.7,0.4,1.4,0.7,2.3,0.8l0,0c0.1,0,0.1,0.1,0.2,0.1c0.4,0.2,0.9,0.3,1.4,0.4
				s1,0.1,1.5,0s1-0.2,1.5-0.5c0.3-0.2,0.6-0.3,0.9-0.6c0.1-0.1,0.2-0.1,0.3-0.2l0,0c0.2-0.1,0.3-0.3,0.5-0.4
				c0.2-0.1,0.3-0.3,0.3-0.5c0.2-0.3,0.5-0.7,0.7-1c0.5-0.8,0.7-1.6,0.9-2.5C115.9,58.7,115.9,57.9,115.8,57.2z"/>
			<g>
				<path class="st0" d="M117.2,56.8c-0.3-1.9-1.2-3.2-1.4-4.9c-0.4-3.1,0-6.1-1.1-9.1c-1.6-4.1-5.4-7.7-9.7-8.9
					c-10.5-3-21.3,3.9-22.5,14.7c-1.2,10.5,7.8,19.5,18.3,18.1c1.5-0.2,3.1-1,4.7-0.9c0.4,0,2.8,0.7,1.4,0.4c2.2,0.6,3.7,1.1,5.9,0
					c3.2-1.6,4.7-5.5,4.6-8.9c-0.1-1.9-3.1-1.9-3,0c0.2,4.5-2.2,7.2-6.9,6c-1-0.3-1.5-0.7-2.5-0.8c-1.8-0.1-4.2,1.3-6.2,1.4
					c-10.4,0.1-16.2-11-12-19.9c3.8-8,15.8-10.5,22.3-4.2c2.9,2.8,3.7,6.7,3.7,10.7c0,1.7-0.3,2.2,0,3.6c0.3,1.2,1.3,2.2,1.5,3.6
					C114.7,59.5,117.6,58.7,117.2,56.8z"/>
			</g>
		</g>
		<g>
			<path class="st1" d="M97.9,53.9c0.2,0,0.3-0.1,0.5-0.2c0.2,0,0.4,0,0.6-0.1h0.1c0.1,0,0.2,0,0.2,0c0.2,0,0.4,0,0.6,0
				c0.1,0,0.1,0,0.2,0l0,0c0.1,0,0.3,0,0.4,0s0.2-0.1,0.3-0.1c0.1,0,0.1-0.1,0.2-0.1c0,0,0,0,0.1-0.1c0.1,0,0.1,0,0.2,0
				s0.2-0.1,0.3-0.1c0.1-0.1,0.2-0.2,0.4-0.3c0.1-0.1,0.1-0.2,0.2-0.2c0.1-0.1,0.2-0.3,0.3-0.5c0.1-0.2,0.2-0.4,0.2-0.6
				c0.1-0.2,0.1-0.4,0.2-0.5c0-0.2,0.1-0.4,0.1-0.6c0-0.2,0-0.4,0-0.6c0-0.2-0.1-0.4-0.1-0.6c-0.1-0.2-0.1-0.4-0.2-0.6
				c-0.1-0.1-0.1-0.2-0.2-0.3c0-0.1-0.1-0.2-0.2-0.3s-0.1-0.1-0.2-0.2c-0.1-0.2-0.2-0.5-0.3-0.7c-0.2-0.3-0.4-0.6-0.7-0.8
				c-0.1-0.1-0.2-0.1-0.3-0.1c-0.1,0-0.2,0-0.3-0.1c-0.1,0-0.2,0-0.3,0c-0.1,0-0.2,0-0.3,0.1c-0.1-0.2-0.2-0.4-0.4-0.6
				c-0.4-0.3-0.9-0.4-1.3,0c-0.1,0.1-0.2,0.1-0.2,0.2c-0.1,0.1-0.2,0.2-0.2,0.4l0,0c-0.1,0-0.2,0.1-0.2,0.1h-0.1c-0.1,0-0.2,0-0.3,0
				c-0.1,0-0.2,0.1-0.3,0.1c-0.1,0.1-0.3,0.2-0.4,0.3l0,0l0,0c-0.1,0.1-0.3,0.1-0.4,0.2c-0.1,0.1-0.2,0.2-0.3,0.3
				c-0.1,0.1-0.2,0.2-0.3,0.4c-0.1,0.2-0.2,0.4-0.3,0.6c0,0.1,0,0.2-0.1,0.2l0,0v0.1l0,0c0,0.1-0.1,0.3-0.1,0.4
				c0,0.2-0.1,0.4-0.1,0.7l0,0l0,0c0,0.4,0,0.7,0,1.1c0,0.3,0.1,0.7,0.2,1c0.1,0.2,0.2,0.4,0.3,0.6c0.1,0.1,0.1,0.2,0.2,0.4
				s0.2,0.3,0.4,0.4c0.1,0.1,0.3,0.3,0.5,0.4c0.2,0.2,0.5,0.2,0.8,0.3c0.1,0,0.2,0,0.3,0C97.6,54,97.8,54,97.9,53.9L97.9,53.9
				L97.9,53.9z"/>
			<g>
				<path class="st0" d="M98.3,55.4c0.7-0.2,0.3-0.1,1-0.2c0.3,0,0.7,0,1-0.1c-0.7-0.1-0.8-0.1-0.4,0c0.9-0.1,1.5-0.1,2.2-0.8
					c-0.4,0.1-0.7,0.3-1.1,0.4c2.8-0.2,3.9-3.8,3.1-6.1c-0.7-2-2.3-4.4-4.7-3.8c0.6,0.2,1.1,0.5,1.7,0.7c-1.1-2-3.7-2-4.8,0
					c0.3-0.2,0.6-0.5,0.9-0.7c0.5,0.1,0.6,0.1,0.2,0.1c-0.2,0-0.3,0-0.5,0c-0.4,0-0.7,0.1-1,0.3c-0.2,0.1-1.2,0.9-0.4,0.3
					c-0.3,0.2-0.6,0.4-0.9,0.6c-0.8,0.7-1.1,1.9-1.3,2.9c-0.5,2.9,1,6.6,4.5,6.4c1.9-0.2,1.9-3.2,0-3c-1.7,0.1-1.9-2.3-1.4-3.5
					c0.1-0.3,0.5-0.5,0.6-0.8c0.1-0.1,0.2-0.2,0.3-0.3c-0.4-0.1-0.5-0.1-0.1,0c0.4-0.1,0.8,0,1.2-0.3c0.9-0.6,0.3-0.3,0.2-0.6
					c0.3,0.6,1.1,0.8,1.7,0.7c0,0,0.9,1.5,1,1.7c0.2,0.6,0.2,1.2,0,1.8c0,0.1-0.5,0.9-0.2,0.6c-0.2,0.2-0.8,0.3-1.1,0.4
					c0.2,0,0.3,0,0.5,0c-0.3-0.1-0.5-0.1-0.8,0c-0.6,0-1.4,0.1-2.2,0.3C95.7,53.1,96.5,56,98.3,55.4z"/>
			</g>
		</g>
	</g>
	<g>
		<path class="st1" d="M84.6,58.2c-0.1-0.4-0.2-0.8-0.3-1.2c0-0.1,0-0.2,0-0.3c-0.1-0.3-0.2-0.7-0.3-1c0-0.1-0.1-0.2-0.1-0.3
			s0-0.2,0-0.3c-0.1-0.5-0.3-0.9-0.6-1.4c-0.1-0.2-0.2-0.3-0.4-0.5c-0.3-0.6-0.8-1.1-1.5-1.3c-0.2-0.1-0.4-0.1-0.6-0.1s-0.5,0-0.7,0
			c-0.1,0-0.2,0-0.3,0c-0.2,0-0.4,0-0.6,0c-0.4,0-0.9,0-1.3,0.1c-0.5,0.1-0.9,0.2-1.4,0.3c-0.5,0.2-1.1,0.4-1.6,0.7
			c-0.2,0.1-0.4,0.3-0.6,0.4c-0.1,0.1-0.2,0.2-0.4,0.3c-0.2,0.1-0.4,0.2-0.6,0.2c-0.3,0.1-0.6,0.1-0.9,0.2c-0.2,0-0.4,0-0.6-0.1
			c-0.2,0-0.3-0.1-0.4-0.2c-0.2-0.1-0.3-0.2-0.4-0.3c-0.2-0.2-0.3-0.4-0.5-0.6c-0.2-0.4-0.4-0.9-0.6-1.3c-0.1-0.3-0.2-0.7-0.2-1.1
			v-0.1c0.2,0,0.3,0,0.5,0.1c0.3,0.1,0.7,0.2,1,0.3c0.6,0.1,1.2,0.1,1.8,0.1h0.1c0.1,0,0.2,0.1,0.2,0.1c0.9,0.3,2.1,0.4,3,0
			c0.2-0.1,0.3-0.2,0.5-0.2c0.2-0.1,0.4-0.3,0.5-0.4l0,0c0.2,0,0.3-0.1,0.5-0.1c0.1,0,0.2,0,0.3,0c0.2,0,0.5,0,0.7,0
			s0.4-0.1,0.6-0.1c0.3-0.1,0.6-0.2,0.8-0.3l0,0l0,0c0.3-0.1,0.6-0.1,0.9-0.3c0.2-0.1,0.4-0.2,0.6-0.3s0.4-0.3,0.6-0.4
			c0.2-0.2,0.4-0.4,0.6-0.7C83,48,83,47.9,83,47.8l0,0v-0.1l0,0c0.1-0.1,0.2-0.3,0.2-0.4c0.1-0.2,0.1-0.5,0.1-0.7l0,0l0,0
			c0-0.4,0-0.7-0.1-1.1c-0.1-0.4-0.3-0.7-0.5-1c-0.2-0.2-0.4-0.4-0.6-0.6c-0.1-0.1-0.3-0.2-0.5-0.4s-0.5-0.3-0.8-0.4
			c-0.3-0.1-0.7-0.3-1-0.4c-0.5-0.2-1.1-0.2-1.7-0.3c-0.2,0-0.5,0-0.7,0c-0.4,0-0.8,0-1.2,0.1c-0.4,0-0.8,0.1-1.1,0.2
			c-0.4,0-0.9,0-1.3,0.1c-0.1,0-0.1,0-0.2,0c-0.2,0-0.4,0-0.6,0c-0.5,0-0.9,0-1.4,0c-0.1,0-0.1,0-0.2,0c0.5-0.4,1-0.7,1.5-1.1
			c0.7-0.4,1.3-0.7,2.1-0.9c0.2-0.1,0.4-0.1,0.7-0.1c0.5-0.1,1-0.1,1.6-0.1s1.1,0,1.7-0.1c0.7,0,1.4-0.2,2-0.4s1.2-0.5,1.7-0.8
			c0.3-0.2,0.5-0.5,0.8-0.8s0.5-0.7,0.6-1.1c0.2-0.3,0.2-0.7,0.3-1.1c0-0.2,0.1-0.4,0.1-0.6c0-0.3,0-0.6-0.1-0.9
			c-0.1-0.4-0.2-0.7-0.3-1c-0.1-0.5-0.4-0.9-0.6-1.3c-0.3-0.6-0.7-1.1-1-1.6l0,0l0,0c-0.1-0.2-0.2-0.3-0.3-0.5
			c-0.1-0.2-0.3-0.3-0.5-0.5c-0.1-0.1-0.2-0.2-0.3-0.2c-0.1,0-0.1-0.1-0.2-0.1c-0.3-0.2-0.6-0.5-0.9-0.7c-0.4-0.2-0.8-0.4-1.3-0.6
			S78,28,77.6,28c-0.9-0.1-1.9,0-2.8,0.1c-1,0.2-2,0.5-2.9,0.8c-0.9,0.4-1.8,0.8-2.7,1.3c-0.3,0.2-0.6,0.4-0.9,0.5
			c-0.1,0-0.1,0-0.2,0c-0.2,0-0.5,0-0.7,0c-0.1,0-0.3,0-0.4,0.1c-0.1,0-0.2,0-0.2,0.1c-0.4,0-0.7,0.1-1.1,0.2s-0.9,0.3-1.3,0.5
			s-0.9,0.5-1.2,0.8c-0.7,0.6-1.3,1.3-1.9,2c-0.6,0.8-1,1.7-1.4,2.6c-0.4,0.9-0.7,1.8-1,2.8c-0.4,1.4-0.7,2.9-0.9,4.3
			c-0.2,0.7-0.3,1.3-0.3,2c-0.1,0.8-0.1,1.6-0.1,2.4c0.1,1.4,0.4,2.8,0.8,4.1c0.3,0.9,0.6,1.8,1.1,2.6c0.3,0.6,0.7,1.3,1.1,1.8
			c0,0.1,0,0.1,0.1,0.2c0,0.1,0.1,0.1,0.1,0.2l0,0l0,0c0.3,0.4,0.5,0.8,0.8,1.2l0.1,0.1c0.3,0.3,0.6,0.7,0.9,1c0,0,0,0.1,0.1,0.1
			c0.1,0.2,0.3,0.5,0.5,0.7l0,0c0.2,0.2,0.4,0.5,0.7,0.7c0.4,0.3,0.8,0.6,1.3,0.8c0.2,0.1,0.4,0.2,0.6,0.3l0,0
			c0.3,0.2,0.7,0.4,1,0.5c0.2,0.1,0.3,0.2,0.5,0.3c0.8,0.4,1.7,0.8,2.6,1.1c0.7,0.2,1.4,0.4,2.1,0.5l0.1,0.1c0.1,0,0.1,0,0.2,0.1
			l0,0l0,0c0.5,0.1,1,0.2,1.5,0.3h0.1c0.4,0,0.9,0.1,1.3,0.1h0.1c0.3,0.1,0.5,0.1,0.8,0.2l0,0c0.3,0,0.6,0,0.9,0
			c0.5,0,1-0.2,1.5-0.3c0.2-0.1,0.4-0.2,0.6-0.3l0,0c1.2-0.3,2.3-0.8,3.3-1.5c0.2-0.2,0.5-0.4,0.7-0.6c0.2-0.2,0.3-0.4,0.5-0.6
			c0.2-0.3,0.3-0.6,0.4-0.9c0.1-0.3,0.2-0.6,0.3-1c0-0.3,0.1-0.5,0.1-0.8C84.7,58.9,84.7,58.6,84.6,58.2z"/>
		<g>
			<path class="st0" d="M86,57.8c-0.7-2.6-1.2-6.3-4.6-7.3c-1.4-0.4-3.3-0.2-4.7,0.2c-2.1,0.5-4.9,3.9-5.6-0.6
				c-0.6,0.6-1.2,1.2-1.8,1.8c2.6,0.4,3.1,0.8,5.5,0.8c0.8,0,1.5-0.3,2.2-0.5c0.2,0,2.1-0.9,1.1-0.5c2.7-0.9,4.7-0.4,6.3-3.4
				c0.7-1.2,0.7-3.9-1.1-5.6c-3-2.8-8.1-1.9-11.7-1.5c0.3,0.9,0.5,1.9,0.8,2.8c4.3-3.1,16.3-1.3,13.3-10.6c-1.6-5-6.6-8.2-12.6-6.4
				c-2.6,0.8-4,2-6.4,2.4c-3.9,0.6-6.4,3.5-7.9,7c-3.2,7.4-3.1,14.9,1,21.8c0.4-0.8,0.9-1.5,1.3-2.3l0,0c-1.1,0-1.9,1.3-1.3,2.3
				c2.9,4.7,7.1,6.8,12.4,8.1c-0.4-0.5-0.7-1-1.1-1.4l0,0c0,0.6,0.5,1.3,1.1,1.4c5.8,1.3,14.5-0.3,13.9-7.9c-0.2-1.9-3.2-1.9-3,0
				c0.4,5.5-6.2,5.9-10.1,5c0.4,0.5,0.7,1,1.1,1.4l0,0c0-0.6-0.5-1.3-1.1-1.4c-4.4-1.1-8.2-2.7-10.6-6.7c-0.4,0.8-0.9,1.5-1.3,2.3
				l0,0c1.1,0,1.9-1.3,1.3-2.3c-2.8-4.7-3.3-9-2.3-14.3c0.7-3.6,2.3-8.7,6.3-9.8c1-0.3,1.9-0.1,2.9-0.4c4.2-1.4,9.5-4.7,12.6,0.4
				c1.3,2.2,2.1,4.7-1.1,6.3c-1.4,0.7-3.4,0.2-4.9,0.4c-2,0.3-3.4,1.2-5,2.3c-1.1,0.8-0.9,3,0.8,2.8c2.2-0.2,5.9-0.9,7.9-0.2
				c2.7,1,3.1,2.7,0.9,4c-2.9,1.7-7.2,1.4-10.4,1c-1.2-0.2-2,0.6-1.8,1.8c0.4,2.9,2.4,5.5,5.5,4.6c2-0.6,3.9-2.9,6.3-2.1
				c2.4,0.8,2.5,3.1,3.1,5.2C83.7,60.5,86.5,59.7,86,57.8z"/>
		</g>
	</g>
	<g>
		<path class="st1" d="M181.5,53.5c-0.1-1.1-0.2-2.3-0.4-3.4c-0.3-1.6-0.9-3.2-1.7-4.7c-0.1-0.2-0.2-0.3-0.3-0.5
			c-0.1-0.3-0.2-0.6-0.3-1c-0.6-1.8-1.6-3.4-2.8-4.8c-0.5-0.7-1.1-1.3-1.7-1.9c-0.7-0.7-1.5-1.3-2.3-1.9c-1.4-1.1-3.1-1.8-4.7-2.5
			c-0.8-0.3-1.7-0.6-2.5-0.8c-0.3-0.1-0.6-0.1-0.9-0.2c-0.9-0.2-1.8-0.3-2.7-0.3c-0.1,0-0.1-0.1-0.2-0.1s-0.2,0-0.3,0l0,0l0,0
			c-0.6-0.1-1.3-0.1-1.9-0.1c-0.1,0-0.1,0-0.2,0c-0.5,0-1.1,0-1.6,0.1h-0.1c-0.4,0-0.7-0.1-1.1-0.1l0,0c-0.4,0-0.8,0.1-1.2,0.1
			c-0.6,0.1-1.2,0.4-1.8,0.6c-0.3,0.1-0.5,0.3-0.8,0.4l0,0c-1,0.4-1.9,0.9-2.8,1.5c-0.3-0.3-0.6-0.7-0.9-1c-0.6-0.5-1.2-1-1.9-1.2
			c-0.4-0.2-0.8-0.2-1.2-0.2c-0.3,0-0.6,0-0.9,0.1c-1.8,0.3-3.6,1.3-4.8,2.9c-0.3,0.4-0.5,0.8-0.7,1.2c-0.2,0.5-0.4,0.9-0.6,1.4
			c-0.3,0.9-0.5,1.9-0.6,2.9c0,0.1,0,0.1,0,0.2c-0.1,0.4-0.2,0.7-0.3,1.1c-0.2,0.9-0.4,1.8-0.6,2.8c0,0.3-0.1,0.5-0.1,0.8
			c0,3.2,0.3,6.4,0.8,9.6c0,0.2,0.1,0.3,0.2,0.4c0,0,0,0,0,0.1c-0.2,0.7-0.1,1.5,0,2.2c0.1,0.9,0.5,1.8,0.9,2.6
			c0.5,0.9,1.1,1.7,1.7,2.5c0.3,0.4,0.7,0.7,1,1.1c0.4,0.4,0.9,0.7,1.3,1c0.7,0.5,1.6,0.8,2.5,1c0.7,0.2,1.5,0.2,2.2,0.1
			c0.4,0,0.7-0.1,1.1-0.2s0.7-0.2,1.1-0.4c0.6-0.3,1.1-0.6,1.6-1.1c0.5-0.4,0.9-1,1.3-1.5c0.3-0.5,0.6-1.1,0.9-1.6
			c0.3-0.7,0.5-1.3,0.7-2c0.4-1.3,0.6-2.7,0.7-4.1c0.1-1.3,0.2-2.5,0.1-3.8c0-0.4-0.1-0.8-0.1-1.2s0-0.8,0-1.1
			c0.5-0.1,1-0.1,1.5-0.3c0.6-0.2,1.1-0.4,1.7-0.6c0.9-0.4,1.8-1,2.6-1.8c0.1-0.1,0.3-0.3,0.4-0.4c0.2-0.1,0.4-0.2,0.7-0.3
			c0.4-0.1,0.7-0.2,1.1-0.3c0.2,0,0.5,0,0.7,0s0.4,0.1,0.6,0.2c0.1,0.1,0.3,0.1,0.4,0.2c0.1,0,0.1,0.1,0.2,0.1
			c0.3,0.2,0.5,0.5,0.7,0.7c0.4,0.5,0.7,1,0.9,1.6c0.4,1.1,0.7,2.3,0.9,3.5c0.2,1.5,0.2,3.1,0,4.6c-0.1,0.8-0.3,1.7-0.6,2.5
			c0,0.1-0.1,0.2-0.1,0.3c-0.1,0.3,0,1.6,0.1,1.8c0.4,0.7,0.9,1.3,1.4,1.9c0.3,0.4,0.7,0.7,1,1.1c0.4,0.4,0.9,0.7,1.3,1
			c0.7,0.5,1.6,0.8,2.5,1c0.7,0.2,1.5,0.2,2.2,0.1c0.4,0,0.7-0.1,1.1-0.2c0.4-0.1,0.7-0.2,1.1-0.4c0.6-0.3,1.1-0.6,1.6-1.1
			c0.5-0.4,0.9-1,1.3-1.5c0.3-0.5,0.6-1.1,0.9-1.6c0.3-0.7,0.5-1.3,0.7-2c0.1-0.4,0.2-0.8,0.3-1.3C181.6,56,181.6,54.8,181.5,53.5z"
			/>
		<g>
			<path class="st0" d="M183,53.5c-1.3-13.1-9.3-22-22.3-23.7c0.5,0.5,1,1,1.5,1.5l0,0c0-0.9-0.7-1.4-1.5-1.5
				c-4.7-0.5-8.2,0.2-12.3,2.7c0.6,0.1,1.2,0.2,1.8,0.2c-4.5-5-11.5-2.3-13.5,3.8c-1.2,3.7-1.8,8-1.5,11.9c0.1,2.1,0.5,4.2,0.8,6.3
				c-0.2-1.3,0,1.6,0.1,2.3c0.8,6,7.7,11.8,13.8,9c6.6-3,6-11.9,6-17.8c-0.4,0.5-0.7,1-1.1,1.4c1.5-0.3,2.9-0.7,4.2-1.4
				c1.1-0.6,1.9-1.8,3.2-1.9c4.6-0.3,2.8,8.3,2.5,11.1c-0.4,3.3,1.3,5.9,4.3,7.7C177.8,70.9,183.2,61.1,183,53.5
				c-0.1-1.9-3.1-1.9-3,0c0.1,2.6,0,5.7-1.7,7.9c-2.6,3.3-7.1,2.8-9.7-0.4c-1.8-2.2-0.7-3.1-0.4-5.5c0.3-2.5,0.1-5.2-0.7-7.7
				c-0.7-1.9-1.7-4.1-3.8-4.7c-3.4-1-6.8,3.2-9.7,3.7c-0.6,0.1-1.1,0.8-1.1,1.4c0,4.1,0.5,8.5-1.6,12.3c-4.1,7.3-11.4,0.4-12.3-5.2
				c-0.6-3.7-1.3-8.1-0.7-11.9c0.2-1.4,0.6-2.8,0.8-4.1c0.4-1.8,0.6-2.2,1.8-3.8c0.7-1.9,1.9-2.4,3.8-1.7c1.5-0.5,2.6-0.2,3.3,1
				c0.4,0.5,1.3,0.6,1.8,0.2c3.6-2.2,6.6-2.7,10.8-2.3c-0.5-0.5-1-1-1.5-1.5l0,0c0,0.9,0.7,1.4,1.5,1.5c11.2,1.5,18.2,9.5,19.3,20.7
				C180.2,55.4,183.2,55.4,183,53.5z"/>
		</g>
	</g>
	<g>
		<path class="st1" d="M143.8,40.1c0-0.4-0.1-0.9-0.2-1.3c-0.1-0.6-0.3-1.2-0.5-1.7c-0.3-0.7-0.5-1.4-0.9-2l0,0l0,0
			c-0.1-0.2-0.2-0.4-0.3-0.6c-0.1-0.2-0.3-0.4-0.4-0.6c-0.1-0.1-0.2-0.2-0.3-0.3c-0.1-0.1-0.1-0.1-0.2-0.2c-0.2-0.3-0.5-0.6-0.8-0.9
			c-0.4-0.3-0.8-0.6-1.2-0.8c-0.4-0.2-0.9-0.4-1.4-0.5c-0.9-0.2-1.8-0.2-2.8-0.1s-2,0.4-3,0.8c-0.9,0.4-1.9,0.8-2.8,1.3
			c-1.7,1-3.4,2.2-4.9,3.6c-0.2,0-0.4-0.1-0.7-0.1c-0.3,0-0.6-0.1-1-0.1c-0.1,0-0.2,0-0.2,0c-0.3,0-0.6,0-0.9,0.1l0,0
			c-0.2-0.1-0.5-0.1-0.7-0.1l0,0c-0.2,0-0.5,0-0.7,0.1c-0.1,0-0.3,0.1-0.4,0.1c-0.2,0-0.3,0.1-0.5,0.2c-0.3,0.1-0.6,0.2-0.9,0.4
			c-0.4,0.2-0.7,0.4-1,0.6c-0.5,0.3-0.9,0.7-1.3,1.1c-0.4,0.4-0.7,0.8-1,1.2s-0.5,0.9-0.7,1.3c-0.1,0.3-0.2,0.6-0.3,1
			c-0.1,0.5-0.1,1-0.2,1.5c-0.1,0.9-0.1,1.9,0,2.8c0.1,0.8,0.2,1.6,0.3,2.3c-0.1,1.1-0.2,2.2-0.3,3.4c0,0.5,0,0.9-0.1,1.4
			c0,0.1,0,0.2,0,0.2c0,0.2,0.1,0.3,0.2,0.4c0,0,0,0,0,0.1c-0.2,0.7-0.1,1.5,0,2.2c0.1,0.9,0.5,1.8,0.9,2.6c0.5,0.9,1.1,1.7,1.7,2.5
			c0.3,0.4,0.7,0.7,1,1.1c0.4,0.4,0.9,0.7,1.3,1c0.7,0.5,1.6,0.8,2.5,1c0.7,0.2,1.5,0.2,2.2,0.1c0.4,0,0.7-0.1,1.1-0.2
			c0.1,0,0.2-0.1,0.2-0.1c0.3-0.1,0.6-0.2,0.8-0.3c0.6-0.3,1.1-0.6,1.6-1.1c0.5-0.4,0.9-1,1.3-1.5c0.3-0.5,0.6-1.1,0.9-1.6
			c0.3-0.6,0.5-1.2,0.7-1.9c-0.1-0.6-0.1-1.2-0.2-1.7c-0.1-0.6-0.1-1.2-0.2-1.9c0-0.5,0-1,0-1.5c0-1.2-0.1-2.5-0.3-3.7
			c0-0.2,0-0.3,0-0.5c0,0,0,0,0-0.1c0.7-0.7,1.4-1.3,2.2-1.8c0.7-0.4,1.4-0.7,2.1-1c0.2,0,0.5-0.1,0.7-0.1c0.5,0,1,0,1.6,0
			s1.1,0.1,1.7,0.1c0.7,0,1.4-0.1,2.1-0.3c0.6-0.2,1.2-0.5,1.7-0.9c0.3-0.2,0.6-0.6,0.8-0.9c0.3-0.4,0.5-0.8,0.7-1.3
			c0.2-0.4,0.3-0.8,0.4-1.3c0.1-0.2,0.1-0.5,0.1-0.7C143.8,40.9,143.9,40.5,143.8,40.1z"/>
		<g>
			<path class="st0" d="M145.3,40.1c-0.5-3.9-1.6-7.8-5.5-9.8c-2.6-1.4-5.6-0.9-8.3,0.1c-1.6,0.6-3,1.4-4.4,2.3
				c-0.8,0.5-2.4,2.3-3.2,2.5c-1,0.4-2.8-0.3-3.9-0.1c-2,0.3-3.8,1.4-5.1,2.8c-4,4.2-2.6,11.3-2.6,16.5c0,1.4,0.1-1,0.2,0.2
				c0.1,1.4-0.1,2.5,0.4,4c0.8,2.6,2.9,5.4,5.3,6.8c3.7,2.3,8.4,1.6,11.1-1.7c1.7-2.1,2.3-4.2,2.2-6.8c-0.1-1.3-1.2-6-0.5-7
				c0.9-1.5,3.4-1.7,5.1-1.9C141.4,47.6,145.2,46.3,145.3,40.1c0.1-1.9-2.9-1.9-3,0c-0.2,6.9-6.3,3.9-10.2,5.6c-2,0.9-3.6,2.1-4,4.2
				c-0.9,4.5,3,11.6-3.4,13.7c-5.8,1.9-8.8-5-9.1-9.4c-0.2-3.8-0.8-8.6,0.7-12.2c1.8-4.2,3.6-3.8,7-3.9c3.6-0.1,5.9-3.6,9.3-4.9
				c5.8-2.1,9,1.6,9.7,6.8C142.6,42,145.6,42,145.3,40.1z"/>
		</g>
	</g>
</g>
</svg>
