<?xml version="1.0" encoding="utf-8"?>
<!-- Generator: Adobe Illustrator 23.0.3, SVG Export Plug-In . SVG Version: 6.00 Build 0)  -->
<svg version="1.1" id="Layer_1" xmlns="http://www.w3.org/2000/svg" xmlns:xlink="http://www.w3.org/1999/xlink" x="0px" y="0px"
	 viewBox="0 0 422 422" style="enable-background:new 0 0 422 422;" xml:space="preserve">
<style type="text/css">
	.st0{opacity:0.1;enable-background:new    ;}
	.st1{fill:#FFFFFF;}
	.st2{fill:#2C2C2C;}
	.st3{opacity:0.1;}
	.st4{fill:none;}
</style>
<g>
	<g>
		<g>
			<g>
				<g>
					<g class="st0">
						<path class="st1" d="M129.5,262.5c0.6,9.3,2,18.8,3.6,26.1c1,10.2,2.9,17.2,5.4,15.8c3.4-1.8,4.3-5.9,4.6-7.8
							c0.1-0.5,0.1-0.9,0.1-0.9l0.3-6.9l-1.6-23.2c0,0-4.3-7.5-7.9-10.5C131.2,252.7,128.8,253.2,129.5,262.5z"/>
						<g>
							<path class="st2" d="M132.9,256.1c2.8,2.5,6.2,6.5,7.6,10.1c-0.4-1.2,0,0.6,0,1.2c0.1,1.5,0.2,3,0.3,4.5
								c0.3,5.6,1,11.4,1.1,17c0.1,2.5,0,5.1-0.4,7.6c-0.3,2.1-2.1,7.5-4.4,5.5c-1.5-1.4-1.7-6.6-2-8.4c-1.1-7.3-2.5-14.5-3.3-21.8
								c-0.4-3.6-0.8-7.3-0.9-11c0-1.8-0.3-6.6,2.4-4.5c1.5,1.2,3-1.4,1.5-2.6c-10.2-7.8-5.9,19.1-5.5,22.1c1,7.5,2,15.1,3.6,22.4
								c0.5,2.4,1.4,7.6,4.6,7.9c3.6,0.4,6-5,6.7-7.8s0.7-6,0.7-8.9c0.1-6.4-0.8-12.8-1.2-19.2c-0.2-1.8,0-3.9-0.7-5.6
								c-1.5-3.7-5.1-8-8-10.6C133.6,252.7,131.5,254.8,132.9,256.1z"/>
						</g>
					</g>
					<g>
						<path class="st1" d="M138.8,223.9c0,0-12.5-12.5-22.9-17.4c-8.2-3.8-15-3-13.2,12.5c1.8,15.3,5.7,30.9,10.4,43.1
							c2.9,16.8,8.4,28.4,15.7,26.1c9.8-3,12.6-9.8,13.4-12.9c0.3-1,0.3-1.6,0.3-1.6l0.9-11.4"/>
						<g>
							<path class="st2" d="M144.9,262.3c0.2-1.9-2.8-1.9-3.1,0.1c-0.7,9.1-0.3,17.8-9.5,22.8c-3.6,2-6.6,2.8-9.6-0.4
								c-2.5-2.8-4-6.6-5.1-10.1c-1.2-3.7-1.8-7.4-2.7-11.2c-1.1-4.3-2.8-8.4-4.1-12.7c-1.9-6.6-14.1-46.4-0.4-44.6
								c6.2,0.8,12.5,6,17.2,9.8c3.6,2.8,7,5.8,10.2,9c1.4,1.4,3.5-0.7,2.1-2.1c-3.8-3.7-7.9-7.2-12.1-10.5
								c-4.9-3.8-11.1-8.6-17.6-9.2c-13.1-1.3-8.8,18.2-7.6,25.4c1.5,9.4,3.7,18.7,6.8,27.8c2.6,7.6,3.7,15.8,6.9,23.3
								c1.8,4,4.6,9.3,9.4,10.1c4.9,0.9,10.7-3.1,13.8-6.6C144.7,277.3,144.3,269.6,144.9,262.3L144.9,262.3z"/>
						</g>
					</g>
					<g id="XMLID_39453_">
						<path class="st1" d="M107.9,217.2c1.9-10.1,18,8.5,18,8.5"/>
						<g>
							<path class="st2" d="M124.8,226.8c1.3,1.4,3.4-0.7,2.2-2.1c-3.1-3.7-17.9-19.3-20.5-7.9c-0.4,1.9,2.5,2.7,2.9,0.8
								c1-4.7,7.3,1.2,9.1,2.8C120.7,222.4,122.8,224.5,124.8,226.8L124.8,226.8z"/>
						</g>
					</g>
					<g id="XMLID_39452_">
						<path class="st1" d="M131.2,252.2c-1.7,12.9-9.6,6.5-14-4.4c-4.4-10.9,15.7-8.5,15.7-8.5"/>
						<g>
							<path class="st2" d="M132.9,240.8c1.9,0.2,1.9-2.8,0-3c-5.4-0.6-17.2-0.9-17.8,6.7c-0.2,2.9,1.5,5.8,2.8,8.2
								c1.4,2.6,3.3,5.5,5.9,7.1c5.5,3.4,8.2-2.6,8.9-7.2c0.3-1.9-2.6-2.7-2.9-0.8c-0.3,1.6-0.7,6.1-3.1,6c-1.8-0.1-3.6-2.6-4.5-3.9
								c-1.7-2.4-6.1-8.4-3.1-11.2C122.2,239.8,128.9,240.3,132.9,240.8L132.9,240.8z"/>
						</g>
					</g>
					<g id="XMLID_39451_" class="st3">
						<path class="st1" d="M131.2,252.2c-1.7,12.9-9.6,6.5-14-4.4c-4.4-10.9,15.7-8.5,15.7-8.5"/>
						<g>
							<path class="st2" d="M132.9,240.8c1.9,0.2,1.9-2.8,0-3c-5.4-0.6-17.2-0.9-17.8,6.7c-0.2,2.9,1.5,5.8,2.8,8.2
								c1.4,2.6,3.3,5.5,5.9,7.1c5.5,3.4,8.2-2.6,8.9-7.2c0.3-1.9-2.6-2.7-2.9-0.8c-0.3,1.6-0.7,6.1-3.1,6c-1.8-0.1-3.6-2.6-4.5-3.9
								c-1.7-2.4-6.1-8.4-3.1-11.2C122.2,239.8,128.9,240.3,132.9,240.8L132.9,240.8z"/>
						</g>
					</g>
				</g>
				<g>
					<path class="st1" d="M310.6,197.2c-0.4,4.8-1,9.2-1.9,13.3c-0.5,2.3-1.1,4.3-1.7,6.3c-0.6,2-1.3,4.1-2.4,6
						c-0.7,1.3-1.5,2.6-2.6,4.1c-0.7,1.4-1.6,2.8-2.9,4.5c-0.6,0.8-1.2,1.6-1.8,2.4c-0.3,0.4-0.7,0.9-1,1.3
						c-3.7,31.9-6.1,56-9.3,74.5c-2.3,13.6-30.7,57.9-56.6,63.4c-2.4,0.6-4.8,1-7.1,1.3c-20.6,2.9-37.7-1.4-51.1-9.5
						c-3.3-2-6.4-4.3-9.3-6.7c-6.3-5.3-22.3-29.5-24.2-34.7c-1.6-4.2-2.7-8.3-3.5-12.2C129,279.1,83,107,210.6,91.2
						c0,0,5.1,0.4,12.8,2.3c1.5,0.1,2.9,0.3,4.3,0.6c1.7,0.3,3.7,0.7,6,1.3c4.2,1,8,2.1,11.5,3.2c7.7,2.5,14.8,5.7,21.1,9.5
						c3.4,2.1,6.7,4.4,10,7c3.3,2.6,6.1,5.1,8.7,7.7l0.2,0.2c0.1,0.1,0.3,0.2,0.4,0.3c2.2,2.2,4.2,4.6,6.1,7
						c2.5,3.1,4.7,6.3,6.6,9.6c3.6,6.2,6.5,13,8.4,20c1,3.7,1.8,7.5,2.4,11.3c0.6,4.3,1.1,8.6,1.3,12.8
						C310.6,188.6,310.6,193.1,310.6,197.2z"/>
					<g>
						<path class="st2" d="M312,184.1c-0.6-10.1-2.1-20.1-5.4-29.7c-5.9-16.9-16.9-30.8-31-41.6c-14.9-11.4-32.5-17.2-50.8-20.5
							c-6.2-1.1-11.9-2.8-18.2-1.9c-6.2,0.9-12.3,2.3-18.3,4.2c-10.2,3.3-19.9,8.1-28.4,14.7c-32.5,25.1-40,69.2-39.4,107.9
							c0.5,31.9,6.7,62.8,13.1,93.9c2.5,12.6,8.3,22,15.5,32.4c7.8,11.2,15.8,19.9,28.4,25.9c15.5,7.4,32.9,8.7,49.6,5.8
							c13.4-2.3,24-10.6,33.2-20.3c9.2-9.7,17.3-21,23.4-33c5.1-10.2,6-21,7.5-32.2c1.1-8.6,2.1-17.1,3.1-25.7
							c0.6-4.9,1.1-9.8,1.7-14.7c0.6-5.3,0.4-11.2,3.3-15.8c2.2-3.5,4.8-6.8,6.7-10.5c1.8-3.8,3-7.9,3.9-11.9c2-8.9,2.4-18,2-27.1
							c-0.1-1.9-3.1-1.9-3,0c0.4,9.1,0,18.2-2.1,27c-1.2,4.9-2.7,9.5-5.4,13.7c-1.9,3-4.5,5.8-6.2,8.9c-1.9,3.5-1.6,8.8-2,12.8
							c-0.5,4.1-0.9,8.3-1.4,12.4c-1.8,15.6-3.5,31.3-6,46.8c-1.6,10.2-6.8,19.1-12.4,27.6c-7.6,11.6-16.9,22.8-28.2,30.9
							c-13.3,9.5-31,11.1-46.9,8.6c-14.1-2.2-29.2-8.8-38.5-19.9c-7.1-8.5-14.2-18.3-19.1-28.3c-3.3-6.8-4.3-14.6-5.9-21.9
							c-6.8-31.7-12.2-64-11.3-96.5c1-37.6,11.4-79,45.7-99.8c9.3-5.7,19.6-9.4,30.2-11.7c5.8-1.3,10.9-2.1,16.7-1.1
							c8.3,1.5,16.6,3.1,24.7,5.4c17.5,5.1,33.9,14.6,46.2,28.2c14.3,15.8,20.7,35.9,21.9,56.9C309,185.9,312,185.9,312,184.1z"/>
					</g>
				</g>
				<g>
					<line class="st4" x1="295.8" y1="236.8" x2="296.9" y2="206.1"/>
					<g>
						<path class="st2" d="M298.4,206.1c0.1-2-2.9-2-3,0c-0.4,10.3-0.7,20.5-1.1,30.8c-0.1,1.9,2.9,1.9,3,0
							C297.7,226.6,298,216.4,298.4,206.1L298.4,206.1z"/>
					</g>
				</g>
				<g class="st3">
					<path class="st2" d="M311,198.9c-0.4,4.8-1,9.2-1.9,13.3c-0.5,2.3-1.1,4.3-1.7,6.3c-0.6,2-1.3,4.1-2.4,6
						c-0.7,1.3-1.5,2.6-2.6,4.1c-0.7,1.4-1.6,2.8-2.9,4.5c-0.6,0.8-1.2,1.6-1.8,2.4c-0.3,0.4-0.7,0.9-1,1.3
						c-3.7,31.9-6.1,56-9.3,74.5c-2.3,13.6-30.7,57.9-56.6,63.4c-2.4,0.6-4.8,1-7.1,1.3c-20.6,2.9-37.7-1.4-51.1-9.5
						c-3.3-2-6.4-4.3-9.3-6.7c-2.2-1.8-5.7-6.1-9.3-11.1c0.8,0.5,1.6,1.1,2.4,1.6c13.4,8.1,30.5,12.4,51.1,9.5
						c2.3-0.4,4.7-0.8,7.1-1.3c25.9-5.5,54.3-49.8,56.6-63.4c3.2-18.5,5.7-42.7,9.3-74.5c0.3-0.4,0.7-0.9,1-1.3
						c0.6-0.8,1.2-1.6,1.8-2.4c1.3-1.7,2.2-3.1,2.9-4.5c1.1-1.5,1.9-2.8,2.6-4.1c1-2,1.8-4.1,2.4-6c0.6-2,1.2-4,1.7-6.3
						c0.9-4.1,1.6-8.5,1.9-13.3c0.3-4.2,0.3-8.6,0.1-13.3c-0.2-4.1-0.6-8.4-1.3-12.8c-0.6-3.8-1.4-7.6-2.4-11.3
						c-1.9-7-4.7-13.7-8.4-20c-1.7-2.9-3.7-5.7-5.8-8.5c3.3,2.7,6.2,5.2,8.7,7.7l0.2,0.2c0.1,0.1,0.3,0.2,0.4,0.3
						c2.2,2.2,4.2,4.6,6.1,7c2.5,3.1,4.7,6.3,6.6,9.6c3.6,6.2,6.5,13,8.4,20c1,3.7,1.8,7.5,2.4,11.3c0.6,4.3,1.1,8.6,1.3,12.8
						C311.4,190.4,311.3,194.8,311,198.9z"/>
					<g>
						<path class="st2" d="M312.8,185.4c-0.8-14.2-3.7-28.2-10.2-40.9c-5.9-11.5-14.4-20.9-24.4-29c-1.3-1-3.5,0.3-2.4,1.8
							c9.9,13.1,15.3,28.3,17.1,44.6c1.5,13.6,1.2,28.3-3.5,41.3c-2,5.5-5.7,10.3-9.1,15c-3,4-2.3,12.1-2.9,17
							c-1.3,11.5-2.6,23.1-4,34.6c-1.1,8.7-1.7,17.8-3.9,26.2c-1.7,6.7-5.6,13.1-9.2,18.9c-9.4,15-22.1,31.2-38.4,39.1
							c-10.3,5-23.5,5.5-34.7,4.4c-11.5-1.1-22.7-4.9-32.3-11.4c-1.3-0.8-3,0.9-2.1,2.1c7.2,9.9,15.3,17.2,26.6,22.3
							c11.1,5.1,23.3,7.1,35.5,6.6c9.6-0.4,19.2-1.8,27.6-6.6c7.8-4.5,14.6-10.8,20.6-17.5c10.1-11.2,20.9-25.3,25.2-40.1
							c2.2-7.6,2.7-16.1,3.7-24c1.5-11.5,2.8-23,4.1-34.5c0.8-7.2,0.6-15.3,4.7-21.4c2.6-3.8,5.3-7.6,7-11.9
							c4.5-11.4,5.3-24.2,4.8-36.3c-0.1-1.9-3.1-1.9-3,0c0.6,12.8,0.2,28.1-6.6,39.1c-2.3,3.9-6.1,7.6-7.7,11.7
							c-1.2,3.1-0.9,8-1.3,11.4c-0.4,3.6-0.8,7.1-1.2,10.7c-1.2,10.4-2.4,20.8-3.7,31.1c-1,7.6-1.5,15.8-3.6,23.2
							c-4,14-14.4,27.6-24,38.3c-5.7,6.5-12.1,12.5-19.5,17c-8.9,5.4-19.3,6.7-29.6,6.9c-11,0.1-22.1-1.9-32.1-6.6
							c-10.5-4.9-18.1-11.7-24.9-20.9c-0.7,0.7-1.4,1.4-2.1,2.1c10.5,7.1,22.8,11,35.4,12c12,1,25.8,0,36.6-5.9
							c16.4-9,29.2-25.4,38.7-41.2c3.5-5.8,7.1-12.1,8.6-18.8c2.2-9.6,3-19.7,4.2-29.4c1.6-12.7,3-25.5,4.4-38.3
							c0.4-3.4,0.4-6,2.3-9c0.6-0.9,1.4-1.8,2-2.7c1.6-2.3,3.3-4.8,4.6-7.3c2.6-4.8,3.9-10.4,4.9-15.7c4.8-26.4-0.4-55.7-16.7-77.3
							c-0.8,0.6-1.6,1.2-2.4,1.8c9.3,7.5,17.4,16.2,23.1,26.8c6.8,12.6,9.8,26.7,10.6,41C309.8,187.6,312.8,187.6,312.8,185.4z"/>
					</g>
				</g>
				<g class="st3">
					<path class="st2" d="M155.7,341.4c1.2,3.3,8.3,14.5,14.8,23.5c-2.4-1.6-4.7-3.3-6.9-5.1c-6.3-5.3-22.3-29.5-24.2-34.7
						c-1.6-4.2-2.7-8.3-3.5-12.2c-6.2-32.1-52.2-204.2,75.4-220c0,0,5.1,0.4,12.8,2.3c1.5,0.1,2.9,0.3,4.3,0.6
						c1.7,0.3,3.7,0.7,6,1.3c4.2,1,8,2.1,11.5,3.2c7.7,2.5,14.8,5.7,21.1,9.5c3.4,2.1,6.7,4.4,10,7c3.3,2.6,6.1,5.1,8.7,7.7l0.2,0.2
						c0.1,0.1,0.3,0.2,0.4,0.3c2.2,2.2,4.2,4.6,6.1,7c0.2,0.4,0.5,0.7,0.8,1.1c-0.1-0.1-0.1-0.1-0.1-0.1c-3.2-2.6-6.6-4.9-10-7
						c-6.4-3.8-13.5-7-21.1-9.5c-3.5-1.2-7.3-2.2-11.5-3.2c-2.3-0.6-4.3-1-6-1.3c-1.4-0.2-2.9-0.4-4.3-0.6
						c-7.7-1.9-12.8-2.3-12.8-2.3c-127.7,15.8-81.7,188-75.4,220C152.8,333,153.9,337.1,155.7,341.4z"/>
					<g>
						<path class="st2" d="M153.3,328.7c-2.9-14.8-6.3-29.5-8.6-44.5c-6.2-40-9.2-85.6,8.8-123.2c9.4-19.7,25.2-35.2,45.6-43.3
							c5.6-2.2,11.4-3.9,17.2-5.2c3.5-0.8,7.4-1.9,11-1.9c2.8,0,5.9,0.8,8.7,1.4c20.1,4.2,39.6,8.8,56,22.1c1.3,1,3.5-0.3,2.4-1.8
							c-16.4-21.3-41-33.6-67.2-38.1c-5-0.9-10.1-2.5-15.2-2.7c-3.8-0.1-7.9,0.9-11.6,1.7c-8,1.6-15.8,4.1-23.2,7.5
							c-51.4,23.7-59,85.8-55.3,136c1.6,21.6,5.3,43,9.8,64.2c2,9.5,3.2,19.8,7.9,28.3c7.5,13.7,16.8,28.1,29.9,36.9
							c1.3,0.8,3-0.9,2.1-2.1c-8-11.1-15.3-21.7-18.1-35.3c-0.4-1.9-3.3-1.1-2.9,0.8c2.9,13.9,10.2,24.7,18.4,35.9
							c0.7-0.7,1.4-1.4,2.1-2.1c-8.3-5.6-13.8-12.7-19.4-20.9c-4.2-6.1-9.1-12.6-11.6-19.7c-3.2-8.9-4.7-18.9-6.6-28.2
							c-9.2-44.7-16.1-94.8-0.6-138.9c8.6-24.5,25.7-44.5,50.1-54.3c6.7-2.8,13.8-4.7,21-6c3.5-0.6,6.7-1.2,10.2-0.7
							c5,0.8,10,1.8,15,2.8c24.3,4.7,47.4,16.4,62.7,36.3c0.8-0.6,1.6-1.2,2.4-1.8c-17.7-14.4-39.7-20.1-61.8-23.7
							c-12.4-2-26.9,3.2-38.1,8.2c-42.7,19.2-56.1,66.1-57,109.4c-0.7,35.3,6.4,69.3,13.2,103.7
							C150.9,331.4,153.8,330.6,153.3,328.7z"/>
					</g>
				</g>
				<g id="XMLID_39448_">
					<path class="st1" d="M176.6,364c-6.5,8.3,8.1,17.6,33.1,17.4s15.4-13.1,15.4-13.1"/>
					<g>
						<path class="st2" d="M226.4,367.5c-1.2-1.6-3.8-0.1-2.7,1.7c6.1,8.3-6.5,10.6-12.4,10.8c-5.1,0.1-42.6-2.4-33.5-15.1
							c1.1-1.6-1.5-3.1-2.6-1.5c-3.6,5-0.5,10.1,4.1,13.1c9,5.8,21.7,6.8,32.1,6.4c5.5-0.2,15-0.9,16.8-7.5
							C228.9,372.7,228,369.7,226.4,367.5L226.4,367.5z"/>
					</g>
				</g>
				<g>
					<g id="XMLID_39447_">
						<line class="st4" x1="254.4" y1="259.1" x2="249.2" y2="260.5"/>
						<g>
							<path class="st2" d="M248.8,259c-1.8,0.5-1,3.4,0.8,2.9c1.7-0.5,3.5-0.9,5.2-1.4c1.9-0.5,1.1-3.4-0.8-2.9
								C252.3,258.1,250.5,258.5,248.8,259L248.8,259z"/>
						</g>
					</g>
					<g id="XMLID_39446_">
						<path class="st1" d="M189.4,204.4c-0.6,12.5,17.6,35.2,17.6,35.2"/>
						<g>
							<path class="st2" d="M206,240.7c1.2,1.5,3.3-0.6,2.1-2.1c-3.1-3.8-5.9-7.9-8.5-12.1c-4.1-6.5-8.8-14.2-8.7-22.1
								c0-1.9-3-1.9-3,0c-0.1,8.1,4.4,15.9,8.5,22.6C199.3,231.7,202.5,236.4,206,240.7L206,240.7z"/>
						</g>
					</g>
					<g id="XMLID_39439_">
						<g id="XMLID_39445_">
							<path class="st1" d="M175.9,265.2c-21.6-4.4-8.2-20-8.2-20"/>
							<g>
								<path class="st2" d="M168.8,246.3c1.2-1.5-0.9-3.6-2.1-2.2c-2.3,2.8-4.2,6.4-4.5,10c-0.6,7.8,6.9,11.2,13.3,12.6
									c1.9,0.4,2.7-2.5,0.8-2.9c-5.6-1.3-12.5-4-10.9-10.9C165.9,250.6,167.2,248.2,168.8,246.3L168.8,246.3z"/>
							</g>
						</g>
						<g id="XMLID_39444_">
							<path class="st1" d="M200,265.2c20.1-8.2,5.8-20,5.8-20"/>
							<g>
								<path class="st2" d="M206.8,244.1c-1.4-1.2-3.6,0.9-2.1,2c1.7,1.5,3.2,3.4,4,5.5c2.3,6.4-4.6,10.1-9.5,12.2
									c-1.8,0.8-0.3,3.3,1.5,2.6c5.7-2.4,12.6-6.7,11.3-13.9C211.4,249.3,209.3,246.2,206.8,244.1L206.8,244.1z"/>
							</g>
						</g>
						<g id="XMLID_39443_">
							<path class="st1" d="M176.1,256.9c-2.3-1.4-4.5-2.4-5.3-1.8c-2.1,1.7-1.2,5,2.9,5.2C173.7,260.3,177.8,257.9,176.1,256.9z"/>
							<g>
								<path class="st2" d="M173.8,258.7c-1-0.1-2.3-0.5-2.5-1.4c-0.1-0.3,0-0.5,0.2-0.8c0.1-0.1,0.5-0.3,0.2-0.2
									c-0.1,0.1-0.1,0.1-0.1,0.1c0.3,0.1,0.7,0.2,1,0.3c0.5,0.2,0.9,0.5,1.4,0.7c0.2,0.1,0.5,0.3,0.7,0.4c0.1,0.1,0.2,0.1,0.3,0.2
									c0.3,0.3,0.4,0.3,0.2,0.1c0-0.2-0.3-0.7-0.2-0.7c0,0-0.3,0.3-0.4,0.4c-0.5,0.5-1.1,0.9-1.7,1.2c-1.7,1-0.2,3.6,1.5,2.6
									c1.3-0.7,2.9-1.8,3.4-3.3c0.4-1.2-0.2-2.2-1.2-2.8c-1.3-0.8-2.9-1.6-4.4-1.9c-2.5-0.5-4.4,2-3.9,4.4
									c0.5,2.6,3.1,3.6,5.4,3.8C175.7,262,175.6,259,173.8,258.7z"/>
							</g>
						</g>
						<g id="XMLID_39442_">
							<path class="st1" d="M194.5,238.4c-1-1.4-5.2-1.3-5.2-1.3"/>
							<g>
								<path class="st2" d="M189.3,235.6c-1.9,0-1.9,3,0,3c1.3,0,3.5-0.1,4.2,0.9c0.5,0.6,1.6,0.5,2.1,0c0.6-0.6,0.5-1.5,0-2.1
									C194.3,235.7,191.3,235.6,189.3,235.6L189.3,235.6z"/>
							</g>
						</g>
						<g id="XMLID_39441_">
							<path class="st1" d="M172.6,236.8c1.8,0.1,4.2-3.4,4.2-3.4"/>
							<g>
								<path class="st2" d="M178.1,234.2c0.5-0.7,0.1-1.7-0.5-2.1c-0.8-0.5-1.6-0.2-2.1,0.5l-0.1,0.1c0,0.1-0.1,0.1-0.1,0.2
									c0.1-0.1,0.1-0.1,0,0c-0.3,0.3-0.6,0.7-0.9,1c-0.3,0.4-0.6,0.7-1,1c-0.2,0.2-0.5,0.3-0.7,0.4c0,0,0,0-0.1,0
									c-1.9,0-1.9,3,0,3C175,238.3,176.9,236,178.1,234.2L178.1,234.2z"/>
							</g>
						</g>
						<g id="XMLID_39440_">
							<path class="st1" d="M196.3,259.4c2.5,0.3,5,0.4,5.5-0.5c1.3-2.4-0.9-5-4.7-3.5C197.1,255.4,194.4,259.3,196.3,259.4z"/>
							<g>
								<path class="st2" d="M197.7,256.8c0.8-0.3,2.6-0.8,3.1,0.3c0.1,0.2,0.1,0.3,0.1,0.5c0,0.5-0.4,0.6,0,0.4
									c-0.6,0.3-1.3,0.2-1.9,0.2c-0.4,0-0.9-0.1-1.3-0.1c-0.3,0-0.5-0.1-0.8-0.1c-0.3,0-0.3,0,0.1,0.2c0.1,0.1,0.2,0.2,0.2,0.4
									c0,0.1,0,0.1,0-0.1c0.1-0.1,0.1-0.4,0.2-0.5c0.3-0.7,0.7-1.3,1.1-1.9c1.1-1.6-1.5-3.1-2.6-1.5c-0.8,1.2-1.7,2.7-1.7,4.1
									c0,1.1,0.6,2,1.7,2.2c1.5,0.4,3.2,0.4,4.7,0.2c1.4-0.2,2.4-0.7,2.9-2c0.4-1.1,0.4-2.3-0.1-3.3c-1.3-2.4-4.3-2.6-6.6-1.8
									C194.9,254.6,195.7,257.5,197.7,256.8z"/>
							</g>
						</g>
					</g>
					<g id="XMLID_39438_">
						<path class="st1" d="M145.7,262c3.3-1.3,15.1-7.1,15.1-7.1"/>
						<g>
							<path class="st2" d="M161.6,256.2c1.7-0.9,0.2-3.5-1.5-2.6c-4.9,2.4-9.8,5-14.8,7c-1.8,0.7-1,3.6,0.8,2.9
								C151.4,261.4,156.5,258.7,161.6,256.2L161.6,256.2z"/>
						</g>
					</g>
					<g id="XMLID_39437_">
						<path class="st1" d="M229.2,258.1c-1.3,0.2-15-6.4-15-6.4"/>
						<g>
							<path class="st2" d="M215,250.4c-1.8-0.9-3.3,1.7-1.6,2.6c2.5,1.2,5.1,2.4,7.6,3.5c2.4,1.1,5.5,3.1,8.2,3.1c1.9,0,1.9-3,0-3
								c-2.1,0-5.7-2.2-7.8-3.2C219.3,252.4,217.1,251.4,215,250.4L215,250.4z"/>
						</g>
					</g>
					<g id="XMLID_39433_">
						<g id="XMLID_39436_">
							<path class="st1" d="M178.5,226.1c5-25.3,16.5-56,16.5-56"/>
							<g>
								<path class="st2" d="M196.4,170.5c0.7-1.8-2.2-2.6-2.9-0.8c-6.8,18.2-12.7,37-16.5,56c-0.4,1.9,2.5,2.7,2.9,0.8
									C183.7,207.4,189.6,188.7,196.4,170.5L196.4,170.5z"/>
							</g>
						</g>
						<g id="XMLID_39435_">
							<path class="st1" d="M177.9,259.4c-1-0.1-2-0.5-3.1-1.2c-1.3-0.9-2.5-2.3-3.3-4.6c-1.1-3.1,0.6-7.5,4.2-12.6"/>
							<g>
								<path class="st2" d="M177,241.8c1.1-1.6-1.5-3.1-2.6-1.5c-2.4,3.5-5.4,8.1-4.6,12.6c0.7,4,3.8,7.1,7.7,8
									c1.9,0.4,2.7-2.5,0.8-2.9C169.2,255.9,173.6,246.7,177,241.8L177,241.8z"/>
							</g>
						</g>
						<g id="XMLID_39434_">
							<path class="st1" d="M186,260c1.5,1,5.4-0.6,5.4-0.6"/>
							<g>
								<path class="st2" d="M191.8,260.8c0.7-0.3,1.3-1,1-1.9c-0.2-0.7-1-1.3-1.8-1c-1,0.4-3.2,1.4-4.2,0.8c-1.7-1-3.2,1.6-1.5,2.6
									C187.2,262.4,189.9,261.6,191.8,260.8L191.8,260.8z"/>
							</g>
						</g>
					</g>
				</g>
				<g>
					<g id="XMLID_39432_">
						<path class="st1" d="M173.2,339.5c-0.4-1.1-5.8-2.3-5.8-2.3"/>
						<g>
							<path class="st2" d="M167.8,335.8c-1.9-0.4-2.7,2.5-0.8,2.9c0.8,0.2,1.6,0.4,2.4,0.6c0.6,0.2,1.2,0.3,1.8,0.6
								c0.2,0.1,0.5,0.3,0.7,0.4c0,0-0.1-0.1,0,0c0.8,1.8,3.4,0.2,2.6-1.5c-0.6-1.3-2.4-1.8-3.6-2.2
								C169.9,336.3,168.8,336,167.8,335.8L167.8,335.8z"/>
						</g>
					</g>
					<g id="XMLID_39431_">
						<path class="st1" d="M206.2,344.3c1.5-2.4,6.4-4.7,6.4-4.7"/>
						<g>
							<path class="st2" d="M213.4,340.9c1.7-0.9,0.2-3.5-1.5-2.5c-2.5,1.2-5.3,2.8-6.9,5.2c-1.1,1.6,1.5,3.1,2.6,1.5
								C208.8,343.1,211.4,341.9,213.4,340.9L213.4,340.9z"/>
						</g>
					</g>
					<g id="XMLID_39430_">
						<path class="st1" d="M184.5,302.8c-4.6-6.6-10.9,0-10.9,0"/>
						<g>
							<path class="st2" d="M172.5,301.8c-1.3,1.3,0.8,3.5,2.1,2.1c2.5-2.6,6.1-3.6,8.5-0.3c1.2,1.5,3.8,0.1,2.6-1.5
								c-2-2.7-4.8-4.4-8.2-3.4C175.6,299.2,173.8,300.4,172.5,301.8L172.5,301.8z"/>
						</g>
					</g>
					<g id="XMLID_39429_">
						<path class="st1" d="M184.5,302.8c4.6-6.6,10.9,0,10.9,0"/>
						<g>
							<path class="st2" d="M194.3,303.9c1.4,1.4,3.5-0.8,2.1-2.1c-1.3-1.4-3.1-2.6-5-3.1c-3.4-1-6.2,0.7-8.2,3.4
								c-1.1,1.5,1.5,3,2.6,1.5C188.2,300.3,191.8,301.3,194.3,303.9L194.3,303.9z"/>
						</g>
					</g>
					<g class="st3">
						<path class="st2" d="M186.7,319.7c-8.8,7.3-11.1-3.8-11.1-3.8C173.6,309,195.5,312.5,186.7,319.7z"/>
						<g>
							<path class="st2" d="M174.3,316.3c0.5,2.7,2,5.5,4.5,6.8c5.9,3,16.4-6.4,8.7-10.8c-3.6-2-15.2-3.1-13.3,4
								c0.5,1.9,3.4,1.1,2.9-0.8c-0.8-2.8,9.7-2.3,10.2,0.8c0.2,1.2-1.6,2.4-2.4,3c-1.5,1-3.4,2-5.1,1c-1.5-1-2.3-3.1-2.7-4.8
								C176.7,313.6,173.8,314.4,174.3,316.3z"/>
						</g>
					</g>
					<g id="XMLID_39428_">
						<path class="st1" d="M195.5,309c-9.4-2.7-23.6-5.5-19.9,3.4c5.4,12.9,11.3-1,16.4,1"/>
						<g>
							<path class="st2" d="M191.6,314.9c1.9,0.5,2.7-2.4,0.8-3c-5.8-1.6-10.6,9-14.7,1.5c-1.1-2-2.1-4.2,0.5-5.2
								c1.5-0.5,3.5-0.3,5-0.2c4,0.4,8,1.4,11.9,2.5c1.9,0.5,2.7-2.4,0.8-2.9c-4.5-1.2-23.1-6.9-22.4,2.9c0.3,3.7,3.5,9.2,7.8,9
								C184.9,319.3,188.2,314,191.6,314.9L191.6,314.9z"/>
						</g>
					</g>
				</g>
				<g>
					<g class="st0">
						<path class="st2" d="M293.3,262.5c-0.6,9.3-2,18.8-3.6,26.1c-1,10.2-2.9,17.2-5.4,15.8c-3.4-1.8-4.3-5.9-4.6-7.8
							c-0.1-0.5-0.1-0.9-0.1-0.9l-0.3-6.9l1.6-23.2c0,0,4.3-7.5,7.9-10.5C291.6,252.7,294,253.2,293.3,262.5z"/>
						<g>
							<path class="st2" d="M287.7,253.8c-2.9,2.7-6.9,7.1-8.2,11c-0.9,2.6-0.5,6.1-0.7,8.8c-0.4,6.4-1.1,12.7-0.8,19
								c0.2,3.7,2.8,17.1,8.8,12.7c3.3-2.3,3.6-9.5,4.1-12.9c1-7.5,2.6-14.9,3.4-22.5c0.3-3,2.8-23.1-6.2-16.2
								c-1.5,1.2,0,3.8,1.5,2.6c2.9-2.2,2.4,3.8,2.3,5.4c-0.2,3.4-0.5,6.7-0.9,10.1c-0.8,7.3-2.2,14.5-3.3,21.8c-0.3,2-0.4,7-2,8.4
								c-2.2,1.9-4.2-3.8-4.5-6c-0.2-2.3-0.3-4.8-0.3-7.1c0-5.7,0.7-11.4,1.1-17c0.1-1.5,0.2-3,0.3-4.5c0-0.5,0.5-2.5,0-1.2
								c1.3-3.6,4.8-7.6,7.6-10.1C291.3,254.8,289.2,252.7,287.7,253.8z"/>
						</g>
					</g>
					<g>
						<path class="st1" d="M283.9,223.9c0,0,12.5-12.5,22.9-17.4c8.2-3.8,15-3,13.2,12.5c-1.8,15.3-5.7,30.9-10.4,43.1
							c-2.9,16.8-8.4,28.4-15.7,26.1c-9.8-3-12.6-9.8-13.4-12.9c-0.3-1-0.3-1.6-0.3-1.6l-0.9-11.4"/>
						<g>
							<path class="st2" d="M280.8,262.3c-0.1-1.9-3.1-1.9-3.2-0.1c0.8,9.1,0.4,17.9,8.6,23.8c3.8,2.7,9.1,5.3,13.5,2.6
								c4.5-2.7,6.7-8.6,8.2-13.3c1.4-4.5,1.9-9.2,3.3-13.7c1.3-4,2.8-7.9,4-11.9c2.6-8.9,4.5-18,5.7-27.2
								c1.2-8.7,1.3-22.8-11.5-18.8c-10.2,3.2-19.3,11.8-26.7,19.1c-1.4,1.3,0.7,3.5,2.1,2.1c3.3-3.2,6.7-6.2,10.2-9
								c4.7-3.8,10.9-9,17.2-9.8c13.8-1.7,1.6,38-0.4,44.6c-1.3,4.2-3.1,8.4-4.1,12.7c-0.8,3.8-1.5,7.5-2.7,11.2
								c-1.1,3.5-2.6,7.4-5.1,10.1c-2.9,3.1-6,2.3-9.6,0.4C281.1,280.1,281.6,271.4,280.8,262.3L280.8,262.3z"/>
						</g>
					</g>
					<g id="XMLID_39427_">
						<path class="st1" d="M314.9,217.2c-1.9-10.1-18,8.5-18,8.5"/>
						<g>
							<path class="st2" d="M295.8,224.7c-1.2,1.4,0.9,3.5,2.2,2.1c1.9-2.3,4.1-4.4,6.3-6.4c1.8-1.6,8-7.5,9.1-2.8
								c0.4,1.9,3.3,1.1,2.9-0.8C313.7,205.4,298.9,221.1,295.8,224.7L295.8,224.7z"/>
						</g>
					</g>
					<g id="XMLID_39426_">
						<path class="st1" d="M291.6,252.2c1.7,12.9,9.6,6.5,14-4.4c4.4-10.9-15.7-8.5-15.7-8.5"/>
						<g>
							<path class="st2" d="M289.9,237.8c-1.9,0.2-1.9,3.2,0,3.1c3.9-0.5,10.7-1.1,13.8,1.9c3,3-1.6,9.2-3.5,11.7
								c-0.9,1.1-2.7,3.6-4.4,3.4c-2.2-0.2-2.6-4.4-2.8-6c-0.3-1.9-3.2-1.1-2.9,0.8c0.7,4.7,3.6,10.7,9.1,7c2.5-1.7,4.3-4.4,5.7-7
								c1.4-2.4,3-5.4,2.8-8.2C307.1,236.9,295.3,237.2,289.9,237.8L289.9,237.8z"/>
						</g>
					</g>
					<g id="XMLID_39425_" class="st3">
						<path class="st1" d="M291.6,252.2c1.7,12.9,9.6,6.5,14-4.4c4.4-10.9-15.7-8.5-15.7-8.5"/>
						<g>
							<path class="st2" d="M289.9,237.8c-1.9,0.2-1.9,3.2,0,3.1c3.9-0.5,10.7-1.1,13.8,1.9c3,3-1.6,9.2-3.5,11.7
								c-0.9,1.1-2.7,3.6-4.4,3.4c-2.2-0.2-2.6-4.4-2.8-6c-0.3-1.9-3.2-1.1-2.9,0.8c0.7,4.7,3.6,10.7,9.1,7c2.5-1.7,4.3-4.4,5.7-7
								c1.4-2.4,3-5.4,2.8-8.2C307.1,236.9,295.3,237.2,289.9,237.8L289.9,237.8z"/>
						</g>
					</g>
				</g>
				<g id="XMLID_39424_" class="st3">
					<path class="st2" d="M176.6,364c-6.5,8.3,8.1,17.6,33.1,17.4s15.4-13.1,15.4-13.1"/>
					<g>
						<path class="st2" d="M226.4,367.5c-1.2-1.6-3.8-0.1-2.7,1.7c6.1,8.3-6.5,10.6-12.4,10.8c-5.1,0.1-42.6-2.4-33.5-15.1
							c1.1-1.6-1.5-3.1-2.6-1.5c-3.6,5-0.5,10.1,4.1,13.1c9,5.8,21.7,6.8,32.1,6.4c5.5-0.2,15-0.9,16.8-7.5
							C228.9,372.7,228,369.7,226.4,367.5L226.4,367.5z"/>
					</g>
				</g>
			</g>
			<g>
				<g id="XMLID_4188_" class="st3">
					<path class="st2" d="M171.4,222.7c16.4-35.2-36-34.4-36-34.4C93,210.7,155,257.9,171.4,222.7z"/>
					<g>
						<path class="st2" d="M135.4,189.8c6.9-0.1,14,0.9,20.6,2.9c9.7,3,18.5,9.4,16.9,20.6c-1.7,11.9-10.4,21.7-22.9,20.5
							c-10.2-1-20.4-7.8-25.2-16.8c-6.2-11.7,0.9-21.7,11.4-27.4c1.7-0.9,0.2-3.5-1.5-2.6c-12.7,6.9-19.9,19.7-11.5,33.1
							c6,9.6,17.6,16.7,29.1,16.7c13.3,0,22.2-11.4,23.6-23.9c2.4-21-24.6-26.3-40.5-26.1C133.5,186.9,133.5,189.9,135.4,189.8z"/>
					</g>
				</g>
				<g id="XMLID_4091_" class="st3">
					<path class="st2" d="M226.7,237c-49.3-16.1-12-43.7-12-43.7C256.2,180.4,276,253.1,226.7,237z"/>
					<g>
						<path class="st2" d="M213.9,191.9c-6.7,4.9-13.4,12.7-14.2,21.3c-1.4,16,19.9,24.2,32.3,26.7c9.8,2.1,21.3,0.3,24.4-10.7
							c2.8-9.9-2.1-21.1-8.7-28.4c-8.7-9.4-21.3-12.6-33.5-9c-1.8,0.6-1.1,3.4,0.8,2.9c12.5-3.7,24.9,0.4,32.7,10.8
							c4.8,6.6,8.5,16.4,5.3,24.4c-4.2,10.4-17.5,8.3-26,5.6c-11.5-3.7-29.4-12.2-22.9-27.2c2.3-5.3,6.9-10.5,11.3-13.7
							C217,193.4,215.5,190.8,213.9,191.9z"/>
					</g>
				</g>
				<g id="XMLID_39423_">
					<path class="st1" d="M254.6,236.8c-23.5,8.3-41.6-5.2-41.6-5.2"/>
					<g>
						<path class="st2" d="M213.8,230.3c-1.6-1.1-3.1,1.5-1.5,2.6c12,8.9,28.9,10,42.7,5.4c1.8-0.6,1-3.5-0.8-2.9
							C241.1,239.8,225.2,238.7,213.8,230.3L213.8,230.3z"/>
					</g>
				</g>
				<g id="XMLID_39422_">
					<path class="st1" d="M133.1,235.8c6.2,2.7,35.5-3.6,35.5-3.6"/>
					<g>
						<path class="st2" d="M169,233.7c1.9-0.4,1.1-3.3-0.8-2.8c-4.7,1-9.5,1.8-14.3,2.6c-6,0.9-14.5,3.1-20.4,0.9
							c-1.8-0.7-2.6,2.2-0.8,2.9c5.9,2.2,13.8,0.3,19.8-0.6C158,235.9,163.5,234.9,169,233.7L169,233.7z"/>
					</g>
				</g>
				<g id="XMLID_39421_">
					<path class="st1" d="M271.3,199.5c3.1-1.8,1.2-5.8,1.2-5.8"/>
					<g>
						<path class="st2" d="M273.8,193c-0.8-1.8-3.4-0.3-2.6,1.4c-0.1-0.3,0,0,0.1,0.3c0.1,0.4,0.3,0.7,0.3,1.1c0.1,1-0.1,1.9-1,2.4
							c-1.7,1-0.1,3.6,1.5,2.6C274.9,199.1,275.1,195.8,273.8,193L273.8,193z"/>
					</g>
				</g>
				<g id="XMLID_39420_">
					<path class="st1" d="M259.8,239.5c1-1.3,1.9-4.9,1.9-4.9"/>
					<g>
						<path class="st2" d="M263.2,235c0.4-1.9-2.5-2.7-2.9-0.8c-0.4,1.5-0.8,3.2-1.8,4.5c-0.5,0.7-0.1,1.7,0.5,2.1
							c0.8,0.5,1.6,0.2,2.1-0.5C262.2,238.8,262.8,236.8,263.2,235L263.2,235z"/>
					</g>
				</g>
				<g id="XMLID_39419_">
					<path class="st1" d="M262.9,156.9c1.5,0,0,6.8,0,6.8"/>
					<g>
						<path class="st2" d="M261.5,163.3c-0.4,1.9,2.4,2.7,2.9,0.8c0.6-2.2,2.2-8.3-1.4-8.7c-1.9-0.2-1.9,2.8,0,3
							c-1.4-0.2-0.7-0.7-0.8-0.4c-0.1,0.2,0,0.7,0,0.9c0,0.6-0.1,1.3-0.2,1.9C261.8,161.6,261.7,162.5,261.5,163.3L261.5,163.3z"/>
					</g>
				</g>
				<g id="XMLID_39418_">
					<path class="st1" d="M155.3,142.7c0.7-1.1-5.7-2-5.7-2"/>
					<g>
						<path class="st2" d="M150,139.3c-0.8-0.2-1.6,0.1-1.9,1.1c-0.2,0.7,0.2,1.7,1,1.8c0.8,0.1,1.6,0.2,2.4,0.4
							c0.7,0.2,1.3,0.3,1.9,0.5c0.3,0.1,0.5,0.2,0.6,0.2l0.3,0.2c-0.2,0.1-0.3-1.5-0.3-1.5c-0.8,1.7,1.8,3.3,2.6,1.5
							C158.1,140.2,152,139.6,150,139.3L150,139.3z"/>
					</g>
				</g>
				<g id="XMLID_39417_">
					<path class="st1" d="M196.7,150.2c-0.4,1.4-7.9,2.5-7.9,2.5"/>
					<g>
						<path class="st2" d="M188.4,151.3c-1.9,0.2-1.1,3.1,0.7,2.9c1.5-0.2,2.9-0.5,4.3-0.8c1.5-0.4,3.9-0.9,4.6-2.4
							c0.8-1.7-1.8-3.3-2.6-1.5c-0.1,0.1,0,0-0.3,0.2s-0.7,0.3-1,0.4c-0.8,0.2-1.6,0.4-2.4,0.6C190.6,150.9,189.5,151.1,188.4,151.3
							L188.4,151.3z"/>
					</g>
				</g>
				<g>
					<g id="XMLID_39416_">
						<path class="st1" d="M171.4,212.7c16.4-35.2-36-34.4-36-34.4C93,200.7,155,247.9,171.4,212.7z"/>
						<g>
							<path class="st2" d="M135.4,179.8c6.9-0.1,14,0.9,20.6,2.9c9.7,3,18.5,9.4,16.9,20.6c-1.7,11.9-10.4,21.7-22.9,20.5
								c-10.2-1-20.4-7.8-25.2-16.8c-6.2-11.7,0.9-21.7,11.4-27.4c1.7-0.9,0.2-3.5-1.5-2.6c-12.7,6.9-19.9,19.7-11.5,33.1
								c6,9.6,17.6,16.7,29.1,16.7c13.3,0,22.2-11.4,23.6-23.9c2.4-21-24.6-26.3-40.5-26.1C133.5,176.9,133.5,179.9,135.4,179.8z"/>
						</g>
					</g>
					<g id="XMLID_39415_">
						<path class="st1" d="M146.9,205c1.1-7.7-8.3-4.7-8.3-4.7C132.2,206.9,145.9,212.6,146.9,205z"/>
						<g>
							<path class="st2" d="M139.1,201.8c1.2-0.4,2.7-0.6,4-0.5c2.4,0.2,3.2,2.5,2.1,4.6c-1,1.8-3.5,1.4-5,0.5
								c-2.2-1.3-2.1-3.3-0.5-5c1.3-1.4-0.8-3.5-2.1-2.1c-2.3,2.5-3,6-0.4,8.6c1.8,1.8,4.6,2.7,7.1,2.1c3-0.8,4.4-3.7,4.2-6.7
								c-0.4-5.3-6.3-5.8-10.3-4.5C136.4,199.4,137.2,202.3,139.1,201.8z"/>
						</g>
					</g>
					<g id="XMLID_39414_">
						<path class="st1" d="M226.7,227c-49.3-16.1-12-43.7-12-43.7C256.2,170.4,276,243.1,226.7,227z"/>
						<g>
							<path class="st2" d="M213.9,181.9c-6.7,4.9-13.4,12.7-14.2,21.3c-1.4,16,19.9,24.2,32.3,26.7c9.8,2.1,21.3,0.3,24.4-10.7
								c2.8-9.9-2.1-21.1-8.7-28.4c-8.7-9.4-21.3-12.6-33.5-9c-1.8,0.6-1.1,3.4,0.8,2.9c12.5-3.7,24.9,0.4,32.7,10.8
								c4.8,6.6,8.5,16.4,5.3,24.4c-4.2,10.4-17.5,8.3-26,5.6c-11.5-3.7-29.4-12.2-22.9-27.2c2.3-5.3,6.9-10.5,11.3-13.7
								C217,183.4,215.5,180.8,213.9,181.9z"/>
						</g>
					</g>
					<g id="XMLID_39413_">
						<path class="st1" d="M247.3,208.5c1.1-7.7-8.3-4.7-8.3-4.7C232.6,210.4,246.2,216.2,247.3,208.5z"/>
						<g>
							<path class="st2" d="M239.5,205.4c1.2-0.4,2.7-0.6,4-0.5c2.4,0.2,3.2,2.5,2.1,4.6c-1,1.8-3.5,1.4-5,0.5
								c-2.2-1.3-2.1-3.3-0.5-5c1.3-1.4-0.8-3.5-2.1-2.1c-2.3,2.5-3,6-0.4,8.6c1.8,1.8,4.6,2.7,7.1,2.1c3-0.8,4.4-3.7,4.2-6.7
								c-0.4-5.3-6.3-5.8-10.3-4.5C236.8,203,237.6,205.9,239.5,205.4z"/>
						</g>
					</g>
					<g id="XMLID_39412_">
						<path class="st1" d="M241.7,228.2c-1,0.4-2.1,0.6-3.2,0.7c-9.7,0.6-25.6-8.4-25.6-8.4c10.8-3,29-1.7,29-1.7l8.6,0.7
							c0,0,7.8,1.1,4.4,5.1c-1.4,1.7-2.7,1.5-4.1,1.1c-0.4-0.1-0.7-0.2-1.1-0.3C248,224.9,242.6,228,241.7,228.2z"/>
						<g>
							<path class="st2" d="M249.4,226.9c2.6,0.8,4.9,0.9,6.8-1.3c1.2-1.4,1.6-3.1,0.5-4.7c-1.8-2.8-6-2.9-8.9-3.1
								c-11.7-0.9-23.8-1.7-35.2,1.3c-1.3,0.3-1.5,2.1-0.4,2.7c5.3,3,10.9,5.5,16.7,7.2c3.6,1.1,7.8,2,11.6,1.2
								c3.1-0.6,6.1-3.6,9.3-3.3c1.9,0.2,1.9-2.8,0-3c-2.9-0.3-5.3,1.6-7.8,2.6c-4.1,1.6-8.2,0.8-12.3-0.4
								c-5.5-1.6-10.9-4.1-15.9-6.9c-0.2,0.9-0.3,1.8-0.4,2.7c9-2.4,18.8-2.3,28-1.7c2.4,0.2,4.8,0.4,7.2,0.6
								c1.2,0.1,1.5,0.1,2.4,0.3c0.7,0.2,1.6,0.4,2.2,0.8c2.1,1.6-1.5,2.6-3.1,2.1C248.3,223.4,247.5,226.3,249.4,226.9z"/>
						</g>
					</g>
					<g id="XMLID_39411_">
						<path class="st1" d="M136.1,216c0,0-8.4,1.1-4.7,5.1c3.6,3.9,5,0.2,11.6,2.2c20.1,6.2,26.3-7.4,26.3-7.4
							c-12.5-4-23.9-1.8-23.9-1.8L136.1,216z"/>
						<g>
							<path class="st2" d="M145.8,215.5c7.6-1.4,15.8-0.3,23.1,1.8c-0.3-0.7-0.6-1.5-0.9-2.2c-4.4,9.5-16.2,8.7-24.6,6.7
								c-2.8-0.7-5.5,0.1-8.1-0.4c-2.7-0.5-4.2-2.5-1.1-3.6c0.7-0.2,1.4-0.3,2.1-0.5C139.4,216.6,142.6,216.1,145.8,215.5
								c1.9-0.4,1.1-3.3-0.8-2.9c-4.1,0.8-10,0.9-13.8,3.3c-5.7,3.5,0.8,8.6,5.3,8.4c9.1-0.5,17.2,4.4,26.2-0.1
								c3.2-1.6,6.4-4.3,7.9-7.6c0.4-0.9,0.1-1.9-0.9-2.2c-7.9-2.3-16.5-3.3-24.7-1.8C143.1,213,143.9,215.9,145.8,215.5z"/>
						</g>
					</g>
				</g>
			</g>
		</g>
		<g>
			<g class="st3">
				<path class="st2" d="M310.7,208.3c-1,2.6-2.3,4.8-4,7c-0.3,0.3-0.6,0.4-0.9,0.4c-0.1,0.2-0.1,0.3-0.2,0.4
					c-0.2,2.2-0.3,4.4-0.5,6.6c-0.1,1.6-2.6,1.6-2.5,0c0.1-1,0.1-1.9,0.2-2.9c-0.6,0.4-1.2,0.9-1.8,1.4c-0.3,0.2-0.6,0.3-0.9,0.2
					l-1.9,1.3c-0.8,0.5-1.8-0.2-1.8-1c-1.3,0.8-2.7,1.6-4.1,2.4c-0.1,0.1-0.3,0.2-0.4,0.2c-0.1,0-0.1,0.1-0.2,0.1
					c-2.1,1.5-4.3,2.6-6.7,3.4c-1.1,0.4-1.6-1-1-1.7c2.4-3,4.6-6,7.1-8.9c0-0.1-0.1-0.1-0.1-0.1c-0.1,0.1-0.2,0.1-0.3,0.2
					c-0.5,0.2-1,0.1-1.4-0.1c-0.4,0.6-0.9,1-1.7,1.6c-0.2,0.2-0.5-0.2-0.3-0.4c0.2-0.4,0.3-0.8,0.5-1.2c-0.9,0.8-1.8,1.6-2.7,2.4
					c-1.4,1.7-3.1,3.3-5,4.8l0,0l0,0c-0.1,0.1-0.1,0.1-0.2,0.2c-0.9,0.7-2-0.8-1.2-1.5c1.2-1.3,2.6-2.4,3.9-3.6c0.9-1,1.7-2,2.4-3.1
					c-0.4,0.2-1,0.4-1.5,0.5c-1,0.3-1.8-1-1-1.7c0.1-0.2,0.3-0.3,0.4-0.4c-0.7-0.1-1.2-1-0.6-1.7c1.1-1.3,2.3-2.3,3.7-3
					c0.2-0.4,0.4-0.8,0.6-1.3c0-0.2,0.1-0.5,0.3-0.8c-0.1,0-0.1,0-0.1,0c-1.1,0.9-2.4,1.6-4,2.2c-1,0.4-1.7-1-1-1.7
					c0.3-0.3,0.6-0.6,0.9-0.8c-0.5,0.2-0.9,0.4-1.4,0.5c-1,0.4-1.7-1-1-1.7c1.3-1.5,2.7-2.6,4.3-3.5c-0.1-0.4,0.1-0.9,0.4-1.2
					c0.4-0.4,0.7-0.7,1.1-1.1v-0.1c-0.6,0.1-1.1,0.3-1.7,0.4c-1,0.6-2.3-0.9-1.3-1.7c0.1-0.1,0.2-0.2,0.3-0.3
					c-0.3,0.1-0.5,0.2-0.8,0.3c-0.7,0.6-1.6,1-2.5,1.4l0,0l0,0c-0.1,0-0.2,0.1-0.3,0.1c-1.3,0.5-1.8-1.4-0.9-2.1
					c1.1-0.8,2.1-1.3,3.2-1.7c0.2-0.5,0.2-1,0.1-1.7c-0.1,0.1-0.2,0.1-0.3,0.1c-1.2,0.2-2.1-1.4-0.9-2c0.1,0,0.2-0.1,0.3-0.1
					c0.4-0.3,0.9-0.5,1.3-0.8c-0.3-0.4-0.2-1,0.4-1.3c0-0.1,0-0.1,0-0.1h-0.1c-1.1,0.4-1.9-1.2-1.1-1.9c1-1.1,2-1.7,3.3-2.2
					c-0.7-0.4-1.1-1.2-0.8-2c-0.7-0.6-1-1.9-0.2-2.6c0.1,0,0.2-0.1,0.2-0.1c-0.1-0.9,0.1-1.6,0.5-2.3c-0.7-0.1-1.1-0.9-0.9-1.5
					c-0.2,0.1-0.5,0.3-0.8,0.4c-1,0.5-2-0.4-1.7-1.3l-0.2,0.1c-0.6,0.3-1.5-0.2-1.2-0.9c0.3-0.5,0.5-1.1,0.7-1.6
					c-0.7-0.4-1-1.1-0.9-2c-0.1-0.5-0.3-0.9-0.4-1.4c-1.6,0.4-3.3-0.1-4.6-1.5c-2.1-2.3-1.2-5.1,0.4-7.4c-0.6-0.1-1.3-0.2-1.9-0.3
					c-1.8-0.2-1.5-2.9,0-3.4l4.4-1.3c-0.7-0.3-1.3-1.1-1.2-1.9c-0.4-0.5-0.6-1.3-0.1-2c-0.8-0.3-1.5-1.2-1.1-2.1
					c0.2-0.5,0.4-1,0.6-1.5c-0.6-0.1-1.1-0.4-1.4-0.8c-1,0.5-1.9,1.2-2.9,2c-0.5,0.5-1.3,0.5-1.9,0.3c-0.3,0.1-0.6,0-0.8,0
					c-1.2,0.7-2.4,1.1-3.8,1.5c-1.1,0.3-2.4-0.5-2.3-1.7c0-0.3,0.1-0.7,0.1-1c-1.3,0.5-2.5,1.2-3.7,2c-0.3,0.2-0.7,0.2-1,0.2
					c-2.9,1.6-5.7,3.1-8.6,4.7c-1.4,0.8-3.6-0.9-2.4-2.4c0.6-0.8,1.2-1.5,1.8-2.3c-0.4,0-0.7,0.1-1.1,0.1c-1.2,0.1-1.9-1.1-1.7-2.2
					c-0.4-0.2-0.7-0.5-0.9-0.9c-0.6,0.2-1.3,0.3-2,0.4c-1.8,0.3-2.8-1.6-1.7-3c0.7-0.9,1.2-1.8,1.6-2.7c-2.7,1.2-5.5,2.1-8.5,2.6
					c-2.1,0.4-3-2-1.4-3.2c1.1-0.9,2.3-1.8,3.5-2.7c0-0.5,0.1-0.9,0.5-1.4c0.1,0,0.1-0.1,0.2-0.2c0-0.1-0.1-0.2-0.1-0.3
					c-0.7,0.3-1.4,0.6-2.1,0.9c-1.6,0.6-3.1-1.9-1.7-3c0.4-0.3,0.8-0.7,1.2-1c-0.1,0-0.3-0.1-0.4-0.1c-0.3,0-0.5,0.1-0.8,0.2
					c-0.8,0.3-1.6-0.3-1.9-1c-0.3-0.1-0.6-0.3-0.8-0.5c-1.2,0.3-2.4,0.5-3.7,0.6c-0.1,0-0.2,0-0.3,0l0,0c-1.5,1.1-3-0.9-2.5-2.3
					c-0.5-0.5-0.7-1.3-0.3-1.9c0.3-0.5,0.6-1,0.9-1.5l0,0c-0.7,0.3-1.3,0.6-2,0.9c-0.1,0-0.2,0.1-0.3,0.2c-0.3,0.1-0.6,0.2-0.9,0.2
					c-2.1,0.8-4.2,1.5-6.4,2.1c-1.3,0.3-2.6-1.1-1.8-2.3c0.1-0.1,0.2-0.3,0.3-0.4c-0.1-0.2-0.2-0.4-0.3-0.6c-0.7,0.4-1.5,0.7-2.2,1
					c-0.6,0.2-1.1,0-1.5-0.4c-0.3,0.1-0.6,0.1-0.9,0.2c-0.2,0-0.5,0-0.7-0.1c-0.1,0.1-0.2,0.1-0.3,0.1c-0.8,0.1-1.6-0.7-1.4-1.4
					c-0.4-0.3-0.8-0.6-1.1-0.9c-1,0.2-2,0.3-3.1,0.4c-1,0-1.8-1.1-1.5-2s0.7-1.7,1.1-2.5c-1.5,0.2-3.1,0.4-4.6,0.5h-0.1
					c-1.2,0.7-2.4,1.4-3.6,2c-1.3,0.6-2.5-0.1-2.9-1.2c-1.3,0.7-2.7,1.3-4,1.9c-1.2,0.5-2.6-0.3-3-1.3c-0.7,0.1-1.3-0.2-1.6-0.7
					c-0.7,0.4-1.5,0.8-2.3,1.2c-0.6,0.4-1.3,0.1-1.7-0.3c-1.2,0.6-2.2,1.2-2.5,1.3c-3.5,1.6-7,3.3-10.5,5v0.1
					c-0.4,0.6-1.2,1-1.9,0.8l-0.4-0.2c-0.7-0.3-1.1-0.9-1.2-1.6c-0.4,0.2-0.9,0.1-1.2-0.3c-3.8,2.4-7.6,4.7-11.4,7.1
					c-0.2,0.4-0.5,0.8-0.8,1.1c-0.4,0.3-1,0.6-1.5,0.4l0,0c-0.9,0.6-1.8,0.3-2.4-0.4c-0.6,0.2-1.3,0.1-1.7-0.3
					c-0.2,0.2-0.5,0.4-0.7,0.6c0.1,0.1,0.2,0.2,0.3,0.4c0.5,0.2,0.9,0.7,0.6,1.3c-0.8,1.5-1.9,2.6-3.2,3.3c0.3,0.3,0.4,0.8,0,1.2
					s-0.7,0.8-1.1,1.2c0.9-0.2,1.6,1.1,0.7,1.6c-1.3,0.8-2.3,1.7-3.1,2.7c0.1,0,0.2-0.1,0.3-0.1c0.8-0.7,2,0.4,1.2,1.2
					c-0.4,0.5-0.8,0.9-1.2,1.4c0.3,0.3,0.3,0.7,0,1.1c-0.6,0.8-1.2,1.5-1.9,2.1c0.6,0.1,1.1,1,0.5,1.5c-1.3,1.1-2.3,1.7-3.9,2.1
					c-1,0.2-1.4-1.3-0.4-1.6c0.3-0.1,0.6-0.3,0.9-0.5c-0.5-0.4-0.4-1.2,0.1-1.5c0.6-0.5,1.2-0.9,1.7-1.4c-0.2-0.3-0.2-0.7,0.1-1.1
					c0.1-0.1,0.2-0.2,0.3-0.3c-0.5-0.2-0.7-0.8-0.5-1.3c0.3-0.7,0.6-1.2,1-1.8c-0.5-0.2-0.8-0.9-0.3-1.4c0.7-0.8,1.4-1.5,2.1-2.3
					c-0.2,0-0.5,0-0.7,0c-1.1,0.7-2.2,1.4-3.3,2c-0.9,0.4-1.8-0.7-1.1-1.4c1.6-1.5,3.2-2.8,4.8-4c0.6-0.7,1.3-1.4,2-2.1
					c-0.4-0.2-0.7-0.7-0.4-1.1c1.5-2.3,3-3.7,5.5-4.9c0.2-0.1,0.4,0,0.5,0.2c0.1-0.2,0.3-0.3,0.4-0.4c0-0.2,0-0.4,0.1-0.6
					c-0.6,0.3-1.3,0.1-1.8-0.3c-0.6,0.5-1.1,1.1-1.6,1.8c-1,1.3-3.7,0.6-3-1.3l1.1-2.9c-1.3,1.1-2.7,2.3-4,3.4
					c-0.6,0.5-1.7-0.2-1.2-0.9s1-1.5,1.5-2.2c-0.6,0.5-1.3,0.9-2.1,1.3c-0.7,0.3-1.6-0.4-1.1-1.1c1.4-2,2.9-3.9,4.5-5.7
					c0-0.2,0.2-0.5,0.5-0.7c0,0,0.1-0.1,0.2-0.1c0.6-0.6,1.2-1.3,1.8-1.9c-0.9,0.1-1.5-0.6-1.7-1.4c-0.3,0.3-0.5,0.5-0.8,0.7
					c-1.3,1.2-3.7-0.4-2.6-2c2.1-3.1,4.6-5.3,7.8-6.8c0.1-0.1,0.3-0.2,0.4-0.3c-0.3-0.3-0.3-0.7,0.1-1c1.8-1,3.5-2.1,5.2-3.1
					c1.6-1.2,3.3-2.4,5-3.6c0.1-0.1,0.1-0.1,0.1-0.1c0.9-0.8,1.8-1.4,2.8-1.9c5.2-3.5,10.6-6.8,16.1-9.8c1.9-1,3.4,1.7,1.7,2.9
					c-0.1,0.1-0.3,0.2-0.4,0.3l0,0c1.1-0.4,2.2-0.5,3.3-0.5c0.3,0,0.5,0,0.7,0s0.3-0.1,0.5-0.1c0.1-0.2,0.3-0.3,0.6-0.4
					c1.7-0.3,3.3-0.7,5-1c0-0.1,0.1-0.2,0.2-0.3c2.1-1.8,3.8-2.5,6.6-2.8c0.5-0.1,0.8,0.2,1,0.5c0.9-0.3,1.8-0.7,2.7-1.1
					c0.3-0.1,0.6-0.1,0.8,0c0.2,0,0.3-0.1,0.4-0.1c2.6-1.9,5.5-3.3,8.6-4.3c1.3-0.4,2,1.5,0.9,2.2c-0.9,0.5-1.9,1.1-2.9,1.6
					c0.1,0.2,0.1,0.5,0.1,0.7c1.4-0.6,2.7-1.2,4.1-1.9c0.4-0.2,0.9-0.5,1.4-0.7c1.4-0.7,2.6,1.3,1.2,2.1c-0.4,0.3-0.9,0.5-1.3,0.7
					c-0.9,0.6-1.7,1.1-2.4,1.8c2.3-0.6,4.4-1.5,6.6-2.6c1.5-0.7,2.7,1.4,1.3,2.1c-0.9,0.4-1.6,0.8-2.2,1.3c2.7-1,5.1-2.3,7.4-4.1
					c1.1-0.8,2.2,0.7,1.7,1.7c-0.8,1.5-1.5,2.9-2.3,4.3c0.6,0.1,1.1,0.1,1.7,0s1.2-0.3,1.8-0.4c0.8-0.3,1.6-0.8,2.4-1.4
					c0.9-0.7,2-0.1,2.2,0.7c0.5,0,1.1-0.1,1.7-0.1c0.5-0.1,1-0.3,1.5-0.4c0-0.1,0.1-0.1,0.1-0.1c0.2-0.1,0.5-0.1,0.7-0.1
					c0.3-0.1,0.5-0.1,0.8-0.2c2.7-3,5.7-5.7,9.1-8.1c1-0.7,1.9,0.1,2,1c1-0.7,2.8,0.1,2.3,1.6c1,1,2.1,1.9,3.1,2.8
					c1-0.5,1.9,0,2.2,0.9c1.2-0.6,2.5-1.1,3.8-1.5c0.7-0.2,1.3,0.1,1.8,0.5c2.6-1.5,5.3-2.6,8.3-3.4c1.3-0.4,2.5,0.8,2.4,2
					c0.8-0.4,1.5-0.8,2.3-1.2c1.2-0.6,3.1,0.3,2.8,1.8c0.3-0.1,0.5-0.1,0.8-0.2c0.7-0.2,1.4,0.1,1.8,0.5c1.9-0.8,3.9-1.4,6-1.8
					c1.1-0.3,2.5,0.7,2.4,1.9c1.2,0.4,1.8,1.9,0.8,3c0.5,0,1.1,0.1,1.6,0.2c1.1,0.2,1.7,1.8,1.1,2.7c-0.7,0.9-1.4,1.8-2.1,2.6
					c0.9,0.3,1.3,1.5,1,2.5c0.7,0.3,1.2,1.3,1,2.1c1,0,2.1,0,3.2,0.2c1.2,0.1,1.7,1.8,1.1,2.7c-0.4,0.5-0.7,1-1,1.6c0.7,0,1.3,0,2,0
					c0.9,0,1.6,1.3,0.8,2c-1.2,1-2.3,1.9-3.4,2.9c1.4,0.5,3,0.6,4.6,0.3c1.1-0.1,2.1,1.1,1.2,2.1c-0.3,0.3-0.6,0.6-0.9,0.9
					c0.5,0.4,0.8,1,0.7,1.6c0.4-0.1,0.8-0.2,1.3-0.2c1.2-0.1,2.2,1.3,1.8,2.4c0,0.2-0.1,0.3-0.1,0.4c0.4,0.1,0.7,0.4,1.1,0.7
					c0.8-0.3,1.7-0.4,2.7-0.5c1.3-0.1,2.4,1.7,1.6,2.8c-0.7,0.8-1.3,1.7-1.9,2.5c0.4,0.1,0.9,0.2,1.4,0.3c1,0.3,1.5,1.3,1.3,2.3
					c-0.3,1.1-0.6,2-1.1,2.8c0.1,0.2,0.2,0.4,0.3,0.6c0.3-0.1,0.5-0.1,0.8-0.2c0.6-0.2,1.2,0,1.6,0.3l0,0c1-0.9,2.6,0.3,1.9,1.5
					c-0.6,1.1-1.3,1.8-2.1,2.2c-0.4,0.8-0.9,1.5-1.3,2.3c0.2,0,0.4,0,0.6,0c0.9,0,2,0.8,1.9,1.9c-0.1,0.2-0.1,0.3-0.1,0.5
					c0.4-0.4,0.9-0.7,1.3-1.1c1.6-1.3,4.2,0.3,3.1,2.2c0.9,0.3,1.6,1.3,1.3,2.3c-1.2,3.8-3,7.3-5.4,10.4c0.3,0.6,0.4,1.4,0,2
					c-0.5,0.8-1.1,1.6-1.6,2.4c1.6-0.6,3,0.6,2.7,2.2c0,0.6-0.2,1.2-0.3,1.7c0,0,0.1,0,0.2,0c1.4-0.6,3,0.6,2.6,2.1
					c0.7,0.4,1.2,1.2,0.9,2.1c-0.8,3-2.2,5.6-4,7.9c0.6,0.2,1.2,0.8,1.2,1.6c0,0.5,0,0.9,0,1.3c0.7,0,1.3,0.5,1.3,1.2
					c-0.1,0.8-0.1,1.7-0.2,2.6c0,0.1,0,0.2,0,0.3c0.1,1.3-0.1,2.6-0.3,3.9c-0.2,3.5-0.5,7-0.7,10.5c0.3,0.3,0.4,0.6,0.4,1.1
					c-0.1,1-0.3,2-0.5,3c0.7,0.3,1.2,1,1.1,1.9c-0.1,0.1-0.1,0.2-0.1,0.3c0.9-0.2,2,0.7,1.7,1.7c0,0.1-0.1,0.2-0.1,0.3
					C309.4,206.6,310.3,207.3,310.7,208.3z"/>
				<g>
					<path class="st2" d="M309.9,206.5c0.7-2-0.7-3.5-2.6-3.8c0.3,0.6,0.7,1.2,1,1.8c0.3-1.4-0.4-3-0.6-4.4
						c-0.4-3.2,0.1-6.8,0.3-10.1c0.2-3.4,2.5-10.6-1.8-12.1c0.4,0.4,0.7,0.9,1.1,1.4c0-2.1-0.4-3-2-4.2c0.1,0.7,0.3,1.4,0.5,2.1
						c3.3-4.4,7.4-13.6-0.9-14.4c0.4,0.6,0.9,1.3,1.4,1.9c0.6-3.1,0-6.3-3.8-5.8c0.4,0.8,0.9,1.5,1.3,2.3c1.2-1.8,1.4-2.8,2-4.6
						c0.9-2.4,2.8-4.6,3.8-7c1.3-2.9,2.5-5.6-0.6-7.6c0.2,0.6,0.5,1.1,0.7,1.7c1.1-5.1-4-5.2-6.9-2.6c0.8,0.5,1.7,1,2.5,1.5
						c0.3-2.6-1.3-4.3-3.9-4.3c0.4,0.8,0.9,1.5,1.3,2.3c1.1-1.9,4.6-4.3,3.5-6.9c-0.8-1.8-3.1-2.1-4.5-0.9c0.6,0,1.2-0.1,1.8-0.2
						c-1.3-0.6-2.2-0.7-3.6-0.3c0.6,0.2,1.1,0.5,1.7,0.7c-0.1-0.1,1.2-3.1,0.8-4.1c-0.7-1.7-2-2.1-3.7-2.5c0.3,0.7,0.6,1.5,0.9,2.2
						c1.4-1.8,3.3-3.8,1.8-6.1c-1.7-2.5-3.9-0.3-5.9-1.5c0.2,0.6,0.5,1.1,0.7,1.7c1.3-3.5-2.1-4.8-4.8-4.4c0.6,0.3,1.2,0.7,1.8,1
						c-0.1-1.1-0.1-1.1-0.8-2c0,0.6-0.1,1.2-0.2,1.8c1.2-1.2,2.1-2.5,1.2-4.1c-1.3-2.2-4.7-1.1-6.8-1.7c0.3,0.8,0.5,1.7,0.7,2.5
						c1.5-1.3,4.6-3,4-5.4c-0.5-2.3-2.8-2.2-4.6-2.2c0.4,0.8,0.9,1.5,1.3,2.3c2.8-4.7,0.4-6.8-4.6-6.8c0.4,0.4,0.9,0.7,1.4,1.1
						c-0.2-1.8-1-4.1-2.4-5.3c0,0.7,0,1.4,0,2.1c3-3.6,4-7.4-1.7-8.1c0.4,0.6,0.9,1.3,1.4,1.9c0.9-2.5-0.5-5.7-3.1-6.7
						c-2.2-0.8-4.4,0.8-6.5,1.1c-1.3,0.2-2.6-0.1-4,0.2c0.6,0.3,1.2,0.7,1.8,1c-0.7-4.2-4.7-2.9-7.4-1.5c0.7,0.3,1.5,0.6,2.2,0.9
						c-1.1-4.5-5.2-3-8.5-1.7c-3.3,1.4-6.5,1.6-9.9,3.1c0.6,0,1.2,0.1,1.8,0.2c-1.3-1.4-1.2-0.8-2.6-1.6c-1.3-0.7-1.6-1.5-2.4-2.5
						c-1.2-1.5-2.2-2.1-4.1-1.5c0.6,0.2,1.1,0.5,1.7,0.7c-2.3-5.4-9.1,2.4-11.1,4.3c-1.2,1.1-1.9,2.2-3.5,2.7
						c-4.9,1.4-0.4,0.2-2.3-0.1c-3.5-0.5-4.5,1.7-8.4,1.7c0.4,0.8,0.9,1.5,1.3,2.3c1-1.8,4.3-6,1.4-7.9c-2.7-1.8-7.5,2.9-9.9,3.8
						c0.4,0.9,0.8,1.8,1.2,2.7c1.7-1.2,4.8-2.5,3-5.1c-2.2-3.2-7.6,0.8-9.9,1.5c0.5,0.8,1,1.7,1.5,2.5c1.6-1.4,6.6-3.2,4.2-6.2
						c-2.2-2.8-6.8,0.9-9,1.9c0.8,0.4,1.5,0.9,2.3,1.3c0,0.6,3.1-1.9,3.3-2.6c0.3-1-0.2-2.3-1-2.9c-2.6-2-7.7,2-9.9,3.1
						c-3.3,1.6-6.4,1-9.7,2.5c-2.4,1.1-3.7,2.2-6.3,2.8c-0.9,0.2-5.4,1.6-5.7,1.4c0,0.9,0,1.7,0,2.6c3.5-2.5,1.3-7.1-2.8-5.8
						c-4.9,1.6-10.2,6-14.5,8.8c-3.5,2.2-6.7,4.8-10.1,7c-1.2,0.9-3.8,1.8-4.8,3c-0.3,0.4-0.5,1.6-0.7,1.8c-0.4,0.4-2.5,1.1-3.5,1.9
						c-1.4,1.2-2.9,2.5-3.9,4.1c-2.5,4.2,2,6.7,5.3,3.8c-0.8-0.1-1.6-0.2-2.4-0.3c0.8,1.4,1.1,1.6,2.6,2.1c-0.3-0.8-0.5-1.7-0.7-2.5
						c-2,2.2-8,7-7.5,10.2c0.4,3.3,3.9,1.5,5.5,0.5c-0.7-0.7-1.4-1.4-2.1-2.1c-1,1.5-3,3.7-0.8,5.1c2.4,1.6,5.3-2.3,6.8-3.6
						c-0.8-0.5-1.7-1-2.5-1.5c-0.7,1.9-2.1,4.3-0.2,6c2.5,2.2,4.7-0.5,6.2-2.2c-0.6,0-1.2,0.1-1.8,0.2c1.1,0.6,1.3,0.6,2.6,0.5
						c-0.4-0.6-0.9-1.3-1.4-1.9c0.1-0.2,1.5-0.5,0.1-0.3c-0.5,0.1-1.1,0.6-1.5,0.8c-1.3,0.8-2.5,1.9-3.5,3c-1.3,1.5-2.4,3.1-0.8,4.7
						c0-0.7,0-1.4,0-2.1c-1.7,1.6-8.3,5.5-7.3,8.5c1.2,3.9,4.8-0.4,6.6-0.4c-0.4-0.9-0.7-1.7-1.1-2.6c-1.7,1.8-3.8,3.5-1.7,5.8
						c0-0.6-0.1-1.2-0.2-1.8c-1,1.7-1.9,3.4-0.2,4.9c0-0.7,0-1.4,0-2.1c-0.4,0.4-0.5,1.3-0.9,1.6c-0.1,0.3-0.1,0.5,0,0.8
						c-0.4-0.1-0.7,0.1-1,0.3c-0.9,1.4-1.2,1.8-0.5,3.4c0.1-0.7,0.3-1.4,0.5-2.1c-1.7,1-3.3,3.1-1.1,4.6c2.3,1.6,6.4-1.5,6.9-3.7
						c0.1-0.5,0-1.1-0.4-1.5c-0.2-0.2-0.5-0.4-0.7-0.6c0,0.7,0,1.4,0,2.1c1.4-1.5,1.8-2.3,2.6-3.8c0.3-0.7,1.2-1.5,1.2-2.6
						c0-2.3-2.2-2.6-3.9-1.8c0.6,0.8,1.2,1.6,1.8,2.4c1.3-1.5,7-5.6,1.8-6.8c0.3,0.8,0.5,1.7,0.7,2.5c1.4-1.4,2.3-2.3,1.4-4.2
						c-0.1,0.7-0.3,1.4-0.5,2.1c2.8-2,5-4.1,2.8-7.1c-0.1,0.7-0.3,1.4-0.5,2.1c0.3-0.2,4.6,0.5,5.7,0.2c0.9-0.3,3.2-2.5,3.2-2.5
						c1.5-1.1,3.3-2,4.9-3c2.1-1.3,3.2-2.3,5.3-2.5c-0.4-0.4-0.9-0.7-1.4-1.1c1.6,3.9,4.2,2.7,6.9,1.1c2.9-1.7,7.5-4.4,10.8-5.1
						c2-0.4,3.1-0.3,5.2-1.4c-0.6,0-1.2-0.1-1.8-0.2c3.6,3.3,6.1,2.4,10.4,0.4c-0.7-0.1-1.4-0.3-2.1-0.5c1.2,1.8,2.5,2.5,4.6,1.9
						c1.2-0.3,2.2-1.5,3.3-1.9c1.3-0.5,3.5-0.3,5-0.5c-0.6-0.7-1.1-1.5-1.7-2.2c-0.9,1.8-2.3,4.3-0.3,6c1.3,1.2,3.6,0.5,5,1.2
						c1.6,0.8,1.8,1.3,3.8,1.4s3.2-0.1,5.1-1c-0.7-0.1-1.4-0.3-2.1-0.5c-0.5-0.9-0.5,1.5-0.2,2.2c0.5,1.3,1.6,1.7,2.8,1.8
						c3.3,0.4,7.7-2.2,10.7-3.6c-0.8-0.4-1.5-0.9-2.3-1.3c0,0.8-0.9,1.5-1,2.6c-0.1,0.6,0.2,1.7,0.4,2.2c0.5,1.3,1.2,2.6,2.7,2.8
						c2.2,0.2,2.1-1.2,4.5-0.7c0.7,0.2,1.2,0.9,1.9,1.1s1.7-0.2,2.3,0c-0.3-0.8-0.5-1.7-0.7-2.5c-1.7,1.5-3,3.3-1.4,5.4
						c1.5,2,3.6,1.1,5.5,0.3c-0.6-0.2-1.1-0.5-1.7-0.7c0,0.1,0.1,0.2,0.1,0.3c0-0.6,0.1-1.2,0.2-1.8c-0.7,0.7-0.9,1.6-1.6,2.3
						c-0.8,0.8-2,1.2-2.7,2c-0.9,1.1-1.5,2.1-1,3.6c1.6,4.7,9.7,0.6,12.3-0.5c-0.6-0.7-1.1-1.5-1.7-2.2c-1.3,2.4-4.3,6.6,0.2,7.8
						c0.1,0,2.5-0.2,2.6-0.1c0.3,0.1,0.3,1.1,0.6,1.4c1.3,1.1,1.8,1.5,3.7,1.3c-0.4-0.8-0.9-1.5-1.3-2.3c-1.6,2.1-3.9,6.4,0.7,7.1
						c2.3,0.3,4.6-1.7,6.4-2.7c3-1.6,6-3.2,9-4.6c-0.8-0.4-1.5-0.9-2.3-1.3c-0.6,8,10.7,2.2,13.8,0.2c-0.6,0-1.2-0.1-1.8-0.2
						c0.8,0.6,1.2,0.8,2.1,1.2c-0.3-0.6-0.7-1.2-1-1.8c-1.2,2.8,0,7.4,2.5,9.2c0.2-0.9,0.3-1.8,0.4-2.7c-2,0.6-5.1,0.9-6.2,2.9
						c-1.7,3.1,1.2,4.6,3.8,5c-0.3-0.7-0.6-1.5-0.9-2.2c-3,4.9-1.4,11.8,5.5,11.1c-0.4-0.4-0.9-0.7-1.4-1.1c0.6,1.9,0.4,2.7,0.6,4.2
						c0.1,0.6-0.1,1.2,0.2,1.8c0.7,1.2,2.2,1.3,3.3,0.8c-0.8-0.4-1.5-0.9-2.3-1.3c0.2,2.8,2.4,3.5,4.7,2.2c-0.7-0.3-1.5-0.6-2.2-0.9
						c0.2,1.4,0.5,1.6,1.6,2.4c-0.2-0.6-0.5-1.1-0.7-1.7c-1.2,2.9-1.7,5.8,0.7,8.5c0.1-0.8,0.2-1.6,0.3-2.4c-1.8,0.9-4.9,2.5-4.2,5
						c0.4,1.6,2.1,2.3,3.6,1.7c-0.7-0.7-1.4-1.4-2.1-2.1c-0.6,1.1-0.8,1.2-0.6,2.5c0.2-0.6,0.5-1.1,0.7-1.7
						c-1.5,0.9-3.5,1.8-2.8,3.9c0.4,1.4,2,2,3.4,1.7c-0.6-0.4-1.3-0.9-1.9-1.4c0.1,1.9-4.5,2-3.7,5.1c0.5,1.9,2.2,2.3,3.8,1.6
						c-0.7-0.1-1.4-0.3-2.1-0.5l0,0c0.4,0.7,1.5,0.9,2.1,0.5c0.6-0.5,2.3-1.3,2.9-1.5c-0.5-0.8-1-1.7-1.5-2.5
						c-1,0.8-1.4,2.2-0.6,3.4c1.2,1.8,3.2,1,4.8,0.6c-0.6-0.6-1.2-1.2-1.8-1.8c-0.9,2.6-6,3.5-6.2,6.7c-0.2,2.8,2.5,3,4.5,2.2
						c-0.5-0.8-1-1.7-1.5-2.5c-1.3,1.1-2.5,3-0.8,4.5c0.5,0.4,1.4,0.5,2.1,0.5c1.4-0.1,3-2.1,3.9-2.2c-0.4-0.6-0.9-1.3-1.4-1.9
						c-0.8,2.3-8.1,6.1-3.3,8.6c-0.1-0.8-0.2-1.6-0.3-2.4c-3.4,2.9,0.8,5.1,3.6,4.1c-0.6-0.7-1.1-1.5-1.7-2.2
						c-1.5,2.2-7.6,5.9-6.6,8.9c0.6,1.9,2.7,2.1,4,1c-0.7,0-1.4,0-2.1,0l0,0c0.5,0.6,1.6,0.5,2.1,0c2.5-2.5,5.1-5,7.7-7.3
						c-0.8-0.5-1.7-1-2.5-1.5c-0.3,0.8-0.5,1.1-0.5,1.9c0,0.6,0.5,1.3,1.1,1.4c0.8,0.2,1.1-0.1,1.8-0.3c-0.5,0.2,2.3-1.2,2.2-1.1
						c0.7-0.7,0.4,0.2-0.5-0.3c-0.1-0.8-0.2-1.6-0.3-2.4c-2.1,2.5-6.4,6.3-7.4,9.5c-0.4,1.2-0.4,2.5,0.8,3.3
						c3.3,2.1,11.1-4.4,13.8-5.9c-0.7-0.3-1.5-0.6-2.2-0.9c1.8,4.5,6.5,0.7,8.9-1.2c-0.9-0.4-1.7-0.7-2.6-1.1
						c-0.1,2.2-0.7,5.6,2.5,5.6c2.5,0,2.7-2.3,2.9-4.3c0.2-2.1,0.2-3.3,1.3-5c1.3-1.9,2.6-3.6,3.5-5.8c1-2.3,1-4.4-1.8-5
						c-1.9-0.4-2.7,2.5-0.8,2.9c1.3,0.3-4.3,6.6-4.6,7.2c-0.3,0.7-0.2,1.6-0.3,2.4c0,1,0.1,5.9,0.4,2.1c0.1-1.5-1.7-1.8-2.6-1.1
						c-0.3,0.2-4.1,2.1-3.9,2.5c-0.4-0.9-1.3-1.4-2.2-0.9c-2.5,1.3-4.8,2.9-7.3,4.2c-2.4,1.3-2,1.3-1-0.5c1.1-2.1,3.2-4.1,4.7-5.9
						c0.6-0.8,0.6-1.9-0.3-2.4c-0.6-0.3-1.4-0.2-2.1-0.1c-0.2,0-3.1,1.3-2.1,1.5c0.4,0.4,0.7,0.9,1.1,1.4c0.1-0.3,0.3-0.7,0.4-1.1
						c0.6-1.6-1.5-2.4-2.5-1.5c-2.6,2.4-5.2,4.8-7.7,7.3c0.7,0,1.4,0,2.1,0l0,0c-0.5-0.7-1.5-0.5-2.1,0c1.5,0.1,2.6-0.5,3.4-1.6
						c0.7-0.5,1.3-1.1,1.8-1.7c0.8-0.9,1.5-1.9,2.2-2.9c0.7-1.1-0.5-2.6-1.7-2.2c-0.2,0.4-0.4,0.7-0.6,1c0.7-0.6,0.5-2-0.3-2.4
						c0.5,0.2,3.1-2,3.5-2.6c0.6-0.7,0.9-1.7,1.2-2.6c0.4-0.9-0.5-2-1.4-1.9c-0.3,0-0.5,0.1-0.8,0.2c-1.1,0.3-2.1,1.9-2.3,2.1
						c1-1-0.1-3-1.5-2.5c1.8-0.7,4.6-2.8,5.4-5.2c0.4-1.1-0.7-2.1-1.8-1.8c-1.7-0.1-2.1,0.2-1.2,1c1.1-0.9-0.1-3-1.5-2.5
						c-1.3,0.4-2.6,1.1-3.7,1.8c0.7,0.1,1.4,0.3,2.1,0.5l0,0c-0.4-0.8-1.4-0.8-2.1-0.5c2.7-1.1,4.7-0.6,4.4-4.1
						c-0.1-0.9-0.9-1.6-1.9-1.4c0.3,1,0.8,0.9,1.7-0.2c0.6-0.4,0.8-1,0.7-1.7c0,0.3,0.2-0.1,0.3-0.2c0.8-1.5-0.8-2.7-2.1-2.1
						c1.3-0.3,2.5-0.8,3.7-1.4c0.9-0.5,0.9-1.7,0.3-2.4c-1.2-1.4-0.5-4.1,0.1-5.6c0.3-0.7-0.2-1.3-0.7-1.7c-0.1-0.2-0.1-0.4-0.2-0.6
						c-0.1-1-1.4-1.3-2.2-0.9c-0.1,0.1-0.1,0.3-0.2,0.4c-0.2-1.2-1.2-1.8-2.3-1.3c0.5-0.3,1-0.5,1.5-0.8c0.2-0.5-0.1-1.1-0.4-1.5
						c-0.4-0.4-0.8-2.3-0.9-2.7c-0.1-0.6-0.7-1.2-1.4-1.1c-3.8-2.1-4.8-4.3-2.9-6.6c0.5-0.7,0.1-2.1-0.9-2.2
						c-4.1-0.6,1.5-1.8,2.5-2.1c1.4-0.4,1.4-2,0.4-2.7c-0.5-0.6-0.7-1.4-0.6-2.2c0.1-0.5,0-1.2-0.4-1.5c0-0.7-0.1-1.5-0.1-2.2
						c0.4-0.8-0.3-1.5-1-1.8c-0.2-0.1-0.5-0.3-0.7-0.4c-0.5-0.4-1.2-0.6-1.8-0.2s-9.5,4.4-9.3,2.4c0.1-1.2-1.4-1.7-2.3-1.3
						c-2.2,1-4.3,2.1-6.4,3.2c-1,0.5-8.2,4.5-5.5,1c0.7-0.9-0.2-2.4-1.3-2.3c-1.2,0.2-1.8-2.3-2.9-2.7c-0.1-0.1-1.2-0.2-1.2-0.2
						c-1,0.6-1.3,0.4-1.1-0.7c-0.3-0.8-0.1-1.6,0.6-2.3c0.5-1-0.4-2.7-1.7-2.2c-1.3,0.6-8.3,3.7-6.9,0.8c0.4-0.7,1.6-1,2.1-1.6
						c0.3-0.4,0.4-1.3,0.7-1.6c0.4-0.5,0.5-1.2,0.2-1.8c0-0.1-0.1-0.2-0.1-0.3c-0.3-0.5-1.1-0.9-1.7-0.7c-1,0.8-1.4,0.6-1.2-0.6
						c0.8-0.7,0.3-2.2-0.7-2.5c-2.7-0.6-4-1.4-6.9-0.9c-3.5,0.6-2-1.5-1.7-4.1c0.1-1.2-1.4-1.7-2.3-1.3c-1.2,0.5-2.4,1-3.6,1.5
						c-0.6,0.3-5.3,1.2-5.4,1.3c0.3-0.4,0.2-1,0-1.5c-0.1-0.2-0.2-0.4-0.3-0.6c-0.4-0.7-1.4-0.8-2.1-0.5c-1.4,0.6-4,0.5-4.8,0.1
						c-0.4-0.3-4.7-3.6-4.7-3.7c0.6-1.3-0.4-2.4-1.7-2.2c-1.4,0.2-3.3,0.1-4.7,0.5c-0.9,0.2-3.9,2.8-4.8,1.5
						c-0.5-0.7-1.3-0.9-2.1-0.5c-2.2,1-4.8,1.8-6.8,0.1c-0.5-0.4-1.2-0.5-1.8-0.2c-1.5,0.8-2.4,0.3-3.7,0.7
						c-1.3,0.3-2.6,1.3-3.8,1.9c-1.5,0.7-10.4,5.8-10.9,4.6c-0.2-0.6-0.7-1.2-1.4-1.1c-0.1,0-0.3-0.1-0.4-0.1
						c-0.4-0.3-1.1-0.3-1.5,0c-3.8,2.4-7.8,4.6-11.5,7.2c-1.5,1-2.8,1.6-4.8,0.6c-0.4-0.2-1.1-0.3-1.5,0c-0.2,0.2-0.5,0.4-0.7,0.6
						c-0.5,0.5-1,1.4-0.5,2.1c1,1.4,1.1,1-1.8,3c-0.7,0.6-0.9,1.3-0.5,2.1c-0.3,0.2-0.6,0.4-0.9,0.6c-0.7,0.8-0.5,2.2,0.7,2.5
						c-1.6-0.4-1.9,0.4-3.1,1.7c-1.2,1.3,0.3,3.2,1.8,2.4c-2.6,1.3-0.7-0.1-2,1c-0.3,0.3-1.1,1.9-1.6,2.4s-0.6,1.6,0,2.1
						c-0.4,0.6-0.7,1.1-1.1,1.7c0.7-0.5,0.8-1.4,0.5-2.1c0.2,0.4,1.9-1.3,1.6-1c0.4-0.4,0.6-1,0.4-1.5l0,0c0.5-0.6,0.6-1.5,0-2.1
						c0.2-0.4,0.4-0.8,0.7-1.2c0.4-0.6,0.2-1.3-0.2-1.8c0.7-0.4,1.3-0.9,1.7-1.6c0.8-1,0.2-2.6-1.1-2.6c-1.1,0-3.9,1.7-3.2,1.8
						c1.8,0.2,4.6-3.4,6-4.8c0.6-0.5,0.6-1.5,0-2.1c0.1,0.1,3.8-3.4,4.2-3.3c0.6,0.2,1.1,0,1.5-0.4c0.5-0.5,0.7-0.8,0.9-1.6
						c0.2-0.9-0.4-2-1.4-1.9c-0.4,0-0.7-0.1-1.1-0.1c-0.6-0.3-1.3-0.3-1.8,0.2c-2.3,2.6-1.8,1.4-1-0.8c0.6-1.6-1.5-2.4-2.5-1.5
						c-0.9,0.8-1.8,1.5-2.7,2.3c0.4,1.4,0.9,1.3,1.4-0.1c0.8-1.3-0.9-2.9-2.1-2.1c-2.5,1.6,0.9-0.6,1.4-1.1c0.7-0.6,1.3-1.5,1.9-2.2
						c0.8-0.8,1.6-1.7,2.4-2.6c0.8-0.8,0.4-2.2-0.7-2.5c-0.3-0.2-0.5-0.5-0.8-0.7c-0.5-0.9-1.7-0.9-2.4-0.3c0.2-1.2,0.8-2,1.7-2.7
						c0.8-0.8,1.7-1.4,2.6-2c0.9-0.5,1.8-0.9,2.6-1.6c0.4-0.4,0.6-1,0.4-1.5c0.2,0.4,10.7-6.8,11.8-7.6c2.8-1.9,5.7-3.7,8.6-5.5
						c2.5-1.5,5.7-2.5,7.9-4.1c-0.9,0.7-1,2,0,2.6c1.4,0.9,4.1,0,5.7-0.4c1.5-0.3,4.2-0.7,5.6-1.4c1.2-0.5,1.9-1.5,3.1-2.1
						c2.7-1.3,5.3-0.2,8.3-1.6c1.2-0.6,2.2-1.4,3.4-2c1.1-0.6,6.5-3.5,2.4-1.3c-0.4,0.2-0.8,0.8-0.7,1.3c0,0.2,0.1,0.5,0.1,0.7
						c0.2,1.2,1.2,1.8,2.3,1.3c0.8-0.4,3.7-2.2,4-2.2c-0.7,0-1.9,1-2.8,1.7c-1.1,0.9,0.1,2.9,1.5,2.5c1.2-0.4,2.5-0.7,3.7-1.3
						c0.9-0.5,3-2.1,0.8-0.7c-1.3,0.9-0.5,3.4,1.2,2.7c1.6-0.6,3.3-1.9,4.9-2.3c0.5-0.8,1-1.1,1.7-0.9c-0.5,0.9-1,1.9-1.5,2.8
						c-0.5,1,0.1,2.3,1.3,2.3c0.3,0,7.3-1.2,6.8-1.9c0.3,0.4,0.8,0.7,1.3,0.7c1.6-0.2,4.1-0.3,5.5-1.2c1-0.6,8.7-8.6,9.1-7.6
						c0.3,0.6,1.1,0.9,1.7,0.7c0.1,0,2.2,2.4,2.4,2.6c0.7,0.6,3.2,1.7,3.7,2.3c0.4,0.5,1.2,0.5,1.8,0.2c2.1-0.9,3.6-0.4,5.4-0.9
						c1-0.3,8-4.7,8.6-2.3c0.2,1,1.4,1.3,2.2,0.9c0.9-0.8,1.9-0.9,3-0.3c0.1,0.8,1.1,1.2,1.8,1c1.1-0.2,1.4,0.5,2.2,0.4
						c0.9-0.1,1.8-0.6,2.6-0.9c1.1-0.4,6.5-1,5.2,2.1c-0.5,1,0.6,1.8,1.4,1.9c-0.1,1-0.3,2-0.4,3c-0.5,0.6-0.7,1.5,0,2.1
						c0,0.1,1.6,3.9,1.6,4c0,0.6,0.8,1.1,1.4,1.1c1.8-0.5,2.5,0.3,2.1,2.3c-0.6,1,0.2,2.3,1.3,2.3c2.3,0-0.8,1.7-1.6,2.4
						c-0.8,0.7-0.3,2.2,0.7,2.5c0.6,0.2,4,1.1,4.3,0.8c-0.4,0.4-0.6,1.3-0.2,1.8c0.2,0.5,0.3,0.9,0.5,1.3c0.1,0.8,1.1,1.1,1.8,1
						c0.3,0.2,0.7,0.5,1.1,0.7c-0.2,0.6,0.2,1.4,0.7,1.7c1.7,1.1,4.7,1.1,3,3.5c-0.6,0.8,0,2,0.9,2.2c0.4,0.1,0.5,4.3,1.1,5.3
						c0.4,0.6,1,0.9,1.7,0.7c0.4,0,0.9,0,1.3,0c0.6,0.3,1.3,0.3,1.8-0.2c-2.1,1.9-2.4,1.7-3.8,4.2c-0.5,1,0.1,2.3,1.3,2.3
						c0.3,0.2,0.7,0.3,1,0.5c-0.2,1.5,1.3,2.6,2.5,1.5c0.6-0.2,1.2-0.3,1.8-0.4c-0.1,0.7,0.1,1.3,0.7,1.7c2.2,1.5-3.4,8.5-4.2,10.1
						c-0.8,1.6-0.9,3.4-2,5c-0.6,0.9,0.2,2.4,1.3,2.3c0.3,0.7,0.6,1.3,0.9,2c-0.3,1,0.4,1.8,1.4,1.9c4.5,0.4-0.5,8.2-1.7,9.9
						c-0.6,0.7-0.1,1.7,0.5,2.1c0.2,0.5,0.3,1.1,0.5,1.6c0,0.6,0.5,1.2,1.1,1.4c0.9,0.3-0.7,19.3-1,20.8c-0.1,0.5,0,1.2,0.4,1.5
						c0.3,0.2,0.5,0.5,0.7,0.7c-0.2,0.7,0.1,1.7,1,1.8c0.1,0,0.3,0.1,0.5,0.1C306.5,208.1,309.4,208.8,309.9,206.5z"/>
				</g>
			</g>
			<g>
				<path class="st1" d="M310.1,149.3c-0.1,0.2-0.2,0.5-0.3,0.7c-0.5,0.8-1.1,1.7-1.6,2.5c1.6-0.7,3.1,0.6,2.8,2.3
					c-0.1,0.6-0.3,1.1-0.4,1.7c0,0,0.1,0,0.2,0c1.4-0.6,3.1,0.6,2.7,2.2c0.7,0.4,1.2,1.3,0.9,2.2c-0.9,3.1-2.3,5.8-4.2,8.2
					c0.7,0.2,1.3,0.9,1.3,1.7c0,0.4,0,0.9,0,1.3c0.7,0,1.4,0.5,1.4,1.3c-0.1,1-0.1,1.9-0.2,2.8c0,0.1,0,0.2,0,0.3
					c0.1,1.4-0.1,2.8-0.3,4.1c-0.2,3.6-0.5,7.3-0.7,10.9c0.3,0.3,0.4,0.6,0.4,1.1c-0.1,1.2-0.3,2.2-0.5,3.2c0.7,0.2,1.2,1,1.1,1.9
					c-0.1,0.1-0.1,0.2-0.1,0.3c1-0.2,2.1,0.7,1.8,1.8c0,0.1-0.1,0.2-0.1,0.3c0.9-0.1,1.9,0.7,1.5,1.7c-1.1,2.7-2.4,5-4.2,7.3
					c-0.2,0.3-0.6,0.4-0.9,0.4c0,0.1-0.1,0.3-0.2,0.4c-0.2,2.3-0.3,4.6-0.5,6.9c-0.1,1.7-2.7,1.7-2.6,0c0.1-1,0.1-2,0.2-3
					c-0.6,0.5-1.3,1-1.9,1.5c-0.3,0.2-0.6,0.3-0.9,0.2l-2,1.3c-0.8,0.5-1.9-0.3-1.9-1.1c-1.4,0.9-2.9,1.7-4.3,2.5
					c-0.1,0.1-0.3,0.2-0.4,0.2s-0.1,0.1-0.2,0.1c-2.2,1.5-4.5,2.7-7,3.5c-1.1,0.4-1.6-1-1-1.8c2.5-3,4.8-6.2,7.4-9.2l-0.1-0.1
					c-0.1,0.1-0.2,0.1-0.3,0.2c-0.6,0.2-1.1,0.2-1.5-0.1c-0.3,0.5-0.9,1-1.7,1.6c-0.2,0.1-0.5-0.3-0.3-0.5c0.2-0.4,0.3-0.8,0.5-1.2
					c-1,0.8-1.9,1.7-2.8,2.5c-1.6,1.8-3.3,3.5-5.3,5l0,0c-0.1,0.1-0.1,0.1-0.2,0.2c-0.9,0.7-2-0.8-1.2-1.6c1.3-1.3,2.7-2.5,4.1-3.7
					c0.9-1,1.7-2.1,2.5-3.2c-0.5,0.2-1,0.3-1.6,0.5c-0.9,0.2-1.8-1.1-1-1.8c0.2-0.2,0.3-0.3,0.5-0.4c-0.7-0.1-1.2-1-0.6-1.8
					c1.1-1.4,2.4-2.4,3.8-3.2c0.3-0.4,0.5-0.8,0.7-1.3c0-0.3,0.1-0.6,0.3-0.9c-0.1,0-0.1,0-0.1,0c-1.2,0.9-2.6,1.7-4.2,2.3
					c-1.1,0.4-1.8-1.1-1.1-1.8c0.4-0.4,0.7-0.6,1-0.9c-0.4,0.2-0.9,0.3-1.4,0.5c-1.1,0.4-1.8-1-1.1-1.8c1.4-1.5,2.8-2.7,4.5-3.6
					c0-0.4,0.1-0.8,0.5-1.2c0.3-0.4,0.7-0.7,1.1-1.1v-0.1c-0.6,0.1-1.2,0.3-1.8,0.4c-1.1,0.6-2.4-1-1.4-1.8c0.1-0.1,0.2-0.2,0.3-0.3
					c-0.3,0.1-0.5,0.2-0.8,0.3c-0.8,0.5-1.6,1-2.6,1.4c-0.1,0-0.2,0.1-0.3,0.1c-1.4,0.5-1.9-1.5-0.9-2.2c1.1-0.8,2.2-1.4,3.3-1.8
					c0.2-0.5,0.2-1.1,0.1-1.8c-0.1,0.1-0.2,0.1-0.3,0.1c-1.2,0.2-2.2-1.5-0.9-2.1c0.1,0,0.2-0.1,0.3-0.1c0.5-0.3,0.9-0.6,1.4-0.9
					c-0.3-0.5-0.2-1.1,0.4-1.4c0-0.1,0-0.1,0-0.1h-0.1c-1.1,0.4-1.9-1.2-1.1-2c1.1-1.1,2.2-1.8,3.5-2.3c-0.7-0.4-1.2-1.3-0.8-2.1
					c-0.7-0.6-1-1.9-0.2-2.7c0.1,0,0.1-0.1,0.2-0.1c0-0.9,0.2-1.7,0.6-2.4c-0.6-0.1-1.1-0.9-0.9-1.5c-0.2,0.1-0.5,0.3-0.8,0.4
					c-1,0.5-2-0.5-1.7-1.4l-0.2,0.1c-0.6,0.3-1.5-0.1-1.2-0.9c0.2-0.6,0.5-1.1,0.7-1.7c-0.7-0.4-1-1.2-0.9-2.1
					c-0.1-0.5-0.3-0.9-0.4-1.4c-1.6,0.4-3.5-0.2-4.8-1.6c-2.2-2.4-1.3-5.3,0.4-7.7c-0.7-0.1-1.3-0.2-2-0.3c-1.9-0.3-1.6-3.1,0-3.6
					l4.5-1.3c-0.8-0.2-1.4-1-1.3-1.9c-0.5-0.6-0.6-1.4-0.1-2.1c-0.9-0.3-1.6-1.3-1.2-2.2c0.2-0.6,0.4-1.1,0.6-1.6
					c-0.7-0.1-1.1-0.4-1.5-0.8c-1,0.5-2,1.2-3,2.1c-0.6,0.5-1.4,0.5-2,0.3c-0.3,0.1-0.5,0-0.8,0c-1.2,0.7-2.5,1.2-4,1.6
					c-1.1,0.3-2.5-0.6-2.4-1.8c0-0.3,0.1-0.7,0.1-1c-1.3,0.6-2.5,1.3-3.8,2.1c-0.3,0.2-0.7,0.2-1,0.2c-3,1.7-6,3.3-9,4.9
					c-1.4,0.8-3.7-0.9-2.5-2.5c0.6-0.8,1.2-1.6,1.8-2.4c-0.4,0-0.7,0.1-1.1,0.1c-1.3,0.1-2-1.2-1.8-2.3c-0.4-0.2-0.7-0.5-0.9-0.9
					c-0.7,0.1-1.4,0.3-2.1,0.4c-1.9,0.3-3-1.6-1.8-3.1c0.7-0.9,1.3-1.8,1.7-2.8c-2.8,1.3-5.7,2.2-8.8,2.7c-2.1,0.4-3.1-2-1.4-3.3
					c1.2-0.9,2.5-1.9,3.7-2.8c-0.1-0.4,0.1-0.9,0.5-1.4c0.1,0,0.1-0.1,0.2-0.2c0-0.1-0.1-0.2-0.1-0.3c-0.7,0.3-1.5,0.6-2.2,0.9
					c-1.7,0.7-3.2-2-1.8-3.1c0.4-0.4,0.8-0.7,1.2-1.1c-0.1,0-0.3,0-0.4-0.1c-0.3,0-0.5,0.1-0.8,0.2c-0.9,0.2-1.7-0.3-2-1.1
					c-0.3-0.1-0.6-0.3-0.8-0.5c-1.3,0.3-2.5,0.5-3.9,0.6c-0.1,0-0.2,0-0.3,0c-1.6,1.2-3.2-0.9-2.6-2.4c-0.5-0.5-0.7-1.3-0.3-2
					c0.3-0.5,0.6-1.1,0.9-1.6c-0.6,0.3-1.3,0.6-2,0.9c-0.2,0-0.3,0.1-0.4,0.2c-0.3,0.2-0.6,0.3-0.9,0.3c-2.2,0.9-4.4,1.6-6.7,2.2
					c-1.3,0.3-2.6-1.2-1.8-2.4c0.1-0.1,0.2-0.3,0.3-0.4c-0.1-0.2-0.2-0.4-0.3-0.6c-0.8,0.4-1.5,0.7-2.3,1c-0.5,0.2-1.1,0-1.5-0.4
					c-0.3,0.1-0.6,0.1-0.9,0.2c-0.3,0-0.6,0-0.8-0.1c-0.1,0.1-0.2,0.1-0.3,0.1c-0.9,0.2-1.7-0.6-1.5-1.4c-0.5-0.2-0.9-0.5-1.2-0.9
					c-1.1,0.2-2.2,0.3-3.3,0.4s-1.9-1-1.6-2c0.4-0.9,0.8-1.8,1.2-2.6c-1.6,0.2-3.2,0.4-4.8,0.5c-0.1,0-0.1,0-0.2,0
					c-1.2,0.7-2.4,1.4-3.7,2.1c-1.3,0.7-2.6-0.1-3-1.2c-1.4,0.6-2.8,1.3-4.2,1.9c-1.2,0.6-2.7-0.2-3.1-1.3c-0.6,0.2-1.3-0.2-1.6-0.7
					c-0.8,0.5-1.6,0.9-2.4,1.3c-0.7,0.3-1.4,0-1.8-0.4c-1.4,0.7-2.4,1.2-2.7,1.4c-3.6,1.8-7.3,3.5-10.9,5.3v0.1
					c-0.3,0.6-1.2,1.1-1.9,0.8l-0.5-0.2c-0.7-0.2-1.1-0.9-1.2-1.6c-0.4,0.3-0.8,0.1-1.2-0.3c-4,2.5-7.9,4.9-11.9,7.4
					c-0.3,0.4-0.5,0.8-0.9,1.1c-0.4,0.3-1,0.6-1.6,0.4c-0.9,0.5-1.9,0.2-2.5-0.5c-0.7,0.3-1.4,0.1-1.8-0.3c-0.3,0.2-0.6,0.4-0.8,0.6
					c0.1,0.2,0.2,0.3,0.3,0.5c0.5,0.1,0.9,0.7,0.6,1.3c-0.8,1.6-1.9,2.7-3.3,3.5c0.3,0.3,0.4,0.8,0,1.2c-0.4,0.4-0.8,0.9-1.2,1.3
					c0.9-0.3,1.6,1,0.7,1.6c-1.3,0.8-2.3,1.7-3.2,2.8c0.1,0,0.2-0.1,0.3-0.1c0.9-0.7,2.1,0.4,1.3,1.3c-0.4,0.4-0.9,0.9-1.3,1.4
					c0.2,0.3,0.2,0.8-0.1,1.2c-0.6,0.8-1.3,1.5-2,2.2c0.7,0.2,1.1,1.1,0.5,1.6c-1.4,1.2-2.4,1.8-4.1,2.2c-1.1,0.2-1.6-1.4-0.5-1.7
					c0.3-0.2,0.7-0.4,1-0.6c-0.5-0.3-0.4-1.2,0.1-1.5c0.7-0.5,1.3-0.9,1.8-1.4c-0.2-0.3-0.3-0.8,0.1-1.2c0.1-0.1,0.2-0.2,0.3-0.3
					c-0.6-0.1-0.9-0.7-0.6-1.3c0.3-0.7,0.6-1.3,1-1.9c-0.5-0.2-0.8-1-0.3-1.5c0.8-0.8,1.5-1.6,2.2-2.4c-0.2,0-0.4,0-0.7,0
					c-1.1,0.8-2.2,1.5-3.4,2.1c-0.9,0.5-1.9-0.7-1.1-1.4c1.6-1.5,3.3-2.8,5-4.1c0.6-0.8,1.3-1.5,2.1-2.2c-0.4-0.2-0.7-0.7-0.4-1.1
					c1.6-2.4,3.2-3.8,5.8-5.1c0.2-0.1,0.4,0,0.5,0.2c0.1-0.1,0.3-0.3,0.4-0.4c0-0.2,0-0.4,0.1-0.6c-0.7,0.4-1.4,0.2-1.9-0.3
					c-0.6,0.6-1.1,1.2-1.6,1.9c-1,1.5-3.8,0.7-3.1-1.3l1.1-3c-1.4,1.2-2.8,2.4-4.2,3.6c-0.6,0.6-1.7-0.1-1.2-0.9s1.1-1.5,1.6-2.3
					c-0.7,0.5-1.4,0.9-2.2,1.3c-0.6,0.3-1.6-0.4-1.1-1.1c1.5-2.1,3.1-4,4.7-5.9c0.1-0.3,0.3-0.6,0.6-0.8c0,0,0.1-0.1,0.2-0.1
					c0.6-0.7,1.2-1.3,1.8-2c-0.8,0.1-1.5-0.6-1.7-1.5c-0.3,0.2-0.5,0.5-0.8,0.7c-1.4,1.3-3.9-0.4-2.7-2.1c2.2-3.2,4.9-5.5,8.2-7.1
					c0.1-0.1,0.3-0.2,0.4-0.3c-0.3-0.3-0.3-0.8,0.1-1.1c1.8-1.1,3.6-2.2,5.4-3.3c1.7-1.3,3.4-2.6,5.2-3.8c0.1-0.1,0.1-0.1,0.1-0.1
					c0.9-0.8,1.9-1.5,2.9-2c5.4-3.6,11-7.1,16.8-10.2c2-1.1,3.6,1.7,1.8,3c-0.2,0.1-0.3,0.2-0.5,0.3l0,0c1.2-0.3,2.4-0.5,3.5-0.5
					c0.3,0,0.5,0,0.7,0c0.1,0,0.3-0.1,0.5-0.1c0.1-0.2,0.3-0.3,0.6-0.4c1.7-0.4,3.5-0.7,5.2-1.1c0-0.1,0.1-0.2,0.2-0.3
					c2.2-1.9,4-2.7,6.9-3c0.4-0.1,0.8,0.2,1,0.5c1-0.4,1.9-0.8,2.9-1.2c0.3-0.1,0.6-0.1,0.8,0c0.2-0.1,0.3-0.2,0.4-0.2
					c2.7-1.9,5.6-3.3,8.9-4.4c1.4-0.5,2.2,1.6,1,2.3c-1,0.6-2.1,1.2-3.1,1.7c0.1,0.2,0.1,0.5,0.1,0.7c1.4-0.6,2.9-1.3,4.3-2
					c0.5-0.3,1-0.6,1.5-0.8c1.5-0.7,2.8,1.4,1.3,2.2c-0.5,0.2-0.9,0.5-1.4,0.7c-1,0.5-1.8,1.1-2.6,1.8c2.4-0.6,4.7-1.5,6.9-2.7
					c1.5-0.7,2.8,1.4,1.3,2.2c-0.9,0.4-1.6,0.8-2.3,1.3c2.8-0.9,5.3-2.3,7.7-4.2c1.1-0.8,2.4,0.8,1.8,1.8c-0.8,1.4-1.6,2.9-2.4,4.4
					c0.6,0.1,1.2,0.1,1.8,0c0.7-0.2,1.3-0.4,1.9-0.5c0.8-0.3,1.7-0.8,2.5-1.5c0.8-0.7,2-0.1,2.2,0.7c0.6-0.1,1.2-0.2,1.8-0.2
					c0.5-0.1,1-0.3,1.5-0.4c0-0.1,0.1-0.1,0.1-0.1c0.2-0.1,0.5-0.1,0.7-0.1c0.3-0.1,0.5-0.1,0.8-0.2c2.8-3.2,5.9-6,9.5-8.5
					c1-0.7,2,0.1,2.1,1.1c1.1-0.8,2.9,0,2.4,1.6c1.1,1,2.1,1.9,3.2,2.9c1-0.5,2,0.1,2.3,1c1.3-0.6,2.6-1.1,4-1.5
					c0.7-0.2,1.4,0,1.9,0.5c2.7-1.5,5.6-2.7,8.7-3.5c1.4-0.4,2.6,0.9,2.5,2.1c0.8-0.4,1.6-0.8,2.4-1.2c1.3-0.6,3.3,0.4,3,1.9
					c0.2-0.1,0.5-0.1,0.8-0.2c0.8-0.2,1.4,0.1,1.9,0.5c1.9-0.9,4-1.5,6.2-1.9c1.2-0.2,2.6,0.8,2.5,2c1.2,0.4,1.8,1.9,0.8,3.1
					c0.5,0,1,0.1,1.6,0.2c1.2,0.2,1.9,1.9,1.2,2.9c-0.6,0.9-1.3,1.8-2.1,2.7c0.9,0.3,1.3,1.6,1,2.6c0.8,0.4,1.3,1.3,1.1,2.2
					c1,0,2.1,0,3.3,0.2c1.3,0.2,1.8,1.9,1.2,2.9c-0.4,0.6-0.7,1.1-1,1.7c0.7,0,1.4,0,2.1,0c1,0,1.7,1.4,0.9,2.1c-1.2,1-2.3,2-3.5,3
					c1.5,0.6,3.1,0.7,4.8,0.4c1.2-0.2,2.3,1.1,1.3,2.1c-0.3,0.3-0.6,0.6-0.9,0.9c0.5,0.4,0.8,1.1,0.7,1.7c0.5-0.1,0.9-0.2,1.4-0.2
					c1.3-0.1,2.3,1.4,1.9,2.5c0,0.2-0.1,0.3-0.1,0.4c0.4,0.1,0.8,0.3,1.2,0.7c0.8-0.3,1.7-0.5,2.8-0.6c1.4-0.1,2.6,1.7,1.7,2.9
					c-0.7,0.9-1.3,1.8-2,2.7c0.5,0,1,0.2,1.5,0.3c1.1,0.3,1.6,1.4,1.4,2.4c-0.3,1.2-0.7,2.1-1.2,2.9"/>
				<g>
					<path class="st2" d="M304.3,122.8c-0.9,1.7,1.7,3.2,3.4,2.3c1.9-3.7,2-6.8-2.6-7.8c0.3,0.7,0.6,1.5,0.9,2.2
						c1.3-1.9,3.4-4,1.8-6.3c-1.8-2.6-4-0.2-6.1-1.5c0.2,0.6,0.5,1.1,0.7,1.7c1.3-3.6-2.2-4.9-5-4.5c0.6,0.3,1.2,0.7,1.8,1
						c-0.2-1.2-0.2-1.2-0.9-2.1c0,0.6-0.1,1.2-0.2,1.8c1.2-1.2,2.2-2.5,1.2-4.2c-1.3-2.3-4.9-1.1-7-1.7c0.3,0.8,0.5,1.7,0.7,2.5
						c1.5-1.4,4.8-3.1,4.2-5.6c-0.5-2.3-2.8-2.2-4.7-2.2c0.4,0.8,0.9,1.5,1.3,2.3c2.7-4.8,0.5-7-4.8-7c0.4,0.4,0.9,0.7,1.4,1.1
						c-0.3-1.9-1-4.3-2.5-5.5c0,0.7,0,1.4,0,2.1c3.1-3.7,4.2-7.6-1.7-8.4c0.4,0.6,0.9,1.3,1.4,1.9c0.9-2.5-0.5-5.9-3.2-6.9
						c-2.3-0.9-4.6,0.7-6.8,1.1c-1.4,0.3-2.7-0.1-4.2,0.3c0.6,0.3,1.2,0.7,1.8,1c-0.7-4.4-4.8-3-7.6-1.6c0.7,0.3,1.5,0.6,2.2,0.9
						c-1.1-4.6-5.4-3.1-8.8-1.7c-3.6,1.4-6.8,1.6-10.4,3.2c0.7,0.1,1.4,0.3,2.1,0.5c-1.3-2.1-3.7-2-5.3-4.1
						c-1.3-1.7-1.8-2.8-4.3-2.1c0.6,0.2,1.1,0.5,1.7,0.7c-2.3-5.5-9,2.1-11.2,4.2c-1.1,1.2-2,2.3-3.5,2.9c-1.4,0.6-1.9,0.2-2.8,0.1
						c-0.7-0.1-1.2-0.6-2-0.5c-2.6,0.2-3.3,2.2-6.7,2.2c0.4,0.8,0.9,1.5,1.3,2.3c1-2,4.2-5.8,1.7-8c-0.9-0.9-1.7-0.8-2.8-0.5
						c-2.6,0.8-5.1,3.2-7.7,4.2c0.4,0.9,0.8,1.8,1.2,2.7c1.7-1.2,4.9-2.6,3.1-5.2c-2.2-3.3-7.9,0.9-10.2,1.6c0.5,0.8,1,1.7,1.5,2.5
						c1.7-1.3,6.8-3.2,4.4-6.3c-2.2-2.9-7,1-9.3,2c0.8,0.4,1.5,0.9,2.3,1.3c0.1,0.4,3.3-1.8,3.5-2.7c0.3-1.1-0.2-2.4-1-3
						c-2.9-2.1-8.7,2.5-11.2,3.7c-3.1,1.5-6,0.8-9.2,2.2c-2.5,1.1-3.8,2.3-6.6,2.9c-0.8,0.2-5.6,1.7-5.9,1.5c0,0.9,0,1.7,0,2.6
						c3.6-2.5,1.6-7.2-2.6-6c-4.4,1.2-9.3,5.3-13.2,7.8s-7.5,5.2-11.3,7.8c-1.7,1.2-4.5,2.2-6,3.7c-0.5,0.5-0.7,1.4-1.1,1.8
						c-1.7,1.7-5.2,3.3-7.2,5.9c-3.3,4.2,1,7.9,4.9,4.5c-0.8-0.1-1.6-0.2-2.4-0.3c0.8,1.5,1,1.7,2.6,2.2c-0.3-0.8-0.5-1.7-0.7-2.5
						c-1.7,1.9-3.4,3.8-5,5.8c-0.9,1.2-3.1,3.1-2.8,4.8c0.5,3.3,4.1,1.4,5.7,0.4c-0.7-0.7-1.4-1.4-2.1-2.1c-1.1,1.5-3.1,3.8-0.9,5.2
						c2.5,1.6,5.5-2.5,7-3.8c-0.8-0.5-1.7-1-2.5-1.5c-0.7,1.9-2.1,4.4-0.3,6.1c2.6,2.4,4.9-0.4,6.5-2.2c-0.6,0-1.2,0.1-1.8,0.2
						c1.2,0.6,1.4,0.6,2.7,0.5c-0.4-0.6-0.9-1.3-1.4-1.9c0-0.1,1.4-0.4,0-0.2c-0.6,0.1-1.2,0.6-1.6,0.8c-1.4,0.8-2.7,1.9-3.7,3.1
						c-1.3,1.5-2.5,3.1-0.8,4.8c0-0.7,0-1.4,0-2.1c-1.7,1.7-8.6,5.7-7.6,8.8c1.3,3.9,5.1-0.5,6.9-0.5c-0.4-0.9-0.7-1.7-1.1-2.6
						c-1.7,1.9-3.9,3.6-1.8,6c0-0.6-0.1-1.2-0.2-1.8c-1,1.7-2,3.4-0.2,5c0-0.7,0-1.4,0-2.1c-0.3,0.4-0.5,1.3-0.9,1.6
						c-0.1,0.3-0.1,0.5,0,0.8c-0.4,0-0.8,0.1-1.1,0.4c-1,1.5-1.3,1.8-0.5,3.5c0.1-0.7,0.3-1.4,0.5-2.1c-1.8,1-3.6,3.3-1,4.7
						c2.4,1.4,6.4-1.6,6.9-3.9c0.1-0.5,0-1.1-0.4-1.5c-0.2-0.2-0.5-0.4-0.7-0.6c0,0.7,0,1.4,0,2.1c1.5-1.5,1.8-2.4,2.7-3.9
						c0.4-0.7,1.3-1.6,1.3-2.7c-0.1-2.3-2.3-2.6-4-1.8c0.6,0.8,1.2,1.6,1.8,2.4c1.3-1.4,7.2-5.7,1.9-6.9c0.3,0.8,0.5,1.7,0.7,2.5
						c1.3-1.4,2.3-2.4,1.4-4.3c-0.1,0.7-0.3,1.4-0.5,2.1c2.9-2,5.2-4.3,2.9-7.3c-0.1,0.7-0.3,1.4-0.5,2.1c0.5-0.4,2,0.5,2.9,0.6
						c1.5,0.1,2.6-0.3,3.8-0.9c4.4-2.2,8.3-7.3,13.2-7.9c-0.4-0.4-0.9-0.7-1.4-1.1c1.6,4.2,4.5,2.8,7.4,1.1c3-1.8,7.4-4.5,10.8-5.3
						c2.1-0.5,3.2-0.3,5.4-1.5c-0.6,0-1.2-0.1-1.8-0.2c3.8,3.4,6.3,2.5,10.8,0.4c-0.7-0.1-1.4-0.3-2.1-0.5c1.2,1.8,2.5,2.5,4.7,1.9
						c1.3-0.3,2.3-1.6,3.5-2c1.4-0.6,3.7-0.4,5.2-0.6c-0.6-0.7-1.1-1.5-1.7-2.2c-1,1.9-2.4,4.5-0.3,6.2c1.5,1.3,3.8,0.6,5.3,1.3
						c1.6,0.8,1.9,1.3,3.9,1.4c2.1,0.1,3.3-0.1,5.3-1c-0.7-0.1-1.4-0.3-2.1-0.5c-0.4-0.8-0.4,1.3-0.2,2c0.3,1.1,1.1,1.8,2.2,2.1
						c3.5,0.9,8.7-2.3,11.9-3.7c-0.7-0.7-1.4-1.4-2.1-2.1c-1.4,2.3-2.2,7.4,1.5,8.4c1.6,0.4,3.4-0.9,5-0.6c0.9,0.2,1.2,0.9,2,1.1
						c0.8,0.2,1.8-0.2,2.4,0c-0.3-0.8-0.5-1.7-0.7-2.5c-1.7,1.5-3.1,3.3-1.4,5.5c1.6,2.1,3.7,1.1,5.7,0.3c-0.6-0.2-1.1-0.5-1.7-0.7
						c0,0.1,0.1,0.2,0.1,0.3c0-0.6,0.1-1.2,0.2-1.8c-0.7,0.8-1,1.6-1.7,2.4c-0.9,1-2.3,1.4-3.1,2.5c-0.8,1.2-1.2,2.5-0.4,3.9
						c2.3,3.9,9.9-0.1,12.8-1.3c-0.7-0.7-1.4-1.4-2.1-2.1c-1.3,2.5-4.4,6.8,0.2,8.1c0.3,0,2.6-0.3,2.7-0.2c0.4,0.2,0.1,0.8,0.4,1.1
						c1.6,1.3,1.6,2.1,4.1,1.8c-0.4-0.8-0.9-1.5-1.3-2.3c-1.9,2.4-4.1,6.8,0.8,7.4c2.1,0.3,4.6-1.9,6.4-2.8c3-1.6,6.2-3.2,9.3-4.7
						c-0.8-0.4-1.5-0.9-2.3-1.3c-0.7,8.3,11.1,2.1,14.3,0.1c-0.6,0-1.2-0.1-1.8-0.2c0.7,0.6,1.2,0.8,2.1,1.2c-0.3-0.6-0.7-1.2-1-1.8
						c-1.2,3,0,7.7,2.6,9.6c0.2-0.9,0.3-1.8,0.4-2.7c-2.1,0.6-5.5,0.9-6.6,3.1c-1.6,3.3,1.4,4.6,4,5c-0.3-0.7-0.6-1.5-0.9-2.2
						c-3.2,5.1-1.6,12.3,5.6,11.5c-0.4-0.4-0.9-0.7-1.4-1.1c0.6,2.1,0.4,2.8,0.6,4.4c0.1,0.6-0.1,1.2,0.2,1.8
						c0.7,1.2,2.3,1.3,3.4,0.8c-0.8-0.4-1.5-0.9-2.3-1.3c0.2,2.8,2.4,3.5,4.8,2.2c-0.7-0.3-1.5-0.6-2.2-0.9c0.2,1.4,0.5,1.6,1.6,2.4
						c-0.2-0.6-0.5-1.1-0.7-1.7c-1.3,3-1.8,6,0.7,8.8c0.1-0.8,0.2-1.6,0.3-2.4c-1.9,0.9-5.1,2.5-4.4,5.1c0.4,1.6,2.2,2.4,3.7,1.7
						c-0.7-0.7-1.4-1.4-2.1-2.1c-0.6,1.1-0.8,1.2-0.6,2.6c0.2-0.6,0.5-1.1,0.7-1.7c-1.6,0.9-3.6,1.8-2.9,4c0.5,1.4,2.1,2,3.5,1.7
						c-0.6-0.4-1.3-0.9-1.9-1.4c0.2,2.2-5.1,2.3-3.7,5.7c1.4,3.4,4.9,0.4,6.8-0.3c-0.5-0.8-1-1.7-1.5-2.5c-1.1,0.9-1.5,2.3-0.7,3.5
						c1.2,1.8,3.2,1,4.9,0.6c-0.6-0.6-1.2-1.2-1.8-1.8c-0.9,2.8-6.3,3.7-6.5,7c-0.2,2.9,2.5,3,4.6,2.2c-0.5-0.8-1-1.7-1.5-2.5
						c-1.3,1.1-2.5,3.1-0.8,4.6c0.6,0.4,1.5,0.5,2.2,0.5c1.4-0.1,3-2.2,4-2.3c-0.4-0.6-0.9-1.3-1.4-1.9c-0.9,2.4-8.5,6.3-3.5,8.9
						c-0.1-0.8-0.2-1.6-0.3-2.4c-3.4,2.9,0.8,5.1,3.7,4.1c-0.6-0.7-1.1-1.5-1.7-2.2c-1.7,2.3-6.4,5-6.9,7.7c-0.2,1.2,0,2.5,1.3,3
						c3.5,1.5,8.9-6.4,10.8-8.1c-0.8-0.5-1.7-1-2.5-1.5c-0.3,0.9-0.5,1.2-0.5,2c0,0.6,0.5,1.3,1.1,1.4c1.5,0.3,1.7-0.5,2.9-1.1
						c-0.3,0.1,0.8-0.2,0.7-0.2c1.1-0.8,1.7,0.5,0.1-0.4c-0.1-0.8-0.2-1.6-0.3-2.4c-2.4,2.8-6.1,6.2-7.6,9.5
						c-0.6,1.2-0.7,2.7,0.5,3.6c3.2,2.5,11.6-4.4,14.4-6c-0.7-0.3-1.5-0.6-2.2-0.9c1.8,4.6,6.6,0.7,9.1-1.3
						c-0.9-0.4-1.7-0.7-2.6-1.1c-0.2,2.2-0.7,5.7,2.5,5.7c2.6,0,2.8-2.4,3-4.4c0.1-2.2,0.1-3.4,1.3-5.2c1.4-2,2.8-3.7,3.7-6
						c1-2.4,1-4.5-1.9-5.1c0.3,0.6,0.7,1.2,1,1.8c0.7-2.1-0.8-3.6-2.7-3.9c0.3,0.6,0.7,1.2,1,1.8c0.2-1.5-0.6-3.1-0.7-4.6
						c-0.3-3.4,0-7.1,0.3-10.5c0.3-3.5,2.7-11.1-1.8-12.6c0.4,0.4,0.7,0.9,1.1,1.4c0-2.1-0.3-3.1-2-4.3c0.1,0.7,0.3,1.4,0.5,2.1
						c3.4-4.5,7.7-14.1-0.9-14.9c0.4,0.6,0.9,1.3,1.4,1.9c0.6-3.2,0.1-6.5-3.9-6c0.4,0.8,0.9,1.5,1.3,2.3c0.8-1.2,1.6-2.3,2.1-3.6
						c0.7-1.8-2.2-2.6-2.9-0.8c-0.6,0.9-1.2,1.9-1.8,2.8c-0.6,0.9,0.2,2.4,1.3,2.3c0.3,0.8,0.7,1.5,1,2.2c-0.3,1,0.4,1.8,1.4,1.9
						c4.8,0.4-0.4,8.6-1.7,10.4c-0.6,0.7-0.1,1.7,0.5,2.1c0.2,0.6,0.4,1.1,0.6,1.7c0,0.6,0.5,1.2,1.1,1.4c1,0.3-0.7,20.2-1,21.7
						c-0.1,0.5,0,1.2,0.4,1.5c0.2,0.3,0.5,0.5,0.7,0.8c-0.2,0.7,0.1,1.7,1,1.8c0.2,0.1,0.4,0.1,0.6,0.2c-0.3,0.7,0.2,1.6,1,1.8
						c1.5,0.4-4.5,7-4.8,7.6c-0.3,0.8-0.2,1.7-0.3,2.5c-0.1,0.9-0.1,6.2,0.2,2.2c0.1-1.5-1.7-1.8-2.6-1.1c0,0-4.2,2.3-4.1,2.6
						c-0.4-0.9-1.3-1.4-2.2-0.9c-2.6,1.5-5.5,3.7-8.3,4.8c-3,1.2-1-0.3,0.3-1.9c1.3-1.7,2.7-3.5,4.2-5.2c0.6-0.8,0.6-1.9-0.3-2.4
						c-0.9-0.5-1.5,0.2-2.3-0.1c-0.5-0.1-1.2,0-1.5,0.4c-0.5,0.3-0.8,0.7-0.6,1.2c0.4,0.4,0.7,0.9,1.1,1.4c0.1-0.4,0.3-0.8,0.4-1.2
						c0.6-1.6-1.5-2.4-2.5-1.5c-0.6,0.6-7.4,8-8,7.6c2.1,1.3,6.4-5,7.5-6.5c0.7-1.1-0.5-2.6-1.7-2.2c-0.2,0.3-0.5,0.6-0.7,0.9
						c0.7-0.6,0.5-2-0.3-2.4c0.3,0.1,3.2-2.3,3.6-2.8c0.6-0.8,1-1.8,1.3-2.7c0.4-0.9-0.5-2-1.4-1.9c-1.5,0-2.7,1.7-3.3,2.2
						c1-1-0.1-3-1.5-2.5c1.8-0.7,4.7-3.2,5.5-5.5c0.4-1.1-0.7-2.1-1.8-1.8c-1.8-0.1-2.2,0.2-1.3,0.9c1.1-0.9-0.1-3-1.5-2.5
						c-1,0.3-2.4,0.8-3.1,1.5c-1.6,1.7,2.8-0.9,2.8-0.9c1-1,1.1-1.8,1-3.2c-0.1-0.9-0.9-1.6-1.9-1.4c0.3,1,0.8,0.9,1.7-0.3
						c0.6-0.4,0.8-1,0.7-1.7c0,0.2,0.3-0.2,0.3-0.3c0.8-1.5-0.8-2.7-2.1-2.1c1.2-0.5,2.5-1,3.7-1.6c0.9-0.5,0.9-1.7,0.3-2.4
						c-1.3-1.5-0.7-4.3,0-5.9c0.3-0.7-0.2-1.3-0.7-1.7c-0.1-0.2-0.1-0.4-0.2-0.6c-0.1-1-1.4-1.3-2.2-0.9c-0.1,0.1-0.2,0.2-0.3,0.3
						c-0.2-1.2-1.2-1.8-2.3-1.3c0.5-0.3,1-0.6,1.5-0.9c0.2-0.5-0.1-1.1-0.4-1.5c-0.4-0.4-0.8-2.4-0.9-2.8c-0.1-0.6-0.7-1.2-1.4-1.1
						c-4.1-2.3-5.1-4.6-3.1-7c0.5-0.7,0.1-2.1-0.9-2.2c-4.3-0.6,0.8-1.8,2.6-2.3c1.4-0.4,1.4-2,0.4-2.7c-0.6-0.7-0.8-1.5-0.7-2.4
						c0.1-0.5,0-1.2-0.4-1.5c0-0.7-0.1-1.5-0.1-2.3c0.4-0.8-0.3-1.5-1-1.8c-0.3-0.2-0.5-0.3-0.8-0.5c-0.5-0.4-1.2-0.6-1.8-0.2
						c-0.9,0.6-10,4.7-9.8,2.5c0.1-1.2-1.4-1.7-2.3-1.3c-2.4,1.1-4.8,2.2-7.1,3.5c-1.1,0.6-8.4,4.6-5.4,0.7c0.7-0.9-0.2-2.4-1.3-2.3
						c-1.3,0.2-1.9-2.5-3.2-2.9c-0.6-0.2-1.6,0.4-2,0.2c-2.1-0.8-0.3-2,0.5-3.5c0.7-1.5-0.8-2.7-2.1-2.1c-1.4,0.6-3.7,1.8-5.4,1.9
						c-1.8,0.2-2.3,0.2-1.5-1.3c0.4-0.7,1.7-0.9,2.2-1.6c0.3-0.5,0.4-1.4,0.7-1.7c0.4-0.5,0.5-1.2,0.2-1.8c0-0.1-0.1-0.2-0.1-0.3
						c-0.3-0.5-1.1-0.9-1.7-0.7c-1,0.8-1.5,0.6-1.3-0.8c0.8-0.7,0.3-2.2-0.7-2.5c-1.5-0.3-3.1-1.2-4.6-1.4c-1-0.2-3.4,1.2-4.3,0.6
						c-1.2-0.8-0.9-2.8-0.3-3.8c0.7-1.4-0.8-2.7-2.1-2.1s-2.5,1.1-3.8,1.6c-0.6,0.2-5.7,1.2-5.7,1.2c0.3-0.4,0.2-1,0-1.5
						c-0.1-0.2-0.2-0.4-0.3-0.6c-0.4-0.7-1.4-0.8-2.1-0.5c-1.5,0.7-4.2,0.6-5.1,0.1c-0.5-0.3-5-3.8-4.9-3.9c0.6-1.3-0.4-2.4-1.7-2.2
						c-1.4,0.2-3.4,0.1-4.9,0.5c-1,0.3-4.1,3.1-5.1,1.6c-0.5-0.7-1.3-0.9-2.1-0.5c-2.2,1-5.1,1.9-7.1,0.1c-0.5-0.4-1.2-0.5-1.8-0.2
						c-1.5,0.8-2.6,0.4-4,0.8c-1.5,0.4-3,1.5-4.4,2.2c-1.6,0.8-10.2,5.9-10.8,4.5c-0.2-0.6-0.7-1.2-1.4-1.1c-0.2,0-0.3-0.1-0.5-0.1
						c-0.4-0.3-1.1-0.3-1.5,0c-4,2.5-8.1,4.7-11.9,7.4c-1.7,1.3-3.1,1.9-5.2,0.8c-0.4-0.2-1.1-0.3-1.5,0c-0.3,0.2-0.5,0.4-0.8,0.6
						c-0.5,0.5-1,1.4-0.5,2.1c1,1.4-0.6,2.4-1.9,3.2c-0.7,0.5-0.9,1.3-0.5,2.1c-0.3,0.2-0.6,0.5-0.9,0.7c-0.7,0.8-0.5,2.2,0.7,2.5
						c-1.6-0.4-2.1,0.7-3.2,1.9c-1.2,1.3,0.3,3.2,1.8,2.4c-2.6,1.3-0.8,0-2,1.1c-0.4,0.3-1.1,1.9-1.7,2.5c-0.5,0.5-0.6,1.6,0,2.1
						c-1,0.1-1.4,0.7-1.2,1.7c0.7-0.5,0.8-1.4,0.5-2.1c0.2,0.3,2-1.4,1.7-1.1c0.4-0.4,0.6-1,0.4-1.5l0,0c0.5-0.6,0.6-1.5,0-2.1
						c0.1-0.5,0.4-1,0.7-1.4c0.4-0.6,0.2-1.3-0.2-1.8c0.7-0.4,1.3-1,1.8-1.7c0.8-1,0.2-2.6-1.1-2.6c-1.2,0-3.7,1.9-3.3,1.9
						c1.9,0.1,4.7-3.5,6.2-5c0.6-0.5,0.6-1.5,0-2.1c0,0.1,4-3.6,4.4-3.5c0.6,0.2,1.1,0,1.5-0.4c0.5-0.5,0.7-0.8,0.9-1.6
						c0.2-0.9-0.4-2-1.4-1.9c-0.4,0-0.8-0.1-1.2-0.1c-0.6-0.3-1.3-0.3-1.8,0.2c-2.4,2.7-2.1,1.8-1.1-0.9c0.6-1.6-1.5-2.4-2.5-1.5
						c-0.9,0.8-1.9,1.6-2.8,2.4c0.4,1.3,0.9,1.3,1.4-0.2c0.8-1.3-0.9-2.9-2.1-2.1c-2.6,1.7,0.9-0.7,1.4-1.2c0.7-0.7,1.3-1.6,1.9-2.3
						c0.8-1,1.6-1.9,2.5-2.8c0.8-0.8,0.4-2.2-0.7-2.5c-0.2-0.3-0.5-0.5-0.8-0.8c-0.5-0.9-1.7-0.9-2.4-0.3c0.1-1.3,0.7-2.2,1.7-2.9
						c0.8-0.8,1.7-1.5,2.7-2.1c0.9-0.6,1.9-1,2.7-1.7c0.4-0.4,0.6-1,0.4-1.5c0.1,0.3,11.7-7.5,13-8.4c2.8-1.8,5.5-3.6,8.3-5.3
						c1.2-0.8,2.5-1.6,3.8-2.3c1.2-0.6,3.6-1.3,4.5-1.9c-0.9,0.7-1,2,0,2.6c1.4,0.9,4.5-0.1,6.1-0.5c1.7-0.4,4.2-0.7,5.8-1.5
						c1.2-0.6,2.2-1.7,3.5-2.3c2.7-1.1,5.2-0.1,8.2-1.5c1.2-0.6,2.3-1.4,3.5-2.1c1.1-0.7,6.4-3.4,2.5-1.3c-0.4,0.2-0.8,0.8-0.7,1.3
						c0,0.2,0.1,0.5,0.1,0.7c0.2,1.2,1.2,1.8,2.3,1.3c1.3-0.5,3.4-1.9,4.3-2.2c-0.6,0.3-2,1.2-2.9,1.9c-1.1,0.9,0.1,2.9,1.5,2.5
						c1.2-0.4,2.6-0.7,3.8-1.3c0.8-0.4,3.2-2.1,0.9-0.6c-1.3,0.9-0.5,3.4,1.2,2.7c1.8-0.7,3.4-1.6,5.1-2.4c3.2-1.4,1.4,0.1,0.3,2.2
						c-0.5,1,0.1,2.3,1.3,2.3c0.3,0,7.6-1.3,7.1-2c0.3,0.4,0.8,0.7,1.3,0.7c1.8-0.1,4.2-0.3,5.8-1.3c0.8-0.4,8.8-9.1,9.4-7.8
						c0.3,0.6,1.1,0.9,1.7,0.7c0.2,0,2.7,2.9,3.1,3.2c0.2,0.2,3,1.5,3.1,1.6c0.5,0.7,1.3,0.8,2.1,0.5c2.2-1,3.8-0.5,5.7-1
						c1.2-0.4,8.5-5,9.1-2.4c0.2,1,1.4,1.3,2.2,0.9c1-0.8,2-0.8,3.2-0.2c0.1,0.8,1.1,1.2,1.8,1c1.2-0.3,1.4,0.5,2.3,0.4
						c0.8-0.1,1.7-0.6,2.6-0.9c1.2-0.3,6.8-1,5.5,2.3c-0.5,1,0.6,1.8,1.4,1.9c-0.1,1-0.3,2.1-0.4,3.2c-0.5,0.6-0.7,1.5,0,2.1
						c0,0.1,1.7,4.1,1.7,4.2c0,0.6,0.8,1.1,1.4,1.1c1.6,0,3.2,0.7,2.2,2.5c-0.6,1,0.2,2.3,1.3,2.3c2.5,0-0.8,1.9-1.6,2.6
						c-0.8,0.7-0.3,2.2,0.7,2.5c0.5,0.1,4.3,1.1,4.5,0.9c-0.4,0.4-0.6,1.3-0.2,1.8c0.2,0.4,0.4,0.9,0.6,1.3c0.1,0.8,1.1,1.1,1.8,1
						c0.5,0.3,0.9,0.5,1.3,0.8c-0.2,0.6,0.2,1.4,0.7,1.7c1.8,1.1,5,1.2,3.2,3.7c-0.6,0.8,0,2,0.9,2.2
						C303.8,120.5,304,121.7,304.3,122.8L304.3,122.8z"/>
				</g>
			</g>
		</g>
		<g>
			<g class="st3">
				<path class="st2" d="M310.2,161.8v0.1c-0.3,0-0.5-0.1-0.7-0.2c-0.2,0-0.3-0.1-0.4-0.1c-0.8-0.2-1.6-0.5-2.5-0.8
					c-0.3-0.1-0.5-0.2-0.8-0.3c-0.9-0.3-1.9-0.7-3-1c-0.2,0-0.5-0.1-0.7-0.2c-0.9-0.3-1.9-0.6-2.9-0.9c-0.4-0.1-0.7-0.2-1-0.3
					c-1.1-0.3-2.4-0.7-3.7-1.1c-0.4-0.1-0.7-0.2-1.1-0.3c-1.2-0.4-2.4-0.7-3.6-1.1c-0.3-0.1-0.6-0.2-0.9-0.3c-1.4-0.4-3-0.9-4.5-1.3
					c-0.5-0.1-0.9-0.3-1.4-0.4c-1.5-0.4-3.1-0.8-4.8-1.3c-0.2-0.1-0.4-0.1-0.6-0.2c-1.6-0.5-3.4-0.9-5.1-1.4c-0.5-0.1-1-0.3-1.5-0.4
					c-1.8-0.5-3.7-1-5.7-1.5c-0.4-0.1-0.7-0.2-1.1-0.3c-1.7-0.5-3.5-0.9-5.4-1.4c-0.5-0.2-1-0.3-1.5-0.4c-2.1-0.6-4.3-1.1-6.5-1.6
					c-0.5-0.2-1-0.3-1.5-0.4c-2-0.4-4.1-0.9-6.2-1.4c-0.4-0.1-0.8-0.2-1.2-0.3c-2.4-0.5-4.8-1.1-7.3-1.6c-0.6-0.1-1.2-0.3-1.8-0.4
					c-2.6-0.6-5.2-1.1-7.9-1.7c-0.1,0-0.1,0-0.1,0c-12.8-2.7-25.2-4.1-36.9-4.8c-1.8-0.1-3.6-0.1-5.4-0.2c-4.1-0.2-8.2-0.2-12.1-0.2
					c-4.1,0.1-8.1,0.2-11.9,0.4c-1.3,0.1-2.5,0.1-3.7,0.2c-3.9,0.2-7.7,0.5-11.2,0.9h-0.1c-3,0.3-5.9,0.6-8.6,1
					c12.1-28.1,35.2-49.8,76.8-55c0,0,5.1,0.4,12.8,2.3c1.5,0.1,2.9,0.3,4.3,0.6c1.7,0.3,3.7,0.7,6,1.3c4.2,1,8,2.1,11.5,3.2
					c7.7,2.5,14.8,5.7,21.1,9.5c3.4,2.1,6.7,4.4,10,7c3.3,2.6,6.1,5.1,8.7,7.7l0.2,0.2c0.1,0.1,0.3,0.2,0.4,0.3
					c2.2,2.2,4.2,4.6,6.1,7c2.5,3.1,4.7,6.3,6.6,9.6c3.6,6.2,6.5,13,8.4,20C308.8,154,309.6,157.7,310.2,161.8z"/>
				<g>
					<path class="st2" d="M309.2,149.8c-5.4-19-16.8-34.6-32.3-46.6C263,92.5,246.2,86,229,83c-5.6-1-11.7-3.1-17.5-3
						c-7.5,0.1-15.8,2.7-22.9,5c-25.4,8.3-44.6,26.5-55.2,50.8c-0.4,0.9,0,2.5,1.3,2.3c32.2-4.2,64.3-2.8,96,4
						c26.7,5.7,53.3,12.3,79.1,21c0.8,0.3,2-0.5,1.9-1.4c-0.5-4-1.5-7.9-2.5-11.8c-0.5-1.9-3.4-1.1-2.9,0.8c1,3.6,1.9,7.2,2.4,10.9
						c0.6-0.4,1.3-0.9,1.9-1.4c-26.3-8.9-53.4-15.6-80.6-21.4c-31.4-6.7-63.4-7.9-95.3-3.7c0.4,0.8,0.9,1.5,1.3,2.3
						c5.3-12.2,12.7-23.4,22.8-32.3c9.9-8.8,22-14.8,34.7-18.4c5.9-1.6,12.8-3.8,18.9-3.5c6.5,0.3,13.7,2.3,20.1,3.7
						c34.1,7.6,63.9,29.2,73.8,63.8C306.9,152.5,309.8,151.7,309.2,149.8z"/>
				</g>
			</g>
			<g>
				<g id="XMLID_39408_">
					<path class="st1" d="M252.5,64c-16.8-6.2-2.6-17.6-2.6-17.6C265,40.9,269.3,70.2,252.5,64z"/>
					<g>
						<path class="st2" d="M248.8,45.2c-3,2.5-6,6.4-6,10.4c-0.1,9.7,18.5,15.7,21.6,4.9c2.6-9.1-5.5-18.7-14.9-15.6
							c-1.8,0.6-1,3.5,0.8,2.9c4.8-1.5,8.9,0.6,10.7,5.2c1.2,3,1.6,8.1-1.7,9.9c-4.5,2.5-14-2.4-13.4-7.7c0.3-3,2.8-5.8,5.1-7.7
							C252.5,46.2,250.3,44.1,248.8,45.2z"/>
					</g>
				</g>
				<g id="XMLID_39407_">
					<path class="st1" d="M305.8,147.8c0,0-37.6-20-77.8-38.2c-32.5,6.7-67.9,8.1-67.8,5.4c1.4-28.2,12.5-102,89.3-63.5
						c17.9,6.5,37.5,18.4,48.7,38c0.9,1.6,1.7,3.1,2.5,4.6l0,0c0,0,0.1,0,0.1,0.1c3.6,7,5.1,12.5,5.4,16.8
						C309.6,123.9,305.8,147.8,305.8,147.8z"/>
					<g>
						<path class="st2" d="M307.6,110.7c-0.6-6.3-3.2-11.5-5.5-17.3c-0.2-0.7-1-1.3-1.8-1l0,0c0.6,0.2,1.1,0.5,1.7,0.7
							c-8.8-17.1-23-29.8-40.2-38.2c-7.9-3.8-16.2-7.4-24.4-10.5c-6.8-2.6-13.9-4.5-21.1-5.2c-19.6-2-35.9,7.5-45.3,24.5
							c-8.1,14.6-11.3,31.8-12.4,48.3c-0.2,2.6-0.5,4.2,2.3,5c4.1,1.3,9.3,0.6,13.5,0.5c8.4-0.3,16.8-1.1,25.2-2.1
							c4.8-0.6,9.5-1.2,14.3-2c4.4-0.7,10.6-3,14.9-1.9c5,1.3,10.1,4.7,14.8,6.9c4.4,2.1,8.9,4.3,13.3,6.4
							c8.1,3.9,16.1,7.9,24.1,11.9s16,8.1,23.9,12.3c0.8,0.4,2,0.1,2.2-0.9c1.9-12.1,3.4-25.5,0.5-37.6c-0.5-1.9-3.3-1.1-2.9,0.8
							c2.7,11.5,1.3,24.4-0.5,36c0.7-0.3,1.5-0.6,2.2-0.9c-8.3-4.4-16.7-8.7-25.1-12.9s-16.8-8.3-25.2-12.4
							c-4.7-2.3-9.5-4.6-14.3-6.8c-2.6-1.2-5.2-2.4-7.8-3.6c-1.8-0.8-3.8-2.3-5.7-2.6c-3.3-0.5-8.2,1.4-11.5,2
							c-4.8,0.9-9.6,1.6-14.5,2.2c-7.9,1-15.9,1.8-23.9,2.2c-5.2,0.3-10.3,0.3-15.4,0c-0.4-0.1-1.4-0.1-1.7-0.4
							c0.6,0.5,0.4-0.1,0.5-0.8c0.1-1.5,0.2-3,0.3-4.5c1.4-15.8,4.8-32.2,13.1-45.9c10.6-17.5,28.9-23.7,48.6-19.4
							c7.1,1.6,14,4.1,20.6,7.2s13.4,5.6,19.8,9c15.1,8.1,27.3,19.8,35.2,35.1c0.3,0.6,1.1,0.9,1.7,0.7l0,0c-0.6-0.3-1.2-0.7-1.8-1
							c2.2,5.5,4.9,10.4,5.4,16.5C304.9,112.9,307.9,112.9,307.6,110.7z"/>
					</g>
				</g>
				<g class="st3">
					<path class="st2" d="M305.8,147.4c0,0-16.8-8.9-39.8-20.2c0.4-2.7,3.5-24.5,0.4-36.5c-0.3-4.3-1.9-9.8-5.4-16.8
						c-0.1,0-0.1-0.1-0.1-0.1l0,0c-0.8-1.5-1.6-3-2.5-4.6c-5.6-9.6-13.1-17.3-21.4-23.5c4,1.5,8.1,3.3,12.4,5.5
						c17.9,6.4,37.5,18.3,48.8,37.9c0.9,1.6,1.7,3.1,2.5,4.6l0,0c0,0,0.1,0,0.1,0.1c3.6,7,5.1,12.5,5.4,16.8
						C309.6,123.5,305.8,147.4,305.8,147.4z"/>
					<g>
						<path class="st2" d="M307.5,110.7c-0.6-6.3-3.2-11.5-5.5-17.3c-0.2-0.7-1-1.3-1.8-1l0,0c0.6,0.2,1.1,0.5,1.7,0.7
							c-13.5-26.1-38.3-38.5-64.6-48.7c-1.8-0.7-2.4,1.8-1.2,2.7c9.8,7.4,17.6,16.5,23.3,27.5c0.3,0.6,1.1,0.9,1.7,0.7l0,0
							c-0.6-0.3-1.2-0.7-1.8-1c2.1,5.2,4.4,9.8,5.3,15.4c0.8,4.6,1.5,9.2,1.5,13.9c0.1,7.8-0.5,15.6-1.7,23.3
							c-0.1,0.6,0.1,1.4,0.7,1.7c13.4,6.6,26.7,13.2,39.8,20.2c0.8,0.4,2,0.1,2.2-0.9c1.9-12.1,3.4-25.5,0.5-37.6
							c-0.5-1.9-3.3-1.1-2.9,0.8c2.7,11.5,1.3,24.4-0.5,36c0.7-0.3,1.5-0.6,2.2-0.9c-13.1-7-26.5-13.6-39.8-20.2
							c0.2,0.6,0.5,1.1,0.7,1.7c1.2-8,2-16.1,1.9-24.1c-0.1-5.1-0.8-10.1-1.6-15.1c-0.9-5.5-3.2-10-5.2-15.1c-0.2-0.7-1-1.3-1.8-1
							l0,0c0.6,0.2,1.1,0.5,1.7,0.7c-5.9-11.4-14.1-20.8-24.4-28.6c-0.4,0.9-0.8,1.8-1.2,2.7c25.5,9.8,49.7,21.9,62.7,47.2
							c0.3,0.6,1.1,0.9,1.7,0.7l0,0c-0.6-0.3-1.2-0.7-1.8-1c2.2,5.5,4.9,10.4,5.4,16.5C304.9,112.5,307.9,112.6,307.5,110.7z"/>
					</g>
				</g>
				<g id="XMLID_39406_">
					<path class="st1" d="M112.4,109.2c0,0-12-18.9,36.1-19.9s143.2,3.4,156.6,58.2c0,0-24.9-12.5-73.6-25.4s-91.1,2.3-91.1,2.3
						C119.2,118.4,112.4,109.2,112.4,109.2z"/>
					<g>
						<path class="st2" d="M140.8,125.9c6.6-2.4,13.6-3.8,20.5-5c15-2.5,30.3-3.2,45.4-1.7c18.1,1.7,35.6,7.1,52.8,12.6
							c15.2,4.8,30.7,9.9,45,17c1.2,0.6,2.5-0.4,2.2-1.7c-5.4-21.4-23.2-35.2-42.7-43.4c-20.4-8.6-42.7-12.4-64.6-14.4
							c-21.3-2-44-3.4-65.3-0.6c-8.9,1.2-27.2,5.1-24.1,18.1c0.5,2,1.3,3.3,2.6,4.7c7.1,7.4,17.7,11.4,27.4,14.3
							c1.9,0.5,2.6-2.4,0.8-2.9c-8.8-2.6-21.2-6.6-27-14.5c-0.4-0.5-1.3-3.1-1.2-4.7c0.4-5,5.8-7.8,10-9.3
							c10.2-3.6,21.5-3.6,32.3-3.7c18.8-0.2,37.6,0.6,56.2,3c34.3,4.4,82.7,15.3,92.6,54.2c0.7-0.6,1.5-1.1,2.2-1.7
							c-4.8-2.4-9.8-4.4-14.8-6.4c-12.4-4.9-25.1-9.2-37.9-13.1c-17.2-5.2-34.5-9.9-52.6-11c-19.9-1.1-41.6,0.6-60.6,7.3
							C138.2,123.6,138.9,126.5,140.8,125.9z"/>
					</g>
				</g>
				<g>
					<g>
						<path class="st1" d="M111.9,108.4c-1.6-3.4-5.9-18.2,36.5-19.1c48.1-1,143.2,3.4,156.6,58.2c0,0-1.1-0.6-3.4-1.6
							c-21.6-45.6-108-49.4-153.1-48.5C123.3,97.9,114.6,103.4,111.9,108.4z"/>
						<g>
							<path class="st2" d="M148.6,98.8c11.8-0.3,23.6-0.1,35.4,0.5c24.1,1.3,48.6,4.3,71.4,12.4c10.7,3.7,21.2,8.8,30,16
								c4,3.4,7.7,7.1,10.7,11.4c1.4,2.1,2.5,4.5,3.9,6.6c1.1,1.7,2.5,2.2,4.4,3.1c1.2,0.6,2.5-0.4,2.2-1.7
								c-4.4-17.4-17.2-30.2-32.7-38.6c-31.7-17.2-70.7-20.2-106-20.8c-8.8-0.2-17.6-0.3-26.4,0.3c-8.3,0.5-17.4,1.4-24.7,5.6
								c-5.8,3.3-9,9.2-6.1,15.5c0.5,1,2.1,0.9,2.6,0c1.9-3.6,5.9-5.5,9.7-6.8c8.2-2.7,17-3.2,25.5-3.4c1.9,0,1.9-3,0-3
								c-10.9,0.3-31.5,0.1-37.8,11.7c0.9,0,1.7,0,2.6,0c-4.4-9.7,9.9-13.9,16.6-15.2c16-3.1,33.5-2.1,49.8-1.4
								c17.1,0.8,34.2,2.4,51,5.9c29.1,6.1,64.7,18.8,72.9,51c0.7-0.6,1.5-1.1,2.2-1.7c-4.8-2.4-6.8-8.4-10.3-12.5
								c-3.7-4.4-8-8.2-12.7-11.5c-19.2-13.7-43.5-19.4-66.5-22.7c-22.4-3.2-45.2-4-67.8-3.6C146.6,95.9,146.6,98.9,148.6,98.8z"/>
						</g>
					</g>
					<g class="st0">
						<path class="st1" d="M112.5,109.1c0,0-0.2-0.2-0.4-0.7c2.6-5,11.2-10.5,36.5-11c45.1-0.9,131.4,2.9,153.1,48.5
							c-8.4-3.8-32-13.7-70.2-23.8c-48.7-12.9-91.1,2.3-91.1,2.3C119.2,118.4,112.5,109.1,112.5,109.1z"/>
						<g>
							<path class="st2" d="M140.8,126c5.4-2,11.1-3.2,16.7-4.3c12.5-2.4,25.3-3.5,38-3.1c16.6,0.5,32.5,4,48.4,8.6
								c19.4,5.5,38.7,11.8,57.1,20.1c1.4,0.6,2.8-0.7,2.1-2.1c-8-16.4-23.7-26.9-40.2-33.7c-33.5-13.8-71.7-15.9-107.5-15.6
								c-9.8,0-19.9,0.2-29.5,2.6c-5.1,1.3-11.1,3.4-14.2,7.9c-2.2,3.1,0.8,5.3,3.2,7.3c7.2,6,16.2,9.6,25.1,12.2
								c1.9,0.5,2.6-2.4,0.8-2.9c-8.9-2.7-18.5-6.3-25.4-12.9c-0.5-0.4-1.3-1-1.6-1.6c-0.2-0.3-0.5,0.7,0.3-0.4
								c1.4-1.9,3.6-3.3,5.7-4.3c8.7-4.2,19.3-4.6,28.8-4.8c6.8-0.1,13.6-0.1,20.4,0c16.8,0.3,33.7,1.5,50.3,4.1
								c29.6,4.7,66.8,14.3,81.1,43.7c0.7-0.7,1.4-1.4,2.1-2.1c-8-3.6-16.1-6.8-24.3-9.7c-28.4-10.2-58-19.7-88.5-19.5
								c-16.5,0-34,1.9-49.7,7.5C138.2,123.6,138.9,126.5,140.8,126z"/>
						</g>
					</g>
				</g>
			</g>
		</g>
		<g>
			<g id="XMLID_39405_" class="st3">
				<path class="st1" d="M265,172.8c1.7,5.8-30,21.4-46.4,5.2s6.6-18.9,6.6-18.9C260.3,157.4,263.3,167,265,172.8z"/>
				<g>
					<path class="st2" d="M225.1,157.6c-5.9,0.7-14.6,3.7-13.9,11.1c0.5,5.2,5.5,10.1,9.5,12.9c5.1,3.6,11.4,5,17.6,4.9
						c8.3-0.1,22.6-3,27.4-10.8c2.5-4.1-1.7-9.8-4.9-12.3c-9.3-7.3-24.6-6.3-35.6-5.8c-1.9,0.1-1.9,3.1,0,3
						c10.3-0.4,26.7-1.9,34.9,6.1c1.4,1.4,3.2,3.8,3.3,5.8c0.2,3.4-5,5.6-7.6,6.9c-12.4,5.9-28.7,6.5-38.2-4.7
						c-3.7-4.3-5-9.2,0.8-12.1c2-1,5-1.8,6.8-2C227.1,160.4,227.1,157.4,225.1,157.6z"/>
				</g>
			</g>
			<g id="XMLID_39404_" class="st3">
				<path class="st1" d="M184,163.3c-2.3,8.5-31.5,28.7-47.9,8.9c-16.4-19.7,19.1-17.7,19.1-17.7S186.4,154.9,184,163.3z"/>
				<g>
					<path class="st2" d="M155.2,152.8c-6.8-0.3-16-0.2-21.6,4.1c-8.8,6.8,2.1,18.8,8.7,22.3c11.4,6.2,25.7,1.4,35.3-6.1
						c5.7-4.4,12.4-12.3,2.8-16.4c-7.6-3.3-17-3.6-25.2-3.7c-1.9,0-1.9,3,0,3c7.2,0.1,14.6,0.6,21.5,2.6c2.9,0.9,7.2,2.2,5.3,5.8
						c-1.9,3.6-6,6.6-9.4,8.7c-9.9,6.3-23.5,9.3-33,0.6c-2.7-2.5-7.7-8-5.9-12.2c1.2-2.8,4.9-3.9,7.6-4.5c4.5-1,9.3-1.3,13.9-1
						C157.2,156.1,157.2,153.1,155.2,152.8z"/>
				</g>
			</g>
			<g id="XMLID_39403_">
				<path class="st1" d="M261.7,169.6c1.7,5.8-30,21.4-46.4,5.2s6.6-18.9,6.6-18.9C257.1,154.2,260,163.8,261.7,169.6z"/>
				<g>
					<path class="st2" d="M221.8,154.4c-5.9,0.7-14.6,3.7-13.9,11.1c0.5,5.2,5.5,10.1,9.5,12.9c5.1,3.6,11.4,5,17.6,4.9
						c8.3-0.1,22.6-3,27.4-10.8c2.5-4.1-1.7-9.8-4.9-12.3c-9.3-7.3-24.6-6.3-35.6-5.8c-1.9,0.1-1.9,3.1,0,3
						c10.4-0.5,26.7-1.9,34.9,6.1c1.4,1.4,3.2,3.8,3.3,5.8c0.2,3.4-5,5.6-7.6,6.9c-12.4,5.9-28.7,6.5-38.2-4.7
						c-3.7-4.3-5-9.2,0.8-12.1c2-1,5-1.8,6.8-2C223.8,157.2,223.9,154.2,221.8,154.4z"/>
				</g>
			</g>
			<g id="XMLID_39402_">
				<path class="st1" d="M180.8,160c-2.3,8.5-31.5,28.6-47.9,8.9s19.1-17.7,19.1-17.7S183.2,151.6,180.8,160z"/>
				<g>
					<path class="st2" d="M152,149.5c-6.8-0.3-16-0.2-21.6,4.1c-8.8,6.8,2.1,18.8,8.7,22.3c11.4,6.2,25.7,1.4,35.3-6.1
						c5.7-4.4,12.4-12.3,2.8-16.4c-7.6-3.3-17-3.6-25.2-3.7c-1.9,0-1.9,3,0,3c7.1,0.1,14.6,0.6,21.5,2.6c2.9,0.9,7.2,2.2,5.3,5.8
						c-1.9,3.6-6,6.6-9.4,8.7c-9.9,6.3-23.5,9.3-33,0.6c-2.7-2.5-7.7-8-5.9-12.2c1.2-2.8,4.9-3.9,7.6-4.5c4.5-1,9.3-1.3,13.9-1
						C153.9,152.8,153.9,149.8,152,149.5z"/>
				</g>
			</g>
			<g id="XMLID_39401_">
				<path class="st1" d="M134.6,159.3c-1.5,0.2-5.8-6-5.8-6"/>
				<g>
					<path class="st2" d="M130.1,152.6c-1.1-1.6-3.7-0.1-2.5,1.5c0.8,1.3,1.7,2.5,2.7,3.6s2.6,3.2,4.4,3.1c1.9-0.1,1.9-3.1,0-3
						c-0.3,0,0.1,0.1,0.2,0.1c-0.1,0-0.3-0.1-0.4-0.2s-0.4-0.3-0.6-0.5c-0.7-0.7-1.2-1.3-1.8-2C131.4,154.3,130.7,153.5,130.1,152.6
						L130.1,152.6z"/>
				</g>
			</g>
			<g id="XMLID_39400_">
				<path class="st1" d="M221.6,173.7c-0.4,1.4-7.9,2.5-7.9,2.5"/>
				<g>
					<path class="st2" d="M213.3,174.8c-1.9,0.2-1.1,3.1,0.7,2.9c1.5-0.2,2.9-0.5,4.3-0.8c1.5-0.4,3.9-0.9,4.6-2.4
						c0.8-1.7-1.8-3.3-2.6-1.5c-0.1,0.1,0,0-0.3,0.2s-0.7,0.3-1,0.4c-0.8,0.2-1.6,0.4-2.4,0.6C215.5,174.4,214.4,174.6,213.3,174.8
						L213.3,174.8z"/>
				</g>
			</g>
			<g id="XMLID_39399_">
				<path class="st1" d="M178.6,153.4c-0.4,1.4-7.9,2.5-7.9,2.5"/>
				<g>
					<path class="st2" d="M170.3,154.5c-1.9,0.3-1.1,3.1,0.7,2.9c1.5-0.2,2.9-0.5,4.3-0.8c1.5-0.4,3.9-0.9,4.6-2.4
						c0.8-1.7-1.8-3.3-2.6-1.5c-0.1,0.1,0,0-0.3,0.2s-0.7,0.3-1,0.4c-0.8,0.2-1.6,0.4-2.4,0.6C172.5,154.1,171.4,154.3,170.3,154.5
						L170.3,154.5z"/>
				</g>
			</g>
			<g id="XMLID_39398_">
				<path class="st1" d="M241.1,153.8c1.5-0.1,5,6.6,5,6.6"/>
				<g>
					<path class="st2" d="M244.8,161.2c0.9,1.7,3.5,0.2,2.7-1.4c-0.6-1.3-1.4-2.6-2.2-3.8c-1-1.4-2.2-3.5-4.1-3.6s-1.9,2.9,0,3
						c-0.5-0.1-0.3-0.1-0.1,0.1s0.5,0.4,0.7,0.7c0.5,0.6,1,1.4,1.4,2.1C243.7,159.3,244.3,160.2,244.8,161.2L244.8,161.2z"/>
				</g>
			</g>
			<g id="XMLID_39397_">
				<path class="st1" d="M256,178.8c-1.4,0.6-7-4.4-7-4.4"/>
				<g>
					<path class="st2" d="M250.1,173.3c-1.4-1.3-3.6,0.8-2.1,2.1c1.1,1,2.3,1.9,3.5,2.8c1.3,1,3.3,2.5,5,2c1.8-0.6,1.1-3.5-0.8-2.9
						c0.3-0.1,0.2,0.1-0.1-0.1c-0.3-0.2-0.6-0.3-0.9-0.5c-0.7-0.4-1.4-0.9-2.1-1.4C251.7,174.7,250.9,174,250.1,173.3L250.1,173.3z"
						/>
				</g>
			</g>
		</g>
		<g>
			<g id="XMLID_39392_" class="st3">
				<g id="XMLID_39396_">
					<path class="st2" d="M153.8,308.6c-20.7-13.4,16.4-18.3,16.4-18.3S174.4,321.9,153.8,308.6z"/>
					<g>
						<path class="st2" d="M170.1,288.8c-5.1,0.7-10.2,1.8-14.9,3.6c-4.1,1.6-10.5,4.6-9.1,10.1c1.5,5.9,10.9,11.2,16.7,10.9
							c10.1-0.4,9.7-15.9,8.8-23c-0.2-1.9-3.3-1.9-3,0c0.5,3.4,0.6,7,0.2,10.4c-0.4,3.9-1.7,9.8-6.7,9.6c-3.7-0.1-14.6-5.2-13-10.2
							c1.3-4,8.6-5.6,12-6.5c2.1-0.6,4.2-1,6.3-1.4c0.8-0.2,1.5-0.3,2.3-0.4c0.3-0.1,1.2-0.2,0.5-0.1
							C172.1,291.5,172.1,288.5,170.1,288.8z"/>
					</g>
				</g>
				<g id="XMLID_39395_">
					<path class="st2" d="M189.5,286.4c-2.1,6.7-27.3,22.9-41.4,7.1s16.5-14.2,16.5-14.2S191.6,279.7,189.5,286.4z"/>
					<g>
						<path class="st2" d="M164.6,277.9c-5.9-0.3-14.1-0.3-19,3.4c-7.6,5.7,2.4,15.5,7.9,18.2c10.1,5,22.7,0.9,31.2-5.5
							c4.9-3.8,9.7-9.9,1.8-13.2c-6.6-2.7-14.8-2.9-21.9-3c-1.9,0-1.9,3,0,3c6.6,0.1,14.2,0.2,20.4,2.7c1.8,0.7,3.2,1.2,2.8,3.1
							c-0.4,1.6-2.6,3.2-3.8,4.2c-4.4,3.7-10,6.3-15.6,7.4c-7.1,1.4-14.2-0.3-19.2-5.8c-2.7-3-5-7.1-0.5-9.5
							c4.6-2.4,10.8-2.4,15.9-2.1C166.5,280.9,166.5,277.9,164.6,277.9z"/>
					</g>
				</g>
				<g id="XMLID_39394_">
					<path class="st2" d="M235.2,311.3c-1.5,5.4-27.4,8.7-29.9-10.2s12.4-13.9,12.4-13.9C239.4,296.8,236.7,305.9,235.2,311.3z"/>
					<g>
						<path class="st2" d="M218.1,285.9c-4.6-1.5-10.3-0.6-12.9,3.9c-4.1,7.2-1.2,18.5,5.3,23.3c5.7,4.2,14.1,5,20.7,2.9
							c5.2-1.7,6.9-5.9,6.5-11.2c-0.7-9.8-11.5-15.3-19.3-18.9c-1.7-0.8-3.3,1.8-1.5,2.6c7.7,3.5,19.2,9.2,17.6,19.4
							c-0.9,6.1-7.7,6.5-13,6c-10.1-1-16.8-9.5-14.7-19.9c1.1-5.2,5.7-7,10.5-5.4C219.2,289.2,220,286.3,218.1,285.9z"/>
					</g>
				</g>
				<g id="XMLID_39393_">
					<path class="st2" d="M204.4,297.7c-42.9-20.9,0.6-15.5,0.6-15.5C254.6,288.7,247.3,318.6,204.4,297.7z"/>
					<g>
						<path class="st2" d="M205,280.8c-5.5-0.7-12-1.5-17.4,0.1c-2.2,0.7-4.1,2.2-3.4,4.7c1.2,3.9,6.8,6.6,9.9,8.4
							c7.3,4.2,15,8,23.1,10.4c5,1.5,10.5,2.6,15.7,1.9c6.3-0.9,10.4-6,6.1-11.8c-2.8-3.7-7.1-6.1-11.2-7.9
							c-7.1-3.1-14.7-4.8-22.4-5.8c-1.9-0.2-2.7,2.6-0.8,2.9c7.5,1,15.1,2.5,22,5.6c3.8,1.6,8.2,3.9,10.4,7.5
							c3.5,5.7-4.8,6.8-8.7,6.6c-5.4-0.2-10.8-1.9-15.8-3.8c-6.9-2.7-13.7-6.1-19.9-10.1c-1.1-0.6-6.2-3.9-5.6-5.2
							c0.6-1.2,4.6-1.1,5.7-1.2c4.1-0.2,8.3,0.1,12.3,0.6C206.9,283.9,206.9,280.9,205,280.8z"/>
					</g>
				</g>
			</g>
			<g id="XMLID_39381_">
				<g id="XMLID_39391_">
					<path class="st1" d="M150.5,305.3c-20.7-13.4,16.4-18.3,16.4-18.3S171.2,318.7,150.5,305.3z"/>
					<g>
						<path class="st2" d="M166.8,285.5c-5.1,0.7-10.2,1.8-14.9,3.6c-4.1,1.6-10.5,4.6-9.1,10.1c1.5,5.9,10.9,11.2,16.7,10.9
							c10.1-0.4,9.7-15.9,8.8-23c-0.2-1.9-3.3-1.9-3,0c0.5,3.4,0.6,7,0.2,10.4c-0.4,3.9-1.7,9.8-6.7,9.6c-3.7-0.1-14.6-5.2-13-10.2
							c1.3-4,8.6-5.6,12-6.5c2.1-0.6,4.2-1,6.3-1.4c0.8-0.2,1.5-0.3,2.3-0.4c0.3-0.1,1.2-0.2,0.5-0.1
							C168.8,288.3,168.8,285.3,166.8,285.5z"/>
					</g>
				</g>
				<g id="XMLID_39390_">
					<path class="st1" d="M186.3,283.1c-2.1,6.7-27.3,22.9-41.4,7.1c-14.1-15.8,16.5-14.2,16.5-14.2S188.4,276.4,186.3,283.1z"/>
					<g>
						<path class="st2" d="M161.4,274.6c-5.9-0.3-14.1-0.3-19,3.4c-7.6,5.7,2.4,15.5,7.9,18.2c10.1,5,22.7,0.9,31.2-5.5
							c4.9-3.8,9.7-9.9,1.8-13.2c-6.6-2.7-14.8-2.9-21.9-3c-1.9,0-1.9,3,0,3c6.6,0.1,14.1,0.3,20.4,2.7c1.8,0.7,3.2,1.2,2.8,3.1
							c-0.4,1.6-2.6,3.2-3.8,4.2c-4.4,3.7-10,6.3-15.6,7.4c-7.1,1.4-14.2-0.3-19.2-5.8c-2.7-3-5-7.1-0.5-9.5
							c4.6-2.4,10.8-2.4,15.9-2.1C163.3,277.6,163.3,274.6,161.4,274.6z"/>
					</g>
				</g>
				<g id="XMLID_39389_">
					<path class="st1" d="M240.1,308c-1.5,5.4-27.4,8.7-29.9-10.2s12.4-13.9,12.4-13.9C244.3,293.5,241.7,302.6,240.1,308z"/>
					<g>
						<path class="st2" d="M223,282.7c-4.6-1.5-10.3-0.6-12.9,3.9c-4.1,7.2-1.2,18.5,5.3,23.3c5.7,4.2,14.1,5,20.7,2.9
							c5.2-1.7,6.9-5.9,6.5-11.2c-0.7-9.8-11.5-15.3-19.3-18.9c-1.7-0.8-3.3,1.8-1.5,2.6c7.7,3.5,19.2,9.2,17.6,19.4
							c-0.9,6.1-7.7,6.5-13,6c-10.1-1-16.8-9.5-14.7-19.9c1.1-5.2,5.7-7,10.5-5.4C224,286,224.8,283.1,223,282.7z"/>
					</g>
				</g>
				<g id="XMLID_39388_">
					<path class="st1" d="M209.2,294.4c-42.9-20.9,0.6-15.5,0.6-15.5C259.4,285.4,252.1,315.3,209.2,294.4z"/>
					<g>
						<path class="st2" d="M209.8,277.5c-5.5-0.7-12-1.5-17.4,0.1c-2.2,0.7-4.1,2.2-3.4,4.7c1.2,3.9,6.8,6.6,9.9,8.4
							c7.3,4.2,15,8,23.1,10.4c5,1.5,10.5,2.6,15.7,1.9c6.3-0.9,10.4-6,6.1-11.8c-2.8-3.7-7.1-6.1-11.2-7.9
							c-7.1-3.1-14.7-4.8-22.4-5.8c-1.9-0.2-2.7,2.6-0.8,2.9c7.5,1,15.1,2.5,22,5.6c3.8,1.6,8.2,3.9,10.4,7.5
							c3.5,5.7-4.8,6.8-8.7,6.6c-5.4-0.2-10.8-1.9-15.8-3.8c-6.9-2.7-13.7-6.1-19.9-10.1c-1.1-0.6-6.2-3.9-5.6-5.2
							c0.6-1.2,4.6-1.1,5.7-1.2c4.1-0.2,8.3,0.1,12.3,0.6C211.8,280.6,211.7,277.6,209.8,277.5z"/>
					</g>
				</g>
				<g id="XMLID_39387_">
					<path class="st1" d="M243.5,288.1c-0.4,1.4-7.9,2.5-7.9,2.5"/>
					<g>
						<path class="st2" d="M235.2,289.1c-1.9,0.3-1.1,3.2,0.7,2.9c1.5-0.2,2.9-0.5,4.3-0.8c1.5-0.4,3.9-0.9,4.6-2.4
							c0.8-1.7-1.8-3.3-2.6-1.5c-0.1,0.1,0,0-0.3,0.2c-0.3,0.2-0.7,0.3-1,0.4c-0.8,0.2-1.6,0.4-2.4,0.6
							C237.4,288.7,236.3,288.9,235.2,289.1L235.2,289.1z"/>
					</g>
				</g>
				<g id="XMLID_39386_">
					<path class="st1" d="M150.2,288.9c-0.4,1.4-7.9,2.5-7.9,2.5"/>
					<g>
						<path class="st2" d="M141.9,289.9c-1.9,0.3-1.1,3.2,0.7,2.9c1.5-0.2,2.9-0.5,4.3-0.8c1.5-0.4,3.9-0.9,4.6-2.4
							c0.8-1.7-1.8-3.3-2.6-1.5c-0.1,0.1,0,0-0.3,0.2c-0.3,0.2-0.7,0.3-1,0.4c-0.8,0.2-1.6,0.4-2.4,0.6
							C144.1,289.5,143,289.7,141.9,289.9L141.9,289.9z"/>
					</g>
				</g>
				<g id="XMLID_39385_">
					<path class="st1" d="M174.8,273.6c1.4-0.4,6.3,5.4,6.3,5.4"/>
					<g>
						<path class="st2" d="M180,280.1c1.3,1.5,3.4-0.7,2-2.2c-0.9-1.1-1.9-2.2-3-3.2c-1.3-1.2-2.9-2.9-4.8-2.6s-1.1,3.2,0.8,2.9
							c-0.5,0.1-0.5-0.1,0,0.2c0.3,0.2,0.6,0.4,0.8,0.6c0.7,0.6,1.3,1.2,1.9,1.8C178.5,278.4,179.3,279.3,180,280.1L180,280.1z"/>
					</g>
				</g>
				<g id="XMLID_39384_">
					<path class="st1" d="M220.2,310.1c1.4-0.4,6.3,5.4,6.3,5.4"/>
					<g>
						<path class="st2" d="M225.5,316.6c1.2,1.5,3.3-0.7,2-2.2c-0.9-1.1-1.9-2.2-3-3.2c-1.3-1.2-2.9-2.9-4.8-2.6s-1.1,3.2,0.8,2.9
							c-0.5,0.1-0.5-0.1,0,0.2c0.3,0.2,0.6,0.4,0.8,0.6c0.7,0.6,1.3,1.2,1.9,1.8C224,314.9,224.8,315.8,225.5,316.6L225.5,316.6z"/>
					</g>
				</g>
				<g id="XMLID_39383_">
					<path class="st1" d="M149.4,307c0-1.5,6.9-4.6,6.9-4.6"/>
					<g>
						<path class="st2" d="M157,303.7c1.8-0.8,0.2-3.3-1.6-2.5c-1.4,0.6-2.7,1.3-4,2c-1.5,0.9-3.5,2-3.7,3.9s2.8,1.9,3,0
							c0,0.5,0,0.3,0.3,0c0.3-0.2,0.5-0.4,0.8-0.6c0.7-0.5,1.4-0.9,2.2-1.3C155,304.6,156,304.1,157,303.7L157,303.7z"/>
					</g>
				</g>
				<g id="XMLID_39382_">
					<path class="st1" d="M194.9,280.5c-0.1-1.5,6.6-5,6.6-5"/>
					<g>
						<path class="st2" d="M202.3,276.7c1.7-0.9,0.2-3.4-1.4-2.6c-1.3,0.6-2.6,1.4-3.8,2.2c-1.4,1-3.5,2.2-3.6,4.1s2.9,1.9,3,0
							c-0.1,0.5-0.1,0.3,0.1,0.1c0.3-0.2,0.5-0.5,0.8-0.7c0.6-0.5,1.3-1,2-1.4C200.4,277.8,201.3,277.2,202.3,276.7L202.3,276.7z"/>
					</g>
				</g>
			</g>
		</g>
	</g>
</g>
</svg>
