<?xml version="1.0" encoding="utf-8"?>
<!-- Generator: Adobe Illustrator 23.0.3, SVG Export Plug-In . SVG Version: 6.00 Build 0)  -->
<svg version="1.1" id="Layer_1" xmlns="http://www.w3.org/2000/svg" xmlns:xlink="http://www.w3.org/1999/xlink" x="0px" y="0px"
	 viewBox="0 0 237.3 72.5" style="enable-background:new 0 0 237.3 72.5;" xml:space="preserve">
<style type="text/css">
	.st0{fill:#FFFFFF;}
	.st1{fill:#2C2C2C;}
</style>
<g>
	<g>
		<path class="st0" d="M88.9,32.4c0-0.4-0.1-0.8-0.2-1.3c0-0.4,0-0.8-0.1-1.1c-0.1-1.2-0.4-2.4-0.8-3.5c-0.3-0.6-0.5-1.2-0.9-1.8
			c-0.4-0.6-0.8-1.2-1.3-1.7c-0.8-1-1.9-1.9-3-2.7c-1.1-0.8-2.3-1.3-3.5-1.7c-0.5-0.2-1.1-0.3-1.7-0.3c-0.8-0.1-1.5-0.2-2.3-0.2H75
			c-1.3,0-2.7,0.2-4,0.4c-2.3,0.3-4.5,1.1-6.4,2.5c-0.3,0.2-0.7,0.5-1,0.8c-0.1,0.1-0.2,0.2-0.4,0.3c-0.4,0.4-0.8,0.8-1.2,1.2
			c-0.4,0.5-0.9,1.1-1.2,1.7c-0.6,1-1.1,2.1-1.6,3.2c-0.6,1.4-0.8,3-1,4.5c-0.1,1.4,0,2.9,0.3,4.3c0.3,1.4,0.8,2.7,1.5,3.9
			c0.3,0.5,0.6,1.1,1,1.6c0.5,0.6,0.9,1.2,1.5,1.8c0.5,0.5,1.1,1,1.7,1.4c0.5,0.4,1.1,0.8,1.7,1.1c0.6,0.4,1.3,0.7,2,0.9
			c0.6,0.3,1.3,0.4,2,0.6c4,0.9,8.2-0.1,11.7-2.1c0.9-0.5,1.7-1.1,2.5-1.8c0.6-0.5,1.1-1.1,1.5-1.8c0.4-0.4,0.7-0.8,1-1.2
			c0.4-0.6,0.8-1.2,1-1.8c0.4-0.8,0.6-1.6,0.8-2.4C89,35.6,89.1,34,88.9,32.4z"/>
		<g>
			<path class="st1" d="M90.3,32c-0.7-4.9-1.6-8.6-5.5-11.9c-3.2-2.6-7-3.7-11.1-3.4c-9.8,0.6-17.4,8-16.8,18.2
				c0.5,8.4,7.6,15.3,16.1,15.3c9.9,0,17.9-7.9,17.3-17.8c-0.1-1.9-3.1-1.9-3,0c0.5,8.2-6,14.9-14.3,14.8c-7.4,0-13.3-6.4-13.1-13.8
				c0.3-8.4,7-13.9,15.2-13.8s11.2,6.1,12.3,13.2C87.7,34.7,90.6,33.9,90.3,32z"/>
		</g>
	</g>
	<g>
		<path class="st0" d="M72.6,37.3c0.2,0,0.3-0.1,0.5-0.2c0.2,0,0.4,0,0.6-0.1h0.1c0.1,0,0.2,0,0.2,0c0.2,0,0.4,0,0.6,0
			c0.1,0,0.1,0,0.2,0l0,0c0.1,0,0.3,0,0.4,0s0.2-0.1,0.3-0.1c0.1,0,0.1-0.1,0.2-0.1c0,0,0,0,0.1-0.1c0.1,0,0.1,0,0.2,0
			s0.2-0.1,0.3-0.1c0.1-0.1,0.2-0.2,0.4-0.3c0.1-0.1,0.1-0.2,0.2-0.2c0.1-0.1,0.2-0.3,0.3-0.5c0.1-0.2,0.2-0.4,0.2-0.6
			c0.1-0.2,0.1-0.4,0.2-0.5c0-0.2,0.1-0.4,0.1-0.6c0-0.2,0-0.4,0-0.6c0-0.2-0.1-0.4-0.1-0.6c-0.1-0.2-0.1-0.4-0.2-0.6
			c-0.1-0.1-0.1-0.2-0.2-0.3c0-0.1-0.1-0.2-0.2-0.3c-0.1-0.1-0.1-0.1-0.2-0.2c-0.1-0.2-0.2-0.5-0.3-0.7c-0.2-0.3-0.4-0.6-0.7-0.8
			c-0.1-0.1-0.2-0.1-0.3-0.1c-0.1,0-0.2,0-0.3-0.1c-0.1,0-0.2,0-0.3,0c-0.1,0-0.2,0-0.3,0.1c-0.1-0.2-0.2-0.4-0.4-0.6
			c-0.4-0.3-0.9-0.4-1.3,0c-0.1,0.1-0.2,0.1-0.2,0.2c-0.1,0.1-0.2,0.2-0.2,0.4l0,0c-0.1,0-0.2,0.1-0.2,0.1h-0.1c-0.1,0-0.2,0-0.3,0
			c-0.1,0-0.2,0.1-0.3,0.1c-0.1,0.1-0.3,0.2-0.4,0.3l0,0l0,0c-0.1,0.1-0.3,0.1-0.4,0.2s-0.2,0.2-0.3,0.3c-0.1,0.1-0.2,0.2-0.3,0.4
			c-0.1,0.2-0.2,0.4-0.3,0.6c0,0.1,0,0.2-0.1,0.2l0,0V32l0,0c0,0.1-0.1,0.3-0.1,0.4c0,0.2-0.1,0.4-0.1,0.7l0,0l0,0
			c0,0.4,0,0.7,0,1.1c0,0.3,0.1,0.7,0.2,1c0.1,0.2,0.2,0.4,0.3,0.6c0.1,0.1,0.1,0.2,0.2,0.4s0.2,0.3,0.4,0.4
			c0.1,0.1,0.3,0.3,0.5,0.4c0.2,0.2,0.5,0.2,0.8,0.3c0.1,0,0.2,0,0.3,0C72.2,37.3,72.4,37.3,72.6,37.3L72.6,37.3L72.6,37.3z"/>
		<g>
			<path class="st1" d="M73,38.7c0.7-0.2,0.3-0.1,1-0.2c0.3,0,0.7,0,1-0.1c-0.7-0.1-0.8-0.1-0.4,0c0.9-0.1,1.5-0.1,2.2-0.8
				c-0.4,0.1-0.7,0.3-1.1,0.4c2.8-0.2,3.9-3.8,3.1-6.1c-0.7-2-2.3-4.4-4.7-3.8c0.6,0.2,1.1,0.5,1.7,0.7c-1.1-2-3.7-2-4.8,0
				c0.3-0.2,0.6-0.5,0.9-0.7c0.5,0.1,0.6,0.1,0.2,0.1c-0.2,0-0.3,0-0.5,0c-0.4,0-0.7,0.1-1,0.3c-0.2,0.1-1.2,0.9-0.4,0.3
				c-0.3,0.2-0.6,0.4-0.9,0.6c-0.8,0.7-1.1,1.9-1.3,2.9c-0.5,2.9,1,6.6,4.5,6.4c1.9-0.2,1.9-3.2,0-3c-1.7,0.1-1.9-2.3-1.4-3.5
				c0.1-0.3,0.5-0.5,0.6-0.8c0.1-0.1,0.2-0.2,0.3-0.3c-0.4-0.1-0.5-0.1-0.1,0c0.4-0.1,0.8,0,1.2-0.3c0.9-0.6,0.3-0.3,0.2-0.6
				c0.3,0.6,1.1,0.8,1.7,0.7c0,0,0.9,1.5,1,1.7c0.2,0.6,0.2,1.2,0,1.8c0,0.1-0.5,0.9-0.2,0.6c-0.2,0.2-0.8,0.3-1.1,0.4
				c0.2,0,0.3,0,0.5,0c-0.3-0.1-0.5-0.1-0.8,0c-0.6,0-1.4,0.1-2.2,0.3C70.3,36.4,71.1,39.3,73,38.7z"/>
		</g>
	</g>
	<g>
		<path class="st0" d="M88.4,39.2c-0.1-1.4-0.3-2.7-0.6-4c-0.4-1.5-0.9-3-1.8-4c-0.2-0.3-0.4-0.5-0.7-0.8c-0.3-0.2-0.5-0.4-0.8-0.6
			c-0.2-0.1-0.5-0.2-0.7-0.3c-0.4-0.1-0.8-0.2-1.1-0.2c0,0,0,0-0.1,0c-0.6,0-1.3,0.1-1.9,0.2c0,0,0,0-0.1,0h-0.1
			c-0.4,0-0.8,0.1-1.2,0.4c0,0-0.1,0-0.1,0.1c-0.3,0.1-0.6,0.3-0.9,0.5c-0.2,0.1-0.5,0.4-0.7,0.7c-0.2,0.3-0.4,0.7-0.4,1.1
			c0,0.1,0,0.2,0,0.3c-0.1,0.1-0.3,0.3-0.3,0.4c-0.7,1.3-1.2,2.8-1.6,4.3c-0.1,0.6-0.2,1.3-0.3,1.9c0,0.2,0,0.4-0.1,0.6
			c0,0.5-0.1,0.9-0.1,1.4c-0.1,0.3-0.2,0.6-0.2,0.9c-0.2,0.8-0.3,1.7-0.4,2.5C74,45.4,74,46,74,46.6c-0.1,0.7-0.1,1.3-0.1,2l0,0
			c-0.2,1.1-0.3,2.2-0.4,3.3c-0.1,0.8-0.1,1.7-0.1,2.5c0,0.1,0,0.1,0,0.2c-0.1,0.1-0.1,0.2-0.2,0.3c-0.2,0.2-0.3,0.4-0.5,0.5
			s-0.4,0.3-0.7,0.4c-0.2,0.1-0.3,0.1-0.5,0.1s-0.4,0-0.5,0s-0.2,0-0.3-0.1c-0.1-0.1-0.2-0.3-0.3-0.4c-0.3-0.3-0.7-0.5-1.2-0.7
			c-0.1,0-0.1,0-0.2-0.1c-0.3-0.1-0.7-0.1-1.1-0.1l0,0c-0.1-0.1-0.2-0.1-0.2-0.2c-0.4-0.3-0.9-0.5-1.4-0.7s-1.1-0.3-1.7-0.3
			c-0.4,0-0.8,0-1.2,0c-0.6,0.1-1.2,0.2-1.7,0.4c-1.1,0.4-2.1,1.1-2.9,1.9c-0.9,1-1.5,2.2-1.8,3.4c-0.1,0.4-0.1,0.8-0.2,1.2
			c0,0.2,0,0.5,0,0.7c0,0.4,0.1,0.7,0.1,1.1c0,0.3,0.1,0.5,0.2,0.8c0.4,1.1,1,2.2,1.9,3c0.3,0.3,0.7,0.6,1.1,0.9
			c0.1,0.3,0.3,0.6,0.5,0.9c0.2,0.2,0.4,0.5,0.6,0.7c0.2,0.2,0.4,0.4,0.7,0.6c0.6,0.5,1.3,0.9,2.1,1.2c0.4,0.2,0.8,0.3,1.3,0.4
			s1,0.2,1.5,0.2c0.7,0.1,1.4,0.1,2,0c0.7-0.1,1.3-0.2,1.9-0.4c0.2,0,0.4,0.1,0.6,0.1c0.5,0.1,0.9,0.1,1.4,0.1s1-0.1,1.5-0.2
			c0.9-0.2,1.8-0.6,2.7-1.1c0.9-0.5,1.7-1.1,2.4-1.7c0.2,0,0.3-0.1,0.5-0.2c0.4-0.1,0.8-0.2,1.2-0.4c0.9-0.4,1.7-1.1,2.5-1.9
			c0.7-0.8,1.3-1.8,1.8-2.9c0.1-0.2,0.1-0.3,0.2-0.5c0.8-1.5,1.3-3.4,1.4-5.2v-0.1c0.1-0.2,0.1-0.4,0.2-0.6c0.5-1.5,0.8-3,0.9-4.5
			c0-0.3,0-0.6,0-0.9c0.2-0.7,0.3-1.5,0.4-2.2C88.5,45.2,88.6,42.2,88.4,39.2z"/>
		<g>
			<path class="st1" d="M89.9,39.2c-0.4-3.9-1.2-9.3-5.4-10.9c-2.4-0.9-6.5-0.2-8.1,2c-2.3,3.2-2.8,7.6-3.4,11.5
				c-0.4,2.6-0.5,5.1-0.8,7.7c-0.1,0.8,0.1,3.8-0.4,4.3c-0.8,1-0.5,0.2-2.1-0.3c-1.8-0.6-1.2-0.5-3.2-1.1c-2.3-0.7-4.8-0.4-6.9,0.7
				c-3.5,1.9-5.4,6.4-4.2,10.3c2.7,8.4,13.1,11,20.5,7.9c5.4-2.2,9.9-5.6,11.5-11.6C89.4,53.3,90.2,45.9,89.9,39.2
				c-0.1-1.9-3.1-1.9-3,0c0.3,5.7-0.5,11.4-1.7,16.9c-0.5,2.2-0.7,4.3-1.9,6.2c-1.1,1.9-5.1,4.5-7.5,5.8c-2.1,1.1-5.1,1.1-7.5,1.3
				c-3.6,0.3-5.1-1.2-7.3-3.6c-2.6-2.8-4.4-5.9-0.8-9.1c2.1-1.9,5.2-1.5,7.7-0.5c2.1,0.8,3.7,2.2,5.8,0.3c2-1.8,1.4-5.5,1.6-7.8
				c0.4-4.7,0.3-10.8,2.8-15.1c3.9-6.6,8.1,0.6,8.7,5.6C87.1,41.1,90.1,41.1,89.9,39.2z"/>
		</g>
	</g>
</g>
<g>
	<g>
		<path class="st0" d="M34.5,10.7c-0.2,0.9-0.3,1.8,0,2.7l0,0c-0.1,1.2,0.8,2.3,1.8,2.7c0.3,0.2,0.6,0.4,0.9,0.6
			c0.1,0.1,0.1,0.1,0.2,0.2c0.3,0.3,0.7,0.6,1,0.8c0.7,0.4,1.2,0.5,1.9,0.7c0.2,0,0.5,0.1,0.8,0.1c0.6,0,1.2-0.1,1.8-0.3
			c0.3-0.1,0.6-0.2,0.9-0.3c0.5,0,1-0.1,1.4-0.2c1.6-0.3,3.1-0.9,4.4-1.9c0.4-0.3,0.7-0.7,1-1.1c0.3-0.3,0.5-0.6,0.7-1
			c0.4-0.7,0.5-1.2,0.7-2c0.3-0.7,0.5-1.5,0.6-2.3c0.1-0.6,0-1.3-0.2-1.8C52.3,7,52,6.4,51.6,5.8c-0.3-0.4-0.5-0.8-0.8-1.1
			c-0.3-0.3-0.7-0.7-1-0.9c-0.7-0.6-1.5-1-2.3-1.3c-0.8-0.4-1.8-0.7-2.7-0.8c-0.3,0-0.7,0-1,0c-0.8-0.1-1.7,0-2.4,0.2
			c-0.8,0.3-1.6,0.7-2.2,1.2c-0.1,0.1-0.3,0.1-0.4,0.2c-1,0.5-1.6,1.2-2.3,2c-0.1,0.2-0.3,0.3-0.4,0.5c-0.1,0-0.1,0-0.2,0.1
			c-0.8,0.4-1.4,1.2-1.7,2C33.9,8.8,34,9.8,34.5,10.7C34.6,10.5,34.6,10.6,34.5,10.7z"/>
		<g>
			<path class="st1" d="M33.1,10.3c-0.3,2.5-0.4,5.1,1.7,6.7c2.1,1.7,4.4,3.2,7.2,2.8c6.2-0.7,12.6-4.4,11.9-11.6
				c-0.5-5.6-7.3-9.1-12.4-8c-2.6,0.6-4.5,2.4-6.3,4.2c-0.9,0.9-1.7,1.3-2.2,2.5C32.7,8.1,33.3,9.5,33.1,10.3
				c-0.5,1.9,2.4,2.7,2.9,0.8c1-3.5,0.8-4.7,4-6.7c3.2-2.1,8.2-1.3,10.3,2.2c1.3,2.1,0.5,5.5-1,7.3s-3.6,2-5.7,2.5
				c-2.2,0.5-3.2,0.7-5.2-0.6c-1.9-1.2-2.8-2.3-2.4-4.7C36.3,9.2,33.4,8.3,33.1,10.3z"/>
		</g>
	</g>
	<g>
		<g>
			<path class="st0" d="M36.1,41.6L36.1,41.6c-0.2,0.8-0.1,1.5,0,2.3c0.1,0.9,0.5,1.8,0.9,2.6c0.5,0.9,1.1,1.7,1.7,2.5
				c0.3,0.4,0.7,0.7,1,1.1c0.4,0.4,0.9,0.7,1.3,1c0.7,0.5,1.6,0.8,2.5,1c0.7,0.2,1.5,0.2,2.2,0.1c0.4,0,0.7-0.1,1.1-0.2
				c0.4-0.1,0.7-0.2,1.1-0.4c0.6-0.3,1.1-0.6,1.6-1.1c0.5-0.4,0.9-1,1.3-1.5c0.3-0.5,0.6-1.1,0.9-1.6c0.3-0.6,0.5-1.2,0.7-1.9
				c-0.1-0.6-0.1-1.2-0.2-1.7c-0.1-0.6-0.1-1.2-0.2-1.9c0-1.7-0.1-3.4-0.3-5.2c0-0.2,0-0.3,0-0.5c0.1-1.9,0.4-3.7,0.3-5.6
				c0-0.9-0.2-1.8-0.5-2.7c-0.3-0.9-0.8-1.7-1.4-2.3c-0.3-0.3-0.7-0.6-1.1-0.8c-0.4-0.3-0.9-0.5-1.4-0.7c-0.9-0.4-1.9-0.6-2.9-0.6
				c-0.1,0-0.2,0-0.2,0c-0.3,0-0.6,0-0.9,0.1l0,0c-0.2-0.1-0.5-0.1-0.7-0.1l0,0c-0.2,0-0.5,0-0.7,0.1c-0.1,0-0.3,0.1-0.4,0.1
				c-0.2,0-0.3,0.1-0.5,0.2c-0.3,0.1-0.6,0.2-0.9,0.4c-0.4,0.2-0.7,0.4-1,0.6c-0.5,0.3-0.9,0.7-1.3,1.1c-0.4,0.4-0.7,0.8-1,1.2
				c-0.3,0.4-0.5,0.9-0.7,1.3c-0.1,0.3-0.2,0.6-0.3,1C36,30,36,30.5,35.9,31c-0.1,0.9-0.1,1.9,0,2.8c0.1,0.8,0.2,1.6,0.3,2.3
				c-0.1,1.1-0.2,2.2-0.3,3.4c0,0.5,0,0.9-0.1,1.4c0,0.1,0,0.2,0,0.2C35.9,41.3,36,41.5,36.1,41.6z"/>
			<g>
				<path class="st1" d="M34.7,41.2c-1.6,7,6.8,14.9,13.6,12c2.5-1.1,4.4-3.6,5.2-6.2c0.7-2.6,0-5.7-0.2-8.4
					c-0.1-2.8,0.4-5.7,0.1-8.5c-0.6-6-6.9-9.5-12.5-7.6c-3.1,1-5.6,3.9-6.2,7.1c-0.6,2.7,0,5.6-0.1,8.3c-0.1,1.6-0.5,3.1,0.3,4.5
					c0.9,1.7,3.5,0.2,2.6-1.5c-0.7-1.2,0.2-4.4,0.1-6c-0.2-3.3,0-7.6,3.6-9.3c1.1-0.5,1.5-0.4,2.5-0.4c0.3,0,0.7-0.1,1.1-0.1
					c3.8,0.8,5.6,2.8,5.7,6.6c0.1,2.3-0.3,4.6-0.2,6.9c0.1,2.5,0.9,6,0,8.3c-3,7.5-14.3,1.9-12.7-4.9C38,40.1,35.1,39.3,34.7,41.2z"
					/>
			</g>
		</g>
	</g>
</g>
<g>
	<g>
		<g>
			<path class="st0" d="M97.6,41.6L97.6,41.6c-0.2,0.8-0.1,1.5,0,2.3c0.1,0.9,0.5,1.8,0.9,2.6c0.5,0.9,1.1,1.7,1.7,2.5
				c0.3,0.4,0.7,0.7,1,1.1c0.4,0.4,0.9,0.7,1.3,1c0.7,0.5,1.6,0.8,2.5,1c0.7,0.2,1.5,0.2,2.2,0.1c0.4,0,0.7-0.1,1.1-0.2
				c0.4-0.1,0.7-0.2,1.1-0.4c0.6-0.3,1.1-0.6,1.6-1.1c0.5-0.4,0.9-1,1.3-1.5c0.3-0.5,0.6-1.1,0.9-1.6c0.3-0.7,0.5-1.3,0.7-2
				c0.4-1.3,0.6-2.7,0.7-4.1c0.1-1.3,0.2-2.5,0.1-3.8c0-0.4-0.1-0.8-0.1-1.2c0-0.6,0-1.3,0-1.9c-0.3-1.4-0.6-2.8-1-4.1
				c-0.6-2.1-1.3-4.2-2.2-6.2c-0.4-0.8-0.8-1.7-1.3-2.4c-0.5-0.7-1-1.4-1.6-2c-0.6-0.5-1.2-1-1.9-1.2c-0.4-0.2-0.8-0.2-1.2-0.2
				c-0.3,0-0.6,0-0.9,0.1c-1.8,0.3-3.6,1.3-4.8,2.9c-0.3,0.4-0.5,0.8-0.7,1.2c-0.2,0.4-0.4,0.9-0.6,1.4c-0.3,0.9-0.5,1.9-0.6,2.9
				c0,0.1,0,0.1,0,0.2c-0.1,0.4-0.2,0.7-0.3,1.1c-0.2,0.9-0.4,1.8-0.6,2.8c0,0.3-0.1,0.5-0.1,0.8c0,3.2,0.3,6.4,0.8,9.6
				C97.4,41.3,97.5,41.5,97.6,41.6z"/>
			<g>
				<path class="st1" d="M96.1,41.2c-1.6,7,6.8,14.9,13.6,12c7.3-3.1,7.2-14.9,5.7-21.1c-1.5-6.3-5.7-19.2-14.6-13.9
					c-3.5,2.1-4.2,5.7-5,9.5C94.9,32,94,38.4,96.2,42.4c0.9,1.7,3.5,0.2,2.6-1.5c-2.1-3.7-0.8-11.1,0.3-15.1
					c0.1-1.3,0.7-2.4,1.7-3.2c0.7-1.9,1.9-2.4,3.8-1.7c2.8,0.1,3.2,0.6,4.5,2.9c1.3,2.4,2.2,5.1,2.9,7.7c1.3,4.7,1.6,10.9-0.5,15.4
					c-1.2,2.5-3.3,4.5-6.3,3.8c-3.2-0.7-7.1-5.3-6.3-8.7C99.5,40.1,96.6,39.3,96.1,41.2z"/>
			</g>
		</g>
	</g>
	<g>
		<path class="st0" d="M141.5,40.5c-0.1-1.1-0.2-2.3-0.4-3.4c-0.3-1.6-0.9-3.2-1.7-4.7c-0.1-0.2-0.2-0.3-0.3-0.5
			c-0.1-0.3-0.2-0.6-0.3-1c-0.6-1.8-1.6-3.4-2.8-4.8c-0.5-0.7-1.1-1.3-1.7-1.9c-0.7-0.7-1.5-1.3-2.3-1.9c-1.4-1.1-3.1-1.8-4.7-2.5
			c-0.8-0.3-1.7-0.6-2.5-0.8c-0.3-0.1-0.6-0.1-0.9-0.2c-0.9-0.2-1.8-0.3-2.7-0.3c-0.1,0-0.1-0.1-0.2-0.1s-0.2,0-0.3,0l0,0l0,0
			c-0.6-0.1-1.3-0.1-1.9-0.1c-0.1,0-0.1,0-0.2,0c-0.5,0-1.1,0-1.6,0.1h-0.1c-0.4,0-0.7-0.1-1.1-0.1l0,0c-0.4,0-0.8,0.1-1.2,0.1
			c-0.6,0.1-1.2,0.4-1.8,0.6c-0.3,0.1-0.5,0.3-0.8,0.4l0,0c-1.4,0.6-2.8,1.3-3.9,2.4c-0.3,0.3-0.5,0.6-0.7,0.9s-0.4,0.5-0.5,0.8
			c-0.2,0.4-0.3,0.8-0.4,1.2c-0.1,0.4-0.2,0.8-0.2,1.3c0,0.3,0,0.7,0,1c0.1,0.4,0.1,0.9,0.3,1.3c0.1,0.5,0.3,1,0.6,1.5
			c0,0.1,0.1,0.3,0.1,0.4c0.1,0.4,0.3,0.8,0.5,1.2c0.1,0.1,0.1,0.2,0.2,0.3c0,0.1,0.1,0.2,0.1,0.4c0.2,0.6,0.5,1.1,0.9,1.6
			c0.2,0.2,0.3,0.4,0.5,0.5c0.5,0.7,1.2,1.3,2.1,1.4c0.3,0,0.5,0.1,0.8,0.1s0.6-0.1,0.9-0.1c0.1,0,0.3,0,0.4-0.1
			c0.3,0,0.5,0,0.8-0.1c0.6-0.1,1.1-0.2,1.6-0.3c0.6-0.2,1.1-0.4,1.7-0.6c0.9-0.4,1.8-1,2.6-1.8c0.1-0.1,0.3-0.3,0.4-0.4
			c0.2-0.1,0.4-0.2,0.7-0.3c0.4-0.1,0.7-0.2,1.1-0.3c0.2,0,0.5,0,0.7,0s0.4,0.1,0.6,0.2c0.1,0.1,0.3,0.1,0.4,0.2
			c0.1,0,0.1,0.1,0.2,0.1c0.3,0.2,0.5,0.5,0.7,0.7c0.4,0.5,0.7,1,0.9,1.6c0.4,1.1,0.7,2.3,0.9,3.5c0.2,1.5,0.2,3.1,0,4.6
			c-0.1,0.8-0.3,1.7-0.6,2.5c0,0.1-0.1,0.2-0.1,0.3c-0.1,0.3,0,1.6,0.1,1.8c0.4,0.7,0.9,1.3,1.4,1.9c0.3,0.4,0.7,0.7,1,1.1
			c0.4,0.4,0.9,0.7,1.3,1c0.7,0.5,1.6,0.8,2.5,1c0.7,0.2,1.5,0.2,2.2,0.1c0.4,0,0.7-0.1,1.1-0.2c0.4-0.1,0.7-0.2,1.1-0.4
			c0.6-0.3,1.1-0.6,1.6-1.1c0.5-0.4,0.9-1,1.3-1.5c0.3-0.5,0.6-1.1,0.9-1.6c0.3-0.7,0.5-1.3,0.7-2c0.1-0.4,0.2-0.8,0.3-1.3
			C141.6,43,141.6,41.7,141.5,40.5z"/>
		<g>
			<path class="st1" d="M143,40.5c-1.3-13.1-9.3-22-22.3-23.7c0.5,0.5,1,1,1.5,1.5l0,0c0-0.9-0.7-1.4-1.5-1.5
				c-6.1-0.7-15.6,1.3-16,9.1c-0.1,2.7,1.4,6.6,3.1,8.7c2.3,3,6,2.7,9.3,1.6c2.1-0.7,4.7-3.6,6.6-2.4c3.3,2.2,1.2,8.2,0.9,11.1
				c-0.2,3.3,1.7,5.9,4.5,7.6C137.9,57.8,143.2,47.9,143,40.5c-0.1-1.9-3.1-1.9-3,0c0.1,4.3-1.1,11.4-7.2,10.2
				c-2.4-0.5-5-2.9-5.2-5.3c-0.1-1.3,0.7-3,0.8-4.4c0.1-3.5-0.7-10.5-5.4-10.9c-3-0.3-4.9,2.8-7.5,3.5c-3.6,1-5.7-0.5-6.9-4
				c-2.7-8.3,5.6-10.5,12-9.8c-0.5-0.5-1-1-1.5-1.5l0,0c0,0.9,0.7,1.4,1.5,1.5c11.2,1.5,18.2,9.6,19.3,20.7
				C140.2,42.4,143.2,42.4,143,40.5z"/>
		</g>
	</g>
</g>
<g>
	<path class="st0" d="M26.1,36.5c-0.3-0.9-0.6-1.7-1.1-2.4c0-0.1-0.1-0.2-0.1-0.2c-0.4-0.7-0.8-1.4-1.4-2c-0.1-0.1-0.2-0.3-0.3-0.4
		c-0.4-0.4-0.9-0.8-1.5-1c0,0-0.1,0-0.1-0.1c-0.4-0.3-0.9-0.4-1.2-0.5c-0.4-0.1-0.8-0.2-1.2-0.3c-0.8-0.2-1.6-0.2-2.6-0.2l0,0
		c-0.9-0.1-1.7-0.2-2.4-0.2c-0.2,0-0.3,0-0.5,0c-0.7,0-1.4,0-2,0.1c0,0,0,0-0.1,0l-0.1,0.1l-0.1,0.1c0,0-0.1,0-0.1,0.1
		c0,0-0.1,0-0.2,0H11c-0.1,0-0.1,0-0.2,0h-0.1h-0.1c0,0,0,0-0.1,0s-0.1,0-0.2,0c-0.1,0-0.2-0.1-0.2-0.1l0,0c0,0,0,0,0-0.1
		c0,0,0,0,0-0.1c0,0,0,0,0-0.1c-0.1,0-0.1,0-0.2,0c-0.1-0.1-0.2-0.2-0.1-0.3c0,0,0,0,0-0.1c0,0,0-0.1,0.1-0.1l0,0c0,0,0,0,0-0.1l0,0
		c0,0,0,0,0-0.1c0,0,0,0,0-0.1c0,0,0-0.1,0.1-0.1l0,0l0,0v-0.1v-0.1c0,0,0-0.1,0.1-0.1l0.1-0.1c0,0,0,0,0.1,0l0,0l0,0l0,0
		c0,0,0.1,0,0.1-0.1c0.1,0,0.1,0,0.2-0.1l0,0l0,0l0,0l0,0c0.4-0.2,0.8-0.4,1.2-0.5c0.5-0.1,1-0.2,1.5-0.2c0.4,0,0.7,0.1,1.2,0.1l0,0
		h0.1c0.1,0,0.1,0,0.2,0c0.4,0.1,0.7,0.1,1.1,0.2l0.6,0.1c0.6,0.1,1.3,0.2,2,0.3c0.3,0,0.7,0,1,0c0.5,0,0.9,0,1.4-0.1
		c0.2,0,0.4,0,0.6,0c0.1,0,0.2,0,0.4,0c0.2,0,0.4-0.1,0.7-0.1c0.3-0.1,0.6-0.2,0.8-0.3c0.3-0.1,0.5-0.3,0.7-0.4s0.4-0.3,0.6-0.5
		s0.4-0.4,0.5-0.6l0.1-0.1c0.3-0.3,0.5-0.6,0.7-1c0.1-0.2,0.1-0.4,0.2-0.5V24c0-0.1,0.1-0.2,0.1-0.4c0-0.2,0.1-0.4,0.1-0.6
		s0-0.5,0-0.6v-0.1c0-0.3-0.1-0.5-0.2-0.7c-0.1-0.3-0.2-0.6-0.3-0.8c-0.1-0.2-0.2-0.4-0.3-0.6c0-0.2-0.1-0.3-0.2-0.5
		c-0.2-0.2-0.4-0.4-0.5-0.6c-0.1-0.1-0.2-0.1-0.3-0.2l0,0l0,0c-0.1-0.1-0.1-0.1-0.2-0.1c0,0-0.1,0-0.1-0.1c0,0-0.1,0-0.1-0.1l0,0
		l0,0l0,0c-0.1-0.2-0.2-0.3-0.3-0.4c-0.3-0.3-0.7-0.5-1.1-0.7c-0.5-0.2-1.1-0.5-1.7-0.7c-0.3-0.1-0.6-0.2-1-0.2
		c-0.8-0.2-1.7-0.3-2.7-0.3c-0.1,0-0.2,0-0.3,0c-0.5,0-1,0-1.5,0.1c-0.1,0-0.1,0-0.2,0c0,0,0,0-0.1,0c0,0-0.1,0-0.2,0
		c-0.2,0-0.3,0-0.5,0c-0.6,0-1.2,0.1-1.9,0.2c-0.8,0.2-1.7,0.4-2.5,0.8c-0.9,0.4-1.7,0.8-2.5,1.3s-1.5,1.2-2.1,1.9
		c-0.4,0.5-0.8,1.1-1.1,1.6c-0.4,0.5-0.7,1-1,1.6S3,25,2.8,25.7c-0.1,0.3-0.2,0.6-0.3,1c-0.2,0.4-0.3,0.9-0.3,1.3
		c-0.1,0.9-0.1,1.8,0,2.7c0,0.3,0,0.6,0,0.9s0,0.5,0,0.8c0,0.1,0,0.1,0,0.2v0.1v0.2l0.1,0.4c0.1,0.3,0.2,0.7,0.3,1.1
		C2.7,34.7,2.8,35,3,35.2c0,0,0,0,0,0.1v0.1c0.1,0.1,0.1,0.2,0.2,0.3c0,0,0,0.1,0.1,0.1c0.1,0.1,0.2,0.3,0.4,0.4c0,0,0,0,0.1,0.1
		l0.1,0.1l0.4-0.3l0,0L4,36.4c0.1,0.1,0.2,0.2,0.3,0.3l0,0l0,0l0,0c0.1,0.1,0.2,0.1,0.2,0.2l0,0h0.1L4.7,37l0.1,0.1c0,0,0,0,0.1,0
		L5,37.2l0,0c0.1,0.1,0.3,0.2,0.4,0.3c0,0,0,0,0.1,0c0,0,0,0,0.1,0h0.1C5.6,37.9,5.8,37.9,6,38c0.1,0,0.2,0.1,0.3,0.1h0.1h0.1h0.1
		l0.2,0.1h0.1l0.2,0.1h0.1l0.2-0.5l0,0L7,38.4c0,0,0,0,0.1,0s0.2,0.1,0.3,0.1h0.1l0.2,0.1h0.1h0.1h0.2h0.1h0.1h0.1l0,0h0.1h0.2h0.1
		c0.2,0,0.4,0.1,0.5,0.1s0.3,0,0.4,0c0,0,0,0,0.1,0c0.4,0,0.7,0.1,1.1,0.1H11h0.1c0.2,0,0.4-0.1,0.7-0.1h0.1H12h0.1h0.1
		c0.1,0,0.2-0.1,0.3-0.1l0,0h0.1c0,0,0,0,0.1,0h0.1h0.1c0,0,0,0,0.1,0s0.2,0,0.2,0h0.1c0.3,0,0.5-0.1,0.7-0.1l0,0l0,0h0.1
		c0.3,0,0.6-0.1,1-0.2h0.2c0.8,0.1,1.4,0.3,1.9,0.5c0.4,0.2,0.7,0.3,1,0.5c0.1,0.1,0.2,0.2,0.3,0.3c0.1,0.1,0.1,0.2,0.1,0.3V40
		c0,0.1,0,0.2-0.1,0.3c0,0.1,0,0.1-0.1,0.2c0,0.1-0.1,0.1-0.1,0.2c-0.1,0.1-0.1,0.1-0.2,0.2H18c-0.2,0.1-0.4,0.2-0.5,0.2l-0.1,0.1
		c0,0-0.1,0-0.1,0.1c-0.2,0-0.4,0.1-0.6,0.1h-0.1c-0.5,0-1-0.2-1.5-0.3c-0.2-0.1-0.5-0.1-0.7-0.2c-0.4-0.1-0.7-0.2-1.1-0.3
		c-0.3-0.1-0.6-0.1-1-0.2c-0.4-0.1-0.8-0.1-1.1-0.1c-0.4,0-0.8,0-1.2,0.1c-0.1,0-0.2,0.1-0.3,0.1c-0.2,0-0.3,0-0.5,0
		c-0.1,0-0.3,0-0.4,0c-1,0-1.8,0.1-2.6,0.4c-1.2,0.3-2.1,0.8-2.8,1.4c-0.9,0.8-1.6,2-1.7,3.2c0,0.4-0.1,0.7-0.1,1s0.1,0.7,0.1,1.1
		c0,0.1,0,0.2,0.1,0.3c0,0.1,0,0.1,0.1,0.2l0,0c0,0,0,0,0,0.1c0,0,0,0,0,0.1s0.1,0.2,0.2,0.3l-0.1,0v0.1c0.1,0.1,0.1,0.1,0.2,0.2
		l0.2,0.3c0.1,0.1,0.2,0.2,0.3,0.4c0.2,0.3,0.6,0.7,1,1.1c0,0,0,0,0.1,0c0.1,0.1,0.2,0.1,0.3,0.2s0.2,0.1,0.3,0.2l0,0
		c0,0,0.1,0,0.1,0.1l0.3-0.4l0,0l-0.2,0.4h0.1c0.1,0,0.1,0.1,0.2,0.1H5c0.2,0.1,0.4,0.2,0.6,0.2l0.3,0.1H6h0.1l0.1,0.1l0,0h0.1h0.1
		C6.5,52,6.6,52,6.7,52.1c0.1,0,0.1,0,0.2,0c0.3,0.1,0.7,0.1,1,0.1H8c0.1,0,0.2,0,0.3,0c0.1,0.1,0.2,0.1,0.3,0.1c0.4,0,0.9,0,1.3,0
		c0.4,0,0.9,0,1.3,0c0.4,0,0.8-0.1,1.2-0.1l0,0c0.3,0,0.7,0,1,0s0.6,0,1,0h0.3H15c0.2,0,0.4,0,0.6,0c0.2,0,0.4,0,0.6,0h0.1
		c0.3,0,0.6,0,1-0.1c0.1,0,0.3,0,0.4,0c0.6-0.1,1.2-0.2,1.9-0.4c0.6-0.2,1.2-0.4,1.7-0.7c0.6-0.4,1.2-0.8,1.6-1.2
		c0.3-0.3,0.5-0.6,0.7-0.9c0.2-0.3,0.4-0.6,0.6-0.9c0.1-0.2,0.2-0.4,0.3-0.7c0-0.1,0.1-0.1,0.1-0.2c0.2-0.4,0.4-0.8,0.6-1.3
		c0.2-0.4,0.3-0.9,0.4-1.4c0-0.2,0.1-0.4,0.1-0.7c0-0.1,0-0.2,0.1-0.2c0.3-0.8,0.5-1.7,0.6-2.6C26.6,39.3,26.5,37.8,26.1,36.5z
		 M14.5,26.1L14.5,26.1L14.5,26.1z M6.7,37.3L6.7,37.3L6.7,37.3z M12.3,37.7L12.3,37.7L12.3,37.7z"/>
	<g>
		<path class="st1" d="M27.5,36.1c-1.9-5.1-4.9-7.8-10.3-8.3c-1.7-0.2-4.5-0.8-6.1-0.1c-1.1,0.5,0.3-0.2,0.3,1.3
			c0-0.7-0.5-1.3-1.1-1.4c-1.5-0.4,1.9,3,0.9,1.4l-0.1-1.2c-0.1,0.7,0.3,1.5-0.1,1.3c-0.1-0.1,0.7-0.5,1.9-0.6
			c1.8-0.2,3.6,0.6,5.4,0.7c3.6,0.2,7.4-0.4,8.9-4.1c1-2.4,0.1-5.8-2.1-7.3c-0.4,0.9-0.8,1.8-1.2,2.7l0,0c1.4,0.5,2.5-1.5,1.5-2.5
			c-0.7-0.6-0.5-0.6-0.2,0c-0.2,0.7-0.4,1.4-0.5,2.1l0,0c1.3-0.9,0.5-3.4-1.2-2.7l0,0c0.6,0.2,1.1,0.5,1.7,0.7
			c-4.8-6.4-17.7-2.6-21.7,2.8c-3.1,4.3-5,12.4-0.8,16.7c0.6,0.6,1.5,0.5,2.1,0c0.1-0.1,0.2-0.2,0.4-0.3c-0.7,0-1.4,0-2.1,0l0,0
			c0-0.7,0-1.4,0-2.1c-0.1,0.1-0.2,0.2-0.3,0.3c-0.6,0.6-0.6,1.6,0,2.1c0.1,0.1,0.2,0.2,0.3,0.3c0.6,0.6,1.5,0.6,2.1,0l0,0
			c-0.7,0-1.4,0-2.1,0c0.8,0.8,2,1.5,3.5,1.9c0.8,0.2,1.6-0.3,1.8-1c0.1-0.2,0.1-0.3,0.2-0.5c-0.6,0.3-1.2,0.7-1.8,1l0,0
			c-0.3-0.6-0.7-1.2-1-1.8c0,0.2-0.1,0.3-0.1,0.5c-0.2,0.8,0.3,1.6,1,1.8c1.8,0.5,3.7,0.7,5.6,0.5c0.5,0,0.9-0.3,1.4-0.3
			s1.1,0,1.6-0.1c0.6-0.1,2.2,0,2.1-0.3l-0.8,0.3c-5-2-15.1-1.7-16.3,5.2c-0.5,3,1,6,3.7,7.4c0.7,0.4,1.6,0.2,2.1-0.5
			c0.1-0.1,0.2-0.3,0.3-0.4C5.7,51.8,5,52,4.3,52.1l0,0c-0.2-0.7-0.4-1.4-0.5-2.1c-0.1,0.1-0.1,0.3-0.2,0.4
			c-0.4,0.7-0.2,1.7,0.5,2.1c3.8,2,7.6,1.3,11.8,1.1C24.8,53.3,29.4,44.7,27.5,36.1c-0.4-1.9-3.3-1.1-2.9,0.8
			c0.9,3.9-0.3,10.4-4.1,12.7c-2.3,1.3-5,1-7.5,1.1c-2.6,0.1-5.2,0.5-7.6-0.7c0.2,0.7,0.4,1.4,0.5,2.1C6,52,6,51.8,6.1,51.7
			C6.5,51,6.3,50,5.6,49.6l0,0C4.8,49.1,4,49.3,3.5,50c-0.1,0.1-0.2,0.3-0.3,0.4c0.7-0.2,1.4-0.4,2.1-0.5c-0.8-0.4-2.1-2.1-2.1-2.2
			c-2.3-6.2,7.4-6,10.6-5.3c2,0.4,8.1,0.4,5.7-3.5c-2.1-3.4-8.6-1-12-1.9c0.3,0.6,0.7,1.2,1,1.8c0-0.2,0.1-0.3,0.1-0.5
			c0.2-0.8-0.3-1.6-1-1.8l0,0c-0.8-0.2-1.6,0.3-1.8,1c-0.1,0.2-0.1,0.3-0.2,0.5c0.6-0.3,1.2-0.7,1.8-1c-0.3-0.1-1.1-0.2-1.3-0.5
			c-0.6-0.8-0.4-0.2-0.9-0.7c-0.6-0.6-1.5-0.6-2.1,0l0,0c0.7,0,1.4,0,2.1,0c-0.1-0.1-0.2-0.2-0.3-0.3c0,0.7,0,1.4,0,2.1
			c0.1-0.1,0.2-0.2,0.3-0.3c0.6-0.6,0.6-1.5,0-2.1l0,0c-0.6-0.6-1.5-0.5-2.1,0c-0.1,0.1-0.2,0.2-0.4,0.3c0.7,0,1.4,0,2.1,0
			c-2.6-2.7-1.3-8.3,0.1-11.1c2-4,5.7-5.9,10-6.3c1.3-0.1,6.3-0.4,7.7,1.5c0.4,0.5,1,1,1.7,0.7l0,0c-0.4-0.9-0.8-1.8-1.2-2.7l0,0
			c-0.7,0.5-0.9,1.3-0.5,2.1c0.1,0.3,0.8,0.7,0.7,0.6c0.5-0.8,1-1.7,1.5-2.5l0,0c-1.7-0.6-2.5,1.8-1.2,2.7c1.7,1.1,1,3.9-0.2,5
			c-2,1.7-5.4,0.8-7.8,0.4c-1.2-0.2-2.9-0.5-4.5,0.1c-0.4,0.1-2.7,1.3-1.5,0.8c0.5-0.2,0.4-0.6-0.1-0.1c-0.9,0.9-1.1,1-1.2,1.6
			c-0.1,0.4-0.1,0.9,0.2,1.2c0.1,0.2,0.1-2.6,0-1.5c0,0.1-0.3,0.2-0.2,0.4c0.2,1-0.2,2,1.2,2.4c-0.4-0.5-0.7-1-1.1-1.4
			c0.1,1.9,1.8,1.8,3.1,1.8c1.2,0-0.2-0.2-0.2-0.2c1.2-0.2,2.6-0.1,3.9,0c4.8,0.3,7.6,1.6,9.4,6.3C25.3,38.7,28.2,37.9,27.5,36.1z"
			/>
		<path class="st1" d="M13,26.1L13,26.1c0,0.8,0.7,1.5,1.5,1.5s1.5-0.7,1.5-1.5l0,0c0-0.8-0.7-1.5-1.5-1.5
			C13.7,24.7,13,25.3,13,26.1L13,26.1c0,0.8,0.7,1.5,1.5,1.5s1.5-0.7,1.5-1.5l0,0c0-0.8-0.7-1.5-1.5-1.5C13.7,24.7,13,25.3,13,26.1z
			"/>
		<path class="st1" d="M8.2,37.3L8.2,37.3c0-0.8-0.7-1.5-1.5-1.5s-1.5,0.7-1.5,1.5l0,0c0,0.8,0.7,1.5,1.5,1.5
			C7.5,38.7,8.2,38.1,8.2,37.3L8.2,37.3c0-0.8-0.7-1.5-1.5-1.5s-1.5,0.7-1.5,1.5l0,0c0,0.8,0.7,1.5,1.5,1.5
			C7.5,38.7,8.2,38.1,8.2,37.3z"/>
		<path class="st1" d="M13.8,37.7L13.8,37.7c0-0.8-0.7-1.5-1.5-1.5s-1.5,0.7-1.5,1.5l0,0c0,0.8,0.7,1.5,1.5,1.5S13.8,38.6,13.8,37.7
			L13.8,37.7c0-0.8-0.7-1.5-1.5-1.5s-1.5,0.7-1.5,1.5l0,0c0,0.8,0.7,1.5,1.5,1.5S13.8,38.6,13.8,37.7z"/>
	</g>
</g>
<g>
	<g>
		<path class="st0" d="M156.8,11.3c-0.2,0.9-0.3,1.8,0,2.7l0,0c-0.1,1.2,0.8,2.3,1.8,2.7c0.3,0.2,0.6,0.4,0.9,0.6
			c0.1,0.1,0.1,0.1,0.2,0.2c0.3,0.3,0.7,0.6,1,0.8c0.7,0.4,1.2,0.5,1.9,0.7c0.2,0,0.5,0.1,0.8,0.1c0.6,0,1.2-0.1,1.8-0.3
			c0.3-0.1,0.6-0.2,0.9-0.3c0.5,0,1-0.1,1.4-0.2c1.6-0.3,3.1-0.9,4.4-1.9c0.4-0.3,0.7-0.7,1-1.1c0.3-0.3,0.5-0.6,0.7-1
			c0.4-0.7,0.5-1.2,0.7-2c0.3-0.7,0.5-1.5,0.6-2.3c0.1-0.6,0-1.3-0.2-1.8c-0.1-0.6-0.4-1.2-0.8-1.8c-0.3-0.4-0.5-0.8-0.8-1.1
			c-0.3-0.3-0.7-0.7-1-0.9c-0.7-0.6-1.5-1-2.3-1.3c-0.8-0.4-1.8-0.7-2.7-0.8c-0.3,0-0.7,0-1,0c-0.8-0.1-1.7,0-2.4,0.2
			c-0.8,0.3-1.6,0.7-2.2,1.2c-0.1,0.1-0.3,0.1-0.4,0.2c-1,0.5-1.6,1.2-2.3,2c-0.1,0.2-0.3,0.3-0.4,0.5c-0.1,0-0.1,0-0.2,0.1
			c-0.8,0.4-1.4,1.2-1.7,2c-0.3,0.9-0.2,1.9,0.2,2.7C156.9,11.1,156.9,11.2,156.8,11.3z"/>
		<g>
			<path class="st1" d="M155.4,10.9c-0.3,2.5-0.4,5.1,1.7,6.7c2.1,1.7,4.4,3.2,7.2,2.8c6.2-0.7,12.6-4.4,11.9-11.6
				c-0.5-5.6-7.3-9.1-12.4-8c-2.6,0.6-4.5,2.4-6.3,4.2c-0.9,0.9-1.7,1.3-2.2,2.5C155,8.7,155.6,10.1,155.4,10.9
				c-0.5,1.9,2.4,2.7,2.9,0.8c1-3.5,0.8-4.7,4-6.7c3.2-2.1,8.2-1.3,10.3,2.2c1.3,2.1,0.5,5.5-1,7.3s-3.6,2-5.7,2.5
				c-2.2,0.5-3.2,0.7-5.2-0.6c-1.9-1.2-2.8-2.3-2.4-4.7C158.6,9.8,155.7,8.9,155.4,10.9z"/>
		</g>
	</g>
	<g>
		<g>
			<path class="st0" d="M158.4,42.2L158.4,42.2c-0.2,0.8-0.1,1.5,0,2.3c0.1,0.9,0.5,1.8,0.9,2.6c0.5,0.9,1.1,1.7,1.7,2.5
				c0.3,0.4,0.7,0.7,1,1.1c0.4,0.4,0.9,0.7,1.3,1c0.7,0.5,1.6,0.8,2.5,1c0.7,0.2,1.5,0.2,2.2,0.1c0.4,0,0.7-0.1,1.1-0.2
				c0.4-0.1,0.7-0.2,1.1-0.4c0.6-0.3,1.1-0.6,1.6-1.1c0.5-0.4,0.9-1,1.3-1.5c0.3-0.5,0.6-1.1,0.9-1.6c0.3-0.6,0.5-1.2,0.7-1.9
				c-0.1-0.6-0.1-1.2-0.2-1.7c-0.1-0.6-0.1-1.2-0.2-1.9c0-1.7-0.1-3.4-0.3-5.2c0-0.2,0-0.3,0-0.5c0.1-1.9,0.4-3.7,0.3-5.6
				c0-0.9-0.2-1.8-0.5-2.7c-0.3-0.9-0.8-1.7-1.4-2.3c-0.3-0.3-0.7-0.6-1.1-0.8c-0.4-0.3-0.9-0.5-1.4-0.7c-0.9-0.4-1.9-0.6-2.9-0.6
				c-0.1,0-0.2,0-0.2,0c-0.3,0-0.6,0-0.9,0.1l0,0c-0.2-0.1-0.5-0.1-0.7-0.1l0,0c-0.2,0-0.5,0-0.7,0.1c-0.1,0-0.3,0.1-0.4,0.1
				c-0.2,0-0.3,0.1-0.5,0.2c-0.3,0.1-0.6,0.2-0.9,0.4c-0.4,0.2-0.7,0.4-1,0.6c-0.5,0.3-0.9,0.7-1.3,1.1c-0.4,0.4-0.7,0.8-1,1.2
				c-0.3,0.4-0.5,0.9-0.7,1.3c-0.1,0.3-0.2,0.6-0.3,1c-0.1,0.5-0.1,1-0.2,1.5c-0.1,0.9-0.1,1.9,0,2.8c0.1,0.8,0.2,1.6,0.3,2.3
				c-0.1,1.1-0.2,2.2-0.3,3.4c0,0.5,0,0.9-0.1,1.4c0,0.1,0,0.2,0,0.2C158.2,41.9,158.3,42.1,158.4,42.2z"/>
			<g>
				<path class="st1" d="M157,41.8c-1.6,7,6.8,14.9,13.6,12c2.5-1.1,4.4-3.6,5.2-6.2c0.7-2.6,0-5.7-0.2-8.4
					c-0.1-2.8,0.4-5.7,0.1-8.5c-0.6-6-6.9-9.5-12.5-7.6c-3.1,1-5.6,3.9-6.2,7.1c-0.6,2.7,0,5.6-0.1,8.3c-0.1,1.6-0.5,3.1,0.3,4.5
					c0.9,1.7,3.5,0.2,2.6-1.5c-0.7-1.2,0.2-4.4,0.1-6c-0.2-3.3,0-7.6,3.6-9.3c1.1-0.5,1.5-0.4,2.5-0.4c0.3,0,0.7-0.1,1.1-0.1
					c3.8,0.8,5.6,2.8,5.7,6.6c0.1,2.3-0.3,4.6-0.2,6.9c0.1,2.5,0.9,6,0,8.3c-3,7.5-14.3,1.9-12.7-4.9
					C160.3,40.7,157.4,39.9,157,41.8z"/>
			</g>
		</g>
	</g>
</g>
<g>
	<g>
		<g>
			<path class="st0" d="M187.9,42.2L187.9,42.2c-0.2,0.8-0.1,1.5,0,2.3c0.1,0.9,0.5,1.8,0.9,2.6c0.5,0.9,1.1,1.7,1.7,2.5
				c0.3,0.4,0.7,0.7,1,1.1c0.4,0.4,0.9,0.7,1.3,1c0.7,0.5,1.6,0.8,2.5,1c0.7,0.2,1.5,0.2,2.2,0.1c0.4,0,0.7-0.1,1.1-0.2
				c0.4-0.1,0.7-0.2,1.1-0.4c0.6-0.3,1.1-0.6,1.6-1.1c0.5-0.4,0.9-1,1.3-1.5c0.3-0.5,0.6-1.1,0.9-1.6c0.3-0.7,0.5-1.3,0.7-2
				c0.4-1.3,0.6-2.7,0.7-4.1c0.1-1.3,0.2-2.5,0.1-3.8c0-0.4-0.1-0.8-0.1-1.2c0-0.6,0-1.3,0-1.9c-0.3-1.4-0.6-2.8-1-4.1
				c-0.6-2.1-1.3-4.2-2.2-6.2c-0.4-0.8-0.8-1.7-1.3-2.4c-0.5-0.7-1-1.4-1.6-2c-0.6-0.5-1.2-1-1.9-1.2c-0.4-0.2-0.8-0.2-1.2-0.2
				c-0.3,0-0.6,0-0.9,0.1c-1.8,0.3-3.6,1.3-4.8,2.9c-0.3,0.4-0.5,0.8-0.7,1.2c-0.2,0.4-0.4,0.9-0.6,1.4c-0.3,0.9-0.5,1.9-0.6,2.9
				c0,0.1,0,0.1,0,0.2c-0.1,0.4-0.2,0.7-0.3,1.1c-0.2,0.9-0.4,1.8-0.6,2.8c0,0.3-0.1,0.5-0.1,0.8c0,3.2,0.3,6.4,0.8,9.6
				C187.7,41.9,187.8,42.1,187.9,42.2z"/>
			<g>
				<path class="st1" d="M186.4,41.8c-1.6,7,6.8,14.9,13.6,12c7.3-3.1,7.2-14.9,5.7-21.1c-1.5-6.3-5.7-19.2-14.6-13.9
					c-3.5,2.1-4.2,5.7-5,9.5c-0.9,4.3-1.8,10.7,0.4,14.7c0.9,1.7,3.5,0.2,2.6-1.5c-2.1-3.7-0.8-11.1,0.3-15.1
					c0.1-1.3,0.7-2.4,1.7-3.2c0.7-1.9,1.9-2.4,3.8-1.7c2.8,0.1,3.2,0.6,4.5,2.9c1.3,2.4,2.2,5.1,2.9,7.7c1.3,4.7,1.6,10.9-0.5,15.4
					c-1.2,2.5-3.3,4.5-6.3,3.8c-3.2-0.7-7.1-5.3-6.3-8.7C189.8,40.7,186.9,39.9,186.4,41.8z"/>
			</g>
		</g>
	</g>
	<g>
		<path class="st0" d="M231.8,41.1c-0.1-1.1-0.2-2.3-0.4-3.4c-0.3-1.6-0.9-3.2-1.7-4.7c-0.1-0.2-0.2-0.3-0.3-0.5
			c-0.1-0.3-0.2-0.6-0.3-1c-0.6-1.8-1.6-3.4-2.8-4.8c-0.5-0.7-1.1-1.3-1.7-1.9c-0.7-0.7-1.5-1.3-2.3-1.9c-1.4-1.1-3.1-1.8-4.7-2.5
			c-0.8-0.3-1.7-0.6-2.5-0.8c-0.3-0.1-0.6-0.1-0.9-0.2c-0.9-0.2-1.8-0.3-2.7-0.3c-0.1,0-0.1-0.1-0.2-0.1c-0.1,0-0.2,0-0.3,0l0,0l0,0
			c-0.6-0.1-1.3-0.1-1.9-0.1c-0.1,0-0.1,0-0.2,0c-0.5,0-1.1,0-1.6,0.1h-0.1c-0.4,0-0.7-0.1-1.1-0.1l0,0c-0.4,0-0.8,0.1-1.2,0.1
			c-0.6,0.1-1.2,0.4-1.8,0.6c-0.3,0.1-0.5,0.3-0.8,0.4l0,0c-1.4,0.6-2.8,1.3-3.9,2.4c-0.3,0.3-0.5,0.6-0.7,0.9s-0.4,0.5-0.5,0.8
			c-0.2,0.4-0.3,0.8-0.4,1.2c-0.1,0.4-0.2,0.8-0.2,1.3c0,0.3,0,0.7,0,1c0.1,0.4,0.1,0.9,0.3,1.3c0.1,0.5,0.3,1,0.6,1.5
			c0,0.1,0.1,0.3,0.1,0.4c0.1,0.4,0.3,0.8,0.5,1.2c0.1,0.1,0.1,0.2,0.2,0.3c0,0.1,0.1,0.2,0.1,0.4c0.2,0.6,0.5,1.1,0.9,1.6
			c0.2,0.2,0.3,0.4,0.5,0.5c0.5,0.7,1.2,1.3,2.1,1.4c0.3,0,0.5,0.1,0.8,0.1s0.6-0.1,0.9-0.1c0.1,0,0.3,0,0.4-0.1
			c0.3,0,0.5,0,0.8-0.1c0.6-0.1,1.1-0.2,1.6-0.3c0.6-0.2,1.1-0.4,1.7-0.6c0.9-0.4,1.8-1,2.6-1.8c0.1-0.1,0.3-0.3,0.4-0.4
			c0.2-0.1,0.4-0.2,0.7-0.3c0.4-0.1,0.7-0.2,1.1-0.3c0.2,0,0.5,0,0.7,0s0.4,0.1,0.6,0.2c0.1,0.1,0.3,0.1,0.4,0.2
			c0.1,0,0.1,0.1,0.2,0.1c0.3,0.2,0.5,0.5,0.7,0.7c0.4,0.5,0.7,1,0.9,1.6c0.4,1.1,0.7,2.3,0.9,3.5c0.2,1.5,0.2,3.1,0,4.6
			c-0.1,0.8-0.3,1.7-0.6,2.5c0,0.1-0.1,0.2-0.1,0.3c-0.1,0.3,0,1.6,0.1,1.8c0.4,0.7,0.9,1.3,1.4,1.9c0.3,0.4,0.7,0.7,1,1.1
			c0.4,0.4,0.9,0.7,1.3,1c0.7,0.5,1.6,0.8,2.5,1c0.7,0.2,1.5,0.2,2.2,0.1c0.4,0,0.7-0.1,1.1-0.2c0.4-0.1,0.7-0.2,1.1-0.4
			c0.6-0.3,1.1-0.6,1.6-1.1c0.5-0.4,0.9-1,1.3-1.5c0.3-0.5,0.6-1.1,0.9-1.6c0.3-0.7,0.5-1.3,0.7-2c0.1-0.4,0.2-0.8,0.3-1.3
			C231.9,43.6,231.9,42.3,231.8,41.1z"/>
		<g>
			<path class="st1" d="M233.3,41.1C232,28,224,19.1,211,17.4c0.5,0.5,1,1,1.5,1.5l0,0c0-0.9-0.7-1.4-1.5-1.5
				c-6.1-0.7-15.6,1.3-16,9.1c-0.1,2.7,1.4,6.6,3.1,8.7c2.3,3,6,2.7,9.3,1.6c2.1-0.7,4.7-3.6,6.6-2.4c3.3,2.2,1.2,8.2,0.9,11.1
				c-0.2,3.3,1.7,5.9,4.5,7.6C228.2,58.4,233.5,48.5,233.3,41.1c-0.1-1.9-3.1-1.9-3,0c0.1,4.3-1.1,11.4-7.2,10.2
				c-2.4-0.5-5-2.9-5.2-5.3c-0.1-1.3,0.7-3,0.8-4.4c0.1-3.5-0.7-10.5-5.4-10.9c-3-0.3-4.9,2.8-7.5,3.5c-3.6,1-5.7-0.5-6.9-4
				c-2.7-8.3,5.6-10.5,12-9.8c-0.5-0.5-1-1-1.5-1.5l0,0c0,0.9,0.7,1.4,1.5,1.5c11.2,1.5,18.2,9.6,19.3,20.7
				C230.5,43,233.5,43,233.3,41.1z"/>
		</g>
	</g>
</g>
</svg>
