<?xml version="1.0" encoding="utf-8"?>
<!-- Generator: Adobe Illustrator 23.1.1, SVG Export Plug-In . SVG Version: 6.00 Build 0)  -->
<svg version="1.1" id="Layer_1" xmlns="http://www.w3.org/2000/svg" xmlns:xlink="http://www.w3.org/1999/xlink" x="0px" y="0px"
	 viewBox="0 0 265.8 78.7" style="enable-background:new 0 0 265.8 78.7;" xml:space="preserve">
<style type="text/css">
	.st0{fill:#FFFFFF;}
	.st1{fill:#2C2C2C;}
</style>
<g>
	<path class="st0" d="M19.3,36.1c0-0.4-0.1-0.8-0.1-1.2c0-1.2,0.1-2.5,0-3.7c0-3.1-0.3-6.1-0.6-9.2c-0.1-0.6-0.1-1.2-0.2-1.9
		c0-1.7,0-3.4-0.2-5.2c0-0.2,0-0.3,0-0.5c0.1-1.9,0.5-3.7,0.4-5.6c0-0.9-0.2-1.8-0.4-2.7c-0.3-0.9-0.8-1.7-1.3-2.3
		c-0.3-0.3-0.7-0.6-1.1-0.8c-0.4-0.3-0.9-0.5-1.4-0.7c-0.8-0.3-1.8-0.5-2.8-0.7c-0.1,0-0.2,0-0.2,0c-0.3,0-0.6,0-0.9,0.1l0,0
		c-0.2-0.1-0.4-0.1-0.7-0.1l0,0c-0.2,0-0.5,0-0.7,0.1c-0.2,0-0.3,0-0.5,0.1c-0.2,0-0.3,0.1-0.5,0.2C8.1,1.8,7.8,2,7.5,2.1
		c-0.4,0.2-0.7,0.4-1,0.7C6,3.1,5.5,3.5,5.1,3.8C4.7,4.1,4.4,4.5,4.1,5C3.8,5.4,3.6,5.8,3.4,6.3C3.3,6.6,3.2,6.9,3,7.3
		c-0.1,0.5-0.1,1-0.2,1.5c-0.1,0.9-0.1,1.9-0.1,2.8c0.1,0.8,0.2,1.6,0.2,2.3c-0.1,1.1-0.3,2.2-0.4,3.4c0,0.6-0.1,1.3-0.1,1.9
		c-0.1,0.9-0.1,1.9-0.2,2.8c0,0.1,0,0.3-0.1,0.4c-0.3,1.9-0.6,3.8-0.6,5.7C1.3,31.8,1.4,35.5,2,39.2c0,0.2,0.1,0.3,0.2,0.4
		c0,0,0,0,0,0.1c-0.2,0.7-0.1,1.5-0.1,2.2c0.1,0.9,0.5,1.8,0.8,2.6c0.6,1,1.2,1.9,1.7,2.6c0.3,0.4,0.7,0.7,1,1.1
		c0.4,0.4,0.9,0.7,1.3,1c0.7,0.5,1.6,0.8,2.5,1.1c0.7,0.2,1.5,0.2,2.2,0.2c0.4,0,0.7-0.1,1.1-0.2c0.4-0.1,0.7-0.2,1.1-0.4
		c0.6-0.3,1.1-0.6,1.6-1.1c0.5-0.4,0.9-1,1.3-1.5c0.3-0.5,0.6-1.1,0.9-1.6c0.3-0.7,0.5-1.3,0.7-2c0.4-1.3,0.7-2.7,0.8-4.1
		C19.4,38.6,19.4,37.4,19.3,36.1z"/>
	<g>
		<path class="st1" d="M20.8,36.1c-0.6-7.5-1.5-15.9-0.7-23.4C20.7,7.1,20,1.8,13.7,0.4c-2.8-0.7-5.6-0.4-8,1.1
			c-5.5,3.6-4.1,9.3-4.5,15c-0.5,7.4-2,14.9-0.8,22.3c0.3,2.2,0.2,0.2,0.3,1c0.1,1.1-0.2,2.2,0.1,3.3c0.6,2.6,2.3,5.2,4.3,6.8
			c3.1,2.6,7.5,3.1,10.8,0.6C20.2,47.2,20.9,40.9,20.8,36.1c-0.1-1.9-3.1-2-3-0.1c0,3.7-0.2,9.3-3.5,11.9S7,48.3,5.1,45.3
			c-1.2-1.8-1-3.6-1.3-5.5c-1.2-8.5,0.2-16.4,0.6-24.9C4.6,10.5,3.5,4.4,9.2,3C13,2.1,17,4.8,17.3,8.8c0.2,2-0.5,4.1-0.6,6.1
			c-0.1,2.3,0.2,4.7,0.3,7c0.3,4.7,0.3,9.4,0.7,14C18,38,21,38,20.8,36.1z"/>
	</g>
</g>
<g>
	<g>
		<path class="st0" d="M102.1,44.8c0-0.1,0-0.2-0.1-0.3c-0.1-1.1-0.5-2-1-2.7l0,0c-0.1-0.3-0.3-0.6-0.5-0.9c0.3-1.4,0.4-2.8,0.3-4.2
			c0-0.4-0.1-0.8-0.2-1.3c0-0.4,0-0.8-0.1-1.1c-0.1-1.2-0.3-2.4-0.7-3.5c-0.3-0.6-0.5-1.2-0.9-1.8c-0.4-0.6-0.8-1.2-1.3-1.7
			c-0.8-1-1.9-1.9-2.9-2.8c-1.1-0.8-2.3-1.4-3.5-1.8c-0.5-0.2-1.1-0.3-1.7-0.3c-0.8-0.1-1.5-0.2-2.3-0.3l-0.1,0
			c-1.3,0-2.7,0.1-4,0.3c-2.3,0.2-4.5,1-6.5,2.3c-0.3,0.2-0.7,0.5-1,0.8c-0.1,0.1-0.2,0.2-0.4,0.3c-0.4,0.4-0.8,0.8-1.2,1.2
			c-0.4,0.5-0.9,1.1-1.2,1.7c-0.6,1-1.2,2.1-1.7,3.2c-0.6,1.4-0.9,3-1.1,4.5c-0.1,1.4-0.1,2.9,0.2,4.3c0.3,1.4,0.7,2.7,1.4,3.9
			c0.3,0.5,0.6,1.1,1,1.6c0.5,0.6,0.9,1.2,1.5,1.8c0.5,0.5,1.1,1,1.7,1.4c0.5,0.4,1.1,0.8,1.7,1.1c0.6,0.4,1.3,0.7,2,0.9
			c0.6,0.3,1.3,0.4,2,0.6c3.2,0.8,6.6,0.4,9.6-0.9c0.7,0.4,1.4,0.7,2.3,0.9l0,0c0.1,0,0.1,0.1,0.2,0.1c0.4,0.2,0.9,0.3,1.4,0.4
			c0.5,0.1,1,0.1,1.5,0s1-0.2,1.5-0.5c0.3-0.2,0.6-0.3,0.9-0.6c0.1-0.1,0.2-0.1,0.3-0.2l0,0c0.2-0.1,0.3-0.3,0.5-0.4
			c0.2-0.1,0.3-0.3,0.3-0.5c0.2-0.3,0.5-0.7,0.7-1c0.5-0.8,0.7-1.7,1-2.5C102.2,46.3,102.2,45.5,102.1,44.8z"/>
		<g>
			<path class="st1" d="M103.7,44.4c-0.3-1.9-1.1-3.2-1.3-4.9c-0.3-3.1,0.2-6.1-0.9-9.1c-1.5-4.1-5.2-7.8-9.5-9.1
				c-10.4-3.3-21.4,3.4-22.9,14.1c-1.6,10.4,7.2,19.6,17.6,18.4c1.5-0.2,3.1-0.9,4.7-0.8c0.4,0,2.8,0.8,1.4,0.4
				c2.2,0.7,3.7,1.2,5.9,0.1c3.2-1.5,4.8-5.4,4.8-8.8c-0.1-1.9-3.1-2-3-0.1c0.1,4.5-2.4,7.1-7,5.8c-1-0.3-1.5-0.7-2.5-0.9
				c-1.8-0.1-4.2,1.2-6.2,1.2c-10.3-0.2-15.8-11.3-11.3-20.1c4-7.9,16.1-10.1,22.4-3.6c2.8,2.9,3.5,6.8,3.4,10.8
				c0,1.7-0.4,2.2-0.1,3.6c0.3,1.2,1.2,2.2,1.4,3.6C101,47,103.9,46.3,103.7,44.4z"/>
		</g>
	</g>
	<g>
		<path class="st0" d="M84.4,41c0.2,0,0.3-0.1,0.5-0.2c0.2,0,0.4,0,0.6-0.1l0.1,0c0.1,0,0.2,0,0.2,0c0.2,0,0.4,0,0.6,0
			c0.1,0,0.1,0,0.2,0l0,0c0.1,0,0.3,0,0.4,0c0.1,0,0.2-0.1,0.3-0.1c0.1,0,0.1-0.1,0.2-0.1c0,0,0,0,0.1-0.1c0.1,0,0.1,0,0.2,0
			s0.2-0.1,0.3-0.1c0.1-0.1,0.2-0.2,0.4-0.3c0.1-0.1,0.1-0.2,0.2-0.2c0.1-0.1,0.2-0.3,0.3-0.5s0.2-0.4,0.2-0.6
			c0.1-0.2,0.1-0.4,0.2-0.5c0-0.2,0.1-0.4,0.1-0.6c0-0.2,0-0.4,0-0.6c0-0.2-0.1-0.4-0.1-0.6c-0.1-0.2-0.1-0.4-0.2-0.6
			c-0.1-0.1-0.1-0.2-0.2-0.3c0-0.1-0.1-0.2-0.2-0.3c-0.1-0.1-0.1-0.1-0.2-0.2c-0.1-0.2-0.2-0.5-0.3-0.7c-0.2-0.3-0.4-0.6-0.7-0.8
			c-0.1-0.1-0.2-0.1-0.3-0.1c-0.1,0-0.2,0-0.3-0.1c-0.1,0-0.2,0-0.3,0c-0.1,0-0.2,0-0.3,0.1c-0.1-0.2-0.2-0.4-0.4-0.6
			c-0.4-0.3-0.9-0.4-1.3,0c-0.1,0.1-0.2,0.1-0.2,0.2c-0.1,0.1-0.2,0.2-0.2,0.4l0,0c-0.1,0-0.2,0.1-0.2,0.1l-0.1,0
			c-0.1,0-0.2,0-0.3,0c-0.1,0-0.2,0.1-0.3,0.1c-0.1,0.1-0.3,0.2-0.4,0.3l0,0l0,0c-0.1,0.1-0.3,0.1-0.4,0.2c-0.1,0.1-0.2,0.2-0.3,0.3
			c-0.1,0.1-0.2,0.2-0.3,0.4c-0.1,0.2-0.2,0.4-0.3,0.6c0,0.1,0,0.2-0.1,0.2l0,0l0,0.1l0,0c0,0.1-0.1,0.3-0.1,0.4
			c0,0.2-0.1,0.4-0.1,0.7l0,0l0,0c0,0.4,0,0.7,0,1.1c0,0.3,0.1,0.7,0.2,1c0.1,0.2,0.2,0.4,0.3,0.6c0.1,0.1,0.1,0.2,0.2,0.4
			c0.1,0.2,0.2,0.3,0.4,0.4c0.1,0.1,0.3,0.3,0.5,0.4c0.2,0.2,0.5,0.2,0.8,0.3c0.1,0,0.2,0,0.3,0C84,41.1,84.2,41,84.4,41L84.4,41
			L84.4,41z"/>
		<g>
			<path class="st1" d="M84.8,42.5c0.7-0.2,0.3-0.1,1-0.2c0.3,0,0.7,0,1-0.1c-0.7-0.1-0.8-0.1-0.4,0c0.9-0.1,1.5-0.1,2.2-0.7
				c-0.4,0.1-0.7,0.3-1.1,0.4c2.8-0.1,4-3.7,3.3-6c-0.7-2-2.2-4.5-4.6-3.9c0.6,0.2,1.1,0.5,1.7,0.7c-1.1-2-3.6-2.1-4.8-0.1
				c0.3-0.2,0.6-0.5,0.9-0.7c0.5,0.1,0.6,0.1,0.2,0.1c-0.2,0-0.3,0-0.5,0c-0.4,0-0.7,0.1-1,0.3c-0.2,0.1-1.2,0.9-0.4,0.3
				c-0.3,0.2-0.6,0.4-0.9,0.6C80.5,33.8,80.2,35,80,36c-0.6,2.9,0.8,6.6,4.3,6.5c1.9-0.2,2-3.2,0.1-3c-1.7,0.1-1.8-2.3-1.3-3.5
				c0.1-0.3,0.5-0.5,0.6-0.8c0.1-0.1,0.2-0.2,0.3-0.3c-0.4-0.1-0.5-0.1-0.1,0c0.4-0.1,0.8,0,1.2-0.3c0.9-0.6,0.3-0.3,0.2-0.6
				c0.3,0.6,1.1,0.8,1.7,0.7c0,0,0.9,1.5,1,1.7c0.2,0.6,0.2,1.2,0,1.8c0,0.1-0.5,0.9-0.2,0.6c-0.2,0.2-0.8,0.3-1.1,0.4
				c0.2,0,0.3,0,0.5,0c-0.3-0.1-0.5-0.1-0.8,0c-0.6,0-1.4,0.1-2.2,0.2C82.2,40.2,82.9,43.1,84.8,42.5z"/>
		</g>
	</g>
</g>
<g>
	<g>
		<path class="st0" d="M142,15.9c0-0.2-0.1-0.3-0.2-0.4c0,0,0,0,0-0.1c0.2-0.7,0.1-1.5,0.1-2.2c-0.1-0.9-0.5-1.8-0.8-2.6
			c-0.5-0.9-1.1-1.7-1.6-2.5c-0.3-0.4-0.7-0.7-1-1.1c-0.4-0.4-0.9-0.7-1.3-1c-0.7-0.5-1.6-0.8-2.5-1.1c-0.7-0.2-1.5-0.2-2.2-0.2
			c-0.4,0-0.7,0.1-1.1,0.2c-0.4,0.1-0.7,0.2-1.1,0.4c-0.6,0.3-1.1,0.6-1.6,1.1c-0.5,0.4-0.9,1-1.3,1.5c-0.3,0.5-0.6,1.1-0.9,1.6
			c-0.3,0.7-0.5,1.3-0.7,2c-0.4,1.3-0.7,2.7-0.8,4.1c-0.1,1.3-0.3,2.5-0.2,3.8c0,0.4,0.1,0.8,0.1,1.2c0,1.2-0.1,2.5,0,3.7
			c0,1,0.1,2,0.1,3.1c-0.5,0-1,0.1-1.5,0.2c-1.2,0.2-2.3,0.6-3.4,1.1c-0.3,0.1-0.6,0.3-0.9,0.5c-0.5,0.2-0.9,0.4-1.3,0.7
			c-0.7,0.4-1.3,0.9-2,1.3c-1.1,0.9-2,1.8-3,2.9c-0.5,0.6-0.9,1.3-1.2,2c-0.3,0.4-0.5,0.8-0.7,1.3c-0.5,0.9-0.8,1.8-1.1,2.8
			c-0.1,0.5-0.2,1.1-0.2,1.6c0,0.5,0,1,0.1,1.5s0.3,1,0.5,1.4c0.2,0.4,0.4,0.7,0.6,1c0.3,0.4,0.7,0.8,1.1,1.2
			c0.2,0.1,0.3,0.3,0.5,0.4c0.1,0.1,0.1,0.2,0.2,0.4c0.3,0.7,0.8,1.3,1.2,2c0.5,0.7,1.2,1.2,1.8,1.7c0.5,0.4,1.1,0.7,1.7,1
			c0.7,0.3,1.5,0.6,2.3,0.9s1.6,0.3,2.3,0.5c0.4,0,0.7,0.1,1.1,0.1s0.8,0,1.2-0.1c0.8-0.1,1.6-0.2,2.4-0.3c0.7-0.2,1.4-0.4,2-0.7
			c0.4,0.2,0.8,0.4,1.2,0.6c0.9,0.4,1.9,0.6,2.9,0.7c0.1,0,0.2,0,0.2,0c0.3,0,0.6,0,0.9-0.1l0,0c0.2,0.1,0.5,0.1,0.7,0.1l0,0
			c0.2,0,0.5,0,0.7-0.1c0.1,0,0.3-0.1,0.4-0.1c0.2,0,0.3-0.1,0.5-0.2c0.3-0.1,0.6-0.2,0.9-0.4c0.4-0.2,0.7-0.4,1-0.6
			c0.5-0.3,0.9-0.7,1.3-1.1c0.4-0.4,0.7-0.8,1-1.2c0.3-0.4,0.5-0.9,0.7-1.3c0.1-0.3,0.2-0.6,0.3-1c0.1-0.5,0.1-1,0.2-1.5
			c0.1-0.9,0.1-1.9,0.1-2.8c-0.1-0.8-0.2-1.6-0.2-2.3c0.1-1.1,0.3-2.2,0.4-3.4c0-0.6,0.1-1.3,0.1-1.9c0.1-0.9,0.1-1.9,0.2-2.8
			c0-0.1,0-0.3,0.1-0.4c0.3-1.9,0.6-3.8,0.6-5.7C142.6,23.3,142.5,19.6,142,15.9z"/>
		<g>
			<path class="st1" d="M143.3,15.2c0,0.1,0.3,1.5,0.1-0.8c-0.1-1.1-0.1-1.8-0.4-2.9c-0.6-1.9-1.7-3.6-3-5.1
				c-2.5-2.8-6.4-4.3-10-2.7c-8.3,3.4-6.9,16.4-6.5,23.3c0.5-0.5,1-1,1.5-1.5c-7.8,0.6-18.5,8.6-16.8,17.7c0.5,2.9,3.7,7,6,8.9
				c3,2.4,7.2,3.3,11,2.8c6.1-0.8,12.4,2.9,16.4-4.4c2.3-4,1.2-10.6,1.5-15c0.5-6.7,1.1-13,0.4-19.7c-0.3-1.9-3.2-1.2-2.9,0.7
				c1.1,8.5-1,16.5-0.9,24.9c0,4,0.5,9.7-4.7,10.9c-2,0.5-3.9-0.9-5.9-1c-2.1-0.1-4.1,0.9-6.4,0.7c-4-0.2-7-2-9.1-5.4
				c-0.2-0.2-0.6-0.7-0.7-0.9c-2.2-4.2-1.9-6.5,0.6-10.2c2.5-3.6,7-6.5,11.5-6.9c0.8-0.1,1.6-0.6,1.5-1.5
				c-0.3-5.6-1.5-13.9,2.3-18.6c3.4-4.3,9.2-1.5,11,2.9c0.8,1.8,0.1,3.7,1,5.3C141.5,18.3,144.2,16.9,143.3,15.2z"/>
		</g>
	</g>
	<g>
		<path class="st0" d="M123.3,38.5c-0.1,0-0.2,0.1-0.4,0.1c-0.1,0-0.3,0-0.4,0.1c0,0,0,0-0.1,0s-0.1,0-0.2,0c-0.1,0-0.3,0-0.4,0
			l-0.1,0l0,0c-0.1,0-0.2,0-0.3,0c-0.1,0-0.2,0.1-0.2,0.1c-0.1,0-0.1,0.1-0.1,0.1l0,0l-0.1,0c-0.1,0-0.2,0.1-0.2,0.1
			c-0.1,0-0.2,0.1-0.3,0.2c-0.1,0-0.1,0.1-0.1,0.2c-0.1,0.1-0.1,0.2-0.2,0.3c-0.1,0.1-0.1,0.3-0.2,0.4c0,0.1-0.1,0.3-0.1,0.4
			c0,0.1-0.1,0.3-0.1,0.5c0,0.1,0,0.3,0,0.4c0,0.1,0.1,0.3,0.1,0.4c0,0.2,0.1,0.3,0.2,0.4c0,0.1,0.1,0.2,0.1,0.2
			c0,0.1,0.1,0.1,0.1,0.2c0,0.1,0.1,0.1,0.1,0.1c0.1,0.2,0.2,0.3,0.3,0.5c0.1,0.2,0.3,0.4,0.5,0.5c0.1,0,0.1,0.1,0.2,0.1
			c0.1,0,0.1,0,0.2,0s0.1,0,0.2,0c0.1,0,0.1,0,0.2,0c0.1,0.2,0.2,0.3,0.3,0.4c0.3,0.2,0.7,0.3,1,0c0.1-0.1,0.1-0.1,0.2-0.2
			c0.1-0.1,0.1-0.2,0.2-0.3l0,0c0.1,0,0.1,0,0.2-0.1l0.1,0c0.1,0,0.1,0,0.2,0c0.1,0,0.1-0.1,0.2-0.1s0.2-0.1,0.3-0.2l0,0l0,0
			c0.1,0,0.2-0.1,0.3-0.2c0.1-0.1,0.1-0.1,0.2-0.2c0.1-0.1,0.1-0.2,0.2-0.3c0.1-0.1,0.1-0.3,0.2-0.5c0-0.1,0-0.1,0-0.2l0,0
			c0,0,0,0,0-0.1l0,0c0-0.1,0.1-0.2,0.1-0.3c0-0.2,0.1-0.3,0.1-0.5l0,0l0,0c0-0.3,0-0.5,0-0.8c0-0.2-0.1-0.5-0.1-0.7
			c0-0.1-0.1-0.3-0.2-0.4c0-0.1-0.1-0.2-0.1-0.3c-0.1-0.1-0.2-0.2-0.3-0.3c-0.1-0.1-0.2-0.2-0.3-0.3c-0.2-0.1-0.4-0.2-0.5-0.2
			c-0.1,0-0.2,0-0.2,0C123.5,38.5,123.4,38.5,123.3,38.5L123.3,38.5L123.3,38.5z"/>
		<g>
			<path class="st1" d="M122.9,37.1c-0.5,0.1-0.5,0.1-0.1,0.2c-0.2,0-0.4-0.1-0.6-0.1c-0.3,0-0.6,0-0.8,0.1c0.7,0,0.9,0,0.5,0
				c-0.8,0.1-1.3,0.1-2,0.7c0.4-0.1,0.7-0.3,1.1-0.4c-2.3,0.1-3.4,2.9-2.7,4.8c0.6,1.7,1.8,3.5,3.8,3.2c-0.6-0.2-1.1-0.5-1.7-0.7
				c0.9,1.7,3.3,1.9,4.2,0.1c-0.3,0.2-0.6,0.5-0.9,0.7c-0.6-0.1-0.7-0.1-0.3,0c0.1,0,0.3,0,0.4,0c0.3,0,0.7-0.1,1-0.3
				c0.2-0.1,1-0.8,0.3-0.2c0.2-0.2,0.5-0.3,0.7-0.5c0.6-0.6,0.9-1.4,1.1-2.3c0.5-2.4-0.8-5.3-3.6-5.2c-1.9,0.2-2,3.2-0.1,3
				c0.9-0.1,0.9,1.4,0.6,2c-0.1,0.1-0.2,0.2-0.2,0.3c-0.1,0.1-0.2,0.1-0.3,0.2c0.7,0,0.9,0,0.5-0.1c-0.4,0-0.8,0-1.1,0.2
				c-1.4,0.9,0.3,0.2,0.5,0.6c-0.3-0.6-1.1-0.8-1.7-0.7c0.4,0.2,0.5,0.1,0.3-0.2c0-0.1-0.1-0.2-0.1-0.2c-0.1-0.2-0.3-0.4-0.4-0.6
				c-0.1-0.4,0.1-0.6,0-1c0-0.1,0.6-0.9-0.3-0.1c0.1-0.1,1.2-0.1,1.1-0.4c0,0-1.5,0.2,0,0.1c0.4,0-0.3,0,0.2,0
				c0.5,0,0.9-0.1,1.4-0.2C125.5,39.4,124.8,36.5,122.9,37.1z"/>
		</g>
	</g>
</g>
<g>
	<g>
		<path class="st0" d="M60.3,35.5c0-0.4-0.1-0.8-0.2-1.3c0-0.4,0-0.8-0.1-1.1c-0.1-1.2-0.3-2.4-0.7-3.5c-0.3-0.6-0.5-1.2-0.9-1.8
			c-0.4-0.6-0.8-1.2-1.3-1.7c-0.8-1-1.9-1.9-2.9-2.8c-1.1-0.8-2.3-1.4-3.5-1.8c-0.5-0.2-1.1-0.3-1.7-0.3c-0.8-0.1-1.5-0.2-2.3-0.3
			l-0.1,0c-1.3,0-2.7,0.1-4,0.3c-2.3,0.2-4.5,1-6.5,2.3c-0.3,0.2-0.7,0.5-1,0.8c-0.1,0.1-0.2,0.2-0.4,0.3c-0.4,0.4-0.8,0.8-1.2,1.2
			c-0.4,0.5-0.9,1.1-1.2,1.7c-0.6,1-1.2,2.1-1.7,3.2c-0.6,1.4-0.9,3-1.1,4.5c-0.1,1.4-0.1,2.9,0.2,4.3c0.3,1.4,0.7,2.7,1.4,3.9
			c0.3,0.5,0.6,1.1,1,1.6c0.5,0.6,0.9,1.2,1.5,1.8c0.5,0.5,1.1,1,1.7,1.4c0.5,0.4,1.1,0.8,1.7,1.1c0.6,0.4,1.3,0.7,2,0.9
			c0.6,0.3,1.3,0.4,2,0.6c4,1,8.2,0.1,11.7-1.8c0.9-0.5,1.7-1.1,2.5-1.7c0.6-0.5,1.1-1.1,1.5-1.8c0.4-0.4,0.7-0.8,1-1.2
			c0.4-0.6,0.8-1.2,1-1.8c0.4-0.8,0.6-1.6,0.9-2.4C60.3,38.7,60.4,37.1,60.3,35.5z"/>
		<g>
			<path class="st1" d="M61.7,35.2c-0.6-4.9-1.4-8.6-5.2-12c-3.1-2.7-6.9-3.9-11-3.7c-9.8,0.4-17.6,7.6-17.2,17.8
				c0.3,8.4,7.2,15.5,15.7,15.7c9.9,0.2,18.1-7.5,17.7-17.4c-0.1-1.9-3.1-2-3-0.1C59,43.7,52.3,50.2,44,49.9
				c-7.4-0.2-13.1-6.7-12.8-14.1c0.5-8.4,7.3-13.7,15.5-13.4s11,6.4,12,13.5C59,37.8,61.9,37.1,61.7,35.2z"/>
		</g>
	</g>
	<g>
		<path class="st0" d="M43.8,40c0.2,0,0.3-0.1,0.5-0.2c0.2,0,0.4,0,0.6-0.1l0.1,0c0.1,0,0.2,0,0.2,0c0.2,0,0.4,0,0.6,0
			c0.1,0,0.1,0,0.2,0l0,0c0.1,0,0.3,0,0.4,0c0.1,0,0.2-0.1,0.3-0.1c0.1,0,0.1-0.1,0.2-0.1c0,0,0,0,0.1-0.1c0.1,0,0.1,0,0.2,0
			c0.1,0,0.2-0.1,0.3-0.1c0.1-0.1,0.2-0.2,0.4-0.3c0.1-0.1,0.1-0.2,0.2-0.2c0.1-0.1,0.2-0.3,0.3-0.5c0.1-0.2,0.2-0.4,0.2-0.6
			c0.1-0.2,0.1-0.4,0.2-0.5c0-0.2,0.1-0.4,0.1-0.6c0-0.2,0-0.4,0-0.6c0-0.2-0.1-0.4-0.1-0.6c-0.1-0.2-0.1-0.4-0.2-0.6
			c-0.1-0.1-0.1-0.2-0.2-0.3c0-0.1-0.1-0.2-0.2-0.3c-0.1-0.1-0.1-0.1-0.2-0.2c-0.1-0.2-0.2-0.5-0.3-0.7c-0.2-0.3-0.4-0.6-0.7-0.8
			c-0.1-0.1-0.2-0.1-0.3-0.1c-0.1,0-0.2,0-0.3-0.1c-0.1,0-0.2,0-0.3,0s-0.2,0-0.3,0.1c-0.1-0.2-0.2-0.4-0.4-0.6
			c-0.4-0.3-0.9-0.4-1.3,0c-0.1,0.1-0.2,0.1-0.2,0.2c-0.1,0.1-0.2,0.2-0.2,0.4l0,0c-0.1,0-0.2,0.1-0.2,0.1l-0.1,0
			c-0.1,0-0.2,0-0.3,0c-0.1,0-0.2,0.1-0.3,0.1c-0.1,0.1-0.3,0.2-0.4,0.3l0,0l0,0c-0.1,0.1-0.3,0.1-0.4,0.2c-0.1,0.1-0.2,0.2-0.3,0.3
			c-0.1,0.1-0.2,0.2-0.3,0.4c-0.1,0.2-0.2,0.4-0.3,0.6c0,0.1,0,0.2-0.1,0.2l0,0l0,0.1l0,0c0,0.1-0.1,0.3-0.1,0.4
			c0,0.2-0.1,0.4-0.1,0.7l0,0l0,0c0,0.4,0,0.7,0,1.1c0,0.3,0.1,0.7,0.2,1c0.1,0.2,0.2,0.4,0.3,0.6c0.1,0.1,0.1,0.2,0.2,0.4
			c0.1,0.2,0.2,0.3,0.4,0.4c0.1,0.1,0.3,0.3,0.5,0.4c0.2,0.2,0.5,0.2,0.8,0.3c0.1,0,0.2,0,0.3,0C43.4,40.1,43.6,40,43.8,40L43.8,40
			L43.8,40z"/>
		<g>
			<path class="st1" d="M44.2,41.5c0.7-0.2,0.3-0.1,1-0.2c0.3,0,0.7,0,1-0.1c-0.7-0.1-0.8-0.1-0.4,0c0.9-0.1,1.5-0.1,2.2-0.7
				c-0.4,0.1-0.7,0.3-1.1,0.4c2.8-0.1,4-3.7,3.3-6c-0.7-2-2.2-4.5-4.6-3.9c0.6,0.2,1.1,0.5,1.7,0.7c-1.1-2-3.6-2.1-4.8-0.1
				c0.3-0.2,0.6-0.5,0.9-0.7C43.9,31,44,31,43.6,31c-0.2,0-0.3,0-0.5,0c-0.4,0-0.7,0.1-1,0.3c-0.2,0.1-1.2,0.9-0.4,0.3
				c-0.3,0.2-0.6,0.4-0.9,0.6c-0.8,0.8-1.1,1.9-1.4,2.9c-0.6,2.9,0.8,6.6,4.3,6.5c1.9-0.2,2-3.2,0.1-3c-1.7,0.1-1.8-2.3-1.3-3.5
				c0.1-0.3,0.5-0.5,0.6-0.8c0.1-0.1,0.2-0.2,0.3-0.3c-0.4-0.1-0.5-0.1-0.1,0c0.4-0.1,0.8,0,1.2-0.3c0.9-0.6,0.3-0.3,0.2-0.6
				c0.3,0.6,1.1,0.8,1.7,0.7c0,0,0.9,1.5,1,1.7c0.2,0.6,0.2,1.2,0,1.8c0,0.1-0.5,0.9-0.2,0.6c-0.2,0.2-0.8,0.3-1.1,0.4
				c0.2,0,0.3,0,0.5,0c-0.3-0.1-0.5-0.1-0.8,0c-0.6,0-1.4,0.1-2.2,0.2C41.7,39.2,42.3,42.1,44.2,41.5z"/>
		</g>
	</g>
</g>
<g>
	<g>
		<path class="st0" d="M264.2,39.1c0-0.4-0.1-0.8-0.2-1.3c0-0.4,0-0.8-0.1-1.1c-0.1-1.2-0.3-2.4-0.7-3.5c-0.3-0.6-0.5-1.2-0.9-1.8
			c-0.4-0.6-0.8-1.2-1.3-1.7c-0.8-1-1.9-1.9-2.9-2.8c-1.1-0.8-2.3-1.4-3.5-1.8c-0.5-0.2-1.1-0.3-1.7-0.3c-0.8-0.1-1.5-0.2-2.3-0.3
			l-0.1,0c-1.3,0-2.7,0.1-4,0.3c-2.3,0.2-4.5,1-6.5,2.3c-0.3,0.2-0.7,0.5-1,0.8c-0.1,0.1-0.2,0.2-0.4,0.3c-0.4,0.4-0.8,0.8-1.2,1.2
			c-0.4,0.5-0.9,1.1-1.2,1.7c-0.6,1-1.2,2.1-1.7,3.2c-0.6,1.4-0.9,3-1.1,4.5c-0.1,1.4-0.1,2.9,0.2,4.3c0.3,1.4,0.7,2.7,1.4,3.9
			c0.3,0.5,0.6,1.1,1,1.6c0.5,0.6,0.9,1.2,1.5,1.8c0.5,0.5,1.1,1,1.7,1.4c0.5,0.4,1.1,0.8,1.7,1.1c0.6,0.4,1.3,0.7,2,0.9
			c0.6,0.3,1.3,0.4,2,0.6c1.3,0.3,2.6,0.4,3.8,0.4c-0.2,1.1-0.4,2.2-0.5,3.3c-0.1,0.8-0.1,1.7-0.2,2.5c0,0.1,0,0.1,0,0.2
			c-0.1,0.1-0.1,0.2-0.2,0.3c-0.2,0.2-0.3,0.4-0.5,0.5c-0.2,0.1-0.4,0.3-0.7,0.4c-0.2,0.1-0.3,0.1-0.5,0.1c-0.2,0-0.4,0-0.5,0
			s-0.2,0-0.3-0.1c-0.1-0.1-0.2-0.3-0.3-0.4c-0.3-0.3-0.7-0.5-1.2-0.7c-0.1,0-0.1,0-0.2-0.1c-0.3-0.1-0.7-0.1-1.1-0.1l0,0
			c-0.1-0.1-0.2-0.1-0.2-0.2c-0.4-0.3-0.9-0.5-1.4-0.7c-0.5-0.2-1.1-0.3-1.7-0.3c-0.4,0-0.8,0-1.2,0c-0.6,0.1-1.2,0.2-1.7,0.4
			c-1.1,0.4-2.1,1-2.9,1.8c-0.9,1-1.6,2.2-1.9,3.4c-0.1,0.4-0.1,0.8-0.2,1.2c0,0.2,0,0.5,0,0.7c0,0.4,0.1,0.7,0.1,1.1
			c0,0.3,0.1,0.5,0.2,0.8c0.4,1.1,0.9,2.2,1.8,3c0.3,0.3,0.7,0.6,1.1,0.9c0.1,0.3,0.3,0.6,0.5,0.9c0.2,0.2,0.4,0.5,0.6,0.7
			c0.2,0.2,0.4,0.4,0.7,0.6c0.6,0.5,1.3,0.9,2.1,1.3c0.4,0.2,0.8,0.3,1.3,0.4c0.5,0.1,1,0.2,1.5,0.2c0.7,0.1,1.4,0.1,2,0
			c0.7-0.1,1.3-0.2,1.9-0.4c0.2,0,0.4,0.1,0.6,0.1c0.5,0.1,0.9,0.1,1.4,0.1c0.5,0,1-0.1,1.5-0.2c0.9-0.2,1.8-0.6,2.7-1
			c0.9-0.5,1.7-1.1,2.4-1.6c0.2,0,0.3-0.1,0.5-0.2c0.4-0.1,0.8-0.2,1.2-0.4c0.9-0.4,1.7-1.1,2.5-1.8c0.7-0.8,1.3-1.8,1.9-2.9
			c0.1-0.2,0.1-0.3,0.2-0.5c0.8-1.5,1.4-3.4,1.5-5.2l0-0.1c0.1-0.2,0.1-0.4,0.2-0.6c0.5-1.5,0.9-3,1-4.5c0-0.3,0-0.6,0-0.9
			c0.2-0.7,0.3-1.5,0.5-2.2c0.5-3,0.7-6,0.6-9c0-0.3-0.1-0.6-0.1-0.8c0.1-0.4,0.2-0.8,0.3-1.2C264.4,42.3,264.4,40.7,264.2,39.1z"/>
		<g>
			<path class="st1" d="M265.7,38.7c-0.8-6.6-2.9-12.3-9.7-14.8c-6-2.3-14-0.6-18.6,3.8c-11,10.6-3.1,28.3,11.4,28.8
				c-0.5-0.5-1-1-1.5-1.5c-0.2,1.3-0.1,3.2-0.6,4.5c-0.9,2.3,0.4,0.9-0.8,1c0.1,0-1.4-0.7-1.7-0.9c-0.5-0.1-1-0.1-1.5-0.2
				c0.8,0.1,0.7,0-0.2-0.3c-3.8-1.2-7.4-1.3-10.3,1.8c-5.6,6-0.1,15.4,6.8,17.4c3.1,0.9,8.2,0.6,11.1-0.4c4.2-1.4,8.7-4.1,10.8-8.1
				c1.9-3.5,2.5-7.8,3.1-11.6c0.5-3.1,1-6.3,1-9.5c0.1-3.2,0.8-6.3,0.6-9.5c-0.1-1.9-3.1-2-3-0.1c0,2.2-0.5,4.3-0.7,6.4
				c-0.2,2.2,0.1,4.5-0.2,6.7c-0.4,3.7-1.1,7.4-2,11.1c-0.5,2.1-0.9,4.8-2.4,6.4c-1.3,1.6-4,3-5.9,4.1c-3,1.7-10.4,2.9-13.6,0.8
				c-3.7-2.4-7.3-8.4-3-11.9c1.9-1.6,5.3-1.2,7.7-0.3c0.8,0.3,1.6,1,2.4,1.3c5.4,1.1,4.8-5.3,5.3-8.6c0.1-0.8-0.8-1.5-1.5-1.5
				c-12.3-0.4-18.8-16-8.6-24.3c3.9-3.2,10.5-4.2,15.3-2.1c5.5,2.4,6.6,7,7.3,12.5C263.1,41.4,266,40.6,265.7,38.7z"/>
		</g>
	</g>
	<g>
		<path class="st0" d="M247.8,43.6c0.2,0,0.3-0.1,0.5-0.2c0.2,0,0.4,0,0.6-0.1l0.1,0c0.1,0,0.2,0,0.2,0c0.2,0,0.4,0,0.6,0
			c0.1,0,0.1,0,0.2,0l0,0c0.1,0,0.3,0,0.4,0c0.1,0,0.2-0.1,0.3-0.1c0.1,0,0.1-0.1,0.2-0.1c0,0,0,0,0.1-0.1c0.1,0,0.1,0,0.2,0
			c0.1,0,0.2-0.1,0.3-0.1c0.1-0.1,0.2-0.2,0.4-0.3c0.1-0.1,0.1-0.2,0.2-0.2c0.1-0.1,0.2-0.3,0.3-0.5s0.2-0.4,0.2-0.6
			c0.1-0.2,0.1-0.4,0.2-0.5c0-0.2,0.1-0.4,0.1-0.6c0-0.2,0-0.4,0-0.6c0-0.2-0.1-0.4-0.1-0.6c-0.1-0.2-0.1-0.4-0.2-0.6
			c-0.1-0.1-0.1-0.2-0.2-0.3c0-0.1-0.1-0.2-0.2-0.3s-0.1-0.1-0.2-0.2c-0.1-0.2-0.2-0.5-0.3-0.7c-0.2-0.3-0.4-0.6-0.7-0.8
			c-0.1-0.1-0.2-0.1-0.3-0.1s-0.2,0-0.3-0.1c-0.1,0-0.2,0-0.3,0s-0.2,0-0.3,0.1c-0.1-0.2-0.2-0.4-0.4-0.6c-0.4-0.3-0.9-0.4-1.3,0
			c-0.1,0.1-0.2,0.1-0.2,0.2c-0.1,0.1-0.2,0.2-0.2,0.4l0,0c-0.1,0-0.2,0.1-0.2,0.1l-0.1,0c-0.1,0-0.2,0-0.3,0
			c-0.1,0-0.2,0.1-0.3,0.1c-0.1,0.1-0.3,0.2-0.4,0.3l0,0l0,0c-0.1,0.1-0.3,0.1-0.4,0.2c-0.1,0.1-0.2,0.2-0.3,0.3s-0.2,0.2-0.3,0.4
			c-0.1,0.2-0.2,0.4-0.3,0.6c0,0.1,0,0.2-0.1,0.2l0,0l0,0.1l0,0c0,0.1-0.1,0.3-0.1,0.4c0,0.2-0.1,0.4-0.1,0.7l0,0l0,0
			c0,0.4,0,0.7,0,1.1c0,0.3,0.1,0.7,0.2,1c0.1,0.2,0.2,0.4,0.3,0.6c0.1,0.1,0.1,0.2,0.2,0.4c0.1,0.2,0.2,0.3,0.4,0.4
			c0.1,0.1,0.3,0.3,0.5,0.4c0.2,0.2,0.5,0.2,0.8,0.3c0.1,0,0.2,0,0.3,0C247.5,43.6,247.7,43.6,247.8,43.6L247.8,43.6L247.8,43.6z"/>
		<g>
			<path class="st1" d="M248.2,45c0.7-0.2,0.3-0.1,1-0.2c0.3,0,0.7,0,1-0.1c-0.7-0.1-0.8-0.1-0.4,0c0.9-0.1,1.5-0.1,2.2-0.7
				c-0.4,0.1-0.7,0.3-1.1,0.4c2.8-0.1,4-3.7,3.3-6c-0.7-2-2.2-4.5-4.6-3.9c0.6,0.2,1.1,0.5,1.7,0.7c-1.1-2-3.6-2.1-4.8-0.1
				c0.3-0.2,0.6-0.5,0.9-0.7c0.5,0.1,0.6,0.1,0.2,0.1c-0.2,0-0.3,0-0.5,0c-0.4,0-0.7,0.1-1,0.3c-0.2,0.1-1.2,0.9-0.4,0.3
				c-0.3,0.2-0.6,0.4-0.9,0.6c-0.8,0.7-1.1,1.9-1.4,2.9c-0.6,2.9,0.8,6.6,4.3,6.5c1.9-0.2,2-3.2,0.1-3c-1.7,0.1-1.8-2.3-1.3-3.5
				c0.1-0.3,0.5-0.5,0.6-0.8c0.1-0.1,0.2-0.2,0.3-0.3c-0.4-0.1-0.5-0.1-0.1,0c0.4-0.1,0.8,0,1.2-0.3c0.9-0.6,0.3-0.3,0.2-0.6
				c0.3,0.6,1.1,0.8,1.7,0.7c0,0,0.9,1.5,1,1.7c0.2,0.6,0.2,1.2,0,1.8c0,0.1-0.5,0.9-0.2,0.6c-0.2,0.2-0.8,0.3-1.1,0.4
				c0.2,0,0.3,0,0.5,0c-0.3-0.1-0.5-0.1-0.8,0c-0.6,0-1.4,0.1-2.2,0.2C245.6,42.6,246.4,45.5,248.2,45z"/>
		</g>
	</g>
</g>
<g>
	<g>
		<path class="st0" d="M152,12.5c-0.2,0.9-0.3,1.8-0.1,2.7l0,0c-0.1,1.2,0.7,2.3,1.7,2.7c0.3,0.2,0.6,0.4,0.9,0.6
			c0.1,0.1,0.1,0.1,0.2,0.2c0.3,0.3,0.7,0.6,1,0.8c0.7,0.4,1.2,0.5,1.9,0.7c0.2,0,0.5,0.1,0.8,0.1c0.6,0,1.2-0.1,1.8-0.3
			c0.3-0.1,0.6-0.2,0.9-0.3c0.5,0,1-0.1,1.4-0.2c1.6-0.3,3.1-0.8,4.4-1.8c0.4-0.3,0.7-0.7,1-1.1c0.3-0.3,0.5-0.6,0.7-1
			c0.4-0.7,0.5-1.2,0.7-2c0.3-0.7,0.5-1.5,0.7-2.3c0.1-0.6,0-1.3-0.2-1.8c-0.1-0.6-0.4-1.2-0.8-1.8c-0.3-0.4-0.5-0.8-0.8-1.1
			c-0.3-0.3-0.7-0.7-1-0.9c-0.7-0.6-1.5-1-2.3-1.4c-0.8-0.4-1.8-0.7-2.7-0.9c-0.3,0-0.7,0-1,0c-0.8-0.1-1.7,0-2.4,0.1
			c-0.8,0.3-1.6,0.7-2.2,1.1c-0.1,0.1-0.3,0.1-0.4,0.2c-1,0.5-1.6,1.2-2.3,1.9c-0.1,0.2-0.3,0.3-0.4,0.5c-0.1,0-0.1,0-0.2,0.1
			c-0.8,0.4-1.4,1.2-1.7,2c-0.3,0.9-0.2,1.9,0.1,2.7C152,12.3,152,12.4,152,12.5z"/>
		<g>
			<path class="st1" d="M150.5,12.1c-0.4,2.5-0.5,5.1,1.5,6.7c2.1,1.8,4.3,3.3,7.1,3c6.2-0.5,12.7-4.1,12.2-11.3
				c-0.4-5.6-7.1-9.3-12.2-8.3c-2.6,0.5-4.6,2.3-6.4,4c-0.9,0.9-1.7,1.3-2.3,2.4C150.1,9.8,150.8,11.3,150.5,12.1
				c-0.5,1.9,2.3,2.8,2.9,0.9c1.1-3.5,0.9-4.7,4.2-6.6c3.3-2,8.2-1.1,10.2,2.5c1.2,2.1,0.4,5.5-1.2,7.3c-1.5,1.8-3.6,1.9-5.8,2.4
				c-2.2,0.4-3.2,0.6-5.2-0.7c-1.9-1.2-2.7-2.4-2.3-4.8C153.7,11,150.8,10.1,150.5,12.1z"/>
		</g>
	</g>
	<g>
		<g>
			<path class="st0" d="M152.8,43.4C152.8,43.4,152.7,43.4,152.8,43.4c-0.2,0.8-0.1,1.5-0.1,2.3c0.1,0.9,0.5,1.8,0.8,2.6
				c0.5,0.9,1.1,1.7,1.6,2.5c0.3,0.4,0.7,0.7,1,1.1c0.4,0.4,0.9,0.7,1.3,1c0.7,0.5,1.6,0.8,2.5,1.1c0.7,0.2,1.5,0.2,2.2,0.2
				c0.4,0,0.7-0.1,1.1-0.2c0.4-0.1,0.7-0.2,1.1-0.4c0.6-0.3,1.1-0.6,1.6-1.1c0.5-0.4,0.9-1,1.3-1.5c0.3-0.5,0.6-1.1,0.9-1.6
				c0.3-0.6,0.5-1.2,0.7-1.9c-0.1-0.6-0.1-1.2-0.2-1.7c-0.1-0.6-0.1-1.2-0.2-1.9c0-1.7,0-3.4-0.2-5.2c0-0.2,0-0.3,0-0.5
				c0.1-1.9,0.5-3.7,0.4-5.6c0-0.9-0.2-1.8-0.4-2.7c-0.3-0.9-0.8-1.7-1.3-2.3c-0.3-0.3-0.7-0.6-1.1-0.8c-0.4-0.3-0.9-0.5-1.4-0.7
				c-0.9-0.4-1.9-0.6-2.9-0.7c-0.1,0-0.2,0-0.2,0c-0.3,0-0.6,0-0.9,0.1l0,0c-0.2-0.1-0.5-0.1-0.7-0.1l0,0c-0.2,0-0.5,0-0.7,0.1
				c-0.1,0-0.3,0.1-0.4,0.1c-0.2,0-0.3,0.1-0.5,0.2c-0.3,0.1-0.6,0.2-0.9,0.4c-0.4,0.2-0.7,0.4-1,0.6c-0.5,0.3-0.9,0.7-1.3,1.1
				c-0.4,0.4-0.7,0.8-1,1.2c-0.3,0.4-0.5,0.9-0.7,1.3c-0.1,0.3-0.2,0.6-0.3,1c-0.1,0.5-0.1,1-0.2,1.5c-0.1,0.9-0.1,1.9-0.1,2.8
				c0.1,0.8,0.2,1.6,0.2,2.3c-0.1,1.1-0.3,2.2-0.4,3.4c0,0.5,0,0.9-0.1,1.4c0,0.1,0,0.2,0,0.2C152.6,43.1,152.6,43.3,152.8,43.4z"/>
			<g>
				<path class="st1" d="M151.3,43c-1.8,7,6.4,15.1,13.3,12.3c2.5-1,4.5-3.5,5.4-6.1c0.8-2.6,0.1-5.7,0-8.4c0-2.8,0.5-5.7,0.3-8.5
					c-0.5-6-6.7-9.7-12.3-7.9c-3.1,0.9-5.7,3.8-6.4,6.9c-0.7,2.7-0.1,5.6-0.3,8.3c-0.1,1.6-0.6,3.1,0.2,4.5c0.9,1.7,3.5,0.3,2.6-1.4
					c-0.7-1.2,0.3-4.4,0.2-6c-0.1-3.3,0.2-7.6,3.8-9.2c1.1-0.5,1.5-0.4,2.5-0.3c0.3,0,0.7-0.1,1.1-0.1c3.8,0.9,5.5,2.9,5.5,6.7
					c0,2.3-0.4,4.6-0.4,6.9c0,2.5,0.8,6-0.2,8.3c-3.1,7.5-14.2,1.5-12.5-5.2C154.6,42,151.8,41.1,151.3,43z"/>
			</g>
		</g>
	</g>
</g>
<g>
	<path class="st0" d="M225.6,44.1c-0.1-1.1-0.1-2.3-0.3-3.4c-0.3-1.6-0.8-3.2-1.6-4.7c-0.1-0.2-0.2-0.3-0.3-0.5
		c-0.1-0.3-0.2-0.6-0.3-1c-0.6-1.8-1.5-3.4-2.7-4.9c-0.5-0.7-1.1-1.3-1.7-1.9c-0.7-0.7-1.5-1.3-2.3-2c-1.4-1.1-3.1-1.9-4.6-2.6
		c-0.8-0.3-1.7-0.6-2.5-0.9c-0.3-0.1-0.6-0.1-0.9-0.2c-0.9-0.2-1.8-0.3-2.7-0.4c-0.1,0-0.1-0.1-0.2-0.1c-0.1,0-0.2,0-0.3,0l0,0l0,0
		c-0.6-0.1-1.3-0.1-1.9-0.1c-0.1,0-0.1,0-0.2,0c-0.5,0-1.1,0-1.6,0.1l-0.1,0c-0.4,0-0.7-0.1-1.1-0.1l0,0c-0.4,0-0.8,0.1-1.2,0.1
		c-0.6,0.1-1.2,0.4-1.8,0.6c-0.3,0.1-0.5,0.3-0.8,0.4l0,0c-1,0.4-1.9,0.9-2.8,1.4c-0.3-0.3-0.6-0.7-0.9-1c-0.6-0.5-1.2-1-1.9-1.2
		c-0.4-0.2-0.8-0.2-1.2-0.2c-0.3,0-0.6,0-0.9,0.1c-1.8,0.3-3.6,1.2-4.9,2.8c-0.3,0.4-0.5,0.8-0.7,1.2c-0.2,0.4-0.4,0.9-0.6,1.4
		c-0.3,0.9-0.5,1.9-0.7,2.9c0,0.1,0,0.1,0,0.2c-0.1,0.4-0.2,0.7-0.3,1.1c-0.2,0.9-0.4,1.8-0.7,2.8c0,0.3-0.1,0.5-0.1,0.8
		c-0.1,3.2,0.1,6.4,0.6,9.6c0,0.2,0.1,0.3,0.2,0.4c0,0,0,0,0,0.1c-0.2,0.7-0.1,1.5-0.1,2.2c0.1,0.9,0.5,1.8,0.8,2.6
		c0.5,0.9,1.1,1.7,1.6,2.5c0.3,0.4,0.7,0.7,1,1.1c0.4,0.4,0.9,0.7,1.3,1c0.7,0.5,1.6,0.8,2.5,1.1c0.7,0.2,1.5,0.2,2.2,0.2
		c0.4,0,0.7-0.1,1.1-0.2c0.4-0.1,0.7-0.2,1.1-0.4c0.6-0.3,1.1-0.6,1.6-1.1c0.5-0.4,0.9-1,1.3-1.5c0.3-0.5,0.6-1.1,0.9-1.6
		c0.3-0.7,0.5-1.3,0.7-2c0.4-1.3,0.7-2.7,0.8-4.1c0.1-1.3,0.3-2.5,0.2-3.8c0-0.4-0.1-0.8-0.1-1.2c0-0.4,0-0.8,0-1.1
		c0.5-0.1,1-0.1,1.5-0.3c0.6-0.2,1.1-0.4,1.7-0.6c0.9-0.4,1.8-1,2.6-1.7c0.1-0.1,0.3-0.3,0.4-0.4c0.2-0.1,0.4-0.2,0.7-0.3
		c0.4-0.1,0.7-0.2,1.1-0.3c0.2,0,0.5,0,0.7,0c0.2,0,0.4,0.1,0.6,0.2c0.1,0.1,0.3,0.1,0.4,0.2c0.1,0,0.1,0.1,0.2,0.1
		c0.3,0.2,0.5,0.5,0.7,0.7c0.4,0.5,0.7,1,0.9,1.6c0.4,1.1,0.6,2.3,0.8,3.5c0.2,1.5,0.1,3.1-0.1,4.6c-0.1,0.8-0.3,1.7-0.7,2.5
		c0,0.1-0.1,0.2-0.1,0.3c-0.1,0.3,0,1.6,0.1,1.8c0.4,0.7,0.9,1.3,1.4,1.9c0.3,0.4,0.7,0.7,1,1.1c0.4,0.4,0.9,0.7,1.3,1
		c0.7,0.5,1.6,0.8,2.5,1.1c0.7,0.2,1.5,0.2,2.2,0.2c0.4,0,0.7-0.1,1.1-0.2c0.4-0.1,0.7-0.2,1.1-0.4c0.6-0.3,1.1-0.6,1.6-1.1
		c0.5-0.4,0.9-1,1.3-1.5c0.3-0.5,0.6-1.1,0.9-1.6c0.3-0.7,0.5-1.3,0.7-2c0.1-0.4,0.2-0.8,0.3-1.3C225.6,46.6,225.7,45.3,225.6,44.1z
		"/>
	<g>
		<path class="st1" d="M227.1,44.2c-1-13.1-8.8-22.2-21.7-24.2c0.5,0.5,1,1,1.5,1.5l0,0c0-0.9-0.7-1.4-1.5-1.5
			c-4.7-0.6-8.2,0-12.4,2.4c0.6,0.1,1.2,0.2,1.8,0.2c-4.4-5.1-11.4-2.6-13.6,3.5c-1.3,3.7-2,8-1.8,11.9c0,2.1,0.4,4.2,0.6,6.3
			c-0.2-1.3,0,1.6,0,2.3c0.7,6,7.4,12,13.6,9.3c6.7-2.8,6.3-11.7,6.4-17.6c-0.4,0.5-0.7,1-1.1,1.4c1.5-0.3,2.9-0.6,4.2-1.3
			c1.1-0.6,1.9-1.8,3.2-1.8c4.6-0.2,2.6,8.4,2.2,11.2c-0.5,3.3,1.2,5.9,4.1,7.8C221.5,61.4,227.1,51.7,227.1,44.2
			c-0.1-1.9-3.1-2-3-0.1c0,2.6-0.1,5.7-1.9,7.9c-2.7,3.2-7.2,2.6-9.7-0.6c-1.7-2.2-0.6-3.1-0.3-5.5c0.4-2.5,0.2-5.2-0.5-7.7
			c-0.7-1.9-1.6-4.1-3.7-4.8c-3.4-1.1-6.9,3-9.8,3.5c-0.6,0.1-1.1,0.8-1.1,1.4c-0.1,4.1,0.3,8.5-1.9,12.3
			c-4.3,7.2-11.4,0.1-12.2-5.5c-0.5-3.7-1.1-8.1-0.4-11.9c0.2-1.4,0.7-2.8,0.9-4.1c0.4-1.8,0.7-2.2,1.9-3.8c0.7-1.9,2-2.4,3.8-1.6
			c1.5-0.5,2.6-0.1,3.3,1.1c0.4,0.5,1.3,0.6,1.8,0.2c3.6-2.1,6.7-2.5,10.9-2c-0.5-0.5-1-1-1.5-1.5l0,0c0,0.9,0.7,1.4,1.5,1.5
			c11.2,1.8,18,10,18.8,21.2C224.3,46,227.3,46.1,227.1,44.2z"/>
	</g>
</g>
</svg>
