<?xml version="1.0" encoding="utf-8"?>
<!-- Generator: Adobe Illustrator 23.1.1, SVG Export Plug-In . SVG Version: 6.00 Build 0)  -->
<svg version="1.1" id="Layer_1" xmlns="http://www.w3.org/2000/svg" xmlns:xlink="http://www.w3.org/1999/xlink" x="0px" y="0px"
	 viewBox="0 0 134.8 807.5" style="enable-background:new 0 0 134.8 807.5;" xml:space="preserve">
<style type="text/css">
	.st0{fill:#FFFFFF;}
	.st1{fill:#2C2C2C;}
	.st2{fill:#2C2C2C;stroke:#2C2C2C;stroke-linecap:round;stroke-linejoin:round;stroke-miterlimit:10;}
</style>
<g>
	<g>
		<g id="XMLID_856_">
			<path class="st0" d="M85.8,485.6c0,0,0.2,0.5-0.6,0.5c-26.7,0.6-69.2,0-69.2,0c-0.8-0.1-0.6-0.5-0.6-0.5c-1.1-15.1,0-43.2,0-43.2
				s-0.2-0.5,0.6-0.5c41.5-1.1,69.6,0,69.6,0c0.8,0.1,0.6,0.5,0.6,0.5S86.4,466.1,85.8,485.6z"/>
			<g>
				<path class="st1" d="M84.4,486c-0.4-1,1.6-1.2,0.5-1.4c-0.2,0-0.5,0-0.6,0c-0.5,0-1.1,0-1.6,0c-1.1,0-2.2,0-3.3,0.1
					c-2.4,0-4.7,0.1-7.1,0.1c-4.9,0-9.8,0.1-14.7,0.1c-8.9,0-17.7,0-26.6-0.1c-3.1,0-6.3-0.1-9.4-0.1c-1.7,0-3.4-0.2-5.1-0.1
					c-0.1,0-0.3,0-0.4,0c0,0,0,0-0.1,0c0.1,0,0.6,2.6,0.9,1.4c0.1-0.4,0-0.7,0-1.1c-0.1-2-0.2-4.1-0.3-6.1
					c-0.1-4.5-0.2-8.9-0.1-13.4c0-7.1,0.2-14.1,0.4-21.2c0-0.6,0.1-1.2,0.1-1.7c0,0,0-0.1,0-0.1c0-0.1,0-0.3-0.1-0.4
					c0.8,2.6-1.2,1,0.1,1.4c0.7,0.2,1.8,0,2.5-0.1c0.9,0,1.8,0,2.7-0.1c6.1-0.1,12.3-0.2,18.4-0.3c14.5-0.1,29-0.1,43.4,0.4
					c0.4,0,0.9,0.1,1.4,0c0.1,0,0.2,0,0.3,0c0,0,0,0,0,0c-0.5,0.1-0.6-2.9-0.9-1.2c0,0.2,0,0.1,0,0.2c-0.2,1.8,0,3.8,0,5.6
					c0,9.7-0.1,19.5-0.3,29.2c-0.1,2.8-0.1,5.6-0.2,8.4c-0.1,1.9,2.9,1.9,3,0c0.3-11.1,0.4-22.3,0.5-33.5c0-3,0-6,0-9
					c0-0.2,0.1-0.5,0-0.7c0-0.2,0.1-0.4-0.1,0.2c-0.3,0.8,0,0.2,0.1-0.1c0-0.3,0.1-0.6,0-0.9c-0.3-1.1-1.3-1.3-2.3-1.4
					c-4-0.2-8-0.2-11.9-0.3c-9.2-0.2-18.4-0.2-27.6-0.2c-6.1,0-12.2,0.1-18.3,0.2c-3.4,0.1-6.7,0.1-10.1,0.2c-1.1,0-2.7-0.2-3.4,1
					c-0.3,0.5-0.1,0.8-0.1,1.4c0-0.9,0-0.4,0-0.3c-0.1,0.6,0,1.3-0.1,1.9c0,1.3-0.1,2.7-0.1,4c-0.1,4-0.2,8-0.2,12.1
					c-0.1,4.7-0.1,9.4,0,14.2c0,2.2,0.1,4.5,0.2,6.7c0,1,0.1,2,0.2,3.1c0,0.2,0,0.5,0,0.7c0.2,0.8,0.2-0.6,0.2,0
					c0,0.6-0.3,1,0.1,1.6c0.8,1.3,3,1,4.2,1c2.6,0,5.3,0.1,7.9,0.1c18.8,0.2,37.6,0.3,56.4,0c1,0,2.3,0.1,3.3-0.1
					c0.9-0.3,1.7-1.3,1.3-2.3C86.6,483.5,83.7,484.2,84.4,486z"/>
			</g>
		</g>
		<g id="XMLID_855_">
			<path class="st0" d="M77.9,450.5c0,0,0.2-1.2-0.8-1.3c0,0-17.5-1.4-39.1,0c-1,0.1-0.8,1.3-0.8,1.3s-0.2,15.8,0.4,26.9
				c0,0-0.2,1.2,0.8,1.3c0,0,16.7,1,38.4,0c1,0,0.8-1.3,0.8-1.3L77.9,450.5z"/>
			<g>
				<path class="st1" d="M79.4,450.5c0.2-1.8-1.2-2.7-2.8-2.8c-1.4-0.1-2.9-0.2-4.3-0.3c-6.4-0.3-12.9-0.4-19.3-0.3
					c-4.3,0.1-8.7,0.2-13,0.5c-1.7,0.1-3.7,0-4.2,2c-0.1,0.4-0.1,0.9-0.1,1.3c0,5.1,0,10.1,0,15.2c0.1,3.5,0.1,7.1,0.3,10.6
					c0.1,1.2,0,2.4,1.1,3.1c0.5,0.3,1,0.3,1.5,0.4c3.8,0.3,7.6,0.3,11.4,0.4c7.8,0.1,15.5,0.1,23.3-0.2c1.6-0.1,4.4,0.4,5.4-1.3
					c0.3-0.5,0.3-1.1,0.3-1.7c0-1,0-2,0-3c0.1-7.8,0.2-15.5,0.3-23.3C79.4,450.9,79.4,450.7,79.4,450.5c0-1.9-3-1.9-3,0
					c-0.1,6.4-0.2,12.8-0.3,19.2c0,1.7,0,3.4-0.1,5.1c0,0.8-0.1,1.7,0,2.6c0,0,0,0.1,0,0.1c0,0,0,0.3,0,0.2c0-0.5,0.3-0.2-0.1-0.4
					c-0.2-0.1-0.8,0-1,0c-2.1,0.1-4.1,0.2-6.2,0.2c-3.8,0.1-7.6,0.1-11.4,0.1c-5.2,0-10.4-0.1-15.5-0.3c-1,0-2.3-0.3-3.3-0.1
					c-0.1,0-0.2,0-0.3,0c-0.1,0.1-1.1-0.9,0.3,0.2c0.6,0.5,0.2,0.3,0.3,0c0.2-0.4-0.1-1.5-0.1-2c0-0.8-0.1-1.6-0.1-2.4
					c-0.2-6.1-0.2-12.1-0.2-18.2c0-1.4,0.1-2.9,0-4.2c0-0.1,0-0.1,0-0.2c0,0,0-0.3,0-0.2c-0.1,0.5-0.3,0.2,0.1,0.4
					c0.2,0.1,0.8,0,1-0.1c2.1-0.1,4.2-0.2,6.3-0.3c7-0.3,14-0.3,20.9-0.1c2.2,0.1,4.4,0.2,6.6,0.3c1,0.1,2.3,0.4,3.3,0.2
					c0,0,0.2,0,0.2,0c-0.3,0.2-0.6-0.9-0.7-0.2C76.2,452.4,79.2,452.4,79.4,450.5z"/>
			</g>
		</g>
		<g>
			<g>
				<path class="st0" d="M70.1,426c-4.4,4.5-9.6,9.6-14.4,14.3c-0.2-0.2-0.4-0.4-0.5-0.6C72.3,422.9,70.1,426,70.1,426z"/>
				<g>
					<path class="st1" d="M69,425c-4.7,4.8-9.5,9.6-14.4,14.3c0.7,0,1.4,0,2.1,0c-0.2-0.2-0.4-0.4-0.5-0.6c0,0.7,0,1.4,0,2.1
						c4-4,8.1-8,12.3-11.8c0.7-0.6,1.4-1.2,2.1-1.8c0.2-0.2-0.4,0.2-0.2,0.1c0,0,0.1-0.1,0.1-0.1c0.1,0,0.1-0.1,0.2-0.1
						c0.2-0.2-0.2,0.1-0.2,0.1c-0.7,0.2-1.6-0.2-1.8-1c-0.2-0.5,0.1-0.7,0.1-1.1c0,0,0,0,0,0.1c0,0,0,0.1-0.1,0.1
						c-0.5,0.7-0.1,1.7,0.5,2.1c0.8,0.4,1.6,0.1,2.1-0.5c0.1-0.2,0.2-0.4,0.3-0.5c0.4-1.5-1.3-2.3-2.5-1.6c-0.7,0.4-1.3,1-1.9,1.6
						c-1.4,1.2-2.7,2.5-4.1,3.8c-3.1,2.9-6.1,5.8-9.1,8.8c-0.6,0.6-0.6,1.5,0,2.1c0.2,0.2,0.4,0.4,0.5,0.6c0.6,0.6,1.5,0.6,2.1,0
						c4.9-4.7,9.7-9.5,14.4-14.3C72.5,425.7,70.3,423.6,69,425z"/>
				</g>
			</g>
			<g>
				<path class="st0" d="M40.8,425.4c4.5,4.4,9.6,9.6,14.3,14.4c-0.2,0.2-0.4,0.4-0.6,0.5C37.7,423.1,40.8,425.4,40.8,425.4z"/>
				<g>
					<path class="st1" d="M39.7,426.5c4.8,4.7,9.6,9.5,14.3,14.4c0-0.7,0-1.4,0-2.1c-0.2,0.2-0.4,0.4-0.6,0.5c0.7,0,1.4,0,2.1,0
						c-4-4-7.9-8.1-11.8-12.3c-0.6-0.7-1.2-1.4-1.8-2.1c-0.2-0.2,0.2,0.4,0.1,0.2c0,0-0.1-0.1-0.1-0.1c0-0.1-0.1-0.1-0.1-0.2
						c-0.2-0.2,0.1,0.2,0.1,0.2c0.2,0.7-0.2,1.6-1,1.8c-0.5,0.2-0.7-0.1-1.1-0.1c0,0,0,0,0.1,0c0,0,0.1,0,0.1,0.1
						c0.7,0.5,1.7,0.1,2.1-0.5c0.4-0.8,0.1-1.6-0.5-2.1c-0.2-0.1-0.4-0.2-0.5-0.3c-1.5-0.4-2.3,1.3-1.6,2.5c0.4,0.7,1,1.3,1.6,1.9
						c1.2,1.4,2.5,2.7,3.8,4.1c2.9,3,5.8,6.1,8.8,9.1c0.6,0.6,1.5,0.6,2.1,0c0.2-0.2,0.4-0.4,0.6-0.5c0.6-0.6,0.6-1.5,0-2.1
						c-4.7-4.8-9.5-9.7-14.3-14.4C40.5,423,38.4,425.1,39.7,426.5z"/>
				</g>
			</g>
			<g>
				<path class="st0" d="M55.1,439.8c0.2,0.2,0.4,0.4,0.5,0.6c-0.2,0.2-0.4,0.4-0.6,0.5c-0.2-0.2-0.4-0.4-0.5-0.6
					C54.7,440.2,54.9,440,55.1,439.8z"/>
				<g>
					<path class="st1" d="M54.1,440.9c0.2,0.2,0.4,0.4,0.5,0.6c0-0.7,0-1.4,0-2.1c-0.2,0.2-0.4,0.4-0.6,0.5c0.7,0,1.4,0,2.1,0
						c-0.2-0.2-0.4-0.4-0.5-0.6c0,0.7,0,1.4,0,2.1c0.2-0.2,0.4-0.4,0.6-0.5c0.1-0.1,0.2-0.3,0.3-0.5c0.1-0.2,0.1-0.4,0.1-0.6
						c0-0.2,0-0.4-0.1-0.6c-0.1-0.2-0.2-0.3-0.3-0.5c-0.1-0.1-0.2-0.2-0.3-0.2c-0.2-0.1-0.5-0.2-0.8-0.2c-0.1,0-0.3,0-0.4,0.1
						c-0.3,0.1-0.5,0.2-0.7,0.4c-0.2,0.2-0.4,0.4-0.6,0.5c-0.1,0.1-0.2,0.3-0.3,0.5c-0.1,0.2-0.1,0.4-0.1,0.6c0,0.1,0,0.3,0.1,0.4
						c0.1,0.3,0.2,0.5,0.4,0.7c0.2,0.2,0.4,0.4,0.5,0.6c0.1,0.1,0.3,0.2,0.5,0.3c0.2,0.1,0.4,0.1,0.6,0.1c0.1,0,0.3,0,0.4-0.1
						c0.3-0.1,0.5-0.2,0.7-0.4c0.2-0.2,0.4-0.4,0.6-0.5c0.1-0.1,0.2-0.3,0.3-0.5c0.1-0.2,0.1-0.4,0.1-0.6c0-0.1,0-0.3-0.1-0.4
						c-0.1-0.3-0.2-0.5-0.4-0.7c-0.2-0.2-0.4-0.4-0.5-0.6c-0.1-0.1-0.3-0.2-0.5-0.3c-0.2-0.1-0.4-0.1-0.6-0.1c-0.2,0-0.4,0-0.6,0.1
						c-0.2,0.1-0.3,0.2-0.5,0.3c-0.1,0.1-0.2,0.2-0.2,0.3c-0.1,0.2-0.2,0.5-0.2,0.8c0,0.1,0,0.3,0.1,0.4
						C53.7,440.4,53.9,440.7,54.1,440.9z"/>
				</g>
			</g>
		</g>
	</g>
	<g>
		<g>
			<g>
				<path class="st0" d="M12.9,234.4c0,0,0.8-1.6,2.6-1.5c0,0,68.5,0.1,70.5,0c1.7-0.1,2.6,1.5,2.6,1.5s0.1,38.7-0.8,40.3
					c0,0-0.8,1.6-2.6,1.5c0,0-10.4,0.1-23.1,0.2c0-0.1,0-0.2-0.1-0.3c-0.4-0.3-11-11-11-11c-0.3-0.3-0.8,0-0.8,0
					c-1.3,1.2-10.8,11.1-10.8,11.1s-0.1,0.2-0.1,0.4c-11.4,0-20.9-0.1-23-0.3c-1.7-0.2-2.6-1.5-2.6-1.5S12.5,239,12.9,234.4z"/>
				<g>
					<path class="st1" d="M14.2,235.2c0.4-0.7,1.2-0.8,2.1-0.8c1.2,0,2.3,0,3.5,0c4.4,0,8.9,0,13.3,0c11.9,0,23.8,0,35.7,0
						c4.4,0,8.8,0,13.1,0c1.2,0,2.3,0,3.5,0c0.2,0,0.4,0,0.7,0c0.7,0,0.7,0.4,1.2,0.6c0.4,0.2-0.9,0.8-0.1-0.6c0,0,0,0.1,0,0.1
						c-0.2,1,0,2.4,0,3.5c0,2.4,0,4.8,0,7.2c0,6-0.1,12-0.2,18c0,2.5-0.1,5-0.2,7.4c0,0.8-0.1,1.6-0.1,2.4c0,0.3,0,0.6-0.1,0.8
						c0,0.2,0-0.4,0,0c0,0.1-0.1,0.2-0.1,0.2c0-0.1,0.2-0.2-0.1,0c-0.4,0.4-0.6,0.5-1.2,0.5c-0.8,0-1.5,0-2.3,0
						c-4.1,0-8.2,0.1-12.3,0.1c-2.8,0-5.6,0-8.4,0.1c0.5,0.4,1,0.7,1.4,1.1c-0.1-0.8-0.9-1.3-1.4-1.9c-0.9-0.9-1.7-1.7-2.6-2.6
						c-2.1-2.1-4.1-4.1-6.2-6.2c-0.4-0.4-0.9-0.9-1.3-1.3c-1.2-1-2.5-0.5-3.4,0.5c-2.1,2-4,4.1-6,6.2c-1.1,1.1-2.1,2.2-3.2,3.3
						c-0.6,0.7-1.4,1.2-1.6,2.2c0.5-0.4,1-0.7,1.4-1.1c-7.1,0-14.2,0.1-21.3-0.2c-0.7,0-1.6,0-2.3-0.3c-0.2-0.1-0.5-0.4-0.6-0.5
						c-0.2-0.1-0.1-0.2-0.1-0.1c0,0,0.3,0.8,0.2,0.8c0,0,0-0.1,0-0.2c0.2-0.8-0.1-1.9-0.1-2.7c-0.3-8.9-0.6-17.9-0.7-26.8
						c-0.1-3.5-0.3-7.1,0-10.6c0.2-1.9-2.8-1.9-3,0c-0.3,3.1-0.1,6.3,0,9.4c0.1,5.1,0.2,10.1,0.3,15.2c0.1,4.2,0.2,8.5,0.4,12.7
						c0,0.9,0,1.9,0.1,2.8c0.1,2,2.6,3,4.3,3.2c2.7,0.3,5.4,0.2,8.1,0.2c4.9,0.1,9.8,0.1,14.6,0.1c0.6,0,1.3-0.5,1.4-1.1
						c0.1-0.6-0.6,0.6-0.1,0.1c0.3-0.2,0.5-0.5,0.7-0.8c0.8-0.9,1.6-1.7,2.5-2.6c1.9-2,3.9-4,5.9-6c0.3-0.3,0.6-0.6,1-0.9
						c0.1-0.1,0.3-0.2,0.3-0.3c0,0,0.1-0.1,0.1-0.1c0-0.3-1.2,0.1-1.2-0.1c0,0.2,1.1,1.1,1.2,1.2c1.8,1.8,3.6,3.6,5.4,5.4
						c1,1,2,2,3,3c0.3,0.3,0.7,0.6,1,1c0.1,0.1,0.2,0.2,0.3,0.3c0.3,0.2,0,0.2-0.1-0.2c0.1,0.6,0.8,1.1,1.4,1.1
						c7.7,0,15.4,0.1,23.1-0.2c2.4-0.1,4-1.6,4.2-3.9c0.2-1.8,0.2-3.6,0.3-5.4c0.3-10.9,0.3-21.8,0.3-32.7c0-1.5-0.2-2.6-1.7-3.6
						c-1.2-0.8-2.5-0.7-3.8-0.7c-3.7,0-7.4,0-11.1,0c-12.2,0-24.4,0-36.7,0c-7.1,0-14.2-0.3-21.3,0c-1.6,0.1-3.1,0.8-3.9,2.3
						C10.7,235.4,13.3,236.9,14.2,235.2z"/>
				</g>
			</g>
			<g>
				<path class="st0" d="M50.1,265.1c0,0,0.6-0.3,0.8,0c0,0,10.7,10.8,11,11c0.1,0.1,0.1,0.2,0.1,0.3c-7.4,0-15.5,0.1-22.9,0.1
					c0-0.2,0.1-0.4,0.1-0.4S48.8,266.2,50.1,265.1z"/>
				<g>
					<path class="st1" d="M50.9,266.4c-0.4,0.2-1.2-0.6-0.9-0.1c0.1,0.1,0.2,0.2,0.3,0.3c0.4,0.4,0.8,0.8,1.1,1.1
						c1.2,1.3,2.5,2.5,3.8,3.8c1.3,1.3,2.5,2.5,3.8,3.8c0.4,0.4,0.9,0.9,1.3,1.3c0.1,0.1,0.3,0.3,0.4,0.4c0.3,0.3,0,0.2,0-0.1
						c0.5-0.6,1-1.3,1.4-1.9c-7.6,0-15.3,0.1-22.9,0.1c0.5,0.6,1,1.3,1.4,1.9c0.2-0.7-0.5,0.4-0.2,0.2c0.1-0.1,0.2-0.2,0.3-0.3
						c0.4-0.4,0.7-0.8,1.1-1.1c1.1-1.2,2.3-2.3,3.4-3.5c2-2,3.9-4.2,6-6c1.4-1.3-0.7-3.4-2.1-2.1c-2.2,2-4.2,4.2-6.2,6.3
						c-1.1,1.2-2.2,2.3-3.4,3.5c-0.7,0.7-1.5,1.3-1.7,2.3c-0.2,0.9,0.4,1.9,1.4,1.9c7.6,0,15.3,0,22.9-0.1c1.1,0,1.6-0.9,1.4-1.9
						c-0.2-1-1.7-2.1-2.4-2.8c-1.4-1.4-2.8-2.8-4.3-4.3c-1.3-1.3-2.6-2.6-3.9-3.9c-1.1-1.1-2-2-3.6-1.2
						C47.6,264.6,49.2,267.2,50.9,266.4z"/>
				</g>
			</g>
		</g>
		<g>
			<g>
				<path class="st0" d="M58,254.6c0-0.2,0-0.3,0-0.5c0-0.7,0-1.3,0.2-2c0.2-0.7,0.4-1.5,0.7-2.3c0,0,0.1-0.1,0.2-0.2
					c0.4-1.2,1-2.2,1.9-3c0.8-0.9,1.8-1.6,3-2c0.6-0.4,1.2-0.7,1.9-1c0,0,0.5,0,1.2,0c0.8-0.3,1.5-0.4,2.3-0.3c0.2,0,0.3,0,0.5,0
					c0.7,0,1.3,0,2,0.2c0.7,0.2,1.5,0.4,2.3,0.7c0,0,0.1,0.1,0.2,0.2c1.2,0.4,2.2,1,3,1.9c0.9,0.8,1.6,1.8,2,3
					c0.4,0.6,0.7,1.2,1,1.9c0,0,0,0.5,0,1.2c0.3,0.8,0.4,1.5,0.3,2.3c0,0.2,0,0.3,0,0.5c0,0.7,0,1.3-0.2,2c-0.2,0.7-0.4,1.5-0.7,2.3
					c0,0-0.1,0.1-0.2,0.2c-0.4,1.2-1,2.2-1.9,3c-0.8,0.9-1.8,1.6-3,2c-0.6,0.4-1.2,0.7-1.9,1c0,0-0.5,0-1.2,0
					c-0.8,0.3-1.5,0.4-2.3,0.3c-0.2,0-0.3,0-0.5,0c-0.7,0-1.3,0-2-0.2c-0.7-0.2-1.5-0.4-2.3-0.7c0,0-0.1-0.1-0.2-0.2
					c-1.2-0.4-2.2-1-3-1.9c-0.9-0.8-1.6-1.8-2-3c-0.4-0.6-0.7-1.2-1-1.9c0,0,0-0.5,0-1.2C58,256.2,57.9,255.4,58,254.6z"/>
				<g>
					<path class="st1" d="M59.5,254.6c0-1.2,0.2-2.3,0.5-3.4c0.1-0.2,0.4-1,0-0.4c0.1-0.2,0.3-0.3,0.4-0.4c0.3-0.5,0.4-1.1,0.7-1.5
						c0.5-0.8,1.4-1.7,2.2-2.2c0.5-0.3,1-0.5,1.5-0.7c0.2-0.1,0.4-0.2,0.6-0.3c0.1-0.1,1.2-0.6,0.8-0.5c-0.4,0.1,0.1,0,0.2,0
						c0.2,0,0.5,0,0.7,0c0.6-0.1,1.1-0.3,1.7-0.3c1.2-0.1,2.4,0.1,3.6,0.4c0.3,0.1,0.6,0.2,1,0.3c0,0-0.5-0.3-0.1-0.1
						c0.5,0.3,0.9,0.4,1.4,0.7c0.9,0.5,1.8,1.3,2.4,2.1c0.7,0.9,0.9,2.1,1.6,3c0.1,0.2,0.2,0.7,0.1,0c0,0.1,0,0.3,0,0.4
						c0,0.8,0.2,1.3,0.3,2.1c0.2,1.1,0.1,2.3-0.2,3.4c-0.1,0.5-0.3,1-0.5,1.5c0.1-0.1,0.1-0.1,0.2-0.2c-0.1,0.1-0.2,0.2-0.2,0.3
						c-0.2,0.4-0.3,0.7-0.5,1.1c-0.9,2.1-3,3-4.9,4c-0.2,0.1-0.5,0.2-0.6,0.3c0.4-0.2,0.5,0,0.2,0c-0.6-0.1-1.2,0.1-1.8,0.2
						c-1.2,0.3-2.4,0.2-3.6,0c-0.6-0.1-1.3-0.4-1.9-0.6c0.4,0.1,0.2,0.1-0.1-0.1c-0.3-0.2-0.6-0.3-1-0.4c-1-0.4-1.9-1.3-2.6-2.1
						c-0.8-1-1.1-2.4-1.8-3.5c0.1,0.1,0,0.6,0,0.2c0-0.3,0-0.7,0-1C59.7,256.1,59.5,255.5,59.5,254.6c0-1.9-3-1.9-3,0
						c0,0.8,0.1,1.5,0.3,2.3c0.1,0.5,0,1.1,0.1,1.6c0.1,0.6,0.5,1.2,0.8,1.7c0.4,0.7,0.7,1.5,1.2,2.2c0.7,1,1.6,2,2.6,2.8
						c0.5,0.4,1.1,0.8,1.8,1c0.1,0,0.7,0.2,0.1,0c0.4,0.2,0.7,0.4,1.1,0.6c2.7,1,5.4,0.9,8.2,0.5c1.2-0.2,2.6-1,3.7-1.6
						c1.2-0.6,2.3-1.6,3.1-2.7c0.4-0.4,0.7-0.9,0.9-1.4c0.2-0.3,0.3-0.7,0.4-1c-0.3,0.7,0.2-0.3,0.1-0.2c0.7-1.4,1.1-3.1,1.1-4.6
						c0-1.3-0.3-2.6-0.3-3.9c-0.1-1.4-0.9-2.4-1.4-3.6c-0.6-1.3-1.5-2.3-2.5-3.2c-0.4-0.4-0.9-0.7-1.3-1c-0.3-0.2-0.6-0.3-0.9-0.5
						c-0.2-0.1-0.4-0.2-0.7-0.3c0.2,0.2,0.3,0.2,0.1,0.1c-1.3-0.6-2.6-1.1-4.1-1.3c-1.5-0.2-2.9,0.1-4.4,0.3
						c-0.7,0.1-1.2,0.1-1.9,0.4c-0.6,0.3-1.3,0.7-1.9,1c-1.4,0.7-2.6,1.6-3.6,2.8c-0.5,0.6-0.9,1.3-1.3,2c0,0-0.5,1.2-0.1,0.5
						c-0.1,0.2-0.3,0.5-0.4,0.7c-0.7,1.6-1,3.4-1,5.1C56.5,256.6,59.5,256.6,59.5,254.6z"/>
				</g>
			</g>
			<g>
				<path class="st0" d="M20.1,254.6c0-0.2,0-0.3,0-0.5c0-0.7,0-1.3,0.2-2c0.2-0.7,0.4-1.5,0.7-2.3c0,0,0.1-0.1,0.2-0.2
					c0.4-1.2,1-2.2,1.9-3c0.8-0.9,1.8-1.6,3-2c0.6-0.4,1.2-0.7,1.9-1c0,0,0.5,0,1.2,0c0.8-0.3,1.5-0.4,2.3-0.3c0.2,0,0.3,0,0.5,0
					c0.7,0,1.3,0,2,0.2c0.7,0.2,1.5,0.4,2.3,0.7c0,0,0.1,0.1,0.2,0.2c1.2,0.4,2.2,1,3,1.9c0.9,0.8,1.6,1.8,2,3
					c0.4,0.6,0.7,1.2,1,1.9c0,0,0,0.5,0,1.2c0.3,0.8,0.4,1.5,0.3,2.3c0,0.2,0,0.3,0,0.5c0,0.7,0,1.3-0.2,2c-0.2,0.7-0.4,1.5-0.7,2.3
					c0,0-0.1,0.1-0.2,0.2c-0.4,1.2-1,2.2-1.9,3c-0.8,0.9-1.8,1.6-3,2c-0.6,0.4-1.2,0.7-1.9,1c0,0-0.5,0-1.2,0
					c-0.8,0.3-1.5,0.4-2.3,0.3c-0.2,0-0.3,0-0.5,0c-0.7,0-1.3,0-2-0.2c-0.7-0.2-1.5-0.4-2.3-0.7c0,0-0.1-0.1-0.2-0.2
					c-1.2-0.4-2.2-1-3-1.9c-0.9-0.8-1.6-1.8-2-3c-0.4-0.6-0.7-1.2-1-1.9c0,0,0-0.5,0-1.2C20.2,256.2,20.1,255.4,20.1,254.6z"/>
				<g>
					<path class="st1" d="M21.6,254.6c0-1.2,0.2-2.3,0.5-3.4c0.1-0.2,0.4-1,0-0.4c0.1-0.2,0.3-0.3,0.4-0.4c0.3-0.5,0.4-1.1,0.7-1.5
						c0.5-0.8,1.4-1.7,2.2-2.2c0.5-0.3,1-0.5,1.5-0.7c0.2-0.1,0.4-0.2,0.6-0.3c0.1-0.1,1.2-0.6,0.8-0.5c-0.4,0.1,0.1,0,0.2,0
						c0.2,0,0.5,0,0.7,0c0.6-0.1,1.1-0.3,1.7-0.3c1.2-0.1,2.4,0.1,3.6,0.4c0.3,0.1,0.6,0.2,1,0.3c0,0-0.5-0.3-0.1-0.1
						c0.5,0.3,0.9,0.4,1.4,0.7c0.9,0.5,1.8,1.3,2.4,2.1c0.7,0.9,0.9,2.1,1.6,3c0.1,0.2,0.2,0.7,0.1,0c0,0.1,0,0.3,0,0.4
						c0,0.8,0.2,1.3,0.3,2.1c0.2,1.1,0.1,2.3-0.2,3.4c-0.1,0.5-0.3,1-0.5,1.5c0.1-0.1,0.1-0.1,0.2-0.2c-0.1,0.1-0.2,0.2-0.2,0.3
						c-0.2,0.4-0.3,0.7-0.5,1.1c-0.9,2.1-3,3-4.9,4c-0.2,0.1-0.5,0.2-0.6,0.3c0.4-0.2,0.5,0,0.2,0c-0.6-0.1-1.2,0.1-1.8,0.2
						c-1.2,0.3-2.4,0.2-3.6,0c-0.6-0.1-1.3-0.4-1.9-0.6c0.4,0.1,0.2,0.1-0.1-0.1c-0.3-0.2-0.6-0.3-1-0.4c-1-0.4-1.9-1.3-2.6-2.1
						c-0.8-1-1.1-2.4-1.8-3.5c0.1,0.1,0,0.6,0,0.2c0-0.3,0-0.7,0-1C21.9,256.1,21.6,255.5,21.6,254.6c0-1.9-3-1.9-3,0
						c0,0.8,0.1,1.5,0.3,2.3c0.1,0.5,0,1.1,0.1,1.6c0.1,0.6,0.5,1.2,0.8,1.7c0.4,0.7,0.7,1.5,1.2,2.2c0.7,1,1.6,2,2.6,2.8
						c0.5,0.4,1.1,0.8,1.8,1c0.1,0,0.7,0.2,0.1,0c0.4,0.2,0.7,0.4,1.1,0.6c2.7,1,5.4,0.9,8.2,0.5c1.2-0.2,2.6-1,3.7-1.6
						c1.2-0.6,2.3-1.6,3.1-2.7c0.4-0.4,0.7-0.9,0.9-1.4c0.2-0.3,0.3-0.7,0.4-1c-0.3,0.7,0.2-0.3,0.1-0.2c0.7-1.4,1.1-3.1,1.1-4.6
						c0-1.3-0.3-2.6-0.3-3.9c-0.1-1.4-0.9-2.4-1.4-3.6c-0.6-1.3-1.5-2.3-2.5-3.2c-0.4-0.4-0.9-0.7-1.3-1c-0.3-0.2-0.6-0.3-0.9-0.5
						c-0.2-0.1-0.4-0.2-0.7-0.3c0.2,0.2,0.3,0.2,0.1,0.1c-1.3-0.6-2.6-1.1-4.1-1.3c-1.5-0.2-2.9,0.1-4.4,0.3
						c-0.7,0.1-1.2,0.1-1.9,0.4c-0.6,0.3-1.3,0.7-1.9,1c-1.4,0.7-2.6,1.6-3.6,2.8c-0.5,0.6-0.9,1.3-1.3,2c0,0-0.5,1.2-0.1,0.5
						c-0.1,0.2-0.3,0.5-0.4,0.7c-0.7,1.6-1,3.4-1,5.1C18.7,256.6,21.7,256.6,21.6,254.6z"/>
				</g>
			</g>
		</g>
	</g>
	<g>
		<g>
			<path class="st0" d="M32.7,181c1.8-10.1,4.6-14.4,8.1-16.4c0,0,20.8-7.7,26.5,11.9c0.5,1.6,0.8,3.1,0.9,4.5H32.7z"/>
			<g>
				<path class="st1" d="M34.2,181.4c0.8-4.6,1.9-10.1,5.2-13.7c0.5-0.5,1-1,1.6-1.4c0.1-0.1,0.7-0.5,0.3-0.2c0,0,0.1,0,0.2-0.1
					c0.6-0.2,1.2-0.4,1.8-0.5c5.3-1.4,11.7-1.4,16.5,1.9c4.5,3.1,6.5,8.8,7.2,14c0.5-0.6,1-1.3,1.4-1.9c-10.4,0-20.8,0-31.2,0
					c-1.5,0-2.9,0-4.4,0c-1.9,0-1.9,3,0,3c10.4,0,20.8,0,31.2,0c1.5,0,2.9,0,4.4,0c1.1,0,1.6-1,1.4-1.9c-0.7-5.3-2.8-10.9-7-14.5
					c-3-2.6-6.7-4-10.6-4.4c-3-0.3-6.2,0-9.1,0.7c-1.9,0.4-3.4,1-4.9,2.3c-4.4,3.8-5.9,10.4-6.8,15.9
					C30.9,182.5,33.8,183.3,34.2,181.4z"/>
			</g>
		</g>
		<g>
			<path class="st0" d="M17.8,118.5c0,0-0.2-0.7,0.5-0.7c38.7-1.6,65,0,65,0c0.8,0.1,0.5,0.7,0.5,0.7s0,22-0.2,45H17.4L17.8,118.5z"
				/>
			<g>
				<path class="st1" d="M19.2,118.1c0.2,0.7-0.8,0.9-0.2,1.2c0.3,0.1,0.7,0,1,0c0.7,0,1.5-0.1,2.2-0.1c1.5-0.1,3-0.1,4.6-0.2
					c2.8-0.1,5.7-0.2,8.5-0.2c5-0.1,10-0.2,14.9-0.2c7.6,0,15.1,0.1,22.7,0.3c2.3,0.1,4.5,0.1,6.8,0.2c1,0,2.3,0.3,3.3,0.2
					c0.1,0,0.2,0,0.3,0c-0.3,0.2-0.7-2.1-0.9-0.8c-0.1,0.4,0,0.9,0,1.3c0,2.7,0,5.5,0,8.2c0,11.8-0.1,23.7-0.2,35.5
					c0.5-0.5,1-1,1.5-1.5c-7.5,0-15,0-22.4,0c-11.9,0-23.7,0-35.6,0c-2.7,0-5.5,0-8.2,0c0.5,0.5,1,1,1.5,1.5
					c0-5.1,0.1-10.1,0.1-15.2c0.1-8,0.1-16.1,0.2-24.1c0-1.9,0-3.7,0-5.6c0-1.9-3-1.9-3,0c0,5.1-0.1,10.1-0.1,15.2
					c-0.1,8-0.1,16.1-0.2,24.1c0,1.9,0,3.7,0,5.6c0,0.8,0.7,1.5,1.5,1.5c7.5,0,15,0,22.4,0c11.9,0,23.7,0,35.6,0c2.7,0,5.5,0,8.2,0
					c0.8,0,1.5-0.7,1.5-1.5c0.1-11.4,0.2-22.7,0.2-34.1c0-3.1,0-6.2,0-9.4c0-0.5,0-1,0-1.5c0,0.4,0,0.4,0-0.2c0-0.4-0.1-0.8-0.3-1.1
					c-0.4-0.6-1.1-0.9-1.8-1c-3-0.3-6.1-0.3-9.1-0.4c-7.8-0.2-15.6-0.3-23.4-0.3c-6.1,0-12.1,0.1-18.2,0.2
					c-3.5,0.1-6.9,0.2-10.4,0.3c-1.8,0.1-6.8-0.5-5.9,2.8C16.8,120.8,19.7,120,19.2,118.1z"/>
			</g>
		</g>
		<g>
			<path class="st0" d="M82.9,174.3c-24.9,0.5-64.6,0-64.6,0c-0.8-0.1-0.5-0.5-0.5-0.5c-0.1-2-0.2-4.4-0.3-6.8v-3.9h66.2
				c-0.1,3.6-0.1,7.2-0.2,10.7C83.5,173.8,83.7,174.3,82.9,174.3z"/>
			<g>
				<path class="st1" d="M82.9,172.8C70.2,173,57.5,173,44.8,173c-8.5,0-17.1-0.1-25.6-0.2c-0.2,0-0.6-0.1-0.8,0
					c0.2-0.1,0.9,2.6,0.9,0.8c0-1.1-0.1-2.2-0.2-3.3c-0.1-2.4-0.1-4.8-0.1-7.2c-0.5,0.5-1,1-1.5,1.5c7.5,0,15,0,22.4,0
					c11.9,0,23.7,0,35.6,0c2.7,0,5.5,0,8.2,0c-0.5-0.5-1-1-1.5-1.5c0,2-0.1,4.1-0.1,6.1c0,1,0,1.9-0.1,2.9c0,0.5-0.1,1,0,1.4
					C82,175.3,82,172.9,82.9,172.8c-0.8,0.1-1.5,0.6-1.5,1.5c0,0.7,0.7,1.6,1.5,1.5c1-0.1,1.9-0.5,2-1.5c0.1-0.9,0-1.9,0.1-2.8
					c0.1-2.8,0.1-5.5,0.2-8.3c0-0.8-0.7-1.5-1.5-1.5c-7.5,0-15,0-22.4,0c-11.9,0-23.7,0-35.6,0c-2.7,0-5.5,0-8.2,0
					c-0.8,0-1.5,0.7-1.5,1.5c0,2,0,4,0.1,6.1c0,1,0.1,2,0.1,2.9c0,0.7,0,1.4,0.1,2.1c0.2,1.1,1.1,1.5,2.1,1.6c2.3,0.2,4.7,0.1,7,0.1
					C37.2,176,49,176,60.8,176c7.4,0,14.8-0.1,22.2-0.2C84.8,175.7,84.8,172.7,82.9,172.8z"/>
			</g>
		</g>
		<g>
			<path class="st0" d="M26.2,125.7c0,0-0.2-0.4,0.4-0.5c28.4-1,47.7,0,47.7,0c0.6,0.1,0.4,0.5,0.4,0.5s0,14.4-0.2,29.6H26
				L26.2,125.7z"/>
			<g>
				<path class="st1" d="M27.7,125.3c-0.1,0.2-0.2,0.5-0.3,0.7c-0.5,0.6-0.5,0.8,0,0.7c0.1,0.1,0.6,0,0.7,0c0.5,0,1,0,1.5,0
					c1.1,0,2.2-0.1,3.4-0.1c1.9-0.1,3.8-0.1,5.8-0.1c3.6-0.1,7.2-0.1,10.8-0.1c5.4,0,10.8,0,16.2,0.1c2.7,0.1,5.4,0.1,8.1,0.3
					c0.1,0,0.4,0.1,0.5,0c-0.4,0.2-0.8-2.4-1.1-1c0,0.1,0,0.2,0,0.3c-0.1,1.6,0,3.2,0,4.8c0,8.2-0.1,16.4-0.2,24.5
					c0.5-0.5,1-1,1.5-1.5c-5.5,0-11,0-16.4,0c-8.7,0-17.4,0-26.2,0c-2,0-4,0-6,0c0.5,0.5,1,1,1.5,1.5c0.1-8.6,0.1-17.3,0.2-25.9
					c0-1.2,0-2.4,0-3.6c0-1.9-3-1.9-3,0c-0.1,8.6-0.1,17.3-0.2,25.9c0,1.2,0,2.4,0,3.6c0,0.8,0.7,1.5,1.5,1.5c5.5,0,11,0,16.4,0
					c8.7,0,17.4,0,26.2,0c2,0,4,0,6,0c0.8,0,1.5-0.7,1.5-1.5c0.1-7.9,0.1-15.9,0.2-23.8c0-1.8,0.1-3.7,0-5.5c0-0.1,0-0.2,0-0.3
					c0,0.7,0-0.1,0-0.4c-0.1-0.4-0.2-0.8-0.5-1c-0.4-0.4-1-0.5-1.5-0.6c-2.5-0.2-5.1-0.2-7.6-0.3c-5.8-0.1-11.6-0.2-17.4-0.2
					c-4.4,0-8.8,0.1-13.2,0.2c-2.5,0.1-4.9,0.1-7.4,0.2c-1.5,0.1-4.5,0-3.8,2.4C25.3,128,28.2,127.2,27.7,125.3z"/>
			</g>
		</g>
	</g>
	<path class="st2" d="M46.2,505.4c0,0,3.6-0.3,6.3,0.1c6.3-0.7,27.9-0.6,39-0.1c0,0,12.3-1,8.8,3.4c-1.3,1.7-6.2,2.4-11.6,2.4
		c-5.4,0-22.5,0.3-33.5-0.2c0,0-3.6,0.3-6.3-0.1c-6.3,0.7-27.9,0.6-39,0.1c0,0-12.3,1-8.8-3.4c1.2-1.5,5.1-2.2,9.6-2.3
		C16.6,505.1,35.1,505,46.2,505.4z"/>
	<path class="st2" d="M46.2,606.1c0,0,3.6-0.3,6.3,0.1c6.3-0.7,27.9-0.6,39-0.1c0,0,12.3-1,8.8,3.4c-1.3,1.7-6.2,2.4-11.6,2.4
		c-5.4,0-22.5,0.3-33.5-0.2c0,0-3.6,0.3-6.3-0.1c-6.3,0.7-27.9,0.6-39,0.1c0,0-12.3,1-8.8-3.4c1.2-1.5,5.1-2.2,9.6-2.3
		C16.6,605.8,35.1,605.7,46.2,606.1z"/>
	<g>
		<g id="XMLID_853_">
			<path class="st0" d="M88.4,649.8c0,0,0.4-0.9-1.5-1c0,0-32.5-1.1-72.4,0c-1.9,0.1-1.5,1-1.5,1s-0.3,12.1,0.7,20.6
				c0,0-0.4,0.9,1.5,1c0,0,30.9,0.8,71.1,0c1.9,0,1.5-1,1.5-1L88.4,649.8z"/>
			<g>
				<path class="st1" d="M89.9,650.2c1.2-3.5-5.7-3-7.6-3c-6.4-0.2-12.8-0.3-19.3-0.3c-10.1-0.1-20.1-0.1-30.2,0.1
					c-5.9,0.1-11.9,0.1-17.8,0.4c-1,0-1.9,0.1-2.7,0.7c-0.8,0.7-0.6,1.2-0.8,2.1c0,0.2,0-0.6,0,0c0,0.5,0,0.9,0,1.4
					c-0.1,3.8,0,7.6,0.1,11.3c0.1,2.3,0.1,4.6,0.5,6.9c0.1,0.4,0,1,0.2,1.5c0.3,0.9,1.1,1.4,2,1.6c0.9,0.2,1.9,0.1,2.8,0.1
					c1.9,0,3.8,0.1,5.7,0.1c17.6,0.3,35.2,0.3,52.8,0c3,0,6-0.1,9-0.1c1.7,0,4.7,0.1,4.8-2.3c0-0.1,0-0.9-0.1-0.4c0,0.5,0,0.1,0,0.1
					c0-0.2,0-0.5,0-0.7c0-0.9,0.1-1.9,0.1-2.8c0.2-5.3,0.3-10.6,0.5-15.9c0-0.4,0-0.8,0-1.2c0.1-1.9-2.9-1.9-3,0
					c-0.1,4-0.3,8-0.4,11.9c-0.1,2.4-0.2,4.7-0.2,7.1c0,0.5-0.1,1-0.1,1.6c0,0.8-0.1,0.3,0.1,0c0.6-1.9,0.5-0.3,0.2-0.5
					c-0.1-0.1-0.7,0-0.8,0c-0.8,0-1.7,0-2.5,0c-18.2,0.3-36.3,0.4-54.5,0.2c-4.1,0-8.3-0.1-12.4-0.2c-0.3,0-0.7,0-1,0
					c-0.1,0-0.1,0-0.2,0c0,0-0.4-0.1-0.4,0c0.2-0.2,0.4,1.3,0.3,1c0,0,0-0.4,0-0.3c0.1-2.1-0.4-4.3-0.5-6.4
					c-0.1-2.1-0.2-4.2-0.2-6.2c0-2.6,0.1-5.3,0-8c0-0.2,0-0.6-0.1-0.7c0.2,0.1-0.2,1.2-0.3,1c0,0,0.8,0.1,0.4,0
					c0.6,0.2,1.8,0,2.5-0.1c2.8-0.1,5.5-0.1,8.3-0.2c10-0.2,20.1-0.3,30.1-0.2c10.4,0,20.9,0,31.4,0.5c0.1,0,0.1,0,0.2,0
					c0.1,0,0.3,0.1,0.4,0c-0.3,0.3-0.3-1-0.3-1C86.4,651.3,89.3,652,89.9,650.2z"/>
			</g>
		</g>
		<g id="XMLID_852_">
			<path class="st0" d="M72.7,647.5c0,0,10.2,27.4-15.7,34.9s-31-15.5-30.9-18.7c0.2-3.1,2.4-29.9,19.6-27.7S69.8,642.3,72.7,647.5z
				"/>
			<g>
				<path class="st1" d="M71.3,647.9c2.3,6.1,2.8,13.4,0.6,19.7c-1.9,5.7-6.3,9.8-11.7,12.1c-6.2,2.7-13.9,3.9-20.3,1.4
					c-4.3-1.7-7.6-5.1-9.7-9.1c-0.8-1.6-1.4-3.1-1.9-4.9c-0.2-0.7-0.3-1.3-0.5-2c0-0.1,0-0.3-0.1-0.4c0,0.3,0,0.2,0,0
					c0-0.2,0-0.4,0-0.6c0-3.2,0.6-6.1,1.4-9.2c1.1-4.8,2.9-10,6.4-13.7c1.7-1.8,3.8-3,6.2-3.5c1.4-0.3,2.8-0.2,4.2-0.1
					c2.5,0.3,5.1,0.7,7.6,1.2c5.7,1.2,12.4,2.8,16.5,7.3c0.6,0.7,1.1,1.3,1.6,2.2c1,1.7,3.6,0.2,2.6-1.5c-2.9-5-8.3-7.6-13.6-9.2
					c-4.6-1.4-9.4-2.3-14.2-2.9c-3.1-0.4-6.2-0.1-9,1.4c-5.1,2.7-8,8.2-9.8,13.4c-1.5,4.3-2.3,8.8-2.7,13.3
					c-0.2,2.7,0.5,5.3,1.4,7.7c1.8,4.6,4.7,8.7,8.8,11.4c5.8,3.9,13,4.2,19.6,2.7c7.1-1.6,14-5,18-11.4c4.7-7.5,4.5-17.5,1.8-25.7
					c-0.1-0.2-0.1-0.3-0.2-0.5C73.5,645.3,70.6,646.1,71.3,647.9z"/>
			</g>
		</g>
		<g id="XMLID_851_">
			<path class="st0" d="M64.6,672c0,0-16,14.3-28.1-1.4s2.3-25.4,4.5-26.1c2.2-0.7,21.1-6.4,24.2,6C68.3,662.8,67.4,668.5,64.6,672z
				"/>
			<g>
				<path class="st1" d="M63.5,670.9c-0.1,0.1-0.2,0.2-0.3,0.3c-0.1,0.1-0.2,0.2-0.3,0.3c-0.3,0.2,0.3-0.2,0,0
					c-0.1,0.1-0.2,0.2-0.3,0.2c-1.1,0.8-2.2,1.5-3.3,2.1c-3.2,1.7-6.8,2.9-10.5,2.6c-5.2-0.4-9.3-4-12.1-8.2
					c-2.6-3.9-4.3-8.5-2.9-13.2c0.9-3,2.9-5.6,5.3-7.6c0.6-0.5,1.5-1.1,2.3-1.5c0.3-0.2,0,0,0.1,0c0.1,0,0.2-0.1,0.3-0.1
					c0.4-0.1,0.8-0.2,1.2-0.3c2.7-0.7,5.5-1.3,8.3-1.4c3.2-0.2,6.8,0.1,9.5,2c1.5,1.1,2.5,2.6,3,4.4c0.9,3.1,1.5,6.5,1.8,9.8
					C65.8,663.7,65.8,668.1,63.5,670.9c-1.2,1.5,0.9,3.6,2.1,2.1c2.4-3,3.1-6.8,3-10.6c-0.1-3.1-0.6-6.2-1.2-9.2
					c-0.5-2.5-1-5.1-2.6-7.2c-4.7-6.4-14.3-5.4-21-3.9c-1.9,0.4-3.7,0.9-5.3,2c-2.8,1.9-5.2,4.6-6.7,7.6c-2.1,4.5-1.9,9.4,0.1,13.9
					c2.4,5.4,6.8,10.5,12.4,12.7c7.2,2.7,15.8-0.4,21.4-5.4C67.1,671.7,65,669.6,63.5,670.9z"/>
			</g>
		</g>
	</g>
	<g>
		<g id="XMLID_854_">
			<path class="st0" d="M88,584.6c0,0,0.3,0.5-0.6,0.5c-28.3,0.6-73.4,0-73.4,0c-0.9-0.1-0.6-0.5-0.6-0.5c-1.2-16,0-45.9,0-45.9
				s-0.3-0.5,0.6-0.5c44-1.2,73.9,0,73.9,0c0.9,0.1,0.6,0.5,0.6,0.5S88.6,563.8,88,584.6z"/>
			<g>
				<path class="st1" d="M86.5,585c-0.5-1.3,1.6-1.2,0.5-1.4c-0.2,0-0.5,0-0.8,0c-0.6,0-1.2,0-1.8,0c-1.2,0-2.4,0-3.6,0.1
					c-2.4,0-4.8,0.1-7.3,0.1c-5.2,0-10.4,0.1-15.5,0.1c-9.4,0-18.8,0-28.2-0.1c-3.4,0-6.7-0.1-10.1-0.1c-1.7,0-3.6-0.2-5.3-0.1
					c-0.1,0-0.3,0-0.4,0c0,0,0,0-0.1,0c0.1,0,0.7,2.9,0.9,1c0-0.3,0-0.6-0.1-0.8c-0.1-2.1-0.2-4.3-0.3-6.4
					c-0.1-4.7-0.2-9.5-0.2-14.2c0-7.5,0.2-15.1,0.4-22.6c0-0.6,0.1-1.2,0.1-1.8c0,0,0-0.1,0-0.1c0-0.2,0-0.3-0.1-0.4
					c-0.3,0.5-0.5,0.9-0.8,1.4c0.2,0,0.3,0,0.5,0c0.7,0.2,1.7,0,2.5-0.1c1,0,1.9,0,2.9-0.1c6.5-0.2,13-0.3,19.5-0.3
					c15.5-0.2,31-0.1,46.6,0.4c0.5,0,1,0.1,1.5,0.1c0.1,0,0.3,0,0.3,0c-0.1,0-0.6-2.9-0.8-1c-0.2,1.9,0,3.9,0,5.8
					c0,10.4-0.1,20.9-0.3,31.3c-0.1,2.9-0.1,5.9-0.2,8.8c-0.1,1.9,2.9,1.9,3,0c0.3-11.8,0.4-23.7,0.5-35.6c0-3.2,0-6.4,0-9.6
					c0-0.2,0.1-0.5,0-0.7c0,0,0,0,0-0.1c0-0.1,0.9-8.8-0.2,0.7c0.1-0.7,0.4-1.1,0-1.8c-0.5-0.8-1.4-0.9-2.2-1
					c-4.3-0.2-8.7-0.2-13-0.3c-9.6-0.2-19.3-0.2-28.9-0.2c-6.5,0-13,0.1-19.6,0.2c-3.7,0.1-7.4,0.2-11.1,0.3c-1.2,0-2.7,0-3.1,1.4
					c0,0.2-0.1,1.6,0,0.7c0,0,0,0.1,0,0.1c-0.2,0.6-0.1,1.5-0.1,2.2c0,1.4-0.1,2.8-0.1,4.1c-0.1,4.2-0.2,8.5-0.3,12.7
					c-0.1,5-0.1,10.1,0,15.1c0,2.3,0.1,4.7,0.2,7c0,1.1,0.1,2.1,0.2,3.2c0,0.2,0,0.6,0.1,0.8c0.1,0.5,0.2,0,0.2-0.2
					c0,0-0.2,0.8-0.2,0.8c0,0.4,0.1,0.7,0.3,1c0.9,1.3,3.1,0.9,4.5,0.9c2.8,0,5.5,0.1,8.3,0.1c20,0.2,39.9,0.3,59.9,0
					c1.1,0,2.4,0.2,3.5-0.2c0.9-0.3,1.5-1.3,1.2-2.3C88.7,582.4,85.8,583.2,86.5,585z"/>
			</g>
		</g>
		<g id="XMLID_850_">
			<path class="st0" d="M79.5,580.2c0,0,2.6,0.2,2.7-0.7c0,0,3.1-15.8,0-35.4c-0.1-0.9-2.7-0.7-2.7-0.7s-34-0.2-57.8,0.3
				c0,0-2.6-0.2-2.7,0.7c0,0-2.1,15.1,0,34.7c0.1,0.9,2.7,0.7,2.7,0.7L79.5,580.2z"/>
			<g>
				<path class="st1" d="M79.5,581.7c1.5,0.1,3.7-0.1,4.2-1.8c0.1-0.5,0.2-1,0.2-1.5c0.5-3.5,0.9-7.1,1-10.6c0.3-6,0.1-12-0.5-17.9
					c-0.2-1.6-0.4-3.1-0.6-4.7c-0.2-1.3-0.3-2.5-1.7-3c-0.9-0.3-1.9-0.3-2.8-0.3c-16.2,0.2-32.4,0-48.5,0.2c-2.6,0-5.2,0.1-7.8,0.1
					c-1.5,0-3.7-0.3-4.9,0.9c-0.6,0.6-0.6,1.4-0.7,2.2c-0.1,1.1-0.2,2.3-0.3,3.4c-0.4,4.4-0.5,8.9-0.5,13.4c0,3.1,0.1,6.3,0.3,9.4
					c0.1,1.6,0.2,3.1,0.3,4.7c0.1,1.3-0.1,3.3,0.9,4.3c1.1,1.2,3,0.9,4.5,0.9c1.6,0,3.3,0,4.9,0c6.1,0,12.2,0.1,18.3,0.1
					c11.1,0.1,22.1,0.1,33.2,0.2C79.1,581.7,79.3,581.7,79.5,581.7c1.9,0,1.9-3,0-3c-8.7,0-17.5-0.1-26.2-0.1
					c-10.3-0.1-20.7-0.1-31-0.2c-0.2,0-0.4,0-0.7,0c-0.4,0-0.8,0-1.2,0c0,0-0.5-0.1-0.5-0.1c0.1,0.1,0.1,0.1,0.2,0.2
					c0.3,0.3,0.3,0.2,0.2-0.3c0.1-0.9-0.2-2-0.3-2.9c-0.5-5.8-0.6-11.5-0.5-17.3c0.1-3.6,0.3-7.2,0.6-10.8c0.1-0.8,0.2-1.6,0.3-2.5
					c0-0.3,0.1-0.1,0,0.2c0,0-0.6,0.3-0.3,0.4c0.2,0.1,1.3-0.1,1.6-0.1c10.1,0,20.3-0.3,30.4-0.3c7.8,0,15.6,0,23.5,0
					c1.3,0,2.6,0,3.9,0c0.4,0,0.8,0.1,1.2,0c0,0,0.5,0.1,0.5,0.1c-0.1-0.2-0.3-0.3-0.4-0.5c0,0.2,0.1,0.5,0.1,0.7
					c0.1,0.9,0.3,1.8,0.4,2.7c0.4,3.1,0.6,6.2,0.8,9.3c0.2,4.9,0.1,9.8-0.3,14.6c-0.1,1.5-0.3,3.2-0.5,4.6c-0.1,0.6-0.4,1.6-0.3,2.2
					c0,0-0.1,0.2,0,0.2c-0.2-0.2,0.8-0.3,0.2-0.4c-0.4-0.1-1,0.1-1.5,0.1C77.5,578.6,77.5,581.6,79.5,581.7z"/>
			</g>
		</g>
	</g>
	<g>
		<g id="XMLID_849_">
			<path class="st0" d="M88,378.4c0,0,0.3,0.5-0.6,0.5c-28.3,0.6-73.4,0-73.4,0c-0.9-0.1-0.6-0.5-0.6-0.5c-1.2-16,0-45.9,0-45.9
				s-0.3-0.5,0.6-0.5c44-1.2,73.9,0,73.9,0c0.9,0.1,0.6,0.5,0.6,0.5S88.6,357.6,88,378.4z"/>
			<g>
				<path class="st1" d="M86.5,378.7c-0.5-1.3,1.6-1.2,0.5-1.4c-0.2,0-0.5,0-0.8,0c-0.6,0-1.2,0-1.8,0c-1.2,0-2.4,0-3.6,0.1
					c-2.4,0-4.8,0.1-7.3,0.1c-5.2,0-10.4,0.1-15.5,0.1c-9.4,0-18.8,0-28.2-0.1c-3.4,0-6.7-0.1-10.1-0.1c-1.7,0-3.6-0.2-5.3-0.1
					c-0.1,0-0.3,0-0.4,0c0,0,0,0-0.1,0c0.1,0,0.7,2.9,0.9,1c0-0.3,0-0.6-0.1-0.8c-0.1-2.1-0.2-4.3-0.3-6.4
					c-0.1-4.7-0.2-9.5-0.2-14.2c0-7.5,0.2-15.1,0.4-22.6c0-0.6,0.1-1.2,0.1-1.8c0,0,0-0.1,0-0.1c0-0.2,0-0.3-0.1-0.4
					c-0.3,0.5-0.5,0.9-0.8,1.4c0.2,0,0.3,0,0.5,0c0.7,0.2,1.7,0,2.5-0.1c1,0,1.9,0,2.9-0.1c6.5-0.2,13-0.3,19.5-0.3
					c15.5-0.2,31-0.1,46.6,0.4c0.5,0,1,0.1,1.5,0.1c0.1,0,0.3,0,0.3,0c-0.1,0-0.6-2.9-0.8-1c-0.2,1.9,0,3.9,0,5.8
					c0,10.4-0.1,20.9-0.3,31.3c-0.1,2.9-0.1,5.9-0.2,8.8c-0.1,1.9,2.9,1.9,3,0c0.3-11.8,0.4-23.7,0.5-35.6c0-3.2,0-6.4,0-9.6
					c0-0.2,0.1-0.5,0-0.7c0,0,0,0,0-0.1c0-0.1,0.9-8.8-0.2,0.7c0.1-0.7,0.4-1.1,0-1.8c-0.5-0.8-1.4-0.9-2.2-1
					c-4.3-0.2-8.7-0.2-13-0.3c-9.6-0.2-19.3-0.2-28.9-0.2c-6.5,0-13,0.1-19.6,0.2c-3.7,0.1-7.4,0.2-11.1,0.3c-1.2,0-2.7,0-3.1,1.4
					c0,0.2-0.1,1.6,0,0.7c0,0,0,0.1,0,0.1c-0.2,0.6-0.1,1.5-0.1,2.2c0,1.4-0.1,2.8-0.1,4.1c-0.1,4.2-0.2,8.5-0.3,12.7
					c-0.1,5-0.1,10.1,0,15.1c0,2.3,0.1,4.7,0.2,7c0,1.1,0.1,2.1,0.2,3.2c0,0.2,0,0.6,0.1,0.8c0.1,0.5,0.2,0,0.2-0.2
					c0,0-0.2,0.8-0.2,0.8c0,0.4,0.1,0.7,0.3,1c0.9,1.3,3.1,0.9,4.5,0.9c2.8,0,5.5,0.1,8.3,0.1c20,0.2,39.9,0.3,59.9,0
					c1.1,0,2.4,0.2,3.5-0.2c0.9-0.3,1.5-1.3,1.2-2.3C88.7,376.2,85.8,377,86.5,378.7z"/>
			</g>
		</g>
		<g id="XMLID_848_">
			<path class="st0" d="M83,339.3c0,0,0.3-1.5-1.1-1.5c0,0-23.8-1.7-53.1,0c-1.4,0.1-1.1,1.5-1.1,1.5s-0.3,19,0.5,32.3
				c0,0-0.3,1.5,1.1,1.5c0,0,22.7,1.2,52.1,0c1.4-0.1,1.1-1.5,1.1-1.5L83,339.3z"/>
			<g>
				<path class="st1" d="M84.4,339.7c0.2-1.4-0.3-2.9-1.9-3.3c-0.4-0.1-0.9-0.1-1.3-0.1c-1.7-0.1-3.5-0.2-5.2-0.3
					c-7.7-0.3-15.4-0.5-23.2-0.4c-5.5,0-10.9,0.2-16.3,0.4c-1.4,0.1-2.7,0.1-4.1,0.2c-1.4,0.1-3-0.1-4.4,0.3
					c-0.8,0.2-1.5,0.9-1.8,1.7c-0.1,0.3-0.1,0.7-0.1,1c0,0.4,0,0.8,0,0.2c-0.1,5.7-0.1,11.3,0,17c0.1,4.5,0.2,9,0.4,13.5
					c0,0.8,0.1,1.4,0.1,2.1c0,0.8,0.3,1.5,0.9,2c0.6,0.5,1.3,0.6,2.1,0.7c4.5,0.3,9,0.3,13.5,0.4c9.5,0.2,18.9,0.1,28.4-0.1
					c2.9-0.1,5.8-0.2,8.7-0.3c1,0,2.2,0,3-0.7c0.6-0.5,0.9-1.4,0.9-2.2c0-0.2,0-1,0-0.2c0,0,0,0,0-0.1c0-0.2,0-0.3,0-0.5
					c0-0.6,0-1.3,0-1.9c0.1-9.7,0.3-19.4,0.4-29.1c0-0.3,0-0.5,0-0.8c0-1.9-3-1.9-3,0c-0.1,8.3-0.3,16.7-0.4,25
					c0,1.9-0.1,3.8-0.1,5.7c0,0.5,0,0.9,0,1.4c0,0.1,0,0.2,0,0.2c0,0.6,0.1,0.1,0,0.2c-0.3,0.1,0.4,0.2,0.4-0.1
					c0-0.1-14.7,0.4-16.1,0.4c-4.6,0.1-9.2,0.1-13.7,0.1c-6.2,0-12.4-0.1-18.7-0.4c-0.8,0-1.5-0.1-2.3-0.1c-0.3,0-0.9-0.2-1.2-0.1
					c0,0-0.2,0-0.2,0c0,0.1,0.5,0.3,0.4,0.2c-0.1,0,0.1-0.4,0,0c-0.1,0.4,0-0.4,0-0.6c0-2.1-0.2-4.1-0.3-6.2
					c-0.2-7.5-0.3-14.9-0.2-22.4c0-0.9,0-1.8,0-2.6c0-0.2,0-0.4,0-0.6c0,0,0-0.1,0-0.1c0-1,0.1,0.3,0-0.4c0,0.1-0.3,0.3-0.3,0.4
					c0,0.1,0.8,0,0.9-0.1c0.7,0,1.3-0.1,2-0.1c1.5-0.1,2.9-0.1,4.4-0.2c2.6-0.1,5.3-0.2,7.9-0.3c8.5-0.2,17-0.2,25.6,0.1
					c2.7,0.1,5.4,0.2,8.2,0.3c0.8,0,1.7,0.1,2.5,0.1c0.4,0,1,0.2,1.4,0.1c0,0,0.2,0,0.2,0c0-0.1-0.2-0.1-0.3-0.2
					c-0.1-0.1-0.1,0.5,0-0.2C81.2,340.8,84.1,341.6,84.4,339.7z"/>
			</g>
		</g>
		<g id="XMLID_847_">
			<path class="st0" d="M22.3,354.1c0,0,1.2,3.1-1.8,4c-3,0.9-3.6-1.8-3.5-2.1s0.3-3.4,2.2-3.2S22,353.5,22.3,354.1z"/>
			<g>
				<path class="st1" d="M20.9,354.4c0.1,0.3,0.2,0.5,0.2,0.8c0-0.1,0-0.3-0.1-0.4c0,0.3,0,0.7,0,1c0-0.1,0-0.3,0.1-0.4
					c0,0.1,0,0.2-0.1,0.4c0,0.1,0,0.1-0.1,0.2c0,0.1-0.2,0.3,0.1-0.1c-0.1,0.1-0.1,0.2-0.2,0.3c-0.2,0.3,0.2-0.3,0.1-0.1
					c0,0-0.1,0.1-0.1,0.1c0,0-0.1,0.1-0.1,0.1c-0.3,0.2,0.3-0.2,0.1-0.1c-0.1,0.1-0.3,0.2-0.4,0.2c-0.2,0.1,0.4-0.1,0,0
					c-0.1,0-0.2,0.1-0.3,0.1c-0.2,0.1-0.4,0.1-0.6,0.1c0.1,0,0.3,0,0.4-0.1c-0.3,0-0.5,0-0.8,0c0.1,0,0.3,0,0.4,0.1
					c-0.2,0-0.3-0.1-0.5-0.1c-0.2-0.1,0.2,0.1,0.2,0.1c0,0-0.1,0-0.1-0.1c-0.1,0-0.1-0.1-0.2-0.1c-0.3-0.2,0.3,0.3,0.1,0.1
					c-0.1,0-0.1-0.1-0.2-0.2c0,0-0.1-0.1-0.1-0.1c-0.1-0.1,0.3,0.4,0.1,0.2c0,0,0-0.1-0.1-0.1c-0.1-0.1-0.1-0.2-0.2-0.3
					c0-0.1-0.1-0.3,0,0c0.1,0.3,0,0.1,0,0c-0.1-0.2-0.1-0.3-0.1-0.5c0,0.1,0,0.3,0.1,0.4c0-0.2,0-0.4,0-0.6c0,0.1,0,0.3-0.1,0.4
					c0-0.2,0.1-0.5,0.1-0.7c0-0.1,0.1-0.3,0.1-0.4c0-0.1,0-0.1,0.1-0.2c0.1-0.2-0.2,0.4,0,0.1c0.1-0.1,0.1-0.2,0.2-0.4
					c0,0,0-0.1,0.1-0.1c0.1-0.1-0.2,0.2-0.1,0.2c0,0,0.1-0.1,0.1-0.2c0,0,0.1-0.1,0.1-0.1c0.1-0.1-0.2,0.1-0.2,0.1
					c0.1,0,0.1-0.1,0.2-0.1c0.2-0.1-0.4,0.1-0.1,0.1c0.1,0,0.2,0,0.2-0.1c-0.1,0-0.3,0-0.4,0.1c0.2,0,0.4,0,0.5,0
					c-0.1,0-0.3,0-0.4-0.1c0.4,0.1,0.8,0.1,1.2,0.2c0.1,0,0.3,0.1,0.4,0.1c0.1,0,0.2,0.1,0.2,0.1c0.2,0.1-0.4-0.2-0.1-0.1
					c0.1,0,0.2,0.1,0.3,0.2c0,0,0.1,0.1,0.1,0.1c0.2,0.1-0.3-0.3-0.2-0.1c0.1,0.1,0.1,0.1,0.2,0.2c0.1,0.1-0.2-0.3-0.1-0.2
					c0,0,0.1,0.1,0.1,0.1c0.4,0.7,1.4,1,2.1,0.5c0.7-0.4,1-1.3,0.5-2.1c-0.5-0.9-1.4-1.4-2.3-1.7c-0.6-0.2-1.3-0.3-2-0.4
					c-0.6-0.1-1.2,0.1-1.7,0.3c-1.5,0.8-2,2.7-2.1,4.2c0,0.4,0.1,0.9,0.2,1.3c0.3,0.9,0.8,1.6,1.6,2.1c1,0.6,2.2,0.7,3.2,0.4
					c1.2-0.2,2.2-0.9,2.8-1.9c0.5-0.8,0.7-1.8,0.6-2.7c0-0.5-0.1-1-0.3-1.4c-0.1-0.4-0.3-0.7-0.7-0.9c-0.3-0.2-0.8-0.3-1.2-0.2
					C21.2,352.8,20.6,353.7,20.9,354.4z"/>
			</g>
		</g>
	</g>
	<path class="st2" d="M46.2,301.8c0,0,3.6-0.3,6.3,0.1c6.3-0.7,27.9-0.6,39-0.1c0,0,12.3-1,8.8,3.4c-1.3,1.7-6.2,2.4-11.6,2.4
		c-5.4,0-22.5,0.3-33.5-0.2c0,0-3.6,0.3-6.3-0.1c-6.3,0.7-27.9,0.6-39,0.1c0,0-12.3,1-8.8-3.4c1.2-1.5,5.1-2.2,9.6-2.3
		C16.6,301.5,35.1,301.4,46.2,301.8z"/>
	<path class="st2" d="M46.2,402.5c0,0,3.6-0.3,6.3,0.1c6.3-0.7,27.9-0.6,39-0.1c0,0,12.3-1,8.8,3.4c-1.3,1.7-6.2,2.4-11.6,2.4
		c-5.4,0-22.5,0.3-33.5-0.2c0,0-3.6,0.3-6.3-0.1c-6.3,0.7-27.9,0.6-39,0.1c0,0-12.3,1-8.8-3.4c1.2-1.5,5.1-2.2,9.6-2.3
		C16.6,402.2,35.1,402.1,46.2,402.5z"/>
	<path class="st2" d="M46.2,199c0,0,3.6-0.3,6.3,0.1c6.3-0.7,27.9-0.6,39-0.1c0,0,12.3-1,8.8,3.4c-1.3,1.7-6.2,2.4-11.6,2.4
		c-5.4,0-22.5,0.3-33.5-0.2c0,0-3.6,0.3-6.3-0.1c-6.3,0.7-27.9,0.6-39,0.1c0,0-12.3,1-8.8-3.4c1.2-1.5,5.1-2.2,9.6-2.3
		C16.6,198.6,35.1,198.5,46.2,199z"/>
	<path class="st2" d="M131.7,1.7c1.5,2.4,2.2,10.1,2.3,19.3c0.2,11.7,0.3,48.9-0.1,71c0,0,0.3,7.2-0.1,12.7
		c0.5,8.9,0.6,33.4,0.4,54.8c0,9.5-0.1,19.2-0.2,27.6c0,1.8,0,3.8-0.1,5.9c0,1.2,0.2,7.5-0.1,12.4c0.5,8.8,0.6,33,0.4,54.3
		c0,10.3-0.1,21-0.2,30.1c0,0.7,0,1.5,0,2.3c0,1.2,0,2.4-0.1,3.5c0,0,0.3,7.2-0.1,12.7c0.5,8.9,0.6,33.4,0.4,54.8
		c0,9.5-0.1,19.2-0.2,27.6c0,1.8,0,3.8-0.1,5.9c0,1.2,0.2,7.5-0.1,12.4c0.5,8.8,0.6,33,0.4,54.3c0,10.3-0.1,21-0.2,30.1
		c0,0.7,0,1.5,0,2.3c0,1.2,0,2.4-0.1,3.5c0,0,0.3,7.2-0.1,12.7c0.5,8.9,0.6,33.4,0.4,54.8c0,9.5-0.1,19.2-0.2,27.6
		c0,1.3,0,2.7,0,4.2c0,1.3,0.1,3.2,0,5.3c0,2.1,0,4.8-0.1,7.3c0.3,7,0.4,20.1,0.4,34.3c0,7.8,0,16.1-0.1,23.9
		c0,7.8-0.1,15.6-0.2,22.5c0,0.8,0,1.7,0,2.7c0,1.4,0,3.2,0,4.9c0.1,2.5,0.1,7-0.2,10.7c0.7,12.6,0.6,56,0.1,78.1
		c0,0,1,24.6-3.4,17.7c-1.7-2.7-2.4-12.4-2.4-23.2c0-10.8-0.3-45,0.2-67.1c0,0-0.3-7.1,0.1-12.7c-0.6-9.7-0.6-37.9-0.4-60.4
		c0-7.5,0.1-15,0.2-21.9c0-1.3,0-2.8,0-4.3c0-1.3-0.1-3.3,0-5.4c0-2.1,0-4.8,0.1-7.3c-0.3-6.9-0.4-19.9-0.4-33.8
		c0-9.7,0-20.1,0.1-29.5c0-5.9,0.1-11.8,0.1-17.2c0-0.8,0-1.8,0-2.7c0-1.5,0-3.2,0-5c-0.1-2.5-0.1-7,0.2-10.7
		c-0.6-9.7-0.6-37.6-0.4-60.1c0-8.2,0.1-16.6,0.2-24.1c0-0.8,0-1.7,0-2.5c0-1.2,0-2.4,0.1-3.5c0,0-0.3-7.1,0.1-12.7
		c-0.6-9.7-0.6-37.9-0.4-60.4c0-7.5,0.1-15,0.2-21.9c0-1.8,0-3.9,0.1-6c0-1.2-0.2-7.5,0.1-12.4c-0.6-9.7-0.6-37.6-0.4-60.1
		c0-8.2,0.1-16.6,0.2-24.1c0-0.8,0-1.7,0-2.5c0-1.2,0-2.4,0.1-3.5c0,0-0.3-7.1,0.1-12.7c-0.6-9.7-0.6-37.9-0.4-60.4
		c0-7.5,0.1-15,0.2-21.9c0-1.8,0-3.9,0.1-6c0-1.2-0.2-7.5,0.1-12.4c-0.7-12.5-0.6-56-0.1-78.1C128.3,19.4,127.2-5.2,131.7,1.7z"/>
</g>
</svg>
