<?xml version="1.0" encoding="utf-8"?>
<!-- Generator: Adobe Illustrator 23.1.1, SVG Export Plug-In . SVG Version: 6.00 Build 0)  -->
<svg version="1.1" id="Layer_1" xmlns="http://www.w3.org/2000/svg" xmlns:xlink="http://www.w3.org/1999/xlink" x="0px" y="0px"
	 viewBox="0 0 184.5 53.5" style="enable-background:new 0 0 184.5 53.5;" xml:space="preserve">
<style type="text/css">
	.st0{fill:none;}
	.st1{fill:#FFFFFF;}
	.st2{fill:#2C2C2C;}
</style>
<g>
	<path class="st0" d="M62.8,35.8c-0.1-0.2-0.1-0.4-0.2-0.6c-0.1-0.1-0.1-0.2-0.2-0.3c0-0.1-0.1-0.2-0.2-0.3
		c-0.1-0.1-0.1-0.1-0.2-0.2c-0.1-0.2-0.2-0.5-0.3-0.7c-0.2-0.3-0.4-0.6-0.7-0.8c-0.1-0.1-0.2-0.1-0.3-0.1c-0.1,0-0.2,0-0.3-0.1
		c-0.1,0-0.2,0-0.3,0c-0.1,0-0.2,0-0.3,0.1c-0.1-0.2-0.2-0.4-0.4-0.6c-0.4-0.3-0.9-0.4-1.3,0c-0.1,0.1-0.2,0.1-0.2,0.2
		c-0.1,0.1-0.2,0.2-0.2,0.4c0,0,0,0,0,0c-0.1,0-0.2,0.1-0.2,0.1c0,0-0.1,0-0.1,0c-0.1,0-0.2,0-0.3,0c-0.1,0-0.2,0.1-0.3,0.1
		c-0.1,0.1-0.3,0.2-0.4,0.3c0,0,0,0,0,0c0,0,0,0,0,0c-0.1,0.1-0.3,0.1-0.4,0.2c-0.1,0.1-0.2,0.2-0.3,0.3c-0.1,0.1-0.2,0.2-0.3,0.4
		c-0.1,0.2-0.2,0.4-0.3,0.6c0,0.1,0,0.2-0.1,0.2c0,0,0,0,0,0c0,0,0,0.1,0,0.1c0,0,0,0,0,0c0,0.1-0.1,0.3-0.1,0.4
		c0,0.2-0.1,0.4-0.1,0.7c0,0,0,0,0,0c0,0,0,0,0,0c0,0.4,0,0.7,0,1.1c0,0.3,0.1,0.7,0.2,1c0.1,0.2,0.2,0.4,0.3,0.6
		c0.1,0.1,0.1,0.2,0.2,0.4c0.1,0.2,0.2,0.3,0.4,0.4c0.1,0.1,0.3,0.3,0.5,0.4c0.2,0.2,0.5,0.2,0.8,0.3c0.1,0,0.2,0,0.3,0
		c0.2,0,0.4,0,0.5,0c0.2,0,0.3-0.1,0.5-0.2c0.2,0,0.4,0,0.6-0.1c0,0,0.1,0,0.1,0c0.1,0,0.2,0,0.2,0c0.2,0,0.4,0,0.6,0
		c0.1,0,0.1,0,0.2,0c0,0,0,0,0,0c0.1,0,0.3,0,0.4,0c0.1,0,0.2-0.1,0.3-0.1c0.1,0,0.1-0.1,0.2-0.1c0,0,0,0,0.1-0.1c0.1,0,0.1,0,0.2,0
		c0.1,0,0.2-0.1,0.3-0.1c0.1-0.1,0.2-0.2,0.4-0.3c0.1-0.1,0.1-0.2,0.2-0.2c0.1-0.1,0.2-0.3,0.3-0.5c0.1-0.2,0.2-0.4,0.2-0.6
		c0.1-0.2,0.1-0.4,0.2-0.5c0-0.2,0.1-0.4,0.1-0.6c0-0.2,0-0.4,0-0.6C62.9,36.2,62.8,36,62.8,35.8z"/>
	<g>
		<path class="st1" d="M74.2,35.7c0-0.4-0.1-0.8-0.2-1.3c0-0.4,0-0.8-0.1-1.1c-0.1-1.2-0.4-2.4-0.8-3.5c-0.3-0.6-0.5-1.2-0.9-1.8
			c-0.4-0.6-0.8-1.2-1.3-1.7c-0.8-1-1.9-1.9-3-2.7c-1.1-0.8-2.3-1.3-3.5-1.7c-0.5-0.2-1.1-0.3-1.7-0.3c-0.8-0.1-1.5-0.2-2.3-0.2
			c0,0-0.1,0-0.1,0c-1.3,0-2.7,0.2-4,0.4c-2.3,0.3-4.5,1.1-6.4,2.5c-0.3,0.2-0.7,0.5-1,0.8c-0.1,0.1-0.2,0.2-0.4,0.3
			c-0.4,0.4-0.8,0.8-1.2,1.2c-0.4,0.5-0.9,1.1-1.2,1.7c-0.6,1-1.1,2.1-1.6,3.2c-0.6,1.4-0.8,3-1,4.5c-0.1,1.4,0,2.9,0.3,4.3
			c0.3,1.4,0.8,2.7,1.5,3.9c0.3,0.5,0.6,1.1,1,1.6c0.5,0.6,0.9,1.2,1.5,1.8c0.5,0.5,1.1,1,1.7,1.4c0.5,0.4,1.1,0.8,1.7,1.1
			c0.6,0.4,1.3,0.7,2,0.9c0.6,0.3,1.3,0.4,2,0.6c4,0.9,8.2-0.1,11.7-2.1c0.9-0.5,1.7-1.1,2.5-1.8c0.6-0.5,1.1-1.1,1.5-1.8
			c0.4-0.4,0.7-0.8,1-1.2c0.4-0.6,0.8-1.2,1-1.8c0.4-0.8,0.6-1.6,0.8-2.4C74.3,38.9,74.4,37.3,74.2,35.7z M62.9,37.7
			c0,0.2-0.1,0.4-0.2,0.5c-0.1,0.2-0.2,0.4-0.2,0.6c-0.1,0.2-0.2,0.3-0.3,0.5c-0.1,0.1-0.1,0.2-0.2,0.2c-0.1,0.1-0.2,0.2-0.4,0.3
			c-0.1,0.1-0.2,0.1-0.3,0.1c-0.1,0-0.1,0-0.2,0c0,0,0,0-0.1,0.1c-0.1,0.1-0.1,0.1-0.2,0.1c-0.1,0.1-0.2,0.1-0.3,0.1
			c-0.1,0-0.3,0-0.4,0c0,0,0,0,0,0c-0.1,0-0.1,0-0.2,0c-0.2,0-0.4,0-0.6,0c-0.1,0-0.2,0-0.2,0c0,0-0.1,0-0.1,0
			c-0.2,0.1-0.4,0.1-0.6,0.1c-0.2,0.1-0.3,0.1-0.5,0.2c-0.2,0-0.4,0-0.5,0c-0.1,0-0.2,0-0.3,0c-0.3-0.1-0.5-0.1-0.8-0.3
			c-0.2-0.1-0.3-0.2-0.5-0.4c-0.1-0.1-0.2-0.3-0.4-0.4c-0.1-0.1-0.1-0.2-0.2-0.4c-0.1-0.2-0.2-0.4-0.3-0.6c-0.1-0.3-0.2-0.7-0.2-1
			c0-0.3,0-0.7,0-1.1c0,0,0,0,0,0c0,0,0,0,0,0c0-0.2,0-0.4,0.1-0.7c0-0.1,0.1-0.3,0.1-0.4c0,0,0,0,0,0c0,0,0-0.1,0-0.1c0,0,0,0,0,0
			c0-0.1,0-0.2,0.1-0.2c0.1-0.2,0.2-0.5,0.3-0.6c0.1-0.1,0.2-0.3,0.3-0.4c0.1-0.1,0.2-0.2,0.3-0.3c0.1-0.1,0.3-0.2,0.4-0.2
			c0,0,0,0,0,0c0,0,0,0,0,0c0.1-0.1,0.2-0.3,0.4-0.3c0.1,0,0.2-0.1,0.3-0.1c0.1,0,0.2,0,0.3,0c0,0,0.1,0,0.1,0
			c0.1,0,0.2-0.1,0.2-0.1c0,0,0,0,0,0c0.1-0.1,0.1-0.3,0.2-0.4c0.1-0.1,0.1-0.2,0.2-0.2c0.4-0.3,0.9-0.3,1.3,0
			c0.2,0.1,0.3,0.3,0.4,0.6c0.1,0,0.2-0.1,0.3-0.1c0.1,0,0.2,0,0.3,0c0.1,0,0.2,0,0.3,0.1c0.1,0,0.2,0.1,0.3,0.1
			c0.3,0.2,0.5,0.4,0.7,0.8c0.1,0.2,0.3,0.4,0.3,0.7c0.1,0.1,0.1,0.1,0.2,0.2c0.1,0.1,0.1,0.2,0.2,0.3c0.1,0.1,0.1,0.2,0.2,0.3
			c0.1,0.2,0.2,0.4,0.2,0.6c0,0.2,0.1,0.4,0.1,0.6c0,0.2,0,0.4,0,0.6C62.9,37.3,62.9,37.5,62.9,37.7z"/>
		<g>
			<path class="st2" d="M75.7,35.7c-0.2-1.7-0.2-3.4-0.7-5c-0.5-1.7-1.3-3.3-2.4-4.8c-2-2.6-4.9-4.7-8.1-5.5
				c-3.3-0.8-6.9-0.5-10.1,0.3c-3.2,0.8-6.4,2.8-8.4,5.5c-4.4,5.8-5.1,14.3-0.7,20.4c4.1,5.7,11.2,8.1,18,6.2
				C70.9,50.7,76.5,43.8,75.7,35.7c-0.2-1.9-3.2-1.9-3,0c0.6,5.8-2.6,11-7.9,13.4c-5.2,2.4-11.5,1.8-15.6-2.4
				c-4.5-4.4-5-11.2-2.1-16.6c2.8-5.2,8.6-7.5,14.4-7.1c3.2,0.2,6,1.6,8.1,4c1,1.1,1.9,2.4,2.4,3.9c0.5,1.6,0.6,3.2,0.8,4.8
				C73,37.6,76,37.6,75.7,35.7z"/>
			<path class="st2" d="M61.4,37.3c0,0.2-0.1,0.3-0.1,0.5c0,0.1-0.2,0.4-0.1,0.2c-0.1,0.1-0.1,0.2-0.2,0.4c0,0-0.1,0.2-0.2,0.2
				c0.1,0,0.2-0.2,0-0.1c0,0-0.2,0.2,0,0c0.2-0.1-0.1,0,0,0c0.1,0,0.2,0,0.3,0c-0.1,0-0.2,0-0.3,0c-0.3,0-0.5,0.1-0.7,0.3
				c0,0-0.2,0.1-0.2,0.2c0,0,0.2-0.2,0.1-0.1c-0.1,0.1,0.2-0.1,0.2-0.1c0.1,0,0.6,0.1,0.1,0c-0.2,0-0.4,0-0.6,0c-0.2,0,0,0,0.1,0
				c-0.1,0-0.2,0-0.2,0c-0.1,0-0.2,0-0.2,0c-0.3,0,0,0,0.1,0c0-0.1-0.5,0-0.6,0c0,0-0.5,0.1-0.2,0.1c-0.1,0-0.3,0-0.4,0
				c-0.2,0-0.4,0.1-0.6,0.2c0.3-0.1-0.3,0-0.1,0c0.2,0-0.4,0-0.1,0c-0.1,0-0.1,0-0.2-0.1c0,0-0.3-0.1-0.1,0c0.2,0.1-0.3-0.3-0.1-0.1
				c-0.1,0-0.1-0.1-0.2-0.2c0,0-0.2-0.3-0.1-0.1c0.1,0.1,0-0.1,0-0.1c0-0.1-0.1-0.1-0.1-0.2c0-0.1-0.1-0.2-0.1-0.2
				c-0.1-0.2,0,0.2,0,0c0-0.2-0.1-0.3-0.1-0.5c0-0.1,0-0.1,0-0.2c0-0.2,0,0.2,0,0c0-0.3,0-0.7,0-1c0-0.1,0-0.2,0-0.3
				c0,0.3,0,0,0-0.1c0.1-0.2,0.1-0.5,0.2-0.7c0-0.1,0-0.1,0.1-0.2c0,0.1-0.1,0.2,0,0c0,0,0.1-0.1,0.1-0.1c0.1-0.1,0,0.1-0.1,0.1
				c0.1-0.1,0.1-0.1,0.2-0.2c0,0,0.2-0.1,0,0c-0.2,0.1,0,0,0.1,0c0.1-0.1,0.2-0.1,0.3-0.2c0.1-0.1,0.2-0.2,0.4-0.3
				c-0.2,0.2-0.1,0.1,0,0c-0.2,0.1-0.4,0-0.5,0.1c0.1,0,0.1,0,0.2,0c0.2,0,0.4,0,0.6,0c0.1,0,0.6-0.2,0.2-0.1
				c0.4-0.2,0.7-0.3,0.9-0.7c0-0.1,0.1-0.1,0.1-0.2c0.1-0.1-0.2,0.1,0,0c-0.1,0-0.1,0.1-0.2,0.1c-0.1,0-0.1,0,0,0c0.1,0,0.1,0,0,0
				c-0.1,0-0.2,0-0.3,0c-0.1,0-0.1,0,0,0c0.1,0,0.1,0,0,0c0,0-0.2-0.1-0.2-0.2c0,0,0.2,0.3,0.2,0.3c0.3,0.6,1.1,0.9,1.7,0.7
				c0.3-0.1,0-0.1-0.1,0c-0.1,0-0.1,0,0.1,0c-0.1,0-0.1,0-0.2-0.1c0.2,0.1-0.1-0.1,0,0c0.1,0.1,0.2,0.2,0.2,0.2
				c-0.1-0.1-0.1-0.1,0,0c0.1,0.1,0.1,0.2,0.2,0.3c0.1,0.1,0.1,0.2,0.2,0.3c0.1,0.1,0.2,0.2,0.2,0.3c-0.1-0.1-0.1-0.1,0-0.1
				c0.1,0.2,0.2,0.3,0.3,0.5c0.1,0.1,0.1,0.2,0.1,0.3c0.1,0.1,0-0.2,0,0.1c0,0.1,0.1,0.2,0.1,0.4c0.1,0.2,0-0.3,0,0.1
				c0,0.1,0,0.2,0,0.3C61.4,37.5,61.5,36.8,61.4,37.3c-0.1,0.8,0.2,1.7,1,1.8c0.7,0.2,1.7-0.2,1.8-1c0.3-1.6,0-3.2-1-4.5
				c-0.2-0.2-0.2-0.2,0-0.1c0-0.1-0.1-0.2-0.1-0.3C63,33.1,63,33,62.9,32.9c-0.2-0.3-0.5-0.6-0.8-0.9c-0.8-0.6-1.7-0.9-2.6-0.6
				c0.6,0.2,1.1,0.5,1.7,0.7c-0.4-0.9-1.4-1.6-2.4-1.6c-1,0-1.9,0.7-2.4,1.6c0.3-0.2,0.6-0.5,0.9-0.7c-0.2,0.1-0.4,0.2-0.6,0.2
				c0.4-0.1,0.8-0.1,1.2-0.2c-1-0.1-1.8,0.1-2.5,0.8c-0.3,0.3,0.5-0.3,0,0c-0.2,0.1-0.4,0.3-0.6,0.4c-0.3,0.2-0.5,0.5-0.7,0.8
				c-0.6,0.9-0.9,2.2-0.9,3.4c0,1.5,0.4,3,1.4,4.1c0.5,0.6,1.2,1,2,1.1c0.9,0.2,1.7,0,2.5-0.3c-0.3,0.1-0.5,0.1-0.8,0.2
				c0.3,0,0.7-0.1,1-0.2c-0.3,0-0.5,0-0.8,0c0.6,0.1,1.3,0.1,1.9,0c-0.3,0-0.5,0-0.8,0c0.9,0.2,1.7-0.1,2.4-0.7
				c-0.4,0.1-0.7,0.3-1.1,0.4c1.8-0.1,2.9-1.7,3.2-3.4c0.2-0.8-0.2-1.7-1-1.8C62.5,36.1,61.6,36.5,61.4,37.3z"/>
		</g>
	</g>
</g>
<g>
	<g>
		<path class="st1" d="M149.1,37.8c-0.1-0.4-0.2-0.9-0.4-1.3c-0.5-1.6-1.3-3.1-2.1-4.6c-0.1-0.2-0.2-0.3-0.3-0.5
			c-0.1-0.3-0.2-0.6-0.4-0.9c-0.8-1.7-1.9-3.2-3.2-4.5c-0.6-0.6-1.2-1.2-1.9-1.8c-0.8-0.6-1.6-1.2-2.5-1.7c-1.5-0.9-3.2-1.5-4.9-2
			c0,0,0,0-0.1,0c-0.3-0.1-0.6-0.2-0.9-0.2c-0.9-0.2-1.8-0.3-2.7-0.4c-0.9-0.1-1.8-0.1-2.7,0c-0.1,0-0.1,0-0.2,0c-0.1,0-0.2,0-0.3,0
			c0,0,0,0,0,0c0,0,0,0,0,0c-0.4,0-0.7,0-1.1,0c-0.3,0-0.6,0-0.9,0c-0.1,0-0.1,0-0.2,0c-0.5,0.1-1.1,0.1-1.6,0.2c0,0-0.1,0-0.1,0
			c-0.4,0-0.7,0-1.1,0c0,0,0,0,0,0c-0.4,0-0.8,0.1-1.2,0.2c-0.6,0.2-1.2,0.5-1.8,0.8c-0.2,0.1-0.5,0.3-0.7,0.5c0,0,0,0,0,0
			c-0.2,0.1-0.5,0.3-0.7,0.4c-0.9-0.6-1.9-1.2-2.9-1.6c-0.2-0.1-0.3-0.1-0.5-0.2c0,0,0,0,0,0c-0.3-0.3-0.6-0.6-0.9-0.8
			c-0.4-0.2-0.8-0.4-1.2-0.6c-0.9-0.3-1.8-0.5-2.7-0.5c0,0-0.1,0-0.1,0c-0.4,0-0.8,0-1.1,0c-1.2-0.2-2.4-0.2-3.7-0.2
			c-0.6-0.1-1.1-0.1-1.7-0.1c-0.6,0-1.1,0-1.7,0c-0.5,0-1.1,0-1.6,0.1c0,0,0,0,0,0c-0.3,0-0.5,0-0.8,0.1c-0.3,0-0.5,0.1-0.8,0.1
			c-0.4,0.1-0.8,0.1-1.2,0.2c-0.1,0-0.2,0-0.3,0.1c-0.2,0.1-0.4,0.2-0.6,0.4c-1.9,0.3-3.9,0.8-5.7,1.5c-1.2,0.5-2.4,1-3.4,1.8
			c-0.9,0.7-1.6,1.5-2.2,2.5c-0.3,0.5-0.5,1-0.7,1.6c-0.1,0.3-0.2,0.6-0.3,0.9c-0.3,0.7-0.6,1.5-0.8,2.2c0,0.2-0.1,0.3-0.1,0.5
			c-0.2,1-0.3,2-0.4,3c0,0.1,0,0.2,0,0.3c-0.1,0.3-0.2,0.7-0.2,1.1c0,0.1,0,0.2,0,0.4c0,0.1,0.1,0.1,0.2,0.2c0,0.1,0,0.2,0,0.3
			c-0.1,0.5-0.1,1-0.2,1.5c-0.1,0.4-0.2,0.8-0.3,1.2c-0.1,0.3-0.1,0.6-0.1,0.9c0.1,0.7,0.2,1.5,0.3,2.2c0,0.2,0.1,0.3,0.2,0.4
			c0,0,0,0,0,0.1c-0.2,0.7-0.1,1.5,0,2.2c0.1,0.9,0.5,1.8,0.9,2.6c0.5,0.9,1.1,1.7,1.7,2.5c0.3,0.4,0.7,0.7,1,1.1
			c0.4,0.4,0.9,0.7,1.3,1c0.7,0.5,1.6,0.8,2.5,1c0.7,0.2,1.5,0.2,2.2,0.1c0.4,0,0.7-0.1,1.1-0.2c0.4-0.1,0.7-0.2,1.1-0.4
			c0.6-0.3,1.1-0.6,1.6-1.1c0.5-0.4,0.9-1,1.3-1.5c0.3-0.5,0.6-1.1,0.9-1.6c0.3-0.7,0.5-1.3,0.7-2c0.1-0.5,0.3-1.1,0.4-1.6
			c0.2-0.8,0.3-1.7,0.4-2.5c0.1-1.3,0.2-2.5,0.1-3.8c0-0.4-0.1-0.8-0.1-1.2c0-1.1,0-2.2,0-3.3c0.2-0.1,0.4-0.3,0.6-0.4
			c0.5-0.3,1-0.4,1.6-0.6c0.3-0.1,0.5-0.1,0.8-0.1c0.2-0.1,0.4-0.1,0.6-0.1c0.2,0,0.4-0.1,0.7-0.1c0.2,0,0.4,0,0.5,0
			c0.3,0,0.5,0,0.8,0c0.3,0,0.6,0.1,1,0.1c0.4,0.1,0.9,0.2,1.3,0.4c0.2,0.1,0.5,0.2,0.7,0.3c0.2,0.1,0.4,0.1,0.5,0.2
			c0.4,0.2,0.7,0.4,1,0.6c0.1,0.9,0.2,1.7,0.4,2.6c0,0.2,0.1,0.3,0.2,0.4c0,0,0,0,0,0.1c-0.2,0.7-0.1,1.5,0,2.2
			c0.1,0.9,0.5,1.8,0.9,2.6c0,0.1,0.1,0.1,0.1,0.2c0.4,0.8,1,1.6,1.6,2.3c0.3,0.4,0.7,0.7,1,1.1c0.4,0.4,0.9,0.7,1.3,1
			c0.7,0.5,1.6,0.8,2.5,1c0.7,0.2,1.5,0.2,2.2,0.1c0.4,0,0.7-0.1,1.1-0.2c0.4-0.1,0.7-0.2,1.1-0.4c0.6-0.3,1.1-0.6,1.6-1.1
			c0.5-0.4,0.9-1,1.3-1.5c0.3-0.5,0.6-1,0.8-1.5c0-0.1,0.1-0.1,0.1-0.2c0.2-0.4,0.3-0.8,0.4-1.2c0,0,0,0,0,0c0,0,0,0,0,0
			c0.1-0.3,0.2-0.6,0.3-0.8c0.4-1.3,0.6-2.7,0.7-4.1c0-0.2,0-0.5,0.1-0.7c0.4-0.3,0.8-0.7,1.1-1.1c0.1-0.2,0.2-0.3,0.4-0.5
			c0.2-0.1,0.4-0.3,0.6-0.4c0.4-0.2,0.7-0.3,1.1-0.4c0.2,0,0.5-0.1,0.7-0.1c0.2,0,0.4,0.1,0.6,0.1c0.2,0.1,0.4,0.2,0.6,0.3
			c0.1,0.1,0.2,0.2,0.3,0.2c0.1,2.5,0.3,5,0.7,7.5c0,0.2,0.1,0.3,0.2,0.4c0,0,0,0,0,0.1c-0.2,0.7-0.1,1.5,0,2.2
			c0.1,0.7,0.4,1.5,0.7,2.2c0.1,0.2,0.1,0.3,0.2,0.5c0.5,0.9,1.1,1.7,1.7,2.5c0.3,0.4,0.7,0.7,1,1.1c0.4,0.4,0.9,0.7,1.3,1
			c0.7,0.5,1.6,0.8,2.5,1c0.7,0.2,1.5,0.2,2.2,0.1c0.4,0,0.7-0.1,1.1-0.2c0.4-0.1,0.7-0.2,1.1-0.4c0.6-0.3,1.1-0.6,1.6-1.1
			c0.5-0.4,0.9-1,1.3-1.5c0.3-0.5,0.6-1.1,0.9-1.6c0.3-0.7,0.5-1.3,0.7-2c0.4-1.3,0.6-2.7,0.7-4.1c0-0.1,0-0.1,0-0.2
			c0-0.4-0.1-0.7-0.2-1.1C149.4,39.1,149.3,38.4,149.1,37.8z"/>
		<g>
			<path class="st2" d="M150.6,37.4c-0.7-2.7-2.1-5.1-3.3-7.6c-1.2-2.5-3.1-4.7-5.2-6.5c-2.2-1.8-4.7-3.1-7.3-3.9
				c-2.7-0.8-5.3-1-8.1-1.1c0.5,0.5,1,1,1.5,1.5c0,0,0,0,0,0c0-0.8-0.7-1.5-1.5-1.5c-1.6,0-3.3,0.2-4.9,0.3c-2,0.2-3.4,1.2-5.1,2.2
				c0.5,0,1,0,1.5,0c-0.9-0.6-1.9-1.2-2.9-1.6c-0.2-0.1-0.4-0.2-0.6-0.2c0.5,0.4,0.6,0.4,0.2,0c-0.4-0.4-0.8-0.7-1.3-0.9
				c-2-1.1-4.3-1-6.5-1.2c-2.3-0.2-4.7-0.4-6.9-0.3c-1,0-1.9,0.1-2.8,0.3c-0.9,0.1-1.7,0.5-2.5,0.8c-0.9,0.3-2.1,0.4-3.1,0.7
				c-1.1,0.3-2.2,0.7-3.3,1.2c-2.1,0.9-3.9,2.3-5.1,4.2c-0.7,1-1,2.1-1.3,3.3c-0.3,1-0.7,2-0.9,3.1c-0.2,1.1-0.2,2.1-0.4,3.2
				c-0.1,1-0.3,1.9,0.5,2.7c-0.1-0.4-0.3-0.7-0.4-1.1c0.1,1.3-0.6,2.5-0.6,3.8c0,1,0.2,2.5,0.8,3.4c-0.1-0.4-0.1-0.8-0.2-1.2
				c-0.8,3.6,1.2,7.3,3.7,9.7c2.6,2.6,6.6,3.7,10.1,2.2c3.2-1.4,4.9-4.9,5.6-8.2c0.8-3.9,0.6-7.8,0.4-11.8c-0.2,0.4-0.5,0.9-0.7,1.3
				c2.6-1.8,6-1.2,8.5,0.4c-0.2-0.4-0.5-0.9-0.7-1.3c0.1,1.2,0.1,2.8,0.8,3.8c-0.1-0.4-0.1-0.8-0.2-1.2c-1.4,5.9,4.8,13,10.8,12.6
				c6.7-0.4,8.7-7.6,9.1-13.1c-0.1,0.4-0.3,0.7-0.4,1.1c1.1-0.9,2.1-2.9,3.6-1.7c-0.2-0.4-0.5-0.9-0.7-1.3c0.1,1.6,0.2,3.1,0.3,4.7
				c0.1,1.2,0.1,3,0.8,4c-0.1-0.4-0.1-0.8-0.2-1.2c-0.7,3.2,0.9,6.5,2.9,8.9c2.3,2.7,5.5,4.2,9,3.6c3.2-0.6,5.3-3.1,6.5-5.9
				c0.7-1.7,1-3.4,1.3-5.2C151.3,40.5,151,39,150.6,37.4c-0.5-1.9-3.4-1.1-2.9,0.8c0.2,0.9,0.5,1.9,0.5,2.9c0,1.3-0.4,2.7-0.7,3.9
				c-0.6,2-1.6,4.1-3.5,5c-4.4,2.1-9.2-2.7-9.7-6.9c-0.1-0.5,0-1,0-1.4c0-0.5-0.1-0.8-0.2-1.2c-0.4-1.1-0.4-2.6-0.5-3.8
				c-0.1-1.1,0.1-2.6-0.3-3.7c-0.3-1-1.5-1.5-2.4-1.6c-1-0.2-1.9,0.1-2.8,0.5c-1.1,0.5-1.7,1.3-2.5,2.2c-0.8,0.8-0.7,1.6-0.9,2.7
				c-0.2,1.3-0.5,2.6-0.9,3.9c-0.2,0.9,0.4-0.3,0.2-0.4c0,0-0.3,0.8-0.3,0.7c-0.2,0.5-0.4,0.9-0.6,1.3c-0.5,0.9-1.2,1.8-2.1,2.4
				c-2,1.3-4.7,0.9-6.5-0.6c-1.6-1.3-3.1-3.3-3.6-5.3c-0.3-1,0.1-2.2-0.2-3.2c-0.3-0.9-0.2-2.3-0.7-3.2c-0.4-0.8-1.7-1.2-2.5-1.5
				c-1.1-0.5-2.2-0.8-3.3-0.9c-1.9-0.1-4.2,0.2-5.8,1.2c-1.1,0.7-1.2,1.3-1.2,2.5c0,1.3,0.1,2.5,0.2,3.8c0.2,2.4-0.1,4.9-0.7,7.3
				c-0.6,2.2-1.8,4.6-4.1,5.4c-2.6,0.9-5.1-0.4-6.8-2.3c-0.9-1-1.7-2.1-2.1-3.4c-0.3-0.7-0.4-1.5-0.4-2.3c0-0.6,0.2-1,0-1.5
				c-0.1-0.5-0.3-1-0.4-1.6c-0.1-0.7,0.1-1.3,0.3-1.9c0.3-1.2,0.6-2.6-0.3-3.6c0.1,0.4,0.3,0.7,0.4,1.1c-0.1-0.7,0.2-1.8,0.2-2.6
				c0.1-0.8,0.2-1.5,0.4-2.3c0.3-1.1,0.7-2.1,1-3.1c0.3-0.8,0.7-1.6,1.3-2.3c1.2-1.5,3-2.3,4.8-2.9c1-0.3,2-0.6,3.1-0.8
				c0.4-0.1,0.9-0.2,1.3-0.3c0.5-0.1,0.8-0.3,1.2-0.5c1.4-0.5,3.3-0.5,4.8-0.5c1.9,0,3.8,0.1,5.7,0.3c1.7,0.2,3.8-0.1,5.2,1.1
				c1.3,1,2.8,1.5,4.1,2.5c0.4,0.3,1.1,0.3,1.5,0c1.3-0.7,2.5-1.8,4.1-1.8c1.5,0,2.9-0.3,4.4-0.3c-0.5-0.5-1-1-1.5-1.5c0,0,0,0,0,0
				c0,0.8,0.7,1.5,1.5,1.5c2.4,0.1,4.6,0.1,6.9,0.8c2.5,0.7,4.8,1.9,6.8,3.6c1.8,1.6,3.5,3.5,4.5,5.7c1,2.3,2.3,4.3,2.9,6.7
				C148.2,40,151.1,39.2,150.6,37.4z"/>
		</g>
	</g>
	<g>
		<path class="st1" d="M183,44.9c-0.1-0.4-0.2-0.8-0.3-1.2c0-0.1,0-0.2,0-0.3c-0.1-0.3-0.2-0.7-0.3-1c0-0.1-0.1-0.2-0.1-0.3
			c0-0.1,0-0.2,0-0.3c-0.1-0.5-0.3-0.9-0.6-1.4c-0.1-0.2-0.2-0.3-0.4-0.5c-0.3-0.6-0.8-1.1-1.5-1.3c-0.2-0.1-0.4-0.1-0.6-0.1
			c-0.2,0-0.5,0-0.7,0c-0.1,0-0.2,0-0.3,0c-0.2,0-0.4,0-0.6,0c-0.4,0-0.9,0-1.3,0.1c-0.5,0.1-0.9,0.2-1.4,0.3
			c-0.5,0.2-1.1,0.4-1.6,0.7c-0.2,0.1-0.4,0.3-0.6,0.4c-0.1,0.1-0.2,0.2-0.4,0.3c-0.2,0.1-0.4,0.2-0.6,0.2c-0.3,0.1-0.6,0.1-0.9,0.2
			c-0.2,0-0.4,0-0.6-0.1c-0.2,0-0.3-0.1-0.4-0.2c-0.2-0.1-0.3-0.2-0.4-0.3c-0.2-0.2-0.3-0.4-0.5-0.6c-0.2-0.4-0.4-0.9-0.6-1.3
			c-0.1-0.3-0.2-0.7-0.2-1.1c0,0,0-0.1,0-0.1c0.2,0,0.3,0,0.5,0.1c0.3,0.1,0.7,0.2,1,0.3c0.6,0.1,1.2,0.1,1.8,0.1c0,0,0.1,0,0.1,0
			c0.1,0,0.2,0.1,0.2,0.1c0.9,0.3,2.1,0.4,3,0c0.2-0.1,0.3-0.2,0.5-0.2c0.2-0.1,0.4-0.3,0.5-0.4c0,0,0,0,0,0c0.2,0,0.3-0.1,0.5-0.1
			c0.1,0,0.2,0,0.3,0c0.2,0,0.5,0,0.7,0c0.2,0,0.4-0.1,0.6-0.1c0.3-0.1,0.6-0.2,0.8-0.3c0,0,0,0,0,0c0,0,0,0,0,0
			c0.3-0.1,0.6-0.1,0.9-0.3c0.2-0.1,0.4-0.2,0.6-0.3c0.2-0.1,0.4-0.3,0.6-0.4c0.2-0.2,0.4-0.4,0.6-0.7c0.1-0.1,0.1-0.2,0.1-0.3
			c0,0,0,0,0,0c0,0,0-0.1,0-0.1c0,0,0,0,0,0c0.1-0.1,0.2-0.3,0.2-0.4c0.1-0.2,0.1-0.5,0.1-0.7c0,0,0,0,0,0c0,0,0,0,0,0
			c0-0.4,0-0.7-0.1-1.1c-0.1-0.4-0.3-0.7-0.5-1c-0.2-0.2-0.4-0.4-0.6-0.6c-0.1-0.1-0.3-0.2-0.5-0.4c-0.2-0.2-0.5-0.3-0.8-0.4
			c-0.3-0.1-0.7-0.3-1-0.4c-0.5-0.2-1.1-0.2-1.7-0.3c-0.2,0-0.5,0-0.7,0c-0.4,0-0.8,0-1.2,0.1c-0.4,0-0.8,0.1-1.1,0.2
			c-0.4,0-0.9,0-1.3,0.1c-0.1,0-0.1,0-0.2,0c-0.2,0-0.4,0-0.6,0c-0.5,0-0.9,0-1.4,0c-0.1,0-0.1,0-0.2,0c0.5-0.4,1-0.7,1.5-1.1
			c0.7-0.4,1.3-0.7,2.1-0.9c0.2-0.1,0.4-0.1,0.7-0.1c0.5-0.1,1-0.1,1.6-0.1c0.6,0,1.1,0,1.7-0.1c0.7,0,1.4-0.2,2-0.4
			c0.6-0.2,1.2-0.5,1.7-0.8c0.3-0.2,0.5-0.5,0.8-0.8c0.3-0.3,0.5-0.7,0.6-1.1c0.2-0.3,0.2-0.7,0.3-1.1c0-0.2,0.1-0.4,0.1-0.6
			c0-0.3,0-0.6-0.1-0.9c-0.1-0.4-0.2-0.7-0.3-1c-0.1-0.5-0.4-0.9-0.6-1.3c-0.3-0.6-0.7-1.1-1-1.6c0,0,0,0,0,0c0,0,0,0,0,0
			c-0.1-0.2-0.2-0.3-0.3-0.5c-0.1-0.2-0.3-0.3-0.5-0.5c-0.1-0.1-0.2-0.2-0.3-0.2c-0.1,0-0.1-0.1-0.2-0.1c-0.3-0.2-0.6-0.5-0.9-0.7
			c-0.4-0.2-0.8-0.4-1.3-0.6c-0.5-0.2-1-0.3-1.4-0.3c-0.9-0.1-1.9,0-2.8,0.1c-1,0.2-2,0.5-2.9,0.8c-0.9,0.4-1.8,0.8-2.7,1.3
			c-0.3,0.2-0.6,0.4-0.9,0.5c-0.1,0-0.1,0-0.2,0c-0.2,0-0.5,0-0.7,0c-0.1,0-0.3,0-0.4,0.1c-0.1,0-0.2,0-0.2,0.1
			c-0.4,0-0.7,0.1-1.1,0.2c-0.4,0.1-0.9,0.3-1.3,0.5c-0.4,0.2-0.9,0.5-1.2,0.8c-0.7,0.6-1.3,1.3-1.9,2c-0.6,0.8-1,1.7-1.4,2.6
			c-0.4,0.9-0.7,1.8-1,2.8c-0.4,1.4-0.7,2.9-0.9,4.3c-0.2,0.7-0.3,1.3-0.3,2c-0.1,0.8-0.1,1.6-0.1,2.4c0.1,1.4,0.4,2.8,0.8,4.1
			c0.3,0.9,0.6,1.8,1.1,2.6c0.3,0.6,0.7,1.3,1.1,1.8c0,0.1,0,0.1,0.1,0.2c0,0.1,0.1,0.1,0.1,0.2c0,0,0,0,0,0c0,0,0,0,0,0
			c0.3,0.4,0.5,0.8,0.8,1.2c0,0,0.1,0.1,0.1,0.1c0.3,0.3,0.6,0.7,0.9,1c0,0,0,0.1,0.1,0.1c0.1,0.2,0.3,0.5,0.5,0.7c0,0,0,0,0,0
			c0.2,0.2,0.4,0.5,0.7,0.7c0.4,0.3,0.8,0.6,1.3,0.8c0.2,0.1,0.4,0.2,0.6,0.3c0,0,0,0,0,0c0.3,0.2,0.7,0.4,1,0.5
			c0.2,0.1,0.3,0.2,0.5,0.3c0.8,0.4,1.7,0.8,2.6,1.1c0.7,0.2,1.4,0.4,2.1,0.5c0,0,0.1,0.1,0.1,0.1c0.1,0,0.1,0,0.2,0.1c0,0,0,0,0,0
			c0,0,0,0,0,0c0.5,0.1,1,0.2,1.5,0.3c0,0,0.1,0,0.1,0c0.4,0,0.9,0.1,1.3,0.1c0,0,0.1,0,0.1,0c0.3,0.1,0.5,0.1,0.8,0.2c0,0,0,0,0,0
			c0.3,0,0.6,0,0.9,0c0.5,0,1-0.2,1.5-0.3c0.2-0.1,0.4-0.2,0.6-0.3c0,0,0,0,0,0c1.2-0.3,2.3-0.8,3.3-1.5c0.2-0.2,0.5-0.4,0.7-0.6
			c0.2-0.2,0.3-0.4,0.5-0.6c0.2-0.3,0.3-0.6,0.4-0.9c0.1-0.3,0.2-0.6,0.3-1c0-0.3,0.1-0.5,0.1-0.8C183.1,45.6,183,45.2,183,44.9z"/>
		<g>
			<path class="st2" d="M184.4,44.5c-0.2-1-0.5-1.9-0.8-2.9c0.1,0.5-0.2-0.8-0.2-0.9c-0.2-0.5-0.4-0.9-0.7-1.3
				c-1.1-1.7-2.4-2.4-4.4-2.4c-2.2,0-4.2,0.3-6.1,1.6c-0.5,0.3-1.1,1-1.7,0.6c-0.7-0.4-0.8-1.8-0.9-2.5c-0.6,0.6-1.2,1.2-1.8,1.8
				c0.9,0.1,1.8,0.4,2.8,0.5c0.4,0,1.3,0.1,0.5-0.1c0.5,0.1,0.9,0.3,1.5,0.4c1.7,0.2,3-0.3,4.3-1.3c-0.6,0.5-0.4,0.3,0.1,0.3
				c0.4,0,0.8-0.1,1.2-0.2c0.4-0.1,0.7-0.2,1.1-0.4c0.8-0.4-0.7,0.2,0.3-0.1c1.6-0.4,2.6-1.3,3.4-2.7c0.3-0.6-0.3,0.6,0.1-0.1
				c0.1-0.3,0.3-0.6,0.3-0.9c0.1-0.6,0.1-1.3,0-1.9c-0.3-1.7-1.6-3-3.2-3.7c-1.5-0.7-3.3-1-5-0.9c-0.9,0.1-1.9,0.3-2.8,0.3
				c-0.8,0-1.6,0-2.3,0.1c0.4,0.9,0.7,1.7,1.1,2.6c0.8-0.7,1.8-1.3,2.9-1.6c0.9-0.2,1.8-0.1,2.7-0.2c1.7-0.1,3.5-0.3,5-1.2
				c3.1-2,3.5-5.8,1.8-8.9c-0.4-0.7-0.9-1.4-1.4-2.1c0.4,0.7,0-0.1-0.1-0.2c-0.3-0.4-0.6-0.7-1-1c-1.2-1-2.5-1.7-4.1-2
				c-3.8-0.7-7.6,1-10.7,2.9c0.4-0.1,0.8-0.1,1.2-0.2c-1.2-0.3-2.6,0-3.8,0.4c-1.4,0.4-2.6,1.3-3.6,2.3c-2.1,2.2-3.3,5.2-4,8.2
				c-0.8,3.1-1.4,6.5-1,9.6c0.4,3.1,1.7,5.7,3.2,8.3c0.2-0.7,0.4-1.4,0.5-2.1c0,0,0,0,0,0c-0.7,0.4-0.9,1.4-0.5,2.1
				c0.6,1,1.4,1.9,2.1,2.8c0.8,1.1,1.7,1.9,2.9,2.5c1,0.5,2.1,1.1,3.3,1.6c1.4,0.6,2.8,0.9,4.2,1.2c-0.4-0.5-0.7-1-1.1-1.4
				c0,0,0,0,0,0c0,0.6,0.5,1.3,1.1,1.4c1.4,0.3,2.9,0.5,4.3,0.6c1.7,0.1,3.2-0.5,4.6-1C183,51.1,184.9,48.3,184.4,44.5
				c-0.1-0.8-1.1-1.2-1.8-1c-0.9,0.2-1.2,1-1,1.8c0.4,2.7-1.8,3.8-4,4.6c-1.1,0.4-1.9,0.6-3.1,0.4c-1-0.2-2-0.2-3-0.4
				c0.4,0.5,0.7,1,1.1,1.4c0,0,0,0,0,0c0-0.6-0.5-1.3-1.1-1.4c-1.2-0.3-2.5-0.5-3.6-1c-1-0.4-1.9-0.9-2.8-1.4
				c-1-0.5-1.7-0.9-2.3-1.8c-0.6-0.8-1.3-1.6-1.8-2.4c-0.2,0.7-0.4,1.4-0.5,2.1c0,0,0,0,0,0c0.7-0.4,0.9-1.4,0.5-2.1
				c-1.1-1.8-2-3.5-2.6-5.6c-0.6-2.4-0.4-4.6,0-7c0.6-3.8,1.7-9.3,5.5-11.2c0.8-0.4,1.8-0.6,2.7-0.6c0.4,0,0.7,0.1,1.1-0.1
				c0.5-0.2,1-0.6,1.5-0.8c2-1.1,4.2-1.9,6.5-1.9c1.6,0.1,3.3,0.9,4.2,2.2c0.9,1.4,2.1,3,1.7,4.7c-0.6,2.5-3.5,2.7-5.6,2.7
				c-2.7,0-4.7,1-6.8,2.6c-1,0.8-0.2,2.7,1.1,2.6c1.2-0.1,2.4,0,3.6-0.2c1.3-0.1,2.5-0.4,3.9-0.1c1.1,0.2,2.6,0.8,2.8,2
				c0.1,0.5-0.2,1.2-0.3,1.4c-0.5,0.7-1.4,0.8-2.1,1c-0.9,0.4-2.1,0.1-2.9,0.6c-1,0.5-1.5,0.9-2.7,0.6c-0.6-0.2-0.9-0.2-1.5-0.2
				c-0.8,0-1.4-0.3-2.2-0.4c-1.2-0.2-2,0.6-1.8,1.8c0.2,1.6,0.9,3.5,2.4,4.3c0.8,0.5,1.7,0.5,2.6,0.3c1-0.2,1.6-0.8,2.5-1.3
				c1-0.6,2.1-0.9,3.3-0.9c0.7,0,1.6-0.2,2.2,0.3c0.6,0.5,0.8,1.4,1.1,2.1c0.3,0.9,0.6,1.8,0.8,2.8
				C181.9,47.2,184.8,46.4,184.4,44.5z"/>
		</g>
	</g>
	<g>
		<path class="st1" d="M37.3,40.6c-0.2-0.8-0.4-1.6-0.7-2.3c-0.2-0.7-0.5-1.3-0.8-1.9c-0.3-0.7-0.7-1.3-1.1-1.9
			c-0.2-0.3-0.4-0.5-0.6-0.8c-0.1-0.2-0.1-0.4-0.2-0.7c-0.2-0.6-0.6-1.1-1-1.6c-0.4-0.6-1-1-1.6-1.5c-0.4-0.3-0.7-0.5-1.1-0.8
			c-0.8-0.5-1.6-0.8-2.4-1.2c-1.2-0.5-2.4-0.8-3.6-1c-0.6-0.1-1.2-0.1-1.7-0.1c-0.5,0-0.9,0.1-1.4,0.1c-0.5,0.1-1,0.2-1.5,0.4
			c-0.2,0.1-0.3,0.1-0.5,0.2c0.1-1.3,0.2-2.6,0.3-3.9c0.1-3.7-0.1-7.4-0.7-11.1c0-0.2-0.1-0.3-0.2-0.4c0,0,0,0,0-0.1
			c0.2-0.7,0.1-1.5,0-2.2C18.3,9,18,8.1,17.6,7.3c-0.5-0.9-1.1-1.7-1.7-2.5c-0.3-0.4-0.7-0.7-1-1.1c-0.4-0.4-0.9-0.7-1.3-1
			c-0.7-0.5-1.6-0.8-2.5-1c-0.7-0.2-1.5-0.2-2.2-0.1c-0.4,0-0.7,0.1-1.1,0.2C7.4,1.8,7,2,6.7,2.1C6.1,2.4,5.6,2.8,5.1,3.2
			c-0.5,0.4-0.9,1-1.3,1.5C3.5,5.2,3.2,5.7,3,6.3C2.7,7,2.4,7.6,2.2,8.3c-0.4,1.3-0.6,2.7-0.7,4.1c-0.1,1.3-0.2,2.5-0.1,3.8
			c0,0.4,0.1,0.8,0.1,1.2c0,1.2,0,2.5,0.1,3.7c0.1,3.1,0.5,6.1,0.8,9.2c0.1,0.6,0.1,1.2,0.2,1.9c0,1.7,0.1,3.4,0.3,5.2
			c0,0.2,0,0.3,0,0.5c-0.1,1.9-0.4,3.7-0.3,5.6c0,0.9,0.2,1.8,0.5,2.7c0.1,0.2,0.1,0.3,0.2,0.5c0.3,0.7,0.7,1.3,1.2,1.8
			c0.3,0.3,0.7,0.6,1.1,0.8C6,49.6,6.5,49.8,6.9,50c0.9,0.4,1.9,0.6,2.9,0.6c0.1,0,0.2,0,0.2,0c0.3,0,0.6,0,0.9-0.1c0,0,0,0,0,0
			c0.2,0.1,0.5,0.1,0.7,0.1c0,0,0,0,0,0c0.2,0,0.5,0,0.7-0.1c0.1,0,0.3-0.1,0.4-0.1c0.2,0,0.3-0.1,0.5-0.2c0.3-0.1,0.6-0.2,0.9-0.4
			c0.4-0.2,0.7-0.4,1-0.6c0.5-0.3,0.9-0.7,1.3-1.1c0.2-0.2,0.3-0.4,0.5-0.5c0.2-0.2,0.3-0.4,0.5-0.7c0.1-0.2,0.2-0.4,0.3-0.5
			c0.4-0.6,0.8-1.1,1.2-1.7c0.6-0.8,1.1-1.7,1.6-2.6c0.2-0.1,0.3-0.1,0.5-0.2c0.3-0.1,0.6-0.1,0.9-0.2c0.3,0,0.6,0,0.9,0.1
			c0.3,0.1,0.5,0.2,0.8,0.3c0.2,0.1,0.5,0.3,0.7,0.5c0.2,0.2,0.4,0.4,0.6,0.6c0.1,0.2,0.2,0.4,0.3,0.6c0,0.1,0.1,0.3,0.1,0.4
			c0,0.4,0,0.8-0.1,1.1c-0.1,0.5-0.2,1-0.2,1.6c0,1.1,0.6,2.2,1.7,2.6c0,0,0.1,0,0.1,0c0.2,0.5,0.5,0.9,0.9,1.3
			c0.6,0.5,1.2,1,1.9,1.1c0.4,0.1,0.8,0.2,1.2,0.2c0.5,0,1-0.1,1.5-0.2c0.5-0.1,1-0.3,1.4-0.5c0.3-0.1,0.5-0.2,0.7-0.4
			c0.4-0.2,0.7-0.4,1-0.7c0.3-0.3,0.6-0.7,0.9-1c0.2-0.3,0.4-0.7,0.6-1.1c0.1-0.2,0.2-0.5,0.3-0.8c0.2-0.7,0.4-1.5,0.4-2.3
			c0.1-0.8,0-1.5,0-2.3C37.6,42,37.5,41.3,37.3,40.6z"/>
		<g>
			<path class="st2" d="M38.8,40.2c-0.6-2.4-1.5-4.7-2.9-6.7c-0.4-0.6-0.7-1.5-1.2-2.3c-0.7-1-1.6-1.8-2.6-2.6
				c-3.8-2.8-9.2-4.2-13.6-2.3c0.8,0.4,1.5,0.9,2.3,1.3c0.3-2.8,0.4-5.6,0.2-8.5c-0.1-1.4-0.2-2.7-0.4-4.1c-0.1-1.1-0.1-2.6-0.8-3.6
				c0.1,0.4,0.1,0.8,0.2,1.2c0.8-3.5-1.2-7.1-3.6-9.6c-2.4-2.5-6.1-3.8-9.5-2.6c-3.3,1.2-5.1,4.2-6,7.5c-1.1,3.8-0.8,7.7-0.7,11.6
				c0.1,4,0.6,8,1,12c0.1,1,0.1,2,0.1,3.1c0.1,1,0.2,2,0.2,3.1c0,2-0.4,3.9-0.4,5.9c0.1,3.4,1.6,6.4,4.9,7.8c1.5,0.7,3,0.8,4.5,0.8
				c0.7,0,1.2,0.2,1.9,0.1c0.7-0.1,1.4-0.3,2-0.6c1.7-0.8,3.2-2.1,4.2-3.7c0.5-0.8,1-1.5,1.5-2.3c0.3-0.4,0.6-0.9,0.8-1.3
				c0.1-0.2,0.8-1.1,0.4-0.8c0.9-0.5,2.2,0.2,2.2,1.2c0,1-0.3,1.9-0.2,2.9c0.2,1.7,1.3,3,2.9,3.5c-0.3-0.2-0.6-0.5-0.9-0.7
				c1.9,3.8,6.8,4.1,10.1,1.9C39.5,49.4,39.7,44.4,38.8,40.2c-0.4-1.9-3.3-1.1-2.9,0.8c0.4,2.1,0.6,4.5-0.3,6.5
				c-0.8,1.8-2.7,3-4.8,2.9c-0.9,0-1.8-0.4-2.4-1.1c-0.3-0.4-0.4-0.8-0.8-1.1C27.4,48,27,48,26.8,47.7c-0.6-0.6-0.3-1.5-0.2-2.3
				c0.1-1,0.2-1.9-0.3-2.8c-1-1.8-3-2.7-5-2.4c-0.9,0.2-1.6,0.4-2.1,1.2c-0.6,0.9-1.1,1.9-1.8,2.8c-1.2,1.6-2.2,3.4-4,4.3
				c-1.2,0.6-2.7,0.6-4,0.5c-1.9-0.2-3.9-1.1-4.7-2.9c-0.9-1.9-0.6-4.3-0.4-6.3c0.4-4.6-0.3-9.2-0.7-13.7c-0.2-2.3-0.4-4.6-0.4-6.9
				c0-2.2-0.3-4.4-0.1-6.6c0.3-3.5,1.4-9,5.7-9.6c2.4-0.4,4.5,0.9,6,2.7c0.8,1,1.6,2.1,2,3.3c0.2,0.6,0.4,1.2,0.4,1.8
				c0,0.5-0.1,0.9-0.1,1.4c0,0.5,0.3,0.9,0.4,1.3c0.1,0.7,0.2,1.3,0.3,2c0.1,1.3,0.3,2.6,0.3,3.9c0.1,2.8,0,5.5-0.2,8.2
				c-0.1,1.3,1.3,1.7,2.3,1.3c3.4-1.5,8.1,0.2,10.8,2.4c1.4,1.1,1.8,2.5,2.8,3.9c1.2,1.7,1.9,3.7,2.4,5.8
				C36.3,42.9,39.2,42.1,38.8,40.2z"/>
		</g>
	</g>
</g>
</svg>
