<?xml version="1.0" encoding="utf-8"?>
<!-- Generator: Adobe Illustrator 23.1.1, SVG Export Plug-In . SVG Version: 6.00 Build 0)  -->
<svg version="1.1" id="Layer_1" xmlns="http://www.w3.org/2000/svg" xmlns:xlink="http://www.w3.org/1999/xlink" x="0px" y="0px"
	 viewBox="0 0 48.2 53" style="enable-background:new 0 0 48.2 53;" xml:space="preserve">
<style type="text/css">
	.st0{fill:#2C2C2C;}
</style>
<g id="XMLID_37490_">
	<g id="XMLID_37491_">
		<path class="st0" d="M17.4,44.9c0,0-33.4-15.3-3.4-33.3S46,3,46.7,14.9c0.7,12-21.4,7-7.9,17.8S37.5,61.2,17.4,44.9z"/>
		<g>
			<path class="st0" d="M18.1,43.6c-2.4-1.1-4.7-2.5-6.8-4.1c-3.5-2.6-7.1-6-8.1-10.4c-1.5-6.3,4.3-11.5,9-14.6
				c4.1-2.8,8.6-5.3,13.2-7.4c3.1-1.5,6.2-2.8,9.6-3.6c1.9-0.4,4-0.7,5.7-0.1c1.2,0.4,2.1,1.1,2.8,2.2c0.5,0.8,0.6,1,0.8,1.9
				c0.3,0.8,0.4,1.7,0.6,2.6c0.3,1.6,0.5,3.8,0.5,5.6c-0.1,4.5-4.9,6-8.3,7.5c-1.5,0.7-3.3,1.5-3.8,3.2c-0.7,2.1,1,4.1,2.5,5.5
				c2.3,2.3,5.1,4,6.4,7.1c0.9,2.3,0.9,4.8-0.4,7c-3.5,5.7-11.6,4.5-16.6,2c-2.3-1.1-4.4-2.5-6.4-4.1c-1.5-1.2-3.6,0.9-2.1,2.1
				c6.3,5,15.5,9.6,23.4,5.5c5.7-3,7.3-9.8,4.2-15.2c-0.9-1.5-2.1-2.9-3.4-4.1c-1.3-1.1-2.7-2.2-3.8-3.5c-0.2-0.3-0.6-0.8-0.6-1
				c0,0.1-0.1-0.3-0.1-0.4c0.1,0.3,0-0.3,0,0c0-0.4,0,0,0-0.1c0.2-0.4-0.1,0.1,0.1-0.1c0.1-0.1,0.2-0.2,0.4-0.3
				c-0.3,0.2,0.3-0.2,0.4-0.2C41,24.4,46,23.7,48,19.2c1-2.3,0.8-4.9,0.5-7.4C48.3,9.9,48,7.9,47.3,6c-1.4-3.8-4.5-6-8.6-5.9
				C35.8,0.1,33,1,30.3,2C26,3.6,21.8,5.7,17.8,8C11.1,11.8,2,16.9,0.6,25.3c-2,9.5,7.9,16.8,15.4,20.6c0.2,0.1,0.4,0.2,0.6,0.3
				C18.4,47,19.9,44.4,18.1,43.6z"/>
		</g>
	</g>
</g>
</svg>
