<?xml version="1.0" encoding="utf-8"?>
<!-- Generator: Adobe Illustrator 23.1.1, SVG Export Plug-In . SVG Version: 6.00 Build 0)  -->
<svg version="1.1" id="Layer_1" xmlns="http://www.w3.org/2000/svg" xmlns:xlink="http://www.w3.org/1999/xlink" x="0px" y="0px"
	 viewBox="0 0 52.1 52" style="enable-background:new 0 0 52.1 52;" xml:space="preserve">
<style type="text/css">
	.st0{fill:#FFFFFF;}
	.st1{fill:#2C2C2C;}
</style>
<g>
	<g>
		<path class="st0" d="M48.7,26c-0.1-0.7-0.3-1.5-0.7-2.1c-0.2-0.3-0.4-0.6-0.7-0.9c-0.2-0.2-0.5-0.4-0.7-0.5
			c-0.2-0.2-0.4-0.3-0.5-0.4c-0.1-0.1-0.2-0.1-0.3-0.2c-0.2-0.1-0.4-0.2-0.6-0.2c-0.3-0.1-0.7-0.2-1-0.3c-0.4-0.1-0.8-0.1-1.2-0.2
			c-0.2,0-0.4,0-0.7-0.1c0,0,0.1,0,0.1-0.1c0.3-0.3,0.6-0.6,0.8-1c0.2-0.3,0.4-0.5,0.5-0.8c0.2-0.4,0.3-0.7,0.5-1.1
			c0.3-0.7,0.5-1.5,0.6-2.3c0-0.2,0-0.4,0-0.6c0-0.3,0-0.6,0-0.8c0-0.2-0.1-0.4-0.2-0.6c-0.1-0.2-0.1-0.4-0.2-0.6
			c-0.1-0.4-0.2-0.7-0.4-1.1c-0.1-0.1-0.1-0.3-0.2-0.4c-0.1-0.1-0.1-0.3-0.2-0.4c-0.2-0.5-0.5-0.8-0.9-1.2c-0.2-0.2-0.5-0.4-0.7-0.6
			c-0.6-0.5-1.3-0.9-2-1c-0.4-0.1-0.7-0.1-1.1-0.1c-0.3,0-0.6,0.1-0.9,0.1c-0.2,0-0.5,0-0.7,0.1c-0.1,0-0.2,0.1-0.3,0.1
			c-0.2,0.1-0.4,0.1-0.6,0.2c-0.3,0.2-0.6,0.3-0.9,0.5c-0.4,0.2-0.7,0.5-1,0.7c-0.3,0.2-0.5,0.4-0.8,0.7c-0.2,0.2-0.3,0.3-0.5,0.5
			c0-0.1,0-0.2,0-0.4c0-0.3-0.1-0.6-0.2-1c-0.1-0.4-0.3-0.7-0.4-1.1c-0.3-0.7-0.7-1.4-1.2-2c-0.1-0.2-0.3-0.3-0.4-0.5
			c-0.2-0.2-0.4-0.4-0.6-0.6c-0.2-0.1-0.4-0.2-0.5-0.3c-0.2-0.1-0.4-0.2-0.6-0.3c-0.3-0.2-0.7-0.4-1-0.5c-0.1-0.1-0.3-0.1-0.4-0.2
			c-0.1-0.1-0.3-0.1-0.4-0.2c-0.5-0.2-1-0.2-1.5-0.2c-0.3,0-0.6,0-0.9,0.1c-0.7,0.1-1.5,0.3-2.1,0.7c-0.3,0.2-0.6,0.4-0.9,0.7
			c-0.2,0.2-0.4,0.5-0.5,0.7c-0.2,0.2-0.3,0.4-0.4,0.5c-0.1,0.1-0.1,0.2-0.2,0.3c-0.1,0.2-0.2,0.4-0.2,0.6c-0.1,0.3-0.2,0.7-0.3,1
			C20,9.3,20,9.8,19.9,10.2c0,0.3-0.1,0.6-0.1,1c-0.2-0.2-0.4-0.4-0.6-0.5c-0.3-0.2-0.6-0.4-0.9-0.6c-0.4-0.3-0.9-0.5-1.4-0.7
			c-0.4-0.1-0.9-0.2-1.3-0.3c-0.4,0-0.8,0-1.2,0.1c-0.1,0-0.3,0.1-0.4,0.1c-0.2,0.1-0.5,0.2-0.7,0.3c0,0,0,0,0,0c0,0-0.1,0-0.1,0.1
			c-0.1,0.1-0.3,0.1-0.4,0.2c-0.1,0.1-0.2,0.2-0.3,0.2c0,0,0,0,0,0c-0.3,0.2-0.7,0.5-1,0.7c-0.3,0.2-0.5,0.4-0.7,0.7
			c-0.2,0.2-0.5,0.5-0.7,0.8c-0.3,0.3-0.5,0.6-0.8,1c-0.4,0.6-0.6,1.2-0.8,1.8c-0.1,0.3-0.1,0.7-0.2,1c0,0.3,0,0.6,0,0.8
			c0,0.2,0,0.4,0.1,0.6c0.1,0.2,0.2,0.5,0.3,0.7c0.2,0.4,0.4,0.7,0.6,1.1c0.2,0.3,0.4,0.5,0.6,0.8c0.3,0.3,0.6,0.6,1,0.8
			c0.1,0.1,0.2,0.1,0.3,0.2c-0.1,0-0.3,0-0.4,0c-0.4,0-0.8,0-1.3,0.1c-0.3,0-0.7,0.1-1,0.2c-0.5,0.1-1,0.3-1.5,0.5
			c-0.4,0.2-0.7,0.5-1.1,0.7c-0.3,0.2-0.6,0.6-0.8,0.9c-0.1,0.1-0.1,0.3-0.2,0.4c-0.1,0.2-0.2,0.4-0.3,0.7c0,0,0,0,0,0
			c0,0,0,0.1-0.1,0.1c-0.1,0.1-0.1,0.3-0.1,0.4c0,0.1-0.1,0.3-0.1,0.4c0,0,0,0,0,0c-0.1,0.4-0.1,0.8-0.2,1.2c0,0.3,0,0.6,0,1
			c0,0.3,0,0.7,0,1c0,0.4,0.1,0.8,0.1,1.2c0.1,0.7,0.4,1.3,0.7,1.9c0.2,0.3,0.4,0.6,0.6,0.8c0.2,0.2,0.4,0.4,0.6,0.6
			c0.2,0.1,0.3,0.3,0.5,0.4c0.2,0.1,0.5,0.2,0.7,0.3c0.4,0.2,0.8,0.2,1.2,0.3c0.3,0,0.7,0.1,1,0.1c0.2,0,0.4,0,0.6,0
			c-0.1,0.1-0.1,0.2-0.2,0.2C9.9,35,9.7,35.5,9.6,36c-0.1,0.4-0.2,0.9-0.3,1.3c0,0.4,0,0.8,0.1,1.2c0,0.1,0.1,0.3,0.1,0.4
			c0.1,0.2,0.2,0.5,0.3,0.7c0,0,0,0,0,0c0,0,0,0.1,0.1,0.1c0.1,0.1,0.1,0.3,0.2,0.4c0.1,0.1,0.2,0.2,0.2,0.3c0,0,0,0,0,0
			c0.2,0.3,0.5,0.7,0.7,1c0.2,0.3,0.4,0.5,0.7,0.7c0.2,0.2,0.5,0.5,0.8,0.7c0.3,0.3,0.6,0.5,1,0.8c0.6,0.4,1.2,0.6,1.8,0.8
			c0.3,0.1,0.7,0.1,1,0.2c0.3,0,0.6,0,0.8,0c0.2,0,0.4,0,0.6-0.1c0.2-0.1,0.5-0.2,0.7-0.3c0.4-0.2,0.7-0.4,1.1-0.6
			c0.1-0.1,0.2-0.2,0.4-0.3c0,0.1,0,0.1,0,0.2c0,0.3,0.1,0.7,0.2,1c0.1,0.5,0.3,1,0.5,1.5c0.2,0.4,0.5,0.7,0.7,1.1
			c0.2,0.3,0.6,0.6,0.9,0.8c0.1,0.1,0.3,0.1,0.4,0.2c0.2,0.1,0.4,0.2,0.7,0.3c0,0,0,0,0,0c0,0,0.1,0,0.1,0.1
			c0.1,0.1,0.3,0.1,0.4,0.1c0.1,0,0.3,0.1,0.4,0.1c0,0,0,0,0,0c0.4,0.1,0.8,0.1,1.2,0.2c0.3,0,0.6,0,1,0c0.3,0,0.7,0,1,0
			c0.4,0,0.8-0.1,1.2-0.1c0.7-0.1,1.3-0.4,1.9-0.7c0.3-0.2,0.6-0.4,0.8-0.6c0.2-0.2,0.4-0.4,0.6-0.6c0.1-0.2,0.3-0.3,0.4-0.5
			c0.1-0.2,0.2-0.5,0.3-0.7c0.2-0.4,0.2-0.8,0.3-1.2c0-0.3,0.1-0.7,0.1-1c0-0.1,0-0.2,0-0.2c0.2,0.1,0.4,0.3,0.6,0.4
			c0.4,0.2,0.7,0.3,1.1,0.5c0.7,0.3,1.5,0.5,2.3,0.6c0.2,0,0.4,0,0.6,0c0.3,0,0.6,0,0.8,0c0.2,0,0.4-0.1,0.6-0.2
			c0.2-0.1,0.4-0.1,0.6-0.2c0.4-0.1,0.7-0.2,1.1-0.4c0.1-0.1,0.3-0.1,0.4-0.2c0.1-0.1,0.3-0.1,0.4-0.2c0.5-0.2,0.8-0.5,1.2-0.9
			c0.2-0.2,0.4-0.5,0.6-0.7c0.5-0.6,0.9-1.3,1-2c0.1-0.4,0.1-0.7,0.1-1.1c0-0.3-0.1-0.6-0.1-0.9c0-0.2,0-0.5-0.1-0.7
			c0-0.1-0.1-0.2-0.1-0.3c-0.1-0.2-0.1-0.4-0.2-0.6c-0.2-0.3-0.3-0.6-0.5-0.9c-0.2-0.4-0.5-0.7-0.7-1c0,0,0,0,0,0
			c0.1,0,0.2,0,0.2-0.1c0.4-0.1,0.7-0.3,1.1-0.4c0.7-0.3,1.4-0.7,2-1.2c0.2-0.1,0.3-0.3,0.5-0.4c0.2-0.2,0.4-0.4,0.6-0.6
			c0.1-0.2,0.2-0.4,0.3-0.5c0.1-0.2,0.2-0.4,0.3-0.6c0.2-0.3,0.4-0.7,0.5-1c0.1-0.1,0.1-0.3,0.2-0.4c0.1-0.1,0.1-0.3,0.2-0.4
			c0.2-0.5,0.2-1,0.2-1.5C48.8,26.6,48.7,26.3,48.7,26z M33.5,28.4c-0.1,0.8-0.5,1.4-1,2c-0.2,0.3-0.4,0.5-0.6,0.7
			c-0.3,0.4-0.7,0.7-1.2,0.9c-0.1,0.1-0.3,0.1-0.4,0.2c-0.1,0.1-0.3,0.1-0.4,0.2c-0.4,0.1-0.7,0.2-1.1,0.4c-0.2,0.1-0.4,0.1-0.6,0.2
			c-0.2,0.1-0.4,0.1-0.6,0.2c-0.3,0-0.6,0.1-0.8,0c-0.2,0-0.4,0-0.6,0c-0.8-0.1-1.6-0.3-2.3-0.6c-0.4-0.2-0.7-0.3-1.1-0.5
			c-0.3-0.1-0.6-0.3-0.8-0.5c-0.3-0.3-0.7-0.5-1-0.8c-0.2-0.2-0.4-0.5-0.6-0.8c-0.2-0.3-0.5-0.7-0.6-1.1c-0.1-0.2-0.2-0.5-0.3-0.7
			c-0.1-0.2-0.1-0.4-0.1-0.6c0-0.3,0-0.6,0-0.8c0-0.3,0.1-0.7,0.2-1c0.2-0.7,0.4-1.3,0.8-1.8c0.2-0.3,0.5-0.7,0.8-1
			c0.2-0.3,0.5-0.5,0.7-0.8c0.2-0.2,0.4-0.5,0.7-0.7c0.3-0.3,0.6-0.5,1-0.7c0,0,0,0,0,0c0.1-0.1,0.2-0.2,0.3-0.2
			c0.1-0.1,0.2-0.2,0.4-0.2c0,0,0.1,0,0.1-0.1c0,0,0,0,0,0c0.2-0.1,0.4-0.2,0.7-0.3c0.1,0,0.3-0.1,0.4-0.1c0.4-0.1,0.8-0.1,1.2-0.1
			c0.4,0.1,0.9,0.1,1.3,0.3c0.5,0.1,1,0.4,1.4,0.7c0.3,0.2,0.6,0.4,0.9,0.6c0.3,0.3,0.7,0.5,0.9,0.8c0.2,0.2,0.5,0.5,0.7,0.8
			c0.3,0.3,0.5,0.7,0.7,1c0.2,0.3,0.4,0.6,0.5,0.9c0.1,0.2,0.2,0.4,0.2,0.6c0,0.1,0.1,0.2,0.1,0.3c0,0.2,0.1,0.5,0.1,0.7
			c0.1,0.3,0.1,0.6,0.1,0.9C33.7,27.7,33.6,28.1,33.5,28.4z"/>
	</g>
	<g>
		<path class="st1" d="M50.1,25.6c-0.7-4-4.2-5.8-7.9-6c0.4,0.9,0.7,1.7,1.1,2.6c3.5-3,3.8-9.2,0.8-12.7c-3.4-4-8.8-2.7-12,0.8
			c0.9,0.4,1.7,0.7,2.6,1.1c-0.3-2.1-1.1-4.2-2.5-5.7c-1.3-1.4-3.7-2.6-5.6-2.8c-2.1-0.2-4.5,0.5-5.9,2.1c-1.6,1.8-2.1,3.8-2.2,6.2
			c0.9-0.4,1.7-0.7,2.6-1.1c-1.8-1.5-4-2.8-6.4-2.4c-1.9,0.3-3.4,1.4-4.9,3c-1.6,1.7-2.7,3.6-2.7,6c0.1,2.3,1.6,4.5,3.6,5.7
			c0.3-0.9,0.5-1.9,0.8-2.8c-2.3-0.2-4.8,0.5-6.5,2.1c-1.5,1.4-1.9,3.6-2,5.6c-0.1,2.2,0.3,4.4,1.7,6.2c1.4,1.8,3.6,2.5,5.9,2.4
			c-0.4-0.8-0.9-1.5-1.3-2.3c-1.1,1.6-1.6,3.8-1,5.7c0,0.1,0.6,1.3,0.4,0.8c0.2,0.4,0.4,0.7,0.6,1.1c0.5,0.8,1.1,1.5,1.8,2.1
			c2.9,2.7,6.9,4,10.2,1.1c-0.9-0.4-1.7-0.7-2.6-1.1c0.2,2,1,4.2,2.6,5.5c1.5,1.2,3.6,1.5,5.5,1.5c2.1,0,4.1-0.4,5.8-1.7
			c1.7-1.3,2.5-3.3,2.4-5.5c-0.8,0.4-1.5,0.9-2.3,1.3c1.7,1.1,3.8,1.8,5.7,1.6c1.9-0.1,4.3-1,5.7-2.3c3.1-3,2.7-7.4,0-10.6
			c-0.2,0.8-0.4,1.7-0.7,2.5c4.1-1.2,7.6-5,7-9.6c-0.2-1.9-3.2-1.9-3,0c0.4,3.2-1.8,5.8-4.8,6.7c-1.1,0.3-1.4,1.7-0.7,2.5
			c1.7,2,2,4.9-0.3,6.6c-2.2,1.7-5.2,1.4-7.5,0c-0.9-0.6-2.3,0.2-2.3,1.3c0.1,3.1-2.5,4.2-5.2,4.2c-1,0-2.2-0.1-3.1-0.5
			c-1.2-0.6-1.9-2.1-2-3.4c-0.1-1.3-1.5-2-2.6-1.1c-2.1,1.9-4.6,0.3-6.2-1.3c-1.7-1.7-2.5-3.6-1-5.8c0.6-0.9-0.2-2.3-1.3-2.3
			C9,33,7.6,32.7,6.8,31.5c-0.9-1.2-1-2.8-1-4.3c0-1.1,0.2-2.5,1-3.3c1.1-1.2,3-1.4,4.5-1.3c1.5,0.1,2-2.1,0.8-2.8
			c-1.2-0.7-2.2-2-2.1-3.5c0.1-1.5,1-2.7,2-3.7c0.7-0.7,1.6-1.5,2.6-1.8c1.6-0.5,3.1,0.4,4.3,1.4c1,0.9,2.5,0.3,2.6-1.1
			c0.1-1.4,0.3-2.8,1.2-3.9c0.9-1.2,2.4-1.7,3.9-1.4c2.7,0.5,4.9,2.8,5.2,5.5c0.1,1.2,1.6,2.1,2.6,1.1c2-2.3,5.6-3.7,7.7-0.8
			c1.8,2.4,1.5,6.4-0.8,8.5c-1.1,0.9-0.1,2.5,1.1,2.6c2.5,0.1,4.6,1.2,5.1,3.8C47.5,28.3,50.4,27.5,50.1,25.6z"/>
		<path class="st1" d="M32.1,28c-0.5,2.2-2.6,3.2-4.6,3.6c-2.1,0.5-4.8-0.9-6-2.5c-1.6-2.2,0.1-4.6,1.7-6.2c0.7-0.6,1.4-1.2,2.2-1.5
			c1-0.4,2.1-0.1,2.9,0.4C30.5,23.1,32.5,25.5,32.1,28c-0.1,0.8,0.2,1.6,1,1.8c0.7,0.2,1.7-0.2,1.8-1c0.3-1.6,0.1-3.3-0.6-4.7
			c-0.8-1.6-2-3-3.4-4.1c-1.4-1-3-1.8-4.8-1.7c-0.9,0-1.7,0.3-2.6,0.7c0.2-0.1,0.5-0.3-0.2,0.1c-0.2,0.1-0.3,0.2-0.5,0.3
			c-0.3,0.2-0.6,0.4-0.9,0.6c-2.7,2.1-5.3,5.6-4,9.2c1.2,3.3,4.9,5.4,8.4,5.5c0.9,0,1.8-0.2,2.7-0.5c0.8-0.3,1.7-0.5,2.5-1
			c1.5-0.9,2.9-2.7,3.3-4.4c0.2-0.8-0.2-1.6-1-1.8C33.2,26.8,32.3,27.2,32.1,28z"/>
	</g>
</g>
</svg>
