<?xml version="1.0" encoding="utf-8"?>
<!-- Generator: Adobe Illustrator 23.1.1, SVG Export Plug-In . SVG Version: 6.00 Build 0)  -->
<svg version="1.1" id="Layer_1" xmlns="http://www.w3.org/2000/svg" xmlns:xlink="http://www.w3.org/1999/xlink" x="0px" y="0px"
	 viewBox="0 0 265.8 72.9" style="enable-background:new 0 0 265.8 72.9;" xml:space="preserve">
<style type="text/css">
	.st0{fill:#FFFFFF;}
	.st1{fill:#2C2C2C;}
</style>
<g>
	<path class="st0" d="M19.5,40.5c0-0.4-0.1-0.8-0.1-1.2c0-1.2-0.1-2.5-0.2-3.7c-0.2-3.1-0.6-6.1-1-9.2c-0.1-0.6-0.1-1.2-0.2-1.9
		c0-1.7-0.2-3.4-0.4-5.2c0-0.2,0-0.3,0-0.5c0.1-1.9,0.3-3.7,0.2-5.6c0-0.9-0.2-1.8-0.6-2.7c-0.3-0.9-0.8-1.7-1.4-2.3
		c-0.3-0.3-0.7-0.6-1.1-0.8c-0.4-0.3-0.9-0.5-1.4-0.7c-0.8-0.3-1.8-0.5-2.8-0.5c-0.1,0-0.2,0-0.2,0c-0.3,0-0.6,0-0.9,0.1l0,0
		C9.1,6.3,8.9,6.3,8.6,6.3l0,0c-0.2,0-0.5,0-0.7,0.1c-0.2,0-0.3,0-0.5,0.1c-0.2,0-0.3,0.1-0.5,0.2C6.7,6.8,6.4,7,6.1,7.1
		c-0.4,0.2-0.7,0.4-1,0.7C4.7,8.1,4.3,8.5,3.9,8.9c-0.4,0.3-0.7,0.7-1,1.2c-0.3,0.4-0.5,0.8-0.7,1.3c-0.1,0.3-0.2,0.6-0.3,1
		c-0.1,0.5-0.1,1-0.2,1.5c-0.1,0.9-0.1,1.9,0.1,2.8c0.1,0.8,0.2,1.6,0.3,2.3C2.1,20.2,2,21.3,2,22.5c0,0.6-0.1,1.3-0.1,1.9
		c-0.1,0.9-0.1,1.9,0,2.8c0,0.1,0,0.3-0.1,0.4c-0.3,1.9-0.4,3.8-0.4,5.7c0,3.7,0.3,7.4,0.9,11.1c0,0.2,0.1,0.3,0.2,0.4
		c0,0,0,0,0,0.1c-0.2,0.7-0.1,1.5,0,2.2c0.1,0.9,0.5,1.8,1,2.6c0.6,1,1.2,1.9,1.9,2.6c0.3,0.4,0.7,0.7,1,1.1c0.4,0.4,0.9,0.7,1.3,1
		c0.7,0.5,1.6,0.8,2.5,0.9c0.7,0.2,1.5,0.2,2.2,0.1c0.4,0,0.7-0.1,1.1-0.2c0.4-0.1,0.7-0.2,1.1-0.4c0.6-0.3,1.1-0.6,1.6-1.1
		c0.5-0.4,0.9-1,1.3-1.5c0.3-0.5,0.6-1.1,0.9-1.6c0.3-0.7,0.5-1.3,0.7-2c0.4-1.3,0.5-2.7,0.6-4.1C19.7,43,19.7,41.8,19.5,40.5z"/>
	<g>
		<path class="st1" d="M21,40.5c-1-7.5-2.2-15.9-1.8-23.4c0.3-5.6-0.6-10.9-7-12.1c-2.8-0.5-5.6-0.2-8,1.5C-1,10.3,0.6,16,0.5,21.7
			C0.4,29.1-0.7,36.6,0.8,44c0.4,2.2,0.2,0.2,0.3,1c0.1,1.1-0.1,2.2,0.3,3.3c0.8,2.6,2.5,5,4.6,6.6c3.3,2.4,7.7,2.7,10.8,0.1
			C20.9,51.6,21.3,45.3,21,40.5c-0.1-1.9-3.1-1.8-3,0.1c0.2,3.7,0.2,9.3-3,12.1s-7.3,0.7-9.3-2.3c-1.2-1.8-1.2-3.6-1.5-5.5
			c-1.6-8.5-0.5-16.4-0.5-24.9c-0.1-4.3-1.4-10.4,4.2-12c3.8-1.1,7.9,1.4,8.4,5.4c0.2,2-0.3,4.1-0.3,6.1c0,2.3,0.4,4.7,0.6,7
			c0.5,4.7,0.7,9.4,1.3,14C18.3,42.4,21.3,42.4,21,40.5z"/>
	</g>
</g>
<g>
	<g>
		<path class="st0" d="M102.7,45.4c0-0.1,0-0.2-0.1-0.3c-0.1-1.1-0.5-2-1.2-2.7l0,0c-0.1-0.3-0.3-0.6-0.5-0.9
			c0.3-1.4,0.2-2.8,0.1-4.2c0-0.4-0.1-0.8-0.2-1.3c0-0.4,0-0.8-0.1-1.1c-0.1-1.2-0.4-2.4-0.9-3.5c-0.3-0.6-0.5-1.2-0.9-1.8
			c-0.4-0.6-0.8-1.2-1.3-1.7c-0.8-1-1.9-1.9-3.1-2.6c-1.1-0.8-2.3-1.3-3.5-1.6c-0.5-0.2-1.1-0.3-1.7-0.3c-0.8-0.1-1.5-0.2-2.3-0.2
			l-0.1,0c-1.3,0-2.7,0.3-4,0.5c-2.3,0.3-4.5,1.2-6.3,2.6c-0.3,0.2-0.7,0.5-1,0.8c-0.1,0.1-0.2,0.2-0.4,0.3
			c-0.4,0.4-0.8,0.8-1.2,1.2c-0.4,0.5-0.9,1.1-1.2,1.7c-0.6,1-1.1,2.1-1.5,3.2c-0.6,1.4-0.7,3-0.9,4.5c-0.1,1.4,0.1,2.9,0.4,4.3
			c0.3,1.4,0.9,2.7,1.6,3.9c0.3,0.5,0.6,1.1,1,1.6c0.5,0.6,0.9,1.2,1.5,1.8c0.5,0.5,1.1,1,1.7,1.4c0.5,0.4,1.1,0.8,1.7,1.1
			c0.6,0.4,1.3,0.7,2,0.9c0.6,0.3,1.3,0.4,2,0.6c3.2,0.6,6.6,0.1,9.6-1.3c0.7,0.4,1.4,0.7,2.3,0.8l0,0c0.1,0,0.1,0.1,0.2,0.1
			c0.4,0.2,0.9,0.3,1.4,0.4c0.5,0.1,1,0.1,1.5,0c0.5-0.1,1-0.2,1.5-0.5c0.3-0.2,0.6-0.3,0.9-0.6c0.1-0.1,0.2-0.1,0.3-0.2l0,0
			c0.2-0.1,0.3-0.3,0.5-0.4c0.2-0.1,0.3-0.3,0.3-0.5c0.2-0.3,0.5-0.7,0.7-1c0.5-0.8,0.7-1.7,0.8-2.5
			C102.8,46.9,102.8,46.1,102.7,45.4z"/>
		<g>
			<path class="st1" d="M104.1,45c-0.3-1.9-1.3-3.2-1.5-4.9c-0.5-3.1-0.1-6.1-1.3-9.1c-1.7-4.1-5.6-7.6-9.9-8.7
				c-10.6-2.8-21.2,4.3-22.2,15.2c-1.1,10.4,8.1,19.2,18.5,17.6c1.5-0.2,3.1-1.1,4.7-1c0.4,0,2.8,0.6,1.4,0.4c2.2,0.6,3.7,1,5.9-0.1
				c3.2-1.7,4.6-5.6,4.4-9c-0.1-1.9-3.1-1.8-3,0.1c0.3,4.5-2.1,7.2-6.8,6.1c-1-0.3-1.5-0.7-2.5-0.7c-1.8-0.1-4.2,1.4-6.2,1.5
				c-10.3,0.3-16.3-10.6-12.2-19.6c3.6-8.1,15.6-10.8,22.2-4.7c3,2.7,3.8,6.6,3.9,10.6c0,1.7-0.3,2.2,0.1,3.6
				c0.3,1.2,1.3,2.2,1.6,3.6C101.6,47.7,104.5,46.9,104.1,45z"/>
		</g>
	</g>
	<g>
		<path class="st0" d="M84.8,42.5c0.2,0,0.3-0.1,0.5-0.2c0.2,0,0.4,0,0.6-0.1l0.1,0c0.1,0,0.2,0,0.2,0c0.2,0,0.4,0,0.6,0
			c0.1,0,0.1,0,0.2,0l0,0c0.1,0,0.3,0,0.4,0c0.1,0,0.2-0.1,0.3-0.1c0.1,0,0.1-0.1,0.2-0.1c0,0,0,0,0.1-0.1c0.1,0,0.1,0,0.2,0
			c0.1,0,0.2-0.1,0.3-0.1c0.1-0.1,0.2-0.2,0.4-0.3c0.1-0.1,0.1-0.2,0.2-0.2c0.1-0.1,0.2-0.3,0.3-0.5c0.1-0.2,0.2-0.4,0.2-0.6
			c0.1-0.2,0.1-0.4,0.2-0.5c0-0.2,0.1-0.4,0.1-0.6c0-0.2,0-0.4,0-0.6c0-0.2-0.1-0.4-0.1-0.6c-0.1-0.2-0.1-0.4-0.2-0.6
			c-0.1-0.1-0.1-0.2-0.2-0.3c0-0.1-0.1-0.2-0.2-0.3s-0.1-0.1-0.2-0.2c-0.1-0.2-0.2-0.5-0.3-0.7c-0.2-0.3-0.4-0.6-0.7-0.8
			c-0.1-0.1-0.2-0.1-0.3-0.1s-0.2,0-0.3-0.1c-0.1,0-0.2,0-0.3,0s-0.2,0-0.3,0.1c-0.1-0.2-0.2-0.4-0.4-0.6c-0.4-0.3-0.9-0.4-1.3,0
			c-0.1,0.1-0.2,0.1-0.2,0.2c-0.1,0.1-0.2,0.2-0.2,0.4l0,0c-0.1,0-0.2,0.1-0.2,0.1l-0.1,0c-0.1,0-0.2,0-0.3,0
			c-0.1,0-0.2,0.1-0.3,0.1c-0.1,0.1-0.3,0.2-0.4,0.3l0,0l0,0c-0.1,0.1-0.3,0.1-0.4,0.2c-0.1,0.1-0.2,0.2-0.3,0.3s-0.2,0.2-0.3,0.4
			c-0.1,0.2-0.2,0.4-0.3,0.6c0,0.1,0,0.2-0.1,0.2l0,0l0,0.1l0,0c0,0.1-0.1,0.3-0.1,0.4c0,0.2-0.1,0.4-0.1,0.7l0,0l0,0
			c0,0.4,0,0.7,0,1.1c0,0.3,0.1,0.7,0.2,1c0.1,0.2,0.2,0.4,0.3,0.6c0.1,0.1,0.1,0.2,0.2,0.4c0.1,0.2,0.2,0.3,0.4,0.4
			c0.1,0.1,0.3,0.3,0.5,0.4c0.2,0.2,0.5,0.2,0.8,0.3c0.1,0,0.2,0,0.3,0C84.4,42.6,84.6,42.5,84.8,42.5L84.8,42.5L84.8,42.5z"/>
		<g>
			<path class="st1" d="M85.2,43.9c0.7-0.2,0.3-0.1,1-0.2c0.3,0,0.7,0,1-0.1c-0.7-0.1-0.8-0.1-0.4,0c0.9-0.1,1.5-0.1,2.2-0.8
				c-0.4,0.1-0.7,0.3-1.1,0.4c2.8-0.3,3.8-3.9,3-6.2c-0.7-2-2.4-4.4-4.8-3.7c0.6,0.2,1.1,0.5,1.7,0.7c-1.1-2-3.7-1.9-4.8,0.1
				c0.3-0.2,0.6-0.5,0.9-0.7c0.5,0.1,0.6,0.1,0.2,0.1c-0.2,0-0.3,0-0.5,0c-0.4,0-0.7,0.1-1,0.3c-0.2,0.1-1.2,0.9-0.4,0.3
				c-0.3,0.2-0.6,0.4-0.9,0.6c-0.8,0.7-1.1,1.9-1.2,2.9c-0.4,2.9,1.1,6.6,4.6,6.3c1.9-0.2,1.8-3.2-0.1-3c-1.7,0.1-1.9-2.3-1.5-3.5
				c0.1-0.3,0.5-0.5,0.6-0.8c0.1-0.1,0.2-0.2,0.3-0.3c-0.4-0.1-0.5-0.1-0.1,0c0.4-0.1,0.8,0,1.2-0.3c0.9-0.6,0.3-0.3,0.2-0.6
				c0.3,0.6,1.1,0.8,1.7,0.7c0,0,0.9,1.5,1,1.7c0.2,0.6,0.2,1.2,0,1.8c0,0.1-0.5,0.9-0.2,0.6c-0.2,0.2-0.8,0.3-1.1,0.4
				c0.2,0,0.3,0,0.5,0c-0.3-0.1-0.5-0.1-0.8,0c-0.6,0-1.4,0.1-2.2,0.3C82.5,41.7,83.3,44.6,85.2,43.9z"/>
		</g>
	</g>
</g>
<g>
	<g>
		<path class="st0" d="M141.1,14.8c0-0.2-0.1-0.3-0.2-0.4c0,0,0,0,0-0.1c0.2-0.7,0.1-1.5,0-2.2c-0.1-0.9-0.5-1.8-1-2.6
			c-0.5-0.9-1.1-1.7-1.8-2.5c-0.3-0.4-0.7-0.7-1-1.1c-0.4-0.4-0.9-0.7-1.3-1c-0.7-0.5-1.6-0.8-2.5-0.9c-0.7-0.2-1.5-0.2-2.2-0.1
			c-0.4,0-0.7,0.1-1.1,0.2c-0.4,0.1-0.7,0.2-1.1,0.4c-0.6,0.3-1.1,0.6-1.6,1.1c-0.5,0.4-0.9,1-1.3,1.5c-0.3,0.5-0.6,1.1-0.9,1.6
			c-0.3,0.7-0.5,1.3-0.7,2c-0.4,1.3-0.5,2.7-0.6,4.1c-0.1,1.3-0.1,2.5,0,3.8c0,0.4,0.1,0.8,0.1,1.2c0,1.2,0.1,2.5,0.2,3.7
			c0,1,0.1,2,0.3,3.1c-0.5,0-1,0.1-1.5,0.2c-1.2,0.2-2.3,0.7-3.4,1.3c-0.3,0.1-0.6,0.3-0.9,0.5c-0.5,0.2-0.9,0.4-1.3,0.7
			c-0.7,0.4-1.3,0.9-2,1.4c-1.1,0.9-2,1.9-2.8,3.1c-0.5,0.6-0.9,1.3-1.2,2c-0.3,0.4-0.5,0.8-0.7,1.3c-0.5,0.9-0.8,1.8-0.9,2.8
			c-0.1,0.5-0.2,1.1-0.2,1.6c0,0.5,0,1,0.1,1.5c0.1,0.5,0.3,1,0.5,1.4c0.2,0.4,0.4,0.7,0.6,1c0.3,0.4,0.7,0.8,1.1,1.2
			c0.2,0.1,0.3,0.3,0.5,0.4c0.1,0.1,0.1,0.2,0.2,0.4c0.3,0.7,0.8,1.3,1.3,2c0.5,0.7,1.2,1.2,1.8,1.7c0.5,0.4,1.1,0.7,1.7,1
			c0.7,0.3,1.5,0.6,2.3,0.8c0.8,0.2,1.6,0.3,2.3,0.4c0.4,0,0.7,0.1,1.1,0.1c0.4,0,0.8,0,1.2-0.1c0.8-0.1,1.6-0.2,2.4-0.4
			c0.7-0.2,1.4-0.4,2-0.7c0.4,0.2,0.8,0.4,1.2,0.6c0.9,0.4,1.9,0.6,2.9,0.5c0.1,0,0.2,0,0.2,0c0.3,0,0.6,0,0.9-0.1l0,0
			c0.2,0.1,0.5,0.1,0.7,0.1l0,0c0.2,0,0.5,0,0.7-0.1c0.1,0,0.3-0.1,0.4-0.1c0.2,0,0.3-0.1,0.5-0.2c0.3-0.1,0.6-0.2,0.9-0.4
			c0.4-0.2,0.7-0.4,1-0.6c0.5-0.3,0.9-0.7,1.3-1.1c0.4-0.4,0.7-0.8,1-1.2c0.3-0.4,0.5-0.9,0.7-1.3c0.1-0.3,0.2-0.6,0.3-1
			c0.1-0.5,0.1-1,0.2-1.5c0.1-0.9,0.1-1.9-0.1-2.8c-0.1-0.8-0.2-1.6-0.3-2.3c0.1-1.1,0.2-2.2,0.2-3.4c0-0.6,0.1-1.3,0.1-1.9
			c0.1-0.9,0.1-1.9,0-2.8c0-0.1,0-0.3,0.1-0.4c0.3-1.9,0.4-3.8,0.4-5.7C142.1,22.1,141.8,18.4,141.1,14.8z"/>
		<g>
			<path class="st1" d="M142.4,14c0,0.1,0.3,1.5,0.1-0.8c-0.1-1.1-0.1-1.8-0.6-2.9c-0.6-1.9-1.9-3.6-3.2-4.9
				c-2.7-2.6-6.6-4-10.1-2.3c-8.1,3.8-6.2,16.7-5.4,23.6c0.5-0.5,1-1,1.5-1.5c-7.8,1-18.1,9.5-16,18.4c0.7,2.9,4,6.8,6.4,8.6
				c3.1,2.2,7.4,2.9,11.1,2.3c6.1-1.1,12.6,2.3,16.2-5.1c2.1-4.1,0.7-10.6,0.8-15c0.2-6.7,0.5-13-0.5-19.7c-0.3-1.9-3.2-1-2.9,0.9
				c1.5,8.5-0.3,16.5,0.2,24.9c0.2,4,0.9,9.7-4.2,11.1c-2,0.5-3.9-0.7-5.9-0.8c-2.1,0-4.1,1.1-6.4,1c-4,0-7-1.7-9.3-5
				c-0.2-0.2-0.6-0.7-0.7-0.9c-2.4-4.1-2.2-6.4,0.1-10.2c2.3-3.7,6.7-6.8,11.1-7.4c0.8-0.1,1.6-0.6,1.5-1.5
				c-0.5-5.6-2.1-13.9,1.4-18.7c3.2-4.5,9.2-1.9,11.2,2.4c0.8,1.8,0.3,3.7,1.2,5.3C140.8,17.2,143.3,15.6,142.4,14z"/>
		</g>
	</g>
	<g>
		<path class="st0" d="M123.5,38.2c-0.1,0-0.2,0.1-0.4,0.1c-0.1,0-0.3,0-0.4,0.1c0,0,0,0-0.1,0c-0.1,0-0.1,0-0.2,0
			c-0.1,0-0.3,0-0.4,0l-0.1,0l0,0c-0.1,0-0.2,0-0.3,0c-0.1,0-0.2,0.1-0.2,0.1c-0.1,0-0.1,0.1-0.1,0.1l0,0l-0.1,0
			c-0.1,0-0.2,0.1-0.2,0.1c-0.1,0-0.2,0.1-0.3,0.2c-0.1,0-0.1,0.1-0.1,0.2c-0.1,0.1-0.1,0.2-0.2,0.3c-0.1,0.1-0.1,0.3-0.2,0.4
			c0,0.1-0.1,0.3-0.1,0.4c0,0.1-0.1,0.3-0.1,0.5c0,0.1,0,0.3,0,0.4c0,0.1,0.1,0.3,0.1,0.4c0,0.2,0.1,0.3,0.2,0.4
			c0,0.1,0.1,0.2,0.1,0.2c0,0.1,0.1,0.1,0.1,0.2c0,0.1,0.1,0.1,0.1,0.1c0.1,0.2,0.2,0.3,0.3,0.5c0.1,0.2,0.3,0.4,0.5,0.5
			c0.1,0,0.1,0.1,0.2,0.1c0.1,0,0.1,0,0.2,0s0.1,0,0.2,0c0.1,0,0.1,0,0.2,0c0.1,0.2,0.2,0.3,0.3,0.4c0.3,0.2,0.7,0.3,1,0
			c0.1-0.1,0.1-0.1,0.2-0.2c0.1-0.1,0.1-0.2,0.2-0.3l0,0c0.1,0,0.1,0,0.2-0.1l0.1,0c0.1,0,0.1,0,0.2,0s0.1-0.1,0.2-0.1
			s0.2-0.1,0.3-0.2l0,0l0,0c0.1,0,0.2-0.1,0.3-0.2s0.1-0.1,0.2-0.2c0.1-0.1,0.1-0.2,0.2-0.3c0.1-0.1,0.1-0.3,0.2-0.5
			c0-0.1,0-0.1,0-0.2l0,0c0,0,0,0,0-0.1l0,0c0-0.1,0.1-0.2,0.1-0.3c0-0.2,0.1-0.3,0.1-0.5l0,0l0,0c0-0.3,0-0.5,0-0.8
			c0-0.2-0.1-0.5-0.1-0.7c0-0.1-0.1-0.3-0.2-0.4c0-0.1-0.1-0.2-0.1-0.3c-0.1-0.1-0.2-0.2-0.3-0.3c-0.1-0.1-0.2-0.2-0.3-0.3
			c-0.2-0.1-0.4-0.2-0.5-0.2c-0.1,0-0.2,0-0.2,0C123.7,38.2,123.6,38.2,123.5,38.2L123.5,38.2L123.5,38.2z"/>
		<g>
			<path class="st1" d="M123.1,36.8c-0.5,0.1-0.5,0.1-0.1,0.2c-0.2,0-0.4-0.1-0.6-0.1c-0.3,0-0.6,0-0.8,0.1c0.7,0,0.9,0,0.5,0
				c-0.8,0.1-1.3,0.1-2,0.7c0.4-0.1,0.7-0.3,1.1-0.4c-2.3,0.2-3.2,3.1-2.5,5c0.6,1.7,2,3.5,4,3c-0.6-0.2-1.1-0.5-1.7-0.7
				c0.9,1.7,3.3,1.7,4.2-0.1c-0.3,0.2-0.6,0.5-0.9,0.7c-0.6-0.1-0.7-0.1-0.3,0c0.1,0,0.3,0,0.4,0c0.3,0,0.7-0.1,1-0.3
				c0.2-0.1,1-0.8,0.3-0.2c0.2-0.2,0.5-0.3,0.7-0.5c0.6-0.6,0.9-1.4,1-2.3c0.4-2.4-1-5.3-3.8-5c-1.9,0.2-1.8,3.2,0.1,3
				c0.9-0.1,0.9,1.4,0.6,2c-0.1,0.1-0.2,0.2-0.2,0.3c-0.1,0.1-0.2,0.1-0.3,0.2c0.7,0,0.9,0,0.5-0.1c-0.4,0-0.8,0-1.1,0.2
				c-1.4,0.9,0.3,0.2,0.5,0.6c-0.3-0.6-1.1-0.8-1.7-0.7c0.4,0.2,0.5,0.1,0.3-0.2c0-0.1-0.1-0.2-0.1-0.2c-0.1-0.2-0.3-0.4-0.4-0.6
				c-0.1-0.4,0.1-0.6,0-1c0-0.1,0.6-0.9-0.3-0.1c0.1-0.1,1.2-0.1,1.1-0.4c0,0-1.5,0.2,0,0.1c0.4,0-0.3,0,0.2,0
				c0.5,0,0.9-0.1,1.4-0.2C125.7,39,124.9,36.1,123.1,36.8z"/>
		</g>
	</g>
</g>
<g>
	<g>
		<path class="st0" d="M60.4,38.1c0-0.4-0.1-0.8-0.2-1.3c0-0.4,0-0.8-0.1-1.1c-0.1-1.2-0.4-2.4-0.9-3.5c-0.3-0.6-0.5-1.2-0.9-1.8
			c-0.4-0.6-0.8-1.2-1.3-1.7c-0.8-1-1.9-1.9-3.1-2.6s-2.3-1.3-3.5-1.6c-0.5-0.2-1.1-0.3-1.7-0.3c-0.8-0.1-1.5-0.2-2.3-0.2l-0.1,0
			c-1.3,0-2.7,0.3-4,0.5c-2.3,0.3-4.5,1.2-6.3,2.6c-0.3,0.2-0.7,0.5-1,0.8c-0.1,0.1-0.2,0.2-0.4,0.3c-0.4,0.4-0.8,0.8-1.2,1.2
			c-0.4,0.5-0.9,1.1-1.2,1.7c-0.6,1-1.1,2.1-1.5,3.2c-0.6,1.4-0.7,3-0.9,4.5c-0.1,1.4,0.1,2.9,0.4,4.3c0.3,1.4,0.9,2.7,1.6,3.9
			c0.3,0.5,0.6,1.1,1,1.6c0.5,0.6,0.9,1.2,1.5,1.8c0.5,0.5,1.1,1,1.7,1.4c0.5,0.4,1.1,0.8,1.7,1.1c0.6,0.4,1.3,0.7,2,0.9
			c0.6,0.3,1.3,0.4,2,0.6c4,0.8,8.2-0.3,11.7-2.3c0.9-0.5,1.7-1.1,2.5-1.9c0.6-0.5,1.1-1.1,1.5-1.8c0.4-0.4,0.7-0.8,1-1.2
			c0.4-0.6,0.8-1.2,1-1.8c0.4-0.8,0.6-1.6,0.8-2.4C60.6,41.3,60.6,39.7,60.4,38.1z"/>
		<g>
			<path class="st1" d="M61.8,37.6C61,32.7,60,29.1,56,25.8c-3.3-2.5-7.1-3.6-11.2-3.2c-9.8,0.8-17.2,8.4-16.4,18.5
				c0.7,8.4,7.9,15.1,16.4,15C54.8,56,62.6,47.9,61.8,38c-0.1-1.9-3.1-1.8-3,0.1c0.7,8.2-5.7,15-14,15.1
				c-7.4,0.2-13.4-6.1-13.4-13.5c0.1-8.4,6.7-14,14.9-14.1s11.3,5.9,12.6,12.9C59.2,40.4,62.1,39.5,61.8,37.6z"/>
		</g>
	</g>
	<g>
		<path class="st0" d="M44.2,43.3c0.2,0,0.3-0.1,0.5-0.2c0.2,0,0.4,0,0.6-0.1l0.1,0c0.1,0,0.2,0,0.2,0c0.2,0,0.4,0,0.6,0
			c0.1,0,0.1,0,0.2,0l0,0c0.1,0,0.3,0,0.4,0s0.2-0.1,0.3-0.1c0.1,0,0.1-0.1,0.2-0.1c0,0,0,0,0.1-0.1c0.1,0,0.1,0,0.2,0
			c0.1,0,0.2-0.1,0.3-0.1c0.1-0.1,0.2-0.2,0.4-0.3c0.1-0.1,0.1-0.2,0.2-0.2c0.1-0.1,0.2-0.3,0.3-0.5c0.1-0.2,0.2-0.4,0.2-0.6
			c0.1-0.2,0.1-0.4,0.2-0.5c0-0.2,0.1-0.4,0.1-0.6c0-0.2,0-0.4,0-0.6c0-0.2-0.1-0.4-0.1-0.6C49,38.4,49,38.2,48.9,38
			c-0.1-0.1-0.1-0.2-0.2-0.3c0-0.1-0.1-0.2-0.2-0.3c-0.1-0.1-0.1-0.1-0.2-0.2c-0.1-0.2-0.2-0.5-0.3-0.7c-0.2-0.3-0.4-0.6-0.7-0.8
			c-0.1-0.1-0.2-0.1-0.3-0.1c-0.1,0-0.2,0-0.3-0.1c-0.1,0-0.2,0-0.3,0c-0.1,0-0.2,0-0.3,0.1c-0.1-0.2-0.2-0.4-0.4-0.6
			c-0.4-0.3-0.9-0.4-1.3,0c-0.1,0.1-0.2,0.1-0.2,0.2c-0.1,0.1-0.2,0.2-0.2,0.4l0,0c-0.1,0-0.2,0.1-0.2,0.1l-0.1,0
			c-0.1,0-0.2,0-0.3,0c-0.1,0-0.2,0.1-0.3,0.1c-0.1,0.1-0.3,0.2-0.4,0.3l0,0l0,0c-0.1,0.1-0.3,0.1-0.4,0.2c-0.1,0.1-0.2,0.2-0.3,0.3
			c-0.1,0.1-0.2,0.2-0.3,0.4s-0.2,0.4-0.3,0.6c0,0.1,0,0.2-0.1,0.2l0,0l0,0.1l0,0c0,0.1-0.1,0.3-0.1,0.4c0,0.2-0.1,0.4-0.1,0.7l0,0
			l0,0c0,0.4,0,0.7,0,1.1c0,0.3,0.1,0.7,0.2,1c0.1,0.2,0.2,0.4,0.3,0.6c0.1,0.1,0.1,0.2,0.2,0.4c0.1,0.2,0.2,0.3,0.4,0.4
			c0.1,0.1,0.3,0.3,0.5,0.4c0.2,0.2,0.5,0.2,0.8,0.3c0.1,0,0.2,0,0.3,0C43.8,43.4,44,43.3,44.2,43.3L44.2,43.3L44.2,43.3z"/>
		<g>
			<path class="st1" d="M44.6,44.8c0.7-0.2,0.3-0.1,1-0.2c0.3,0,0.7,0,1-0.1c-0.7-0.1-0.8-0.1-0.4,0c0.9-0.1,1.5-0.1,2.2-0.8
				c-0.4,0.1-0.7,0.3-1.1,0.4c2.8-0.3,3.8-3.9,3-6.2c-0.7-2-2.4-4.4-4.8-3.7c0.6,0.2,1.1,0.5,1.7,0.7c-1.1-2-3.7-1.9-4.8,0.1
				c0.3-0.2,0.6-0.5,0.9-0.7c0.5,0.1,0.6,0.1,0.2,0.1c-0.2,0-0.3,0-0.5,0c-0.4,0-0.7,0.1-1,0.3c-0.2,0.1-1.2,0.9-0.4,0.3
				c-0.3,0.2-0.6,0.4-0.9,0.6c-0.8,0.8-1.1,1.9-1.2,2.9c-0.4,2.9,1.1,6.6,4.6,6.3c1.9-0.2,1.8-3.2-0.1-3c-1.7,0.1-1.9-2.3-1.5-3.5
				c0.1-0.3,0.5-0.5,0.6-0.8c0.1-0.1,0.2-0.2,0.3-0.3c-0.4-0.1-0.5-0.1-0.1,0c0.4-0.1,0.8,0,1.2-0.3c0.9-0.6,0.3-0.3,0.2-0.6
				c0.3,0.6,1.1,0.8,1.7,0.7c0,0,0.9,1.5,1,1.7c0.2,0.6,0.2,1.2,0,1.8c0,0.1-0.5,0.9-0.2,0.6c-0.2,0.2-0.8,0.3-1.1,0.4
				c0.2,0,0.3,0,0.5,0c-0.3-0.1-0.5-0.1-0.8,0c-0.6,0-1.4,0.1-2.2,0.3C42,42.5,42.7,45.4,44.6,44.8z"/>
		</g>
	</g>
</g>
<g>
	<g>
		<path class="st0" d="M264.3,32.3c0-0.4-0.1-0.8-0.2-1.3c0-0.4,0-0.8-0.1-1.1c-0.1-1.2-0.4-2.4-0.9-3.5c-0.3-0.6-0.5-1.2-0.9-1.8
			c-0.4-0.6-0.8-1.2-1.3-1.7c-0.8-1-1.9-1.9-3.1-2.6c-1.1-0.8-2.3-1.3-3.5-1.6c-0.5-0.2-1.1-0.3-1.7-0.3c-0.8-0.1-1.5-0.2-2.3-0.2
			l-0.1,0c-1.3,0-2.7,0.3-4,0.5c-2.3,0.3-4.5,1.2-6.3,2.6c-0.3,0.2-0.7,0.5-1,0.8c-0.1,0.1-0.2,0.2-0.4,0.3
			c-0.4,0.4-0.8,0.8-1.2,1.2c-0.4,0.5-0.9,1.1-1.2,1.7c-0.6,1-1.1,2.1-1.5,3.2c-0.6,1.4-0.7,3-0.9,4.5c-0.1,1.4,0.1,2.9,0.4,4.3
			c0.3,1.4,0.9,2.7,1.6,3.9c0.3,0.5,0.6,1.1,1,1.6c0.5,0.6,0.9,1.2,1.5,1.8c0.5,0.5,1.1,1,1.7,1.4c0.5,0.4,1.1,0.8,1.7,1.1
			c0.6,0.4,1.3,0.7,2,0.9c0.6,0.3,1.3,0.4,2,0.6c1.3,0.3,2.6,0.2,3.8,0.2c-0.2,1.1-0.3,2.2-0.3,3.3c-0.1,0.8-0.1,1.7,0,2.5
			c0,0.1,0,0.1,0,0.2c-0.1,0.1-0.1,0.2-0.2,0.3c-0.2,0.2-0.3,0.4-0.5,0.5s-0.4,0.3-0.7,0.4c-0.2,0.1-0.3,0.1-0.5,0.1
			c-0.2,0-0.4,0-0.5,0c-0.1,0-0.2,0-0.3-0.1s-0.2-0.3-0.3-0.4c-0.3-0.3-0.7-0.5-1.2-0.7c-0.1,0-0.1,0-0.2-0.1
			c-0.3-0.1-0.7-0.1-1.1-0.1l0,0c-0.1-0.1-0.2-0.1-0.2-0.2c-0.4-0.3-0.9-0.5-1.4-0.7c-0.5-0.2-1.1-0.3-1.7-0.3c-0.4,0-0.8,0-1.2,0
			c-0.6,0.1-1.2,0.2-1.7,0.4c-1.1,0.4-2.1,1.1-2.9,2c-0.9,1-1.5,2.2-1.7,3.4c-0.1,0.4-0.1,0.8-0.2,1.2c0,0.2,0,0.5,0,0.7
			c0,0.4,0.1,0.7,0.1,1.1c0,0.3,0.1,0.5,0.2,0.8c0.4,1.1,1,2.2,2,3c0.3,0.3,0.7,0.6,1.1,0.9c0.1,0.3,0.3,0.6,0.5,0.9
			c0.2,0.2,0.4,0.5,0.6,0.7c0.2,0.2,0.4,0.4,0.7,0.6c0.6,0.5,1.3,0.9,2.1,1.2c0.4,0.2,0.8,0.3,1.3,0.4c0.5,0.1,1,0.2,1.5,0.2
			c0.7,0.1,1.4,0.1,2,0c0.7-0.1,1.3-0.2,1.9-0.4c0.2,0,0.4,0.1,0.6,0.1c0.5,0.1,0.9,0.1,1.4,0.1s1-0.1,1.5-0.2
			c0.9-0.2,1.8-0.6,2.7-1.2c0.9-0.5,1.7-1.1,2.4-1.7c0.2,0,0.3-0.1,0.5-0.2c0.4-0.1,0.8-0.2,1.2-0.4c0.9-0.4,1.7-1.1,2.5-2
			c0.7-0.8,1.3-1.8,1.7-2.9c0.1-0.2,0.1-0.3,0.2-0.5c0.8-1.5,1.2-3.4,1.3-5.2l0-0.1c0.1-0.2,0.1-0.4,0.2-0.6c0.5-1.5,0.7-3,0.8-4.5
			c0-0.3,0-0.6,0-0.9c0.2-0.7,0.3-1.5,0.4-2.2c0.3-3,0.5-6,0.2-9c0-0.3-0.1-0.6-0.1-0.8c0.1-0.4,0.2-0.8,0.3-1.2
			C264.6,35.5,264.6,33.9,264.3,32.3z"/>
		<g>
			<path class="st1" d="M265.8,31.9c-1.1-6.6-3.5-12.1-10.4-14.4c-6.1-2-14,0-18.4,4.7c-10.5,11.1-1.8,28.4,12.7,28.2
				c-0.5-0.5-1-1-1.5-1.5c-0.2,1.3,0.1,3.2-0.4,4.5c-0.8,2.3,0.4,0.9-0.8,1c0.1,0-1.4-0.7-1.7-0.9c-0.5-0.1-1-0.1-1.5-0.2
				c0.8,0.1,0.7,0-0.2-0.3c-3.8-1-7.4-0.9-10.3,2.3c-5.4,6.2,0.6,15.4,7.6,17c3.1,0.7,8.2,0.2,11.1-0.9c4.2-1.6,8.5-4.5,10.4-8.6
				c1.7-3.5,2.1-7.9,2.6-11.8c0.3-3.1,0.7-6.3,0.6-9.5s0.5-6.3,0.2-9.5c-0.1-1.9-3.1-1.8-3,0.1c0.1,2.2-0.3,4.3-0.4,6.4
				c-0.1,2.2,0.3,4.5,0.1,6.7c-0.2,3.7-0.7,7.4-1.5,11.1c-0.4,2.1-0.7,4.8-2.1,6.5c-1.3,1.6-3.8,3.2-5.7,4.3
				c-3,1.9-10.2,3.4-13.6,1.4c-3.8-2.2-7.7-8-3.5-11.7c1.9-1.6,5.3-1.4,7.7-0.7c0.8,0.3,1.6,1,2.4,1.2c5.4,0.9,4.6-5.5,4.9-8.8
				c0.1-0.8-0.8-1.5-1.5-1.5c-12.3,0.2-19.5-15.1-9.7-23.9c3.7-3.4,10.3-4.7,15.1-2.8c5.6,2.2,6.9,6.7,7.9,12.1
				C263.3,34.7,266.2,33.8,265.8,31.9z"/>
		</g>
	</g>
	<g>
		<path class="st0" d="M248.1,37.6c0.2,0,0.3-0.1,0.5-0.2c0.2,0,0.4,0,0.6-0.1l0.1,0c0.1,0,0.2,0,0.2,0c0.2,0,0.4,0,0.6,0
			c0.1,0,0.1,0,0.2,0l0,0c0.1,0,0.3,0,0.4,0c0.1,0,0.2-0.1,0.3-0.1c0.1,0,0.1-0.1,0.2-0.1c0,0,0,0,0.1-0.1c0.1,0,0.1,0,0.2,0
			c0.1,0,0.2-0.1,0.3-0.1c0.1-0.1,0.2-0.2,0.4-0.3c0.1-0.1,0.1-0.2,0.2-0.2c0.1-0.1,0.2-0.3,0.3-0.5c0.1-0.2,0.2-0.4,0.2-0.6
			c0.1-0.2,0.1-0.4,0.2-0.5c0-0.2,0.1-0.4,0.1-0.6c0-0.2,0-0.4,0-0.6c0-0.2-0.1-0.4-0.1-0.6c-0.1-0.2-0.1-0.4-0.2-0.6
			c-0.1-0.1-0.1-0.2-0.2-0.3c0-0.1-0.1-0.2-0.2-0.3c-0.1-0.1-0.1-0.1-0.2-0.2c-0.1-0.2-0.2-0.5-0.3-0.7c-0.2-0.3-0.4-0.6-0.7-0.8
			c-0.1-0.1-0.2-0.1-0.3-0.1c-0.1,0-0.2,0-0.3-0.1c-0.1,0-0.2,0-0.3,0c-0.1,0-0.2,0-0.3,0.1c-0.1-0.2-0.2-0.4-0.4-0.6
			c-0.4-0.3-0.9-0.4-1.3,0c-0.1,0.1-0.2,0.1-0.2,0.2c-0.1,0.1-0.2,0.2-0.2,0.4l0,0c-0.1,0-0.2,0.1-0.2,0.1l-0.1,0
			c-0.1,0-0.2,0-0.3,0c-0.1,0-0.2,0.1-0.3,0.1c-0.1,0.1-0.3,0.2-0.4,0.3l0,0l0,0c-0.1,0.1-0.3,0.1-0.4,0.2c-0.1,0.1-0.2,0.2-0.3,0.3
			c-0.1,0.1-0.2,0.2-0.3,0.4c-0.1,0.2-0.2,0.4-0.3,0.6c0,0.1,0,0.2-0.1,0.2l0,0l0,0.1l0,0c0,0.1-0.1,0.3-0.1,0.4
			c0,0.2-0.1,0.4-0.1,0.7l0,0l0,0c0,0.4,0,0.7,0,1.1c0,0.3,0.1,0.7,0.2,1c0.1,0.2,0.2,0.4,0.3,0.6c0.1,0.1,0.1,0.2,0.2,0.4
			c0.1,0.2,0.2,0.3,0.4,0.4c0.1,0.1,0.3,0.3,0.5,0.4c0.2,0.2,0.5,0.2,0.8,0.3c0.1,0,0.2,0,0.3,0C247.8,37.6,248,37.6,248.1,37.6
			L248.1,37.6L248.1,37.6z"/>
		<g>
			<path class="st1" d="M248.6,39c0.7-0.2,0.3-0.1,1-0.2c0.3,0,0.7,0,1-0.1c-0.7-0.1-0.8-0.1-0.4,0c0.9-0.1,1.5-0.1,2.2-0.8
				c-0.4,0.1-0.7,0.3-1.1,0.4c2.8-0.3,3.8-3.9,3-6.2c-0.7-2-2.4-4.4-4.8-3.7c0.6,0.2,1.1,0.5,1.7,0.7c-1.1-2-3.7-1.9-4.8,0.1
				c0.3-0.2,0.6-0.5,0.9-0.7c0.5,0.1,0.6,0.1,0.2,0.1c-0.2,0-0.3,0-0.5,0c-0.4,0-0.7,0.1-1,0.3c-0.2,0.1-1.2,0.9-0.4,0.3
				c-0.3,0.2-0.6,0.4-0.9,0.6c-0.8,0.7-1.1,1.9-1.2,2.9c-0.4,2.9,1.1,6.6,4.6,6.3c1.9-0.2,1.8-3.2-0.1-3c-1.7,0.1-1.9-2.3-1.5-3.5
				c0.1-0.3,0.5-0.5,0.6-0.8c0.1-0.1,0.2-0.2,0.3-0.3c-0.4-0.1-0.5-0.1-0.1,0c0.4-0.1,0.8,0,1.2-0.3c0.9-0.6,0.3-0.3,0.2-0.6
				c0.3,0.6,1.1,0.8,1.7,0.7c0,0,0.9,1.5,1,1.7c0.2,0.6,0.2,1.2,0,1.8c0,0.1-0.5,0.9-0.2,0.6c-0.2,0.2-0.8,0.3-1.1,0.4
				c0.2,0,0.3,0,0.5,0c-0.3-0.1-0.5-0.1-0.8,0c-0.6,0-1.4,0.1-2.2,0.3C245.9,36.7,246.8,39.6,248.6,39z"/>
		</g>
	</g>
</g>
<g>
	<g>
		<path class="st0" d="M151,10.9c-0.2,0.9-0.3,1.8,0.1,2.7l0,0c-0.1,1.2,0.8,2.3,1.9,2.7c0.3,0.2,0.6,0.4,0.9,0.6
			c0.1,0.1,0.1,0.1,0.2,0.2c0.3,0.3,0.7,0.6,1,0.8c0.7,0.4,1.2,0.5,1.9,0.7c0.2,0,0.5,0.1,0.8,0.1c0.6,0,1.2-0.1,1.8-0.3
			c0.3-0.1,0.6-0.2,0.9-0.3c0.5,0,1-0.1,1.4-0.2c1.6-0.3,3.1-1,4.4-2c0.4-0.3,0.7-0.7,1-1.1c0.3-0.3,0.5-0.6,0.7-1
			c0.4-0.7,0.5-1.2,0.7-2c0.3-0.7,0.5-1.5,0.6-2.3c0.1-0.6,0-1.3-0.2-1.8c-0.1-0.6-0.4-1.2-0.8-1.8c-0.3-0.4-0.5-0.8-0.8-1.1
			c-0.3-0.3-0.7-0.7-1-0.9c-0.7-0.6-1.5-1-2.3-1.3C163,2,162,1.8,161.1,1.7c-0.3,0-0.7,0-1,0c-0.8-0.1-1.7,0-2.4,0.2
			c-0.8,0.3-1.6,0.7-2.2,1.2c-0.1,0.1-0.3,0.1-0.4,0.2c-1,0.5-1.6,1.2-2.3,2c-0.1,0.2-0.3,0.3-0.4,0.5c-0.1,0-0.1,0-0.2,0.1
			c-0.8,0.4-1.4,1.2-1.7,2c-0.3,0.9-0.2,1.9,0.3,2.7C150.9,10.7,151,10.8,151,10.9z"/>
		<g>
			<path class="st1" d="M149.4,10.5c-0.2,2.5-0.3,5.1,1.8,6.7c2.1,1.7,4.5,3.1,7.3,2.7C164.7,19,171,15.2,170.2,8
				c-0.6-5.6-7.5-8.9-12.6-7.7c-2.6,0.7-4.4,2.5-6.2,4.3c-0.9,0.9-1.7,1.3-2.1,2.5C149,8.3,149.7,9.7,149.4,10.5
				c-0.5,1.9,2.5,2.6,2.9,0.7c0.9-3.5,0.7-4.7,3.9-6.8c3.2-2.2,8.2-1.5,10.3,2c1.3,2.1,0.6,5.5-0.8,7.3c-1.5,1.8-3.6,2.1-5.6,2.6
				c-2.2,0.5-3.2,0.8-5.2-0.5c-1.9-1.2-2.8-2.2-2.5-4.6C152.6,9.3,149.7,8.5,149.4,10.5z"/>
		</g>
	</g>
	<g>
		<g>
			<path class="st0" d="M153.2,41.7C153.2,41.7,153.1,41.7,153.2,41.7c-0.2,0.8-0.1,1.5,0,2.3c0.1,0.9,0.5,1.8,1,2.6
				c0.5,0.9,1.1,1.7,1.8,2.5c0.3,0.4,0.7,0.7,1,1.1c0.4,0.4,0.9,0.7,1.3,1c0.7,0.5,1.6,0.8,2.5,0.9c0.7,0.2,1.5,0.2,2.2,0.1
				c0.4,0,0.7-0.1,1.1-0.2c0.4-0.1,0.7-0.2,1.1-0.4c0.6-0.3,1.1-0.6,1.6-1.1c0.5-0.4,0.9-1,1.3-1.5c0.3-0.5,0.6-1.1,0.9-1.6
				c0.3-0.6,0.5-1.2,0.7-1.9c-0.1-0.6-0.1-1.2-0.2-1.7c-0.1-0.6-0.1-1.2-0.2-1.9c0-1.7-0.2-3.4-0.4-5.2c0-0.2,0-0.3,0-0.5
				c0.1-1.9,0.3-3.7,0.2-5.6c0-0.9-0.2-1.8-0.6-2.7c-0.3-0.9-0.8-1.7-1.4-2.3c-0.3-0.3-0.7-0.6-1.1-0.8c-0.4-0.3-0.9-0.5-1.4-0.7
				c-0.9-0.4-1.9-0.6-2.9-0.5c-0.1,0-0.2,0-0.2,0c-0.3,0-0.6,0-0.9,0.1l0,0c-0.2-0.1-0.5-0.1-0.7-0.1l0,0c-0.2,0-0.5,0-0.7,0.1
				c-0.1,0-0.3,0.1-0.4,0.1c-0.2,0-0.3,0.1-0.5,0.2c-0.3,0.1-0.6,0.2-0.9,0.4c-0.4,0.2-0.7,0.4-1,0.6c-0.5,0.3-0.9,0.7-1.3,1.1
				c-0.4,0.4-0.7,0.8-1,1.2c-0.3,0.4-0.5,0.9-0.7,1.3c-0.1,0.3-0.2,0.6-0.3,1c-0.1,0.5-0.1,1-0.2,1.5c-0.1,0.9-0.1,1.9,0.1,2.8
				c0.1,0.8,0.2,1.6,0.3,2.3c-0.1,1.1-0.2,2.2-0.2,3.4c0,0.5,0,0.9-0.1,1.4c0,0.1,0,0.2,0,0.2C153,41.4,153,41.6,153.2,41.7z"/>
			<g>
				<path class="st1" d="M151.7,41.4c-1.5,7,7.1,14.8,13.8,11.7c2.5-1.2,4.3-3.7,5.1-6.3c0.6-2.6-0.1-5.7-0.4-8.4
					c-0.2-2.8,0.3-5.7-0.1-8.5c-0.7-6-7.1-9.4-12.7-7.3c-3.1,1.1-5.5,4-6.1,7.2c-0.5,2.7,0.1,5.6,0.1,8.3c-0.1,1.6-0.4,3.1,0.4,4.5
					c0.9,1.7,3.5,0.1,2.6-1.6c-0.7-1.2,0.1-4.4,0-6c-0.3-3.3-0.2-7.6,3.4-9.4c1.1-0.5,1.5-0.4,2.5-0.5c0.3,0,0.7-0.1,1.1-0.1
					c3.8,0.7,5.7,2.7,5.8,6.5c0.1,2.3-0.2,4.6-0.1,6.9c0.2,2.5,1,6,0.2,8.3c-2.7,7.7-14.2,2.2-12.7-4.6
					C155,40.2,152,39.5,151.7,41.4z"/>
			</g>
		</g>
	</g>
</g>
<g>
	<path class="st0" d="M226,39.1c-0.1-1.1-0.2-2.3-0.5-3.4c-0.3-1.6-1-3.2-1.8-4.7c-0.1-0.2-0.2-0.3-0.3-0.5c-0.1-0.3-0.2-0.6-0.3-1
		c-0.6-1.8-1.7-3.4-2.9-4.7c-0.5-0.7-1.1-1.3-1.7-1.9c-0.7-0.7-1.5-1.3-2.3-1.9c-1.4-1.1-3.1-1.7-4.8-2.4c-0.8-0.3-1.7-0.6-2.5-0.7
		c-0.3-0.1-0.6-0.1-0.9-0.2c-0.9-0.2-1.8-0.3-2.7-0.2c-0.1,0-0.1-0.1-0.2-0.1c-0.1,0-0.2,0-0.3,0l0,0l0,0c-0.6-0.1-1.3-0.1-1.9-0.1
		c-0.1,0-0.1,0-0.2,0c-0.5,0-1.1,0-1.6,0.1l-0.1,0c-0.4,0-0.7-0.1-1.1-0.1l0,0c-0.4,0-0.8,0.1-1.2,0.1c-0.6,0.1-1.2,0.4-1.8,0.6
		c-0.3,0.1-0.5,0.3-0.8,0.4l0,0c-1,0.4-1.9,0.9-2.8,1.6c-0.3-0.3-0.6-0.7-0.9-1c-0.6-0.5-1.2-1-1.9-1.2c-0.4-0.2-0.8-0.2-1.2-0.2
		c-0.3,0-0.6,0-0.9,0.1c-1.8,0.3-3.6,1.4-4.7,3c-0.3,0.4-0.5,0.8-0.7,1.2c-0.2,0.4-0.4,0.9-0.6,1.4c-0.3,0.9-0.5,1.9-0.5,2.9
		c0,0.1,0,0.1,0,0.2c-0.1,0.4-0.2,0.7-0.3,1.1c-0.2,0.9-0.4,1.8-0.5,2.8c0,0.3-0.1,0.5-0.1,0.8c0.1,3.2,0.4,6.4,1,9.6
		c0,0.2,0.1,0.3,0.2,0.4c0,0,0,0,0,0.1c-0.2,0.7-0.1,1.5,0,2.2c0.1,0.9,0.5,1.8,1,2.6c0.5,0.9,1.1,1.7,1.8,2.5
		c0.3,0.4,0.7,0.7,1,1.1c0.4,0.4,0.9,0.7,1.3,1c0.7,0.5,1.6,0.8,2.5,0.9c0.7,0.2,1.5,0.2,2.2,0.1c0.4,0,0.7-0.1,1.1-0.2
		c0.4-0.1,0.7-0.2,1.1-0.4c0.6-0.3,1.1-0.6,1.6-1.1c0.5-0.4,0.9-1,1.3-1.5c0.3-0.5,0.6-1.1,0.9-1.6c0.3-0.7,0.5-1.3,0.7-2
		c0.4-1.3,0.5-2.7,0.6-4.1c0.1-1.3,0.1-2.5,0-3.8c0-0.4-0.1-0.8-0.1-1.2c0-0.4,0-0.8,0-1.1c0.5-0.1,1-0.1,1.5-0.3
		c0.6-0.2,1.1-0.4,1.7-0.6c0.9-0.4,1.8-1,2.6-1.9c0.1-0.1,0.3-0.3,0.4-0.4c0.2-0.1,0.4-0.2,0.7-0.3c0.4-0.1,0.7-0.2,1.1-0.3
		c0.2,0,0.5,0,0.7,0s0.4,0.1,0.6,0.2c0.1,0.1,0.3,0.1,0.4,0.2c0.1,0,0.1,0.1,0.2,0.1c0.3,0.2,0.5,0.5,0.7,0.7c0.4,0.5,0.7,1,0.9,1.6
		c0.4,1.1,0.7,2.3,1,3.5c0.2,1.5,0.3,3.1,0.1,4.6c-0.1,0.8-0.3,1.7-0.5,2.5c0,0.1-0.1,0.2-0.1,0.3c-0.1,0.3,0,1.6,0.1,1.8
		c0.4,0.7,0.9,1.3,1.4,1.9c0.3,0.4,0.7,0.7,1,1.1c0.4,0.4,0.9,0.7,1.3,1c0.7,0.5,1.6,0.8,2.5,0.9c0.7,0.2,1.5,0.2,2.2,0.1
		c0.4,0,0.7-0.1,1.1-0.2c0.4-0.1,0.7-0.2,1.1-0.4c0.6-0.3,1.1-0.6,1.6-1.1c0.5-0.4,0.9-1,1.3-1.5c0.3-0.5,0.6-1.1,0.9-1.6
		c0.3-0.7,0.5-1.3,0.7-2c0.1-0.4,0.2-0.8,0.3-1.3C226.1,41.6,226.1,40.3,226,39.1z"/>
	<g>
		<path class="st1" d="M227.5,39.1c-1.6-13.1-9.8-21.8-22.8-23.2c0.5,0.5,1,1,1.5,1.5l0,0c0-0.9-0.7-1.4-1.5-1.5
			c-4.7-0.4-8.2,0.4-12.2,3c0.6,0.1,1.2,0.2,1.8,0.2c-4.6-4.9-11.5-2.1-13.4,4.1c-1.1,3.7-1.6,8-1.3,11.9c0.1,2.1,0.6,4.2,0.9,6.3
			c-0.2-1.3,0,1.6,0.1,2.3c0.9,6,7.9,11.6,14,8.7c6.5-3.1,5.8-12,5.6-17.9c-0.4,0.5-0.7,1-1.1,1.4c1.5-0.3,2.9-0.8,4.2-1.5
			c1.1-0.6,1.9-1.8,3.2-2c4.6-0.4,3,8.2,2.7,11c-0.3,3.3,1.4,5.9,4.5,7.6C222.6,56.6,227.8,46.6,227.5,39.1c-0.1-1.9-3.1-1.8-3,0.1
			c0.2,2.6,0.1,5.7-1.5,7.9c-2.5,3.4-7,2.9-9.7-0.2c-1.8-2.2-0.8-3.1-0.5-5.5c0.2-2.5,0-5.2-0.9-7.7c-0.7-1.9-1.8-4.1-3.9-4.6
			c-3.4-0.9-6.7,3.3-9.6,3.9c-0.6,0.1-1.1,0.8-1.1,1.4c0.1,4.1,0.7,8.5-1.3,12.3c-3.9,7.4-11.4,0.6-12.4-4.9
			c-0.7-3.7-1.5-8.1-0.9-11.9c0.2-1.4,0.5-2.8,0.7-4.1c0.4-1.8,0.6-2.2,1.7-3.8c0.7-1.9,1.9-2.4,3.8-1.8c1.5-0.5,2.6-0.3,3.3,0.9
			c0.4,0.5,1.3,0.6,1.8,0.2c3.5-2.3,6.5-2.8,10.8-2.5c-0.5-0.5-1-1-1.5-1.5l0,0c0,0.9,0.7,1.4,1.5,1.5C215.9,20,223,28,224.4,39.1
			C224.7,41.1,227.7,41,227.5,39.1z"/>
	</g>
</g>
</svg>
