<?xml version="1.0" encoding="utf-8"?>
<!-- Generator: Adobe Illustrator 23.1.1, SVG Export Plug-In . SVG Version: 6.00 Build 0)  -->
<svg version="1.1" id="Layer_1" xmlns="http://www.w3.org/2000/svg" xmlns:xlink="http://www.w3.org/1999/xlink" x="0px" y="0px"
	 viewBox="0 0 462.7 346.6" style="enable-background:new 0 0 462.7 346.6;" xml:space="preserve">
<style type="text/css">
	.st0{fill:#FFFFFF;}
	.st1{fill:#2C2C2C;}
</style>
<g>
	<path class="st0" d="M461.2-98.5L1.5-95.2l4.9,288.5c-11.2,16.3-3.5,46.6,26.1,51.2c7.9,1.2,13.5-0.9,17.3-4.7
		c2.2,1.6,5,2.9,8.4,3.7c20.7,5.1,36.2-5.8,42.2-19.5c7.4,10.4,21,17.4,38.2,13.1c5.4-1.3,9.2-3.7,11.6-6.7c2.3,4.5,6.5,8.2,13.9,10
		c21.6,5.3,37.5-6.7,43-21.3c6.1,13.3,21.3,23.8,41.4,18.8c1.1-0.3,2-0.6,3-0.9c2.5,3,6.3,5.4,11.7,6.7c20.7,5.1,36.2-5.8,42.2-19.5
		c7.4,10.4,21,17.4,38.2,13.1c4.1-1,7.3-2.7,9.6-4.7c2.3,4.5,6.5,8.2,13.8,10c17.5,4.3,31.2-2.8,38.8-13.3c3.2,5.8,8.9,9.9,18.6,9.5
		c30-1.2,41-30.4,31.7-47.9L461.2-98.5z"/>
	<g>
		<path class="st1" d="M461.2-100c-4.1,0-8.2,0.1-12.4,0.1c-11.1,0.1-22.2,0.2-33.3,0.2c-16.5,0.1-33.1,0.2-49.6,0.4
			c-20,0.1-40.1,0.3-60.1,0.4c-22.1,0.2-44.2,0.3-66.3,0.5c-22.2,0.2-44.3,0.3-66.5,0.5c-20.8,0.2-41.6,0.3-62.4,0.5
			c-17.6,0.1-35.1,0.2-52.5,0.3c-12.7,0.1-25.3,0.2-38,0.3c-5.9,0-11.9,0-17.9,0.1c-0.3,0-0.5,0-0.8,0C0.7-96.7,0-96,0-95.2
			c0.1,3.6,0.1,7.2,0.2,10.8c0.2,9.5,0.3,19,0.5,28.6c0.2,13.7,0.5,27.5,0.7,41.2C1.7,1.5,1.9,17.6,2.2,33.7
			C2.5,50.3,2.8,66.9,3,83.4c0.3,15.4,0.5,30.8,0.8,46.2c0.2,12.3,0.4,24.7,0.6,37c0.1,7.5,0.3,14.9,0.4,22.4c0,1.2,0.3,2.9,0.1,4.1
			c-0.1,0.4,0.3-0.5-0.3,0.1c-1.2,1.3-1.9,3.5-2.6,5.2c-1.5,3.8-2.1,7.9-2.1,11.9c0.2,19.7,16.8,35.6,36.4,35.9
			c5.4,0.1,10.5-1.7,14.5-5.4c-0.6,0.1-1.2,0.2-1.8,0.2c9,6.3,22.6,6.7,32.6,2.8c8.9-3.5,16.2-10.4,20.1-19.1c-0.9,0-1.7,0-2.6,0
			c5.6,7.7,13.8,13.1,23.2,14.6c9.7,1.6,22.2,0,29-7.9c-0.8-0.1-1.6-0.2-2.4-0.3c6.2,11.8,22.9,13.8,34.6,10.9
			c11.5-2.9,20.8-11.5,25-22.6c-0.9,0.1-1.8,0.2-2.7,0.4c8.1,17.4,28.2,24.8,46.1,18.6c-0.5-0.1-1-0.3-1.5-0.4
			c7.7,8.9,22.9,10.1,33.6,7c10.1-3,18.4-10.4,22.7-20c-0.9,0-1.7,0-2.6,0c5.2,7.2,12.8,12.4,21.5,14.3c9.4,2,21.1,0.8,28.6-5.6
			c-0.8-0.1-1.6-0.2-2.4-0.3c5.4,10.2,18.8,12.9,29.4,11.8c10.5-1.1,19.7-6.6,25.8-15.2c-0.9,0-1.7,0-2.6,0
			c5.8,10.1,17.2,11.6,27.8,9.3c9.5-2.1,17.9-7.7,23-15.9c4.5-7.2,6.4-16,5.1-24.4c-0.3-2-0.9-4-1.6-5.9c-0.3-0.9-0.8-1.7-1.1-2.5
			c0,0,0,0.5,0,0.3c-0.1-0.3,0-0.8,0-1.1c0.1-5.7,0.2-11.5,0.3-17.2c0.2-11.2,0.4-22.4,0.6-33.7c0.3-14.9,0.5-29.7,0.8-44.6
			c0.3-16.6,0.6-33.3,0.9-49.9s0.6-33.1,0.9-49.7c0.2-14.6,0.5-29.2,0.7-43.8c0.2-10.9,0.4-21.8,0.6-32.7c0.1-5.3,0.3-10.6,0.3-15.9
			c0-0.2,0-0.5,0-0.7c0-1.9-3-1.9-3,0c-0.1,3.5-0.1,7-0.2,10.6c-0.2,9.4-0.3,18.8-0.5,28.2c-0.2,13.5-0.5,26.9-0.7,40.4
			c-0.3,15.9-0.5,31.8-0.8,47.7c-0.3,16.5-0.6,33-0.8,49.6c-0.3,15.3-0.5,30.7-0.8,46c-0.2,12.5-0.4,25.1-0.6,37.6
			c-0.1,7.9-0.3,15.8-0.4,23.8c0,1.7-0.1,3.4-0.1,5c0,0.7,0.1,1,0.4,1.7c1.6,3.8,2.7,7.5,2.8,11.6c0.2,8.8-3.3,17.5-9.5,23.7
			c-7.3,7.4-19.2,11.5-29.5,9.6c-5.2-0.9-9.2-3.9-11.8-8.4c-0.6-1.1-2-0.9-2.6,0c-5.5,7.6-13.9,12.6-23.2,13.7
			c-9.5,1.1-21.9-1-26.8-10.3c-0.5-0.9-1.7-0.9-2.4-0.3c-6.8,5.7-17.9,6.6-26.3,4.7c-7.7-1.8-14.5-6.4-19.1-12.8
			c-0.6-0.8-2.1-1.1-2.6,0c-3.9,8.7-11.2,15.6-20.3,18.5c-9.9,3.1-24.1,2.3-31.3-6c-0.3-0.4-1-0.5-1.5-0.4c-8.7,3-18.6,3-27-1.1
			c-7-3.4-12.4-9.1-15.7-16.1c-0.6-1.3-2.3-0.7-2.7,0.4c-3.8,9.8-12.1,17.5-22.3,20.3c-10.5,2.8-26.2,1.3-31.8-9.4
			c-0.4-0.8-1.7-1-2.4-0.3c-6.1,7.2-17.8,8.7-26.7,7.1c-8.3-1.5-15.7-6.2-20.7-13.1c-0.6-0.8-2.1-1.1-2.6,0
			c-3.6,8-10.1,14.6-18.3,17.7c-9.4,3.6-21.9,3.3-30.3-2.5c-0.6-0.4-1.4-0.2-1.8,0.2c-8.5,8.1-22.9,4.2-31.6-1.7
			c-7.4-5-12.3-13-13.7-21.8c-0.7-4-0.5-8.3,0.4-12.2c0.5-1.9,1.1-3.8,2-5.6c0.6-1.3,1.9-2.7,2.1-4.1c0.1-0.9,0-2,0-2.9
			c-0.1-6.7-0.2-13.4-0.3-20.1c-0.2-11.6-0.4-23.2-0.6-34.8C6.8,121,6.6,106.2,6.3,91.4C6,75.1,5.7,58.8,5.5,42.6
			C5.2,26.6,5,10.5,4.7-5.5C4.3-20,4-34.1,3.8-48.2C3.6-58.6,3.4-69,3.3-79.3c-0.1-3.3-0.1-6.6-0.2-10c0-1.7,0.1-3.5-0.1-5.2
			c0-0.2,0-0.5,0-0.7c-0.5,0.5-1,1-1.5,1.5c4.1,0,8.2-0.1,12.4-0.1C25-93.9,36.1-93.9,47.2-94c16.5-0.1,33.1-0.2,49.6-0.4
			c20-0.1,40.1-0.3,60.1-0.4c22.1-0.2,44.2-0.3,66.3-0.5c22.2-0.2,44.3-0.3,66.5-0.5c20.8-0.2,41.6-0.3,62.4-0.5
			c17.5-0.1,34.9-0.3,52.4-0.4c12.6-0.1,25.3-0.2,37.9-0.3c5.9,0,11.9,0,17.9-0.1c0.3,0,0.5,0,0.8,0C463.1-97,463.1-100,461.2-100z"
			/>
	</g>
</g>
<g id="XMLID_27530_">
	<path class="st0" d="M102.7,205.8c4.1,19.6-14.9,45-44.5,37.7c-29.5-7.3-9.4-45.2-9.4-45.2"/>
	<g>
		<path class="st1" d="M101.3,206.2c1.8,8.7-1.2,18-6.8,24.7c-6.4,7.9-16,12.3-26.1,12.3c-8.7,0-19.1-2.6-23-11.2
			c-2.8-6.3-1.8-13.8-0.1-20.3c1.2-4.6,2.7-8.7,4.9-12.7c0.9-1.7-1.7-3.2-2.6-1.5c-2,3.7-3.5,7.8-4.7,11.9
			c-2.1,7.1-3.4,15.3-0.8,22.4c1.4,3.8,3.9,7.1,7.2,9.4c4.5,3.1,10.2,4.4,15.6,4.9c11.1,1,22.2-2.8,29.9-10.9
			c6.6-6.9,10.7-16.7,9.9-26.3c-0.1-1.2-0.3-2.3-0.5-3.5C103.8,203.5,100.9,204.3,101.3,206.2L101.3,206.2z"/>
	</g>
</g>
<g id="XMLID_27531_">
	<path class="st0" d="M204.7,211.6c3.1,16.5,20,32.2,43.8,26.3c17.9-4.4,17.3-20.2,14.2-31.7"/>
	<g>
		<path class="st1" d="M203.3,212c2.6,13.3,13.2,24.4,26.4,27.6c7.6,1.9,16.3,1.3,23.6-1.7c5.8-2.4,10.1-7,11.8-13.1
			c1.7-6.2,0.8-12.9-0.8-19c-0.5-1.9-3.4-1.1-2.9,0.8c1.3,4.9,2.2,10.1,1.3,15.2c-0.9,5.4-3.8,9.9-8.6,12.5c-3.3,1.8-7,2.6-10.6,3.1
			s-7.3,0.4-10.8-0.2c-6.4-1.1-12.3-4.1-16.9-8.6c-4.8-4.7-8.1-10.7-9.4-17.3C205.8,209.3,202.9,210.1,203.3,212L203.3,212z"/>
	</g>
</g>
<g id="XMLID_27838_">
	<path class="st0" d="M94.8,200c-4,19.4,14.7,44.3,43.8,37.1c11.6-2.9,15.4-10.5,15.8-18.7"/>
	<g>
		<path class="st1" d="M93.4,199.6c-2.4,11.8,2.9,24.2,11.9,31.8c5,4.2,11.1,7,17.6,8c7.5,1.1,16,0.3,22.7-3.3
			c6.7-3.6,10-10.3,10.4-17.7c0.1-1.9-2.9-1.9-3,0c-0.3,5.7-2.6,11-7.5,14.2c-5.8,3.8-13.7,4.7-20.5,4.1
			c-11.7-1.1-21.9-8.7-26.6-19.4c-2.3-5.2-3.3-11.3-2.1-16.9C96.6,198.5,93.7,197.7,93.4,199.6L93.4,199.6z"/>
	</g>
</g>
<g id="XMLID_27837_">
	<path class="st0" d="M208.6,202.7c4.1,19.6-14.9,45-44.5,37.7s-9.4-45.2-9.4-45.2"/>
	<g>
		<path class="st1" d="M207.1,203.1c1.8,8.7-1.2,18-6.8,24.7c-6.4,7.9-16,12.3-26.1,12.3c-8.7,0-19.1-2.6-23-11.2
			c-2.8-6.3-1.8-13.8-0.1-20.3c1.2-4.6,2.7-8.7,4.9-12.7c0.9-1.7-1.7-3.2-2.6-1.5c-2,3.7-3.5,7.8-4.7,11.9
			c-2.1,7.1-3.4,15.3-0.8,22.4c1.4,3.8,3.9,7.1,7.2,9.4c4.5,3.1,10.2,4.4,15.6,4.9c11.1,1,22.2-2.8,29.9-10.9
			c6.6-6.9,10.7-16.7,9.9-26.3c-0.1-1.2-0.3-2.3-0.5-3.5C209.7,200.4,206.8,201.2,207.1,203.1L207.1,203.1z"/>
	</g>
</g>
<g id="XMLID_28424_">
	<path class="st0" d="M307.7,206c4.1,19.6-14.9,45-44.5,37.7c-29.5-7.3-9.4-45.2-9.4-45.2"/>
	<g>
		<path class="st1" d="M306.2,206.4c1.8,8.7-1.2,18-6.8,24.7c-6.4,7.9-16,12.3-26.1,12.3c-8.7,0-19.1-2.6-23-11.2
			c-2.8-6.3-1.8-13.8-0.1-20.3c1.2-4.6,2.7-8.7,4.9-12.7c0.9-1.7-1.7-3.2-2.6-1.5c-2,3.7-3.5,7.8-4.7,11.9
			c-2.1,7.1-3.4,15.3-0.8,22.4c1.4,3.8,3.9,7.1,7.2,9.4c4.5,3.1,10.2,4.4,15.6,4.9c11.1,1,22.2-2.8,29.9-10.9
			c6.6-6.9,10.7-16.7,9.9-26.3c-0.1-1.2-0.3-2.3-0.5-3.5C308.7,203.8,305.8,204.6,306.2,206.4L306.2,206.4z"/>
	</g>
</g>
<g id="XMLID_28420_">
	<path class="st0" d="M299.8,200.2c-4,19.4,14.7,44.3,43.8,37.1c15.7-3.9,17.2-16.5,15.2-27.3"/>
	<g>
		<path class="st1" d="M298.3,199.8c-2.7,13.2,4.2,27,15.2,34.3c6.3,4.2,13.8,6.2,21.3,5.9c7.9-0.3,16.8-2.5,21.9-9
			c4.7-6.1,4.8-14.2,3.5-21.4c-0.3-1.9-3.2-1.1-2.9,0.8c1,5.7,1.1,12-1.8,17.1c-3.7,6.5-11.5,8.8-18.5,9.4s-14.1-0.7-20.2-4.3
			c-5.4-3.1-9.8-7.8-12.6-13.4c-2.9-5.7-4.2-12.4-3-18.7C301.6,198.7,298.7,197.9,298.3,199.8L298.3,199.8z"/>
	</g>
</g>
<g id="XMLID_27780_">
	<path class="st0" d="M411.6,204.9c4.1,19.6-14.9,45-44.5,37.7c-29.5-7.3-9.4-45.2-9.4-45.2"/>
	<g>
		<path class="st1" d="M410.1,205.3c1.8,8.7-1.2,18-6.8,24.7c-6.4,7.9-16,12.3-26.1,12.3c-8.7,0-19.1-2.6-23-11.2
			c-2.8-6.3-1.8-13.8-0.1-20.3c1.2-4.6,2.7-8.7,4.9-12.7c0.9-1.7-1.7-3.2-2.6-1.5c-2,3.7-3.5,7.8-4.7,11.9
			c-2.1,7.1-3.4,15.3-0.8,22.4c1.4,3.8,3.9,7.1,7.2,9.4c4.5,3.1,10.2,4.4,15.6,4.9c11.1,1,22.2-2.8,29.9-10.9
			c6.6-6.9,10.7-16.7,9.9-26.3c-0.1-1.2-0.3-2.3-0.5-3.5C412.6,202.6,409.7,203.4,410.1,205.3L410.1,205.3z"/>
	</g>
</g>
</svg>
